<?xml version="1.0" encoding="UTF-8"?>
<svg width="1440px" height="1024px" viewBox="0 0 1440 1024" version="1.1" xmlns="http://www.w3.org/2000/svg" xmlns:xlink="http://www.w3.org/1999/xlink">
    <!-- Generator: Sketch 53.2 (72643) - https://sketchapp.com -->
    <title>Business</title>
    <desc>Created with Sketch.</desc>
    <defs>
        <linearGradient x1="50%" y1="78.4511557%" x2="50.9350565%" y2="39.2897568%" id="linearGradient-1">
            <stop stop-color="#2B3389" offset="0%"></stop>
            <stop stop-color="#444FB7" offset="100%"></stop>
        </linearGradient>
        <linearGradient x1="50%" y1="0%" x2="52.8317423%" y2="89.3678428%" id="linearGradient-2">
            <stop stop-color="#0F1752" offset="0%"></stop>
            <stop stop-color="#272884" offset="100%"></stop>
        </linearGradient>
        <linearGradient x1="50%" y1="0%" x2="50%" y2="91.8482298%" id="linearGradient-3">
            <stop stop-color="#EAFCFF" offset="0%"></stop>
            <stop stop-color="#FFFFFF" offset="100%"></stop>
        </linearGradient>
        <linearGradient x1="50%" y1="7.26438915%" x2="50%" y2="151.05781%" id="linearGradient-4">
            <stop stop-color="#D0F6FF" offset="0%"></stop>
            <stop stop-color="#8BE2F7" offset="100%"></stop>
        </linearGradient>
        <linearGradient x1="50%" y1="0%" x2="50%" y2="91.8482298%" id="linearGradient-5">
            <stop stop-color="#EAFCFF" offset="0%"></stop>
            <stop stop-color="#FFFFFF" offset="100%"></stop>
        </linearGradient>
        <linearGradient x1="31.4928986%" y1="24.563533%" x2="70.4572674%" y2="80.4180658%" id="linearGradient-6">
            <stop stop-color="#6EAE7C" offset="0%"></stop>
            <stop stop-color="#0F575D" offset="100%"></stop>
        </linearGradient>
        <linearGradient x1="47.730024%" y1="3.88170857%" x2="52.1197175%" y2="56.9243345%" id="linearGradient-7">
            <stop stop-color="#77D791" offset="0%"></stop>
            <stop stop-color="#4FA67E" offset="100%"></stop>
        </linearGradient>
        <linearGradient x1="50%" y1="7.26438915%" x2="50%" y2="151.05781%" id="linearGradient-8">
            <stop stop-color="#D0F6FF" offset="0%"></stop>
            <stop stop-color="#8BE2F7" offset="100%"></stop>
        </linearGradient>
        <linearGradient x1="50%" y1="-2.48949813e-15%" x2="50%" y2="100%" id="linearGradient-9">
            <stop stop-color="#4DBCFA" offset="0%"></stop>
            <stop stop-color="#1486DB" offset="100%"></stop>
        </linearGradient>
        <linearGradient x1="8.38174197%" y1="13.1381206%" x2="56.5702499%" y2="50%" id="linearGradient-10">
            <stop stop-color="#CFE49F" offset="0%"></stop>
            <stop stop-color="#A9D386" offset="100%"></stop>
        </linearGradient>
        <linearGradient x1="50%" y1="0%" x2="50%" y2="100%" id="linearGradient-11">
            <stop stop-color="#FF9485" offset="0%"></stop>
            <stop stop-color="#FF676E" offset="100%"></stop>
        </linearGradient>
        <linearGradient x1="50%" y1="0%" x2="50%" y2="100%" id="linearGradient-12">
            <stop stop-color="#FF9485" offset="0%"></stop>
            <stop stop-color="#FF676E" offset="100%"></stop>
        </linearGradient>
        <linearGradient x1="50%" y1="-29.8196609%" x2="50%" y2="69.6197333%" id="linearGradient-13">
            <stop stop-color="#4DBCFA" offset="0%"></stop>
            <stop stop-color="#0071C7" offset="100%"></stop>
        </linearGradient>
        <linearGradient x1="50%" y1="0%" x2="93.5555556%" y2="89.3678428%" id="linearGradient-14">
            <stop stop-color="#0F1752" offset="0%"></stop>
            <stop stop-color="#272884" offset="100%"></stop>
        </linearGradient>
        <linearGradient x1="50%" y1="114.0151%" x2="50.3366203%" y2="25.9019529%" id="linearGradient-15">
            <stop stop-color="#2B3389" offset="0%"></stop>
            <stop stop-color="#444FB7" offset="100%"></stop>
        </linearGradient>
        <linearGradient x1="50%" y1="0%" x2="50%" y2="100%" id="linearGradient-16">
            <stop stop-color="#FF9485" offset="0%"></stop>
            <stop stop-color="#FF676E" offset="100%"></stop>
        </linearGradient>
        <linearGradient x1="50%" y1="61.9239585%" x2="50%" y2="100%" id="linearGradient-17">
            <stop stop-color="#FFA79A" offset="0%"></stop>
            <stop stop-color="#FF676E" offset="100%"></stop>
        </linearGradient>
        <linearGradient x1="50%" y1="-2.48949813e-15%" x2="50%" y2="100%" id="linearGradient-18">
            <stop stop-color="#4DBCFA" offset="0%"></stop>
            <stop stop-color="#1486DB" offset="100%"></stop>
        </linearGradient>
        <linearGradient x1="50%" y1="-29.8196609%" x2="50%" y2="69.6197333%" id="linearGradient-19">
            <stop stop-color="#4DBCFA" offset="0%"></stop>
            <stop stop-color="#0071C7" offset="100%"></stop>
        </linearGradient>
        <linearGradient x1="50%" y1="-27.3641552%" x2="50%" y2="100%" id="linearGradient-20">
            <stop stop-color="#C0E4FD" offset="0%"></stop>
            <stop stop-color="#72B9FE" offset="100%"></stop>
        </linearGradient>
        <linearGradient x1="50%" y1="12.5347104%" x2="100%" y2="79.4985526%" id="linearGradient-21">
            <stop stop-color="#0F1752" offset="0%"></stop>
            <stop stop-color="#272884" offset="100%"></stop>
        </linearGradient>
        <linearGradient x1="50%" y1="-27.3641552%" x2="50%" y2="100%" id="linearGradient-22">
            <stop stop-color="#C0E4FD" offset="0%"></stop>
            <stop stop-color="#72B9FE" offset="100%"></stop>
        </linearGradient>
    </defs>
    <g id="Business" stroke="none" stroke-width="1" fill="none" fill-rule="evenodd">
        <rect fill="#FFFFFF" x="0" y="0" width="1440" height="1024"></rect>
        <g id="Tab" transform="translate(92.000000, 130.000000)">
            <path d="M20,0 L880,0 C891.045695,-2.02906125e-15 900,8.954305 900,20 L900,580 C900,591.045695 891.045695,600 880,600 L20,600 C8.954305,600 1.3527075e-15,591.045695 0,580 L0,20 C-1.3527075e-15,8.954305 8.954305,2.02906125e-15 20,0 Z" id="Shape" fill="url(#linearGradient-1)"></path>
            <path d="M30,202 L109,202 C114.522847,202 119,206.477153 119,212 L119,278 C119,283.522847 114.522847,288 109,288 L30,288 C24.4771525,288 20,283.522847 20,278 L20,212 C20,206.477153 24.4771525,202 30,202 Z M30,92 L109,92 C114.522847,92 119,96.4771525 119,102 L119,168 C119,173.522847 114.522847,178 109,178 L30,178 C24.4771525,178 20,173.522847 20,168 L20,102 C20,96.4771525 24.4771525,92 30,92 Z M30,312 L109,312 C114.522847,312 119,316.477153 119,322 L119,388 C119,393.522847 114.522847,398 109,398 L30,398 C24.4771525,398 20,393.522847 20,388 L20,322 C20,316.477153 24.4771525,312 30,312 Z M30,422 L109,422 C114.522847,422 119,426.477153 119,432 L119,498 C119,503.522847 114.522847,508 109,508 L30,508 C24.4771525,508 20,503.522847 20,498 L20,432 C20,426.477153 24.4771525,422 30,422 Z" id="Combined-Shape" fill="url(#linearGradient-2)"></path>
            <path d="M162,90 L876,90 C878.209139,90 880,91.790861 880,94 L880,585 C880,587.209139 878.209139,589 876,589 L162,589 C159.790861,589 158,587.209139 158,585 L158,94 C158,91.790861 159.790861,90 162,90 Z" id="Shape" fill="url(#linearGradient-3)"></path>
            <path d="M180,110 L236,110 C237.104569,110 238,110.895431 238,112 L238,128 C238,129.104569 237.104569,130 236,130 L180,130 C178.895431,130 178,129.104569 178,128 L178,112 C178,110.895431 178.895431,110 180,110 Z M180,150 L836,150 C837.104569,150 838,150.895431 838,152 L838,158 C838,159.104569 837.104569,160 836,160 L180,160 C178.895431,160 178,159.104569 178,158 L178,152 C178,150.895431 178.895431,150 180,150 Z M180,210 L816,210 C817.104569,210 818,210.895431 818,212 L818,218 C818,219.104569 817.104569,220 816,220 L180,220 C178.895431,220 178,219.104569 178,218 L178,212 C178,210.895431 178.895431,210 180,210 Z M180,270 L846,270 C847.104569,270 848,270.895431 848,272 L848,278 C848,279.104569 847.104569,280 846,280 L180,280 C178.895431,280 178,279.104569 178,278 L178,272 C178,270.895431 178.895431,270 180,270 Z M180,300 L846,300 C847.104569,300 848,300.895431 848,302 L848,308 C848,309.104569 847.104569,310 846,310 L180,310 C178.895431,310 178,309.104569 178,308 L178,302 C178,300.895431 178.895431,300 180,300 Z M180,329 L846,329 C847.104569,329 848,329.895431 848,331 L848,337 C848,338.104569 847.104569,339 846,339 L180,339 C178.895431,339 178,338.104569 178,337 L178,331 C178,329.895431 178.895431,329 180,329 Z M180,358 L846,358 C847.104569,358 848,358.895431 848,360 L848,366 C848,367.104569 847.104569,368 846,368 L180,368 C178.895431,368 178,367.104569 178,366 L178,360 C178,358.895431 178.895431,358 180,358 Z M180,387 L846,387 C847.104569,387 848,387.895431 848,389 L848,395 C848,396.104569 847.104569,397 846,397 L180,397 C178.895431,397 178,396.104569 178,395 L178,389 C178,387.895431 178.895431,387 180,387 Z M180,416 L846,416 C847.104569,416 848,416.895431 848,418 L848,424 C848,425.104569 847.104569,426 846,426 L180,426 C178.895431,426 178,425.104569 178,424 L178,418 C178,416.895431 178.895431,416 180,416 Z M180,445 L846,445 C847.104569,445 848,445.895431 848,447 L848,453 C848,454.104569 847.104569,455 846,455 L180,455 C178.895431,455 178,454.104569 178,453 L178,447 C178,445.895431 178.895431,445 180,445 Z M180,474 L846,474 C847.104569,474 848,474.895431 848,476 L848,482 C848,483.104569 847.104569,484 846,484 L180,484 C178.895431,484 178,483.104569 178,482 L178,476 C178,474.895431 178.895431,474 180,474 Z M180,503 L846,503 C847.104569,503 848,503.895431 848,505 L848,511 C848,512.104569 847.104569,513 846,513 L180,513 C178.895431,513 178,512.104569 178,511 L178,505 C178,503.895431 178.895431,503 180,503 Z M180,240 L786,240 C787.104569,240 788,240.895431 788,242 L788,248 C788,249.104569 787.104569,250 786,250 L180,250 C178.895431,250 178,249.104569 178,248 L178,242 C178,240.895431 178.895431,240 180,240 Z M180,180 L856,180 C857.104569,180 858,180.895431 858,182 L858,188 C858,189.104569 857.104569,190 856,190 L180,190 C178.895431,190 178,189.104569 178,188 L178,182 C178,180.895431 178.895431,180 180,180 Z M260,110 L316,110 C317.104569,110 318,110.895431 318,112 L318,128 C318,129.104569 317.104569,130 316,130 L260,130 C258.895431,130 258,129.104569 258,128 L258,112 C258,110.895431 258.895431,110 260,110 Z" id="Shape" fill="url(#linearGradient-4)"></path>
            <path d="M24,20 L876,20 C878.209139,20 880,21.790861 880,24 L880,66 C880,68.209139 878.209139,70 876,70 L24,70 C21.790861,70 20,68.209139 20,66 L20,24 C20,21.790861 21.790861,20 24,20 Z" id="Shape" fill="url(#linearGradient-5)"></path>
        </g>
        <g id="Plant" transform="translate(1210.559295, 550.579804)">
            <path d="M45.0689032,343.094614 C30.5816108,312.193054 37.9513795,256.941776 63.7639654,212.233065 C102.482844,145.17 164.77231,135.762232 164.77231,135.762232 C164.77231,135.762232 186.248818,201.877934 144.968149,273.378151 C117.447702,321.044962 85.9102675,343.094614 45.0689032,343.094614 Z" id="Shape" fill="url(#linearGradient-6)"></path>
            <path d="M17.8047599,308.725022 C-2.13406144,254.070855 -4.49985816,198.366698 10.7073697,141.612551 C25.9145976,84.8584043 55.8155161,37.8000876 100.410125,0.437601339 C120.348947,55.0917682 122.714743,110.795925 107.507516,167.550072 C92.3002877,224.304219 62.3993691,271.362536 17.8047599,308.725022 Z" id="Shape" fill="url(#linearGradient-7)" fill-rule="nonzero"></path>
            <polygon id="Shape" fill="#FFFFFF" fill-rule="nonzero" points="46.7518135 201.841611 72.2830818 177.826949 73.6533644 179.283769 45.9894774 205.304369 45.8606653 205.167422 25.1708298 282.382939 23.2389782 281.865301 54.442423 165.41246 43.7393054 129.857274 45.6544151 129.280772 55.4260347 161.741571 89.3265591 35.223091 91.2584108 35.7407291 67.4573372 124.567545 92.9886054 100.552883 94.358888 102.009703 66.695001 128.030303 66.5661889 127.893356 56.5214996 165.380647 56.6017444 165.647216 56.4367654 165.696879"></polygon>
        </g>
        <g id="Ornament" transform="translate(92.000000, 232.000000)">
            <path d="M1224,665 L2.27373675e-12,665 C62.5436769,552.622009 140.15586,515.945352 232.836549,554.970028 C371.857582,613.507042 361.327543,582.879488 512.366055,464.638443 C654.446888,353.409948 854.131088,446.246429 1063.70745,572.985007 C1077.68816,581.43966 1131.11901,612.111324 1224,665 Z" id="Shape" fill="url(#linearGradient-8)"></path>
            <path d="M1224,665 L0,665 C24.9624181,656.735246 66.9084465,633.254333 125.838085,594.55726 C214.232543,536.511651 276.319915,502.861078 396.478347,555.366421 C516.63678,607.871763 612.157771,648.881802 783.978475,526.99264 C898.525612,445.733198 1045.19945,491.735652 1224,665 Z" id="Shape" fill="url(#linearGradient-9)"></path>
            <path d="M969,43 L1171,43 C1176.52285,43 1181,47.4771525 1181,53 L1181,255 C1181,260.522847 1176.52285,265 1171,265 L969,265 C963.477153,265 959,260.522847 959,255 L959,53 C959,47.4771525 963.477153,43 969,43 Z" id="Shape" fill="url(#linearGradient-10)"></path>
            <path d="M1096.64053,131.341567 C1096.64053,133.728446 1094.70628,135.663394 1092.32026,135.663394 C1089.93425,135.663394 1088,133.728446 1088,131.341567 C1088,128.954687 1089.93425,127.019739 1092.32026,127.019739 C1094.70628,127.019739 1096.64053,128.954687 1096.64053,131.341567 Z M1096.64053,105.937619 C1096.64053,108.324498 1094.70628,110.259446 1092.32026,110.259446 C1089.93425,110.259446 1088,108.324498 1088,105.937619 C1088,103.55074 1089.93425,101.615792 1092.32026,101.615792 C1094.70628,101.615792 1096.64053,103.55074 1096.64053,105.937619 Z M1096.64053,80.533671 C1096.64053,82.9205503 1094.70628,84.8554983 1092.32026,84.8554983 C1089.93425,84.8554983 1088,82.9205503 1088,80.533671 C1088,78.1467917 1089.93425,76.2118436 1092.32026,76.2118436 C1094.70628,76.2118436 1096.64053,78.1467917 1096.64053,80.533671 Z M1096.64053,55.1297231 C1096.64053,57.5166024 1094.70628,59.4515505 1092.32026,59.4515505 C1089.93425,59.4515505 1088,57.5166024 1088,55.1297231 C1088,52.7428438 1089.93425,50.8078958 1092.32026,50.8078958 C1094.70628,50.8078958 1096.64053,52.7428438 1096.64053,55.1297231 Z M1096.64053,29.7257752 C1096.64053,32.1126546 1094.70628,34.0476026 1092.32026,34.0476026 C1089.93425,34.0476026 1088,32.1126546 1088,29.7257752 C1088,27.3388959 1089.93425,25.4039479 1092.32026,25.4039479 C1094.70628,25.4039479 1096.64053,27.3388959 1096.64053,29.7257752 Z M1096.64053,4.32182735 C1096.64053,6.70870668 1094.70628,8.64365469 1092.32026,8.64365469 C1089.93425,8.64365469 1088,6.70870668 1088,4.32182735 C1088,1.93494801 1089.93425,4.54747351e-13 1092.32026,4.54747351e-13 C1094.70628,4.54747351e-13 1096.64053,1.93494801 1096.64053,4.32182735 Z M1122.03682,131.341567 C1122.03682,133.728446 1120.10257,135.663394 1117.71655,135.663394 C1115.33054,135.663394 1113.39629,133.728446 1113.39629,131.341567 C1113.39629,128.954687 1115.33054,127.019739 1117.71655,127.019739 C1120.10257,127.019739 1122.03682,128.954687 1122.03682,131.341567 Z M1122.03682,105.937619 C1122.03682,108.324498 1120.10257,110.259446 1117.71655,110.259446 C1115.33054,110.259446 1113.39629,108.324498 1113.39629,105.937619 C1113.39629,103.55074 1115.33054,101.615792 1117.71655,101.615792 C1120.10257,101.615792 1122.03682,103.55074 1122.03682,105.937619 Z M1122.03682,80.533671 C1122.03682,82.9205503 1120.10257,84.8554983 1117.71655,84.8554983 C1115.33054,84.8554983 1113.39629,82.9205503 1113.39629,80.533671 C1113.39629,78.1467917 1115.33054,76.2118436 1117.71655,76.2118436 C1120.10257,76.2118436 1122.03682,78.1467917 1122.03682,80.533671 Z M1122.03682,55.1297231 C1122.03682,57.5166024 1120.10257,59.4515505 1117.71655,59.4515505 C1115.33054,59.4515505 1113.39629,57.5166024 1113.39629,55.1297231 C1113.39629,52.7428438 1115.33054,50.8078958 1117.71655,50.8078958 C1120.10257,50.8078958 1122.03682,52.7428438 1122.03682,55.1297231 Z M1122.03682,29.7257752 C1122.03682,32.1126546 1120.10257,34.0476026 1117.71655,34.0476026 C1115.33054,34.0476026 1113.39629,32.1126546 1113.39629,29.7257752 C1113.39629,27.3388959 1115.33054,25.4039479 1117.71655,25.4039479 C1120.10257,25.4039479 1122.03682,27.3388959 1122.03682,29.7257752 Z M1122.03682,4.32182735 C1122.03682,6.70870668 1120.10257,8.64365469 1117.71655,8.64365469 C1115.33054,8.64365469 1113.39629,6.70870668 1113.39629,4.32182735 C1113.39629,1.93494801 1115.33054,4.54747351e-13 1117.71655,4.54747351e-13 C1120.10257,4.54747351e-13 1122.03682,1.93494801 1122.03682,4.32182735 Z M1147.4331,131.341567 C1147.4331,133.728446 1145.49885,135.663394 1143.11284,135.663394 C1140.72682,135.663394 1138.79257,133.728446 1138.79257,131.341567 C1138.79257,128.954687 1140.72682,127.019739 1143.11284,127.019739 C1145.49885,127.019739 1147.4331,128.954687 1147.4331,131.341567 Z M1147.4331,105.937619 C1147.4331,108.324498 1145.49885,110.259446 1143.11284,110.259446 C1140.72682,110.259446 1138.79257,108.324498 1138.79257,105.937619 C1138.79257,103.55074 1140.72682,101.615792 1143.11284,101.615792 C1145.49885,101.615792 1147.4331,103.55074 1147.4331,105.937619 Z M1147.4331,80.533671 C1147.4331,82.9205503 1145.49885,84.8554983 1143.11284,84.8554983 C1140.72682,84.8554983 1138.79257,82.9205503 1138.79257,80.533671 C1138.79257,78.1467917 1140.72682,76.2118436 1143.11284,76.2118436 C1145.49885,76.2118436 1147.4331,78.1467917 1147.4331,80.533671 Z M1147.4331,55.1297231 C1147.4331,57.5166024 1145.49885,59.4515505 1143.11284,59.4515505 C1140.72682,59.4515505 1138.79257,57.5166024 1138.79257,55.1297231 C1138.79257,52.7428438 1140.72682,50.8078958 1143.11284,50.8078958 C1145.49885,50.8078958 1147.4331,52.7428438 1147.4331,55.1297231 Z M1147.4331,29.7257752 C1147.4331,32.1126546 1145.49885,34.0476026 1143.11284,34.0476026 C1140.72682,34.0476026 1138.79257,32.1126546 1138.79257,29.7257752 C1138.79257,27.3388959 1140.72682,25.4039479 1143.11284,25.4039479 C1145.49885,25.4039479 1147.4331,27.3388959 1147.4331,29.7257752 Z M1147.4331,4.32182735 C1147.4331,6.70870668 1145.49885,8.64365469 1143.11284,8.64365469 C1140.72682,8.64365469 1138.79257,6.70870668 1138.79257,4.32182735 C1138.79257,1.93494801 1140.72682,4.54747351e-13 1143.11284,4.54747351e-13 C1145.49885,4.54747351e-13 1147.4331,1.93494801 1147.4331,4.32182735 Z M1172.82939,131.341567 C1172.82939,133.728446 1170.89514,135.663394 1168.50912,135.663394 C1166.12311,135.663394 1164.18886,133.728446 1164.18886,131.341567 C1164.18886,128.954687 1166.12311,127.019739 1168.50912,127.019739 C1170.89514,127.019739 1172.82939,128.954687 1172.82939,131.341567 Z M1172.82939,105.937619 C1172.82939,108.324498 1170.89514,110.259446 1168.50912,110.259446 C1166.12311,110.259446 1164.18886,108.324498 1164.18886,105.937619 C1164.18886,103.55074 1166.12311,101.615792 1168.50912,101.615792 C1170.89514,101.615792 1172.82939,103.55074 1172.82939,105.937619 Z M1172.82939,80.533671 C1172.82939,82.9205503 1170.89514,84.8554983 1168.50912,84.8554983 C1166.12311,84.8554983 1164.18886,82.9205503 1164.18886,80.533671 C1164.18886,78.1467917 1166.12311,76.2118436 1168.50912,76.2118436 C1170.89514,76.2118436 1172.82939,78.1467917 1172.82939,80.533671 Z M1172.82939,55.1297231 C1172.82939,57.5166024 1170.89514,59.4515505 1168.50912,59.4515505 C1166.12311,59.4515505 1164.18886,57.5166024 1164.18886,55.1297231 C1164.18886,52.7428438 1166.12311,50.8078958 1168.50912,50.8078958 C1170.89514,50.8078958 1172.82939,52.7428438 1172.82939,55.1297231 Z M1172.82939,29.7257752 C1172.82939,32.1126546 1170.89514,34.0476026 1168.50912,34.0476026 C1166.12311,34.0476026 1164.18886,32.1126546 1164.18886,29.7257752 C1164.18886,27.3388959 1166.12311,25.4039479 1168.50912,25.4039479 C1170.89514,25.4039479 1172.82939,27.3388959 1172.82939,29.7257752 Z M1172.82939,4.32182735 C1172.82939,6.70870668 1170.89514,8.64365469 1168.50912,8.64365469 C1166.12311,8.64365469 1164.18886,6.70870668 1164.18886,4.32182735 C1164.18886,1.93494801 1166.12311,4.54747351e-13 1168.50912,4.54747351e-13 C1170.89514,4.54747351e-13 1172.82939,1.93494801 1172.82939,4.32182735 Z M1198.22568,131.341567 C1198.22568,133.728446 1196.29143,135.663394 1193.90541,135.663394 C1191.5194,135.663394 1189.58515,133.728446 1189.58515,131.341567 C1189.58515,128.954687 1191.5194,127.019739 1193.90541,127.019739 C1196.29143,127.019739 1198.22568,128.954687 1198.22568,131.341567 Z M1198.22568,105.937619 C1198.22568,108.324498 1196.29143,110.259446 1193.90541,110.259446 C1191.5194,110.259446 1189.58515,108.324498 1189.58515,105.937619 C1189.58515,103.55074 1191.5194,101.615792 1193.90541,101.615792 C1196.29143,101.615792 1198.22568,103.55074 1198.22568,105.937619 Z M1198.22568,80.533671 C1198.22568,82.9205503 1196.29143,84.8554983 1193.90541,84.8554983 C1191.5194,84.8554983 1189.58515,82.9205503 1189.58515,80.533671 C1189.58515,78.1467917 1191.5194,76.2118436 1193.90541,76.2118436 C1196.29143,76.2118436 1198.22568,78.1467917 1198.22568,80.533671 Z M1198.22568,55.1297231 C1198.22568,57.5166024 1196.29143,59.4515505 1193.90541,59.4515505 C1191.5194,59.4515505 1189.58515,57.5166024 1189.58515,55.1297231 C1189.58515,52.7428438 1191.5194,50.8078958 1193.90541,50.8078958 C1196.29143,50.8078958 1198.22568,52.7428438 1198.22568,55.1297231 Z M1198.22568,29.7257752 C1198.22568,32.1126546 1196.29143,34.0476026 1193.90541,34.0476026 C1191.5194,34.0476026 1189.58515,32.1126546 1189.58515,29.7257752 C1189.58515,27.3388959 1191.5194,25.4039479 1193.90541,25.4039479 C1196.29143,25.4039479 1198.22568,27.3388959 1198.22568,29.7257752 Z M1198.22568,4.32182735 C1198.22568,6.70870668 1196.29143,8.64365469 1193.90541,8.64365469 C1191.5194,8.64365469 1189.58515,6.70870668 1189.58515,4.32182735 C1189.58515,1.93494801 1191.5194,4.54747351e-13 1193.90541,4.54747351e-13 C1196.29143,4.54747351e-13 1198.22568,1.93494801 1198.22568,4.32182735 Z M1223.62196,131.341567 C1223.62196,133.728446 1221.68771,135.663394 1219.3017,135.663394 C1216.91568,135.663394 1214.98143,133.728446 1214.98143,131.341567 C1214.98143,128.954687 1216.91568,127.019739 1219.3017,127.019739 C1221.68771,127.019739 1223.62196,128.954687 1223.62196,131.341567 Z M1223.62196,105.937619 C1223.62196,108.324498 1221.68771,110.259446 1219.3017,110.259446 C1216.91568,110.259446 1214.98143,108.324498 1214.98143,105.937619 C1214.98143,103.55074 1216.91568,101.615792 1219.3017,101.615792 C1221.68771,101.615792 1223.62196,103.55074 1223.62196,105.937619 Z M1223.62196,80.533671 C1223.62196,82.9205503 1221.68771,84.8554983 1219.3017,84.8554983 C1216.91568,84.8554983 1214.98143,82.9205503 1214.98143,80.533671 C1214.98143,78.1467917 1216.91568,76.2118436 1219.3017,76.2118436 C1221.68771,76.2118436 1223.62196,78.1467917 1223.62196,80.533671 Z M1223.62196,55.1297231 C1223.62196,57.5166024 1221.68771,59.4515505 1219.3017,59.4515505 C1216.91568,59.4515505 1214.98143,57.5166024 1214.98143,55.1297231 C1214.98143,52.7428438 1216.91568,50.8078958 1219.3017,50.8078958 C1221.68771,50.8078958 1223.62196,52.7428438 1223.62196,55.1297231 Z M1223.62196,29.7257752 C1223.62196,32.1126546 1221.68771,34.0476026 1219.3017,34.0476026 C1216.91568,34.0476026 1214.98143,32.1126546 1214.98143,29.7257752 C1214.98143,27.3388959 1216.91568,25.4039479 1219.3017,25.4039479 C1221.68771,25.4039479 1223.62196,27.3388959 1223.62196,29.7257752 Z M1223.62196,4.32182735 C1223.62196,6.70870668 1221.68771,8.64365469 1219.3017,8.64365469 C1216.91568,8.64365469 1214.98143,6.70870668 1214.98143,4.32182735 C1214.98143,1.93494801 1216.91568,0 1219.3017,0 C1221.68771,0 1223.62196,1.93494801 1223.62196,4.32182735 Z" id="Shape" fill="url(#linearGradient-11)"></path>
        </g>
        <g id="Chart" transform="translate(256.568036, 127.000000)">
            <polygon id="Shape" fill="url(#linearGradient-12)" points="944.293869 18.9715418 955.292757 27.6332075 802.667443 221.442212 597.979596 157.787172 405.617835 354.472939 104.955578 332.333535 12.260638 500.493058 0 493.7346 97.0293334 317.711978 400.157775 340.032981 593.958951 141.875443 797.627608 205.21353"></polygon>
            <circle id="Shape" fill="url(#linearGradient-13)" cx="596.431964" cy="155" r="25"></circle>
            <circle id="Shape" fill="url(#linearGradient-13)" cx="948.431964" cy="25" r="25"></circle>
            <circle id="Shape" fill="url(#linearGradient-13)" cx="104.431964" cy="327" r="25"></circle>
        </g>
        <g id="Diagram" transform="translate(155.000000, 308.000000)">
            <polygon id="Shape" fill="url(#linearGradient-14)" points="0 289 280 289 280 589 0 589"></polygon>
            <polygon id="Shape" fill="url(#linearGradient-15)" points="0 289 180 289 180 589 0 589"></polygon>
            <polygon id="Shape" fill="url(#linearGradient-16)" points="402 139 682 139 682 589 402 589"></polygon>
            <polygon id="Shape" fill="url(#linearGradient-17)" points="402 139 582 139 582 589 402 589"></polygon>
            <polygon id="Shape" fill="url(#linearGradient-18)" points="804 -1.13686838e-13 1084 -1.13686838e-13 1084 590 804 590"></polygon>
            <polygon id="Shape" fill="url(#linearGradient-19)" points="804 -1.13686838e-13 984 -1.13686838e-13 984 590 804 590"></polygon>
        </g>
        <g id="Men" transform="translate(453.249707, 154.476226)">
            <polygon id="Shape" fill="#FE9F9F" points="49.3877999 427.69485 52.6287967 403.399183 31.789039 402.128126 28.3162829 427.69485"></polygon>
            <path d="M51.5020442,424.044042 L51.1888075,428.523537 C50.9349749,432.153512 50.6811424,435.783486 50.4273098,439.413461 C50.2423877,442.05797 47.9486805,444.051859 45.3041713,443.866937 L2.80133451,440.894849 C1.11629078,440.77702 -0.132839653,439.010218 0.0113235931,436.948587 C0.572522356,428.923071 6.73800967,428.303433 14.150669,426.247222 L28.840785,422.459413 L51.5020442,424.044042 Z" id="Shape" fill="#021038"></path>
            <path d="M68.0629159,349.451736 L54.274275,416.289533 L25.0662511,413.253742 L34.0510815,264.159367 C34.8161677,251.463517 44.3379806,241.02318 56.9099243,239.095438 L173.441713,221.226828 L252.787215,247.295843 L86.6344487,290.133152 L68.0629159,349.451736 Z" id="Shape" fill="#021038"></path>
            <path d="M118.222628,230.758249 L176.166573,207.336174 C184.803315,128.234611 205.331221,85.366575 237.750293,78.7320652 L226.478545,182.439078 L182.835744,248.952888 L118.222628,230.758249 Z" id="Shape" fill="#021038"></path>
            <polygon id="Shape" fill="#FE9F9F" points="87.1939403 448.69485 90.6287967 424.399183 69.2462832 423.125288 66.4117402 448.69485"></polygon>
            <path d="M63.9697235,431.90929 L67.4942753,279.739273 C67.740729,269.09881 75.409096,260.086564 85.8728649,258.139841 L189.40369,238.878538 C189.40369,223.033772 189.40369,205.414695 189.40369,186.021307 C189.40369,156.931226 184.323793,71.7329569 256.116146,77.7495877 C327.908498,83.7662185 297.264367,204.404046 289.279951,249.729846 C283.957007,279.947047 269.904711,297.491665 247.123063,302.363702 L106.383302,302.363702 L91.890595,434.919136 L63.9697235,431.90929 Z" id="Shape" fill="url(#linearGradient-20)"></path>
            <path d="M62.8069294,432.506222 L67.3807869,279.432161 C67.6945383,268.931788 75.2326048,260.045971 85.5413577,258.024615 L183.184799,238.878538 C219.060122,243.236419 254.425173,246.853522 289.279951,249.729846 C283.957007,279.947047 269.904711,297.491665 247.123063,302.363702 L106.383302,302.363702 L91.890595,434.919136 L62.8069294,432.506222 Z" id="Shape" fill="url(#linearGradient-21)"></path>
            <path d="M78.0806083,425.097598 L77.0831859,425.025845 L77.5854606,418.043888 L78.5828829,418.115641 L78.0806083,425.097598 Z M79.3004182,408.141418 L78.3029958,408.069664 L78.8052705,401.087707 L79.8026929,401.159461 L79.3004182,408.141418 Z M80.5202282,391.185237 L79.5228058,391.113483 L80.0250805,384.131527 L81.0225029,384.20328 L80.5202282,391.185237 Z M81.7400382,374.229056 L80.7426158,374.157303 L81.2448905,367.175346 L82.2423129,367.247099 L81.7400382,374.229056 Z M82.9598482,357.272875 L81.9624258,357.201122 L82.4647005,350.219165 L83.4621229,350.290919 L82.9598482,357.272875 Z M84.1796582,340.316695 L83.1822358,340.244941 L83.6845105,333.262984 L84.6819328,333.334738 L84.1796582,340.316695 Z M85.3994681,323.360514 L84.4020457,323.288761 L84.9043204,316.306804 L85.9017428,316.378557 L85.3994681,323.360514 Z M86.6192781,306.404333 L85.6218557,306.33258 L86.1241304,299.350623 L87.1215528,299.422377 L86.6192781,306.404333 Z M87.8390881,289.448153 L86.8416657,289.376399 L86.9125015,288.391734 C87.0683418,286.225449 87.9488061,284.216274 89.3914524,282.646825 L90.1276748,283.323565 C88.8366685,284.728045 88.0494106,286.524528 87.9099239,288.463487 L87.8390881,289.448153 Z M98.9875281,280.573392 L98.9875281,279.573392 L105.987528,279.573392 L105.987528,280.573392 L98.9875281,280.573392 Z M115.987528,280.573392 L115.987528,279.573392 L122.987528,279.573392 L122.987528,280.573392 L115.987528,280.573392 Z M132.987528,280.573392 L132.987528,279.573392 L139.987528,279.573392 L139.987528,280.573392 L132.987528,280.573392 Z M149.987528,280.573392 L149.987528,279.573392 L156.987528,279.573392 L156.987528,280.573392 L149.987528,280.573392 Z M166.987528,280.573392 L166.987528,279.573392 L173.987528,279.573392 L173.987528,280.573392 L166.987528,280.573392 Z M183.987528,280.573392 L183.987528,279.573392 L190.987528,279.573392 L190.987528,280.573392 L183.987528,280.573392 Z M200.992961,280.572111 L200.985035,279.572142 C203.30405,279.553761 205.605071,279.332699 207.866819,278.914086 L208.048812,279.897386 C205.729741,280.326608 203.370477,280.553266 200.992961,280.572111 Z M217.693321,276.822885 L217.272773,275.915615 C219.367649,274.944574 221.373544,273.791692 223.266843,272.471175 L223.838911,273.291381 C221.897772,274.645265 219.84118,275.827285 217.693321,276.822885 Z M231.353316,266.510311 L230.595851,265.857435 C232.100621,264.111605 233.451412,262.234999 234.631968,260.246349 L235.491862,260.756823 C234.281341,262.795947 232.89626,264.720191 231.353316,266.510311 Z M239.675309,251.483392 L238.742148,251.123934 L239.096492,250.204049 L240.029653,250.563507 L239.675309,251.483392 Z" id="Shape" fill="#F3FDFF" fill-rule="nonzero"></path>
            <path d="M89.5020442,445.044042 L89.1888075,449.523537 C88.9349749,453.153512 88.6811424,456.783486 88.4273098,460.413461 C88.2423877,463.05797 85.9486805,465.051859 83.3041713,464.866937 L40.8013345,461.894849 C39.1162908,461.77702 37.8671603,460.010218 38.0113236,457.948587 C38.5725224,449.923071 44.7380097,449.303433 52.150669,447.247222 L66.840785,443.459413 L89.5020442,445.044042 Z" id="Shape" fill="#021038"></path>
            <polygon id="Shape" fill="#40AFF3" points="263.725352 213.642085 263.725352 122.230932 292.82941 181.912891 280.798285 212.642772"></polygon>
            <polygon id="Shape" fill="#0F55BE" points="128.631612 260.442749 67.5188918 255.697042 66.2782433 250.016311 66.2782433 237.823934 112.239053 237.823934 128.631612 242.716285 215.267371 254.518799 215.267371 260.442749"></polygon>
            <polygon id="Shape" fill="#52D7FD" points="154.638262 237.823934 215.267371 254.518799 126.619858 254.518799 66.2782433 250.016311 66.2782433 237.823934"></polygon>
            <path d="M164.605274,246.040768 C164.456656,245.197911 160.053453,248.979047 157.104912,250.835375 C154.156371,252.691702 150.741995,253.252563 152.867596,250.904942 C154.993198,248.557322 157.708367,245.980632 160.591413,242.804115 C162.513444,240.686437 160.513429,241.852422 154.591368,246.302071 C152.224873,248.627241 145.376597,254.86817 147.737945,249.883996 C149.312178,246.561213 153.007722,242.014409 158.93619,237.279956 C153.427117,239.23591 149.828443,246.122035 146.685623,247.123655 C144.59041,247.791401 144.046882,247.124096 145.055039,245.121739 C149.112002,238.688134 153.63558,234.199689 158.625771,231.656405 C165.625764,230.422118 177.11089,228.39698 193.081151,225.580992 C209.051412,222.765004 237.315418,215.180607 277.873169,202.8278 L271.405188,168.81498 L304.82648,165.571754 L308.585549,225.420486 C284.334344,232.209535 265.134389,236.311101 250.985684,237.725182 C229.762627,239.846304 201.040129,240.987236 186.724484,243.009617 C172.40884,245.031998 171.809697,246.967626 166.46305,250.480517 C161.116403,253.993407 155.151963,254.689386 160.739749,250.194455 C163.40473,248.050689 164.753892,246.883625 164.605274,246.040768 Z" id="Shape" fill="#FE9F9F"></path>
            <polygon id="Shape" fill="#0F55BE" points="42.8620942 166.270043 101.402467 160.867057 126.619858 254.518799 66.2782433 250.016311"></polygon>
            <path d="M269.139235,181.509912 C264.56657,155.643537 262.973192,136.250544 262.973192,121.522082 C262.973192,90.7667006 296.693737,76.5781863 304.548604,136.826196 C306.385006,150.911681 308.830167,164.351335 310.826967,176.713593 C297.013188,178.470906 284.927167,178.859174 269.139235,181.509912 Z" id="Shape" fill="url(#linearGradient-22)"></path>
            <path d="M261.576591,46.6139145 L258.903521,56.8506632 L258.903521,79.7359542 C259.905717,93.4175814 254.963672,101.728552 244.077387,104.668865 C227.74796,109.079335 216.49008,88.9267831 235.8408,79.739502 C235.8408,79.739502 235.704857,77.4775624 235.432971,72.9536834 C226.572789,71.7615597 221.43799,68.6900308 220.028573,63.7390965 C218.619157,58.7881622 217.914448,53.8758027 217.914448,49.002018 L214.24633,49.466902 C213.911403,49.5093494 213.571182,49.4663223 213.257368,49.34183 C212.230639,48.9345193 211.728501,47.7720007 212.135812,46.745272 L217.914448,32.1787689 C221.741481,21.7970659 228.459781,16.6062144 238.069347,16.6062144 C247.678913,16.6062144 255.514661,26.6087811 261.576591,46.6139145 Z" id="Shape" fill="#FE9F9F"></path>
            <path d="M275.318904,46.6872655 C272.481575,58.3963541 266.989261,64.2508984 258.841963,64.2508984 C255.155172,59.4920194 255.848172,54.2533304 257.866254,51.6520214 C260.67809,46.8566559 260.67809,43.7972304 257.866254,42.4737449 C253.648501,40.4885166 251.274959,44.4589732 251.274959,44.4589732 C251.274959,40.9857093 251.274959,37.6787572 251.274959,34.538117 C251.274959,29.8271565 242.956962,26.7249249 235.693299,29.2992591 C228.429635,31.8735933 212.236186,35.4546786 206.476206,24.1300216 C200.716226,12.8053647 205.640039,-0.640036547 223.821079,0.204986094 C242.002118,1.05000873 255.161022,-3.27893933 261.184469,7.03723106 C265.685995,5.80111707 269.771304,6.7751095 273.440397,9.95920835 C277.10949,13.1433072 277.735659,25.3859929 275.318904,46.6872655 Z" id="Shape" fill="#221E41"></path>
        </g>
    </g>
</svg>