<?xml version="1.0" encoding="UTF-8"?>
<svg width="1440px" height="1024px" viewBox="0 0 1440 1024" version="1.1" xmlns="http://www.w3.org/2000/svg" xmlns:xlink="http://www.w3.org/1999/xlink">
    <!-- Generator: Sketch 53.2 (72643) - https://sketchapp.com -->
    <title>Customer services</title>
    <desc>Created with Sketch.</desc>
    <defs>
        <linearGradient x1="8.40133156%" y1="13.1381206%" x2="56.5671573%" y2="50%" id="linearGradient-1">
            <stop stop-color="#CFE49F" offset="0%"></stop>
            <stop stop-color="#A9D386" offset="100%"></stop>
        </linearGradient>
        <linearGradient x1="34.1151714%" y1="3.88724169%" x2="64.8333502%" y2="56.9235037%" id="linearGradient-2">
            <stop stop-color="#77D791" offset="0%"></stop>
            <stop stop-color="#4FA67E" offset="100%"></stop>
        </linearGradient>
        <linearGradient x1="50%" y1="7.26438915%" x2="50%" y2="151.05781%" id="linearGradient-3">
            <stop stop-color="#D0F6FF" offset="0%"></stop>
            <stop stop-color="#8BE2F7" offset="100%"></stop>
        </linearGradient>
        <linearGradient x1="8.38174197%" y1="31.2307029%" x2="56.5702499%" y2="50%" id="linearGradient-4">
            <stop stop-color="#CFE49F" offset="0%"></stop>
            <stop stop-color="#A9D386" offset="100%"></stop>
        </linearGradient>
        <linearGradient x1="44.7064793%" y1="3.88170857%" x2="54.943122%" y2="56.9243345%" id="linearGradient-5">
            <stop stop-color="#77D791" offset="0%"></stop>
            <stop stop-color="#4FA67E" offset="100%"></stop>
        </linearGradient>
        <linearGradient x1="4.76643799%" y1="41.0625251%" x2="100%" y2="60.6878325%" id="linearGradient-6">
            <stop stop-color="#6EAE7C" offset="0%"></stop>
            <stop stop-color="#0F575D" offset="100%"></stop>
        </linearGradient>
        <linearGradient x1="50%" y1="0%" x2="50%" y2="91.8482298%" id="linearGradient-7">
            <stop stop-color="#EAFCFF" offset="0%"></stop>
            <stop stop-color="#FFFFFF" offset="100%"></stop>
        </linearGradient>
        <linearGradient x1="50%" y1="7.26438915%" x2="50%" y2="151.05781%" id="linearGradient-8">
            <stop stop-color="#D0F6FF" offset="0%"></stop>
            <stop stop-color="#8BE2F7" offset="100%"></stop>
        </linearGradient>
        <linearGradient x1="50%" y1="-2.48949813e-15%" x2="50%" y2="100%" id="linearGradient-9">
            <stop stop-color="#4DBCFA" offset="0%"></stop>
            <stop stop-color="#1486DB" offset="100%"></stop>
        </linearGradient>
        <linearGradient x1="50%" y1="0%" x2="50%" y2="100%" id="linearGradient-10">
            <stop stop-color="#FF9485" offset="0%"></stop>
            <stop stop-color="#FF676E" offset="100%"></stop>
        </linearGradient>
        <linearGradient x1="50%" y1="7.26438915%" x2="50%" y2="151.05781%" id="linearGradient-11">
            <stop stop-color="#D0F6FF" offset="0%"></stop>
            <stop stop-color="#8BE2F7" offset="100%"></stop>
        </linearGradient>
        <linearGradient x1="50%" y1="0%" x2="50%" y2="100%" id="linearGradient-12">
            <stop stop-color="#FF9485" offset="0%"></stop>
            <stop stop-color="#FF676E" offset="100%"></stop>
        </linearGradient>
        <linearGradient x1="50%" y1="0%" x2="81.733968%" y2="89.3678428%" id="linearGradient-13">
            <stop stop-color="#0F1752" offset="0%"></stop>
            <stop stop-color="#272884" offset="100%"></stop>
        </linearGradient>
        <linearGradient x1="50%" y1="0%" x2="50%" y2="100%" id="linearGradient-14">
            <stop stop-color="#FF9485" offset="0%"></stop>
            <stop stop-color="#FF676E" offset="100%"></stop>
        </linearGradient>
        <linearGradient x1="50%" y1="-27.3641552%" x2="50%" y2="100%" id="linearGradient-15">
            <stop stop-color="#C0E4FD" offset="0%"></stop>
            <stop stop-color="#72B9FE" offset="100%"></stop>
        </linearGradient>
        <linearGradient x1="82.5767258%" y1="-52.951376%" x2="82.5767258%" y2="186.664812%" id="linearGradient-16">
            <stop stop-color="#1533B6" offset="0%"></stop>
            <stop stop-color="#356BE9" offset="100%"></stop>
        </linearGradient>
        <linearGradient x1="50%" y1="0%" x2="50%" y2="100%" id="linearGradient-17">
            <stop stop-color="#1D2A78" offset="0%"></stop>
            <stop stop-color="#12033B" offset="100%"></stop>
        </linearGradient>
        <linearGradient x1="50%" y1="0%" x2="50%" y2="100%" id="linearGradient-18">
            <stop stop-color="#FF9485" offset="0%"></stop>
            <stop stop-color="#FF676E" offset="100%"></stop>
        </linearGradient>
    </defs>
    <g id="Customer-services" stroke="none" stroke-width="1" fill="none" fill-rule="evenodd">
        <rect fill="#FFFFFF" x="0" y="0" width="1440" height="1024"></rect>
        <g id="Ornament" transform="translate(81.000000, 174.000000)">
            <path d="M1024.42177,452.925666 C928.08855,452.925666 850,374.813261 850,278.462833 C850,182.112406 928.08855,104 1024.42177,104 C1120.75499,104 1198.84354,182.112406 1198.84354,278.462833 C1198.84354,374.813261 1120.75499,452.925666 1024.42177,452.925666 Z M1024.42177,372.925666 C1076.56674,372.925666 1118.84354,330.63595 1118.84354,278.462833 C1118.84354,226.289716 1076.56674,184 1024.42177,184 C972.276801,184 930,226.289716 930,278.462833 C930,330.63595 972.276801,372.925666 1024.42177,372.925666 Z" id="Shape" fill="url(#linearGradient-1)"></path>
            <path d="M898.817615,92.5793992 C898.817615,95.0141701 896.843724,96.987942 894.408807,96.987942 C891.97389,96.987942 890,95.0141701 890,92.5793992 C890,90.1446282 891.97389,88.1708564 894.408807,88.1708564 C896.843724,88.1708564 898.817615,90.1446282 898.817615,92.5793992 Z M898.817615,74.9452279 C898.817615,77.3799989 896.843724,79.3537707 894.408807,79.3537707 C891.97389,79.3537707 890,77.3799989 890,74.9452279 C890,72.5104569 891.97389,70.5366851 894.408807,70.5366851 C896.843724,70.5366851 898.817615,72.5104569 898.817615,74.9452279 Z M898.817615,57.3110566 C898.817615,59.7458276 896.843724,61.7195995 894.408807,61.7195995 C891.97389,61.7195995 890,59.7458276 890,57.3110566 C890,54.8762857 891.97389,52.9025138 894.408807,52.9025138 C896.843724,52.9025138 898.817615,54.8762857 898.817615,57.3110566 Z M898.817615,39.6768854 C898.817615,42.1116563 896.843724,44.0854282 894.408807,44.0854282 C891.97389,44.0854282 890,42.1116563 890,39.6768854 C890,37.2421144 891.97389,35.2683425 894.408807,35.2683425 C896.843724,35.2683425 898.817615,37.2421144 898.817615,39.6768854 Z M898.817615,22.0427141 C898.817615,24.4774851 896.843724,26.4512569 894.408807,26.4512569 C891.97389,26.4512569 890,24.4774851 890,22.0427141 C890,19.6079431 891.97389,17.6341713 894.408807,17.6341713 C896.843724,17.6341713 898.817615,19.6079431 898.817615,22.0427141 Z M898.817615,4.40854282 C898.817615,6.84331379 896.843724,8.81708564 894.408807,8.81708564 C891.97389,8.81708564 890,6.84331379 890,4.40854282 C890,1.97377185 891.97389,4.79616347e-13 894.408807,4.79616347e-13 C896.843724,4.79616347e-13 898.817615,1.97377185 898.817615,4.40854282 Z M916.452844,92.5793992 C916.452844,95.0141701 914.478954,96.987942 912.044037,96.987942 C909.609119,96.987942 907.635229,95.0141701 907.635229,92.5793992 C907.635229,90.1446282 909.609119,88.1708564 912.044037,88.1708564 C914.478954,88.1708564 916.452844,90.1446282 916.452844,92.5793992 Z M916.452844,74.9452279 C916.452844,77.3799989 914.478954,79.3537707 912.044037,79.3537707 C909.609119,79.3537707 907.635229,77.3799989 907.635229,74.9452279 C907.635229,72.5104569 909.609119,70.5366851 912.044037,70.5366851 C914.478954,70.5366851 916.452844,72.5104569 916.452844,74.9452279 Z M916.452844,57.3110566 C916.452844,59.7458276 914.478954,61.7195995 912.044037,61.7195995 C909.609119,61.7195995 907.635229,59.7458276 907.635229,57.3110566 C907.635229,54.8762857 909.609119,52.9025138 912.044037,52.9025138 C914.478954,52.9025138 916.452844,54.8762857 916.452844,57.3110566 Z M916.452844,39.6768854 C916.452844,42.1116563 914.478954,44.0854282 912.044037,44.0854282 C909.609119,44.0854282 907.635229,42.1116563 907.635229,39.6768854 C907.635229,37.2421144 909.609119,35.2683425 912.044037,35.2683425 C914.478954,35.2683425 916.452844,37.2421144 916.452844,39.6768854 Z M916.452844,22.0427141 C916.452844,24.4774851 914.478954,26.4512569 912.044037,26.4512569 C909.609119,26.4512569 907.635229,24.4774851 907.635229,22.0427141 C907.635229,19.6079431 909.609119,17.6341713 912.044037,17.6341713 C914.478954,17.6341713 916.452844,19.6079431 916.452844,22.0427141 Z M916.452844,4.40854282 C916.452844,6.84331379 914.478954,8.81708564 912.044037,8.81708564 C909.609119,8.81708564 907.635229,6.84331379 907.635229,4.40854282 C907.635229,1.97377185 909.609119,4.79616347e-13 912.044037,4.79616347e-13 C914.478954,4.79616347e-13 916.452844,1.97377185 916.452844,4.40854282 Z M934.088073,92.5793992 C934.088073,95.0141701 932.114183,96.987942 929.679266,96.987942 C927.244349,96.987942 925.270458,95.0141701 925.270458,92.5793992 C925.270458,90.1446282 927.244349,88.1708564 929.679266,88.1708564 C932.114183,88.1708564 934.088073,90.1446282 934.088073,92.5793992 Z M934.088073,74.9452279 C934.088073,77.3799989 932.114183,79.3537707 929.679266,79.3537707 C927.244349,79.3537707 925.270458,77.3799989 925.270458,74.9452279 C925.270458,72.5104569 927.244349,70.5366851 929.679266,70.5366851 C932.114183,70.5366851 934.088073,72.5104569 934.088073,74.9452279 Z M934.088073,57.3110566 C934.088073,59.7458276 932.114183,61.7195995 929.679266,61.7195995 C927.244349,61.7195995 925.270458,59.7458276 925.270458,57.3110566 C925.270458,54.8762857 927.244349,52.9025138 929.679266,52.9025138 C932.114183,52.9025138 934.088073,54.8762857 934.088073,57.3110566 Z M934.088073,39.6768854 C934.088073,42.1116563 932.114183,44.0854282 929.679266,44.0854282 C927.244349,44.0854282 925.270458,42.1116563 925.270458,39.6768854 C925.270458,37.2421144 927.244349,35.2683425 929.679266,35.2683425 C932.114183,35.2683425 934.088073,37.2421144 934.088073,39.6768854 Z M934.088073,22.0427141 C934.088073,24.4774851 932.114183,26.4512569 929.679266,26.4512569 C927.244349,26.4512569 925.270458,24.4774851 925.270458,22.0427141 C925.270458,19.6079431 927.244349,17.6341713 929.679266,17.6341713 C932.114183,17.6341713 934.088073,19.6079431 934.088073,22.0427141 Z M934.088073,4.40854282 C934.088073,6.84331379 932.114183,8.81708564 929.679266,8.81708564 C927.244349,8.81708564 925.270458,6.84331379 925.270458,4.40854282 C925.270458,1.97377185 927.244349,4.79616347e-13 929.679266,4.79616347e-13 C932.114183,4.79616347e-13 934.088073,1.97377185 934.088073,4.40854282 Z M951.723302,92.5793992 C951.723302,95.0141701 949.749412,96.987942 947.314495,96.987942 C944.879578,96.987942 942.905688,95.0141701 942.905688,92.5793992 C942.905688,90.1446282 944.879578,88.1708564 947.314495,88.1708564 C949.749412,88.1708564 951.723302,90.1446282 951.723302,92.5793992 Z M951.723302,74.9452279 C951.723302,77.3799989 949.749412,79.3537707 947.314495,79.3537707 C944.879578,79.3537707 942.905688,77.3799989 942.905688,74.9452279 C942.905688,72.5104569 944.879578,70.5366851 947.314495,70.5366851 C949.749412,70.5366851 951.723302,72.5104569 951.723302,74.9452279 Z M951.723302,57.3110566 C951.723302,59.7458276 949.749412,61.7195995 947.314495,61.7195995 C944.879578,61.7195995 942.905688,59.7458276 942.905688,57.3110566 C942.905688,54.8762857 944.879578,52.9025138 947.314495,52.9025138 C949.749412,52.9025138 951.723302,54.8762857 951.723302,57.3110566 Z M951.723302,39.6768854 C951.723302,42.1116563 949.749412,44.0854282 947.314495,44.0854282 C944.879578,44.0854282 942.905688,42.1116563 942.905688,39.6768854 C942.905688,37.2421144 944.879578,35.2683425 947.314495,35.2683425 C949.749412,35.2683425 951.723302,37.2421144 951.723302,39.6768854 Z M951.723302,22.0427141 C951.723302,24.4774851 949.749412,26.4512569 947.314495,26.4512569 C944.879578,26.4512569 942.905688,24.4774851 942.905688,22.0427141 C942.905688,19.6079431 944.879578,17.6341713 947.314495,17.6341713 C949.749412,17.6341713 951.723302,19.6079431 951.723302,22.0427141 Z M951.723302,4.40854282 C951.723302,6.84331379 949.749412,8.81708564 947.314495,8.81708564 C944.879578,8.81708564 942.905688,6.84331379 942.905688,4.40854282 C942.905688,1.97377185 944.879578,4.12114787e-13 947.314495,4.12114787e-13 C949.749412,4.12114787e-13 951.723302,1.97377185 951.723302,4.40854282 Z M969.358531,92.5793992 C969.358531,95.0141701 967.384641,96.987942 964.949724,96.987942 C962.514807,96.987942 960.540917,95.0141701 960.540917,92.5793992 C960.540917,90.1446282 962.514807,88.1708564 964.949724,88.1708564 C967.384641,88.1708564 969.358531,90.1446282 969.358531,92.5793992 Z M969.358531,74.9452279 C969.358531,77.3799989 967.384641,79.3537707 964.949724,79.3537707 C962.514807,79.3537707 960.540917,77.3799989 960.540917,74.9452279 C960.540917,72.5104569 962.514807,70.5366851 964.949724,70.5366851 C967.384641,70.5366851 969.358531,72.5104569 969.358531,74.9452279 Z M969.358531,57.3110566 C969.358531,59.7458276 967.384641,61.7195995 964.949724,61.7195995 C962.514807,61.7195995 960.540917,59.7458276 960.540917,57.3110566 C960.540917,54.8762857 962.514807,52.9025138 964.949724,52.9025138 C967.384641,52.9025138 969.358531,54.8762857 969.358531,57.3110566 Z M969.358531,39.6768854 C969.358531,42.1116563 967.384641,44.0854282 964.949724,44.0854282 C962.514807,44.0854282 960.540917,42.1116563 960.540917,39.6768854 C960.540917,37.2421144 962.514807,35.2683425 964.949724,35.2683425 C967.384641,35.2683425 969.358531,37.2421144 969.358531,39.6768854 Z M969.358531,22.0427141 C969.358531,24.4774851 967.384641,26.4512569 964.949724,26.4512569 C962.514807,26.4512569 960.540917,24.4774851 960.540917,22.0427141 C960.540917,19.6079431 962.514807,17.6341713 964.949724,17.6341713 C967.384641,17.6341713 969.358531,19.6079431 969.358531,22.0427141 Z M969.358531,4.40854282 C969.358531,6.84331379 967.384641,8.81708564 964.949724,8.81708564 C962.514807,8.81708564 960.540917,6.84331379 960.540917,4.40854282 C960.540917,1.97377185 962.514807,4.79616347e-13 964.949724,4.79616347e-13 C967.384641,4.79616347e-13 969.358531,1.97377185 969.358531,4.40854282 Z M986.993761,92.5793992 C986.993761,95.0141701 985.01987,96.987942 982.584953,96.987942 C980.150036,96.987942 978.176146,95.0141701 978.176146,92.5793992 C978.176146,90.1446282 980.150036,88.1708564 982.584953,88.1708564 C985.01987,88.1708564 986.993761,90.1446282 986.993761,92.5793992 Z M986.993761,74.9452279 C986.993761,77.3799989 985.01987,79.3537707 982.584953,79.3537707 C980.150036,79.3537707 978.176146,77.3799989 978.176146,74.9452279 C978.176146,72.5104569 980.150036,70.5366851 982.584953,70.5366851 C985.01987,70.5366851 986.993761,72.5104569 986.993761,74.9452279 Z M986.993761,57.3110566 C986.993761,59.7458276 985.01987,61.7195995 982.584953,61.7195995 C980.150036,61.7195995 978.176146,59.7458276 978.176146,57.3110566 C978.176146,54.8762857 980.150036,52.9025138 982.584953,52.9025138 C985.01987,52.9025138 986.993761,54.8762857 986.993761,57.3110566 Z M986.993761,39.6768854 C986.993761,42.1116563 985.01987,44.0854282 982.584953,44.0854282 C980.150036,44.0854282 978.176146,42.1116563 978.176146,39.6768854 C978.176146,37.2421144 980.150036,35.2683425 982.584953,35.2683425 C985.01987,35.2683425 986.993761,37.2421144 986.993761,39.6768854 Z M986.993761,22.0427141 C986.993761,24.4774851 985.01987,26.4512569 982.584953,26.4512569 C980.150036,26.4512569 978.176146,24.4774851 978.176146,22.0427141 C978.176146,19.6079431 980.150036,17.6341713 982.584953,17.6341713 C985.01987,17.6341713 986.993761,19.6079431 986.993761,22.0427141 Z M986.993761,4.40854282 C986.993761,6.84331379 985.01987,8.81708564 982.584953,8.81708564 C980.150036,8.81708564 978.176146,6.84331379 978.176146,4.40854282 C978.176146,1.97377185 980.150036,1.77635684e-14 982.584953,1.77635684e-14 C985.01987,1.77635684e-14 986.993761,1.97377185 986.993761,4.40854282 Z" id="Shape" fill="url(#linearGradient-2)" fill-rule="nonzero"></path>
            <polygon id="Shape" fill="url(#linearGradient-3)" points="631 48 938 48 938 354 631 354"></polygon>
            <path d="M405.351351,686.351351 C405.351351,636.064822 405.351351,572.489167 405.351351,539.648649 C364.48228,539.648649 331.351351,572.489167 331.351351,613 C331.351351,653.510833 364.48228,686.351351 405.351351,686.351351 Z" id="Shape" fill="#FFFFFF" transform="translate(368.351351, 613.000000) rotate(-270.000000) translate(-368.351351, -613.000000) "></path>
            <path d="M0,649 L598,649 C633.898509,649 663,678.101491 663,714 L65,714 C29.1014913,714 4.39629938e-15,684.898509 0,649 Z" id="Shape" fill="#52D7FD"></path>
            <path d="M689,656 L1220,656 C1252.03252,656 1278,681.967485 1278,714 L747,714 C714.967485,714 689,688.032515 689,656 Z" id="Shape" fill="#52D7FD"></path>
        </g>
        <g id="Plant" transform="translate(453.000000, 587.000000)">
            <path d="M199,188.174269 C142.719017,213.593114 97.7234642,213.271218 64.0133428,187.20858 C30.3032215,161.145943 8.96544052,124.033496 0,75.8712405 C105.372053,44.2283274 171.705387,81.6626704 199,188.174269 Z" id="Shape" fill="url(#linearGradient-4)"></path>
            <path d="M115.89853,142.470656 C103.751316,135.579494 90.2443015,127.943142 75.3776565,119.561698 L40.892016,127.819418 C40.2802333,127.965912 39.665953,127.586943 39.5199824,126.972968 C39.3740118,126.358992 39.7516271,125.742511 40.3634098,125.596017 L72.451652,117.912363 C53.8970542,107.455192 33.2742461,95.8646208 10.5835455,83.1408384 C10.0344845,82.8329531 9.83808165,82.1366657 10.1448674,81.5856369 C10.4516531,81.0346081 11.145454,80.8375013 11.694515,81.1453866 C53.1251551,104.377567 87.6617264,123.831731 115.306161,139.509018 L111.739126,104.426202 C111.584986,102.910198 113.850871,102.678161 114.00501,104.194164 L117.735765,140.887202 C154.592735,161.79948 178.829942,175.796159 190.452172,182.880068 C190.989749,183.207729 191.160869,183.910705 190.834378,184.450209 C190.507888,184.989712 189.807422,185.161445 189.269845,184.833785 C182.315586,180.595068 170.826387,173.871062 154.803279,164.662373 C154.761111,164.684157 154.717118,164.703541 154.671409,164.720293 L123.156017,176.270705 C122.565224,176.487231 121.91139,176.182112 121.695637,175.589201 C121.479885,174.996291 121.783915,174.340113 122.374708,174.123587 L152.226934,163.182727 C141.98523,157.304619 129.997135,150.469451 116.262897,142.67737 C116.130357,142.632944 116.00606,142.56433 115.89853,142.470656 Z" id="Shape" fill="#FFFFFF" fill-rule="nonzero"></path>
            <path d="M186.397111,220 C128.543838,198.081935 96.8676044,166.008613 91.3684105,123.780034 C85.8692165,81.5514554 96.9446186,40.291444 124.594617,0 C221.65003,52.2763031 242.250861,125.609636 186.397111,220 Z" id="Shape" fill="url(#linearGradient-5)" fill-rule="nonzero"></path>
            <path d="M162.563708,129.304978 C173.864256,170.239804 181.123492,197.331633 184.342806,210.585861 C184.491713,211.198925 184.118297,211.817323 183.508757,211.967091 C182.899218,212.116859 182.284375,211.741283 182.135469,211.128219 C180.209165,203.19744 176.830716,190.29204 172.000421,172.413182 C171.955362,172.398663 171.910703,172.381154 171.866683,172.360566 L141.515869,158.165964 C140.946908,157.899869 140.700146,157.220256 140.96471,156.648004 C141.229275,156.075753 141.904981,155.827563 142.473943,156.093658 L171.223049,169.539167 C168.130029,158.116906 164.47778,144.778947 160.266374,129.525569 C160.204104,129.400123 160.16465,129.263425 160.154641,129.120906 C156.429503,115.630464 152.268924,100.648399 147.672953,84.1749033 L117.541306,65.5450292 C117.006764,65.2145312 116.839813,64.5107721 117.168411,63.9731392 C117.497009,63.4355063 118.196722,63.2675903 118.731264,63.5980883 L146.768197,80.932837 C141.029686,60.375216 134.628875,37.5488955 127.565857,12.4542334 C127.394949,11.8470023 127.745829,11.2153946 128.349569,11.0434981 C128.953309,10.8716016 129.581285,11.22451 129.752193,11.8317411 C142.64846,57.6517416 153.337053,95.9093719 161.818533,126.60681 L183.96233,99.2732765 C184.919211,98.0921359 186.680736,99.5357572 185.723855,100.716898 L162.563708,129.304978 Z" id="Shape" fill="#FFFFFF" fill-rule="nonzero"></path>
            <path d="M244,259.562526 C196.223838,298.760152 152.710901,310.14864 113.461189,293.727992 C74.2114767,277.307343 44.0577471,246.99163 23,202.780852 C116.556202,144.804099 190.222869,163.731324 244,259.562526 Z" id="Shape" fill="url(#linearGradient-6)"></path>
            <path d="M153.169327,234.117219 C194.134683,244.712951 221.136641,251.916434 234.18055,255.729153 C234.783886,255.905508 235.130224,256.538261 234.954118,257.142447 C234.778012,257.746634 234.146149,258.09346 233.542813,257.917105 C225.737881,255.635733 212.91513,252.1352 195.075714,247.415825 C195.040625,247.447727 195.003156,247.477791 194.963353,247.505765 L167.519981,266.793099 C167.005523,267.154663 166.29578,267.030129 165.934725,266.514946 C165.57367,265.999763 165.698028,265.289019 166.212486,264.927456 L192.207586,246.657974 C180.806972,243.649068 167.474018,240.170685 152.208998,236.222899 C152.069616,236.214438 151.931956,236.180546 151.804023,236.118173 C138.303048,232.627071 123.297489,228.770425 106.787534,224.548288 L75.6285754,241.433553 C75.0758088,241.733101 74.3852129,241.527196 74.0860862,240.97365 C73.7869596,240.420104 73.9925754,239.728535 74.545342,239.428987 L103.538169,223.717564 C82.9334951,218.451367 60.0404012,212.629201 34.8592418,206.251166 C34.2499177,206.096833 33.8808986,205.47707 34.0350147,204.866887 C34.1891308,204.256704 34.8080214,203.887165 35.4173455,204.041498 C81.3952802,215.687066 119.745108,225.479396 150.468989,233.419087 L137.984634,200.55283 C137.445158,199.132608 139.572492,198.322254 140.111968,199.742476 L153.169327,234.117219 Z" id="Shape" fill="#FFFFFF" fill-rule="nonzero"></path>
        </g>
        <g id="Tab" transform="translate(267.000000, 122.000000)">
            <path d="M0,10 L400,10 C455.228475,10 500,54.771525 500,110 L500,510 L100,510 C44.771525,510 0,465.228475 0,410 L0,10 Z" id="Shape" fill="url(#linearGradient-7)"></path>
            <path d="M41,150 L231,150 L231,170 L41,170 L41,150 Z M41,290 L231,290 L231,310 L41,310 L41,290 Z M41,190 L431,190 L431,210 L41,210 L41,190 Z M41,330 L431,330 L431,350 L41,350 L41,330 Z M41,230 L431,230 L431,250 L41,250 L41,230 Z M41,370 L431,370 L431,390 L41,390 L41,370 Z" id="Shape" fill="url(#linearGradient-8)"></path>
            <path d="M5.68434189e-14,10 L400,10 C455.228475,10 500,54.771525 500,110 L5.68434189e-14,110 L5.68434189e-14,10 Z" id="Shape" fill="url(#linearGradient-9)"></path>
            <circle id="Shape" fill="url(#linearGradient-10)" cx="517" cy="100" r="100"></circle>
            <path d="M553.028544,66.2817616 C556.738925,62.1909279 563.063058,61.8825098 567.153892,65.5928904 C571.244726,69.303271 571.553144,75.6274047 567.842763,79.7182384 L519.771835,132.718238 C516.304762,136.540816 510.498289,137.097257 506.36834,134.00271 L473.003615,109.00271 C468.58384,105.690998 467.685578,99.4233894 470.99729,95.0036148 C474.309002,90.5838402 480.576611,89.6855781 484.996385,92.9972902 L511.074605,112.537552 L553.028544,66.2817616 Z" id="Shape" fill="#FFFFFF" fill-rule="nonzero"></path>
        </g>
        <g id="Tab" transform="translate(634.000000, 388.000000)">
            <path d="M500,0 L500,400 C500,455.228475 455.228475,500 400,500 L0,500 L0,100 C0,44.771525 44.771525,0 100,0 L500,0 Z" id="Shape" fill="url(#linearGradient-7)"></path>
            <path d="M41,130 L231,130 L231,150 L41,150 L41,130 Z M41,270 L231,270 L231,290 L41,290 L41,270 Z M41,170 L431,170 L431,190 L41,190 L41,170 Z M41,310 L431,310 L431,330 L41,330 L41,310 Z M41,210 L431,210 L431,230 L41,230 L41,210 Z M41,350 L431,350 L431,370 L41,370 L41,350 Z M41,390 L431,390 L431,410 L41,410 L41,390 Z" id="Shape" fill="url(#linearGradient-11)"></path>
            <path d="M500,2.84217094e-13 L500,90 L-1.13686838e-13,90 C-2.27373675e-13,40.2943725 40.2943725,2.84217094e-13 90,2.84217094e-13 L500,2.84217094e-13 Z" id="Shape" fill="url(#linearGradient-12)"></path>
        </g>
        <g id="Women" transform="translate(908.000000, 396.268792)">
            <path d="M150.241983,473.201123 C154.8498,473.153077 158.958022,473.447967 162.566648,474.085793 C167.979655,475.042414 167.302087,476.879831 166.194205,478.799191 C165.086322,480.718551 162.598405,485.027299 160.589009,488.507675 C158.579638,491.988145 157.278782,491.749068 151.385837,487.788809 C145.492891,483.828551 145.070098,482.828407 138.066361,480.098807 C131.062624,477.369206 118.183091,469.68172 117.959964,463.527734 C117.737074,457.373887 127.945268,460.792855 136.556244,464.32156 C142.296862,466.673906 146.858775,469.63376 150.241983,473.201123 Z" id="Shape" fill="#221E41"></path>
            <path d="M176.399327,461.058812 L165.64281,479.689645 L160.686581,478.935206 C151.679552,477.564153 143.62492,472.569539 138.392718,465.110958 L149.512092,468.690001 L159.538303,451.324095 L176.399327,461.058812 Z" id="Shape" fill="#FE9F9F"></path>
            <path d="M174.45175,470.94427 L149.433134,458.364301 L210.544454,290.022054 C213.850989,280.9136 221.213658,273.866509 230.458138,270.961908 L332.25486,238.977535 L259.806524,324.822046 L174.45175,470.94427 Z" id="Shape" fill="#211D41"></path>
            <path d="M241.035588,207.465021 C229.17329,207.465021 220.508854,207.465021 215.04228,207.465021 C206.842419,207.465021 196.540147,212.958849 193.542914,220.453656 L252.411189,220.453656 L241.035588,207.465021 Z" id="Shape" fill="#FE9F9F"></path>
            <path d="M301.615202,477.354446 C304.839447,474.062253 307.952918,471.365821 310.955613,469.265148 C315.45962,466.114007 316.279757,467.89237 316.853558,470.032954 C317.42736,472.173537 318.714881,476.979505 319.755021,480.86136 C320.795245,484.743264 319.706349,485.494055 312.739081,486.860671 C305.771814,488.227287 304.765646,487.819039 297.883137,490.841309 C291.000627,493.86358 276.457549,497.534912 271.948249,493.341162 C267.439215,489.147341 277.075073,484.346634 285.659125,480.752926 C291.381713,478.357056 296.700406,477.224229 301.615202,477.354446 Z" id="Shape" fill="#221E41"></path>
            <path d="M311.525327,450.2725 L317.09331,471.052494 L313.055258,474.023609 C305.716845,479.423059 296.489635,481.586819 287.515896,480.012531 L297.909247,474.680712 L292.719299,455.31156 L311.525327,450.2725 Z" id="Shape" fill="#FE9F9F"></path>
            <path d="M330.444449,238.977535 L400.01735,221.272816 L408.994205,259.272334 C409.824597,262.787431 410.244007,266.387065 410.244007,269.998914 C410.244007,295.766311 389.355404,316.654914 363.588007,316.654914 L277.801136,316.654914 L318.687959,463.038779 L292.906897,469.312336 L216.07733,319.569284 C215.559704,318.560416 215.097633,317.523998 214.693188,316.46467 C208.565999,300.416295 216.608709,282.439449 232.657084,276.31226 L330.444449,238.977535 Z" id="Shape" fill="url(#linearGradient-13)"></path>
            <path d="M300.331981,452.727147 L299.394374,453.074844 L296.960495,446.511595 L297.898102,446.163898 L300.331981,452.727147 Z M294.421132,436.787828 L293.483525,437.135525 L291.049646,430.572277 L291.987253,430.22458 L294.421132,436.787828 Z M288.510283,420.84851 L287.572676,421.196207 L285.138797,414.632959 L286.076403,414.285262 L288.510283,420.84851 Z M282.599433,404.909192 L281.661826,405.256889 L279.227947,398.69364 L280.165554,398.345943 L282.599433,404.909192 Z M276.688584,388.969874 L275.750977,389.317571 L273.317098,382.754322 L274.254705,382.406625 L276.688584,388.969874 Z M270.777735,373.030556 L269.840128,373.378253 L267.406249,366.815004 L268.343856,366.467307 L270.777735,373.030556 Z M264.866886,357.091238 L263.929279,357.438935 L261.4954,350.875686 L262.433007,350.527989 L264.866886,357.091238 Z M258.956037,341.151919 L258.01843,341.499617 L255.584551,334.936368 L256.522158,334.588671 L258.956037,341.151919 Z M254.128647,325.063455 L253.129668,325.108634 C253.02116,322.709315 253.284301,320.312437 253.903354,317.998141 L254.869391,318.256547 C254.276687,320.472338 254.024784,322.766848 254.128647,325.063455 Z M259.340499,309.625828 L258.572397,308.9855 C260.104469,307.147709 261.910456,305.55239 263.938897,304.256497 L264.47727,305.099203 C262.535726,306.339581 260.807126,307.86654 259.340499,309.625828 Z M273.738789,301.732444 L273.592765,300.743163 L280.517732,299.720995 L280.663756,300.710276 L273.738789,301.732444 Z M290.556566,299.250035 L290.410542,298.260754 L297.33551,297.238585 L297.481534,298.227866 L290.556566,299.250035 Z M307.374344,296.767625 L307.22832,295.778344 L314.153287,294.756175 L314.299311,295.745456 L307.374344,296.767625 Z M324.192122,294.285216 L324.046097,293.295935 L330.971065,292.273766 L331.117089,293.263047 L324.192122,294.285216 Z M341.030208,291.666146 L340.79943,290.69314 C343.046153,290.16026 345.230339,289.403893 347.320682,288.436845 L347.740554,289.344428 C345.58961,290.339512 343.342082,291.117814 341.030208,291.666146 Z M356.259524,283.800563 L355.599731,283.049115 C357.329492,281.530336 358.905359,279.840038 360.303225,278.000699 L361.099394,278.605773 C359.661011,280.498425 358.039441,282.237745 356.259524,283.800563 Z M366.907358,270.48679 L366.09307,269.906329 L370.156301,264.206315 L370.970588,264.786776 L366.907358,270.48679 Z" id="Shape" fill="#FFFFFF" fill-rule="nonzero"></path>
            <path d="M335.684732,284.80315 C355.861769,284.80315 373.415775,297.380832 380.32636,315.533899 L384.497463,315.533899 C397.593329,315.533899 408.801886,306.14773 411.08857,293.266213 L432.824044,170.824348 C433.692152,165.934058 438.364308,162.672717 443.259596,163.539938 C448.154883,164.40716 451.419558,169.074546 450.551449,173.964836 L428.815976,296.406701 C425.004836,317.875895 406.323906,333.51951 384.497463,333.51951 L383.995067,333.51951 L404.919364,491.637682 L395.835545,491.637682 L374.914656,333.51951 L294.498798,333.51951 L266.604039,491.637682 L257.457086,491.637682 L285.357841,333.51951 L280.862275,333.51951 C275.89061,333.51951 271.860279,329.493294 271.860279,324.526704 C271.860279,319.560115 275.89061,315.533899 280.862275,315.533899 L289.70771,315.533899 C297.247463,297.25482 315.217334,284.80315 335.684732,284.80315 Z M370.52484,315.533899 C364.179612,302.545145 350.844478,293.795956 335.684732,293.795956 C320.236301,293.795956 306.525182,302.457503 299.636816,315.533899 L370.52484,315.533899 Z" id="Shape" fill="url(#linearGradient-14)"></path>
            <path d="M342.016579,91.3905149 C357.77678,92.3571069 368.814947,102.567332 373.364302,111.909444 C377.913656,121.251556 383.868974,153.123003 400.553232,217.994419 L409.543372,256.050171 C410.372326,259.559181 410.791001,266.757812 410.791001,266.757812 C410.791001,266.757812 384.008817,257.49772 330.444449,238.977535 L318.904362,197.03175 L295.844253,217.379934 C293.001477,219.888393 289.339198,221.272816 285.546229,221.272816 L232.268482,221.272816 L232.268482,205.173799 L280.119367,193.673128 C286.11256,180.484487 294.858687,154.023176 301.710974,127.928729 C308.563261,101.834281 326.256378,90.4239229 342.016579,91.3905149 Z" id="Shape" fill="url(#linearGradient-15)"></path>
            <polygon id="Shape" fill="#211D41" points="322.419792 209.8096 344.814891 170.30265 318.904362 197.03175"></polygon>
            <path d="M54.7370855,192.700422 C50.9926418,198.561745 52.7135667,206.345657 58.5808788,210.086278 C60.6060247,211.377381 62.9583844,212.063344 65.3607938,212.063344 L88.7975418,212.063344 C91.2833744,212.063344 93.2985398,214.076452 93.2985398,216.559747 C93.2985398,219.043041 91.2833744,221.05615 88.7975418,221.05615 L65.3607938,221.05615 C61.2423777,221.05615 57.209761,219.880213 53.7380824,217.666894 C43.679833,211.254401 40.7296761,197.910551 47.1487224,187.86257 L82.8183633,132.027506 L82.8183633,17.7196968 C82.8183633,15.7314717 84.4301382,14.1196968 86.4183633,14.1196968 L97.2223553,14.1196968 C99.2105804,14.1196968 100.822355,15.7314717 100.822355,17.7196968 L100.822355,175.088042 C100.822355,177.076267 99.2105804,178.688042 97.2223553,178.688042 L86.4183633,178.688042 C84.4301382,178.688042 82.8183633,177.076267 82.8183633,175.088042 L82.8183633,148.743715 L54.7370855,192.700422 Z M115.173285,221.05615 C112.687453,221.05615 110.672287,219.043041 110.672287,216.559747 C110.672287,214.076452 112.687453,212.063344 115.173285,212.063344 L169.815506,212.063344 C172.301338,212.063344 174.316504,214.076452 174.316504,216.559747 C174.316504,219.043041 172.301338,221.05615 169.815506,221.05615 L115.173285,221.05615 Z" id="Shape" fill="#211D41" fill-rule="nonzero"></path>
            <path d="M318.079535,85.7567538 C315.568342,72.5082221 312.034228,65.7710196 307.477195,65.5451464 C300.641644,65.2063365 297.648814,61.1119165 296.93028,55.2766903 C296.781297,54.0667965 296.450559,51.5531592 295.938066,47.7357785 L290.826672,45.9351426 L295.262115,35.3879013 L296.087811,20.4557857 C320.508512,11.7780168 335.326366,15.475519 340.541374,31.5482924 C345.756382,47.6210657 345.029036,60.7745875 338.359336,71.0088577 L339.96379,81.1168502 L318.079535,85.7567538 Z" id="Shape" fill="#FE9F9F"></path>
            <path d="M291.432544,4.00382401 C284.117596,17.0894772 286.770534,26.7675147 299.391358,33.0379368 C318.322593,42.4435698 309.69972,51.8426883 327.351982,57.2124681 C345.004244,62.582248 311.979194,72.1751564 307.379231,98.0950853 C302.779268,124.015014 332.674462,121.806964 357.102914,130.229204 C373.388549,135.844032 382.800323,144.517012 385.338237,156.248144 C392.247483,132.224341 390.39376,114.747924 379.77707,103.818896 C363.852034,87.4253524 345.891552,82.1524659 358.949467,64.980206 C372.007381,47.8079462 364.798117,14.7723093 345.065955,4.00382401 C325.333794,-6.76466132 315.235816,8.17050785 304.995675,3.08690561 C298.168914,-0.302162548 293.64787,0.00347691726 291.432544,4.00382401 Z" id="Shape" fill="#211D41"></path>
            <polygon id="Shape" fill="#EE342C" points="0 221 286.761697 221 286.761697 234.981928 0 234.981928"></polygon>
        </g>
        <g id="Women" transform="translate(81.308742, 409.080707)">
            <path d="M267.602499,462.071134 C271.701478,459.356258 276.812292,457.498472 282.93494,456.497775 C292.119004,454.996558 302.834663,453.961562 301.233171,459.907548 C299.631417,465.853614 285.352677,470.446806 277.914419,471.530949 C270.47616,472.615093 269.83922,473.494495 263.206446,476.027628 C256.573672,478.560761 255.252377,478.501081 254.077441,474.657806 C252.902461,470.814616 251.447566,466.056641 250.79984,463.937255 C250.152115,461.817869 249.905241,459.875125 255.394706,460.160684 C259.054323,460.350969 263.123588,460.987786 267.602499,462.071134 Z" id="Shape" fill="#221E41"></path>
            <path d="M244.846992,444.355907 L263.465703,438.663596 L269.328464,457.839822 L280.967959,456.853824 C274.192043,462.944253 265.220307,465.998957 256.135707,465.308729 L251.136794,464.928923 L244.846992,444.355907 Z" id="Shape" fill="#E9A17C"></path>
            <path d="M246.239509,458.132355 L190.884734,312.010131 L118.436399,226.165621 L220.639772,257.211482 C231.843241,260.61471 240.186237,270.021347 242.227185,281.551057 L271.258125,445.552387 L246.239509,458.132355 Z" id="Shape" fill="#1E1539"></path>
            <path d="M209.65567,194.653106 L235.648978,194.653106 C243.848839,194.653106 254.151111,200.146935 257.148344,207.641741 L198.280069,207.641741 L209.65567,194.653106 Z" id="Shape" fill="#E9A17C"></path>
            <path d="M149.076056,464.542531 C153.990852,464.412314 159.309545,465.545141 165.032134,467.941011 C173.616185,471.534719 183.252044,476.335427 178.74301,480.529247 C174.233709,484.722997 159.690631,481.051666 152.808122,478.029395 C145.925612,475.007124 144.919445,475.415373 137.952177,474.048757 C130.98491,472.682141 129.896013,471.93135 130.936237,468.049446 C131.976377,464.167591 133.263899,459.361623 133.8377,457.221039 C134.411501,455.080456 135.231638,453.302093 139.735645,456.453233 C142.738341,458.553906 145.851811,461.250339 149.076056,464.542531 Z" id="Shape" fill="#221E41"></path>
            <path d="M139.165931,437.460586 L157.97196,442.499646 L152.782011,461.868797 L163.175362,467.200617 C154.201623,468.774905 144.974413,466.611145 137.636001,461.211694 L133.597949,458.24058 L139.165931,437.460586 Z" id="Shape" fill="#E9A17C"></path>
            <path d="M120.24681,226.165621 L218.034174,263.500346 C234.082549,269.627534 242.12526,287.604381 235.998071,303.652756 C235.593625,304.712083 235.131554,305.748502 234.613928,306.75737 L157.784361,456.500422 L132.003299,450.226864 L172.890123,303.843 L87.1032515,303.843 C61.3358542,303.843 40.4472515,282.954397 40.4472515,257.187 C40.4472515,253.57515 40.8666609,249.975517 41.6970534,246.46042 L50.6739087,208.460901 L120.24681,226.165621 Z" id="Shape" fill="url(#linearGradient-16)"></path>
            <path d="M70.2139966,254.606808 L70.8213026,253.81234 L76.3825788,258.063482 L75.7752728,258.85795 L70.2139966,254.606808 Z M83.719953,264.93101 L84.327259,264.136542 L89.8885351,268.387684 L89.2812291,269.182152 L83.719953,264.93101 Z M97.4842687,274.987981 L98.0052687,274.134424 C99.9843103,275.342406 102.024476,276.445616 104.117316,277.439794 L103.688231,278.343058 C101.56392,277.33393 99.493073,276.214129 97.4842687,274.987981 Z M113.100692,281.979415 L113.390341,281.022282 C115.607616,281.693277 117.859366,282.248234 120.136546,282.684582 L119.948352,283.666714 C117.636925,283.223803 115.351311,282.660501 113.100692,281.979415 Z M129.890225,284.978813 L130.000115,283.984869 L136.957721,284.754095 L136.847832,285.748038 L129.890225,284.978813 Z M146.78727,286.846932 L146.89716,285.852989 L153.854766,286.622214 L153.744877,287.616158 L146.78727,286.846932 Z M163.684315,288.715052 L163.794205,287.721109 L170.751811,288.490334 L170.641922,289.484278 L163.684315,288.715052 Z M180.58136,290.583172 L180.69125,289.589228 L187.648856,290.358454 L187.538967,291.352398 L180.58136,290.583172 Z M196.274428,294.908951 L197.010163,294.231682 C198.680503,296.046216 199.72946,298.360416 199.991846,300.813009 L198.99752,300.919385 C198.757941,298.679973 197.799686,296.565879 196.274428,294.908951 Z M196.711142,310.346927 L197.651544,310.686992 L195.271089,317.269805 L194.330687,316.92974 L196.711142,310.346927 Z M190.930037,326.33376 L191.870439,326.673825 L189.489984,333.256638 L188.549582,332.916573 L190.930037,326.33376 Z M185.148933,342.320593 L186.089335,342.660658 L183.70888,349.243471 L182.768478,348.903406 L185.148933,342.320593 Z M179.367828,358.307426 L180.30823,358.647491 L177.927775,365.230304 L176.987374,364.890239 L179.367828,358.307426 Z M173.586724,374.294259 L174.527126,374.634324 L172.146671,381.217137 L171.206269,380.877072 L173.586724,374.294259 Z M167.805619,390.281092 L168.746021,390.621157 L166.365567,397.20397 L165.425165,396.863906 L167.805619,390.281092 Z M162.024515,406.267925 L162.964917,406.60799 L160.584462,413.190804 L159.64406,412.850739 L162.024515,406.267925 Z M156.24341,422.254758 L157.183812,422.594823 L154.803358,429.177637 L153.862956,428.837572 L156.24341,422.254758 Z M150.462306,438.241591 L151.402708,438.581656 L149.022253,445.16447 L148.081851,444.824405 L150.462306,438.241591 Z" id="Shape" fill="#FFFFFF" fill-rule="nonzero"></path>
            <path d="M165.333417,320.707596 L193.234172,478.825768 L184.087219,478.825768 L156.19246,320.707596 L75.7766027,320.707596 L54.8557135,478.825768 L45.7718944,478.825768 L66.6961908,320.707596 L66.1937957,320.707596 C44.3673522,320.707596 25.6864227,305.06398 21.8752827,283.594787 L0.139808845,161.152922 C-0.728299236,156.262631 2.53637494,151.595246 7.43166271,150.728024 C12.3269505,149.860802 16.999106,153.122143 17.867214,158.012434 L39.6026879,280.454299 C41.8893719,293.335815 53.0979296,302.721984 66.1937957,302.721984 L70.3648982,302.721984 C77.2754835,284.568917 94.8294891,271.991236 115.006527,271.991236 C135.473924,271.991236 153.443795,284.442906 160.983549,302.721984 L169.828983,302.721984 C174.800648,302.721984 178.830979,306.7482 178.830979,311.71479 C178.830979,316.681379 174.800648,320.707596 169.828983,320.707596 L165.333417,320.707596 Z M151.054442,302.721984 C144.166077,289.645588 130.454958,280.984041 115.006527,280.984041 C99.84678,280.984041 86.5116464,289.73323 80.166418,302.721984 L151.054442,302.721984 Z" id="Shape" fill="url(#linearGradient-14)"></path>
            <path d="M126.611723,83.9448394 L104.727468,79.3049357 L106.331922,69.1969432 C99.6622222,58.962673 98.9348761,45.8091512 104.149884,29.7363779 C109.364892,13.6636045 124.182746,9.96610233 148.603447,18.6438712 L149.429143,33.5759868 L153.864586,44.1232281 L148.753192,45.923864 C148.240699,49.7412447 147.909961,52.254882 147.760978,53.4647758 C147.042444,59.3000021 144.049614,63.394422 137.214063,63.7332319 C132.65703,63.9591051 129.122916,70.6963076 126.611723,83.9448394 Z" id="Shape" fill="#E9A17C"></path>
            <path d="M74.8813856,37.7987195 C76.7489172,49.6781458 94.7378839,62.5071377 76.8348402,79.9681437 C64.8994777,91.6088144 62.110603,107.700573 68.468216,128.243421 C47.2179705,106.176734 40.7903078,87.0217676 49.185228,70.7785219 C61.7776082,46.4136534 65.7580177,49.2331753 64.0861422,34.9192931 C63.0650884,26.1774683 70.5573711,22.2660481 86.5629901,23.1850327 C88.4928754,15.9250048 92.8649563,9.26826641 100.691258,4.99719776 C120.42342,-5.77128757 125.805629,4.76417957 136.747662,1.23420767 C149.223013,-2.79042322 153.837496,6.45597824 153.837496,6.45597824 C161.152443,19.5416314 160.605526,21.3702797 148.818817,30.7551299 C139.62072,38.0788668 126.588689,39.4606002 119.787446,36.9192931 C112.986203,34.3779861 110.6065,46.0571888 114.473742,49.8438159 C124.117716,59.2867546 108.967581,69.3378634 106.266335,71.5988025 C100.691258,70.3501025 99.1113541,66.7641669 91.1479794,54.2317384 C86.9325954,47.5977419 84.3250054,37.2086269 85.7310432,27.3015511 C77.3582568,27.0501145 73.7417042,30.5491706 74.8813856,37.7987195 Z" id="Shape" fill="url(#linearGradient-17)"></path>
            <path d="M108.674679,78.5786004 C124.43488,77.6120084 142.127997,89.022367 148.980284,115.116814 C155.832571,141.211261 164.578698,167.672572 170.571891,180.861214 L218.422776,192.361885 L218.422776,208.460901 L165.145029,208.460901 C161.35206,208.460901 157.689782,207.076479 154.847005,204.56802 L131.786896,184.219836 L120.24681,226.165621 C66.6824414,244.685805 39.9002573,253.945897 39.9002573,253.945897 C39.9002573,253.945897 40.3189321,246.747267 41.1478867,243.238257 L50.1380264,205.182504 C66.8222845,140.311089 72.7776021,108.439641 77.3269568,99.0975297 C81.8763114,89.7554179 92.914478,79.5451924 108.674679,78.5786004 Z" id="Shape" fill="url(#linearGradient-18)"></path>
            <polygon id="Shape" fill="#211D41" points="128.271466 196.997685 105.876368 157.490736 131.786896 184.219836"></polygon>
            <path d="M367.872895,119.215591 L403.542536,175.050656 C409.961582,185.098636 407.011425,198.442487 396.953176,204.85498 C393.481497,207.068299 389.448881,208.244235 385.330464,208.244235 L361.893716,208.244235 C359.407884,208.244235 357.392718,206.231127 357.392718,203.747832 C357.392718,201.264538 359.407884,199.251429 361.893716,199.251429 L385.330464,199.251429 C387.732874,199.251429 390.085234,198.565467 392.110379,197.274364 C397.977692,193.533743 399.698616,185.74983 395.954173,179.888508 L367.872895,135.931801 L367.872895,162.276128 C367.872895,164.264353 366.26112,165.876128 364.272895,165.876128 L353.468903,165.876128 C351.480678,165.876128 349.868903,164.264353 349.868903,162.276128 L349.868903,4.90778235 C349.868903,2.91955726 351.480678,1.30778235 353.468903,1.30778235 L364.272895,1.30778235 C366.26112,1.30778235 367.872895,2.91955726 367.872895,4.90778235 L367.872895,119.215591 Z M335.517973,208.244235 L280.875752,208.244235 C278.38992,208.244235 276.374754,206.231127 276.374754,203.747832 C276.374754,201.264538 278.38992,199.251429 280.875752,199.251429 L335.517973,199.251429 C338.003805,199.251429 340.018971,201.264538 340.018971,203.747832 C340.018971,206.231127 338.003805,208.244235 335.517973,208.244235 Z" id="Shape" fill="#211D41" fill-rule="nonzero"></path>
            <polygon id="Shape" fill="#EE342C" points="450.761697 208 450.761697 221.981928 164 221.981928 164 208"></polygon>
        </g>
    </g>
</svg>