<?xml version="1.0" encoding="UTF-8"?>
<svg width="1440px" height="1024px" viewBox="0 0 1440 1024" version="1.1" xmlns="http://www.w3.org/2000/svg" xmlns:xlink="http://www.w3.org/1999/xlink">
    <!-- Generator: Sketch 53.2 (72643) - https://sketchapp.com -->
    <title>Delivery Services</title>
    <desc>Created with Sketch.</desc>
    <defs>
        <linearGradient x1="8.40196915%" y1="13.1381206%" x2="56.5670567%" y2="50%" id="linearGradient-1">
            <stop stop-color="#CFE49F" offset="0%"></stop>
            <stop stop-color="#A9D386" offset="100%"></stop>
        </linearGradient>
        <linearGradient x1="50%" y1="7.26438915%" x2="50%" y2="151.05781%" id="linearGradient-2">
            <stop stop-color="#D0F6FF" offset="0%"></stop>
            <stop stop-color="#8BE2F7" offset="100%"></stop>
        </linearGradient>
        <linearGradient x1="4.76643799%" y1="37.1557748%" x2="100%" y2="65.3596994%" id="linearGradient-3">
            <stop stop-color="#6EAE7C" offset="0%"></stop>
            <stop stop-color="#0F575D" offset="100%"></stop>
        </linearGradient>
        <linearGradient x1="36.1805563%" y1="13.1381206%" x2="52.1816675%" y2="50%" id="linearGradient-4">
            <stop stop-color="#CFE49F" offset="0%"></stop>
            <stop stop-color="#A9D386" offset="100%"></stop>
        </linearGradient>
        <linearGradient x1="34.1151714%" y1="33.9683678%" x2="64.8333502%" y2="52.4070359%" id="linearGradient-5">
            <stop stop-color="#77D791" offset="0%"></stop>
            <stop stop-color="#4FA67E" offset="100%"></stop>
        </linearGradient>
        <linearGradient x1="50%" y1="78.4511557%" x2="50.9350565%" y2="39.2897568%" id="linearGradient-6">
            <stop stop-color="#2B3389" offset="0%"></stop>
            <stop stop-color="#444FB7" offset="100%"></stop>
        </linearGradient>
        <linearGradient x1="50%" y1="7.26438915%" x2="50%" y2="151.05781%" id="linearGradient-7">
            <stop stop-color="#D0F6FF" offset="0%"></stop>
            <stop stop-color="#8BE2F7" offset="100%"></stop>
        </linearGradient>
        <linearGradient x1="50%" y1="-2.48949813e-15%" x2="50%" y2="100%" id="linearGradient-8">
            <stop stop-color="#4DBCFA" offset="0%"></stop>
            <stop stop-color="#1486DB" offset="100%"></stop>
        </linearGradient>
        <linearGradient x1="50%" y1="0%" x2="50%" y2="100%" id="linearGradient-9">
            <stop stop-color="#FF9485" offset="0%"></stop>
            <stop stop-color="#FF676E" offset="100%"></stop>
        </linearGradient>
        <linearGradient x1="50%" y1="-2.48949813e-15%" x2="50%" y2="100%" id="linearGradient-10">
            <stop stop-color="#4DBCFA" offset="0%"></stop>
            <stop stop-color="#1486DB" offset="100%"></stop>
        </linearGradient>
        <linearGradient x1="82.5767258%" y1="-52.951376%" x2="82.5767258%" y2="186.664812%" id="linearGradient-11">
            <stop stop-color="#1533B6" offset="0%"></stop>
            <stop stop-color="#356BE9" offset="100%"></stop>
        </linearGradient>
        <linearGradient x1="50%" y1="-27.3641552%" x2="50%" y2="100%" id="linearGradient-12">
            <stop stop-color="#C0E4FD" offset="0%"></stop>
            <stop stop-color="#72B9FE" offset="100%"></stop>
        </linearGradient>
        <linearGradient x1="50%" y1="-27.3641552%" x2="50%" y2="100%" id="linearGradient-13">
            <stop stop-color="#C0E4FD" offset="0%"></stop>
            <stop stop-color="#72B9FE" offset="100%"></stop>
        </linearGradient>
        <linearGradient x1="50%" y1="0%" x2="50%" y2="100%" id="linearGradient-14">
            <stop stop-color="#1D2A78" offset="0%"></stop>
            <stop stop-color="#12033B" offset="100%"></stop>
        </linearGradient>
        <linearGradient x1="50%" y1="0%" x2="50%" y2="100%" id="linearGradient-15">
            <stop stop-color="#FF9485" offset="0%"></stop>
            <stop stop-color="#FF676E" offset="100%"></stop>
        </linearGradient>
        <linearGradient x1="50%" y1="0%" x2="50%" y2="100%" id="linearGradient-16">
            <stop stop-color="#1D2A78" offset="0%"></stop>
            <stop stop-color="#12033B" offset="100%"></stop>
        </linearGradient>
        <linearGradient x1="50%" y1="0%" x2="50%" y2="100%" id="linearGradient-17">
            <stop stop-color="#FF9485" offset="0%"></stop>
            <stop stop-color="#FF676E" offset="100%"></stop>
        </linearGradient>
        <linearGradient x1="82.5767258%" y1="-52.951376%" x2="82.5767258%" y2="186.664812%" id="linearGradient-18">
            <stop stop-color="#1533B6" offset="0%"></stop>
            <stop stop-color="#356BE9" offset="100%"></stop>
        </linearGradient>
    </defs>
    <g id="Delivery-Services" stroke="none" stroke-width="1" fill="none" fill-rule="evenodd">
        <rect fill="#FFFFFF" x="0" y="0" width="1440" height="1024"></rect>
        <g id="Ornament" transform="translate(43.000000, 136.000000)">
            <path d="M168.921769,337.925666 C75.6259998,337.925666 0,262.275578 0,168.962833 C0,75.6500883 75.6259998,0 168.921769,0 C262.217538,0 337.843537,75.6500883 337.843537,168.962833 C337.843537,262.275578 262.217538,337.925666 168.921769,337.925666 Z M168.921769,257.925666 C218.029053,257.925666 257.843537,218.0985 257.843537,168.962833 C257.843537,119.827166 218.029053,80 168.921769,80 C119.814484,80 80,119.827166 80,168.962833 C80,218.0985 119.814484,257.925666 168.921769,257.925666 Z" id="Shape" fill="url(#linearGradient-1)"></path>
            <path d="M698,63 L932,63 L932,110 C932,165.228475 887.228475,210 832,210 L598,210 L598,163 C598,107.771525 642.771525,63 698,63 Z" id="Shape" fill="url(#linearGradient-2)"></path>
            <g id="Plant" transform="translate(948.000000, 32.000000)">
                <path d="M39.4981201,164.85314 C63.4566962,71.748516 121.682551,39.0261602 214.175686,66.686073 C206.306031,108.785983 187.576224,141.226961 157.986264,164.009006 C128.396305,186.791051 88.9002567,187.07243 39.4981201,164.85314 Z" id="Shape" fill="url(#linearGradient-3)"></path>
                <path d="M110.90666,123.31975 L114.182626,91.2147532 C114.317975,89.8883075 116.307644,90.0913315 116.172294,91.4177773 L113.04009,122.113892 C137.314607,108.396862 167.641093,91.3752098 204.021245,71.0479371 C204.503374,70.7785492 205.112599,70.9510101 205.381987,71.4331393 C205.651375,71.9152686 205.478914,72.5244936 204.996785,72.7938815 C185.072124,83.9267104 166.963277,94.0680217 150.670521,103.217651 L178.847155,109.94056 C179.38436,110.068737 179.715944,110.608135 179.587767,111.14534 C179.459591,111.682545 178.920192,112.014128 178.382987,111.885952 L148.101203,104.660756 C135.046861,111.994186 123.186404,118.675692 112.519979,124.705186 C112.425529,124.787184 112.316344,124.847239 112.199917,124.886116 C100.139932,131.70388 89.6132281,137.684383 80.6200223,142.827497 L106.833213,152.40034 C107.351987,152.589792 107.618955,153.163922 107.429503,153.682696 C107.240051,154.20147 106.66592,154.468438 106.147147,154.278986 L78.4735497,144.172815 C78.4334076,144.158155 78.3947731,144.141192 78.3577411,144.12213 C64.2878892,152.17938 54.1992515,158.062628 48.0927331,161.771343 C47.6206877,162.058034 47.0056105,161.907774 46.7189198,161.435729 C46.4322291,160.963683 46.5824889,160.348606 47.0545343,160.061915 C57.2599898,153.863764 78.5426306,141.617201 110.90666,123.31975 Z" id="Shape" fill="#FFFFFF" fill-rule="nonzero"></path>
                <path d="M50.2925002,192.93029 C1.39886056,110.154107 19.4325579,45.8440106 104.393592,5.68434189e-14 C128.598038,35.3338181 138.293299,71.5170271 133.479377,108.549627 C128.665455,145.582227 100.936496,173.709114 50.2925002,192.93029 Z" id="Shape" fill="url(#linearGradient-4)"></path>
                <path d="M71.4174312,113.068298 L51.0322176,88.0501669 C50.1899853,87.0165217 51.7404532,85.7531732 52.5826855,86.7868184 L72.0733233,110.707065 C79.5385941,83.8429829 88.9465331,50.3627908 100.297634,10.2645827 C100.448065,9.73317982 101.0008,9.42434098 101.532203,9.57477183 C102.063606,9.72520267 102.372445,10.2779381 102.222014,10.809341 C96.0052518,32.7702963 90.3713544,52.7461701 85.3204025,70.7366492 L109.99809,55.5665848 C110.468586,55.2773579 111.084463,55.4243053 111.37369,55.8948011 C111.662917,56.3652968 111.515969,56.9811737 111.045474,57.2704006 L84.5240498,73.5738611 C80.4787456,87.9902222 76.8166666,101.101395 73.537856,112.907212 C73.5290457,113.031934 73.4943191,113.151562 73.4395101,113.261343 C69.7326936,126.609949 66.518039,138.282324 63.7956093,148.278225 L89.1001411,136.51173 C89.6009325,136.278864 90.1956791,136.496061 90.4285449,136.996852 C90.6614106,137.497643 90.444214,138.09239 89.9434227,138.325256 L63.2290923,150.747301 C63.1903464,150.765318 63.151038,150.78064 63.1113783,150.793346 C58.8598251,166.439575 55.8861651,177.733407 54.1906615,184.673826 C54.0595959,185.210334 53.518421,185.539009 52.9819135,185.407944 C52.4454061,185.276878 52.1167305,184.735703 52.2477961,184.199196 C55.0813881,172.600095 61.4708588,148.89137 71.4174312,113.068298 L71.4174312,113.068298 Z" id="Shape" fill="#FFFFFF" fill-rule="nonzero"></path>
                <path d="M-2.27373675e-13,227.324394 C47.2394574,143.593169 111.950484,127.05576 194.133079,177.712169 C175.635317,216.340743 149.14737,242.82869 114.669237,257.176011 C80.1911033,271.523332 41.9680244,261.572793 -2.27373675e-13,227.324394 Z" id="Shape" fill="url(#linearGradient-5)" fill-rule="nonzero"></path>
                <path d="M79.7249871,205.688105 L91.1987099,175.524946 C91.6727567,174.278729 93.5420825,174.9898 93.0680357,176.236017 L82.097821,205.075508 C109.095432,198.108582 142.794094,189.516001 183.195706,179.29724 C183.731129,179.161816 184.274959,179.486079 184.410384,180.021503 C184.545808,180.556927 184.221545,181.100757 183.686121,181.236181 C161.558988,186.832787 141.442419,191.941627 123.336727,196.562615 L148.813254,210.349099 C149.298979,210.611947 149.479657,211.218786 149.21681,211.704511 C148.953962,212.190237 148.347123,212.370915 147.861397,212.108067 L120.481453,197.291559 C105.973905,200.996393 92.78829,204.380518 80.9247726,207.443887 C80.8123068,207.498654 80.6912845,207.528407 80.5687493,207.535824 C67.1551379,210.999923 55.4392605,214.052132 45.4213591,216.692384 L68.2637271,232.723517 C68.7157905,233.040782 68.825066,233.664446 68.5078008,234.116509 C68.1905357,234.568573 67.5668717,234.677848 67.1148084,234.360583 L42.9998362,217.436317 C42.9648547,217.411766 42.9319258,217.385381 42.9010882,217.357383 C27.2252857,221.498542 15.9577136,224.570192 9.09938382,226.572052 C8.56922192,226.7268 8.01399309,226.422467 7.85924551,225.892305 C7.70449794,225.362143 8.00883137,224.806914 8.53899326,224.652166 C20.0009063,221.306578 43.728004,214.985659 79.7249871,205.688105 Z" id="Shape" fill="#FFFFFF" fill-rule="nonzero"></path>
            </g>
            <path d="M1102.15379,857.153791 C1102.15379,754.915477 1102.15379,625.658839 1102.15379,558.890277 C1019.28674,558.890277 952.109723,625.658839 952.109723,708.022034 C952.109723,790.385229 1019.28674,857.153791 1102.15379,857.153791 Z" id="Shape" fill="#4BC4FC" transform="translate(1027.131757, 708.022034) rotate(-270.000000) translate(-1027.131757, -708.022034) "></path>
            <path d="M1025.81761,575.579399 C1025.81761,578.01417 1023.84372,579.987942 1021.40881,579.987942 C1018.97389,579.987942 1017,578.01417 1017,575.579399 C1017,573.144628 1018.97389,571.170856 1021.40881,571.170856 C1023.84372,571.170856 1025.81761,573.144628 1025.81761,575.579399 Z M1025.81761,557.945228 C1025.81761,560.379999 1023.84372,562.353771 1021.40881,562.353771 C1018.97389,562.353771 1017,560.379999 1017,557.945228 C1017,555.510457 1018.97389,553.536685 1021.40881,553.536685 C1023.84372,553.536685 1025.81761,555.510457 1025.81761,557.945228 Z M1025.81761,540.311057 C1025.81761,542.745828 1023.84372,544.719599 1021.40881,544.719599 C1018.97389,544.719599 1017,542.745828 1017,540.311057 C1017,537.876286 1018.97389,535.902514 1021.40881,535.902514 C1023.84372,535.902514 1025.81761,537.876286 1025.81761,540.311057 Z M1025.81761,522.676885 C1025.81761,525.111656 1023.84372,527.085428 1021.40881,527.085428 C1018.97389,527.085428 1017,525.111656 1017,522.676885 C1017,520.242114 1018.97389,518.268343 1021.40881,518.268343 C1023.84372,518.268343 1025.81761,520.242114 1025.81761,522.676885 Z M1025.81761,505.042714 C1025.81761,507.477485 1023.84372,509.451257 1021.40881,509.451257 C1018.97389,509.451257 1017,507.477485 1017,505.042714 C1017,502.607943 1018.97389,500.634171 1021.40881,500.634171 C1023.84372,500.634171 1025.81761,502.607943 1025.81761,505.042714 Z M1025.81761,487.408543 C1025.81761,489.843314 1023.84372,491.817086 1021.40881,491.817086 C1018.97389,491.817086 1017,489.843314 1017,487.408543 C1017,484.973772 1018.97389,483 1021.40881,483 C1023.84372,483 1025.81761,484.973772 1025.81761,487.408543 Z M1043.45284,575.579399 C1043.45284,578.01417 1041.47895,579.987942 1039.04404,579.987942 C1036.60912,579.987942 1034.63523,578.01417 1034.63523,575.579399 C1034.63523,573.144628 1036.60912,571.170856 1039.04404,571.170856 C1041.47895,571.170856 1043.45284,573.144628 1043.45284,575.579399 Z M1043.45284,557.945228 C1043.45284,560.379999 1041.47895,562.353771 1039.04404,562.353771 C1036.60912,562.353771 1034.63523,560.379999 1034.63523,557.945228 C1034.63523,555.510457 1036.60912,553.536685 1039.04404,553.536685 C1041.47895,553.536685 1043.45284,555.510457 1043.45284,557.945228 Z M1043.45284,540.311057 C1043.45284,542.745828 1041.47895,544.719599 1039.04404,544.719599 C1036.60912,544.719599 1034.63523,542.745828 1034.63523,540.311057 C1034.63523,537.876286 1036.60912,535.902514 1039.04404,535.902514 C1041.47895,535.902514 1043.45284,537.876286 1043.45284,540.311057 Z M1043.45284,522.676885 C1043.45284,525.111656 1041.47895,527.085428 1039.04404,527.085428 C1036.60912,527.085428 1034.63523,525.111656 1034.63523,522.676885 C1034.63523,520.242114 1036.60912,518.268343 1039.04404,518.268343 C1041.47895,518.268343 1043.45284,520.242114 1043.45284,522.676885 Z M1043.45284,505.042714 C1043.45284,507.477485 1041.47895,509.451257 1039.04404,509.451257 C1036.60912,509.451257 1034.63523,507.477485 1034.63523,505.042714 C1034.63523,502.607943 1036.60912,500.634171 1039.04404,500.634171 C1041.47895,500.634171 1043.45284,502.607943 1043.45284,505.042714 Z M1043.45284,487.408543 C1043.45284,489.843314 1041.47895,491.817086 1039.04404,491.817086 C1036.60912,491.817086 1034.63523,489.843314 1034.63523,487.408543 C1034.63523,484.973772 1036.60912,483 1039.04404,483 C1041.47895,483 1043.45284,484.973772 1043.45284,487.408543 Z M1061.08807,575.579399 C1061.08807,578.01417 1059.11418,579.987942 1056.67927,579.987942 C1054.24435,579.987942 1052.27046,578.01417 1052.27046,575.579399 C1052.27046,573.144628 1054.24435,571.170856 1056.67927,571.170856 C1059.11418,571.170856 1061.08807,573.144628 1061.08807,575.579399 Z M1061.08807,557.945228 C1061.08807,560.379999 1059.11418,562.353771 1056.67927,562.353771 C1054.24435,562.353771 1052.27046,560.379999 1052.27046,557.945228 C1052.27046,555.510457 1054.24435,553.536685 1056.67927,553.536685 C1059.11418,553.536685 1061.08807,555.510457 1061.08807,557.945228 Z M1061.08807,540.311057 C1061.08807,542.745828 1059.11418,544.719599 1056.67927,544.719599 C1054.24435,544.719599 1052.27046,542.745828 1052.27046,540.311057 C1052.27046,537.876286 1054.24435,535.902514 1056.67927,535.902514 C1059.11418,535.902514 1061.08807,537.876286 1061.08807,540.311057 Z M1061.08807,522.676885 C1061.08807,525.111656 1059.11418,527.085428 1056.67927,527.085428 C1054.24435,527.085428 1052.27046,525.111656 1052.27046,522.676885 C1052.27046,520.242114 1054.24435,518.268343 1056.67927,518.268343 C1059.11418,518.268343 1061.08807,520.242114 1061.08807,522.676885 Z M1061.08807,505.042714 C1061.08807,507.477485 1059.11418,509.451257 1056.67927,509.451257 C1054.24435,509.451257 1052.27046,507.477485 1052.27046,505.042714 C1052.27046,502.607943 1054.24435,500.634171 1056.67927,500.634171 C1059.11418,500.634171 1061.08807,502.607943 1061.08807,505.042714 Z M1061.08807,487.408543 C1061.08807,489.843314 1059.11418,491.817086 1056.67927,491.817086 C1054.24435,491.817086 1052.27046,489.843314 1052.27046,487.408543 C1052.27046,484.973772 1054.24435,483 1056.67927,483 C1059.11418,483 1061.08807,484.973772 1061.08807,487.408543 Z M1078.7233,575.579399 C1078.7233,578.01417 1076.74941,579.987942 1074.31449,579.987942 C1071.87958,579.987942 1069.90569,578.01417 1069.90569,575.579399 C1069.90569,573.144628 1071.87958,571.170856 1074.31449,571.170856 C1076.74941,571.170856 1078.7233,573.144628 1078.7233,575.579399 Z M1078.7233,557.945228 C1078.7233,560.379999 1076.74941,562.353771 1074.31449,562.353771 C1071.87958,562.353771 1069.90569,560.379999 1069.90569,557.945228 C1069.90569,555.510457 1071.87958,553.536685 1074.31449,553.536685 C1076.74941,553.536685 1078.7233,555.510457 1078.7233,557.945228 Z M1078.7233,540.311057 C1078.7233,542.745828 1076.74941,544.719599 1074.31449,544.719599 C1071.87958,544.719599 1069.90569,542.745828 1069.90569,540.311057 C1069.90569,537.876286 1071.87958,535.902514 1074.31449,535.902514 C1076.74941,535.902514 1078.7233,537.876286 1078.7233,540.311057 Z M1078.7233,522.676885 C1078.7233,525.111656 1076.74941,527.085428 1074.31449,527.085428 C1071.87958,527.085428 1069.90569,525.111656 1069.90569,522.676885 C1069.90569,520.242114 1071.87958,518.268343 1074.31449,518.268343 C1076.74941,518.268343 1078.7233,520.242114 1078.7233,522.676885 Z M1078.7233,505.042714 C1078.7233,507.477485 1076.74941,509.451257 1074.31449,509.451257 C1071.87958,509.451257 1069.90569,507.477485 1069.90569,505.042714 C1069.90569,502.607943 1071.87958,500.634171 1074.31449,500.634171 C1076.74941,500.634171 1078.7233,502.607943 1078.7233,505.042714 Z M1078.7233,487.408543 C1078.7233,489.843314 1076.74941,491.817086 1074.31449,491.817086 C1071.87958,491.817086 1069.90569,489.843314 1069.90569,487.408543 C1069.90569,484.973772 1071.87958,483 1074.31449,483 C1076.74941,483 1078.7233,484.973772 1078.7233,487.408543 Z M1096.35853,575.579399 C1096.35853,578.01417 1094.38464,579.987942 1091.94972,579.987942 C1089.51481,579.987942 1087.54092,578.01417 1087.54092,575.579399 C1087.54092,573.144628 1089.51481,571.170856 1091.94972,571.170856 C1094.38464,571.170856 1096.35853,573.144628 1096.35853,575.579399 Z M1096.35853,557.945228 C1096.35853,560.379999 1094.38464,562.353771 1091.94972,562.353771 C1089.51481,562.353771 1087.54092,560.379999 1087.54092,557.945228 C1087.54092,555.510457 1089.51481,553.536685 1091.94972,553.536685 C1094.38464,553.536685 1096.35853,555.510457 1096.35853,557.945228 Z M1096.35853,540.311057 C1096.35853,542.745828 1094.38464,544.719599 1091.94972,544.719599 C1089.51481,544.719599 1087.54092,542.745828 1087.54092,540.311057 C1087.54092,537.876286 1089.51481,535.902514 1091.94972,535.902514 C1094.38464,535.902514 1096.35853,537.876286 1096.35853,540.311057 Z M1096.35853,522.676885 C1096.35853,525.111656 1094.38464,527.085428 1091.94972,527.085428 C1089.51481,527.085428 1087.54092,525.111656 1087.54092,522.676885 C1087.54092,520.242114 1089.51481,518.268343 1091.94972,518.268343 C1094.38464,518.268343 1096.35853,520.242114 1096.35853,522.676885 Z M1096.35853,505.042714 C1096.35853,507.477485 1094.38464,509.451257 1091.94972,509.451257 C1089.51481,509.451257 1087.54092,507.477485 1087.54092,505.042714 C1087.54092,502.607943 1089.51481,500.634171 1091.94972,500.634171 C1094.38464,500.634171 1096.35853,502.607943 1096.35853,505.042714 Z M1096.35853,487.408543 C1096.35853,489.843314 1094.38464,491.817086 1091.94972,491.817086 C1089.51481,491.817086 1087.54092,489.843314 1087.54092,487.408543 C1087.54092,484.973772 1089.51481,483 1091.94972,483 C1094.38464,483 1096.35853,484.973772 1096.35853,487.408543 Z M1113.99376,575.579399 C1113.99376,578.01417 1112.01987,579.987942 1109.58495,579.987942 C1107.15004,579.987942 1105.17615,578.01417 1105.17615,575.579399 C1105.17615,573.144628 1107.15004,571.170856 1109.58495,571.170856 C1112.01987,571.170856 1113.99376,573.144628 1113.99376,575.579399 Z M1113.99376,557.945228 C1113.99376,560.379999 1112.01987,562.353771 1109.58495,562.353771 C1107.15004,562.353771 1105.17615,560.379999 1105.17615,557.945228 C1105.17615,555.510457 1107.15004,553.536685 1109.58495,553.536685 C1112.01987,553.536685 1113.99376,555.510457 1113.99376,557.945228 Z M1113.99376,540.311057 C1113.99376,542.745828 1112.01987,544.719599 1109.58495,544.719599 C1107.15004,544.719599 1105.17615,542.745828 1105.17615,540.311057 C1105.17615,537.876286 1107.15004,535.902514 1109.58495,535.902514 C1112.01987,535.902514 1113.99376,537.876286 1113.99376,540.311057 Z M1113.99376,522.676885 C1113.99376,525.111656 1112.01987,527.085428 1109.58495,527.085428 C1107.15004,527.085428 1105.17615,525.111656 1105.17615,522.676885 C1105.17615,520.242114 1107.15004,518.268343 1109.58495,518.268343 C1112.01987,518.268343 1113.99376,520.242114 1113.99376,522.676885 Z M1113.99376,505.042714 C1113.99376,507.477485 1112.01987,509.451257 1109.58495,509.451257 C1107.15004,509.451257 1105.17615,507.477485 1105.17615,505.042714 C1105.17615,502.607943 1107.15004,500.634171 1109.58495,500.634171 C1112.01987,500.634171 1113.99376,502.607943 1113.99376,505.042714 Z M1113.99376,487.408543 C1113.99376,489.843314 1112.01987,491.817086 1109.58495,491.817086 C1107.15004,491.817086 1105.17615,489.843314 1105.17615,487.408543 C1105.17615,484.973772 1107.15004,483 1109.58495,483 C1112.01987,483 1113.99376,484.973772 1113.99376,487.408543 Z" id="Shape" fill="#CDCBDF"></path>
        </g>
        <g id="Laptop" transform="translate(102.000000, 269.000000)">
            <path d="M0,616 L1000,616 C1000,634.777681 984.777681,650 966,650 L34,650 C15.2223185,650 2.29960275e-15,634.777681 0,616 Z" id="Shape" fill="#1056BF"></path>
            <path d="M70,0 L930,0 C941.045695,-2.02906125e-15 950,8.954305 950,20 L950,600 L50,600 L50,20 C50,8.954305 58.954305,2.02906125e-15 70,0 Z" id="Shape" fill="url(#linearGradient-6)"></path>
            <path d="M92,39.918975 L906,39.918975 C908.209139,39.918975 910,41.709836 910,43.918975 L910,97.5366851 C910,99.7458241 908.209139,101.536685 906,101.536685 L92,101.536685 C89.790861,101.536685 88,99.7458241 88,97.5366851 L88,43.918975 C88,41.709836 89.790861,39.918975 92,39.918975 Z" id="Shape" fill="#FEF3F4"></path>
            <path d="M123,86 C114.715729,86 108,79.2842712 108,71 C108,62.7157288 114.715729,56 123,56 C131.284271,56 138,62.7157288 138,71 C138,79.2842712 131.284271,86 123,86 Z M183,86 C174.715729,86 168,79.2842712 168,71 C168,62.7157288 174.715729,56 183,56 C191.284271,56 198,62.7157288 198,71 C198,79.2842712 191.284271,86 183,86 Z M243,86 C234.715729,86 228,79.2842712 228,71 C228,62.7157288 234.715729,56 243,56 C251.284271,56 258,62.7157288 258,71 C258,79.2842712 251.284271,86 243,86 Z" id="Combined-Shape" fill="#00ADFF"></path>
            <path d="M92,119.918975 L906,119.918975 C908.209139,119.918975 910,121.709836 910,123.918975 L910,585 C910,587.209139 908.209139,589 906,589 L92,589 C89.790861,589 88,587.209139 88,585 L88,123.918975 C88,121.709836 89.790861,119.918975 92,119.918975 Z" id="Shape" fill="#FFFFFF"></path>
            <path d="M538,372.677994 L869,372.677994 L869,530 L538,530 L538,372.677994 Z M538,160 L869,160 L869,311 L538,311 L538,160 Z M128,160 L498,160 L498,311 L128,311 L128,160 Z" id="Combined-Shape" fill="url(#linearGradient-7)"></path>
            <path d="M609,278 C585.804041,278 567,259.195959 567,236 C567,212.804041 585.804041,194 609,194 C632.195959,194 651,212.804041 651,236 C651,259.195959 632.195959,278 609,278 Z M691,194 L785,194 L785,212 L691,212 L691,194 Z M691,260 L785,260 L785,278 L691,278 L691,260 Z M691,227 L785,227 L785,245 L691,245 L691,227 Z" id="Shape" fill="#FFFFFF"></path>
            <path d="M691,405.677994 L785,405.677994 L785,423.677994 L691,423.677994 L691,405.677994 Z M691,471.677994 L785,471.677994 L785,489.677994 L691,489.677994 L691,471.677994 Z M691,438.677994 L785,438.677994 L785,456.677994 L691,456.677994 L691,438.677994 Z M609,490 C585.804041,490 567,471.195959 567,448 C567,424.804041 585.804041,406 609,406 C632.195959,406 651,424.804041 651,448 C651,471.195959 632.195959,490 609,490 Z" id="Shape" fill="#FFFFFF"></path>
            <path d="M616.503536,226.279213 C618.006185,224.659849 620.537077,224.565233 622.156441,226.067882 C623.775805,227.570531 623.870421,230.101423 622.367772,231.720787 L610.304741,244.720787 C608.923804,246.208985 606.647032,246.426651 605.009135,245.227062 L596.636513,239.094986 C594.854256,237.789668 594.46762,235.286694 595.772938,233.504437 C597.078256,231.72218 599.58123,231.335545 601.363487,232.640863 L606.862929,236.668632 L616.503536,226.279213 Z" id="Shape" fill="#00ADFF" fill-rule="nonzero"></path>
            <path d="M598.69261,616 C595.356524,625.883663 586.009317,633 575,633 L426,633 C414.990683,633 405.643476,625.883663 402.30739,616 L0,616 L0,600 L1000,600 L1000,616 L598.69261,616 L598.69261,616 Z" id="Shape" fill="#1E1539"></path>
        </g>
        <g id="Package" transform="translate(305.000000, 499.000000)">
            <polygon id="Shape" fill="url(#linearGradient-8)" points="284 0 284 205 40 205 40 0"></polygon>
            <polygon id="Shape" fill="#00ADFF" points="185 0 185 205 0 205 0 0"></polygon>
            <polygon id="Shape" fill="#FFFFFF" points="108 0 108 66 74 66 74 0"></polygon>
        </g>
        <g id="Package" transform="translate(193.000000, 648.000000)">
            <polygon id="Shape" fill="#D64F53" points="327 0 327 221 43 221 43 0"></polygon>
            <polygon id="Shape" fill="url(#linearGradient-9)" points="220 0 220 221 -5.68434189e-14 221 -5.68434189e-14 0"></polygon>
            <polygon id="Shape" fill="#FFFFFF" points="117 0 117 71 81 71 81 0"></polygon>
        </g>
        <g id="Package" transform="translate(998.000000, 447.000000)">
            <polygon id="Shape" fill="url(#linearGradient-10)" points="229 0 229 165 31.9753086 165 31.9753086 0"></polygon>
            <polygon id="Shape" fill="#00ADFF" points="149.061728 0 149.061728 165 0 165 0 0"></polygon>
            <polygon id="Shape" fill="#FFFFFF" points="87.117284 -3.41060513e-13 87.117284 52.8640777 59.9382716 52.8640777 59.9382716 -3.41060513e-13"></polygon>
        </g>
        <g id="Women" transform="translate(1130.262232, 342.202723)">
            <polygon id="Shape" fill="#211D41" points="96.7377684 171.211955 120.302852 107.007346 127.03159 95.9465394 120.302852 192.632023 96.7377684 211.46774"></polygon>
            <polygon id="Shape" fill="#F4B696" points="157.365675 534.797277 157.365675 556.412184 135.737768 556.412184 135.737768 534.797277"></polygon>
            <path d="M158.202885,554.797277 L158.202885,559.28771 C158.202885,562.926548 158.202885,566.565387 158.202885,570.204226 C158.202885,572.855192 156.053852,575.004226 153.402885,575.004226 L110.79626,575.004226 C109.107102,575.004226 107.737768,573.328863 107.737768,571.262198 C107.737768,563.217084 113.845013,562.168873 121.096182,559.600589 L135.486289,554.797277 L158.202885,554.797277 Z" id="Shape" fill="#021038"></path>
            <polygon id="Shape" fill="#F4B696" points="223.539742 534.797277 223.539742 556.412184 201.911835 556.412184 201.911835 534.797277"></polygon>
            <polygon id="Shape" fill="#211D41" points="131.911797 547.974503 121.737768 260.549787 192.589416 258.797277 160.040429 547.974503"></polygon>
            <path d="M224.376951,554.797277 L224.376951,559.28771 C224.376951,562.926548 224.376951,566.565387 224.376951,570.204226 C224.376951,572.855192 222.227918,575.004226 219.576951,575.004226 L176.970327,575.004226 C175.281168,575.004226 173.911835,573.328863 173.911835,571.262198 C173.911835,563.217084 180.019079,562.168873 187.270248,559.600589 L201.660355,554.797277 L224.376951,554.797277 Z" id="Shape" fill="#021038"></path>
            <polygon id="Shape" fill="url(#linearGradient-11)" points="198.085863 547.974503 145.737768 260.549787 216.589416 258.797277 226.214496 547.974503"></polygon>
            <path d="M148.420237,82.8548051 L161.392095,81.7199145 C184.499786,79.6982535 204.871152,96.7918588 206.892813,119.899551 C206.897088,119.948412 206.901277,119.997281 206.905381,120.046156 L218.78964,261.59369 L121.551479,270.100927 L114.467635,165.131982 C114.467635,165.131982 106.721683,149.076395 108.845662,133.510714 C110.443067,121.804055 123.607788,85.0256131 148.420237,82.8548051 Z" id="Shape" fill="url(#linearGradient-12)"></path>
            <path d="M134.363309,91.1328337 C130.641947,79.4982895 126.662468,73.3615757 122.424872,72.7226922 C116.068479,71.7643671 112.072408,71.4862824 111.313146,65.238471 C110.553884,58.9906596 108.4161,57.3559869 105.607922,56.7809744 C102.799744,56.2059618 99.8250534,52.8583838 105.958977,46.9489065 C110.048259,43.0092549 111.142113,35.7259169 109.240539,25.0988923 C132.957447,10.2243805 148.478999,11.4920781 155.805196,28.9019849 C163.131393,46.3118918 162.176592,60.8735088 158.058775,72.7226922 L160.827775,83.8285449 C158.981775,90.3095244 154.663347,95.0374449 147.87249,98.0123064 C141.081634,100.987168 136.578573,98.6940103 134.363309,91.1328337 Z" id="Shape" fill="#F4B696"></path>
            <polygon id="Shape" fill="#221E41" points="115.614917 189.372331 117.654966 175.141743 143.225272 136.345378 188.119982 142.580397 121.581523 270.119573"></polygon>
            <path d="M139.589094,142.238251 L172.640483,162.314629 L154.421362,190.531932 C149.631567,197.950243 141.155048,202.139155 132.352687,201.437794 C100.475561,198.897866 68.378168,197.164097 36.0605075,196.236487 C33.6198131,197.809526 29.5568047,198.837257 23.8714823,199.319681 C9.68419289,198.98114 1.80721447,195.687198 0.240547078,189.437857 C-1.32612031,183.188515 4.759914,179.705942 18.49865,178.990135 L18.0176597,176.212627 C17.9930822,176.070703 17.9757362,175.927621 17.9656887,175.783935 C17.8019696,173.442643 19.5672415,171.41193 21.9085339,171.248211 L24.9122858,177.884761 C28.6967929,179.662625 33.1073214,180.375462 38.1438711,180.023273 C58.740792,178.888788 88.807697,175.765054 128.344586,170.65207 L139.589094,142.238251 Z" id="Shape" fill="#F4B696"></path>
            <path d="M144.304057,126.581695 L189.081807,141.729741 L154.519654,191.288267 C149.642134,198.282122 141.420067,202.162967 132.920536,201.483127 C100.856751,198.918485 68.5700749,197.169605 36.0605075,196.236487 C36.0605075,196.236487 38.1438711,180.023273 38.1438711,180.023273 C58.740792,178.888788 88.807697,175.765054 128.344586,170.65207 L144.304057,126.581695 Z" id="Shape" fill="url(#linearGradient-13)"></path>
            <path d="M213.113313,541.613012 L212.118448,541.714217 L211.410014,534.750158 L212.404879,534.648953 L213.113313,541.613012 Z M211.392831,524.700297 L210.397965,524.801502 L209.689531,517.837442 L210.684397,517.736238 L211.392831,524.700297 Z M209.672348,507.787582 L208.677483,507.888786 L207.969049,500.924727 L208.963914,500.823522 L209.672348,507.787582 Z M207.951866,490.874866 L206.957,490.976071 L206.248566,484.012012 L207.243432,483.910807 L207.951866,490.874866 Z M206.231383,473.962151 L205.236518,474.063356 L204.528084,467.099296 L205.522949,466.998092 L206.231383,473.962151 Z M204.510901,457.049436 L203.516035,457.15064 L202.807601,450.186581 L203.802467,450.085376 L204.510901,457.049436 Z M202.790418,440.13672 L201.795552,440.237925 L201.087118,433.273866 L202.081984,433.172661 L202.790418,440.13672 Z M201.069936,423.224005 L200.07507,423.32521 L199.366636,416.36115 L200.361502,416.259946 L201.069936,423.224005 Z M199.349453,406.31129 L198.354587,406.412494 L197.646153,399.448435 L198.641019,399.34723 L199.349453,406.31129 Z M197.62897,389.398574 L196.634105,389.499779 L195.925671,382.53572 L196.920537,382.434515 L197.62897,389.398574 Z M195.908488,372.485859 L194.913622,372.587064 L194.205188,365.623004 L195.200054,365.5218 L195.908488,372.485859 Z M194.188005,355.573144 L193.19314,355.674348 L192.484706,348.710289 L193.479571,348.609084 L194.188005,355.573144 Z M192.467523,338.660428 L191.472657,338.761633 L190.764223,331.797574 L191.759089,331.696369 L192.467523,338.660428 Z M190.74704,321.747713 L189.752175,321.848918 L189.043741,314.884858 L190.038606,314.783654 L190.74704,321.747713 Z M189.026558,304.834998 L188.031692,304.936202 L187.323258,297.972143 L188.318124,297.870938 L189.026558,304.834998 Z M187.306075,287.922282 L186.31121,288.023487 L185.602776,281.059428 L186.597641,280.958223 L187.306075,287.922282 Z M185.453135,269.707477 L186.029111,275.369447 L185.034245,275.470651 L184.458269,269.808682 L185.453135,269.707477 Z M185.453135,269.707477 L185.585593,271.009567 L184.590727,271.110772 L184.458269,269.808682 L185.453135,269.707477 Z M186.046294,285.419308 L187.04116,285.318103 L187.749593,292.282162 L186.754728,292.383367 L186.046294,285.419308 Z M187.766776,302.332023 L188.761642,302.230818 L189.470076,309.194877 L188.47521,309.296082 L187.766776,302.332023 Z M189.487259,319.244738 L190.482125,319.143533 L191.190559,326.107593 L190.195693,326.208797 L189.487259,319.244738 Z M191.207741,336.157454 L192.202607,336.056249 L192.911041,343.020308 L191.916175,343.121513 L191.207741,336.157454 Z M192.928224,353.070169 L193.92309,352.968964 L194.631524,359.933023 L193.636658,360.034228 L192.928224,353.070169 Z M194.648707,369.982884 L195.643572,369.881679 L196.352006,376.845739 L195.357141,376.946943 L194.648707,369.982884 Z M196.369189,386.8956 L197.364055,386.794395 L198.072489,393.758454 L197.077623,393.859659 L196.369189,386.8956 Z M198.089672,403.808315 L199.084537,403.70711 L199.792971,410.671169 L198.798106,410.772374 L198.089672,403.808315 Z M199.810154,420.72103 L200.80502,420.619825 L201.513454,427.583885 L200.518588,427.685089 L199.810154,420.72103 Z M201.530637,437.633745 L202.525502,437.532541 L203.233936,444.4966 L202.239071,444.597805 L201.530637,437.633745 Z M203.251119,454.546461 L204.245985,454.445256 L204.954419,461.409315 L203.959553,461.51052 L203.251119,454.546461 Z M204.971602,471.459176 L205.966467,471.357971 L206.674901,478.322031 L205.680036,478.423235 L204.971602,471.459176 Z M206.692084,488.371891 L207.68695,488.270687 L208.395384,495.234746 L207.400518,495.335951 L206.692084,488.371891 Z M208.412567,505.284607 L209.407432,505.183402 L210.115866,512.147461 L209.121001,512.248666 L208.412567,505.284607 Z M210.133049,522.197322 L211.127915,522.096117 L211.836349,529.060177 L210.841483,529.161381 L210.133049,522.197322 Z M211.853532,539.110037 L212.848397,539.008833 L213.113313,541.613012 L212.118448,541.714217 L211.853532,539.110037 Z" id="Shape" fill="#A587FF" fill-rule="nonzero"></path>
            <path d="M108.423242,9.67097454 C102.328554,22.9098358 106.773249,30.5245826 121.757328,32.5152148 C144.233446,35.5011632 130.728998,63.6345834 146.735332,70.6803897 C162.741665,77.7261961 143.284925,96.657887 172.737768,96.657887 C192.372998,96.657887 204.039664,107.125151 207.737768,128.059678 C207.117629,99.8945244 200.126507,80.768095 186.764403,70.6803897 C166.721248,55.5488319 176.727564,19.4628658 163.051442,9.67097454 C149.37532,-0.120916675 134.744008,3.57948074e-05 124.737768,3.57948083e-05 C118.066942,3.57948089e-05 112.628767,3.22368204 108.423242,9.67097454 Z" id="Shape" fill="url(#linearGradient-14)"></path>
        </g>
        <g id="Men" transform="translate(848.523273, 346.766078)">
            <polygon id="Shape" fill="#F4B696" points="68.8488201 531.233922 90.4767271 531.233922 90.4767271 552.848828 68.8488201 552.848828"></polygon>
            <path d="M68.0116108,551.233922 L90.7282065,551.233922 L105.118314,556.037234 C112.369482,558.605518 118.476727,559.653729 118.476727,567.698843 C118.476727,569.765508 117.107394,571.44087 115.418235,571.44087 L72.8116108,571.44087 C70.160644,571.44087 68.0116108,569.291837 68.0116108,566.64087 L68.0116108,551.233922 Z" id="Shape" fill="#021038"></path>
            <polygon id="Shape" fill="#F4B696" points="2.67475385 531.233922 24.3026608 531.233922 24.3026608 552.848828 2.67475385 552.848828"></polygon>
            <polygon id="Shape" fill="#211D41" points="94.3026986 544.411148 66.1740662 544.411148 33.6250798 255.233922 104.476727 256.986432"></polygon>
            <path d="M149.476727,149.944629 L149.476727,175.750209 C140.42344,176.580818 131.54059,177.532943 122.828175,178.606584 C114.386716,179.646836 106.025187,176.141597 100.84902,169.392698 L76.8185751,138.06082 L113.458746,104.233922 L125.748809,146.994401 C134.071343,148.071171 141.980649,149.05458 149.476727,149.944629 Z" id="Shape" fill="#211D41"></path>
            <path d="M1.83754455,551.233922 L24.5541403,551.233922 L38.9442477,556.037234 C46.1954161,558.605518 52.3026608,559.653729 52.3026608,567.698843 C52.3026608,569.765508 50.9333274,571.44087 49.2441689,571.44087 L6.63754455,571.44087 C3.98657775,571.44087 1.83754455,569.291837 1.83754455,566.64087 L1.83754455,551.233922 Z" id="Shape" fill="#021038"></path>
            <polygon id="Shape" fill="url(#linearGradient-11)" points="28.1286324 544.411148 1.98951966e-13 544.411148 9.62507976 255.233922 80.4767271 256.986432"></polygon>
            <path d="M77.7942589,79.2914499 C105.980449,81.757422 118.652893,99.2285193 115.811592,131.704742 L104.663016,266.537572 L7.42485525,258.030335 L19.3091148,116.482801 C19.3132184,116.433925 19.3174076,116.385057 19.3216824,116.336196 C21.3433435,93.2285037 41.7147091,76.1348983 64.8224009,78.1565594 C69.1463536,78.5348562 73.4703062,78.9131531 77.7942589,79.2914499 Z" id="Shape" fill="url(#linearGradient-15)"></path>
            <path d="M190.915908,215.529966 C185.794409,215.888816 179.19658,212.801635 175.755521,212.532592 C164.248978,211.632942 140.761328,210.044649 105.29257,207.767715 C99.3986861,207.308661 91.2157656,204.65774 86.7155849,201.1227 L55.9121839,176.925613 L80.626657,147.182545 L107.584804,177.996148 C137.077396,187.625838 162.590446,189.737177 178.631415,192.952589 C182.631297,190.861575 185.821432,189.352825 188.201819,188.426338 C191.7724,187.036608 196.009825,188.886607 198.01276,189.863503 C201.528381,191.578186 199.231937,192.617859 191.123429,192.982521 C196.251934,193.172229 199.782505,193.307473 201.715141,193.388256 C204.614096,193.509429 207.767259,197.969041 205.855776,205.789964 C204.581454,211.003914 199.601498,214.250581 190.915908,215.529966 Z" id="Shape" fill="#F4B696"></path>
            <path d="M91.8511863,87.5694786 C89.6359223,95.1306552 85.1328619,97.4238127 78.3420053,94.4489513 C71.5511487,91.4740898 67.2327204,86.7461693 65.3867204,80.2651897 L68.1557204,69.1593371 C64.0379039,57.3101537 63.0831023,42.7485367 70.4092992,25.3386298 C77.7354961,7.92872294 93.2570486,6.66102538 116.973957,21.5355371 C115.072382,32.1625617 116.166236,39.4458998 120.255519,43.3855513 C126.389442,49.2950286 123.414752,52.6426067 120.606573,53.2176193 C117.798395,53.7926318 115.660611,55.4273044 114.901349,61.6751158 C114.142087,67.9229272 110.146016,68.2010119 103.789623,69.1593371 C99.5520277,69.7982206 95.5725487,75.9349344 91.8511863,87.5694786 Z" id="Shape" fill="#F4B696"></path>
            <path d="M65.2633337,68.8957955 C62.757402,67.6376587 61.4283262,65.8475339 61.2761063,63.5254211 C61.0477765,60.0422518 63.2051529,58.6646748 57.2178342,50.9209329 C51.2305155,43.177191 46.8105436,33.3108342 52.8012491,17.581687 C58.7919546,1.85253976 68.6414855,1.55810245 78.4129287,1.75397943 C88.1843718,1.9498564 91.9962788,3.49359408 105.765341,0.545429632 C119.534403,-2.40273481 125.31694,6.96401334 121.010527,19.8767971 C116.704113,32.7895809 96.7505528,30.177365 93.2885183,29.3141829 C89.8264839,28.4510008 91.0038238,33.9147386 90.7791154,39.3788485 C90.5544069,44.8429583 86.9585947,45.6464683 85.7717048,44.7435718 C84.5848149,43.8406754 81.9848544,42.656995 79.2122078,45.3840434 C76.4395612,48.1110918 78.3247653,53.1277393 80.2265882,53.6019171 C82.1284112,54.0760948 84.7574026,53.7922582 84.6111593,55.9999954 C84.4649161,58.2077326 82.5720435,64.8466122 79.9292984,68.1761842 C78.1674683,70.3958989 73.2788134,70.6357693 65.2633337,68.8957955 Z" id="Shape" fill="url(#linearGradient-16)"></path>
            <path d="M91.1510991,155.916815 L56.7083055,186.624616 C31.4576073,160.210205 23.7033634,141.49584 33.4455737,130.481523 C48.0588891,113.960047 60.6064073,121.891966 69.726905,131.456313 C75.8072369,137.832545 82.9486349,145.986045 91.1510991,155.916815 Z" id="Shape" fill="url(#linearGradient-17)"></path>
            <path d="M15.2314821,537.256211 L14.2375713,537.146023 L15.0088834,530.188648 L16.0027942,530.298835 L15.2314821,537.256211 Z M17.1046686,520.359727 L16.1107578,520.249539 L16.8820699,513.292164 L17.8759807,513.402351 L17.1046686,520.359727 Z M18.9778551,503.463243 L17.9839443,503.353055 L18.7552564,496.39568 L19.7491672,496.505867 L18.9778551,503.463243 Z M20.8510417,486.566759 L19.8571308,486.456571 L20.6284429,479.499195 L21.6223537,479.609383 L20.8510417,486.566759 Z M22.7242282,469.670275 L21.7303173,469.560087 L22.5016294,462.602711 L23.4955402,462.712899 L22.7242282,469.670275 Z M24.5974147,452.773791 L23.6035038,452.663603 L24.3748159,445.706227 L25.3687267,445.816415 L24.5974147,452.773791 Z M26.4706012,435.877307 L25.4766903,435.767119 L26.2480024,428.809743 L27.2419132,428.919931 L26.4706012,435.877307 Z M28.3437877,418.980823 L27.3498768,418.870635 L28.1211889,411.913259 L29.1150997,412.023447 L28.3437877,418.980823 Z M30.2169742,402.084339 L29.2230633,401.974151 L29.9943754,395.016775 L30.9882862,395.126963 L30.2169742,402.084339 Z M32.0901607,385.187855 L31.0962498,385.077667 L31.8675619,378.120291 L32.8614728,378.230479 L32.0901607,385.187855 Z M33.9633472,368.291371 L32.9694363,368.181183 L33.7407484,361.223807 L34.7346593,361.333995 L33.9633472,368.291371 Z M35.8365337,351.394887 L34.8426228,351.284699 L35.6139349,344.327323 L36.6078458,344.437511 L35.8365337,351.394887 Z M37.7097202,334.498403 L36.7158093,334.388215 L37.4871214,327.430839 L38.4810323,327.541027 L37.7097202,334.498403 Z M39.5829067,317.601918 L38.5889958,317.491731 L39.3603079,310.534355 L40.3542188,310.644543 L39.5829067,317.601918 Z M41.4560932,300.705434 L40.4621823,300.595247 L41.2334944,293.637871 L42.2274053,293.748059 L41.4560932,300.705434 Z M43.7165499,280.315703 L43.3292797,283.80895 L42.3353688,283.698763 L42.722639,280.205515 L43.7165499,280.315703 Z M41.2367227,293.608752 L42.2306335,293.718939 L41.4593215,300.676315 L40.4654106,300.566127 L41.2367227,293.608752 Z M39.3635362,310.505236 L40.357447,310.615423 L39.586135,317.572799 L38.5922241,317.462611 L39.3635362,310.505236 Z M37.4903497,327.40172 L38.4842605,327.511907 L37.7129485,334.469283 L36.7190376,334.359095 L37.4903497,327.40172 Z M35.6171632,344.298204 L36.611074,344.408391 L35.839762,351.365767 L34.8458511,351.255579 L35.6171632,344.298204 Z M33.7439767,361.194688 L34.7378875,361.304875 L33.9665754,368.262251 L32.9726646,368.152063 L33.7439767,361.194688 Z M31.8707902,378.091172 L32.864701,378.201359 L32.0933889,385.158735 L31.0994781,385.048547 L31.8707902,378.091172 Z M29.9976037,394.987656 L30.9915145,395.097843 L30.2202024,402.055219 L29.2262916,401.945031 L29.9976037,394.987656 Z M28.1244172,411.88414 L29.118328,411.994327 L28.3470159,418.951703 L27.3531051,418.841515 L28.1244172,411.88414 Z M26.2512307,428.780624 L27.2451415,428.890811 L26.4738294,435.848187 L25.4799186,435.737999 L26.2512307,428.780624 Z M24.3780442,445.677108 L25.371955,445.787295 L24.6006429,452.744671 L23.6067321,452.634484 L24.3780442,445.677108 Z M22.5048577,462.573592 L23.4987685,462.683779 L22.7274564,469.641155 L21.7335456,469.530968 L22.5048577,462.573592 Z M20.6316712,479.470076 L21.625582,479.580263 L20.8542699,486.537639 L19.8603591,486.427452 L20.6316712,479.470076 Z M18.7584847,496.36656 L19.7523955,496.476747 L18.9810834,503.434123 L17.9871726,503.323936 L18.7584847,496.36656 Z M16.8852982,513.263044 L17.879209,513.373231 L17.1078969,520.330607 L16.1139861,520.22042 L16.8852982,513.263044 Z M15.0121117,530.159528 L16.0060225,530.269715 L15.2347104,537.227091 L14.2407996,537.116904 L15.0121117,530.159528 Z" id="Shape" fill="#A587FF" fill-rule="nonzero"></path>
        </g>
        <g id="Package" transform="translate(520.000000, 704.000000)">
            <polygon id="Shape" fill="url(#linearGradient-18)" points="229 0 229 165 31.9753086 165 31.9753086 0"></polygon>
            <polygon id="Shape" fill="#0737A3" points="149.061728 0 149.061728 165 0 165 0 0"></polygon>
            <polygon id="Shape" fill="#FFFFFF" points="87.117284 -3.41060513e-13 87.117284 52.8640777 59.9382716 52.8640777 59.9382716 -3.41060513e-13"></polygon>
        </g>
    </g>
</svg>