<?xml version="1.0" encoding="UTF-8"?>
<svg width="1440px" height="1024px" viewBox="0 0 1440 1024" version="1.1" xmlns="http://www.w3.org/2000/svg" xmlns:xlink="http://www.w3.org/1999/xlink">
    <!-- Generator: Sketch 53.2 (72643) - https://sketchapp.com -->
    <title>Online payment</title>
    <desc>Created with Sketch.</desc>
    <defs>
        <linearGradient x1="50%" y1="7.26438915%" x2="50%" y2="151.05781%" id="linearGradient-1">
            <stop stop-color="#D0F6FF" offset="0%"></stop>
            <stop stop-color="#8BE2F7" offset="100%"></stop>
        </linearGradient>
        <linearGradient x1="8.38174197%" y1="31.3864763%" x2="56.5702499%" y2="50%" id="linearGradient-2">
            <stop stop-color="#CFE49F" offset="0%"></stop>
            <stop stop-color="#A9D386" offset="100%"></stop>
        </linearGradient>
        <linearGradient x1="34.9800858%" y1="24.563533%" x2="66.6026215%" y2="80.4180658%" id="linearGradient-3">
            <stop stop-color="#6EAE7C" offset="0%"></stop>
            <stop stop-color="#0F575D" offset="100%"></stop>
        </linearGradient>
        <linearGradient x1="34.1151714%" y1="33.9683678%" x2="64.8333502%" y2="52.4070359%" id="linearGradient-4">
            <stop stop-color="#77D791" offset="0%"></stop>
            <stop stop-color="#4FA67E" offset="100%"></stop>
        </linearGradient>
        <linearGradient x1="8.38174197%" y1="45.8490744%" x2="56.5702499%" y2="50%" id="linearGradient-5">
            <stop stop-color="#CFE49F" offset="0%"></stop>
            <stop stop-color="#A9D386" offset="100%"></stop>
        </linearGradient>
        <linearGradient x1="50%" y1="34.0738849%" x2="100%" y2="62.5395359%" id="linearGradient-6">
            <stop stop-color="#0F1752" offset="0%"></stop>
            <stop stop-color="#272884" offset="100%"></stop>
        </linearGradient>
        <linearGradient x1="50%" y1="78.4372142%" x2="50.9350565%" y2="39.295005%" id="linearGradient-7">
            <stop stop-color="#2B3389" offset="0%"></stop>
            <stop stop-color="#444FB7" offset="100%"></stop>
        </linearGradient>
        <linearGradient x1="50%" y1="26.6642183%" x2="100%" y2="68.3735877%" id="linearGradient-8">
            <stop stop-color="#0F1752" offset="0%"></stop>
            <stop stop-color="#272884" offset="100%"></stop>
        </linearGradient>
        <linearGradient x1="50%" y1="7.26438915%" x2="50%" y2="151.05781%" id="linearGradient-9">
            <stop stop-color="#D0F6FF" offset="0%"></stop>
            <stop stop-color="#8BE2F7" offset="100%"></stop>
        </linearGradient>
        <linearGradient x1="50%" y1="0%" x2="50%" y2="100%" id="linearGradient-10">
            <stop stop-color="#FF9485" offset="0%"></stop>
            <stop stop-color="#FF676E" offset="100%"></stop>
        </linearGradient>
        <linearGradient x1="50%" y1="-2.48949813e-15%" x2="50%" y2="100%" id="linearGradient-11">
            <stop stop-color="#4DBCFA" offset="0%"></stop>
            <stop stop-color="#1486DB" offset="100%"></stop>
        </linearGradient>
        <linearGradient x1="50%" y1="49.27956%" x2="100%" y2="50.5672434%" id="linearGradient-12">
            <stop stop-color="#0F1752" offset="0%"></stop>
            <stop stop-color="#272884" offset="100%"></stop>
        </linearGradient>
        <linearGradient x1="34.1151714%" y1="3.88170857%" x2="64.8333502%" y2="56.9243345%" id="linearGradient-13">
            <stop stop-color="#77D791" offset="0%"></stop>
            <stop stop-color="#4FA67E" offset="100%"></stop>
        </linearGradient>
        <linearGradient x1="44.2814617%" y1="3.88170857%" x2="55.3400061%" y2="56.9243345%" id="linearGradient-14">
            <stop stop-color="#77D791" offset="0%"></stop>
            <stop stop-color="#4FA67E" offset="100%"></stop>
        </linearGradient>
        <linearGradient x1="50%" y1="0%" x2="50%" y2="100%" id="linearGradient-15">
            <stop stop-color="#1D2A78" offset="0%"></stop>
            <stop stop-color="#12033B" offset="100%"></stop>
        </linearGradient>
        <linearGradient x1="50%" y1="0%" x2="50%" y2="100%" id="linearGradient-16">
            <stop stop-color="#1D2A78" offset="0%"></stop>
            <stop stop-color="#12033B" offset="100%"></stop>
        </linearGradient>
        <linearGradient x1="82.5767258%" y1="-52.951376%" x2="82.5767258%" y2="186.664812%" id="linearGradient-17">
            <stop stop-color="#1533B6" offset="0%"></stop>
            <stop stop-color="#356BE9" offset="100%"></stop>
        </linearGradient>
        <linearGradient x1="50%" y1="0%" x2="50%" y2="100%" id="linearGradient-18">
            <stop stop-color="#FF9485" offset="0%"></stop>
            <stop stop-color="#FF676E" offset="100%"></stop>
        </linearGradient>
        <linearGradient x1="82.5767258%" y1="-52.951376%" x2="82.5767258%" y2="186.664812%" id="linearGradient-19">
            <stop stop-color="#1533B6" offset="0%"></stop>
            <stop stop-color="#356BE9" offset="100%"></stop>
        </linearGradient>
        <linearGradient x1="50%" y1="0%" x2="50%" y2="100%" id="linearGradient-20">
            <stop stop-color="#FF9485" offset="0%"></stop>
            <stop stop-color="#FF676E" offset="100%"></stop>
        </linearGradient>
        <linearGradient x1="50%" y1="0%" x2="50%" y2="100%" id="linearGradient-21">
            <stop stop-color="#FF9485" offset="0%"></stop>
            <stop stop-color="#FF676E" offset="100%"></stop>
        </linearGradient>
        <linearGradient x1="50%" y1="0%" x2="50%" y2="100%" id="linearGradient-22">
            <stop stop-color="#1D2A78" offset="0%"></stop>
            <stop stop-color="#12033B" offset="100%"></stop>
        </linearGradient>
    </defs>
    <g id="Online-payment" stroke="none" stroke-width="1" fill="none" fill-rule="evenodd">
        <rect fill="#FFFFFF" x="0" y="0" width="1440" height="1024"></rect>
        <g id="Ornament" transform="translate(186.000000, 49.000000)">
            <path d="M930.421769,777.925666 C817.520507,777.925666 726,686.382302 726,573.462833 C726,460.543364 817.520507,369 930.421769,369 C1043.32303,369 1134.84354,460.543364 1134.84354,573.462833 C1134.84354,686.382302 1043.32303,777.925666 930.421769,777.925666 Z M930.421769,697.925666 C999.135778,697.925666 1054.84354,642.203993 1054.84354,573.462833 C1054.84354,504.721673 999.135778,449 930.421769,449 C861.70776,449 806,504.721673 806,573.462833 C806,642.203993 861.70776,697.925666 930.421769,697.925666 Z" id="Shape" fill="url(#linearGradient-1)"></path>
            <g id="Plant" transform="translate(917.000000, 601.000000)">
                <path d="M39.4981201,164.85314 C63.4566962,71.748516 121.682551,39.0261602 214.175686,66.686073 C206.306031,108.785983 187.576224,141.226961 157.986264,164.009006 C128.396305,186.791051 88.9002567,187.07243 39.4981201,164.85314 Z" id="Shape" fill="url(#linearGradient-2)"></path>
                <path d="M110.90666,123.31975 L114.182626,91.2147532 C114.317975,89.8883075 116.307644,90.0913315 116.172294,91.4177773 L113.04009,122.113892 C137.314607,108.396862 167.641093,91.3752098 204.021245,71.0479371 C204.503374,70.7785492 205.112599,70.9510101 205.381987,71.4331393 C205.651375,71.9152686 205.478914,72.5244936 204.996785,72.7938815 C185.072124,83.9267104 166.963277,94.0680217 150.670521,103.217651 L178.847155,109.94056 C179.38436,110.068737 179.715944,110.608135 179.587767,111.14534 C179.459591,111.682545 178.920192,112.014128 178.382987,111.885952 L148.101203,104.660756 C135.046861,111.994186 123.186404,118.675692 112.519979,124.705186 C112.425529,124.787184 112.316344,124.847239 112.199917,124.886116 C100.139932,131.70388 89.6132281,137.684383 80.6200223,142.827497 L106.833213,152.40034 C107.351987,152.589792 107.618955,153.163922 107.429503,153.682696 C107.240051,154.20147 106.66592,154.468438 106.147147,154.278986 L78.4735497,144.172815 C78.4334076,144.158155 78.3947731,144.141192 78.3577411,144.12213 C64.2878892,152.17938 54.1992515,158.062628 48.0927331,161.771343 C47.6206877,162.058034 47.0056105,161.907774 46.7189198,161.435729 C46.4322291,160.963683 46.5824889,160.348606 47.0545343,160.061915 C57.2599898,153.863764 78.5426306,141.617201 110.90666,123.31975 Z" id="Shape" fill="#FFFFFF" fill-rule="nonzero"></path>
                <path d="M50.2925002,192.93029 C1.39886056,110.154107 19.4325579,45.8440106 104.393592,5.68434189e-14 C128.598038,35.3338181 138.293299,71.5170271 133.479377,108.549627 C128.665455,145.582227 100.936496,173.709114 50.2925002,192.93029 Z" id="Shape" fill="url(#linearGradient-3)"></path>
                <path d="M71.4174312,113.068298 L51.0322176,88.0501669 C50.1899853,87.0165217 51.7404532,85.7531732 52.5826855,86.7868184 L72.0733233,110.707065 C79.5385941,83.8429829 88.9465331,50.3627908 100.297634,10.2645827 C100.448065,9.73317982 101.0008,9.42434098 101.532203,9.57477183 C102.063606,9.72520267 102.372445,10.2779381 102.222014,10.809341 C96.0052518,32.7702963 90.3713544,52.7461701 85.3204025,70.7366492 L109.99809,55.5665848 C110.468586,55.2773579 111.084463,55.4243053 111.37369,55.8948011 C111.662917,56.3652968 111.515969,56.9811737 111.045474,57.2704006 L84.5240498,73.5738611 C80.4787456,87.9902222 76.8166666,101.101395 73.537856,112.907212 C73.5290457,113.031934 73.4943191,113.151562 73.4395101,113.261343 C69.7326936,126.609949 66.518039,138.282324 63.7956093,148.278225 L89.1001411,136.51173 C89.6009325,136.278864 90.1956791,136.496061 90.4285449,136.996852 C90.6614106,137.497643 90.444214,138.09239 89.9434227,138.325256 L63.2290923,150.747301 C63.1903464,150.765318 63.151038,150.78064 63.1113783,150.793346 C58.8598251,166.439575 55.8861651,177.733407 54.1906615,184.673826 C54.0595959,185.210334 53.518421,185.539009 52.9819135,185.407944 C52.4454061,185.276878 52.1167305,184.735703 52.2477961,184.199196 C55.0813881,172.600095 61.4708588,148.89137 71.4174312,113.068298 L71.4174312,113.068298 Z" id="Shape" fill="#FFFFFF" fill-rule="nonzero"></path>
                <path d="M-2.27373675e-13,227.324394 C47.2394574,143.593169 111.950484,127.05576 194.133079,177.712169 C175.635317,216.340743 149.14737,242.82869 114.669237,257.176011 C80.1911033,271.523332 41.9680244,261.572793 -2.27373675e-13,227.324394 Z" id="Shape" fill="url(#linearGradient-4)" fill-rule="nonzero"></path>
                <path d="M79.7249871,205.688105 L91.1987099,175.524946 C91.6727567,174.278729 93.5420825,174.9898 93.0680357,176.236017 L82.097821,205.075508 C109.095432,198.108582 142.794094,189.516001 183.195706,179.29724 C183.731129,179.161816 184.274959,179.486079 184.410384,180.021503 C184.545808,180.556927 184.221545,181.100757 183.686121,181.236181 C161.558988,186.832787 141.442419,191.941627 123.336727,196.562615 L148.813254,210.349099 C149.298979,210.611947 149.479657,211.218786 149.21681,211.704511 C148.953962,212.190237 148.347123,212.370915 147.861397,212.108067 L120.481453,197.291559 C105.973905,200.996393 92.78829,204.380518 80.9247726,207.443887 C80.8123068,207.498654 80.6912845,207.528407 80.5687493,207.535824 C67.1551379,210.999923 55.4392605,214.052132 45.4213591,216.692384 L68.2637271,232.723517 C68.7157905,233.040782 68.825066,233.664446 68.5078008,234.116509 C68.1905357,234.568573 67.5668717,234.677848 67.1148084,234.360583 L42.9998362,217.436317 C42.9648547,217.411766 42.9319258,217.385381 42.9010882,217.357383 C27.2252857,221.498542 15.9577136,224.570192 9.09938382,226.572052 C8.56922192,226.7268 8.01399309,226.422467 7.85924551,225.892305 C7.70449794,225.362143 8.00883137,224.806914 8.53899326,224.652166 C20.0009063,221.306578 43.728004,214.985659 79.7249871,205.688105 Z" id="Shape" fill="#FFFFFF" fill-rule="nonzero"></path>
            </g>
            <path d="M559,150 C559,94.771525 603.771525,50 659,50 L857,50 C857,105.228475 812.228475,150 757,150 L559,150 Z" id="Shape" fill="url(#linearGradient-5)"></path>
            <path d="M515,100 C515,44.771525 559.771525,0 615,0 L813,0 C813,55.228475 768.228475,100 713,100 L515,100 Z" id="Shape" fill="#00ADFF"></path>
            <path d="M990.153791,940.153791 C990.153791,837.915477 990.153791,708.658839 990.153791,641.890277 C907.28674,641.890277 840.109723,708.658839 840.109723,791.022034 C840.109723,873.385229 907.28674,940.153791 990.153791,940.153791 Z" id="Shape" fill="#66D4FF" transform="translate(915.131757, 791.022034) rotate(-270.000000) translate(-915.131757, -791.022034) "></path>
            <path d="M8.81761461,813.579399 C8.81761461,816.01417 6.84372434,817.987942 4.4088073,817.987942 C1.97389026,817.987942 -3.12638804e-13,816.01417 -3.12638804e-13,813.579399 C-3.12638804e-13,811.144628 1.97389026,809.170856 4.4088073,809.170856 C6.84372434,809.170856 8.81761461,811.144628 8.81761461,813.579399 Z M8.81761461,795.945228 C8.81761461,798.379999 6.84372434,800.353771 4.4088073,800.353771 C1.97389026,800.353771 -1.98951966e-13,798.379999 -1.98951966e-13,795.945228 C-1.98951966e-13,793.510457 1.97389026,791.536685 4.4088073,791.536685 C6.84372434,791.536685 8.81761461,793.510457 8.81761461,795.945228 Z M8.81761461,778.311057 C8.81761461,780.745828 6.84372434,782.719599 4.4088073,782.719599 C1.97389026,782.719599 -1.98951966e-13,780.745828 -1.98951966e-13,778.311057 C-1.98951966e-13,775.876286 1.97389026,773.902514 4.4088073,773.902514 C6.84372434,773.902514 8.81761461,775.876286 8.81761461,778.311057 Z M8.81761461,760.676885 C8.81761461,763.111656 6.84372434,765.085428 4.4088073,765.085428 C1.97389026,765.085428 -1.98951966e-13,763.111656 -1.98951966e-13,760.676885 C-1.98951966e-13,758.242114 1.97389026,756.268343 4.4088073,756.268343 C6.84372434,756.268343 8.81761461,758.242114 8.81761461,760.676885 Z M8.81761461,743.042714 C8.81761461,745.477485 6.84372434,747.451257 4.4088073,747.451257 C1.97389026,747.451257 -1.98951966e-13,745.477485 -1.98951966e-13,743.042714 C-1.98951966e-13,740.607943 1.97389026,738.634171 4.4088073,738.634171 C6.84372434,738.634171 8.81761461,740.607943 8.81761461,743.042714 Z M8.81761461,725.408543 C8.81761461,727.843314 6.84372434,729.817086 4.4088073,729.817086 C1.97389026,729.817086 -1.98951966e-13,727.843314 -1.98951966e-13,725.408543 C-1.98951966e-13,722.973772 1.97389026,721 4.4088073,721 C6.84372434,721 8.81761461,722.973772 8.81761461,725.408543 Z M26.4528438,813.579399 C26.4528438,816.01417 24.4789536,817.987942 22.0440365,817.987942 C19.6091195,817.987942 17.6352292,816.01417 17.6352292,813.579399 C17.6352292,811.144628 19.6091195,809.170856 22.0440365,809.170856 C24.4789536,809.170856 26.4528438,811.144628 26.4528438,813.579399 Z M26.4528438,795.945228 C26.4528438,798.379999 24.4789536,800.353771 22.0440365,800.353771 C19.6091195,800.353771 17.6352292,798.379999 17.6352292,795.945228 C17.6352292,793.510457 19.6091195,791.536685 22.0440365,791.536685 C24.4789536,791.536685 26.4528438,793.510457 26.4528438,795.945228 Z M26.4528438,778.311057 C26.4528438,780.745828 24.4789536,782.719599 22.0440365,782.719599 C19.6091195,782.719599 17.6352292,780.745828 17.6352292,778.311057 C17.6352292,775.876286 19.6091195,773.902514 22.0440365,773.902514 C24.4789536,773.902514 26.4528438,775.876286 26.4528438,778.311057 Z M26.4528438,760.676885 C26.4528438,763.111656 24.4789536,765.085428 22.0440365,765.085428 C19.6091195,765.085428 17.6352292,763.111656 17.6352292,760.676885 C17.6352292,758.242114 19.6091195,756.268343 22.0440365,756.268343 C24.4789536,756.268343 26.4528438,758.242114 26.4528438,760.676885 Z M26.4528438,743.042714 C26.4528438,745.477485 24.4789536,747.451257 22.0440365,747.451257 C19.6091195,747.451257 17.6352292,745.477485 17.6352292,743.042714 C17.6352292,740.607943 19.6091195,738.634171 22.0440365,738.634171 C24.4789536,738.634171 26.4528438,740.607943 26.4528438,743.042714 Z M26.4528438,725.408543 C26.4528438,727.843314 24.4789536,729.817086 22.0440365,729.817086 C19.6091195,729.817086 17.6352292,727.843314 17.6352292,725.408543 C17.6352292,722.973772 19.6091195,721 22.0440365,721 C24.4789536,721 26.4528438,722.973772 26.4528438,725.408543 Z M44.088073,813.579399 C44.088073,816.01417 42.1141828,817.987942 39.6792657,817.987942 C37.2443487,817.987942 35.2704584,816.01417 35.2704584,813.579399 C35.2704584,811.144628 37.2443487,809.170856 39.6792657,809.170856 C42.1141828,809.170856 44.088073,811.144628 44.088073,813.579399 Z M44.088073,795.945228 C44.088073,798.379999 42.1141828,800.353771 39.6792657,800.353771 C37.2443487,800.353771 35.2704584,798.379999 35.2704584,795.945228 C35.2704584,793.510457 37.2443487,791.536685 39.6792657,791.536685 C42.1141828,791.536685 44.088073,793.510457 44.088073,795.945228 Z M44.088073,778.311057 C44.088073,780.745828 42.1141828,782.719599 39.6792657,782.719599 C37.2443487,782.719599 35.2704584,780.745828 35.2704584,778.311057 C35.2704584,775.876286 37.2443487,773.902514 39.6792657,773.902514 C42.1141828,773.902514 44.088073,775.876286 44.088073,778.311057 Z M44.088073,760.676885 C44.088073,763.111656 42.1141828,765.085428 39.6792657,765.085428 C37.2443487,765.085428 35.2704584,763.111656 35.2704584,760.676885 C35.2704584,758.242114 37.2443487,756.268343 39.6792657,756.268343 C42.1141828,756.268343 44.088073,758.242114 44.088073,760.676885 Z M44.088073,743.042714 C44.088073,745.477485 42.1141828,747.451257 39.6792657,747.451257 C37.2443487,747.451257 35.2704584,745.477485 35.2704584,743.042714 C35.2704584,740.607943 37.2443487,738.634171 39.6792657,738.634171 C42.1141828,738.634171 44.088073,740.607943 44.088073,743.042714 Z M44.088073,725.408543 C44.088073,727.843314 42.1141828,729.817086 39.6792657,729.817086 C37.2443487,729.817086 35.2704584,727.843314 35.2704584,725.408543 C35.2704584,722.973772 37.2443487,721 39.6792657,721 C42.1141828,721 44.088073,722.973772 44.088073,725.408543 Z M61.7233022,813.579399 C61.7233022,816.01417 59.749412,817.987942 57.3144949,817.987942 C54.8795779,817.987942 52.9056876,816.01417 52.9056876,813.579399 C52.9056876,811.144628 54.8795779,809.170856 57.3144949,809.170856 C59.749412,809.170856 61.7233022,811.144628 61.7233022,813.579399 Z M61.7233022,795.945228 C61.7233022,798.379999 59.749412,800.353771 57.3144949,800.353771 C54.8795779,800.353771 52.9056876,798.379999 52.9056876,795.945228 C52.9056876,793.510457 54.8795779,791.536685 57.3144949,791.536685 C59.749412,791.536685 61.7233022,793.510457 61.7233022,795.945228 Z M61.7233022,778.311057 C61.7233022,780.745828 59.749412,782.719599 57.3144949,782.719599 C54.8795779,782.719599 52.9056876,780.745828 52.9056876,778.311057 C52.9056876,775.876286 54.8795779,773.902514 57.3144949,773.902514 C59.749412,773.902514 61.7233022,775.876286 61.7233022,778.311057 Z M61.7233022,760.676885 C61.7233022,763.111656 59.749412,765.085428 57.3144949,765.085428 C54.8795779,765.085428 52.9056876,763.111656 52.9056876,760.676885 C52.9056876,758.242114 54.8795779,756.268343 57.3144949,756.268343 C59.749412,756.268343 61.7233022,758.242114 61.7233022,760.676885 Z M61.7233022,743.042714 C61.7233022,745.477485 59.749412,747.451257 57.3144949,747.451257 C54.8795779,747.451257 52.9056876,745.477485 52.9056876,743.042714 C52.9056876,740.607943 54.8795779,738.634171 57.3144949,738.634171 C59.749412,738.634171 61.7233022,740.607943 61.7233022,743.042714 Z M61.7233022,725.408543 C61.7233022,727.843314 59.749412,729.817086 57.3144949,729.817086 C54.8795779,729.817086 52.9056876,727.843314 52.9056876,725.408543 C52.9056876,722.973772 54.8795779,721 57.3144949,721 C59.749412,721 61.7233022,722.973772 61.7233022,725.408543 Z M79.3585314,813.579399 C79.3585314,816.01417 77.3846412,817.987942 74.9497241,817.987942 C72.5148071,817.987942 70.5409168,816.01417 70.5409168,813.579399 C70.5409168,811.144628 72.5148071,809.170856 74.9497241,809.170856 C77.3846412,809.170856 79.3585314,811.144628 79.3585314,813.579399 Z M79.3585314,795.945228 C79.3585314,798.379999 77.3846412,800.353771 74.9497241,800.353771 C72.5148071,800.353771 70.5409168,798.379999 70.5409168,795.945228 C70.5409168,793.510457 72.5148071,791.536685 74.9497241,791.536685 C77.3846412,791.536685 79.3585314,793.510457 79.3585314,795.945228 Z M79.3585314,778.311057 C79.3585314,780.745828 77.3846412,782.719599 74.9497241,782.719599 C72.5148071,782.719599 70.5409168,780.745828 70.5409168,778.311057 C70.5409168,775.876286 72.5148071,773.902514 74.9497241,773.902514 C77.3846412,773.902514 79.3585314,775.876286 79.3585314,778.311057 Z M79.3585314,760.676885 C79.3585314,763.111656 77.3846412,765.085428 74.9497241,765.085428 C72.5148071,765.085428 70.5409168,763.111656 70.5409168,760.676885 C70.5409168,758.242114 72.5148071,756.268343 74.9497241,756.268343 C77.3846412,756.268343 79.3585314,758.242114 79.3585314,760.676885 Z M79.3585314,743.042714 C79.3585314,745.477485 77.3846412,747.451257 74.9497241,747.451257 C72.5148071,747.451257 70.5409168,745.477485 70.5409168,743.042714 C70.5409168,740.607943 72.5148071,738.634171 74.9497241,738.634171 C77.3846412,738.634171 79.3585314,740.607943 79.3585314,743.042714 Z M79.3585314,725.408543 C79.3585314,727.843314 77.3846412,729.817086 74.9497241,729.817086 C72.5148071,729.817086 70.5409168,727.843314 70.5409168,725.408543 C70.5409168,722.973772 72.5148071,721 74.9497241,721 C77.3846412,721 79.3585314,722.973772 79.3585314,725.408543 Z M96.9937607,813.579399 C96.9937607,816.01417 95.0198704,817.987942 92.5849534,817.987942 C90.1500363,817.987942 88.1761461,816.01417 88.1761461,813.579399 C88.1761461,811.144628 90.1500363,809.170856 92.5849534,809.170856 C95.0198704,809.170856 96.9937607,811.144628 96.9937607,813.579399 Z M96.9937607,795.945228 C96.9937607,798.379999 95.0198704,800.353771 92.5849534,800.353771 C90.1500363,800.353771 88.1761461,798.379999 88.1761461,795.945228 C88.1761461,793.510457 90.1500363,791.536685 92.5849534,791.536685 C95.0198704,791.536685 96.9937607,793.510457 96.9937607,795.945228 Z M96.9937607,778.311057 C96.9937607,780.745828 95.0198704,782.719599 92.5849534,782.719599 C90.1500363,782.719599 88.1761461,780.745828 88.1761461,778.311057 C88.1761461,775.876286 90.1500363,773.902514 92.5849534,773.902514 C95.0198704,773.902514 96.9937607,775.876286 96.9937607,778.311057 Z M96.9937607,760.676885 C96.9937607,763.111656 95.0198704,765.085428 92.5849534,765.085428 C90.1500363,765.085428 88.1761461,763.111656 88.1761461,760.676885 C88.1761461,758.242114 90.1500363,756.268343 92.5849534,756.268343 C95.0198704,756.268343 96.9937607,758.242114 96.9937607,760.676885 Z M96.9937607,743.042714 C96.9937607,745.477485 95.0198704,747.451257 92.5849534,747.451257 C90.1500363,747.451257 88.1761461,745.477485 88.1761461,743.042714 C88.1761461,740.607943 90.1500363,738.634171 92.5849534,738.634171 C95.0198704,738.634171 96.9937607,740.607943 96.9937607,743.042714 Z M96.9937607,725.408543 C96.9937607,727.843314 95.0198704,729.817086 92.5849534,729.817086 C90.1500363,729.817086 88.1761461,727.843314 88.1761461,725.408543 C88.1761461,722.973772 90.1500363,721 92.5849534,721 C95.0198704,721 96.9937607,722.973772 96.9937607,725.408543 Z" id="Shape" fill="#CDCBDF"></path>
        </g>
        <g id="Monitor" transform="translate(72.000000, 99.000000)">
            <path d="M523.25,746.017153 L579.6,746.017153 C587.331986,746.017153 593.6,752.285166 593.6,760.017153 L593.6,802 C593.6,809.731986 587.331986,816 579.6,816 L260.4,816 C252.668014,816 246.4,809.731986 246.4,802 L246.4,760.017153 C246.4,752.285166 252.668014,746.017153 260.4,746.017153 L316.75,746.017153 L343,620.048027 L497,620.048027 L523.25,746.017153 Z" id="Shape" fill="url(#linearGradient-6)"></path>
            <path d="M14,97.9759863 L826,97.9759863 C833.731986,97.9759863 840,104.244 840,111.975986 L840,643.838765 C840,651.570752 833.731986,657.838765 826,657.838765 L14,657.838765 C6.2680135,657.838765 9.46895252e-16,651.570752 0,643.838765 L0,111.975986 C-9.46895252e-16,104.244 6.2680135,97.9759863 14,97.9759863 Z" id="Shape" fill="url(#linearGradient-7)"></path>
            <path d="M14,1.70530257e-13 L826,1.70530257e-13 C833.731986,1.69109914e-13 840,6.2680135 840,14 L840,573.859348 L0,573.859348 L-1.77635684e-15,14 C-2.72325209e-15,6.2680135 6.2680135,1.71950599e-13 14,1.70530257e-13 Z" id="Shape" fill="url(#linearGradient-8)"></path>
            <polygon id="Shape" fill="#FFFFFF" points="42 41.9897084 798 41.9897084 798 531.86964 42 531.86964"></polygon>
            <polygon id="Shape" fill="url(#linearGradient-9)" points="98 316 742 316 742 476.960549 98 476.960549"></polygon>
            <path d="M145,341 L433.5,341 L433.5,361 L145,361 L145,341 Z M145,386 L702.5,386 L702.5,406 L145,406 L145,386 Z M145,431 L702.5,431 L702.5,451 L145,451 L145,431 Z" id="Shape" fill="#FFFFFF"></path>
            <polygon id="Shape" fill="url(#linearGradient-9)" points="98 99.3756432 742 99.3756432 742 260.336192 98 260.336192"></polygon>
            <circle id="Shape" fill="url(#linearGradient-10)" cx="198" cy="180" r="60"></circle>
            <path d="M219.617126,159.769057 C221.843355,157.314557 225.637835,157.129506 228.092335,159.355734 C230.546835,161.581963 230.731886,165.376443 228.505658,167.830943 L199.663101,199.630943 C197.582857,201.92449 194.098973,202.258354 191.621004,200.401626 L171.602169,185.401626 C168.950304,183.414599 168.411347,179.654034 170.398374,177.002169 C172.385401,174.350304 176.145966,173.811347 178.797831,175.798374 L194.444763,187.522531 L219.617126,159.769057 Z" id="Shape" fill="#FFFFFF" fill-rule="nonzero"></path>
            <path d="M296,146 L494.5,146 L494.5,166 L296,166 L296,146 Z M296,191 L703.5,191 L703.5,211 L296,211 L296,191 Z" id="Shape" fill="#FFFFFF"></path>
        </g>
        <g id="Credit-Card" transform="translate(517.902818, 554.196353)">
            <path d="M12,-2.84217094e-14 L588.097182,-2.66453526e-14 C594.724599,-2.78665979e-14 600.097182,5.372583 600.097182,12 L600.097182,348.168303 C600.097182,354.79572 594.724599,360.168303 588.097182,360.168303 L12,360.168303 C5.372583,360.168303 -2.49245069e-13,354.79572 -2.82440737e-13,348.168303 L-2.82440737e-13,12 C-2.83217894e-13,5.372583 5.372583,-2.54241073e-14 12,-2.84217094e-14 Z" id="Shape" fill="url(#linearGradient-11)"></path>
            <polygon id="Shape" fill="url(#linearGradient-12)" points="-2.84217094e-13 60.0280505 600.097182 60.0280505 600.097182 132.061711 -2.84217094e-13 132.061711"></polygon>
            <path d="M48.0077745,234.109397 L144.023324,234.109397 L144.023324,258.120617 L48.0077745,258.120617 L48.0077745,234.109397 Z M48.0077745,288.134642 L120.019436,288.134642 L120.019436,312.145863 L48.0077745,312.145863 L48.0077745,288.134642 Z M168.027211,234.109397 L288.046647,234.109397 L288.046647,258.120617 L168.027211,258.120617 L168.027211,234.109397 Z M144.023324,288.134642 L228.036929,288.134642 L228.036929,312.145863 L144.023324,312.145863 L144.023324,288.134642 Z" id="Shape" fill="#FFFFFF"></path>
            <ellipse id="Shape" fill="#BDDEFF" cx="457.274052" cy="274.928471" rx="40.8066084" ry="40.8190743"></ellipse>
            <ellipse id="Shape" fill="#FFFFFF" cx="498.080661" cy="274.928471" rx="40.8066084" ry="40.8190743"></ellipse>
        </g>
        <g id="Money" transform="translate(1050.000000, 89.000000)">
            <circle id="Shape" fill="url(#linearGradient-13)" fill-rule="nonzero" cx="122.5" cy="122.5" r="122.5"></circle>
            <circle id="Shape" fill="#FFFFFF" cx="122.5" cy="122.5" r="99.5"></circle>
            <path d="M122.5,222 C122.5,167.8497 122.5,66.3537707 122.5,23 C67.5476674,23 23,67.5476674 23,122.5 C23,177.452333 67.5476674,222 122.5,222 Z" id="Shape" fill="#E1F0D5"></path>
            <path d="M118.364437,190 L118.364437,172.199367 C93.693662,170.490506 83.1408451,156.962025 82,139.018987 L103.105634,139.018987 C104.103873,147.278481 107.098592,153.971519 118.364437,155.68038 L118.364437,128.196203 C95.6901408,124.636076 84.8521127,116.376582 84.8521127,97.5791139 C84.8521127,81.2025316 97.971831,69.0981013 118.364437,67.6740506 L118.364437,55 L128.489437,55 L128.489437,67.8164557 C147.883803,69.5253165 159.577465,79.2088608 161.288732,97.5791139 L140.896127,97.5791139 C139.612676,90.1740506 136.047535,85.6170886 128.489437,84.193038 L128.489437,109.683544 C149.880282,112.958861 163,120.079114 163,139.873418 C163,156.962025 151.021127,170.632911 128.489437,172.199367 L128.489437,190 L118.364437,190 Z M142,141.571429 C142,134.714286 139.021277,131.285714 128,129 L128,155 C136.638298,153.571429 142,148.571429 142,141.571429 Z M106,95.7869822 C106,102.319527 108.428571,105.869822 119,108 L119,84 C110.571429,85.1360947 106,89.8224852 106,95.7869822 Z" id="Shape" fill="url(#linearGradient-14)" fill-rule="nonzero"></path>
        </g>
        <g id="Men-1" transform="translate(911.074846, 235.808531)">
            <path d="M159.653512,43.8962571 L55.6366151,119.061168 L23.8551836,85.1914686 L148.495053,23.2395801 C151.559703,30.5095 155.305864,37.4217332 159.653512,43.8962571 L159.653512,43.8962571 Z" id="Shape" fill="#221E41"></path>
            <polygon id="Shape" fill="#211D41" points="9.60625403 239.59972 72.2581676 280.046442 107.857496 318.428824 0.843880662 318.428824 0.843880662 262.17695"></polygon>
            <polygon id="Shape" fill="#F4B696" points="233.264527 418.215913 224.419175 404.465184 244.141561 393.740245 251.491953 410.680767"></polygon>
            <path d="M230.268242,418.030069 L250.136624,407.016844 L265.051188,404.241454 C272.638331,402.972289 278.488031,400.928224 282.388379,407.964639 C283.390318,409.772185 283.004904,411.901356 281.527533,412.720277 L244.26294,433.376378 C241.944352,434.661592 239.022893,433.823877 237.737679,431.50529 L230.268242,418.030069 Z" id="Shape" fill="url(#linearGradient-15)"></path>
            <path d="M66.073659,89.1404732 L36.4527891,84.9775314 L38.0457425,73.6430785 C32.7119069,62.2892352 32.7781053,47.5721487 38.2443377,29.491819 C43.7105701,11.4114893 59.0145835,8.5282923 84.1563779,20.8422279 C83.3760468,31.6098053 85.2252246,38.7389056 89.7039112,42.2295289 C96.4219412,47.4654639 93.8134635,51.1056434 91.0807739,51.9710405 C88.3480843,52.8364376 86.3928815,54.6856146 86.2908529,60.9785643 C86.1888243,67.271514 82.2437118,67.9657785 76.0223119,69.5832779 C71.874712,70.6616108 68.5584943,77.1806759 66.073659,89.1404732 Z" id="Shape" fill="#F4B696"></path>
            <path d="M37.679526,73.3482738 C35.0558109,72.3589705 33.546897,70.7175784 33.1527841,68.4240977 C32.5616147,64.9838765 34.5631767,63.3883387 27.7992158,56.3128631 C21.0352548,49.2373875 15.6081809,39.8870925 19.921925,23.6179119 C24.2356692,7.34873139 34.0004663,6.0263507 43.7388552,5.19976071 C53.4772441,4.37317071 57.4296335,5.50999886 70.8151001,1.13872587 C84.2005667,-3.23254711 90.9305181,5.47844931 87.9974493,18.7706383 C85.0643805,32.0628272 64.9470767,31.5506364 61.4137806,31.054064 C57.8804844,30.5574916 59.6224909,35.868233 59.9701684,41.3258983 C60.3178459,46.7835636 56.8257217,47.9585366 55.5509553,47.1846501 C54.2761889,46.4107635 51.5667429,45.5053374 49.0943394,48.5072672 C46.6219358,51.509197 49.021195,56.3013054 50.9621646,56.5740909 C52.9031342,56.8468763 55.4880547,56.2897903 55.573384,58.5007198 C55.6587133,60.7116493 54.4701619,67.5120195 52.1899291,71.0995939 C50.6697739,73.4913102 45.8329728,74.2408701 37.679526,73.3482738 Z" id="Shape" fill="url(#linearGradient-16)"></path>
            <path d="M18.2432021,247.774498 L101.008982,259.191469 L188.028881,288.5451 C198.796574,292.177268 207.573821,300.115493 212.265971,310.465352 L252.036956,398.191469 L222.285204,407.486749 L163.87462,327.191469 L73.2836775,325.135827 C37.0169478,326.402289 6.59028414,298.028966 5.32382203,261.762237 L18.2432021,247.774498 Z" id="Shape" fill="url(#linearGradient-17)"></path>
            <path d="M127.925154,93.0232802 L188.495224,93.0232802 L273.423666,50.3571766 L281.462796,40.1914686 L281.462796,49.4680472 L301.755144,49.4680472 C299.795884,60.0085253 295.92401,66.583117 290.139525,69.1918221 C284.355039,71.8005273 276.000266,71.8005273 265.075205,69.1918221 L189.688988,125.060974 L127.925154,133.857572 L127.925154,93.0232802 Z" id="Shape" fill="#F4B696"></path>
            <path d="M138.025197,88.7281537 L133.75153,136.191469 L97.8833984,137.191469 L102.387705,258.835129 L0.925154445,262.241655 L0.0260795514,124.458573 C-0.78344776,101.276744 17.3528863,81.8279066 40.5347154,81.0183793 L53.6955036,80.5587945 C62.7372506,80.2430497 109.52958,86.0562858 138.025197,88.7281537 Z" id="Shape" fill="url(#linearGradient-18)"></path>
            <path d="M49.7895601,269.033301 L50.5167042,268.346816 C52.1749877,270.103317 53.7877857,271.785555 55.3550893,273.393526 L54.6389851,274.091519 C53.067901,272.47967 51.4514289,270.793599 49.7895601,269.033301 Z M61.7323558,281.162648 L62.4267076,280.443012 C64.1955042,282.149664 65.8939593,283.74158 67.5220306,285.218739 L66.8500816,285.959337 C65.2142145,284.475104 63.5083199,282.876215 61.7323558,281.162648 Z M74.4942249,292.462993 L75.1116134,291.676334 C77.1464647,293.273334 79.029591,294.624074 80.760363,295.728434 L80.2224619,296.571442 C78.4625729,295.448503 76.5533704,294.07906 74.4942249,292.462993 Z M89.6008401,300.428486 L89.7147673,299.434997 L96.669191,300.232487 L96.5552638,301.225977 L89.6008401,300.428486 Z M106.490155,302.365248 L106.604082,301.371759 L113.558506,302.169249 L113.444579,303.162738 L106.490155,302.365248 Z M123.37947,304.30201 L123.493397,303.308521 L130.447821,304.106011 L130.333893,305.0995 L123.37947,304.30201 Z M140.268784,306.238772 L140.382712,305.245283 L147.337135,306.042773 L147.223208,307.036262 L140.268784,306.238772 Z M157.158099,308.175534 L157.272026,307.182045 L164.22645,307.979535 L164.112523,308.973024 L157.158099,308.175534 Z M173.827944,310.806688 L174.140772,309.856878 C176.396211,310.599725 178.569447,311.566619 180.628579,312.741667 L180.132948,313.610201 C178.131809,312.468246 176.019806,311.528595 173.827944,310.806688 Z M187.890493,319.648684 L188.610888,318.95512 C190.253346,320.661117 191.723499,322.529986 192.998582,324.537199 L192.154495,325.073406 C190.915343,323.122755 189.486647,321.306585 187.890493,319.648684 Z M197.045913,333.800205 L197.921416,333.316992 L201.303907,339.445512 L200.428404,339.928725 L197.045913,333.800205 Z M205.260533,348.683753 L206.136036,348.20054 L209.518527,354.32906 L208.643024,354.812273 L205.260533,348.683753 Z M213.475153,363.567302 L214.350656,363.084089 L217.733147,369.212609 L216.857644,369.695822 L213.475153,363.567302 Z M221.689773,378.45085 L222.565276,377.967637 L225.947767,384.096157 L225.072264,384.57937 L221.689773,378.45085 Z" id="Shape" fill="#A587FF" fill-rule="nonzero"></path>
        </g>
        <g id="Women" transform="translate(55.285857, 278.000000)">
            <path d="M128.568744,622.182996 C133.804945,620.628617 139.837673,620.314641 146.666929,621.241068 C156.910965,622.630556 168.630632,625.013777 164.998158,630.816129 C161.365377,636.618484 144.70491,636.860668 136.450947,635.595251 C128.196983,634.329834 127.234729,635.057919 119.365841,635.595251 C111.496953,636.132582 110.112691,635.639542 110.112767,631.170569 C110.112767,626.701672 110.112516,621.168979 110.112767,618.704614 C110.113018,616.240249 110.481733,614.094051 116.220584,616.182438 C120.046486,617.574594 124.162539,619.57478 128.568744,622.182996 Z" id="Shape" fill="#0737A3" fill-rule="nonzero"></path>
            <path d="M110.148642,595.946222 L131.776549,595.946222 L131.776549,618.244514 L144.461716,620.980195 C135.28616,625.253505 124.76136,625.584994 115.335072,621.897569 L110.148642,619.868714 L110.148642,595.946222 Z" id="Shape" fill="#F4B696"></path>
            <path d="M21.0055698,608.682205 C26.4576182,609.012453 32.2339146,610.780727 38.334459,613.987027 C47.4854713,618.796385 57.6832462,625.044241 52.2853154,629.25429 C46.8870968,633.464236 31.1485471,627.993599 23.8251565,623.981474 C16.5017659,619.96935 15.3485227,620.324416 7.77040852,618.138024 C0.192294339,615.951632 -0.939857072,615.01488 0.588693385,610.815446 C2.11714627,606.616056 4.00920313,601.416939 4.85230119,599.101279 C5.69539926,596.785619 6.7759208,594.894961 11.4544072,598.820205 C14.5734334,601.43694 17.7571542,604.724273 21.0055698,608.682205 Z" id="Shape" fill="#0737A3" fill-rule="nonzero"></path>
            <polygon id="Shape" fill="#FFFFFF" points="169.854587 142.901645 221.756426 175.451721 188.428204 245.96323 140.587159 210.707476"></polygon>
            <path d="M12.6698413,577.727656 L32.9934259,585.124836 L25.3669608,606.078376 L36.3514607,612.987659 C26.2677005,613.865031 16.2642471,610.576836 8.66760769,603.887809 L4.48786692,600.207446 L12.6698413,577.727656 Z" id="Shape" fill="#F4B696"></path>
            <polygon id="Shape" fill="#211D41" points="77.181186 260.975414 116.81686 341 85.0863498 496.603684 31.0322178 599.011042 4.31568405 590.961457 37.7341328 488.591787 64.4477308 302.669065"></polygon>
            <path d="M191.275346,231.07702 C193.788643,227.713221 194.666563,223.543361 193.909107,218.567439 C193.151652,213.591516 193.837877,209.695512 195.967785,206.879426 L202.366069,216.247167 L211.289657,197 C214.179169,209.054909 214.179169,217.516164 211.289657,222.383766 C208.400145,227.251368 203.292854,233.776615 195.967785,241.959506 L191.275346,231.07702 Z" id="Shape" fill="#F4B696"></path>
            <path d="M135.317587,610.865872 L104.200556,610.865872 L91.3793201,403.780151 L73.2997798,357.84698 C66.5941016,340.810425 63.8756578,322.465358 65.3525723,304.216275 C66.4153356,291.084537 66.9467173,277.772383 66.9467173,264.279814 C66.9467173,206.09224 157.030042,243.554292 157.030042,264.279814 C157.030042,278.096829 149.792557,393.625515 135.317587,610.865872 Z" id="Shape" fill="url(#linearGradient-19)"></path>
            <path d="M62.4964367,311.734576 C63.7342856,298.746207 65.2177125,282.927953 66.9467173,264.279814 L63.2485924,166.317997 C62.8485742,155.721678 71.1143094,146.807385 81.7106288,146.407366 C81.9519537,146.398256 82.1934291,146.3937 82.4349259,146.3937 L134.268506,146.393701 C150.284763,146.393701 163.268504,159.377443 163.268504,175.3937 C163.268504,176.247088 163.230835,177.10006 163.155607,177.950126 C159.071897,224.095232 157.030042,252.871795 157.030042,264.279814 C157.030042,268.624436 155.865425,292.292631 154.434249,316.750232 C119.301093,318.267084 104.775355,316.709623 62.4964367,311.734576 Z" id="Shape" fill="url(#linearGradient-20)"></path>
            <path d="M126.826173,182.170856 C139.32115,223.890354 149.663118,244.750103 157.852076,244.750103 C157.304053,253.590817 157.030042,260.100721 157.030042,264.279814 C157.030042,266.651758 156.564758,278.633166 156.138181,287 C149.888405,279.095361 143.638629,271.190722 137.388853,263.286082 C130.547783,254.633581 126.826173,243.92598 126.826173,232.895748 L126.826173,182.170856 Z" id="Shape" fill="#211D41"></path>
            <path d="M180.63838,41.5651154 L177.608333,47.308348 L162.577644,43.1295761 C171.557524,30.0379133 170.230432,27.0093165 172.901225,18.96382 C175.572019,10.9183235 180.63838,6.05354573 188.129567,2.53256184 C193.123691,0.185239249 195.985216,-0.530359116 196.714143,0.385766748 L187.095586,13.1108441 L191.181547,16.7329341 C197.102973,22.7318293 192.284145,28.3668051 188.129567,30.2237636 C185.359848,31.461736 182.862786,35.2421866 180.63838,41.5651154 Z" id="Shape" fill="#F4B696"></path>
            <polygon id="Shape" fill="#FF6A6F" points="145.983548 132.15199 122.63831 92.3892795 164.478535 33 182.683524 39.7342743"></polygon>
            <path d="M145.539846,154.89592 C157.254412,152.576941 163.111696,161.476948 163.111696,181.59594 C163.111696,201.714933 163.497742,218.798264 164.269834,232.845934 L172.603002,241.978428 L191.645027,226.364445 L204.289421,236 L178.240708,271.739054 C173.556374,278.166 164.548902,279.578666 158.121955,274.894332 C156.929985,274.025555 155.878568,272.978802 155.0045,271.790706 L137.670156,248.228626 C133.495423,242.554031 130.962183,235.840351 130.347694,228.822387 L125.490896,173.353771 C125.2952,165.999538 127.777905,161.104166 132.93901,158.667656 C138.100116,156.231147 142.300395,154.973901 145.539846,154.89592 Z" id="Shape" fill="url(#linearGradient-21)"></path>
            <path d="M75.5430271,226.49859 C67.0070267,223.883026 60.246354,213.940239 55.2610092,196.670229 C47.7829919,170.765214 60.1875772,159.008507 69.6920596,149.066861 C76.0283813,142.439098 79.6204478,132.069483 80.4682592,117.958016 L80.4682592,81.7732491 C80.4682592,64.5419649 94.436975,50.5732491 111.668259,50.5732491 L117.93564,50.5732491 C135.166925,50.5732491 149.13564,64.5419649 149.13564,81.7732491 L149.13564,117.958016 C149.13564,145.597409 137.591334,157.088827 128.56241,159.008507 C119.533486,160.928187 116.88452,165.358115 113.96438,192.269629 C112.01762,210.210639 99.210502,221.620292 75.5430271,226.49859 Z" id="Shape" fill="url(#linearGradient-22)"></path>
            <path d="M119.844778,600.967195 L119.844778,593.967195 L120.844778,593.967195 L120.844778,600.967195 L119.844778,600.967195 Z M119.844778,583.967195 L119.844778,576.967195 L120.844778,576.967195 L120.844778,583.967195 L119.844778,583.967195 Z M119.844778,566.967195 L119.844778,559.967195 L120.844778,559.967195 L120.844778,566.967195 L119.844778,566.967195 Z M119.844778,549.967195 L119.844778,542.967195 L120.844778,542.967195 L120.844778,549.967195 L119.844778,549.967195 Z M119.844778,532.967195 L119.844778,525.967195 L120.844778,525.967195 L120.844778,532.967195 L119.844778,532.967195 Z M119.844778,515.967195 L119.844778,508.967195 L120.844778,508.967195 L120.844778,515.967195 L119.844778,515.967195 Z M119.844778,498.967195 L119.844778,491.967195 L120.844778,491.967195 L120.844778,498.967195 L119.844778,498.967195 Z M119.844778,481.967195 L119.844778,474.967195 L120.844778,474.967195 L120.844778,481.967195 L119.844778,481.967195 Z M119.844778,464.967195 L119.844778,457.967195 L120.844778,457.967195 L120.844778,464.967195 L119.844778,464.967195 Z M119.844778,447.967195 L119.844778,440.967195 L120.844778,440.967195 L120.844778,447.967195 L119.844778,447.967195 Z M119.844778,430.967195 L119.844778,423.967195 L120.844778,423.967195 L120.844778,430.967195 L119.844778,430.967195 Z M119.844778,413.967195 L119.844778,406.967195 L120.844778,406.967195 L120.844778,413.967195 L119.844778,413.967195 Z M119.844778,396.967195 L119.844778,389.967195 L120.844778,389.967195 L120.844778,396.967195 L119.844778,396.967195 Z M119.844778,379.967195 L119.844778,372.967195 L120.844778,372.967195 L120.844778,379.967195 L119.844778,379.967195 Z M119.844778,362.967195 L119.844778,355.967195 L120.844778,355.967195 L120.844778,362.967195 L119.844778,362.967195 Z M119.844778,345.967195 L119.844778,338.967195 L120.844778,338.967195 L120.844778,345.967195 L119.844778,345.967195 Z" id="Shape" fill="#A587FF" fill-rule="nonzero"></path>
        </g>
    </g>
</svg>