<?xml version="1.0" encoding="UTF-8"?>
<svg width="1440px" height="1024px" viewBox="0 0 1440 1024" version="1.1" xmlns="http://www.w3.org/2000/svg" xmlns:xlink="http://www.w3.org/1999/xlink">
    <!-- Generator: Sketch 53.2 (72643) - https://sketchapp.com -->
    <title>Social Media Marketing</title>
    <desc>Created with Sketch.</desc>
    <defs>
        <linearGradient x1="50%" y1="-2.48949813e-15%" x2="50%" y2="100%" id="linearGradient-1">
            <stop stop-color="#4DBCFA" offset="0%"></stop>
            <stop stop-color="#1486DB" offset="100%"></stop>
        </linearGradient>
        <linearGradient x1="4.76643799%" y1="37.1557748%" x2="100%" y2="65.3596994%" id="linearGradient-2">
            <stop stop-color="#6EAE7C" offset="0%"></stop>
            <stop stop-color="#0F575D" offset="100%"></stop>
        </linearGradient>
        <linearGradient x1="36.1805563%" y1="13.1381206%" x2="52.1816675%" y2="50%" id="linearGradient-3">
            <stop stop-color="#CFE49F" offset="0%"></stop>
            <stop stop-color="#A9D386" offset="100%"></stop>
        </linearGradient>
        <linearGradient x1="34.1151714%" y1="33.9683678%" x2="64.8333502%" y2="52.4070359%" id="linearGradient-4">
            <stop stop-color="#77D791" offset="0%"></stop>
            <stop stop-color="#4FA67E" offset="100%"></stop>
        </linearGradient>
        <linearGradient x1="50%" y1="0%" x2="50%" y2="91.8482298%" id="linearGradient-5">
            <stop stop-color="#EAFCFF" offset="0%"></stop>
            <stop stop-color="#FFFFFF" offset="100%"></stop>
        </linearGradient>
        <linearGradient x1="50%" y1="7.26438915%" x2="50%" y2="151.05781%" id="linearGradient-6">
            <stop stop-color="#D0F6FF" offset="0%"></stop>
            <stop stop-color="#8BE2F7" offset="100%"></stop>
        </linearGradient>
        <linearGradient x1="50%" y1="7.26438915%" x2="50%" y2="151.05781%" id="linearGradient-7">
            <stop stop-color="#D0F6FF" offset="0%"></stop>
            <stop stop-color="#8BE2F7" offset="100%"></stop>
        </linearGradient>
        <linearGradient x1="50%" y1="50.8326504%" x2="50.9350565%" y2="49.6865544%" id="linearGradient-8">
            <stop stop-color="#2B3389" offset="0%"></stop>
            <stop stop-color="#444FB7" offset="100%"></stop>
        </linearGradient>
        <linearGradient x1="50%" y1="82.5844107%" x2="50.9350565%" y2="37.7338212%" id="linearGradient-9">
            <stop stop-color="#2B3389" offset="0%"></stop>
            <stop stop-color="#444FB7" offset="100%"></stop>
        </linearGradient>
        <linearGradient x1="82.5767258%" y1="-52.951376%" x2="82.5767258%" y2="186.664812%" id="linearGradient-10">
            <stop stop-color="#1533B6" offset="0%"></stop>
            <stop stop-color="#356BE9" offset="100%"></stop>
        </linearGradient>
        <linearGradient x1="50%" y1="0%" x2="50%" y2="100%" id="linearGradient-11">
            <stop stop-color="#1D2A78" offset="0%"></stop>
            <stop stop-color="#12033B" offset="100%"></stop>
        </linearGradient>
        <linearGradient x1="50%" y1="-27.3641552%" x2="50%" y2="100%" id="linearGradient-12">
            <stop stop-color="#C0E4FD" offset="0%"></stop>
            <stop stop-color="#72B9FE" offset="100%"></stop>
        </linearGradient>
        <linearGradient x1="50%" y1="-27.3641552%" x2="50%" y2="100%" id="linearGradient-13">
            <stop stop-color="#C0E4FD" offset="0%"></stop>
            <stop stop-color="#72B9FE" offset="100%"></stop>
        </linearGradient>
        <linearGradient x1="50%" y1="0%" x2="50%" y2="100%" id="linearGradient-14">
            <stop stop-color="#FF9485" offset="0%"></stop>
            <stop stop-color="#FF676E" offset="100%"></stop>
        </linearGradient>
        <linearGradient x1="50%" y1="0%" x2="50%" y2="100%" id="linearGradient-15">
            <stop stop-color="#FF9485" offset="0%"></stop>
            <stop stop-color="#FF676E" offset="100%"></stop>
        </linearGradient>
        <linearGradient x1="82.5767258%" y1="-52.951376%" x2="82.5767258%" y2="186.664812%" id="linearGradient-16">
            <stop stop-color="#1533B6" offset="0%"></stop>
            <stop stop-color="#356BE9" offset="100%"></stop>
        </linearGradient>
        <linearGradient x1="50%" y1="0%" x2="50%" y2="100%" id="linearGradient-17">
            <stop stop-color="#FF9485" offset="0%"></stop>
            <stop stop-color="#FF676E" offset="100%"></stop>
        </linearGradient>
        <linearGradient x1="50%" y1="0%" x2="50%" y2="100%" id="linearGradient-18">
            <stop stop-color="#1D2A78" offset="0%"></stop>
            <stop stop-color="#12033B" offset="100%"></stop>
        </linearGradient>
        <linearGradient x1="50%" y1="83.185428%" x2="50.9350565%" y2="37.5075724%" id="linearGradient-19">
            <stop stop-color="#2B3389" offset="0%"></stop>
            <stop stop-color="#444FB7" offset="100%"></stop>
        </linearGradient>
        <linearGradient x1="50%" y1="-2.48949813e-15%" x2="50%" y2="100%" id="linearGradient-20">
            <stop stop-color="#4DBCFA" offset="0%"></stop>
            <stop stop-color="#1486DB" offset="100%"></stop>
        </linearGradient>
    </defs>
    <g id="Social-Media-Marketing" stroke="none" stroke-width="1" fill="none" fill-rule="evenodd">
        <rect fill="#FFFFFF" x="0" y="0" width="1440" height="1024"></rect>
        <g id="Ornament" transform="translate(91.609723, 825.390277)" fill="url(#linearGradient-1)">
            <path d="M178.044068,178.263514 C178.044068,97.2774657 178.044068,-5.11061097 178.044068,-58 C112.297845,-58 59,-5.11061097 59,60.1317568 C59,125.374124 112.297845,178.263514 178.044068,178.263514 Z" id="Shape" transform="translate(118.522034, 60.131757) rotate(-270.000000) translate(-118.522034, -60.131757) "></path>
        </g>
        <g id="Plant" transform="translate(1131.000000, 78.000000)">
            <path d="M39.4981201,164.85314 C63.4566962,71.748516 121.682551,39.0261602 214.175686,66.686073 C206.306031,108.785983 187.576224,141.226961 157.986264,164.009006 C128.396305,186.791051 88.9002567,187.07243 39.4981201,164.85314 Z" id="Shape" fill="url(#linearGradient-2)"></path>
            <path d="M110.90666,123.31975 L114.182626,91.2147532 C114.317975,89.8883075 116.307644,90.0913315 116.172294,91.4177773 L113.04009,122.113892 C137.314607,108.396862 167.641093,91.3752098 204.021245,71.0479371 C204.503374,70.7785492 205.112599,70.9510101 205.381987,71.4331393 C205.651375,71.9152686 205.478914,72.5244936 204.996785,72.7938815 C185.072124,83.9267104 166.963277,94.0680217 150.670521,103.217651 L178.847155,109.94056 C179.38436,110.068737 179.715944,110.608135 179.587767,111.14534 C179.459591,111.682545 178.920192,112.014128 178.382987,111.885952 L148.101203,104.660756 C135.046861,111.994186 123.186404,118.675692 112.519979,124.705186 C112.425529,124.787184 112.316344,124.847239 112.199917,124.886116 C100.139932,131.70388 89.6132281,137.684383 80.6200223,142.827497 L106.833213,152.40034 C107.351987,152.589792 107.618955,153.163922 107.429503,153.682696 C107.240051,154.20147 106.66592,154.468438 106.147147,154.278986 L78.4735497,144.172815 C78.4334076,144.158155 78.3947731,144.141192 78.3577411,144.12213 C64.2878892,152.17938 54.1992515,158.062628 48.0927331,161.771343 C47.6206877,162.058034 47.0056105,161.907774 46.7189198,161.435729 C46.4322291,160.963683 46.5824889,160.348606 47.0545343,160.061915 C57.2599898,153.863764 78.5426306,141.617201 110.90666,123.31975 Z" id="Shape" fill="#FFFFFF" fill-rule="nonzero"></path>
            <path d="M50.2925002,192.93029 C1.39886056,110.154107 19.4325579,45.8440106 104.393592,5.68434189e-14 C128.598038,35.3338181 138.293299,71.5170271 133.479377,108.549627 C128.665455,145.582227 100.936496,173.709114 50.2925002,192.93029 Z" id="Shape" fill="url(#linearGradient-3)"></path>
            <path d="M71.4174312,113.068298 L51.0322176,88.0501669 C50.1899853,87.0165217 51.7404532,85.7531732 52.5826855,86.7868184 L72.0733233,110.707065 C79.5385941,83.8429829 88.9465331,50.3627908 100.297634,10.2645827 C100.448065,9.73317982 101.0008,9.42434098 101.532203,9.57477183 C102.063606,9.72520267 102.372445,10.2779381 102.222014,10.809341 C96.0052518,32.7702963 90.3713544,52.7461701 85.3204025,70.7366492 L109.99809,55.5665848 C110.468586,55.2773579 111.084463,55.4243053 111.37369,55.8948011 C111.662917,56.3652968 111.515969,56.9811737 111.045474,57.2704006 L84.5240498,73.5738611 C80.4787456,87.9902222 76.8166666,101.101395 73.537856,112.907212 C73.5290457,113.031934 73.4943191,113.151562 73.4395101,113.261343 C69.7326936,126.609949 66.518039,138.282324 63.7956093,148.278225 L89.1001411,136.51173 C89.6009325,136.278864 90.1956791,136.496061 90.4285449,136.996852 C90.6614106,137.497643 90.444214,138.09239 89.9434227,138.325256 L63.2290923,150.747301 C63.1903464,150.765318 63.151038,150.78064 63.1113783,150.793346 C58.8598251,166.439575 55.8861651,177.733407 54.1906615,184.673826 C54.0595959,185.210334 53.518421,185.539009 52.9819135,185.407944 C52.4454061,185.276878 52.1167305,184.735703 52.2477961,184.199196 C55.0813881,172.600095 61.4708588,148.89137 71.4174312,113.068298 L71.4174312,113.068298 Z" id="Shape" fill="#FFFFFF" fill-rule="nonzero"></path>
            <path d="M-2.27373675e-13,227.324394 C47.2394574,143.593169 111.950484,127.05576 194.133079,177.712169 C175.635317,216.340743 149.14737,242.82869 114.669237,257.176011 C80.1911033,271.523332 41.9680244,261.572793 -2.27373675e-13,227.324394 Z" id="Shape" fill="url(#linearGradient-4)" fill-rule="nonzero"></path>
            <path d="M79.7249871,205.688105 L91.1987099,175.524946 C91.6727567,174.278729 93.5420825,174.9898 93.0680357,176.236017 L82.097821,205.075508 C109.095432,198.108582 142.794094,189.516001 183.195706,179.29724 C183.731129,179.161816 184.274959,179.486079 184.410384,180.021503 C184.545808,180.556927 184.221545,181.100757 183.686121,181.236181 C161.558988,186.832787 141.442419,191.941627 123.336727,196.562615 L148.813254,210.349099 C149.298979,210.611947 149.479657,211.218786 149.21681,211.704511 C148.953962,212.190237 148.347123,212.370915 147.861397,212.108067 L120.481453,197.291559 C105.973905,200.996393 92.78829,204.380518 80.9247726,207.443887 C80.8123068,207.498654 80.6912845,207.528407 80.5687493,207.535824 C67.1551379,210.999923 55.4392605,214.052132 45.4213591,216.692384 L68.2637271,232.723517 C68.7157905,233.040782 68.825066,233.664446 68.5078008,234.116509 C68.1905357,234.568573 67.5668717,234.677848 67.1148084,234.360583 L42.9998362,217.436317 C42.9648547,217.411766 42.9319258,217.385381 42.9010882,217.357383 C27.2252857,221.498542 15.9577136,224.570192 9.09938382,226.572052 C8.56922192,226.7268 8.01399309,226.422467 7.85924551,225.892305 C7.70449794,225.362143 8.00883137,224.806914 8.53899326,224.652166 C20.0009063,221.306578 43.728004,214.985659 79.7249871,205.688105 Z" id="Shape" fill="#FFFFFF" fill-rule="nonzero"></path>
        </g>
        <g id="Tab" transform="translate(542.000000, 165.000000)">
            <path d="M36,7.95807864e-13 L604.077745,7.95807864e-13 C623.959996,8.52651283e-13 640.077745,16.117749 640.077745,36 L640.077745,744.364656 C640.077745,764.246907 623.959996,780.364656 604.077745,780.364656 L36,780.364656 C16.117749,780.364656 -6.31088724e-30,764.246907 -6.31088724e-30,744.364656 L-6.31088724e-30,36 C-6.31088724e-30,16.117749 16.117749,7.95807864e-13 36,7.95807864e-13 Z" id="Shape" fill="url(#linearGradient-5)"></path>
            <path d="M114,537 L390,537 L390,581 L114,581 L114,537 Z M114,614 L600,614 L600,658 L114,658 L114,614 Z M114,691 L600,691 L600,735 L114,735 L114,691 Z" id="Shape" fill="url(#linearGradient-6)"></path>
            <polygon id="Shape" fill="url(#linearGradient-7)" points="114 134 600 134 600 494 114 494"></polygon>
            <path d="M36,3.41060513e-13 L604.077745,3.41060513e-13 C623.959996,3.41060513e-13 640.077745,16.117749 640.077745,36 L640.077745,73 L0,73 L0,36 C0,16.117749 16.117749,3.41060513e-13 36,3.41060513e-13 Z" id="Shape" fill="url(#linearGradient-8)"></path>
        </g>
        <g id="Video" transform="translate(276.000000, 701.000000)">
            <path d="M20,-5.04870979e-29 L322,-5.04870979e-29 C333.045695,-2.02906125e-15 342,8.954305 342,20 L342,224 C342,235.045695 333.045695,244 322,244 L20,244 C8.954305,244 1.3527075e-15,235.045695 0,224 L0,20 C-1.3527075e-15,8.954305 8.954305,2.02906125e-15 20,-5.04870979e-29 Z" id="Shape" fill="url(#linearGradient-9)"></path>
            <polygon id="Shape" fill="#FFFFFF" points="104 55 239 122.5 104 190"></polygon>
        </g>
        <g id="Men" transform="translate(167.766647, 130.996128)">
            <polygon id="Shape" fill="#F4B696" points="19.5064739 651.420749 43.2720228 651.420749 43.2720228 675.193362 19.5064739 675.193362"></polygon>
            <polygon id="Shape" fill="#F4B696" points="155.482812 527.420749 179.248361 527.420749 179.248361 551.193362 155.482812 551.193362"></polygon>
            <polygon id="Shape" fill="#121958" points="47.5573883 665.865748 16.6486004 665.865748 3.08220557 360.176537 90.2333533 373.352005"></polygon>
            <path d="M186.344467,541.162176 L151.708784,541.162176 L143.984867,441.599308 L69.3569122,437.871112 C32.5147581,436.030586 3.42243006,405.916832 2.85382531,369.033115 L159.777794,369.033115 C181.869184,369.033115 199.777794,386.941725 199.777794,409.033115 C199.777794,410.4056 199.707155,411.777175 199.566157,413.142398 L186.344467,541.162176 Z" id="Shape" fill="url(#linearGradient-10)"></path>
            <path d="M62.4264465,189.235195 L29.8779325,184.656688 L31.6283291,172.190775 C25.767312,159.703536 25.8400533,143.517318 31.8465529,123.632122 C37.8530524,103.746926 54.6696718,100.575914 82.296411,114.119087 C81.4389541,125.961536 83.4708995,133.802298 88.392247,137.641372 C95.7742683,143.399984 92.9079759,147.403544 89.9051949,148.355329 C86.9024139,149.307114 84.7539643,151.340885 84.6418515,158.262028 C84.5297387,165.18317 80.1947023,165.94674 73.3583966,167.725706 C68.8008594,168.911683 65.1568761,176.081513 62.4264465,189.235195 Z" id="Shape" fill="#F4B696"></path>
            <path d="M31.0523702,171.38026 C28.1693345,170.292199 26.5112837,168.486955 26.0782177,165.964528 C25.4286189,162.180887 27.6280097,160.426075 20.1955177,152.644291 C12.7630257,144.862507 6.79955492,134.57882 11.5396575,116.685571 C16.2797601,98.7923215 27.0096825,97.3379343 37.7105866,96.4288301 C48.4114907,95.5197259 52.7545233,96.7700377 67.462972,91.962403 C82.1714207,87.1547682 89.5665418,96.7353387 86.3435766,111.354419 C83.1206115,125.973499 61.0149695,125.410178 57.1324523,124.864036 C53.249935,124.317893 55.1641165,130.158779 55.5461575,136.161255 C55.9281985,142.163731 52.0909224,143.455995 50.6901617,142.604855 C49.2894009,141.753716 46.3121609,140.757906 43.5953919,144.059503 C40.8786229,147.3611 43.5150182,152.63158 45.6478278,152.931596 C47.7806374,153.231612 50.6210442,152.618915 50.7148072,155.05055 C50.8085702,157.482186 49.5025457,164.961402 46.9969411,168.907105 C45.3265379,171.537574 40.011681,172.361959 31.0523702,171.38026 Z" id="Shape" fill="url(#linearGradient-11)"></path>
            <path d="M154.145734,136.421488 C159.223968,135.085315 162.753174,132.895577 164.733353,129.852273 C167.703622,125.287318 179.191717,115.098191 185.5446,117.614313 C191.897483,120.130436 196.99927,125.701777 195.186889,133.479134 C193.374509,141.256491 185.233353,144.427655 178.233353,145.609161 C171.233353,146.790666 167.006402,149.506056 162.838799,152.772537 C160.060398,154.950191 157.162709,149.499841 154.145734,136.421488 Z" id="Shape" fill="#F4B696"></path>
            <path d="M163.516262,132.119875 C164.033965,125.174195 165.282906,121.109259 167.263085,119.925067 C169.243264,118.740875 172.569413,121.170573 177.241531,127.214163 L163.516262,132.119875 Z" id="Shape" fill="#FE9F9F"></path>
            <path d="M154.162504,548.55196 L179.124345,548.55196 L194.93673,553.834763 C202.904584,556.659425 209.615452,557.812274 209.615452,566.66049 C209.615452,568.933459 208.110777,570.776065 206.254667,570.776065 L159.442504,570.776065 C156.526441,570.776065 154.162504,568.412129 154.162504,565.496065 L154.162504,548.55196 Z" id="Shape" fill="#021038"></path>
            <path d="M18.1861656,672.55196 L43.1480063,672.55196 L58.9603918,677.834763 C66.9282454,680.659425 73.6391132,681.812274 73.6391132,690.66049 C73.6391132,692.933459 72.1344386,694.776065 70.2783285,694.776065 L23.4661656,694.776065 C20.5501021,694.776065 18.1861656,692.412129 18.1861656,689.496065 L18.1861656,672.55196 Z" id="Shape" fill="#021038"></path>
            <path d="M144.050729,109.152175 L170.430712,95.7109024 L195.154306,138.970418 C195.999686,140.449602 195.472934,142.339876 193.977771,143.192464 C193.934916,143.216901 193.891492,143.240328 193.847536,143.262725 L185.493586,147.519275 C184.287797,148.133655 182.827353,147.907584 181.879001,146.95975 L144.050729,109.152175 Z" id="Shape" fill="#0737A3"></path>
            <path d="M222.722406,7.13981471 L262.219579,84.6573823 L159.03859,118.257572 C149.827702,121.257035 139.745111,117.998416 134.067438,110.18708 C128.640862,102.721201 129.696902,92.365765 136.522559,86.1123928 L222.722406,7.13981471 Z" id="Shape" fill="#00ADFF"></path>
            <ellipse id="Shape" fill="#0737A3" transform="translate(243.337581, 45.500000) rotate(-27.000000) translate(-243.337581, -45.500000) " cx="243.337581" cy="45.5" rx="13" ry="43.5"></ellipse>
            <path d="M163.31327,308.044014 C170.268293,309.813993 174.57655,309.813993 176.238043,308.044014 C177.899536,306.274035 179.617596,303.717259 181.392222,300.373686 C185.404199,302.69261 186.706286,305.460764 185.298483,308.678151 C190.789315,308.839867 194.604078,309.781483 196.742771,311.502998 C199.95081,314.085271 199.415917,326.840652 192.858555,331.206461 C186.301194,335.572269 177.876889,330.418807 172.909747,329.81025 C169.598319,329.404546 165.234778,328.592464 159.819124,327.374005 L163.31327,308.044014 Z" id="Shape" fill="#F4B696"></path>
            <polygon id="Shape" fill="url(#linearGradient-12)" points="52.5155325 189.653775 155.493541 133.003872 168.297434 151.359448 85.2452844 229.635034"></polygon>
            <path d="M51.6056988,380.49591 L52.3762352,379.710879 L57.8714518,385.104634 L57.1009154,385.889665 L51.6056988,380.49591 Z M64.9510228,393.59483 L65.7214754,392.809717 C67.5389406,394.593244 69.4882349,396.230806 71.5520103,397.709775 L70.9112595,398.603888 C68.8015664,397.092013 66.8089033,395.418018 64.9510228,393.59483 Z M80.6060215,404.047109 L81.0358174,403.03455 C83.3750508,404.027473 85.7883655,404.839082 88.2544114,405.461565 L87.9851922,406.528111 C85.4642821,405.891779 82.9972843,405.062117 80.6060215,404.047109 Z M98.9520512,408.120952 L99.0424174,407.02467 L106.71639,407.657234 L106.626024,408.753516 L98.9520512,408.120952 Z M117.588843,409.657178 L117.679209,408.560896 L125.353182,409.193459 L125.262816,410.289741 L117.588843,409.657178 Z M136.225635,411.193403 L136.316001,410.097121 L143.989974,410.729685 L143.899607,411.825967 L136.225635,411.193403 Z M154.862426,412.729629 L154.952792,411.633347 L156.601489,411.769249 C158.782596,411.949037 160.817657,412.790647 162.47115,414.163786 L161.76839,415.010029 C160.28723,413.780004 158.465533,413.026632 156.511123,412.86553 L154.862426,412.729629 Z M165.233526,424.535684 L166.33329,424.51288 L166.492923,432.211225 L165.393159,432.234029 L165.233526,424.535684 Z M165.621207,443.231665 L166.72097,443.20886 L166.880603,450.907205 L165.78084,450.93001 L165.621207,443.231665 Z M166.008887,461.927646 L167.108651,461.904841 L167.268284,469.603186 L166.16852,469.625991 L166.008887,461.927646 Z M166.396567,480.623627 L167.496331,480.600822 L167.655964,488.299167 L166.556201,488.321972 L166.396567,480.623627 Z M166.784248,499.319607 L167.884012,499.296803 L168.043645,506.995148 L166.943881,507.017952 L166.784248,499.319607 Z M167.171928,518.015588 L168.271692,517.992783 L168.431325,525.691128 L167.331562,525.713933 L167.171928,518.015588 Z" id="Shape" fill="#A587FF" fill-rule="nonzero"></path>
            <path d="M109.233353,369.057898 L3.07813897,370.914958 L0,221.638501 C1.18549947,195.447912 12.8935199,182.352617 35.1240614,182.352617 C68.4698737,182.352617 102.930471,185.648443 102.930471,234.64105 L105.846384,285.216796 L168.092643,305.802424 L166.388474,331.003872 L105.846384,325.564292 L109.233353,369.057898 Z" id="Shape" fill="url(#linearGradient-13)"></path>
            <path d="M105.842653,325.564292 L106.624206,335.119763 L71.8460919,324.805656 L71.3047515,261.266273 L79.9955211,307.350355 C81.111304,313.266958 85.2734273,318.152018 90.9377645,320.193205 L105.842653,325.564292 Z" id="Shape" fill="#221E41"></path>
            <path d="M176.474755,118.507256 C179.133585,116.259572 181.758059,115.355155 184.348177,115.794003 C188.233353,116.452276 192.406024,119.816306 194.592127,125.701777 C196.778231,131.587247 194.930288,134.910995 193.486335,137.066839 C192.042381,139.222684 188.026733,140.077377 187.031543,137.066839 C186.368083,135.059815 187.300556,133.211341 189.828964,131.52142 C186.182663,133.29451 183.584126,133.737783 182.033353,132.851238 C179.707194,131.52142 182.660001,128.699914 184.348177,127.351893 C181.035118,129.596539 178.894616,130.157701 177.926671,129.035378 C176.474755,127.351893 177.75998,124.305898 180.337331,122.535462 C177.371209,124.648306 175.319061,125.176517 174.180885,124.120095 C173.04271,123.063673 173.807333,121.192727 176.474755,118.507256 Z" id="Shape" fill="#FE9F9F"></path>
        </g>
        <g id="Content" transform="translate(100.000000, 256.000000)">
            <circle id="Shape" fill="url(#linearGradient-14)" cx="934.5" cy="74.5" r="74.5"></circle>
            <path d="M967.272057,79.1383845 L934.263456,112.033009 L901.254854,79.1383845 C891.581715,69.4986461 891.581715,53.8695422 901.254854,44.2298038 C910.280107,35.2357154 924.537348,34.6333097 934.263456,42.4225867 C943.989564,34.6333097 958.246805,35.2357154 967.272057,44.2298038 C976.945197,53.8695422 976.945197,69.4986461 967.272057,79.1383845 Z" id="Shape" fill="#FFFFFF"></path>
            <path d="M2.84217094e-14,330 L144.003897,330 C171.618134,330 194.003897,352.385763 194.003897,380 L194.003897,438 L50,438 C22.3857625,438 2.48689958e-14,415.614237 2.13162821e-14,388 L2.84217094e-14,330 Z" id="Shape" fill="url(#linearGradient-15)"></path>
            <path d="M53.9601555,391.253857 C48.6573631,391.253857 44.3586006,386.953781 44.3586006,381.649369 C44.3586006,376.344957 48.6573631,372.044881 53.9601555,372.044881 C59.2629478,372.044881 63.5617104,376.344957 63.5617104,381.649369 C63.5617104,386.953781 59.2629478,391.253857 53.9601555,391.253857 Z M97.1671526,391.253857 C91.8643602,391.253857 87.5655977,386.953781 87.5655977,381.649369 C87.5655977,376.344957 91.8643602,372.044881 97.1671526,372.044881 C102.469945,372.044881 106.768707,376.344957 106.768707,381.649369 C106.768707,386.953781 102.469945,391.253857 97.1671526,391.253857 Z M140.37415,391.253857 C135.071357,391.253857 130.772595,386.953781 130.772595,381.649369 C130.772595,376.344957 135.071357,372.044881 140.37415,372.044881 C145.676942,372.044881 149.975705,376.344957 149.975705,381.649369 C149.975705,386.953781 145.676942,391.253857 140.37415,391.253857 Z" id="Shape" fill="#FFFFFF"></path>
            <path d="M722,447 L866.003897,447 C893.618134,447 916.003897,469.385763 916.003897,497 L916.003897,555 L772,555 C744.385763,555 722,532.614237 722,505 L722,447 Z" id="Shape" fill="url(#linearGradient-15)"></path>
            <path d="M775.960155,508.253857 C770.657363,508.253857 766.358601,503.953781 766.358601,498.649369 C766.358601,493.344957 770.657363,489.044881 775.960155,489.044881 C781.262948,489.044881 785.56171,493.344957 785.56171,498.649369 C785.56171,503.953781 781.262948,508.253857 775.960155,508.253857 Z M819.167153,508.253857 C813.86436,508.253857 809.565598,503.953781 809.565598,498.649369 C809.565598,493.344957 813.86436,489.044881 819.167153,489.044881 C824.469945,489.044881 828.768707,493.344957 828.768707,498.649369 C828.768707,503.953781 824.469945,508.253857 819.167153,508.253857 Z M862.37415,508.253857 C857.071357,508.253857 852.772595,503.953781 852.772595,498.649369 C852.772595,493.344957 857.071357,489.044881 862.37415,489.044881 C867.676942,489.044881 871.975705,493.344957 871.975705,498.649369 C871.975705,503.953781 867.676942,508.253857 862.37415,508.253857 Z" id="Shape" fill="#FFFFFF"></path>
        </g>
        <g id="Women" transform="translate(1065.811565, 362.000000)">
            <polygon id="Shape" fill="#211D41" points="116.188435 156.5914 116.188435 119.5646 159.188435 116 159.188435 160.081565"></polygon>
            <path d="M70.7323469,568.84494 C75.1385514,566.236725 79.2546046,564.236539 83.0805064,562.844382 C88.8193582,560.755996 89.1880731,562.902193 89.1883238,565.366559 C89.1885745,567.830924 89.1883236,573.363617 89.1883238,577.832514 C89.1884001,582.301487 87.8041378,582.794527 79.9352498,582.257195 C72.0663618,581.719864 71.1041074,580.991779 62.8501439,582.257195 C54.5961803,583.522612 37.9357134,583.280428 34.3029333,577.478074 C30.6704591,571.675721 42.3901257,569.292501 52.6341618,567.903013 C59.4634174,566.976586 65.4961458,567.290562 70.7323469,568.84494 Z" id="Shape" fill="#021038"></path>
            <path d="M93.7122165,542 L89.1884352,565.922493 L84.0020051,567.951348 C74.5757174,571.638773 64.050917,571.307283 54.875361,567.033973 L67.5605282,564.298292 L67.5605282,542 L93.7122165,542 Z" id="Shape" fill="#F4B696"></path>
            <path d="M200.732347,568.84494 C205.138551,566.236725 209.254605,564.236539 213.080506,562.844382 C218.819358,560.755996 219.188073,562.902193 219.188324,565.366559 C219.188574,567.830924 219.188324,573.363617 219.188324,577.832514 C219.1884,582.301487 217.804138,582.794527 209.93525,582.257195 C202.066362,581.719864 201.104107,580.991779 192.850144,582.257195 C184.59618,583.522612 167.935713,583.280428 164.302933,577.478074 C160.670459,571.675721 172.390126,569.292501 182.634162,567.903013 C189.463417,566.976586 195.496146,567.290562 200.732347,568.84494 Z" id="Shape" fill="#021038"></path>
            <path d="M219.188435,542 L219.188435,565.922493 L214.002005,567.951348 C204.575717,571.638773 194.050917,571.307283 184.875361,567.033973 L197.560528,564.298292 L197.560528,542 L219.188435,542 Z" id="Shape" fill="#F4B696"></path>
            <polygon id="Shape" fill="#211D41" points="194.510816 555.177226 148.59329 267.752511 235.188435 266 222.639449 555.177226"></polygon>
            <path d="M63.314381,553.211439 L88.1666733,385.459783 C88.4164259,383.773967 88.8918539,382.129416 89.5801641,380.570383 L139.307636,267.936942 L235.188435,267 L234.235201,286.909781 C232.927072,314.232083 220.483879,339.825915 199.803869,357.730008 L139.307636,410.105719 L93.0651364,553.211439 L63.314381,553.211439 Z" id="Shape" fill="url(#linearGradient-16)"></path>
            <path d="M20.5697735,13.3319468 C22.5326105,11.8088524 25.5411064,11.0315368 29.5952612,11 C29.6629235,14.4846102 30.0007473,17.7084927 30.6087324,20.6716475 C31.2167175,23.6348023 33.0766184,27.5401877 36.1884352,32.3878036 L35.4553365,33.2748195 C36.0275186,33.7758835 36.6052182,34.2544296 37.1884352,34.7104577 L23.3580354,50.9519645 C6.5257621,38.4519767 -1.20925347,28.0590944 0.152988722,19.7733179 C1.51523091,11.4875413 6.62987926,6.22976868 15.4969338,4 C17.2849565,7.42544308 18.9759031,10.536092 20.5697735,13.3319468 L20.5697735,13.3319468 Z" id="Shape" fill="#F4B696"></path>
            <path d="M176.109915,96.1311308 C172.541753,81.4795009 168.244442,74.1536859 163.217981,74.1536859 C155.678289,74.1536859 151.963424,69.7626319 150.818105,63.2879779 C150.580631,61.9455032 150.116854,59.152819 149.426774,54.9099252 L143.599494,53.8985452 L145.589203,25.2236185 C173.495979,13.6663446 190.806435,16.7151985 197.520572,34.3701803 C204.234709,52.0251621 204.234709,66.7499282 197.520572,78.5444784 L199.900297,89.7402023 L176.109915,96.1311308 Z" id="Shape" fill="#F4B696"></path>
            <path d="M182.019625,88.1913764 L195.188435,88.1913764 C218.384395,88.1913764 237.188435,106.995417 237.188435,130.191376 L237.188435,268.058443 L139.57884,268.058443 L144.97077,178.787229 C136.933065,172.795178 132.245043,165.022474 130.906702,155.469118 C129.568362,145.915762 132.459074,137.834587 139.57884,131.225593 L62.0548005,94.6785195 C59.7048361,93.5706783 57.593227,92.015598 55.8379893,90.1001906 L17.1086431,47.8366975 L35.5227658,29 L72.8060722,59.5167418 C140.811183,78.6331649 177.2157,88.1913764 182.019625,88.1913764 Z" id="Shape" fill="url(#linearGradient-17)"></path>
            <path d="M82.2689379,537.17849 L81.2923851,536.963212 L82.7993321,530.127342 L83.7758849,530.342621 L82.2689379,537.17849 Z M85.9286664,520.577093 L84.9521136,520.361815 L86.4590607,513.525945 L87.4356134,513.741223 L85.9286664,520.577093 Z M89.5883949,503.975696 L88.6118422,503.760418 L90.1187892,496.924548 L91.095342,497.139826 L89.5883949,503.975696 Z M93.2481235,487.374299 L92.2715707,487.15902 L93.7785177,480.323151 L94.7550705,480.538429 L93.2481235,487.374299 Z M96.907852,470.772901 L95.9312992,470.557623 L97.4382463,463.721754 L98.414799,463.937032 L96.907852,470.772901 Z M100.567581,454.171504 L99.5910278,453.956226 L101.097975,447.120357 L102.074528,447.335635 L100.567581,454.171504 Z M104.227309,437.570107 L103.250756,437.354829 L104.757703,430.51896 L105.734256,430.734238 L104.227309,437.570107 Z M107.887038,420.96871 L106.910485,420.753432 L108.417432,413.917562 L109.393985,414.132841 L107.887038,420.96871 Z M111.546766,404.367313 L110.570213,404.152035 L112.07716,397.316165 L113.053713,397.531443 L111.546766,404.367313 Z M116.108511,388.159642 L115.218552,387.7036 C115.869299,386.433679 116.608709,385.210313 117.431677,384.0426 L119.037501,381.764088 L119.854897,382.340163 L118.249073,384.618675 C117.453087,385.748104 116.737921,386.931358 116.108511,388.159642 Z M125.615653,374.166199 L124.798257,373.590123 L128.830786,367.868348 L129.648182,368.444424 L125.615653,374.166199 Z M135.408938,360.270459 L134.591541,359.694384 L138.62407,353.972609 L139.441467,354.548684 L135.408938,360.270459 Z M145.202222,346.37472 L144.384826,345.798644 L148.417355,340.076869 L149.234751,340.652945 L145.202222,346.37472 Z M154.995507,332.47898 L154.17811,331.902905 L158.210639,326.181129 L159.028036,326.757205 L154.995507,332.47898 Z M164.788791,318.583241 L163.971395,318.007165 L168.003924,312.28539 L168.82132,312.861465 L164.788791,318.583241 Z M174.582076,304.687501 L173.764679,304.111425 L177.797208,298.38965 L178.614605,298.965726 L174.582076,304.687501 Z M184.375361,290.791762 L183.557964,290.215686 L187.590493,284.493911 L188.407889,285.069986 L184.375361,290.791762 Z M194.168645,276.896022 L193.351249,276.319946 L193.779737,275.711962 L194.597133,276.288038 L194.168645,276.896022 Z" id="Shape" fill="#A587FF" fill-rule="nonzero"></path>
            <path d="M150.178145,36.2045203 C132.675871,33.3956676 137.359681,7.7825793 153.639866,3.98730987 C169.920052,0.192040441 216.330936,-12.7931192 216.330936,44.0308668 C216.330936,100.854853 260.164184,70.8584964 278.071905,115.127322 C290.010385,144.639873 275.981491,168.545801 235.98522,186.845106 C235.98522,158.441864 242.866904,136.463676 210.057003,112.409301 C177.247102,88.3549262 181.089612,66.9664623 181.089612,53.344137 C181.089612,39.7218118 167.680418,39.0133731 150.178145,36.2045203 Z" id="Shape" fill="url(#linearGradient-18)"></path>
        </g>
        <g id="Image" transform="translate(394.000000, 298.000000)">
            <path d="M10,5.68434189e-14 L490,5.68434189e-14 C495.522847,5.68434189e-14 500,4.4771525 500,10 L500,350 C500,355.522847 495.522847,360 490,360 L10,360 C4.4771525,360 0,355.522847 0,350 L0,10 C0,4.4771525 4.4771525,5.68434189e-14 10,5.68434189e-14 Z" id="Shape" fill="url(#linearGradient-19)"></path>
            <polygon id="Shape" fill="#FFFFFF" points="30 290 130 290 130 305 30 305"></polygon>
            <polygon id="Shape" fill="#FFFFFF" points="30 320 230 320 230 335 30 335"></polygon>
            <polygon id="Shape" fill="#FFFFFF" points="30 30 470 30 470 270 30 270"></polygon>
            <path d="M469.5,110 C469.5,91.7963102 469.5,65.2963102 469.5,30.5 C430.605295,30.5 404.105295,30.5 390,30.5 C390,74.4066376 425.593362,110 469.5,110 Z" id="Shape" fill="url(#linearGradient-14)"></path>
            <polygon id="Shape" fill="url(#linearGradient-20)" points="250.5 121 325 270 176 270"></polygon>
            <polygon id="Shape" fill="url(#linearGradient-20)" points="133 64 236 270 30 270"></polygon>
        </g>
    </g>
</svg>