<?xml version="1.0" encoding="UTF-8"?>
<svg width="1440px" height="1024px" viewBox="0 0 1440 1024" version="1.1" xmlns="http://www.w3.org/2000/svg" xmlns:xlink="http://www.w3.org/1999/xlink">
    <!-- Generator: Sketch 53.2 (72643) - https://sketchapp.com -->
    <title>Startup launch</title>
    <desc>Created with Sketch.</desc>
    <defs>
        <linearGradient x1="50%" y1="7.26438915%" x2="50%" y2="151.05781%" id="linearGradient-1">
            <stop stop-color="#D0F6FF" offset="0%"></stop>
            <stop stop-color="#8BE2F7" offset="100%"></stop>
        </linearGradient>
        <linearGradient x1="50%" y1="0%" x2="50%" y2="100%" id="linearGradient-2">
            <stop stop-color="#FF9485" offset="0%"></stop>
            <stop stop-color="#FF676E" offset="100%"></stop>
        </linearGradient>
        <linearGradient x1="8.38174197%" y1="31.2307029%" x2="56.5702499%" y2="50%" id="linearGradient-3">
            <stop stop-color="#CFE49F" offset="0%"></stop>
            <stop stop-color="#A9D386" offset="100%"></stop>
        </linearGradient>
        <linearGradient x1="34.9261958%" y1="24.563533%" x2="66.6621901%" y2="80.4180658%" id="linearGradient-4">
            <stop stop-color="#6EAE7C" offset="0%"></stop>
            <stop stop-color="#0F575D" offset="100%"></stop>
        </linearGradient>
        <linearGradient x1="34.1151714%" y1="33.7956635%" x2="64.8333502%" y2="52.4329662%" id="linearGradient-5">
            <stop stop-color="#77D791" offset="0%"></stop>
            <stop stop-color="#4FA67E" offset="100%"></stop>
        </linearGradient>
        <linearGradient x1="50%" y1="50.0740015%" x2="50.9350565%" y2="49.9721427%" id="linearGradient-6">
            <stop stop-color="#2B3389" offset="0%"></stop>
            <stop stop-color="#444FB7" offset="100%"></stop>
        </linearGradient>
        <linearGradient x1="50%" y1="78.4511557%" x2="50.9350565%" y2="39.2897568%" id="linearGradient-7">
            <stop stop-color="#2B3389" offset="0%"></stop>
            <stop stop-color="#444FB7" offset="100%"></stop>
        </linearGradient>
        <linearGradient x1="50%" y1="0%" x2="51.5957764%" y2="89.3678428%" id="linearGradient-8">
            <stop stop-color="#0F1752" offset="0%"></stop>
            <stop stop-color="#272884" offset="100%"></stop>
        </linearGradient>
        <linearGradient x1="50%" y1="114.0151%" x2="50.0122409%" y2="25.9019529%" id="linearGradient-9">
            <stop stop-color="#2B3389" offset="0%"></stop>
            <stop stop-color="#444FB7" offset="100%"></stop>
        </linearGradient>
        <linearGradient x1="50%" y1="0%" x2="50%" y2="100%" id="linearGradient-10">
            <stop stop-color="#FF9485" offset="0%"></stop>
            <stop stop-color="#FF676E" offset="100%"></stop>
        </linearGradient>
        <linearGradient x1="50%" y1="49.94555%" x2="100%" y2="50.0428716%" id="linearGradient-11">
            <stop stop-color="#0F1752" offset="0%"></stop>
            <stop stop-color="#272884" offset="100%"></stop>
        </linearGradient>
        <linearGradient x1="82.5767258%" y1="-52.951376%" x2="82.5767258%" y2="186.664812%" id="linearGradient-12">
            <stop stop-color="#1533B6" offset="0%"></stop>
            <stop stop-color="#356BE9" offset="100%"></stop>
        </linearGradient>
        <linearGradient x1="50%" y1="0%" x2="50%" y2="100%" id="linearGradient-13">
            <stop stop-color="#FF9485" offset="0%"></stop>
            <stop stop-color="#FF676E" offset="100%"></stop>
        </linearGradient>
        <linearGradient x1="50%" y1="0%" x2="50%" y2="100%" id="linearGradient-14">
            <stop stop-color="#1D2A78" offset="0%"></stop>
            <stop stop-color="#12033B" offset="100%"></stop>
        </linearGradient>
        <linearGradient x1="50%" y1="0%" x2="50%" y2="100%" id="linearGradient-15">
            <stop stop-color="#FF9485" offset="0%"></stop>
            <stop stop-color="#FF676E" offset="100%"></stop>
        </linearGradient>
        <linearGradient x1="50%" y1="0%" x2="64.0485826%" y2="89.3678428%" id="linearGradient-16">
            <stop stop-color="#0F1752" offset="0%"></stop>
            <stop stop-color="#272884" offset="100%"></stop>
        </linearGradient>
        <linearGradient x1="50%" y1="0%" x2="64.3834726%" y2="89.3678428%" id="linearGradient-17">
            <stop stop-color="#0F1752" offset="0%"></stop>
            <stop stop-color="#272884" offset="100%"></stop>
        </linearGradient>
        <linearGradient x1="50%" y1="48%" x2="100%" y2="51.5747137%" id="linearGradient-18">
            <stop stop-color="#0F1752" offset="0%"></stop>
            <stop stop-color="#272884" offset="100%"></stop>
        </linearGradient>
        <linearGradient x1="50%" y1="-2.48949813e-15%" x2="50%" y2="100%" id="linearGradient-19">
            <stop stop-color="#4DBCFA" offset="0%"></stop>
            <stop stop-color="#1486DB" offset="100%"></stop>
        </linearGradient>
        <linearGradient x1="50%" y1="0%" x2="55.5555556%" y2="89.3678428%" id="linearGradient-20">
            <stop stop-color="#0F1752" offset="0%"></stop>
            <stop stop-color="#272884" offset="100%"></stop>
        </linearGradient>
        <linearGradient x1="50%" y1="-27.3641552%" x2="50%" y2="100%" id="linearGradient-21">
            <stop stop-color="#C0E4FD" offset="0%"></stop>
            <stop stop-color="#72B9FE" offset="100%"></stop>
        </linearGradient>
        <linearGradient x1="50%" y1="-27.3641552%" x2="50%" y2="100%" id="linearGradient-22">
            <stop stop-color="#C0E4FD" offset="0%"></stop>
            <stop stop-color="#72B9FE" offset="100%"></stop>
        </linearGradient>
        <linearGradient x1="50%" y1="0%" x2="50%" y2="100%" id="linearGradient-23">
            <stop stop-color="#1D2A78" offset="0%"></stop>
            <stop stop-color="#12033B" offset="100%"></stop>
        </linearGradient>
    </defs>
    <g id="Startup-launch" stroke="none" stroke-width="1" fill="none" fill-rule="evenodd">
        <rect fill="#FFFFFF" x="0" y="0" width="1440" height="1024"></rect>
        <g id="Ornament" transform="translate(332.000000, 108.000000)">
            <path d="M678.921769,417.925666 C563.53457,417.925666 470,324.366928 470,208.962833 C470,93.5587385 563.53457,0 678.921769,0 C794.308968,0 887.843537,93.5587385 887.843537,208.962833 C887.843537,324.366928 794.308968,417.925666 678.921769,417.925666 Z M678.921769,317.925666 C739.074708,317.925666 787.843537,269.144235 787.843537,208.962833 C787.843537,148.781431 739.074708,100 678.921769,100 C618.768829,100 570,148.781431 570,208.962833 C570,269.144235 618.768829,317.925666 678.921769,317.925666 Z" id="Shape" fill="url(#linearGradient-1)"></path>
            <path d="M8.81761461,161.579399 C8.81761461,164.01417 6.84372434,165.987942 4.4088073,165.987942 C1.97389026,165.987942 1.42108547e-13,164.01417 1.42108547e-13,161.579399 C1.42108547e-13,159.144628 1.97389026,157.170856 4.4088073,157.170856 C6.84372434,157.170856 8.81761461,159.144628 8.81761461,161.579399 Z M8.81761461,143.945228 C8.81761461,146.379999 6.84372434,148.353771 4.4088073,148.353771 C1.97389026,148.353771 2.55795385e-13,146.379999 2.55795385e-13,143.945228 C2.55795385e-13,141.510457 1.97389026,139.536685 4.4088073,139.536685 C6.84372434,139.536685 8.81761461,141.510457 8.81761461,143.945228 Z M8.81761461,126.311057 C8.81761461,128.745828 6.84372434,130.719599 4.4088073,130.719599 C1.97389026,130.719599 2.55795385e-13,128.745828 2.55795385e-13,126.311057 C2.55795385e-13,123.876286 1.97389026,121.902514 4.4088073,121.902514 C6.84372434,121.902514 8.81761461,123.876286 8.81761461,126.311057 Z M8.81761461,108.676885 C8.81761461,111.111656 6.84372434,113.085428 4.4088073,113.085428 C1.97389026,113.085428 2.55795385e-13,111.111656 2.55795385e-13,108.676885 C2.55795385e-13,106.242114 1.97389026,104.268343 4.4088073,104.268343 C6.84372434,104.268343 8.81761461,106.242114 8.81761461,108.676885 Z M8.81761461,91.0427141 C8.81761461,93.4774851 6.84372434,95.4512569 4.4088073,95.4512569 C1.97389026,95.4512569 2.55795385e-13,93.4774851 2.55795385e-13,91.0427141 C2.55795385e-13,88.6079431 1.97389026,86.6341713 4.4088073,86.6341713 C6.84372434,86.6341713 8.81761461,88.6079431 8.81761461,91.0427141 Z M8.81761461,73.4085428 C8.81761461,75.8433138 6.84372434,77.8170856 4.4088073,77.8170856 C1.97389026,77.8170856 2.55795385e-13,75.8433138 2.55795385e-13,73.4085428 C2.55795385e-13,70.9737719 1.97389026,69 4.4088073,69 C6.84372434,69 8.81761461,70.9737719 8.81761461,73.4085428 Z M26.4528438,161.579399 C26.4528438,164.01417 24.4789536,165.987942 22.0440365,165.987942 C19.6091195,165.987942 17.6352292,164.01417 17.6352292,161.579399 C17.6352292,159.144628 19.6091195,157.170856 22.0440365,157.170856 C24.4789536,157.170856 26.4528438,159.144628 26.4528438,161.579399 Z M26.4528438,143.945228 C26.4528438,146.379999 24.4789536,148.353771 22.0440365,148.353771 C19.6091195,148.353771 17.6352292,146.379999 17.6352292,143.945228 C17.6352292,141.510457 19.6091195,139.536685 22.0440365,139.536685 C24.4789536,139.536685 26.4528438,141.510457 26.4528438,143.945228 Z M26.4528438,126.311057 C26.4528438,128.745828 24.4789536,130.719599 22.0440365,130.719599 C19.6091195,130.719599 17.6352292,128.745828 17.6352292,126.311057 C17.6352292,123.876286 19.6091195,121.902514 22.0440365,121.902514 C24.4789536,121.902514 26.4528438,123.876286 26.4528438,126.311057 Z M26.4528438,108.676885 C26.4528438,111.111656 24.4789536,113.085428 22.0440365,113.085428 C19.6091195,113.085428 17.6352292,111.111656 17.6352292,108.676885 C17.6352292,106.242114 19.6091195,104.268343 22.0440365,104.268343 C24.4789536,104.268343 26.4528438,106.242114 26.4528438,108.676885 Z M26.4528438,91.0427141 C26.4528438,93.4774851 24.4789536,95.4512569 22.0440365,95.4512569 C19.6091195,95.4512569 17.6352292,93.4774851 17.6352292,91.0427141 C17.6352292,88.6079431 19.6091195,86.6341713 22.0440365,86.6341713 C24.4789536,86.6341713 26.4528438,88.6079431 26.4528438,91.0427141 Z M26.4528438,73.4085428 C26.4528438,75.8433138 24.4789536,77.8170856 22.0440365,77.8170856 C19.6091195,77.8170856 17.6352292,75.8433138 17.6352292,73.4085428 C17.6352292,70.9737719 19.6091195,69 22.0440365,69 C24.4789536,69 26.4528438,70.9737719 26.4528438,73.4085428 Z M44.088073,161.579399 C44.088073,164.01417 42.1141828,165.987942 39.6792657,165.987942 C37.2443487,165.987942 35.2704584,164.01417 35.2704584,161.579399 C35.2704584,159.144628 37.2443487,157.170856 39.6792657,157.170856 C42.1141828,157.170856 44.088073,159.144628 44.088073,161.579399 Z M44.088073,143.945228 C44.088073,146.379999 42.1141828,148.353771 39.6792657,148.353771 C37.2443487,148.353771 35.2704584,146.379999 35.2704584,143.945228 C35.2704584,141.510457 37.2443487,139.536685 39.6792657,139.536685 C42.1141828,139.536685 44.088073,141.510457 44.088073,143.945228 Z M44.088073,126.311057 C44.088073,128.745828 42.1141828,130.719599 39.6792657,130.719599 C37.2443487,130.719599 35.2704584,128.745828 35.2704584,126.311057 C35.2704584,123.876286 37.2443487,121.902514 39.6792657,121.902514 C42.1141828,121.902514 44.088073,123.876286 44.088073,126.311057 Z M44.088073,108.676885 C44.088073,111.111656 42.1141828,113.085428 39.6792657,113.085428 C37.2443487,113.085428 35.2704584,111.111656 35.2704584,108.676885 C35.2704584,106.242114 37.2443487,104.268343 39.6792657,104.268343 C42.1141828,104.268343 44.088073,106.242114 44.088073,108.676885 Z M44.088073,91.0427141 C44.088073,93.4774851 42.1141828,95.4512569 39.6792657,95.4512569 C37.2443487,95.4512569 35.2704584,93.4774851 35.2704584,91.0427141 C35.2704584,88.6079431 37.2443487,86.6341713 39.6792657,86.6341713 C42.1141828,86.6341713 44.088073,88.6079431 44.088073,91.0427141 Z M44.088073,73.4085428 C44.088073,75.8433138 42.1141828,77.8170856 39.6792657,77.8170856 C37.2443487,77.8170856 35.2704584,75.8433138 35.2704584,73.4085428 C35.2704584,70.9737719 37.2443487,69 39.6792657,69 C42.1141828,69 44.088073,70.9737719 44.088073,73.4085428 Z M61.7233022,161.579399 C61.7233022,164.01417 59.749412,165.987942 57.3144949,165.987942 C54.8795779,165.987942 52.9056876,164.01417 52.9056876,161.579399 C52.9056876,159.144628 54.8795779,157.170856 57.3144949,157.170856 C59.749412,157.170856 61.7233022,159.144628 61.7233022,161.579399 Z M61.7233022,143.945228 C61.7233022,146.379999 59.749412,148.353771 57.3144949,148.353771 C54.8795779,148.353771 52.9056876,146.379999 52.9056876,143.945228 C52.9056876,141.510457 54.8795779,139.536685 57.3144949,139.536685 C59.749412,139.536685 61.7233022,141.510457 61.7233022,143.945228 Z M61.7233022,126.311057 C61.7233022,128.745828 59.749412,130.719599 57.3144949,130.719599 C54.8795779,130.719599 52.9056876,128.745828 52.9056876,126.311057 C52.9056876,123.876286 54.8795779,121.902514 57.3144949,121.902514 C59.749412,121.902514 61.7233022,123.876286 61.7233022,126.311057 Z M61.7233022,108.676885 C61.7233022,111.111656 59.749412,113.085428 57.3144949,113.085428 C54.8795779,113.085428 52.9056876,111.111656 52.9056876,108.676885 C52.9056876,106.242114 54.8795779,104.268343 57.3144949,104.268343 C59.749412,104.268343 61.7233022,106.242114 61.7233022,108.676885 Z M61.7233022,91.0427141 C61.7233022,93.4774851 59.749412,95.4512569 57.3144949,95.4512569 C54.8795779,95.4512569 52.9056876,93.4774851 52.9056876,91.0427141 C52.9056876,88.6079431 54.8795779,86.6341713 57.3144949,86.6341713 C59.749412,86.6341713 61.7233022,88.6079431 61.7233022,91.0427141 Z M61.7233022,73.4085428 C61.7233022,75.8433138 59.749412,77.8170856 57.3144949,77.8170856 C54.8795779,77.8170856 52.9056876,75.8433138 52.9056876,73.4085428 C52.9056876,70.9737719 54.8795779,69 57.3144949,69 C59.749412,69 61.7233022,70.9737719 61.7233022,73.4085428 Z M79.3585314,161.579399 C79.3585314,164.01417 77.3846412,165.987942 74.9497241,165.987942 C72.5148071,165.987942 70.5409168,164.01417 70.5409168,161.579399 C70.5409168,159.144628 72.5148071,157.170856 74.9497241,157.170856 C77.3846412,157.170856 79.3585314,159.144628 79.3585314,161.579399 Z M79.3585314,143.945228 C79.3585314,146.379999 77.3846412,148.353771 74.9497241,148.353771 C72.5148071,148.353771 70.5409168,146.379999 70.5409168,143.945228 C70.5409168,141.510457 72.5148071,139.536685 74.9497241,139.536685 C77.3846412,139.536685 79.3585314,141.510457 79.3585314,143.945228 Z M79.3585314,126.311057 C79.3585314,128.745828 77.3846412,130.719599 74.9497241,130.719599 C72.5148071,130.719599 70.5409168,128.745828 70.5409168,126.311057 C70.5409168,123.876286 72.5148071,121.902514 74.9497241,121.902514 C77.3846412,121.902514 79.3585314,123.876286 79.3585314,126.311057 Z M79.3585314,108.676885 C79.3585314,111.111656 77.3846412,113.085428 74.9497241,113.085428 C72.5148071,113.085428 70.5409168,111.111656 70.5409168,108.676885 C70.5409168,106.242114 72.5148071,104.268343 74.9497241,104.268343 C77.3846412,104.268343 79.3585314,106.242114 79.3585314,108.676885 Z M79.3585314,91.0427141 C79.3585314,93.4774851 77.3846412,95.4512569 74.9497241,95.4512569 C72.5148071,95.4512569 70.5409168,93.4774851 70.5409168,91.0427141 C70.5409168,88.6079431 72.5148071,86.6341713 74.9497241,86.6341713 C77.3846412,86.6341713 79.3585314,88.6079431 79.3585314,91.0427141 Z M79.3585314,73.4085428 C79.3585314,75.8433138 77.3846412,77.8170856 74.9497241,77.8170856 C72.5148071,77.8170856 70.5409168,75.8433138 70.5409168,73.4085428 C70.5409168,70.9737719 72.5148071,69 74.9497241,69 C77.3846412,69 79.3585314,70.9737719 79.3585314,73.4085428 Z M96.9937607,161.579399 C96.9937607,164.01417 95.0198704,165.987942 92.5849534,165.987942 C90.1500363,165.987942 88.1761461,164.01417 88.1761461,161.579399 C88.1761461,159.144628 90.1500363,157.170856 92.5849534,157.170856 C95.0198704,157.170856 96.9937607,159.144628 96.9937607,161.579399 Z M96.9937607,143.945228 C96.9937607,146.379999 95.0198704,148.353771 92.5849534,148.353771 C90.1500363,148.353771 88.1761461,146.379999 88.1761461,143.945228 C88.1761461,141.510457 90.1500363,139.536685 92.5849534,139.536685 C95.0198704,139.536685 96.9937607,141.510457 96.9937607,143.945228 Z M96.9937607,126.311057 C96.9937607,128.745828 95.0198704,130.719599 92.5849534,130.719599 C90.1500363,130.719599 88.1761461,128.745828 88.1761461,126.311057 C88.1761461,123.876286 90.1500363,121.902514 92.5849534,121.902514 C95.0198704,121.902514 96.9937607,123.876286 96.9937607,126.311057 Z M96.9937607,108.676885 C96.9937607,111.111656 95.0198704,113.085428 92.5849534,113.085428 C90.1500363,113.085428 88.1761461,111.111656 88.1761461,108.676885 C88.1761461,106.242114 90.1500363,104.268343 92.5849534,104.268343 C95.0198704,104.268343 96.9937607,106.242114 96.9937607,108.676885 Z M96.9937607,91.0427141 C96.9937607,93.4774851 95.0198704,95.4512569 92.5849534,95.4512569 C90.1500363,95.4512569 88.1761461,93.4774851 88.1761461,91.0427141 C88.1761461,88.6079431 90.1500363,86.6341713 92.5849534,86.6341713 C95.0198704,86.6341713 96.9937607,88.6079431 96.9937607,91.0427141 Z M96.9937607,73.4085428 C96.9937607,75.8433138 95.0198704,77.8170856 92.5849534,77.8170856 C90.1500363,77.8170856 88.1761461,75.8433138 88.1761461,73.4085428 C88.1761461,70.9737719 90.1500363,69 92.5849534,69 C95.0198704,69 96.9937607,70.9737719 96.9937607,73.4085428 Z" id="Shape" fill="url(#linearGradient-2)"></path>
        </g>
        <g id="Plant" transform="translate(51.000000, 158.000000)">
            <path d="M199,188.174269 C142.719017,213.593114 97.7234642,213.271218 64.0133428,187.20858 C30.3032215,161.145943 8.96544052,124.033496 0,75.8712405 C105.372053,44.2283274 171.705387,81.6626704 199,188.174269 Z" id="Shape" fill="url(#linearGradient-3)"></path>
            <path d="M115.89853,142.470656 C103.751316,135.579494 90.2443015,127.943142 75.3776565,119.561698 L40.892016,127.819418 C40.2802333,127.965912 39.665953,127.586943 39.5199824,126.972968 C39.3740118,126.358992 39.7516271,125.742511 40.3634098,125.596017 L72.451652,117.912363 C53.8970542,107.455192 33.2742461,95.8646208 10.5835455,83.1408384 C10.0344845,82.8329531 9.83808165,82.1366657 10.1448674,81.5856369 C10.4516531,81.0346081 11.145454,80.8375013 11.694515,81.1453866 C53.1251551,104.377567 87.6617264,123.831731 115.306161,139.509018 L111.739126,104.426202 C111.584986,102.910198 113.850871,102.678161 114.00501,104.194164 L117.735765,140.887202 C154.592735,161.79948 178.829942,175.796159 190.452172,182.880068 C190.989749,183.207729 191.160869,183.910705 190.834378,184.450209 C190.507888,184.989712 189.807422,185.161445 189.269845,184.833785 C182.315586,180.595068 170.826387,173.871062 154.803279,164.662373 C154.761111,164.684157 154.717118,164.703541 154.671409,164.720293 L123.156017,176.270705 C122.565224,176.487231 121.91139,176.182112 121.695637,175.589201 C121.479885,174.996291 121.783915,174.340113 122.374708,174.123587 L152.226934,163.182727 C141.98523,157.304619 129.997135,150.469451 116.262897,142.67737 C116.130357,142.632944 116.00606,142.56433 115.89853,142.470656 Z" id="Shape" fill="#FFFFFF" fill-rule="nonzero"></path>
            <path d="M186.397111,220 C128.543838,198.081935 96.8676044,166.008613 91.3684105,123.780034 C85.8692165,81.5514554 96.9446186,40.291444 124.594617,0 C221.65003,52.2763031 242.250861,125.609636 186.397111,220 Z" id="Shape" fill="url(#linearGradient-4)"></path>
            <path d="M162.563708,129.304978 C173.864256,170.239804 181.123492,197.331633 184.342806,210.585861 C184.491713,211.198925 184.118297,211.817323 183.508757,211.967091 C182.899218,212.116859 182.284375,211.741283 182.135469,211.128219 C180.209165,203.19744 176.830716,190.29204 172.000421,172.413182 C171.955362,172.398663 171.910703,172.381154 171.866683,172.360566 L141.515869,158.165964 C140.946908,157.899869 140.700146,157.220256 140.96471,156.648004 C141.229275,156.075753 141.904981,155.827563 142.473943,156.093658 L171.223049,169.539167 C168.130029,158.116906 164.47778,144.778947 160.266374,129.525569 C160.204104,129.400123 160.16465,129.263425 160.154641,129.120906 C156.429503,115.630464 152.268924,100.648399 147.672953,84.1749033 L117.541306,65.5450292 C117.006764,65.2145312 116.839813,64.5107721 117.168411,63.9731392 C117.497009,63.4355063 118.196722,63.2675903 118.731264,63.5980883 L146.768197,80.932837 C141.029686,60.375216 134.628875,37.5488955 127.565857,12.4542334 C127.394949,11.8470023 127.745829,11.2153946 128.349569,11.0434981 C128.953309,10.8716016 129.581285,11.22451 129.752193,11.8317411 C142.64846,57.6517416 153.337053,95.9093719 161.818533,126.60681 L183.96233,99.2732765 C184.919211,98.0921359 186.680736,99.5357572 185.723855,100.716898 L162.563708,129.304978 Z" id="Shape" fill="#FFFFFF" fill-rule="nonzero"></path>
            <path d="M244,259.562526 C196.223838,298.760152 152.710901,310.14864 113.461189,293.727992 C74.2114767,277.307343 44.0577471,246.99163 23,202.780852 C116.556202,144.804099 190.222869,163.731324 244,259.562526 Z" id="Shape" fill="url(#linearGradient-5)" fill-rule="nonzero"></path>
            <path d="M153.169327,234.117219 C194.134683,244.712951 221.136641,251.916434 234.18055,255.729153 C234.783886,255.905508 235.130224,256.538261 234.954118,257.142447 C234.778012,257.746634 234.146149,258.09346 233.542813,257.917105 C225.737881,255.635733 212.91513,252.1352 195.075714,247.415825 C195.040625,247.447727 195.003156,247.477791 194.963353,247.505765 L167.519981,266.793099 C167.005523,267.154663 166.29578,267.030129 165.934725,266.514946 C165.57367,265.999763 165.698028,265.289019 166.212486,264.927456 L192.207586,246.657974 C180.806972,243.649068 167.474018,240.170685 152.208998,236.222899 C152.069616,236.214438 151.931956,236.180546 151.804023,236.118173 C138.303048,232.627071 123.297489,228.770425 106.787534,224.548288 L75.6285754,241.433553 C75.0758088,241.733101 74.3852129,241.527196 74.0860862,240.97365 C73.7869596,240.420104 73.9925754,239.728535 74.545342,239.428987 L103.538169,223.717564 C82.9334951,218.451367 60.0404012,212.629201 34.8592418,206.251166 C34.2499177,206.096833 33.8808986,205.47707 34.0350147,204.866887 C34.1891308,204.256704 34.8080214,203.887165 35.4173455,204.041498 C81.3952802,215.687066 119.745108,225.479396 150.468989,233.419087 L137.984634,200.55283 C137.445158,199.132608 139.572492,198.322254 140.111968,199.742476 L153.169327,234.117219 Z" id="Shape" fill="#FFFFFF" fill-rule="nonzero"></path>
        </g>
        <g id="Stair" transform="translate(1062.557819, 344.652624)" fill="#211D41">
            <path d="M91.3122414,55.8473759 L85.1609379,95.8473759 L195.260439,95.8473759 L201.411702,55.8473759 L91.3122414,55.8473759 Z M92.8500673,45.8473759 L202.949518,45.8473759 L210,-7.95807864e-13 L219.884361,0.105564569 L129.884361,585.245652 L120,585.245652 L124.520913,555.847376 L14.4209477,555.847376 L9.88436139,585.347376 L-2.13162821e-13,585.245652 L90,-9.09494702e-13 L99.8843614,0.105564569 L92.8500673,45.8473759 Z M83.623112,105.847376 L77.4718085,145.847376 L187.57136,145.847376 L193.722623,105.847376 L83.623112,105.847376 Z M75.9339827,155.847376 L69.7826792,195.847376 L179.882281,195.847376 L186.033545,155.847376 L75.9339827,155.847376 Z M68.2448533,205.847376 L62.0935498,245.847376 L172.193203,245.847376 L178.344466,205.847376 L68.2448533,205.847376 L68.2448533,205.847376 Z M60.5557239,255.847376 L54.4044204,295.847376 L164.504124,295.847376 L170.655387,255.847376 L60.5557239,255.847376 Z M52.8665946,305.847376 L46.7152911,345.847376 L156.815045,345.847376 L162.966308,305.847376 L52.8665946,305.847376 L52.8665946,305.847376 Z M45.1774652,355.847376 L39.0261617,395.847376 L149.125966,395.847376 L155.277229,355.847376 L45.1774652,355.847376 Z M37.4883358,405.847376 L31.3370323,445.847376 L141.436887,445.847376 L147.58815,405.847376 L37.4883358,405.847376 Z M29.7992065,455.847376 L23.647903,495.847376 L133.747808,495.847376 L139.899071,455.847376 L29.7992065,455.847376 Z M22.1100771,505.847376 L15.9587736,545.847376 L126.058729,545.847376 L132.209992,505.847376 L22.1100771,505.847376 Z" id="Shape"></path>
        </g>
        <g id="Laptop" transform="translate(131.000000, 181.000000)">
            <path d="M0,715 L1000,715 C1000,733.777681 984.777681,749 966,749 L34,749 C15.2223185,749 2.29960275e-15,733.777681 0,715 Z" id="Shape" fill="url(#linearGradient-6)"></path>
            <path d="M90,99 L910,99 C932.09139,99 950,116.90861 950,139 L950,699 L50,699 L50,139 C50,116.90861 67.90861,99 90,99 Z" id="Shape" fill="url(#linearGradient-7)"></path>
            <path d="M90,99 L157.189504,99 L157.189504,699 L50,699 L50,139 C50,116.90861 67.90861,99 90,99 Z" id="Shape" fill="url(#linearGradient-8)"></path>
            <path d="M78,194 L128,194 L128,207 L78,207 L78,194 Z M78,234 L128,234 L128,247 L78,247 L78,234 Z M78,274 L128,274 L128,287 L78,287 L78,274 Z M78,314 L128,314 L128,326 L78,326 L78,314 Z M78,353 L128,353 L128,365 L78,365 L78,353 Z M78,391 L128,391 L128,403 L78,403 L78,391 Z M78,429 L128,429 L128,441 L78,441 L78,429 Z M78,467 L128,467 L128,479 L78,479 L78,467 Z M78,505 L128,505 L128,517 L78,517 L78,505 Z M78,543 L128,543 L128,555 L78,555 L78,543 Z M78,581 L128,581 L128,593 L78,593 L78,581 Z M78,619 L128,619 L128,631 L78,631 L78,619 Z" id="Shape" fill="url(#linearGradient-9)"></path>
            <path d="M162,189 L926,189 C928.209139,189 930,190.790861 930,193 L930,684 C930,686.209139 928.209139,688 926,688 L162,688 C159.790861,688 158,686.209139 158,684 L158,193 C158,190.790861 159.790861,189 162,189 Z" id="Shape" fill="#BDDEFF"></path>
            <path d="M198,234 L468,234 L468,247 L198,247 L198,234 Z M398,507 L528,507 L528,520 L398,520 L398,507 Z" id="Shape" fill="#F03C31"></path>
            <path d="M488,234 L788,234 L788,247 L488,247 L488,234 Z M198,274 L378,274 L378,287 L198,287 L198,274 Z M468,469 L787,469 L787,482 L468,482 L468,469 Z M548,507 L787,507 L787,520 L548,520 L548,507 Z M548,548 L787,548 L787,560 L548,560 L548,548 Z M398,274 L548,274 L548,287 L398,287 L398,274 Z M398,469 L448,469 L448,482 L398,482 L398,469 Z M378,548 L528,548 L528,560 L378,560 L378,548 Z M198,314 L428,314 L428,327 L198,327 L198,314 Z M448,314 L598,314 L598,327 L448,327 L448,314 Z M787,314 L787,327 L617.575488,327 L617.575488,314 L787,314 Z M198,354 L358,354 L358,366 L198,366 L198,354 Z M528,354 L786,354 L786,366 L528,366 L528,354 Z M198,393 L408,393 L408,405 L198,405 L198,393 Z M428,393 L786,393 L786,405 L428,405 L428,393 Z M518,431 L785,431 L785,443 L518,443 L518,431 Z M198,470 L378,470 L378,482 L198,482 L198,470 Z M198,509 L378,509 L378,521 L198,521 L198,509 Z M198,548 L358,548 L358,560 L198,560 L198,548 Z M398,587 L788,587 L788,599 L398,599 L398,587 Z" id="Shape" fill="#FFFFFF"></path>
            <path d="M568,274 L787,274 L787,287 L568,287 L568,274 Z M198,431 L498,431 L498,443 L198,443 L198,431 Z" id="Shape" fill="#1056BF"></path>
            <path d="M378,354 L508,354 L508,366 L378,366 L378,354 Z M198,587 L378,587 L378,599 L198,599 L198,587 Z" id="Shape" fill="#53A5FF"></path>
            <path d="M162,119 L926,119 C928.209139,119 930,120.790861 930,123 L930,165 C930,167.209139 928.209139,169 926,169 L162,169 C159.790861,169 158,167.209139 158,165 L158,123 C158,120.790861 159.790861,119 162,119 Z" id="Shape" fill="#BDDEFF"></path>
            <path d="M564.227299,56.5920611 L553.628718,40.3409034 C552.595426,38.756522 552.813207,36.6649321 554.150734,35.3274051 L570.327405,19.1507336 C571.664932,17.8132066 573.756522,17.5954261 575.340903,18.6287183 L591.592061,29.2272994 C596.898651,26.1912231 602.620571,23.7984125 608.651548,22.1551397 L612.647167,3.17595808 C613.036846,1.32498335 614.669817,0 616.561366,0 L639.438634,0 C641.330183,0 642.963154,1.32498335 643.352833,3.17595808 L647.348448,22.1551267 C653.379429,23.7984125 659.101349,26.1912231 664.407939,29.2272994 L680.659097,18.6287183 C682.243478,17.5954261 684.335068,17.8132066 685.672595,19.1507336 L701.849266,35.3274051 C703.186793,36.6649321 703.404574,38.756522 702.371282,40.3409034 L691.772701,56.5920611 C694.808777,61.8986511 697.201588,67.6205711 698.84486,73.6515488 L717.824042,77.6471667 C719.675017,78.0368456 721,79.669817 721,81.5613659 L721,104.438634 C721,106.330183 719.675017,107.963154 717.824042,108.352833 L698.844864,112.34845 C697.201588,118.379429 694.808777,124.101349 691.772701,129.407939 L704.144235,148.377626 L685.672595,166.849266 C684.335068,168.186793 682.243478,168.404574 680.659097,167.371282 L664.407939,156.772701 C659.101349,159.808777 653.379429,162.201587 647.348452,163.84486 L643.352833,182.824042 C642.963154,184.675017 641.330183,186 639.438634,186 L616.561366,186 C614.669817,186 613.036846,184.675017 612.647167,182.824042 L608.651552,163.844873 C602.620571,162.201587 596.898651,159.808777 591.592061,156.772701 L575.340903,167.371282 C573.756522,168.404574 571.664932,168.186793 570.327405,166.849266 L554.150734,150.672595 C552.813207,149.335068 552.595426,147.243478 553.628718,145.659097 L564.227299,129.407939 C561.191223,124.101349 558.798412,118.379429 557.15514,112.348451 L538.175958,108.352833 C536.324983,107.963154 535,106.330183 535,104.438634 L535,81.5613659 C535,79.669817 536.324983,78.0368456 538.175958,77.6471667 L557.155136,73.6515503 C558.798412,67.6205711 561.191223,61.8986511 564.227299,56.5920611 Z M628,127.263158 C646.92302,127.263158 662.263158,111.92302 662.263158,93 C662.263158,74.0769804 646.92302,58.7368421 628,58.7368421 C609.07698,58.7368421 593.736842,74.0769804 593.736842,93 C593.736842,111.92302 609.07698,127.263158 628,127.263158 Z" id="Shape" fill="url(#linearGradient-10)"></path>
            <path d="M598.69261,715 C595.356524,724.883663 586.009317,732 575,732 L426,732 C414.990683,732 405.643476,724.883663 402.30739,715 L0,715 L0,699 L1000,699 L1000,715 L598.69261,715 L598.69261,715 Z" id="Shape" fill="url(#linearGradient-11)"></path>
        </g>
        <g id="Men" transform="translate(121.027611, 582.359400)">
            <polygon id="Shape" fill="#F4B696" points="296.31261 296.44232 296.31261 275.017174 317.703914 275.017174 317.703914 296.44232"></polygon>
            <path d="M315.327103,297.632606 L315.327103,275.128978 L320.080726,260.873778 C322.622441,253.690589 323.659809,247.6406 331.621697,247.6406 C333.666983,247.6406 335.325014,248.997096 335.325014,250.670418 L335.325014,292.880606 C335.325014,295.505063 333.197471,297.632606 330.573014,297.632606 L315.327103,297.632606 Z" id="Shape" fill="#211D41"></path>
            <path d="M302.159504,298.108069 L52.9154611,297.70316 C30.4155073,297.666608 10.96045,282.006119 6.11819906,260.033367 L0.340645793,233.816479 C0.761808178,233.891968 101.388811,245.333342 302.221653,268.1406 L302.159504,298.108069 Z" id="Shape" fill="#221E41"></path>
            <polygon id="Shape" fill="#F4B696" points="217.972389 294.2239 242.554753 287.319899 246.112239 308.789231 225.979188 316.117062"></polygon>
            <path d="M224.987461,313.948671 L246.133953,306.251977 L261.155295,305.843356 C268.774602,305.774992 274.814533,304.680581 277.537659,312.162309 C278.237188,314.084248 277.529579,316.106237 275.95717,316.678547 L236.292568,331.115281 C233.826385,332.012899 231.099487,330.741325 230.201869,328.275142 L224.987461,313.948671 Z" id="Shape" fill="#211D41"></path>
            <path d="M154.119857,186.049938 C151.979199,187.124889 151.402006,189.119773 154.119857,191.007693 C156.837707,192.895613 156.894213,192.590169 161.725075,193.445926 C171.725676,195.21747 157.45875,199.556932 151.742781,197.093292 C146.026812,194.629652 147.155956,194.111988 133.554773,194.111988 C119.95359,194.111988 111.21914,197.598658 90.5274141,199.152565 C76.73293,200.188503 57.6449314,199.502079 33.2634183,197.093292 L22.9220164,139.76509 L55.4901947,137.225036 L58.8716408,170.24569 C95.9950955,177.724486 107.304214,180.484855 123.080726,180.484855 C138.857239,180.484855 151.075328,177.724486 157.990398,177.724486 C167.542226,177.809311 174.492545,179.666059 178.841354,183.294731 C176.869808,184.764241 175.48754,186.049938 169.80553,184.624347 C164.123521,183.198755 156.260514,184.974987 154.119857,186.049938 Z" id="Shape" fill="#F4B696"></path>
            <path d="M216.710175,302.309851 L193.515304,240.852672 L102.024005,297.6406 L51.8273411,297.50147 C51.7810898,297.501595 51.7348383,297.501658 51.6885868,297.501658 C23.297033,297.501658 0.281131107,274.485756 0.281131107,246.094202 L0.281131107,234.816479 C0.678711858,234.887741 68.0397254,219.09581 202.364172,187.440684 C202.769366,187.345195 203.176977,187.260265 203.586589,187.18598 C216.628683,184.820731 229.118802,193.476024 231.484051,206.518118 L247.655068,295.685861 L216.710175,302.309851 Z" id="Shape" fill="url(#linearGradient-12)"></path>
            <path d="M32.4275028,75.5271212 C44.2213153,74.6229743 57.5924258,81.5825174 72.5408343,96.4057503 C87.4892427,111.228983 88.6532543,151.807266 76.0328691,218.1406 C25.5317105,238.165056 0.187420738,248.177285 -9.23705556e-14,248.177285 L5.1159077e-13,165.182024 C0,125.126653 3.53177202,103.489548 13.4934087,90.3556079 C20.1344999,81.5996476 26.4458646,76.6568187 32.4275028,75.5271212 Z" id="Shape" fill="url(#linearGradient-13)"></path>
            <path d="M175.989029,166.023805 C176.635868,166.023805 184.332311,165.829309 187.237755,166.53444 C190.143198,167.23957 188.739606,170.122918 181.613392,169.609944 C174.487179,169.09697 175.342191,166.023805 175.989029,166.023805 Z" id="Shape" fill="#FF7272"></path>
            <path d="M221.320284,111.446303 L241.747125,90.0150231 L242.452516,89.8776196 C243.129473,89.7457551 243.785218,90.1879433 243.917166,90.8652745 C243.951756,91.0428416 243.947398,91.2257978 243.904391,91.4014972 L222.463172,178.996587 C222.294972,179.683746 221.843501,180.267298 221.220798,180.602427 L220.388695,181.050251 L201.748519,185.726667 L221.320284,111.446303 Z" id="Shape" fill="#312C74"></path>
            <polygon id="Shape" fill="#CCF2FF" points="220.088415 111.641374 241.78926 89.960915 219.025281 178.804744 200.516651 185.921739"></polygon>
            <path d="M120.009997,203.380499 L220.20691,178.800312 C220.955701,178.447749 221.848513,178.769328 222.201063,179.51858 C222.261348,179.6467 222.303191,179.782714 222.325346,179.922569 L222.542135,181.291091 C222.646481,181.949788 222.30345,182.598169 221.700393,182.882114 L121.50348,207.462301 C120.75469,207.814864 119.861877,207.493285 119.509328,206.744033 C119.449043,206.615913 119.407199,206.479899 119.385045,206.340044 L119.168255,204.971521 C119.06391,204.312825 119.406941,203.664444 120.009997,203.380499 Z" id="Shape" fill="#312C74"></path>
            <path d="M57.0127101,116.6406 L70.5481681,165.35242 C53.6831365,168.031751 45.2506207,168.954515 45.2506207,168.120712 C45.2506207,167.286909 42.7958886,158.14298 37.8864242,140.688924 L57.0127101,116.6406 Z" id="Shape" fill="#221E41"></path>
            <path d="M173.271068,180.662927 C173.271068,181.495981 174.760832,182.386651 177.676256,183.991153 C183.789158,187.355386 177.957169,187.69636 172.2412,185.23272 C166.525231,182.76908 165.624208,181.014922 151.567019,181.495981 C137.50983,181.97704 109.798626,185.738086 89.1069001,187.291993 C75.312416,188.327931 56.2244174,187.641507 31.8429043,185.23272 L21.5015024,127.904518 L54.0696806,125.364464 L57.4511267,158.385118 C98.3955358,163.370981 126.755997,165.863913 142.53251,165.863913 C158.309022,165.863913 169.654814,165.863913 176.569884,165.863913 C181.780539,167.458371 186.872747,170.996259 191.846507,176.477578 C193.150671,178.226569 192.742659,178.958093 190.622471,178.672149 C187.442188,178.243233 182.831059,172.250683 177.222494,171.306922 C183.70226,174.843169 188.011004,178.576954 190.080581,181.495981 C193.184946,185.874521 185.569433,181.049684 182.909337,179.220843 C176.483824,175.956517 174.370673,175.176888 176.569884,176.881958 C179.8687,179.439562 182.905344,181.450567 185.338437,183.341643 C187.771531,185.23272 184.405534,185.272199 181.266996,183.991153 C178.128457,182.710107 173.271068,179.829874 173.271068,180.662927 Z" id="Shape" fill="#F4B696"></path>
            <path d="M32.2794679,75.6052844 C37.0800254,66.6022597 40.496753,59.7897824 42.5296505,55.1678525 C44.562548,50.5459226 46.5776815,45.3670366 48.575051,39.6311946 C47.3578635,29.5879211 50.8012002,23.1565914 58.9050611,20.3372055 C71.0608524,16.1081265 90.9985859,22.7452405 96.1926131,28.2442837 C101.38664,33.7433269 103.184414,47.8535244 96.1926131,56.2815202 L97.8530552,66.3028362 C95.6530345,67.9175186 93.5209777,68.2375505 91.4568848,67.2629318 C88.1701916,72.194771 85.7783996,75.2910689 84.2815087,76.5518256 C82.0361723,78.4429606 76.7892869,84.1731541 65.108854,78.5692597 C62.4424261,83.6021442 60.4327224,87.3047288 59.0797428,89.6770136 C57.4899291,92.4645579 67.9684788,96.3563007 59.0797428,104.175665 C53.1539187,109.388575 42.5751548,102.715488 27.3434509,84.1564042 L32.2794679,75.6052844 Z" id="Shape" fill="#F4B696"></path>
            <path d="M39.7331701,67.9950354 C37.518346,65.9523307 36.6774073,63.7071719 37.2103542,61.2595588 C38.0097744,57.5881392 40.6479302,56.8007067 36.7643326,47.0182049 C32.880735,37.2357031 31.247204,25.7204449 42.1111225,11.2174156 C52.975041,-3.28561373 63.2377167,-0.677935755 73.2739874,2.41396323 C83.3102581,5.50586222 86.7893447,8.23021998 101.889897,9.25111615 C116.99045,10.2720123 120.180091,21.6732288 111.893253,33.7602843 C103.606415,45.8473398 83.7696077,37.2446831 80.4496797,35.3279218 C77.1297518,33.4111605 76.722034,39.4124059 74.8658049,44.9994767 C73.0095759,50.5865475 69.0560583,50.3546955 68.0982963,49.0695608 C67.1405343,47.784426 64.8064421,45.7909561 61.131573,47.7927129 C57.4567039,49.7944698 57.9131407,55.5424294 59.7368993,56.595377 C61.5606579,57.6483245 64.3609292,58.1319927 63.5536478,60.3730155 C62.7463663,62.6140384 58.8176473,68.9233553 55.0978868,71.5869306 C52.6180464,73.3626474 47.4964742,72.165349 39.7331701,67.9950354 Z" id="Shape" fill="url(#linearGradient-14)"></path>
            <polygon id="Shape" fill="url(#linearGradient-15)" points="57.1514788 116.528686 59.525176 152.22983 20.3307786 158.566261 18.5953258 121.39206"></polygon>
            <path d="M227.930293,290.081636 L226.11621,283.320786 L227.082046,283.061631 L228.896129,289.822482 L227.930293,290.081636 Z M223.524663,273.662427 L221.710581,266.901576 L222.676417,266.642422 L224.490499,273.403273 L223.524663,273.662427 Z M219.119034,257.243218 L217.304951,250.482367 L218.270787,250.223213 L220.08487,256.984063 L219.119034,257.243218 Z M214.713405,240.824009 L212.899322,234.063158 L213.865158,233.804003 L215.67924,240.564854 L214.713405,240.824009 Z M210.305863,224.424931 C209.63226,222.250318 208.219593,220.425769 206.329539,219.225048 L206.865766,218.380974 C208.954264,219.707764 210.516611,221.725634 211.261086,224.129043 L210.305863,224.424931 Z M197.183649,218.648672 C197.165425,218.657275 197.165425,218.657275 197.147224,218.665931 L190.865928,221.658549 L190.435815,220.755773 L196.717121,217.763151 C196.737246,217.75358 196.737246,217.75358 196.757389,217.744072 L197.183649,218.648672 Z M181.838173,225.95967 L175.518745,228.970456 L175.088633,228.06768 L181.408061,225.056895 L181.838173,225.95967 Z M166.49099,233.271577 L160.171562,236.282363 L159.74145,235.379587 L166.060878,232.368802 L166.49099,233.271577 Z M151.143808,240.583485 L144.82438,243.59427 L144.394268,242.691494 L150.713696,239.680709 L151.143808,240.583485 Z M135.796625,247.895392 L129.477197,250.906177 L129.047085,250.003401 L135.366513,246.992616 L135.796625,247.895392 Z M120.449443,255.207299 L114.130014,258.218084 L113.699902,257.315309 L120.01933,254.304523 L120.449443,255.207299 Z M105.10226,262.519206 L98.7828318,265.529991 L98.3527196,264.627216 L104.672148,261.61643 L105.10226,262.519206 Z M89.7550773,269.831113 L89.3134785,270.041505 C87.2817568,271.009485 85.117754,271.631754 82.9019413,271.893332 L82.7847047,270.900228 C84.8923444,270.65142 86.9506262,270.059551 88.8833663,269.13873 L89.3249652,268.928337 L89.7550773,269.831113 Z M72.7615779,270.520049 C71.320675,269.933036 69.9476028,269.182131 68.6672663,268.277572 L66.7245321,266.905029 L67.3015522,266.0883 L69.2442864,267.460842 C70.4622817,268.321357 71.7683234,269.035604 73.1388632,269.593952 L72.7615779,270.520049 Z M58.5572328,261.134828 L52.8401232,257.095687 L53.4171434,256.278957 L59.1342529,260.318098 L58.5572328,261.134828 Z M44.6728239,251.325486 L40.7947852,248.58565 L41.3718053,247.76892 L45.2498441,250.508756 L44.6728239,251.325486 Z" id="Shape" fill="#FFFFFF" fill-rule="nonzero"></path>
        </g>
        <g id="Rocket" transform="translate(746.000000, 239.193220)">
            <path d="M504.173595,459.061764 C520.796288,477.445238 530,501.346576 530,526.130966 L530,592.80678 L360,592.80678 L312.672287,592.536301 L314.10396,182.80678 L360,182.80678 L402.607281,331.497496 C406.813207,346.175317 414.324352,359.695121 424.564838,371.020344 L504.173595,459.061764 L504.173595,459.061764 Z" id="Shape" fill="url(#linearGradient-16)"></path>
            <path d="M25.8264046,459.061764 L105.435162,371.020344 C115.675648,359.695121 123.186793,346.175317 127.392719,331.497496 L170,182.80678 L208.913116,181.989545 L220.341108,591.343465 L170,592.80678 L1.42108547e-14,592.80678 L1.84741111e-13,526.130966 C2.2573182e-13,501.346576 9.20371212,477.445238 25.8264046,459.061764 Z" id="Shape" fill="url(#linearGradient-17)"></path>
            <path d="M171.262751,592.80678 L358.737249,592.80678 C368.210763,592.80678 376.384694,599.453309 378.316857,608.727695 L385,640.80678 L145,640.80678 L151.683143,608.727695 C153.615306,599.453309 161.789237,592.80678 171.262751,592.80678 Z" id="Shape" fill="url(#linearGradient-18)"></path>
            <path d="M209.170819,42.7867671 L265,-1.70558012e-13 L320.829181,42.7867671 C345.521427,61.7105872 360,91.0483411 360,122.158114 L360,592.80678 L170,592.80678 L170,122.158114 C170,91.0483411 184.478573,61.7105872 209.170819,42.7867671 Z" id="Shape" fill="url(#linearGradient-19)"></path>
            <path d="M265,-1.13686838e-13 L297.433074,47.2269531 C308.875239,63.8882973 315,83.6258381 315,103.837803 L315,592.80678 L215,592.80678 L215,103.837803 C215,83.6258381 221.124761,63.8882973 232.566926,47.2269531 L265,-1.13686838e-13 Z" id="Shape" fill="#52D7FD"></path>
            <path d="M265,442.80678 C278.807119,442.80678 290,453.999661 290,467.80678 L290,592.80678 L240,592.80678 L240,467.80678 C240,453.999661 251.192881,442.80678 265,442.80678 Z" id="Shape" fill="url(#linearGradient-20)"></path>
        </g>
        <g id="Women" transform="translate(1096.796221, 217.384261)">
            <path d="M184.335208,183.115739 L74.2342569,183.115739 L80.38552,223.115739 L190.487581,223.115739 L184.335208,183.115739 Z M182.797115,173.115739 L175.761598,127.373928 L185.645959,127.268363 L275.645959,712.514015 L265.761598,712.514015 L261.239869,683.115739 L151.125046,683.115739 L155.645959,712.514015 L145.761598,712.514015 L55.7615979,127.373928 L65.6459593,127.268363 L72.6964411,173.115739 L182.797115,173.115739 Z M192.025674,233.115739 L81.9233358,233.115739 L88.0745989,273.115739 L198.178047,273.115739 L192.025674,233.115739 Z M199.71614,283.115739 L89.6124147,283.115739 L95.7636778,323.115739 L205.868513,323.115739 L199.71614,283.115739 Z M207.406606,333.115739 L97.3014936,333.115739 L103.452757,373.115739 L213.558979,373.115739 L207.406606,333.115739 Z M215.097072,383.115739 L104.990573,383.115739 L111.141836,423.115739 L221.249445,423.115739 L215.097072,383.115739 L215.097072,383.115739 Z M222.787539,433.115739 L112.679651,433.115739 L118.830915,473.115739 L228.939911,473.115739 L222.787539,433.115739 Z M230.478005,483.115739 L120.36873,483.115739 L126.519993,523.115739 L236.630377,523.115739 L230.478005,483.115739 L230.478005,483.115739 Z M238.168471,533.115739 L128.057809,533.115739 L134.209072,573.115739 L244.320844,573.115739 L238.168471,533.115739 L238.168471,533.115739 Z M245.858937,583.115739 L135.746888,583.115739 L141.898151,623.115739 L252.01131,623.115739 L245.858937,583.115739 L245.858937,583.115739 Z M253.549403,633.115739 L143.435967,633.115739 L149.58723,673.115739 L259.701776,673.115739 L253.549403,633.115739 L253.549403,633.115739 Z" id="Shape" fill="#BDDEFF" fill-rule="nonzero"></path>
            <path d="M222.389125,82.4770671 L254.186189,102.095193 L287.599734,171.605018 C293.110908,183.069852 290.792417,196.763984 281.814446,205.775727 L258.131953,229.547307 L250.764468,204.296076 L262.507328,188.798468 L237.865936,129.644916 L222.389125,82.4770671 Z" id="Shape" fill="url(#linearGradient-21)"></path>
            <path d="M160.651841,510.225194 C165.058045,507.616978 169.174098,505.616792 173,504.224636 C178.738852,502.136249 179.107567,504.282447 179.107818,506.746812 C179.108068,509.211177 179.107817,514.743871 179.107818,519.212767 C179.107894,523.68174 177.723632,524.17478 169.854744,523.637449 C161.985856,523.100117 161.023601,522.372032 152.769638,523.637449 C144.515674,524.902866 127.855207,524.660682 124.222427,518.858328 C120.589953,513.055975 132.30962,510.672754 142.553656,509.283267 C149.382911,508.356839 155.41564,508.670815 160.651841,510.225194 Z" id="Shape" fill="#221E41"></path>
            <path d="M179.071943,483.98842 L179.071943,507.910912 L173.885513,509.939767 C164.459225,513.627192 153.934424,513.295703 144.758868,509.022393 L157.444036,506.286712 L157.444036,483.98842 L179.071943,483.98842 Z" id="Shape" fill="#F4B696"></path>
            <path d="M223.651841,560.225194 C228.058045,557.616978 232.174098,555.616792 236,554.224636 C241.738852,552.136249 242.107567,554.282447 242.107818,556.746812 C242.108068,559.211177 242.107817,564.743871 242.107818,569.212767 C242.107894,573.68174 240.723632,574.17478 232.854744,573.637449 C224.985856,573.100117 224.023601,572.372032 215.769638,573.637449 C207.515674,574.902866 190.855207,574.660682 187.222427,568.858328 C183.589953,563.055975 195.30962,560.672754 205.553656,559.283267 C212.382911,558.356839 218.41564,558.670815 223.651841,560.225194 Z" id="Shape" fill="#221E41"></path>
            <path d="M242.071943,533.98842 L242.071943,557.910912 L236.885513,559.939767 C227.459225,563.627192 216.934424,563.295703 207.758868,559.022393 L220.444036,556.286712 L220.444036,533.98842 L242.071943,533.98842 Z" id="Shape" fill="#F4B696"></path>
            <polygon id="Shape" fill="#211D41" points="217.226355 547.122311 187.052327 259.697595 257.903974 257.945085 245.354987 547.122311"></polygon>
            <path d="M149.019113,486.794131 L140.231873,393.583623 C139.125618,381.849037 139.754236,370.015489 142.097479,358.464147 L162.093731,259.889827 L257.974531,258.309953 L191.296401,393.143444 L182.769868,486.794131 L149.019113,486.794131 Z" id="Shape" fill="#312C74"></path>
            <path d="M195.323614,87.8569451 C192.543462,74.4682338 189.073342,67.3018396 184.913252,66.3577624 C178.673118,64.9416466 173.459084,62.4596581 173.459084,55.7488551 C173.459084,51.2749864 171.2225,48.265528 166.74933,46.7204796 L171.383014,24.945095 C196.807549,8.08031265 212.876885,8.47541239 219.591022,26.1303942 C226.305159,43.785376 226.305159,58.510142 219.591022,70.3046923 L221.970747,81.5004162 L195.323614,87.8569451 Z" id="Shape" fill="#F4B696"></path>
            <path d="M147.838056,101.824881 L144.064113,132.561183 L80.9380018,133.712391 C75.1716042,133.817551 69.6405105,131.428307 65.7642344,127.157841 L24.8162766,82.0457595 C20.5938296,82.3620297 17.0361899,80.719078 14.1433577,77.1169046 C11.2505254,73.5147311 10.5918514,68.8162787 12.1673356,63.0215474 L1.13686838e-13,44.6349425 L79.0710636,105.8114 L147.838056,101.824881 Z" id="Shape" fill="#F4B696"></path>
            <path d="M204.46905,80.2050944 C208.858654,80.2050944 213.248257,80.2050944 217.637861,80.2050944 C240.83382,80.2050944 259.637861,99.0091349 259.637861,122.205094 L259.637861,260.072161 L162.028266,260.072161 L167.250069,176.994159 C160.230583,171.51531 156.720841,164.527228 156.720841,156.029913 C156.720841,147.532599 157.857369,141.310487 160.130426,137.363578 L83.2627013,137.363578 C74.3449167,137.363578 65.889385,133.39615 60.1897556,126.537498 L31.3638462,91.8498244 L44.2767108,76.268363 L80.5338511,104.777164 C154.110059,88.3957843 195.421792,80.2050944 204.46905,80.2050944 Z" id="Shape" fill="url(#linearGradient-22)"></path>
            <path d="M204.53935,266.364399 L202.098883,272.925201 L201.161626,272.576563 L203.602092,266.015761 L204.53935,266.364399 Z M198.612502,282.297775 L196.172036,288.858577 L195.234778,288.509939 L197.675245,281.949137 L198.612502,282.297775 Z M192.685655,298.231151 L190.245188,304.791953 L189.307931,304.443315 L191.748397,297.882513 L192.685655,298.231151 Z M186.758807,314.164528 L184.318341,320.725329 L183.381083,320.376691 L185.82155,313.815889 L186.758807,314.164528 Z M180.83196,330.097904 L178.391493,336.658706 L177.454236,336.310068 L179.894702,329.749266 L180.83196,330.097904 Z M174.905112,346.03128 L172.464645,352.592082 L171.527388,352.243444 L173.967855,345.682642 L174.905112,346.03128 Z M168.988855,361.960606 C168.207548,364.148179 167.503353,366.361688 166.877394,368.597085 L165.914435,368.327436 C166.546685,366.069572 167.257958,363.833816 168.047117,361.624258 L168.988855,361.960606 Z M164.673111,378.321935 C164.273919,380.609439 163.954904,382.910338 163.716678,385.220391 L162.721954,385.11781 C162.962573,382.78454 163.284795,380.460517 163.687998,378.150023 L164.673111,378.321935 Z M163.192112,395.172562 C163.189182,396.318254 163.206039,397.464139 163.2427,398.609716 L163.357041,402.167009 L162.357557,402.199135 L162.243214,398.641772 C162.206182,397.484611 162.189155,396.327211 162.192115,395.170004 L163.192112,395.172562 Z M163.678304,412.161847 L163.903188,419.158233 L162.903705,419.19036 L162.67882,412.193973 L163.678304,412.161847 Z M164.224452,429.153072 L164.449336,436.149458 L163.449852,436.181585 L163.224968,429.185198 L164.224452,429.153072 Z M164.770599,446.144297 L164.995484,453.140683 L163.996,453.17281 L163.771115,446.176423 L164.770599,446.144297 Z M165.316747,463.135521 L165.541631,470.131908 L164.542147,470.164034 L164.317263,463.167648 L165.316747,463.135521 Z" id="Shape" fill="#A587FF" fill-rule="nonzero"></path>
            <path d="M229.648776,19.1081792 C245.836112,11.3859497 259.55749,16.3299054 255.645959,36.615739 C251.379881,58.7403185 262.811623,58.4000665 269.971668,71.1172266 C274.745032,79.5953334 270.430676,91.7615041 257.028601,107.615739 C253.000955,98.1833643 246.726014,90.8881256 238.203779,85.730023 C225.420425,77.9928691 241.63116,50.615739 243.203779,35.615739 C244.114496,26.9291005 240.712748,23.6892689 232.998533,25.8962442 C236.580684,35.8197885 235.222399,47.5824887 228.923677,61.1843448 C222.844518,70.3924663 216.935525,72.5704329 211.196698,67.7182445 C202.588457,60.439962 204.871043,55.0972905 209.094334,53.4706099 C213.317624,51.8439294 214.181137,43.1113403 209.094334,41.7823453 C204.00753,40.4533502 200.873841,47.4403744 199.427042,41.7823453 C197.980243,36.1243161 200.360643,30.2960736 193.760545,30.2960736 C187.160447,30.2960736 171.781926,32.7877165 168.737178,22.6601446 C165.692431,12.5325728 173.704722,1.42108547e-14 191.399528,1.42108547e-14 C207.067516,1.42108547e-14 221.862551,6.83462062 229.648776,19.1081792 L229.648776,19.1081792 Z" id="Shape" fill="url(#linearGradient-23)"></path>
        </g>
    </g>
</svg>