<?xml version="1.0" encoding="UTF-8"?>
<svg width="1440px" height="1024px" viewBox="0 0 1440 1024" version="1.1" xmlns="http://www.w3.org/2000/svg" xmlns:xlink="http://www.w3.org/1999/xlink">
    <!-- Generator: Sketch 53.2 (72643) - https://sketchapp.com -->
    <title>Sale</title>
    <desc>Created with Sketch.</desc>
    <defs>
        <linearGradient x1="50%" y1="7.26438915%" x2="50%" y2="151.05781%" id="linearGradient-1">
            <stop stop-color="#D0F6FF" offset="0%"></stop>
            <stop stop-color="#8BE2F7" offset="100%"></stop>
        </linearGradient>
        <linearGradient x1="50%" y1="114.0151%" x2="50.353888%" y2="25.9019529%" id="linearGradient-2">
            <stop stop-color="#2B3389" offset="0%"></stop>
            <stop stop-color="#444FB7" offset="100%"></stop>
        </linearGradient>
        <linearGradient x1="50%" y1="0%" x2="50%" y2="91.8482298%" id="linearGradient-3">
            <stop stop-color="#EAFCFF" offset="0%"></stop>
            <stop stop-color="#FFFFFF" offset="100%"></stop>
        </linearGradient>
        <linearGradient x1="50%" y1="0%" x2="50%" y2="100%" id="linearGradient-4">
            <stop stop-color="#FF9485" offset="0%"></stop>
            <stop stop-color="#FF676E" offset="100%"></stop>
        </linearGradient>
        <linearGradient x1="50%" y1="0%" x2="50%" y2="69.6197333%" id="linearGradient-5">
            <stop stop-color="#4DBCFA" offset="0%"></stop>
            <stop stop-color="#1486DB" offset="100%"></stop>
        </linearGradient>
        <linearGradient x1="50%" y1="0%" x2="50%" y2="69.6197333%" id="linearGradient-6">
            <stop stop-color="#4DBCFA" offset="0%"></stop>
            <stop stop-color="#1486DB" offset="100%"></stop>
        </linearGradient>
        <linearGradient x1="50%" y1="0%" x2="50%" y2="100%" id="linearGradient-7">
            <stop stop-color="#FF9485" offset="0%"></stop>
            <stop stop-color="#FF676E" offset="100%"></stop>
        </linearGradient>
        <linearGradient x1="4.76643799%" y1="37.0482836%" x2="100%" y2="65.4882422%" id="linearGradient-8">
            <stop stop-color="#6EAE7C" offset="0%"></stop>
            <stop stop-color="#0F575D" offset="100%"></stop>
        </linearGradient>
        <linearGradient x1="36.1309735%" y1="13.1381206%" x2="52.1894951%" y2="50%" id="linearGradient-9">
            <stop stop-color="#CFE49F" offset="0%"></stop>
            <stop stop-color="#A9D386" offset="100%"></stop>
        </linearGradient>
        <linearGradient x1="34.1151714%" y1="33.7956635%" x2="64.8333502%" y2="52.4329662%" id="linearGradient-10">
            <stop stop-color="#77D791" offset="0%"></stop>
            <stop stop-color="#4FA67E" offset="100%"></stop>
        </linearGradient>
        <linearGradient x1="50%" y1="-2.48949813e-15%" x2="50%" y2="100%" id="linearGradient-11">
            <stop stop-color="#4DBCFA" offset="0%"></stop>
            <stop stop-color="#1486DB" offset="100%"></stop>
        </linearGradient>
        <linearGradient x1="50%" y1="49.268628%" x2="100%" y2="50.5758507%" id="linearGradient-12">
            <stop stop-color="#0F1752" offset="0%"></stop>
            <stop stop-color="#272884" offset="100%"></stop>
        </linearGradient>
        <linearGradient x1="82.5767258%" y1="-52.951376%" x2="82.5767258%" y2="186.664812%" id="linearGradient-13">
            <stop stop-color="#1533B6" offset="0%"></stop>
            <stop stop-color="#356BE9" offset="100%"></stop>
        </linearGradient>
        <linearGradient x1="50%" y1="-27.3641552%" x2="50%" y2="100%" id="linearGradient-14">
            <stop stop-color="#C0E4FD" offset="0%"></stop>
            <stop stop-color="#72B9FE" offset="100%"></stop>
        </linearGradient>
        <linearGradient x1="50%" y1="-27.3641552%" x2="50%" y2="100%" id="linearGradient-15">
            <stop stop-color="#C0E4FD" offset="0%"></stop>
            <stop stop-color="#72B9FE" offset="100%"></stop>
        </linearGradient>
        <linearGradient x1="50%" y1="-27.3641552%" x2="50%" y2="100%" id="linearGradient-16">
            <stop stop-color="#C0E4FD" offset="0%"></stop>
            <stop stop-color="#72B9FE" offset="100%"></stop>
        </linearGradient>
        <linearGradient x1="50%" y1="0%" x2="50%" y2="100%" id="linearGradient-17">
            <stop stop-color="#1D2A78" offset="0%"></stop>
            <stop stop-color="#12033B" offset="100%"></stop>
        </linearGradient>
        <linearGradient x1="50%" y1="0%" x2="50%" y2="100%" id="linearGradient-18">
            <stop stop-color="#FF9485" offset="0%"></stop>
            <stop stop-color="#FF676E" offset="100%"></stop>
        </linearGradient>
        <linearGradient x1="50%" y1="0%" x2="50%" y2="100%" id="linearGradient-19">
            <stop stop-color="#1D2A78" offset="0%"></stop>
            <stop stop-color="#12033B" offset="100%"></stop>
        </linearGradient>
        <linearGradient x1="82.5767258%" y1="-52.951376%" x2="82.5767258%" y2="186.664812%" id="linearGradient-20">
            <stop stop-color="#1533B6" offset="0%"></stop>
            <stop stop-color="#356BE9" offset="100%"></stop>
        </linearGradient>
        <linearGradient x1="50%" y1="0%" x2="50%" y2="100%" id="linearGradient-21">
            <stop stop-color="#FF9485" offset="0%"></stop>
            <stop stop-color="#FF676E" offset="100%"></stop>
        </linearGradient>
        <linearGradient x1="50%" y1="0%" x2="50%" y2="100%" id="linearGradient-22">
            <stop stop-color="#FF9485" offset="0%"></stop>
            <stop stop-color="#FF676E" offset="100%"></stop>
        </linearGradient>
        <linearGradient x1="50%" y1="7.26438915%" x2="50%" y2="151.05781%" id="linearGradient-23">
            <stop stop-color="#D0F6FF" offset="0%"></stop>
            <stop stop-color="#8BE2F7" offset="100%"></stop>
        </linearGradient>
        <linearGradient x1="50%" y1="7.26438915%" x2="50%" y2="151.05781%" id="linearGradient-24">
            <stop stop-color="#D0F6FF" offset="0%"></stop>
            <stop stop-color="#8BE2F7" offset="100%"></stop>
        </linearGradient>
    </defs>
    <g id="Sale" stroke="none" stroke-width="1" fill="none" fill-rule="evenodd">
        <rect fill="#FFFFFF" x="0" y="0" width="1440" height="1024"></rect>
        <g id="Ornament" transform="translate(93.000000, 175.000000)">
            <path d="M8.81761461,362.579399 C8.81761461,365.01417 6.84372434,366.987942 4.4088073,366.987942 C1.97389026,366.987942 -3.41060513e-13,365.01417 -3.41060513e-13,362.579399 C-3.41060513e-13,360.144628 1.97389026,358.170856 4.4088073,358.170856 C6.84372434,358.170856 8.81761461,360.144628 8.81761461,362.579399 Z M8.81761461,344.945228 C8.81761461,347.379999 6.84372434,349.353771 4.4088073,349.353771 C1.97389026,349.353771 -2.3625546e-13,347.379999 -2.3625546e-13,344.945228 C-2.3625546e-13,342.510457 1.97389026,340.536685 4.4088073,340.536685 C6.84372434,340.536685 8.81761461,342.510457 8.81761461,344.945228 Z M8.81761461,327.311057 C8.81761461,329.745828 6.84372434,331.719599 4.4088073,331.719599 C1.97389026,331.719599 -2.3625546e-13,329.745828 -2.3625546e-13,327.311057 C-2.3625546e-13,324.876286 1.97389026,322.902514 4.4088073,322.902514 C6.84372434,322.902514 8.81761461,324.876286 8.81761461,327.311057 Z M8.81761461,309.676885 C8.81761461,312.111656 6.84372434,314.085428 4.4088073,314.085428 C1.97389026,314.085428 -2.3625546e-13,312.111656 -2.3625546e-13,309.676885 C-2.3625546e-13,307.242114 1.97389026,305.268343 4.4088073,305.268343 C6.84372434,305.268343 8.81761461,307.242114 8.81761461,309.676885 Z M8.81761461,292.042714 C8.81761461,294.477485 6.84372434,296.451257 4.4088073,296.451257 C1.97389026,296.451257 -2.3625546e-13,294.477485 -2.3625546e-13,292.042714 C-2.3625546e-13,289.607943 1.97389026,287.634171 4.4088073,287.634171 C6.84372434,287.634171 8.81761461,289.607943 8.81761461,292.042714 Z M8.81761461,274.408543 C8.81761461,276.843314 6.84372434,278.817086 4.4088073,278.817086 C1.97389026,278.817086 -2.3625546e-13,276.843314 -2.3625546e-13,274.408543 C-2.3625546e-13,271.973772 1.97389026,270 4.4088073,270 C6.84372434,270 8.81761461,271.973772 8.81761461,274.408543 Z M26.4528438,362.579399 C26.4528438,365.01417 24.4789536,366.987942 22.0440365,366.987942 C19.6091195,366.987942 17.6352292,365.01417 17.6352292,362.579399 C17.6352292,360.144628 19.6091195,358.170856 22.0440365,358.170856 C24.4789536,358.170856 26.4528438,360.144628 26.4528438,362.579399 Z M26.4528438,344.945228 C26.4528438,347.379999 24.4789536,349.353771 22.0440365,349.353771 C19.6091195,349.353771 17.6352292,347.379999 17.6352292,344.945228 C17.6352292,342.510457 19.6091195,340.536685 22.0440365,340.536685 C24.4789536,340.536685 26.4528438,342.510457 26.4528438,344.945228 Z M26.4528438,327.311057 C26.4528438,329.745828 24.4789536,331.719599 22.0440365,331.719599 C19.6091195,331.719599 17.6352292,329.745828 17.6352292,327.311057 C17.6352292,324.876286 19.6091195,322.902514 22.0440365,322.902514 C24.4789536,322.902514 26.4528438,324.876286 26.4528438,327.311057 Z M26.4528438,309.676885 C26.4528438,312.111656 24.4789536,314.085428 22.0440365,314.085428 C19.6091195,314.085428 17.6352292,312.111656 17.6352292,309.676885 C17.6352292,307.242114 19.6091195,305.268343 22.0440365,305.268343 C24.4789536,305.268343 26.4528438,307.242114 26.4528438,309.676885 Z M26.4528438,292.042714 C26.4528438,294.477485 24.4789536,296.451257 22.0440365,296.451257 C19.6091195,296.451257 17.6352292,294.477485 17.6352292,292.042714 C17.6352292,289.607943 19.6091195,287.634171 22.0440365,287.634171 C24.4789536,287.634171 26.4528438,289.607943 26.4528438,292.042714 Z M26.4528438,274.408543 C26.4528438,276.843314 24.4789536,278.817086 22.0440365,278.817086 C19.6091195,278.817086 17.6352292,276.843314 17.6352292,274.408543 C17.6352292,271.973772 19.6091195,270 22.0440365,270 C24.4789536,270 26.4528438,271.973772 26.4528438,274.408543 Z M44.088073,362.579399 C44.088073,365.01417 42.1141828,366.987942 39.6792657,366.987942 C37.2443487,366.987942 35.2704584,365.01417 35.2704584,362.579399 C35.2704584,360.144628 37.2443487,358.170856 39.6792657,358.170856 C42.1141828,358.170856 44.088073,360.144628 44.088073,362.579399 Z M44.088073,344.945228 C44.088073,347.379999 42.1141828,349.353771 39.6792657,349.353771 C37.2443487,349.353771 35.2704584,347.379999 35.2704584,344.945228 C35.2704584,342.510457 37.2443487,340.536685 39.6792657,340.536685 C42.1141828,340.536685 44.088073,342.510457 44.088073,344.945228 Z M44.088073,327.311057 C44.088073,329.745828 42.1141828,331.719599 39.6792657,331.719599 C37.2443487,331.719599 35.2704584,329.745828 35.2704584,327.311057 C35.2704584,324.876286 37.2443487,322.902514 39.6792657,322.902514 C42.1141828,322.902514 44.088073,324.876286 44.088073,327.311057 Z M44.088073,309.676885 C44.088073,312.111656 42.1141828,314.085428 39.6792657,314.085428 C37.2443487,314.085428 35.2704584,312.111656 35.2704584,309.676885 C35.2704584,307.242114 37.2443487,305.268343 39.6792657,305.268343 C42.1141828,305.268343 44.088073,307.242114 44.088073,309.676885 Z M44.088073,292.042714 C44.088073,294.477485 42.1141828,296.451257 39.6792657,296.451257 C37.2443487,296.451257 35.2704584,294.477485 35.2704584,292.042714 C35.2704584,289.607943 37.2443487,287.634171 39.6792657,287.634171 C42.1141828,287.634171 44.088073,289.607943 44.088073,292.042714 Z M44.088073,274.408543 C44.088073,276.843314 42.1141828,278.817086 39.6792657,278.817086 C37.2443487,278.817086 35.2704584,276.843314 35.2704584,274.408543 C35.2704584,271.973772 37.2443487,270 39.6792657,270 C42.1141828,270 44.088073,271.973772 44.088073,274.408543 Z M61.7233022,362.579399 C61.7233022,365.01417 59.749412,366.987942 57.3144949,366.987942 C54.8795779,366.987942 52.9056876,365.01417 52.9056876,362.579399 C52.9056876,360.144628 54.8795779,358.170856 57.3144949,358.170856 C59.749412,358.170856 61.7233022,360.144628 61.7233022,362.579399 Z M61.7233022,344.945228 C61.7233022,347.379999 59.749412,349.353771 57.3144949,349.353771 C54.8795779,349.353771 52.9056876,347.379999 52.9056876,344.945228 C52.9056876,342.510457 54.8795779,340.536685 57.3144949,340.536685 C59.749412,340.536685 61.7233022,342.510457 61.7233022,344.945228 Z M61.7233022,327.311057 C61.7233022,329.745828 59.749412,331.719599 57.3144949,331.719599 C54.8795779,331.719599 52.9056876,329.745828 52.9056876,327.311057 C52.9056876,324.876286 54.8795779,322.902514 57.3144949,322.902514 C59.749412,322.902514 61.7233022,324.876286 61.7233022,327.311057 Z M61.7233022,309.676885 C61.7233022,312.111656 59.749412,314.085428 57.3144949,314.085428 C54.8795779,314.085428 52.9056876,312.111656 52.9056876,309.676885 C52.9056876,307.242114 54.8795779,305.268343 57.3144949,305.268343 C59.749412,305.268343 61.7233022,307.242114 61.7233022,309.676885 Z M61.7233022,292.042714 C61.7233022,294.477485 59.749412,296.451257 57.3144949,296.451257 C54.8795779,296.451257 52.9056876,294.477485 52.9056876,292.042714 C52.9056876,289.607943 54.8795779,287.634171 57.3144949,287.634171 C59.749412,287.634171 61.7233022,289.607943 61.7233022,292.042714 Z M61.7233022,274.408543 C61.7233022,276.843314 59.749412,278.817086 57.3144949,278.817086 C54.8795779,278.817086 52.9056876,276.843314 52.9056876,274.408543 C52.9056876,271.973772 54.8795779,270 57.3144949,270 C59.749412,270 61.7233022,271.973772 61.7233022,274.408543 Z M79.3585314,362.579399 C79.3585314,365.01417 77.3846412,366.987942 74.9497241,366.987942 C72.5148071,366.987942 70.5409168,365.01417 70.5409168,362.579399 C70.5409168,360.144628 72.5148071,358.170856 74.9497241,358.170856 C77.3846412,358.170856 79.3585314,360.144628 79.3585314,362.579399 Z M79.3585314,344.945228 C79.3585314,347.379999 77.3846412,349.353771 74.9497241,349.353771 C72.5148071,349.353771 70.5409168,347.379999 70.5409168,344.945228 C70.5409168,342.510457 72.5148071,340.536685 74.9497241,340.536685 C77.3846412,340.536685 79.3585314,342.510457 79.3585314,344.945228 Z M79.3585314,327.311057 C79.3585314,329.745828 77.3846412,331.719599 74.9497241,331.719599 C72.5148071,331.719599 70.5409168,329.745828 70.5409168,327.311057 C70.5409168,324.876286 72.5148071,322.902514 74.9497241,322.902514 C77.3846412,322.902514 79.3585314,324.876286 79.3585314,327.311057 Z M79.3585314,309.676885 C79.3585314,312.111656 77.3846412,314.085428 74.9497241,314.085428 C72.5148071,314.085428 70.5409168,312.111656 70.5409168,309.676885 C70.5409168,307.242114 72.5148071,305.268343 74.9497241,305.268343 C77.3846412,305.268343 79.3585314,307.242114 79.3585314,309.676885 Z M79.3585314,292.042714 C79.3585314,294.477485 77.3846412,296.451257 74.9497241,296.451257 C72.5148071,296.451257 70.5409168,294.477485 70.5409168,292.042714 C70.5409168,289.607943 72.5148071,287.634171 74.9497241,287.634171 C77.3846412,287.634171 79.3585314,289.607943 79.3585314,292.042714 Z M79.3585314,274.408543 C79.3585314,276.843314 77.3846412,278.817086 74.9497241,278.817086 C72.5148071,278.817086 70.5409168,276.843314 70.5409168,274.408543 C70.5409168,271.973772 72.5148071,270 74.9497241,270 C77.3846412,270 79.3585314,271.973772 79.3585314,274.408543 Z M96.9937607,362.579399 C96.9937607,365.01417 95.0198704,366.987942 92.5849534,366.987942 C90.1500363,366.987942 88.1761461,365.01417 88.1761461,362.579399 C88.1761461,360.144628 90.1500363,358.170856 92.5849534,358.170856 C95.0198704,358.170856 96.9937607,360.144628 96.9937607,362.579399 Z M96.9937607,344.945228 C96.9937607,347.379999 95.0198704,349.353771 92.5849534,349.353771 C90.1500363,349.353771 88.1761461,347.379999 88.1761461,344.945228 C88.1761461,342.510457 90.1500363,340.536685 92.5849534,340.536685 C95.0198704,340.536685 96.9937607,342.510457 96.9937607,344.945228 Z M96.9937607,327.311057 C96.9937607,329.745828 95.0198704,331.719599 92.5849534,331.719599 C90.1500363,331.719599 88.1761461,329.745828 88.1761461,327.311057 C88.1761461,324.876286 90.1500363,322.902514 92.5849534,322.902514 C95.0198704,322.902514 96.9937607,324.876286 96.9937607,327.311057 Z M96.9937607,309.676885 C96.9937607,312.111656 95.0198704,314.085428 92.5849534,314.085428 C90.1500363,314.085428 88.1761461,312.111656 88.1761461,309.676885 C88.1761461,307.242114 90.1500363,305.268343 92.5849534,305.268343 C95.0198704,305.268343 96.9937607,307.242114 96.9937607,309.676885 Z M96.9937607,292.042714 C96.9937607,294.477485 95.0198704,296.451257 92.5849534,296.451257 C90.1500363,296.451257 88.1761461,294.477485 88.1761461,292.042714 C88.1761461,289.607943 90.1500363,287.634171 92.5849534,287.634171 C95.0198704,287.634171 96.9937607,289.607943 96.9937607,292.042714 Z M96.9937607,274.408543 C96.9937607,276.843314 95.0198704,278.817086 92.5849534,278.817086 C90.1500363,278.817086 88.1761461,276.843314 88.1761461,274.408543 C88.1761461,271.973772 90.1500363,270 92.5849534,270 C95.0198704,270 96.9937607,271.973772 96.9937607,274.408543 Z" id="Shape" fill="#CDCBDF"></path>
            <polygon id="Shape" fill="url(#linearGradient-1)" points="105 112 578.05345 112 578.05345 569.349229 105 569.349229"></polygon>
            <g id="Smartphone" transform="translate(725.000000, 0.000000)">
                <path d="M36,0 L444.077745,0 C463.959996,2.84217094e-14 480.077745,16.117749 480.077745,36 L480.077745,744.364656 C480.077745,764.246907 463.959996,780.364656 444.077745,780.364656 L36,780.364656 C16.117749,780.364656 0,764.246907 0,744.364656 L0,36 C0,16.117749 16.117749,0 36,0 Z" id="Shape" fill="url(#linearGradient-2)"></path>
                <path d="M460.077745,696.325386 L20,696.325386 L20,48.0224404 L460.077745,48.0224404 L460.077745,696.325386 Z M424.077745,780.364656 L56,780.364656 L424.077745,780.364656 L424.077745,780.364656 Z" id="Shape" fill="url(#linearGradient-3)"></path>
                <path d="M398.465306,84.0392707 C401.116273,84.0392707 403.265306,86.1883039 403.265306,88.8392707 L403.265306,103.250491 C403.265306,105.901458 401.116273,108.050491 398.465306,108.050491 L324.051701,108.050491 C321.400734,108.050491 319.251701,105.901458 319.251701,103.250491 L319.251701,88.8392707 C319.251701,86.1883039 321.400734,84.0392707 324.051701,84.0392707 L398.465306,84.0392707 Z M434.471137,132.061711 C437.122104,132.061711 439.271137,134.210744 439.271137,136.861711 L439.271137,151.272931 C439.271137,153.923898 437.122104,156.072931 434.471137,156.072931 L324.051701,156.072931 C321.400734,156.072931 319.251701,153.923898 319.251701,151.272931 L319.251701,136.861711 C319.251701,134.210744 321.400734,132.061711 324.051701,132.061711 L434.471137,132.061711 Z" id="Shape" fill="#8FC8F0"></path>
                <path d="M48.5366375,84 L270.977454,84 C273.628421,84 275.777454,86.1490332 275.777454,88.8 L275.777454,247.278541 C275.777454,249.929508 273.628421,252.078541 270.977454,252.078541 L48.5366375,252.078541 C45.8856707,252.078541 43.7366375,249.929508 43.7366375,247.278541 L43.7366375,88.8 C43.7366375,86.1490332 45.8856707,84 48.5366375,84 Z" id="Shape" fill="url(#linearGradient-4)"></path>
                <path d="M177.307278,134.021534 L177.590716,130 L173.59486,130 C172.6244,136.784588 166.789581,142 159.736638,142 C152.683694,142 146.848875,136.784588 145.878415,130 L141.706604,130 L141.627342,135.238221 C141.490478,144.283271 138.748519,153.092412 133.736638,160.612584 L133.736638,204 C133.736638,205.104569 134.632068,206 135.736638,206 L183.736638,206 C184.841207,206 185.736638,205.104569 185.736638,204 L185.736638,160.720536 C179.646557,153.220405 176.626737,143.677317 177.307278,134.021534 Z M189.736638,160 L189.736638,204 C189.736638,207.313708 187.050346,210 183.736638,210 L135.736638,210 C132.422929,210 129.736638,207.313708 129.736638,204 L129.736638,160 C129.736638,159.59618 129.858879,159.201818 130.08728,158.868797 C134.876712,151.885541 137.499684,143.644585 137.6278,135.177702 L137.736866,127.969741 C137.7534,126.877095 138.643867,126 139.736638,126 L147.736638,126 C148.841207,126 149.736638,126.895431 149.736638,128 C149.736638,133.522847 154.21379,138 159.736638,138 C165.259485,138 169.736638,133.522847 169.736638,128 C169.736638,126.895431 170.632068,126 171.736638,126 L179.736638,126 C180.896574,126 181.813239,126.983546 181.731688,128.140611 L181.29738,134.302757 C180.672734,143.165477 183.531184,151.922119 189.264494,158.709398 C189.569376,159.070327 189.736638,159.527536 189.736638,160 Z" id="Shape" fill="#FFFFFF" fill-rule="nonzero"></path>
                <path d="M48.5366375,300 L270.977454,300 C273.628421,300 275.777454,302.149033 275.777454,304.8 L275.777454,463.278541 C275.777454,465.929508 273.628421,468.078541 270.977454,468.078541 L48.5366375,468.078541 C45.8856707,468.078541 43.7366375,465.929508 43.7366375,463.278541 L43.7366375,304.8 C43.7366375,302.149033 45.8856707,300 48.5366375,300 Z" id="Shape" fill="url(#linearGradient-5)"></path>
                <path d="M180.736638,355.751329 C181.678434,356.222043 182.508285,356.946699 183.113685,357.899967 L186.226374,362.80124 C188.071241,365.706187 188.292849,369.355637 186.813038,372.46247 L181.572452,383.464979 C179.056109,388.747992 178.748166,394.815828 180.716733,400.32645 L186.883704,417.589699 C187.99847,420.71027 186.372443,424.143689 183.251872,425.258454 C182.604073,425.489868 181.921304,425.608161 181.233411,425.608161 L139.239864,425.608161 C135.926155,425.608161 133.239864,422.921869 133.239864,419.608161 C133.239864,418.920268 133.358157,418.237498 133.589571,417.589699 L139.756543,400.32645 C141.725109,394.815828 141.417166,388.747992 138.900823,383.464979 L133.660237,372.46247 C132.180426,369.355637 132.402034,365.706187 134.246901,362.80124 L137.35959,357.899967 C138.171823,356.621017 139.388074,355.753573 140.736638,355.358807 L140.736638,345 C140.736638,343.895431 141.632068,343 142.736638,343 C143.841207,343 144.736638,343.895431 144.736638,345 L144.736638,355.578963 C145.039226,355.705726 145.335416,355.859069 145.622166,356.039677 L160.236638,365.244516 L174.851109,356.039677 C175.44787,355.663811 176.085515,355.40603 176.736638,355.260163 L176.736638,345 C176.736638,343.895431 177.632068,343 178.736638,343 C179.841207,343 180.736638,343.895431 180.736638,345 L180.736638,355.751329 L180.736638,355.751329 Z M183.201762,370.742388 C184.089648,368.878289 183.956683,366.688619 182.849763,364.945651 L179.737074,360.044378 C179.146476,359.114416 177.915045,358.837164 176.982882,359.424281 L161.302524,369.300463 C160.65115,369.710727 159.822125,369.710727 159.170751,369.300463 L143.490393,359.424281 C142.55823,358.837164 141.326799,359.114416 140.736201,360.044378 L137.623512,364.945651 C136.516592,366.688619 136.383627,368.878289 137.271514,370.742388 L142.5121,381.744898 C145.48596,387.988459 145.849892,395.159537 143.523405,401.672091 L137.356433,418.93534 C137.279295,419.151273 137.239864,419.378863 137.239864,419.608161 C137.239864,420.71273 138.135294,421.608161 139.239864,421.608161 L181.233411,421.608161 C181.462709,421.608161 181.690299,421.56873 181.906232,421.491592 C182.946422,421.120003 183.488431,419.97553 183.116842,418.93534 L176.94987,401.672091 C174.623383,395.159537 174.987315,387.988459 177.961175,381.744898 L183.201762,370.742388 Z" id="Shape" fill="#FFFFFF" fill-rule="nonzero"></path>
                <path d="M48.8038873,516.241234 L271.244704,516.241234 C273.89567,516.241234 276.044704,518.390267 276.044704,521.041234 L276.044704,655.508555 C276.044704,658.159522 273.89567,660.308555 271.244704,660.308555 L48.8038873,660.308555 C46.1529205,660.308555 44.0038873,658.159522 44.0038873,655.508555 L44.0038873,521.041234 C44.0038873,518.390267 46.1529205,516.241234 48.8038873,516.241234 Z" id="Shape" fill="url(#linearGradient-6)"></path>
                <path d="M189.122407,615.763225 L198.622763,612.59644 L194.775177,562.57782 C191.112339,555.989223 183.86621,552.45125 174.589013,552.040452 C173.601192,558.805308 167.775558,564 160.736638,564 C153.69746,564 147.871656,558.804927 146.884153,552.039708 C137.509713,552.447085 130.196101,555.986819 126.699586,562.558473 L122.850512,612.59644 L132.346396,615.761734 L136.212714,602.859987 C137.19436,599.584274 137.398872,596.124825 136.810015,592.756269 L133.591439,574.344397 C133.401234,573.256327 134.129097,572.220081 135.217167,572.029875 C136.305236,571.83967 137.341483,572.567533 137.531688,573.655603 L140.750264,592.067474 C141.446186,596.048495 141.204489,600.136936 140.044363,604.008232 L134.824748,621.425877 C134.768929,621.612142 134.740572,621.805551 134.740572,622 C134.740572,623.104569 135.636002,624 136.740572,624 L184.727785,624 C184.922233,624 185.115643,623.971643 185.301907,623.915824 C186.359988,623.598745 186.960688,622.483958 186.643609,621.425877 L181.423994,604.008232 C180.263867,600.136936 180.022171,596.048495 180.718092,592.067474 L183.936668,573.655603 C184.126874,572.567533 185.16312,571.83967 186.25119,572.029875 C187.33926,572.220081 188.067123,573.256327 187.876917,574.344397 L184.658341,592.756269 C184.069485,596.124825 184.273997,599.584274 185.255643,602.859987 L189.122407,615.763225 L189.122407,615.763225 Z M190.27119,619.596667 L190.475258,620.277632 C191.426495,623.451874 189.624395,626.796235 186.450153,627.747473 C185.891359,627.914929 185.311131,628 184.727785,628 L136.740572,628 C133.426863,628 130.740572,625.313708 130.740572,622 C130.740572,621.416654 130.825643,620.836426 130.993099,620.277632 L131.197613,619.595177 L120.104182,615.897367 C119.233542,615.607153 118.672141,614.761639 118.742529,613.846607 L122.742529,561.846607 C122.762537,561.586495 122.833242,561.332809 122.950658,561.099845 C127.37711,552.317409 136.945617,548 148.736638,548 C149.841207,548 150.736638,548.895431 150.736638,550 C150.736638,555.522847 155.21379,560 160.736638,560 C166.259485,560 170.736638,555.522847 170.736638,550 C170.736638,548.895431 171.632068,548 172.736638,548 C184.418328,548 193.886979,552.315013 198.505441,561.066547 C198.633088,561.308427 198.70977,561.573917 198.730746,561.846607 L202.730746,613.846607 C202.801134,614.761639 202.239733,615.607153 201.369093,615.897367 L190.27119,619.596667 Z" id="Shape" fill="#FFFFFF" fill-rule="nonzero"></path>
                <path d="M398.465306,300.140252 C401.116273,300.140252 403.265306,302.289286 403.265306,304.940252 L403.265306,319.351473 C403.265306,322.002439 401.116273,324.151473 398.465306,324.151473 L324.051701,324.151473 C321.400734,324.151473 319.251701,322.002439 319.251701,319.351473 L319.251701,304.940252 C319.251701,302.289286 321.400734,300.140252 324.051701,300.140252 L398.465306,300.140252 Z M434.471137,348.162693 C437.122104,348.162693 439.271137,350.311726 439.271137,352.962693 L439.271137,367.373913 C439.271137,370.02488 437.122104,372.173913 434.471137,372.173913 L324.051701,372.173913 C321.400734,372.173913 319.251701,370.02488 319.251701,367.373913 L319.251701,352.962693 C319.251701,350.311726 321.400734,348.162693 324.051701,348.162693 L434.471137,348.162693 Z" id="Shape" fill="#8FC8F0"></path>
                <path d="M436.871137,180.084151 C438.19662,180.084151 439.271137,181.158668 439.271137,182.484151 L439.271137,189.689762 C439.271137,191.015245 438.19662,192.089762 436.871137,192.089762 L321.651701,192.089762 C320.326217,192.089762 319.251701,191.015245 319.251701,189.689762 L319.251701,182.484151 C319.251701,181.158668 320.326217,180.084151 321.651701,180.084151 L436.871137,180.084151 Z M436.871137,216.100982 C438.19662,216.100982 439.271137,217.175498 439.271137,218.500982 L439.271137,225.706592 C439.271137,227.032075 438.19662,228.106592 436.871137,228.106592 L321.651701,228.106592 C320.326217,228.106592 319.251701,227.032075 319.251701,225.706592 L319.251701,218.500982 C319.251701,217.175498 320.326217,216.100982 321.651701,216.100982 L436.871137,216.100982 Z" id="Shape" fill="#8FC8F0"></path>
                <path d="M436.871137,396.185133 C438.19662,396.185133 439.271137,397.25965 439.271137,398.585133 L439.271137,405.790743 C439.271137,407.116227 438.19662,408.190743 436.871137,408.190743 L321.651701,408.190743 C320.326217,408.190743 319.251701,407.116227 319.251701,405.790743 L319.251701,398.585133 C319.251701,397.25965 320.326217,396.185133 321.651701,396.185133 L436.871137,396.185133 Z" id="Shape" fill="#8FC8F0"></path>
            </g>
            <path d="M245.653791,838.653791 C245.653791,759.724414 245.653791,659.93652 245.653791,608.390277 C182.116706,608.390277 130.609723,659.93652 130.609723,723.522034 C130.609723,787.107547 182.116706,838.653791 245.653791,838.653791 Z" id="Shape" fill="url(#linearGradient-7)" transform="translate(188.131757, 723.522034) rotate(-270.000000) translate(-188.131757, -723.522034) "></path>
        </g>
        <g id="Plant" transform="translate(120.000000, 595.000000)">
            <path d="M199,188.174269 C142.719017,213.593114 97.7234642,213.271218 64.0133428,187.20858 C30.3032215,161.145943 8.96544052,124.033496 0,75.8712405 C105.372053,44.2283274 171.705387,81.6626704 199,188.174269 Z" id="Shape" fill="url(#linearGradient-8)"></path>
            <path d="M115.89853,142.470656 C103.751316,135.579494 90.2443015,127.943142 75.3776565,119.561698 L40.892016,127.819418 C40.2802333,127.965912 39.665953,127.586943 39.5199824,126.972968 C39.3740118,126.358992 39.7516271,125.742511 40.3634098,125.596017 L72.451652,117.912363 C53.8970542,107.455192 33.2742461,95.8646208 10.5835455,83.1408384 C10.0344845,82.8329531 9.83808165,82.1366657 10.1448674,81.5856369 C10.4516531,81.0346081 11.145454,80.8375013 11.694515,81.1453866 C53.1251551,104.377567 87.6617264,123.831731 115.306161,139.509018 L111.739126,104.426202 C111.584986,102.910198 113.850871,102.678161 114.00501,104.194164 L117.735765,140.887202 C154.592735,161.79948 178.829942,175.796159 190.452172,182.880068 C190.989749,183.207729 191.160869,183.910705 190.834378,184.450209 C190.507888,184.989712 189.807422,185.161445 189.269845,184.833785 C182.315586,180.595068 170.826387,173.871062 154.803279,164.662373 C154.761111,164.684157 154.717118,164.703541 154.671409,164.720293 L123.156017,176.270705 C122.565224,176.487231 121.91139,176.182112 121.695637,175.589201 C121.479885,174.996291 121.783915,174.340113 122.374708,174.123587 L152.226934,163.182727 C141.98523,157.304619 129.997135,150.469451 116.262897,142.67737 C116.130357,142.632944 116.00606,142.56433 115.89853,142.470656 Z" id="Shape" fill="#FFFFFF" fill-rule="nonzero"></path>
            <path d="M186.397111,220 C128.543838,198.081935 96.8676044,166.008613 91.3684105,123.780034 C85.8692165,81.5514554 96.9446186,40.291444 124.594617,0 C221.65003,52.2763031 242.250861,125.609636 186.397111,220 Z" id="Shape" fill="url(#linearGradient-9)"></path>
            <path d="M162.563708,129.304978 C173.864256,170.239804 181.123492,197.331633 184.342806,210.585861 C184.491713,211.198925 184.118297,211.817323 183.508757,211.967091 C182.899218,212.116859 182.284375,211.741283 182.135469,211.128219 C180.209165,203.19744 176.830716,190.29204 172.000421,172.413182 C171.955362,172.398663 171.910703,172.381154 171.866683,172.360566 L141.515869,158.165964 C140.946908,157.899869 140.700146,157.220256 140.96471,156.648004 C141.229275,156.075753 141.904981,155.827563 142.473943,156.093658 L171.223049,169.539167 C168.130029,158.116906 164.47778,144.778947 160.266374,129.525569 C160.204104,129.400123 160.16465,129.263425 160.154641,129.120906 C156.429503,115.630464 152.268924,100.648399 147.672953,84.1749033 L117.541306,65.5450292 C117.006764,65.2145312 116.839813,64.5107721 117.168411,63.9731392 C117.497009,63.4355063 118.196722,63.2675903 118.731264,63.5980883 L146.768197,80.932837 C141.029686,60.375216 134.628875,37.5488955 127.565857,12.4542334 C127.394949,11.8470023 127.745829,11.2153946 128.349569,11.0434981 C128.953309,10.8716016 129.581285,11.22451 129.752193,11.8317411 C142.64846,57.6517416 153.337053,95.9093719 161.818533,126.60681 L183.96233,99.2732765 C184.919211,98.0921359 186.680736,99.5357572 185.723855,100.716898 L162.563708,129.304978 Z" id="Shape" fill="#FFFFFF" fill-rule="nonzero"></path>
            <path d="M244,259.562526 C196.223838,298.760152 152.710901,310.14864 113.461189,293.727992 C74.2114767,277.307343 44.0577471,246.99163 23,202.780852 C116.556202,144.804099 190.222869,163.731324 244,259.562526 Z" id="Shape" fill="url(#linearGradient-10)" fill-rule="nonzero"></path>
            <path d="M153.169327,234.117219 C194.134683,244.712951 221.136641,251.916434 234.18055,255.729153 C234.783886,255.905508 235.130224,256.538261 234.954118,257.142447 C234.778012,257.746634 234.146149,258.09346 233.542813,257.917105 C225.737881,255.635733 212.91513,252.1352 195.075714,247.415825 C195.040625,247.447727 195.003156,247.477791 194.963353,247.505765 L167.519981,266.793099 C167.005523,267.154663 166.29578,267.030129 165.934725,266.514946 C165.57367,265.999763 165.698028,265.289019 166.212486,264.927456 L192.207586,246.657974 C180.806972,243.649068 167.474018,240.170685 152.208998,236.222899 C152.069616,236.214438 151.931956,236.180546 151.804023,236.118173 C138.303048,232.627071 123.297489,228.770425 106.787534,224.548288 L75.6285754,241.433553 C75.0758088,241.733101 74.3852129,241.527196 74.0860862,240.97365 C73.7869596,240.420104 73.9925754,239.728535 74.545342,239.428987 L103.538169,223.717564 C82.9334951,218.451367 60.0404012,212.629201 34.8592418,206.251166 C34.2499177,206.096833 33.8808986,205.47707 34.0350147,204.866887 C34.1891308,204.256704 34.8080214,203.887165 35.4173455,204.041498 C81.3952802,215.687066 119.745108,225.479396 150.468989,233.419087 L137.984634,200.55283 C137.445158,199.132608 139.572492,198.322254 140.111968,199.742476 L153.169327,234.117219 Z" id="Shape" fill="#FFFFFF" fill-rule="nonzero"></path>
        </g>
        <g id="Credit-card" transform="translate(85.000000, 233.000000)">
            <path d="M12,0 L327,0 C333.627417,-1.21743675e-15 339,5.372583 339,12 L339,192 C339,198.627417 333.627417,204 327,204 L12,204 C5.372583,204 8.11624501e-16,198.627417 0,192 L0,12 C-8.11624501e-16,5.372583 5.372583,1.21743675e-15 12,0 Z" id="Shape" fill="url(#linearGradient-11)"></path>
            <polygon id="Shape" fill="url(#linearGradient-12)" points="0 34 339 34 339 75 0 75"></polygon>
            <path d="M27,132 L81,132 L81,146 L27,146 L27,132 Z M27,163 L68,163 L68,177 L27,177 L27,163 Z M95,132 L163,132 L163,146 L95,146 L95,132 Z M81,163 L129,163 L129,177 L81,177 L81,163 Z" id="Shape" fill="#FFFFFF"></path>
            <circle id="Shape" fill="#FFFFFF" cx="258" cy="155" r="23"></circle>
            <circle id="Shape" fill="#BDDEFF" cx="281" cy="155" r="23"></circle>
        </g>
        <g id="Women" transform="translate(1133.499605, 319.000000)">
            <path d="M92.6457933,622.182996 C97.0519978,619.57478 101.168051,617.574594 104.993953,616.182438 C110.732805,614.094051 111.10152,616.240249 111.10177,618.704614 C111.102021,621.168979 111.10177,626.701672 111.10177,631.170569 C111.101846,635.639542 109.717584,636.132582 101.848696,635.595251 C93.9798082,635.057919 93.0175538,634.329834 84.7635902,635.595251 C76.5096267,636.860668 59.8491598,636.618484 56.2163796,630.816129 C52.5839054,625.013777 64.3035721,622.630556 74.5476082,621.241068 C81.3768638,620.314641 87.4095921,620.628617 92.6457933,622.182996 Z" id="Shape" fill="#221E41"></path>
            <path d="M111.065895,595.946222 L111.065895,619.868714 L105.879465,621.897569 C96.4531775,625.584994 85.928377,625.253505 76.752821,620.980195 L89.4379882,618.244514 L89.4379882,595.946222 L111.065895,595.946222 Z" id="Shape" fill="#F4B696"></path>
            <path d="M200.208967,608.682205 C203.457383,604.724273 206.641104,601.43694 209.76013,598.820205 C214.438616,594.894961 215.519138,596.785619 216.362236,599.101279 C217.205334,601.416939 219.097391,606.616056 220.625844,610.815446 C222.154394,615.01488 221.022243,615.951632 213.444129,618.138024 C205.866015,620.324416 204.712771,619.96935 197.389381,623.981474 C190.06599,627.993599 174.32744,633.464236 168.929222,629.25429 C163.531291,625.044241 173.729066,618.796385 182.880078,613.987027 C188.980623,610.780727 194.756919,609.012453 200.208967,608.682205 Z" id="Shape" fill="#221E41"></path>
            <path d="M208.544696,577.727656 L216.72667,600.207446 L212.54693,603.887809 C204.95029,610.576836 194.946837,613.865031 184.863076,612.987659 L195.847576,606.078376 L188.221111,585.124836 L208.544696,577.727656 Z" id="Shape" fill="#F4B696"></path>
            <polygon id="Shape" fill="#211D41" points="144.033351 260.975414 156.766806 302.669065 183.480404 488.591787 216.898853 590.961457 190.182319 599.011042 136.128187 496.603684 104.397678 341"></polygon>
            <path d="M27.1125426,289.164477 L40.4598654,287.62481 C37.2280085,298.363034 33.7320594,307.093 29.972018,313.814707 C26.2119766,320.536414 17.413252,323.277409 3.57584418,322.037693 C-1.18875839,320.399668 -1.19194593,318.772173 3.56628156,317.15521 C8.32450906,315.538246 12.8311445,312.497997 17.0861879,308.034464 C15.9084064,307.24966 14.3483328,306.914541 12.4059671,307.029108 C9.49241857,307.200957 5.93098675,311.169912 5.23902912,308.814784 C4.54707149,306.459655 8.36804284,301.954611 16.3376417,298.846439 C21.6507076,296.774325 25.2423413,293.547004 27.1125426,289.164477 Z" id="Shape" fill="#F4B696"></path>
            <path d="M85.8969507,610.865872 C71.4219806,393.625515 64.1844956,278.096829 64.1844956,264.279814 C64.1844956,243.554292 154.26782,206.09224 154.26782,264.279814 C154.26782,277.772383 154.799202,291.084537 155.861965,304.216275 C157.338879,322.465358 154.620436,340.810425 147.914757,357.84698 L129.835217,403.780151 L117.013981,610.865872 L85.8969507,610.865872 Z" id="Shape" fill="url(#linearGradient-13)"></path>
            <path d="M158.718101,311.734576 C116.439182,316.709623 101.913444,318.267084 66.7802886,316.750232 C65.3491118,292.292631 64.1844956,268.624436 64.1844956,264.279814 C64.1844956,252.871795 62.1426406,224.095232 58.0589306,177.950126 C57.9837022,177.10006 57.946033,176.247088 57.946033,175.3937 C57.946033,159.377443 70.9297747,146.393701 86.9460317,146.393701 L138.779611,146.3937 C139.021108,146.3937 139.262583,146.398256 139.503908,146.407366 C150.100228,146.807385 158.365963,155.721678 157.965945,166.317997 L154.26782,264.279814 C155.996825,282.927953 157.480252,298.746207 158.718101,311.734576 Z" id="Shape" fill="url(#linearGradient-14)"></path>
            <path d="M94.3883641,182.170856 L94.3883641,232.895748 C94.3883641,243.92598 90.6667545,254.633581 83.825684,263.286082 C77.5759082,271.190722 71.3261324,279.095361 65.0763566,287 C64.6497789,278.633166 64.1844956,266.651758 64.1844956,264.279814 C64.1844956,260.100721 63.9104843,253.590817 63.3624617,244.750103 C71.5514194,244.750103 81.8933869,223.890354 94.3883641,182.170856 Z" id="Shape" fill="#211D41"></path>
            <path d="M40.5761569,41.5651154 C38.3517511,35.2421866 35.8546889,31.461736 33.0849704,30.2237636 C28.9303926,28.3668051 24.111564,22.7318293 30.0329905,16.7329341 L34.1189508,13.1108441 L24.5003947,0.385766748 C25.2293209,-0.530359116 28.0908461,0.185239249 33.0849704,2.53256184 C40.5761569,6.05354573 45.642518,10.9183235 48.3133119,18.96382 C50.9841057,27.0093165 49.6570135,30.0379133 58.6368933,43.1295761 L43.6062039,47.308348 L40.5761569,41.5651154 Z" id="Shape" fill="#F4B696"></path>
            <polygon id="Shape" fill="url(#linearGradient-15)" points="75.2309892 132.15199 38.5310132 39.7342743 56.7360022 33 98.5762275 92.3892795"></polygon>
            <path d="M75.6746916,154.89592 C78.9141424,154.973901 83.1144208,156.231147 88.2755267,158.667656 C93.4366327,161.104166 95.9193376,165.999538 95.7236416,173.353771 L90.9486817,227.887721 C90.2829083,235.491399 87.3662356,242.724167 82.5710351,248.66262 L36.7688766,305.384739 L17.8545802,294.709045 L54.5003947,232.845934 C56.9020258,218.798264 58.1028414,201.714933 58.1028414,181.59594 C58.1028414,161.476948 63.9601248,152.576941 75.6746916,154.89592 Z" id="Shape" fill="url(#linearGradient-16)"></path>
            <path d="M145.67151,226.49859 C122.004035,221.620292 109.196918,210.210639 107.250157,192.269629 C104.330017,165.358115 101.681052,160.928187 92.6521273,159.008507 C83.6232029,157.088827 72.0788969,145.597409 72.0788969,117.958016 L72.0788969,81.7732491 C72.0788969,64.5419649 86.0476127,50.5732491 103.278897,50.5732491 L109.546278,50.5732491 C126.777562,50.5732491 140.746278,64.5419649 140.746278,81.7732491 L140.746278,117.958016 C141.594089,132.069483 145.186156,142.439098 151.522478,149.066861 C161.02696,159.008507 173.431545,170.765214 165.953528,196.670229 C160.968183,213.940239 154.207511,223.883026 145.67151,226.49859 Z" id="Shape" fill="url(#linearGradient-17)"></path>
            <path d="M101.369759,600.967195 L100.369759,600.967195 L100.369759,593.967195 L101.369759,593.967195 L101.369759,600.967195 Z M101.369759,583.967195 L100.369759,583.967195 L100.369759,576.967195 L101.369759,576.967195 L101.369759,583.967195 Z M101.369759,566.967195 L100.369759,566.967195 L100.369759,559.967195 L101.369759,559.967195 L101.369759,566.967195 Z M101.369759,549.967195 L100.369759,549.967195 L100.369759,542.967195 L101.369759,542.967195 L101.369759,549.967195 Z M101.369759,532.967195 L100.369759,532.967195 L100.369759,525.967195 L101.369759,525.967195 L101.369759,532.967195 Z M101.369759,515.967195 L100.369759,515.967195 L100.369759,508.967195 L101.369759,508.967195 L101.369759,515.967195 Z M101.369759,498.967195 L100.369759,498.967195 L100.369759,491.967195 L101.369759,491.967195 L101.369759,498.967195 Z M101.369759,481.967195 L100.369759,481.967195 L100.369759,474.967195 L101.369759,474.967195 L101.369759,481.967195 Z M101.369759,464.967195 L100.369759,464.967195 L100.369759,457.967195 L101.369759,457.967195 L101.369759,464.967195 Z M101.369759,447.967195 L100.369759,447.967195 L100.369759,440.967195 L101.369759,440.967195 L101.369759,447.967195 Z M101.369759,430.967195 L100.369759,430.967195 L100.369759,423.967195 L101.369759,423.967195 L101.369759,430.967195 Z M101.369759,413.967195 L100.369759,413.967195 L100.369759,406.967195 L101.369759,406.967195 L101.369759,413.967195 Z M101.369759,396.967195 L100.369759,396.967195 L100.369759,389.967195 L101.369759,389.967195 L101.369759,396.967195 Z M101.369759,379.967195 L100.369759,379.967195 L100.369759,372.967195 L101.369759,372.967195 L101.369759,379.967195 Z M101.369759,362.967195 L100.369759,362.967195 L100.369759,355.967195 L101.369759,355.967195 L101.369759,362.967195 Z M101.369759,345.967195 L100.369759,345.967195 L100.369759,338.967195 L101.369759,338.967195 L101.369759,345.967195 Z" id="Shape" fill="#A587FF" fill-rule="nonzero"></path>
        </g>
        <g id="Men" transform="translate(292.585827, 105.981738)">
            <path d="M215.247729,94.25906 L232.858191,164.280663 L297.218793,214.318885 L309.840005,219.764519 L300.336459,222.31115 L305.906811,243.101321 C294.570614,243.987595 286.772314,241.825609 282.511912,236.615364 C278.25151,231.405119 274.744772,222.959706 271.991699,211.279125 L200.364332,174.298788 L173.414173,105.468327 L215.247729,94.25906 Z" id="Shape" fill="#221E41"></path>
            <path d="M366.856203,505.576916 L167.67036,390.576916 C162.887434,387.815493 161.248683,381.699589 164.010106,376.916662 L337.07792,77.1544156 C338.344794,74.9601261 340.397388,73.3285513 342.820923,72.5893936 L503.991528,23.4337176 C509.274144,21.8225643 514.862648,24.7988727 516.473801,30.0814885 C516.54038,30.2997869 516.599467,30.5203006 516.650957,30.7426422 L554.666195,194.898318 C555.237833,197.36674 554.851145,199.960126 553.584271,202.154416 L380.516457,501.916662 C377.755034,506.699589 371.63913,508.33834 366.856203,505.576916 Z M463.880518,106.678416 C447.667209,97.3176578 426.937245,102.869432 417.578847,119.078652 C408.22045,135.287871 413.777454,156.016434 429.990764,165.377192 C446.204073,174.737951 466.934037,169.186176 476.292434,152.976957 C485.650831,136.767737 480.093827,116.039175 463.880518,106.678416 Z" id="Shape" fill="url(#linearGradient-18)"></path>
            <path d="M267.074516,447.967932 L430.169264,165.479544 C446.355916,174.697101 466.968346,169.126752 476.292434,152.976957 C485.616523,136.827162 480.134372,116.1911 464.058407,106.781826 L511.718828,24.231555 C513.926339,25.4424666 515.681268,27.4829497 516.473801,30.0814885 C516.54038,30.2997869 516.599467,30.5203006 516.650957,30.7426422 L554.666195,194.898318 C555.237833,197.36674 554.851145,199.960126 553.584271,202.154416 L380.516457,501.916662 C377.755034,506.699589 371.63913,508.33834 366.856203,505.576916 L267.074516,447.967932 Z" id="Shape" fill="#EB5A54"></path>
            <path d="M209.038852,93.2055995 L184.039354,73.6725973 L191.513195,64.1059025 C192.634982,50.8478631 200.500301,37.3642852 215.109154,23.6551686 C229.718007,9.94605209 245.303891,15.4139174 261.866809,40.0587644 C255.439986,49.5357077 253.357895,57.0649783 255.620533,62.6465764 C259.01449,71.0189736 254.688175,72.9793636 251.719244,72.3250455 C248.750314,71.6707274 245.973813,72.3324108 242.542928,78.0588209 C239.112044,83.785231 235.120241,82.3307226 228.548047,80.5170712 C224.166584,79.3079703 217.663519,83.5374797 209.038852,93.2055995 Z" id="Shape" fill="#F4B696"></path>
            <polygon id="Shape" fill="#F4B696" points="181.369219 465.305575 202.944441 466.814261 201.436662 488.376515 179.861439 486.867829"></polygon>
            <path d="M178.210277,486.922622 L200.926873,486.922622 L215.31698,491.725935 C222.568149,494.294218 228.675394,495.34243 228.675394,503.387543 C228.675394,505.454208 227.30606,507.129571 225.616902,507.129571 L183.010277,507.129571 C180.359311,507.129571 178.210277,504.980538 178.210277,502.329571 L178.210277,486.922622 Z" id="Shape" fill="#221E41"></path>
            <polygon id="Shape" fill="#F4B696" points="23.1906847 447.510362 40.688029 460.222926 27.9831055 477.709753 10.4857612 464.997189"></polygon>
            <path d="M10.7576631,463.198602 L29.1357751,476.551082 L37.9543002,488.895337 C42.3110193,495.235252 46.635761,499.673021 41.9069618,506.181654 C40.6922068,507.853621 38.5996392,508.404144 37.2330813,507.411282 L2.7635981,482.367736 C0.618920906,480.809537 0.143486547,477.807763 1.70168574,475.663086 L10.7576631,463.198602 Z" id="Shape" fill="#221E41"></path>
            <path d="M191.333157,63.6408853 C189.447874,61.3406868 188.932354,59.032719 189.786597,56.716982 C191.06796,53.2433764 193.752537,52.8392646 191.291905,42.7527602 C188.831274,32.6662559 188.804932,21.1991697 201.394753,8.54251453 C213.984573,-4.11414062 223.654917,-0.15020689 233.038085,4.25514041 C242.421253,8.66048772 245.448706,11.8008435 260.061515,14.8843292 C274.674323,17.9678148 276.236395,29.5386243 266.493448,40.1929253 C256.750502,50.8472263 238.544138,39.7077907 235.562097,37.3778158 C232.580057,35.047841 231.363808,40.8499834 228.788938,46.0476215 C226.214067,51.2452596 222.383418,50.4725524 221.622924,49.085627 C220.862431,47.6987016 218.853923,45.4300839 214.991059,46.8763616 C211.128194,48.3226393 210.790673,53.9969461 212.428817,55.276887 C214.066962,56.5568279 216.736666,57.4159841 215.642579,59.4921326 C214.548493,61.5682812 209.850537,67.1845695 205.853615,69.2707185 C203.189,70.6614844 198.348847,68.7848734 191.333157,63.6408853 Z" id="Shape" fill="url(#linearGradient-19)"></path>
            <path d="M158.830797,293.154838 L136.065073,369.259678 C135.044682,372.670802 133.181604,375.769992 130.647741,378.271292 L36.4215247,471.286605 L14.9007323,456.888474 L82.5935305,347.904284 L82.5935305,240.502385 L144.830797,250.755675 L158.830797,293.154838 Z" id="Shape" fill="#211D41"></path>
            <path d="M82.1423086,240.502385 L165.731206,247.902231 L227.048881,311.397668 C231.738224,316.253558 233.834673,323.05243 232.694278,329.705934 L207.414173,477.199901 L178.957313,475.399581 L174.241786,338.644412 L110.214884,309.341982 C93.1109782,301.514242 82.1423086,284.431543 82.1423086,265.621516 L82.1423086,240.502385 Z" id="Shape" fill="url(#linearGradient-20)"></path>
            <path d="M82.1423086,240.502385 C112.949669,163.721576 130.818018,118.184142 135.747354,103.890083 C143.141359,82.448995 168.857029,62.1500622 198.328585,75.5236486 C227.800141,88.8972351 222.173269,130.527057 210.937809,162.323235 C203.447502,183.520687 189.000169,213.032076 167.595809,250.857403 L82.1423086,240.502385 Z" id="Shape" fill="url(#linearGradient-21)"></path>
            <polygon id="Shape" fill="#221E41" points="178.957313 230.441601 154.768886 135.368748 181.414173 126.672066 194.064495 201.571268"></polygon>
            <path d="M203.126336,128.86732 L214.450096,190.923328 L285.097401,248.927145 L297.718613,254.372779 L288.215067,256.91941 L293.785419,277.709581 C282.449222,278.595855 274.650922,276.433869 270.39052,271.223624 C266.130118,266.013379 262.62338,257.567966 259.870307,245.887385 L181.956237,200.941452 L161.292781,140.076587 L203.126336,128.86732 Z" id="Shape" fill="#F4B696"></path>
            <polyline id="Shape" fill="url(#linearGradient-22)" points="205.249684 114.316187 213.225826 164.696465 170.8469 178.68814 150.102484 126.65689"></polyline>
            <path d="M114.73974,258.223281 L115.651809,257.813244 L118.522072,264.197724 L117.610004,264.607761 L114.73974,258.223281 Z M121.71038,273.728448 L122.622449,273.31841 L124.300231,277.050392 C124.688795,277.914696 125.139253,278.748316 125.647801,279.545165 L124.804841,280.083141 C124.27021,279.245421 123.796648,278.369046 123.388163,277.46043 L121.71038,273.728448 Z M132.248751,287.041626 L132.737522,286.169214 L138.844405,289.590615 L138.355634,290.463027 L132.248751,287.041626 Z M147.079752,295.350741 L147.568524,294.47833 L153.675406,297.89973 L153.186635,298.772142 L147.079752,295.350741 Z M161.910753,303.659857 L162.399525,302.787445 L168.506408,306.208845 L168.017636,307.081257 L161.910753,303.659857 Z M176.741755,311.968972 L177.230526,311.09656 L183.337409,314.517961 L182.848638,315.390373 L176.741755,311.968972 Z M191.572756,320.278088 L192.061528,319.405676 L198.168411,322.827076 L197.679639,323.699488 L191.572756,320.278088 Z M204.825675,330.231305 L205.662316,329.683552 C206.981595,331.698626 207.937485,333.93262 208.482881,336.280284 L207.50882,336.506572 C206.990026,334.273413 206.08069,332.148221 204.825675,330.231305 Z M207.503855,346.29255 L208.496582,346.412935 L207.653892,353.362026 L206.661165,353.241642 L207.503855,346.29255 Z M205.457322,363.168916 L206.450049,363.2893 L205.607359,370.238391 L204.614632,370.118007 L205.457322,363.168916 Z M203.410789,380.045281 L204.403517,380.165665 L203.560827,387.114757 L202.568099,386.994372 L203.410789,380.045281 Z M201.364257,396.921646 L202.356984,397.04203 L201.514294,403.991122 L200.521567,403.870738 L201.364257,396.921646 Z M199.317724,413.798011 L200.310451,413.918396 L199.467761,420.867487 L198.475034,420.747103 L199.317724,413.798011 Z M197.271191,430.674376 L198.263918,430.794761 L197.421228,437.743852 L196.428501,437.623468 L197.271191,430.674376 Z" id="Shape" fill="#A587FF" fill-rule="nonzero"></path>
        </g>
        <g id="Dollar" transform="translate(299.859255, 613.186563)">
            <path d="M11.4048,-4.78700413e-13 L559.735945,-4.78700413e-13 C566.034642,-4.79866147e-13 571.140745,5.10610289 571.140745,11.4048 L571.140745,330.804973 C571.140745,337.10367 566.034642,342.209773 559.735945,342.209773 L11.4048,342.209773 C5.10610289,342.209773 -3.78808096e-13,337.10367 -3.79585252e-13,330.804973 L-3.45834472e-13,11.4048 C-3.46611628e-13,5.10610289 5.10610289,-4.81087392e-13 11.4048,-4.78700413e-13 Z" id="Shape" fill="#00ADFF"></path>
            <path d="M92.8595157,19.0027701 L477.97313,19.0027701 C480.025271,58.3966762 512.310395,89.8033465 552.105804,90.538488 L552.105804,250.663178 C511.971523,251.40458 479.475977,283.342093 477.927296,323.20698 L92.7325118,323.207003 C90.2515187,284.358289 58.3536165,253.493466 19.0349418,252.571491 L19.0349418,92.4307292 C59.291196,91.4867695 91.7685517,59.1549212 92.8595155,19.0027775 L92.8595157,19.0027701 Z M285.616619,274.403465 C342.910878,274.403465 389.357051,228.035791 389.357051,170.838368 C389.357051,113.640944 342.910878,67.2732708 285.616619,67.2732708 C228.32236,67.2732708 181.876186,113.640944 181.876186,170.838368 C181.876186,228.035791 228.32236,274.403465 285.616619,274.403465 Z" id="Shape" fill="url(#linearGradient-23)"></path>
            <path d="M282.312314,223.095986 L282.312314,209.314968 C262.600425,207.991991 254.16875,197.518417 253.257218,183.627152 L270.120568,183.627152 C270.918159,190.021544 273.310931,195.203206 282.312314,196.526184 L282.312314,175.248293 C264.195607,172.49209 255.536049,166.097698 255.536049,151.544944 C255.536049,138.866408 266.018672,129.495316 282.312314,128.392834 L282.312314,118.58075 L290.402164,118.58075 L290.402164,128.503083 C305.898215,129.82606 315.241423,137.322934 316.608721,151.544944 L300.315079,151.544944 C299.289605,145.81204 296.441066,142.2841 290.402164,141.181618 L290.402164,160.916035 C307.493397,163.451742 317.97602,168.964149 317.97602,184.288641 C317.97602,197.518417 308.404929,208.102239 290.402164,209.314968 L290.402164,223.095986 L282.312314,223.095986 Z M301.796319,185.585589 C301.796319,180.186366 299.501326,177.486754 291.009852,175.687013 L291.009852,196.159069 C297.665332,195.034231 301.796319,191.097297 301.796319,185.585589 Z M272.672858,150.203734 C272.672858,155.189454 274.687913,157.899085 283.459325,159.524863 L283.459325,141.20776 C276.465902,142.074842 272.672858,145.651554 272.672858,150.203734 Z" id="Shape" fill="url(#linearGradient-24)"></path>
        </g>
    </g>
</svg>