<?xml version="1.0" encoding="UTF-8"?>
<svg width="1440px" height="1024px" viewBox="0 0 1440 1024" version="1.1" xmlns="http://www.w3.org/2000/svg" xmlns:xlink="http://www.w3.org/1999/xlink">
    <!-- Generator: Sketch 53.2 (72643) - https://sketchapp.com -->
    <title>Online Shopping</title>
    <desc>Created with Sketch.</desc>
    <defs>
        <linearGradient x1="50%" y1="7.26438915%" x2="50%" y2="151.05781%" id="linearGradient-1">
            <stop stop-color="#D0F6FF" offset="0%"></stop>
            <stop stop-color="#8BE2F7" offset="100%"></stop>
        </linearGradient>
        <linearGradient x1="4.76643799%" y1="37.1557748%" x2="100%" y2="65.3596994%" id="linearGradient-2">
            <stop stop-color="#6EAE7C" offset="0%"></stop>
            <stop stop-color="#0F575D" offset="100%"></stop>
        </linearGradient>
        <linearGradient x1="36.1805563%" y1="13.1381206%" x2="52.1816675%" y2="50%" id="linearGradient-3">
            <stop stop-color="#CFE49F" offset="0%"></stop>
            <stop stop-color="#A9D386" offset="100%"></stop>
        </linearGradient>
        <linearGradient x1="34.1151714%" y1="33.9683678%" x2="64.8333502%" y2="52.4070359%" id="linearGradient-4">
            <stop stop-color="#77D791" offset="0%"></stop>
            <stop stop-color="#4FA67E" offset="100%"></stop>
        </linearGradient>
        <linearGradient x1="50%" y1="114.0151%" x2="50.0378742%" y2="25.9019529%" id="linearGradient-5">
            <stop stop-color="#2B3389" offset="0%"></stop>
            <stop stop-color="#444FB7" offset="100%"></stop>
        </linearGradient>
        <linearGradient x1="50%" y1="50.640151%" x2="50.9350565%" y2="49.7590195%" id="linearGradient-6">
            <stop stop-color="#2B3389" offset="0%"></stop>
            <stop stop-color="#444FB7" offset="100%"></stop>
        </linearGradient>
        <linearGradient x1="50%" y1="7.26438915%" x2="50%" y2="151.05781%" id="linearGradient-7">
            <stop stop-color="#D0F6FF" offset="0%"></stop>
            <stop stop-color="#8BE2F7" offset="100%"></stop>
        </linearGradient>
        <linearGradient x1="50%" y1="0%" x2="50%" y2="100%" id="linearGradient-8">
            <stop stop-color="#FF9485" offset="0%"></stop>
            <stop stop-color="#FF676E" offset="100%"></stop>
        </linearGradient>
        <linearGradient x1="50%" y1="0%" x2="50%" y2="100%" id="linearGradient-9">
            <stop stop-color="#FF9485" offset="0%"></stop>
            <stop stop-color="#FF676E" offset="100%"></stop>
        </linearGradient>
        <linearGradient x1="50%" y1="-2.48949813e-15%" x2="50%" y2="100%" id="linearGradient-10">
            <stop stop-color="#4DBCFA" offset="0%"></stop>
            <stop stop-color="#1486DB" offset="100%"></stop>
        </linearGradient>
        <linearGradient x1="50%" y1="40.3136499%" x2="100%" y2="57.6266142%" id="linearGradient-11">
            <stop stop-color="#0F1752" offset="0%"></stop>
            <stop stop-color="#272884" offset="100%"></stop>
        </linearGradient>
        <linearGradient x1="50%" y1="46.1087019%" x2="100%" y2="53.0638403%" id="linearGradient-12">
            <stop stop-color="#0F1752" offset="0%"></stop>
            <stop stop-color="#272884" offset="100%"></stop>
        </linearGradient>
        <linearGradient x1="50%" y1="0%" x2="50%" y2="100%" id="linearGradient-13">
            <stop stop-color="#FF9485" offset="0%"></stop>
            <stop stop-color="#FF676E" offset="100%"></stop>
        </linearGradient>
        <linearGradient x1="82.5767258%" y1="-52.951376%" x2="82.5767258%" y2="186.664812%" id="linearGradient-14">
            <stop stop-color="#1533B6" offset="0%"></stop>
            <stop stop-color="#356BE9" offset="100%"></stop>
        </linearGradient>
        <linearGradient x1="50%" y1="0%" x2="50%" y2="100%" id="linearGradient-15">
            <stop stop-color="#FF9485" offset="0%"></stop>
            <stop stop-color="#FF676E" offset="100%"></stop>
        </linearGradient>
        <linearGradient x1="50%" y1="0%" x2="50%" y2="100%" id="linearGradient-16">
            <stop stop-color="#FF9485" offset="0%"></stop>
            <stop stop-color="#FF676E" offset="100%"></stop>
        </linearGradient>
        <linearGradient x1="50%" y1="0%" x2="50%" y2="100%" id="linearGradient-17">
            <stop stop-color="#FF9485" offset="0%"></stop>
            <stop stop-color="#FF676E" offset="100%"></stop>
        </linearGradient>
    </defs>
    <g id="Online-Shopping" stroke="none" stroke-width="1" fill="none" fill-rule="evenodd">
        <rect fill="#FFFFFF" x="0" y="0" width="1440" height="1024"></rect>
        <g id="Ornament" transform="translate(873.000000, 162.000000)">
            <path d="M246.817615,92.5793992 C246.817615,95.0141701 244.843724,96.987942 242.408807,96.987942 C239.97389,96.987942 238,95.0141701 238,92.5793992 C238,90.1446282 239.97389,88.1708564 242.408807,88.1708564 C244.843724,88.1708564 246.817615,90.1446282 246.817615,92.5793992 Z M246.817615,74.9452279 C246.817615,77.3799989 244.843724,79.3537707 242.408807,79.3537707 C239.97389,79.3537707 238,77.3799989 238,74.9452279 C238,72.5104569 239.97389,70.5366851 242.408807,70.5366851 C244.843724,70.5366851 246.817615,72.5104569 246.817615,74.9452279 Z M246.817615,57.3110566 C246.817615,59.7458276 244.843724,61.7195995 242.408807,61.7195995 C239.97389,61.7195995 238,59.7458276 238,57.3110566 C238,54.8762857 239.97389,52.9025138 242.408807,52.9025138 C244.843724,52.9025138 246.817615,54.8762857 246.817615,57.3110566 Z M246.817615,39.6768854 C246.817615,42.1116563 244.843724,44.0854282 242.408807,44.0854282 C239.97389,44.0854282 238,42.1116563 238,39.6768854 C238,37.2421144 239.97389,35.2683425 242.408807,35.2683425 C244.843724,35.2683425 246.817615,37.2421144 246.817615,39.6768854 Z M246.817615,22.0427141 C246.817615,24.4774851 244.843724,26.4512569 242.408807,26.4512569 C239.97389,26.4512569 238,24.4774851 238,22.0427141 C238,19.6079431 239.97389,17.6341713 242.408807,17.6341713 C244.843724,17.6341713 246.817615,19.6079431 246.817615,22.0427141 Z M246.817615,4.40854282 C246.817615,6.84331379 244.843724,8.81708564 242.408807,8.81708564 C239.97389,8.81708564 238,6.84331379 238,4.40854282 C238,1.97377185 239.97389,4.79616347e-13 242.408807,4.79616347e-13 C244.843724,4.79616347e-13 246.817615,1.97377185 246.817615,4.40854282 Z M264.452844,92.5793992 C264.452844,95.0141701 262.478954,96.987942 260.044037,96.987942 C257.609119,96.987942 255.635229,95.0141701 255.635229,92.5793992 C255.635229,90.1446282 257.609119,88.1708564 260.044037,88.1708564 C262.478954,88.1708564 264.452844,90.1446282 264.452844,92.5793992 Z M264.452844,74.9452279 C264.452844,77.3799989 262.478954,79.3537707 260.044037,79.3537707 C257.609119,79.3537707 255.635229,77.3799989 255.635229,74.9452279 C255.635229,72.5104569 257.609119,70.5366851 260.044037,70.5366851 C262.478954,70.5366851 264.452844,72.5104569 264.452844,74.9452279 Z M264.452844,57.3110566 C264.452844,59.7458276 262.478954,61.7195995 260.044037,61.7195995 C257.609119,61.7195995 255.635229,59.7458276 255.635229,57.3110566 C255.635229,54.8762857 257.609119,52.9025138 260.044037,52.9025138 C262.478954,52.9025138 264.452844,54.8762857 264.452844,57.3110566 Z M264.452844,39.6768854 C264.452844,42.1116563 262.478954,44.0854282 260.044037,44.0854282 C257.609119,44.0854282 255.635229,42.1116563 255.635229,39.6768854 C255.635229,37.2421144 257.609119,35.2683425 260.044037,35.2683425 C262.478954,35.2683425 264.452844,37.2421144 264.452844,39.6768854 Z M264.452844,22.0427141 C264.452844,24.4774851 262.478954,26.4512569 260.044037,26.4512569 C257.609119,26.4512569 255.635229,24.4774851 255.635229,22.0427141 C255.635229,19.6079431 257.609119,17.6341713 260.044037,17.6341713 C262.478954,17.6341713 264.452844,19.6079431 264.452844,22.0427141 Z M264.452844,4.40854282 C264.452844,6.84331379 262.478954,8.81708564 260.044037,8.81708564 C257.609119,8.81708564 255.635229,6.84331379 255.635229,4.40854282 C255.635229,1.97377185 257.609119,4.79616347e-13 260.044037,4.79616347e-13 C262.478954,4.79616347e-13 264.452844,1.97377185 264.452844,4.40854282 Z M282.088073,92.5793992 C282.088073,95.0141701 280.114183,96.987942 277.679266,96.987942 C275.244349,96.987942 273.270458,95.0141701 273.270458,92.5793992 C273.270458,90.1446282 275.244349,88.1708564 277.679266,88.1708564 C280.114183,88.1708564 282.088073,90.1446282 282.088073,92.5793992 Z M282.088073,74.9452279 C282.088073,77.3799989 280.114183,79.3537707 277.679266,79.3537707 C275.244349,79.3537707 273.270458,77.3799989 273.270458,74.9452279 C273.270458,72.5104569 275.244349,70.5366851 277.679266,70.5366851 C280.114183,70.5366851 282.088073,72.5104569 282.088073,74.9452279 Z M282.088073,57.3110566 C282.088073,59.7458276 280.114183,61.7195995 277.679266,61.7195995 C275.244349,61.7195995 273.270458,59.7458276 273.270458,57.3110566 C273.270458,54.8762857 275.244349,52.9025138 277.679266,52.9025138 C280.114183,52.9025138 282.088073,54.8762857 282.088073,57.3110566 Z M282.088073,39.6768854 C282.088073,42.1116563 280.114183,44.0854282 277.679266,44.0854282 C275.244349,44.0854282 273.270458,42.1116563 273.270458,39.6768854 C273.270458,37.2421144 275.244349,35.2683425 277.679266,35.2683425 C280.114183,35.2683425 282.088073,37.2421144 282.088073,39.6768854 Z M282.088073,22.0427141 C282.088073,24.4774851 280.114183,26.4512569 277.679266,26.4512569 C275.244349,26.4512569 273.270458,24.4774851 273.270458,22.0427141 C273.270458,19.6079431 275.244349,17.6341713 277.679266,17.6341713 C280.114183,17.6341713 282.088073,19.6079431 282.088073,22.0427141 Z M282.088073,4.40854282 C282.088073,6.84331379 280.114183,8.81708564 277.679266,8.81708564 C275.244349,8.81708564 273.270458,6.84331379 273.270458,4.40854282 C273.270458,1.97377185 275.244349,4.79616347e-13 277.679266,4.79616347e-13 C280.114183,4.79616347e-13 282.088073,1.97377185 282.088073,4.40854282 Z M299.723302,92.5793992 C299.723302,95.0141701 297.749412,96.987942 295.314495,96.987942 C292.879578,96.987942 290.905688,95.0141701 290.905688,92.5793992 C290.905688,90.1446282 292.879578,88.1708564 295.314495,88.1708564 C297.749412,88.1708564 299.723302,90.1446282 299.723302,92.5793992 Z M299.723302,74.9452279 C299.723302,77.3799989 297.749412,79.3537707 295.314495,79.3537707 C292.879578,79.3537707 290.905688,77.3799989 290.905688,74.9452279 C290.905688,72.5104569 292.879578,70.5366851 295.314495,70.5366851 C297.749412,70.5366851 299.723302,72.5104569 299.723302,74.9452279 Z M299.723302,57.3110566 C299.723302,59.7458276 297.749412,61.7195995 295.314495,61.7195995 C292.879578,61.7195995 290.905688,59.7458276 290.905688,57.3110566 C290.905688,54.8762857 292.879578,52.9025138 295.314495,52.9025138 C297.749412,52.9025138 299.723302,54.8762857 299.723302,57.3110566 Z M299.723302,39.6768854 C299.723302,42.1116563 297.749412,44.0854282 295.314495,44.0854282 C292.879578,44.0854282 290.905688,42.1116563 290.905688,39.6768854 C290.905688,37.2421144 292.879578,35.2683425 295.314495,35.2683425 C297.749412,35.2683425 299.723302,37.2421144 299.723302,39.6768854 Z M299.723302,22.0427141 C299.723302,24.4774851 297.749412,26.4512569 295.314495,26.4512569 C292.879578,26.4512569 290.905688,24.4774851 290.905688,22.0427141 C290.905688,19.6079431 292.879578,17.6341713 295.314495,17.6341713 C297.749412,17.6341713 299.723302,19.6079431 299.723302,22.0427141 Z M299.723302,4.40854282 C299.723302,6.84331379 297.749412,8.81708564 295.314495,8.81708564 C292.879578,8.81708564 290.905688,6.84331379 290.905688,4.40854282 C290.905688,1.97377185 292.879578,5.25801624e-13 295.314495,5.25801624e-13 C297.749412,5.25801624e-13 299.723302,1.97377185 299.723302,4.40854282 Z M317.358531,92.5793992 C317.358531,95.0141701 315.384641,96.987942 312.949724,96.987942 C310.514807,96.987942 308.540917,95.0141701 308.540917,92.5793992 C308.540917,90.1446282 310.514807,88.1708564 312.949724,88.1708564 C315.384641,88.1708564 317.358531,90.1446282 317.358531,92.5793992 Z M317.358531,74.9452279 C317.358531,77.3799989 315.384641,79.3537707 312.949724,79.3537707 C310.514807,79.3537707 308.540917,77.3799989 308.540917,74.9452279 C308.540917,72.5104569 310.514807,70.5366851 312.949724,70.5366851 C315.384641,70.5366851 317.358531,72.5104569 317.358531,74.9452279 Z M317.358531,57.3110566 C317.358531,59.7458276 315.384641,61.7195995 312.949724,61.7195995 C310.514807,61.7195995 308.540917,59.7458276 308.540917,57.3110566 C308.540917,54.8762857 310.514807,52.9025138 312.949724,52.9025138 C315.384641,52.9025138 317.358531,54.8762857 317.358531,57.3110566 Z M317.358531,39.6768854 C317.358531,42.1116563 315.384641,44.0854282 312.949724,44.0854282 C310.514807,44.0854282 308.540917,42.1116563 308.540917,39.6768854 C308.540917,37.2421144 310.514807,35.2683425 312.949724,35.2683425 C315.384641,35.2683425 317.358531,37.2421144 317.358531,39.6768854 Z M317.358531,22.0427141 C317.358531,24.4774851 315.384641,26.4512569 312.949724,26.4512569 C310.514807,26.4512569 308.540917,24.4774851 308.540917,22.0427141 C308.540917,19.6079431 310.514807,17.6341713 312.949724,17.6341713 C315.384641,17.6341713 317.358531,19.6079431 317.358531,22.0427141 Z M317.358531,4.40854282 C317.358531,6.84331379 315.384641,8.81708564 312.949724,8.81708564 C310.514807,8.81708564 308.540917,6.84331379 308.540917,4.40854282 C308.540917,1.97377185 310.514807,4.79616347e-13 312.949724,4.79616347e-13 C315.384641,4.79616347e-13 317.358531,1.97377185 317.358531,4.40854282 Z M334.993761,92.5793992 C334.993761,95.0141701 333.01987,96.987942 330.584953,96.987942 C328.150036,96.987942 326.176146,95.0141701 326.176146,92.5793992 C326.176146,90.1446282 328.150036,88.1708564 330.584953,88.1708564 C333.01987,88.1708564 334.993761,90.1446282 334.993761,92.5793992 Z M334.993761,74.9452279 C334.993761,77.3799989 333.01987,79.3537707 330.584953,79.3537707 C328.150036,79.3537707 326.176146,77.3799989 326.176146,74.9452279 C326.176146,72.5104569 328.150036,70.5366851 330.584953,70.5366851 C333.01987,70.5366851 334.993761,72.5104569 334.993761,74.9452279 Z M334.993761,57.3110566 C334.993761,59.7458276 333.01987,61.7195995 330.584953,61.7195995 C328.150036,61.7195995 326.176146,59.7458276 326.176146,57.3110566 C326.176146,54.8762857 328.150036,52.9025138 330.584953,52.9025138 C333.01987,52.9025138 334.993761,54.8762857 334.993761,57.3110566 Z M334.993761,39.6768854 C334.993761,42.1116563 333.01987,44.0854282 330.584953,44.0854282 C328.150036,44.0854282 326.176146,42.1116563 326.176146,39.6768854 C326.176146,37.2421144 328.150036,35.2683425 330.584953,35.2683425 C333.01987,35.2683425 334.993761,37.2421144 334.993761,39.6768854 Z M334.993761,22.0427141 C334.993761,24.4774851 333.01987,26.4512569 330.584953,26.4512569 C328.150036,26.4512569 326.176146,24.4774851 326.176146,22.0427141 C326.176146,19.6079431 328.150036,17.6341713 330.584953,17.6341713 C333.01987,17.6341713 334.993761,19.6079431 334.993761,22.0427141 Z M334.993761,4.40854282 C334.993761,6.84331379 333.01987,8.81708564 330.584953,8.81708564 C328.150036,8.81708564 326.176146,6.84331379 326.176146,4.40854282 C326.176146,1.97377185 328.150036,1.77635684e-14 330.584953,1.77635684e-14 C333.01987,1.77635684e-14 334.993761,1.97377185 334.993761,4.40854282 Z" id="Shape" fill="#CDCBDF"></path>
            <path d="M227.421769,533.925666 C101.817603,533.925666 4.54747351e-13,432.084497 4.54747351e-13,306.462833 C4.54747351e-13,180.841169 101.817603,79 227.421769,79 C353.025934,79 454.843537,180.841169 454.843537,306.462833 C454.843537,432.084497 353.025934,533.925666 227.421769,533.925666 Z M227.421769,433.925666 C297.792278,433.925666 354.843537,376.861202 354.843537,306.462833 C354.843537,236.064464 297.792278,179 227.421769,179 C157.05126,179 100,236.064464 100,306.462833 C100,376.861202 157.05126,433.925666 227.421769,433.925666 Z" id="Shape" fill="url(#linearGradient-1)"></path>
        </g>
        <g id="Plant" transform="translate(1053.000000, 330.000000)">
            <path d="M39.4981201,164.85314 C63.4566962,71.748516 121.682551,39.0261602 214.175686,66.686073 C206.306031,108.785983 187.576224,141.226961 157.986264,164.009006 C128.396305,186.791051 88.9002567,187.07243 39.4981201,164.85314 Z" id="Shape" fill="url(#linearGradient-2)"></path>
            <path d="M110.90666,123.31975 L114.182626,91.2147532 C114.317975,89.8883075 116.307644,90.0913315 116.172294,91.4177773 L113.04009,122.113892 C137.314607,108.396862 167.641093,91.3752098 204.021245,71.0479371 C204.503374,70.7785492 205.112599,70.9510101 205.381987,71.4331393 C205.651375,71.9152686 205.478914,72.5244936 204.996785,72.7938815 C185.072124,83.9267104 166.963277,94.0680217 150.670521,103.217651 L178.847155,109.94056 C179.38436,110.068737 179.715944,110.608135 179.587767,111.14534 C179.459591,111.682545 178.920192,112.014128 178.382987,111.885952 L148.101203,104.660756 C135.046861,111.994186 123.186404,118.675692 112.519979,124.705186 C112.425529,124.787184 112.316344,124.847239 112.199917,124.886116 C100.139932,131.70388 89.6132281,137.684383 80.6200223,142.827497 L106.833213,152.40034 C107.351987,152.589792 107.618955,153.163922 107.429503,153.682696 C107.240051,154.20147 106.66592,154.468438 106.147147,154.278986 L78.4735497,144.172815 C78.4334076,144.158155 78.3947731,144.141192 78.3577411,144.12213 C64.2878892,152.17938 54.1992515,158.062628 48.0927331,161.771343 C47.6206877,162.058034 47.0056105,161.907774 46.7189198,161.435729 C46.4322291,160.963683 46.5824889,160.348606 47.0545343,160.061915 C57.2599898,153.863764 78.5426306,141.617201 110.90666,123.31975 Z" id="Shape" fill="#FFFFFF" fill-rule="nonzero"></path>
            <path d="M50.2925002,192.93029 C1.39886056,110.154107 19.4325579,45.8440106 104.393592,5.68434189e-14 C128.598038,35.3338181 138.293299,71.5170271 133.479377,108.549627 C128.665455,145.582227 100.936496,173.709114 50.2925002,192.93029 Z" id="Shape" fill="url(#linearGradient-3)"></path>
            <path d="M71.4174312,113.068298 L51.0322176,88.0501669 C50.1899853,87.0165217 51.7404532,85.7531732 52.5826855,86.7868184 L72.0733233,110.707065 C79.5385941,83.8429829 88.9465331,50.3627908 100.297634,10.2645827 C100.448065,9.73317982 101.0008,9.42434098 101.532203,9.57477183 C102.063606,9.72520267 102.372445,10.2779381 102.222014,10.809341 C96.0052518,32.7702963 90.3713544,52.7461701 85.3204025,70.7366492 L109.99809,55.5665848 C110.468586,55.2773579 111.084463,55.4243053 111.37369,55.8948011 C111.662917,56.3652968 111.515969,56.9811737 111.045474,57.2704006 L84.5240498,73.5738611 C80.4787456,87.9902222 76.8166666,101.101395 73.537856,112.907212 C73.5290457,113.031934 73.4943191,113.151562 73.4395101,113.261343 C69.7326936,126.609949 66.518039,138.282324 63.7956093,148.278225 L89.1001411,136.51173 C89.6009325,136.278864 90.1956791,136.496061 90.4285449,136.996852 C90.6614106,137.497643 90.444214,138.09239 89.9434227,138.325256 L63.2290923,150.747301 C63.1903464,150.765318 63.151038,150.78064 63.1113783,150.793346 C58.8598251,166.439575 55.8861651,177.733407 54.1906615,184.673826 C54.0595959,185.210334 53.518421,185.539009 52.9819135,185.407944 C52.4454061,185.276878 52.1167305,184.735703 52.2477961,184.199196 C55.0813881,172.600095 61.4708588,148.89137 71.4174312,113.068298 L71.4174312,113.068298 Z" id="Shape" fill="#FFFFFF" fill-rule="nonzero"></path>
            <path d="M-2.27373675e-13,227.324394 C47.2394574,143.593169 111.950484,127.05576 194.133079,177.712169 C175.635317,216.340743 149.14737,242.82869 114.669237,257.176011 C80.1911033,271.523332 41.9680244,261.572793 -2.27373675e-13,227.324394 Z" id="Shape" fill="url(#linearGradient-4)" fill-rule="nonzero"></path>
            <path d="M79.7249871,205.688105 L91.1987099,175.524946 C91.6727567,174.278729 93.5420825,174.9898 93.0680357,176.236017 L82.097821,205.075508 C109.095432,198.108582 142.794094,189.516001 183.195706,179.29724 C183.731129,179.161816 184.274959,179.486079 184.410384,180.021503 C184.545808,180.556927 184.221545,181.100757 183.686121,181.236181 C161.558988,186.832787 141.442419,191.941627 123.336727,196.562615 L148.813254,210.349099 C149.298979,210.611947 149.479657,211.218786 149.21681,211.704511 C148.953962,212.190237 148.347123,212.370915 147.861397,212.108067 L120.481453,197.291559 C105.973905,200.996393 92.78829,204.380518 80.9247726,207.443887 C80.8123068,207.498654 80.6912845,207.528407 80.5687493,207.535824 C67.1551379,210.999923 55.4392605,214.052132 45.4213591,216.692384 L68.2637271,232.723517 C68.7157905,233.040782 68.825066,233.664446 68.5078008,234.116509 C68.1905357,234.568573 67.5668717,234.677848 67.1148084,234.360583 L42.9998362,217.436317 C42.9648547,217.411766 42.9319258,217.385381 42.9010882,217.357383 C27.2252857,221.498542 15.9577136,224.570192 9.09938382,226.572052 C8.56922192,226.7268 8.01399309,226.422467 7.85924551,225.892305 C7.70449794,225.362143 8.00883137,224.806914 8.53899326,224.652166 C20.0009063,221.306578 43.728004,214.985659 79.7249871,205.688105 Z" id="Shape" fill="#FFFFFF" fill-rule="nonzero"></path>
        </g>
        <g id="Tab" transform="translate(39.000000, 115.000000)">
            <path d="M20,4.54747351e-13 L1040,4.54747351e-13 C1051.04569,4.5271829e-13 1060,8.954305 1060,20 L1060,775 C1060,786.045695 1051.04569,795 1040,795 L20,795 C8.954305,795 9.10847409e-13,786.045695 9.09494702e-13,775 L9.09494702e-13,20 C9.08141994e-13,8.954305 8.954305,4.56776412e-13 20,4.54747351e-13 Z" id="Shape" fill="#FFFFFF"></path>
            <path d="M20,5.68434189e-14 L160,5.68434189e-14 L160,795 L20,795 C8.954305,795 -5.54907114e-14,786.045695 -5.68434189e-14,775 L-5.68434189e-14,20 C-5.81961264e-14,8.954305 8.954305,6.24251938e-14 20,5.68434189e-14 Z" id="Shape" fill="url(#linearGradient-5)"></path>
            <path d="M20,4.54747351e-13 L1040,4.54747351e-13 C1051.04569,4.5271829e-13 1060,8.954305 1060,20 L1060,106 L9.09494702e-13,106 L9.09494702e-13,20 C9.08141994e-13,8.954305 8.954305,4.56776412e-13 20,4.54747351e-13 Z" id="Shape" fill="url(#linearGradient-6)"></path>
            <path d="M70,73 C58.954305,73 50,64.045695 50,53 C50,41.954305 58.954305,33 70,33 C81.045695,33 90,41.954305 90,53 C90,64.045695 81.045695,73 70,73 Z M140,73 C128.954305,73 120,64.045695 120,53 C120,41.954305 128.954305,33 140,33 C151.045695,33 160,41.954305 160,53 C160,64.045695 151.045695,73 140,73 Z M210,73 C198.954305,73 190,64.045695 190,53 C190,41.954305 198.954305,33 210,33 C221.045695,33 230,41.954305 230,53 C230,64.045695 221.045695,73 210,73 Z" id="Shape" fill="#FFFFFF"></path>
            <path d="M210,156 L430,156 L430,356 L210,356 L210,156 Z M505,156 L725,156 L725,356 L505,356 L505,156 Z M800,156 L1020,156 L1020,356 L800,356 L800,156 Z" id="Shape" fill="#D0F6FF"></path>
            <path d="M210,416 L1020,416 L1020,466 L210,466 L210,416 Z M210,506 L1020,506 L1020,556 L210,556 L210,506 Z M210,606 L1020,606 L1020,656 L210,656 L210,606 Z M210,696 L1020,696 L1020,746 L210,746 L210,696 Z" id="Shape" fill="url(#linearGradient-7)"></path>
            <circle id="Shape" fill="url(#linearGradient-8)" cx="320" cy="256" r="80"></circle>
            <path d="M348.822835,229.025409 C351.79114,225.752742 356.850447,225.506008 360.123114,228.474312 C363.395781,231.442617 363.642515,236.501924 360.674211,239.774591 L322.217468,282.174591 C319.44381,285.232653 314.798631,285.677805 311.494672,283.202168 L284.802892,263.202168 C281.267072,260.552798 280.548462,255.538712 283.197832,252.002892 C285.847202,248.467072 290.861288,247.748462 294.397108,250.397832 L315.259684,266.030042 L348.822835,229.025409 Z" id="Shape" fill="#FFFFFF" fill-rule="nonzero"></path>
            <polygon id="Shape" fill="url(#linearGradient-8)" points="545 186 685 186 685 326 545 326"></polygon>
            <polygon id="Shape" fill="url(#linearGradient-9)" points="909.5 294.25 865.122213 317.580783 873.597617 268.165392 837.695233 233.169217 887.311107 225.959608 909.5 181 931.688893 225.959608 981.304767 233.169217 945.402383 268.165392 953.877787 317.580783"></polygon>
        </g>
        <g id="Bag" transform="translate(382.253163, 378.000000)">
            <path d="M7.2010777,144.504823 L620.100738,144.504823 C624.077189,144.504823 627.300738,147.728373 627.300738,151.704823 C627.300738,152.088791 627.270024,152.472144 627.208888,152.851213 L578.973057,451.935691 C571.747902,496.153988 530.096262,532 485.941517,532 L141.360299,532 C97.2055537,532 55.5539145,496.153988 48.3287589,451.935691 L0.0929281815,152.851213 C-0.540205612,148.925491 2.12896498,145.229807 6.05468756,144.596674 C6.43375716,144.535538 6.81710982,144.504823 7.2010777,144.504823 Z" id="Shape" fill="url(#linearGradient-10)"></path>
            <path d="M49.4095513,223.752412 L116.548916,223.752412 L122.513699,279.797428 L57.4061339,279.797428 L49.4095513,223.752412 Z M61.9756097,311.823151 L125.922146,311.823151 L131.88693,367.868167 L69.9721923,367.868167 L61.9756097,311.823151 Z M164.505605,223.752412 L231.64497,223.752412 L234.126668,279.797428 L169.019103,279.797428 L164.505605,223.752412 Z M171.598244,311.823151 L235.544781,311.823151 L238.026479,367.868167 L176.111742,367.868167 L171.598244,311.823151 Z M279.601659,223.752412 L346.741023,223.752412 L345.739637,279.797428 L280.632071,279.797428 L279.601659,223.752412 Z M281.220879,311.823151 L345.167415,311.823151 L344.166029,367.868167 L282.251291,367.868167 L281.220879,311.823151 Z M394.697713,223.752412 L461.837077,223.752412 L457.352605,279.797428 L392.24504,279.797428 L394.697713,223.752412 Z M390.843513,311.823151 L454.79005,311.823151 L450.305578,367.868167 L388.390841,367.868167 L390.843513,311.823151 Z M509.793766,223.752412 L576.933131,223.752412 L568.965574,279.797428 L503.858009,279.797428 L509.793766,223.752412 Z M500.466148,311.823151 L564.412684,311.823151 L556.445127,367.868167 L494.53039,367.868167 L500.466148,311.823151 Z M74.5416681,399.893891 L135.295377,399.893891 L141.26016,455.938907 L82.5382507,455.938907 L74.5416681,399.893891 Z M178.690883,399.893891 L239.444592,399.893891 L241.92629,455.938907 L183.204381,455.938907 L178.690883,399.893891 Z M282.840099,399.893891 L343.593807,399.893891 L342.59242,455.938907 L283.870511,455.938907 L282.840099,399.893891 Z M386.989314,399.893891 L447.743023,399.893891 L443.258551,455.938907 L384.536641,455.938907 L386.989314,399.893891 Z M491.138529,399.893891 L551.892238,399.893891 L543.924681,455.938907 L485.202772,455.938907 L491.138529,399.893891 Z" id="Shape" fill="url(#linearGradient-11)"></path>
            <path d="M144.269679,144.504823 L483.223994,144.504823 L483.223994,104 C483.223994,73.072054 458.15194,48 427.223994,48 L200.269679,48 C169.341733,48 144.269679,73.072054 144.269679,104 L144.269679,144.504823 Z M531.223994,144.504823 L620.100738,144.504823 C624.077189,144.504823 627.300738,147.728373 627.300738,151.704823 C627.300738,152.088791 627.270024,152.472144 627.208888,152.851213 L623.63677,175 L3.66504645,175 L0.0929281815,152.851213 C-0.540205612,148.925491 2.12896498,145.229807 6.05468756,144.596674 C6.43375716,144.535538 6.81710982,144.504823 7.2010777,144.504823 L96.2696794,144.504823 L96.2696794,104 C96.2696794,46.562386 142.832065,-4.26325641e-14 200.269679,-4.26325641e-14 L427.223994,-4.26325641e-14 C484.661608,-4.26325641e-14 531.223994,46.562386 531.223994,104 L531.223994,144.504823 Z" id="Shape" fill="url(#linearGradient-12)"></path>
        </g>
        <g id="Man" transform="translate(61.454764, 330.461948)">
            <path d="M13.8941207,155.685299 L35.5634898,176.687153 L26.8988834,198.305476 L46.5945023,225.739034 L35.5634898,240.925654 L8.09349753,211.564101 C-0.408083016,202.477109 -2.4172265,189.08503 3.04354954,177.903338 L13.8941207,155.685299 Z" id="Shape" fill="#F4B696"></path>
            <polygon id="Shape" fill="url(#linearGradient-13)" points="66.3598619 88.3993354 40.4432093 99.9758803 8.41264027 155.398251 29.6142459 182.302804 66.3598619 142.345979"></polygon>
            <polygon id="Shape" fill="#FE9F9F" points="45.9948482 539.910723 67.6227552 539.910723 67.6227552 561.525629 45.9948482 561.525629"></polygon>
            <polygon id="Shape" fill="#FE9F9F" points="109.677019 539.910723 131.304926 539.910723 131.304926 561.525629 109.677019 561.525629"></polygon>
            <polygon id="Shape" fill="#241F4A" points="71.5226645 553.044631 43.3940322 553.044631 30.8450457 263.867404 101.696693 265.619915"></polygon>
            <path d="M135.729961,552.716416 L105.979206,552.716416 L97.4526732,399.065729 L30.7745436,264.232238 L126.655343,265.812112 L146.768716,364.963797 C149.0351,376.13625 149.697885,387.574653 148.737087,398.934102 L135.729961,552.716416 Z" id="Shape" fill="url(#linearGradient-14)"></path>
            <path d="M108.475468,559.123973 L131.192064,559.123973 L145.582172,563.927286 C152.83334,566.495569 158.940585,567.543781 158.940585,575.588894 C158.940585,577.655559 157.571251,579.330922 155.882093,579.330922 L113.275468,579.330922 C110.624502,579.330922 108.475468,577.181889 108.475468,574.530922 L108.475468,559.123973 Z" id="Shape" fill="#211D41"></path>
            <path d="M145.545236,92.7037598 L206.115305,92.7037598 L291.043747,50.0376562 L299.082878,39.8719481 L299.082878,50.0376562 L319.375226,50.0376562 C317.415965,60.8153411 313.544092,67.5085362 307.759606,70.1172413 C301.975121,72.7259465 293.620347,72.7259465 282.695286,70.1172413 L207.30907,124.741454 L145.545236,133.538052 L145.545236,92.7037598 Z" id="Shape" fill="#F4B696"></path>
            <path d="M44.7932978,559.123973 L67.5098935,559.123973 L81.900001,563.927286 C89.1511694,566.495569 95.2584141,567.543781 95.2584141,575.588894 C95.2584141,577.655559 93.8890806,579.330922 92.1999222,579.330922 L49.5932978,579.330922 C46.942331,579.330922 44.7932978,577.181889 44.7932978,574.530922 L44.7932978,559.123973 Z" id="Shape" fill="#211D41"></path>
            <path d="M97.8501058,89.975095 C98.6462769,77.7858674 101.022943,70.8687172 104.980104,69.2236442 C110.915845,66.7560347 114.725941,65.5194731 113.951167,59.2735663 C113.176394,53.0276595 114.855213,50.924367 117.440868,49.687075 C120.026523,48.4497829 122.103,44.4819995 114.721648,40.2319893 C109.800747,37.3986492 106.977387,30.5962846 106.251566,19.8248955 C79.6406816,11.1298598 64.8868693,16.1149047 61.9901295,34.7800304 C59.0933896,53.445156 61.076058,68.0282299 67.9381347,78.529252 L67.9381347,89.975095 L97.8501058,89.975095 Z" id="Shape" fill="#F4B696"></path>
            <path d="M161.514779,86.1274155 L161.514779,135.02783 L126.720696,135.02783 L126.720696,265.994482 L29.1111015,265.994482 L29.1111015,128.127416 C29.1111015,104.931456 47.915142,86.1274155 71.1111015,86.1274155 C75.500705,86.1274155 79.8903084,86.1274155 84.2799118,86.1274155 C93.3271701,86.1274155 119.072126,86.1274155 161.514779,86.1274155 Z" id="Shape" fill="url(#linearGradient-15)"></path>
            <path d="M67.5344532,78.2882838 C75.7327767,78.0374529 80.4181877,76.622035 81.5906864,74.0420301 C83.3494343,70.1720227 83.5799901,63.2724188 83.1877894,61.0948814 C82.7955886,58.9173441 80.3133557,59.82876 78.3533111,59.82876 C76.3932665,59.82876 73.3504241,55.4172005 75.3809785,52.1003932 C77.4115329,48.7835858 80.2206217,49.3031185 81.5906864,49.8920604 C82.960751,50.4810023 86.2553655,48.8314543 85.1515113,43.47529 C84.0476572,38.1191257 81.5834915,33.1025085 85.1515113,33.1025085 C88.7195312,33.1025085 108.712338,30.8099272 109.766947,17.2388926 C110.821556,3.66785805 102.944764,-4.02173535 90.2979275,2.1698936 C77.651091,8.36152255 73.57895,7.78582424 64.0503736,9.95969169 C54.5217971,12.1335591 45.0360702,14.8020676 43.0285394,31.5132748 C41.0210086,48.2244819 47.6965761,56.7284778 55.3794266,62.793734 C63.062277,68.8589901 61.30225,70.7175638 62.3664524,74.0420301 C63.0759207,76.2583409 64.7985876,77.6737588 67.5344532,78.2882838 Z" id="Shape" fill="#221E41"></path>
            <path d="M84.2409933,272.286741 L85.1782507,271.938103 L87.6187174,278.498905 L86.6814599,278.847543 L84.2409933,272.286741 Z M90.1678408,288.220117 L91.1050983,287.871479 L93.5455649,294.432281 L92.6083075,294.780919 L90.1678408,288.220117 Z M96.0946884,304.153493 L97.0319458,303.804855 L99.4724125,310.365657 L98.535155,310.714295 L96.0946884,304.153493 Z M102.021536,320.08687 L102.958793,319.738231 L105.39926,326.299033 L104.462003,326.647672 L102.021536,320.08687 Z M107.948384,336.020246 L108.885641,335.671608 L111.326108,342.23241 L110.38885,342.581048 L107.948384,336.020246 Z M113.875231,351.953622 L114.812488,351.604984 L117.252955,358.165786 L116.315698,358.514424 L113.875231,351.953622 Z M119.794991,367.884266 L120.735923,367.545671 C121.530552,369.753893 122.247318,371.98851 122.885074,374.245432 L121.922757,374.517362 C121.291347,372.282897 120.581713,370.070516 119.794991,367.884266 Z M124.149248,384.232297 L125.133942,384.058005 C125.542745,386.36761 125.870592,388.690941 126.116852,391.023716 L125.122378,391.128698 C124.878568,388.819135 124.553983,386.518921 124.149248,384.232297 Z M125.670962,401.078528 L126.670949,401.073546 C126.676348,402.157061 126.664224,403.240793 126.634562,404.324398 L126.530599,408.102576 L125.530977,408.07507 L125.634939,404.296963 C125.664303,403.224211 125.676306,402.151262 125.670962,401.078528 Z M125.25591,418.071286 L126.255531,418.098793 L126.062984,425.096144 L125.063363,425.068637 L125.25591,418.071286 Z M124.788295,435.064853 L125.787917,435.09236 L125.59537,442.089711 L124.595748,442.062205 L124.788295,435.064853 Z M124.320681,452.058421 L125.320303,452.085928 L125.127756,459.083279 L124.128134,459.055772 L124.320681,452.058421 Z M123.853067,469.051988 L124.852688,469.079495 L124.660141,476.076846 L123.66052,476.04934 L123.853067,469.051988 Z M123.385452,486.045556 L124.385074,486.073063 L124.192527,493.070414 L123.192905,493.042907 L123.385452,486.045556 Z M122.917838,503.039123 L123.91746,503.06663 L123.724913,510.063981 L122.725291,510.036475 L122.917838,503.039123 Z M122.450224,520.032691 L123.449845,520.060198 L123.257298,527.057549 L122.257677,527.030042 L122.450224,520.032691 Z M121.982609,537.026258 L122.982231,537.053765 L122.789684,544.051116 L121.790062,544.02361 L121.982609,537.026258 Z" id="Shape" fill="#A587FF" fill-rule="nonzero"></path>
        </g>
        <g id="Package" transform="translate(855.000000, 579.000000)">
            <polygon id="Shape" fill="url(#linearGradient-16)" points="18 0 400.982808 0 400.982808 331 18 331"></polygon>
            <polygon id="Shape" fill="#D64F53" points="18 0 400.982808 0 400.982808 78.607545 18 78.607545"></polygon>
            <polygon id="Shape" fill="url(#linearGradient-17)" points="0 0 419 0 419 55.1666667 0 55.1666667"></polygon>
        </g>
    </g>
</svg>