<?xml version="1.0" encoding="UTF-8"?>
<svg width="1440px" height="1024px" viewBox="0 0 1440 1024" version="1.1" xmlns="http://www.w3.org/2000/svg" xmlns:xlink="http://www.w3.org/1999/xlink">
    <!-- Generator: Sketch 53.2 (72643) - https://sketchapp.com -->
    <title>Data Analytic</title>
    <desc>Created with Sketch.</desc>
    <defs>
        <linearGradient x1="50%" y1="0%" x2="50%" y2="100%" id="linearGradient-1">
            <stop stop-color="#FF9485" offset="0%"></stop>
            <stop stop-color="#FF676E" offset="100%"></stop>
        </linearGradient>
        <linearGradient x1="50%" y1="7.26438915%" x2="50%" y2="151.05781%" id="linearGradient-2">
            <stop stop-color="#D0F6FF" offset="0%"></stop>
            <stop stop-color="#8BE2F7" offset="100%"></stop>
        </linearGradient>
        <linearGradient x1="50%" y1="0%" x2="50%" y2="91.8482298%" id="linearGradient-3">
            <stop stop-color="#EAFCFF" offset="0%"></stop>
            <stop stop-color="#FFFFFF" offset="100%"></stop>
        </linearGradient>
        <linearGradient x1="50%" y1="0%" x2="50%" y2="143.743183%" id="linearGradient-4">
            <stop stop-color="#FFC8C0" offset="0%"></stop>
            <stop stop-color="#FF676E" offset="100%"></stop>
        </linearGradient>
        <linearGradient x1="50%" y1="61.9239585%" x2="50%" y2="100%" id="linearGradient-5">
            <stop stop-color="#FFA79A" offset="0%"></stop>
            <stop stop-color="#FF676E" offset="100%"></stop>
        </linearGradient>
        <linearGradient x1="50%" y1="0%" x2="50%" y2="100%" id="linearGradient-6">
            <stop stop-color="#FF9485" offset="0%"></stop>
            <stop stop-color="#FF676E" offset="100%"></stop>
        </linearGradient>
        <linearGradient x1="8.38174197%" y1="31.2307029%" x2="56.5702499%" y2="50%" id="linearGradient-7">
            <stop stop-color="#CFE49F" offset="0%"></stop>
            <stop stop-color="#A9D386" offset="100%"></stop>
        </linearGradient>
        <linearGradient x1="34.9261958%" y1="24.563533%" x2="66.6621901%" y2="80.4180658%" id="linearGradient-8">
            <stop stop-color="#6EAE7C" offset="0%"></stop>
            <stop stop-color="#0F575D" offset="100%"></stop>
        </linearGradient>
        <linearGradient x1="34.1151714%" y1="33.7956635%" x2="64.8333502%" y2="52.4329662%" id="linearGradient-9">
            <stop stop-color="#77D791" offset="0%"></stop>
            <stop stop-color="#4FA67E" offset="100%"></stop>
        </linearGradient>
        <linearGradient x1="50%" y1="86.0084939%" x2="50.9350565%" y2="36.4448485%" id="linearGradient-10">
            <stop stop-color="#2B3389" offset="0%"></stop>
            <stop stop-color="#444FB7" offset="100%"></stop>
        </linearGradient>
        <linearGradient x1="50%" y1="7.26438915%" x2="50%" y2="151.05781%" id="linearGradient-11">
            <stop stop-color="#D0F6FF" offset="0%"></stop>
            <stop stop-color="#8BE2F7" offset="100%"></stop>
        </linearGradient>
        <linearGradient x1="50%" y1="7.26438915%" x2="50%" y2="151.05781%" id="linearGradient-12">
            <stop stop-color="#D0F6FF" offset="0%"></stop>
            <stop stop-color="#8BE2F7" offset="100%"></stop>
        </linearGradient>
        <linearGradient x1="50%" y1="7.26438915%" x2="50%" y2="151.05781%" id="linearGradient-13">
            <stop stop-color="#D0F6FF" offset="0%"></stop>
            <stop stop-color="#8BE2F7" offset="100%"></stop>
        </linearGradient>
        <linearGradient x1="50%" y1="-2.48949813e-15%" x2="50%" y2="100%" id="linearGradient-14">
            <stop stop-color="#4DBCFA" offset="0%"></stop>
            <stop stop-color="#1486DB" offset="100%"></stop>
        </linearGradient>
        <linearGradient x1="50%" y1="-27.3641552%" x2="50%" y2="100%" id="linearGradient-15">
            <stop stop-color="#C0E4FD" offset="0%"></stop>
            <stop stop-color="#72B9FE" offset="100%"></stop>
        </linearGradient>
        <linearGradient x1="82.5767258%" y1="-52.951376%" x2="82.5767258%" y2="186.664812%" id="linearGradient-16">
            <stop stop-color="#1533B6" offset="0%"></stop>
            <stop stop-color="#356BE9" offset="100%"></stop>
        </linearGradient>
        <linearGradient x1="82.5767258%" y1="-52.951376%" x2="82.5767258%" y2="186.664812%" id="linearGradient-17">
            <stop stop-color="#1533B6" offset="0%"></stop>
            <stop stop-color="#356BE9" offset="100%"></stop>
        </linearGradient>
        <linearGradient x1="50%" y1="0%" x2="50%" y2="100%" id="linearGradient-18">
            <stop stop-color="#1D2A78" offset="0%"></stop>
            <stop stop-color="#12033B" offset="100%"></stop>
        </linearGradient>
        <linearGradient x1="82.5767258%" y1="-52.951376%" x2="82.5767258%" y2="186.664812%" id="linearGradient-19">
            <stop stop-color="#1533B6" offset="0%"></stop>
            <stop stop-color="#356BE9" offset="100%"></stop>
        </linearGradient>
        <linearGradient x1="50%" y1="0%" x2="50%" y2="100%" id="linearGradient-20">
            <stop stop-color="#1D2A78" offset="0%"></stop>
            <stop stop-color="#12033B" offset="100%"></stop>
        </linearGradient>
        <linearGradient x1="50%" y1="0%" x2="50%" y2="100%" id="linearGradient-21">
            <stop stop-color="#FF9485" offset="0%"></stop>
            <stop stop-color="#FF676E" offset="100%"></stop>
        </linearGradient>
    </defs>
    <g id="Data-Analytic" stroke="none" stroke-width="1" fill="none" fill-rule="evenodd">
        <rect fill="#FFFFFF" x="0" y="0" width="1440" height="1024"></rect>
        <g id="Data" transform="translate(889.000000, 58.000000)">
            <path d="M10,0 L412,0 C417.522847,-1.01453063e-15 422,4.4771525 422,10 L422,386 C422,391.522847 417.522847,396 412,396 L10,396 C4.4771525,396 0,391.522847 0,386 L0,10 C0,4.4771525 4.4771525,1.01453063e-15 10,0 Z" id="Shape" fill="url(#linearGradient-1)"></path>
            <polygon id="Shape" fill="#F7F5FF" points="30 30 107 30 107 50 30 50"></polygon>
            <polygon id="Shape" fill="#FFFFFF" points="30 80 389.370851 80 389.370851 390 30 390"></polygon>
            <path d="M60,119 L80,119 L80,320 L60,320 L60,119 Z M116,129 L136,129 L136,320 L116,320 L116,129 Z M172,109 L192,109 L192,320 L172,320 L172,109 Z M227,139 L247,139 L247,320 L227,320 L227,139 Z M283,109 L303,109 L303,320 L283,320 L283,109 Z M339,129 L359,129 L359,320 L339,320 L339,129 Z" id="Shape" fill="#52D7FD"></path>
        </g>
        <g id="Ornament" transform="translate(782.000000, 125.000000)" fill="url(#linearGradient-2)">
            <path d="M8.81761461,92.5793992 C8.81761461,95.0141701 6.84372434,96.987942 4.4088073,96.987942 C1.97389026,96.987942 5.68434189e-14,95.0141701 5.68434189e-14,92.5793992 C5.68434189e-14,90.1446282 1.97389026,88.1708564 4.4088073,88.1708564 C6.84372434,88.1708564 8.81761461,90.1446282 8.81761461,92.5793992 Z M8.81761461,74.9452279 C8.81761461,77.3799989 6.84372434,79.3537707 4.4088073,79.3537707 C1.97389026,79.3537707 5.68434189e-14,77.3799989 5.68434189e-14,74.9452279 C5.68434189e-14,72.5104569 1.97389026,70.5366851 4.4088073,70.5366851 C6.84372434,70.5366851 8.81761461,72.5104569 8.81761461,74.9452279 Z M8.81761461,57.3110566 C8.81761461,59.7458276 6.84372434,61.7195995 4.4088073,61.7195995 C1.97389026,61.7195995 5.68434189e-14,59.7458276 5.68434189e-14,57.3110566 C5.68434189e-14,54.8762857 1.97389026,52.9025138 4.4088073,52.9025138 C6.84372434,52.9025138 8.81761461,54.8762857 8.81761461,57.3110566 Z M8.81761461,39.6768854 C8.81761461,42.1116563 6.84372434,44.0854282 4.4088073,44.0854282 C1.97389026,44.0854282 5.68434189e-14,42.1116563 5.68434189e-14,39.6768854 C5.68434189e-14,37.2421144 1.97389026,35.2683425 4.4088073,35.2683425 C6.84372434,35.2683425 8.81761461,37.2421144 8.81761461,39.6768854 Z M8.81761461,22.0427141 C8.81761461,24.4774851 6.84372434,26.4512569 4.4088073,26.4512569 C1.97389026,26.4512569 5.68434189e-14,24.4774851 5.68434189e-14,22.0427141 C5.68434189e-14,19.6079431 1.97389026,17.6341713 4.4088073,17.6341713 C6.84372434,17.6341713 8.81761461,19.6079431 8.81761461,22.0427141 Z M8.81761461,4.40854282 C8.81761461,6.84331379 6.84372434,8.81708564 4.4088073,8.81708564 C1.97389026,8.81708564 5.68434189e-14,6.84331379 5.68434189e-14,4.40854282 C5.68434189e-14,1.97377185 1.97389026,4.97379915e-13 4.4088073,4.97379915e-13 C6.84372434,4.97379915e-13 8.81761461,1.97377185 8.81761461,4.40854282 Z M26.4528438,92.5793992 C26.4528438,95.0141701 24.4789536,96.987942 22.0440365,96.987942 C19.6091195,96.987942 17.6352292,95.0141701 17.6352292,92.5793992 C17.6352292,90.1446282 19.6091195,88.1708564 22.0440365,88.1708564 C24.4789536,88.1708564 26.4528438,90.1446282 26.4528438,92.5793992 Z M26.4528438,74.9452279 C26.4528438,77.3799989 24.4789536,79.3537707 22.0440365,79.3537707 C19.6091195,79.3537707 17.6352292,77.3799989 17.6352292,74.9452279 C17.6352292,72.5104569 19.6091195,70.5366851 22.0440365,70.5366851 C24.4789536,70.5366851 26.4528438,72.5104569 26.4528438,74.9452279 Z M26.4528438,57.3110566 C26.4528438,59.7458276 24.4789536,61.7195995 22.0440365,61.7195995 C19.6091195,61.7195995 17.6352292,59.7458276 17.6352292,57.3110566 C17.6352292,54.8762857 19.6091195,52.9025138 22.0440365,52.9025138 C24.4789536,52.9025138 26.4528438,54.8762857 26.4528438,57.3110566 Z M26.4528438,39.6768854 C26.4528438,42.1116563 24.4789536,44.0854282 22.0440365,44.0854282 C19.6091195,44.0854282 17.6352292,42.1116563 17.6352292,39.6768854 C17.6352292,37.2421144 19.6091195,35.2683425 22.0440365,35.2683425 C24.4789536,35.2683425 26.4528438,37.2421144 26.4528438,39.6768854 Z M26.4528438,22.0427141 C26.4528438,24.4774851 24.4789536,26.4512569 22.0440365,26.4512569 C19.6091195,26.4512569 17.6352292,24.4774851 17.6352292,22.0427141 C17.6352292,19.6079431 19.6091195,17.6341713 22.0440365,17.6341713 C24.4789536,17.6341713 26.4528438,19.6079431 26.4528438,22.0427141 Z M26.4528438,4.40854282 C26.4528438,6.84331379 24.4789536,8.81708564 22.0440365,8.81708564 C19.6091195,8.81708564 17.6352292,6.84331379 17.6352292,4.40854282 C17.6352292,1.97377185 19.6091195,4.97379915e-13 22.0440365,4.97379915e-13 C24.4789536,4.97379915e-13 26.4528438,1.97377185 26.4528438,4.40854282 Z M44.088073,92.5793992 C44.088073,95.0141701 42.1141828,96.987942 39.6792657,96.987942 C37.2443487,96.987942 35.2704584,95.0141701 35.2704584,92.5793992 C35.2704584,90.1446282 37.2443487,88.1708564 39.6792657,88.1708564 C42.1141828,88.1708564 44.088073,90.1446282 44.088073,92.5793992 Z M44.088073,74.9452279 C44.088073,77.3799989 42.1141828,79.3537707 39.6792657,79.3537707 C37.2443487,79.3537707 35.2704584,77.3799989 35.2704584,74.9452279 C35.2704584,72.5104569 37.2443487,70.5366851 39.6792657,70.5366851 C42.1141828,70.5366851 44.088073,72.5104569 44.088073,74.9452279 Z M44.088073,57.3110566 C44.088073,59.7458276 42.1141828,61.7195995 39.6792657,61.7195995 C37.2443487,61.7195995 35.2704584,59.7458276 35.2704584,57.3110566 C35.2704584,54.8762857 37.2443487,52.9025138 39.6792657,52.9025138 C42.1141828,52.9025138 44.088073,54.8762857 44.088073,57.3110566 Z M44.088073,39.6768854 C44.088073,42.1116563 42.1141828,44.0854282 39.6792657,44.0854282 C37.2443487,44.0854282 35.2704584,42.1116563 35.2704584,39.6768854 C35.2704584,37.2421144 37.2443487,35.2683425 39.6792657,35.2683425 C42.1141828,35.2683425 44.088073,37.2421144 44.088073,39.6768854 Z M44.088073,22.0427141 C44.088073,24.4774851 42.1141828,26.4512569 39.6792657,26.4512569 C37.2443487,26.4512569 35.2704584,24.4774851 35.2704584,22.0427141 C35.2704584,19.6079431 37.2443487,17.6341713 39.6792657,17.6341713 C42.1141828,17.6341713 44.088073,19.6079431 44.088073,22.0427141 Z M44.088073,4.40854282 C44.088073,6.84331379 42.1141828,8.81708564 39.6792657,8.81708564 C37.2443487,8.81708564 35.2704584,6.84331379 35.2704584,4.40854282 C35.2704584,1.97377185 37.2443487,4.97379915e-13 39.6792657,4.97379915e-13 C42.1141828,4.97379915e-13 44.088073,1.97377185 44.088073,4.40854282 Z M61.7233022,92.5793992 C61.7233022,95.0141701 59.749412,96.987942 57.3144949,96.987942 C54.8795779,96.987942 52.9056876,95.0141701 52.9056876,92.5793992 C52.9056876,90.1446282 54.8795779,88.1708564 57.3144949,88.1708564 C59.749412,88.1708564 61.7233022,90.1446282 61.7233022,92.5793992 Z M61.7233022,74.9452279 C61.7233022,77.3799989 59.749412,79.3537707 57.3144949,79.3537707 C54.8795779,79.3537707 52.9056876,77.3799989 52.9056876,74.9452279 C52.9056876,72.5104569 54.8795779,70.5366851 57.3144949,70.5366851 C59.749412,70.5366851 61.7233022,72.5104569 61.7233022,74.9452279 Z M61.7233022,57.3110566 C61.7233022,59.7458276 59.749412,61.7195995 57.3144949,61.7195995 C54.8795779,61.7195995 52.9056876,59.7458276 52.9056876,57.3110566 C52.9056876,54.8762857 54.8795779,52.9025138 57.3144949,52.9025138 C59.749412,52.9025138 61.7233022,54.8762857 61.7233022,57.3110566 Z M61.7233022,39.6768854 C61.7233022,42.1116563 59.749412,44.0854282 57.3144949,44.0854282 C54.8795779,44.0854282 52.9056876,42.1116563 52.9056876,39.6768854 C52.9056876,37.2421144 54.8795779,35.2683425 57.3144949,35.2683425 C59.749412,35.2683425 61.7233022,37.2421144 61.7233022,39.6768854 Z M61.7233022,22.0427141 C61.7233022,24.4774851 59.749412,26.4512569 57.3144949,26.4512569 C54.8795779,26.4512569 52.9056876,24.4774851 52.9056876,22.0427141 C52.9056876,19.6079431 54.8795779,17.6341713 57.3144949,17.6341713 C59.749412,17.6341713 61.7233022,19.6079431 61.7233022,22.0427141 Z M61.7233022,4.40854282 C61.7233022,6.84331379 59.749412,8.81708564 57.3144949,8.81708564 C54.8795779,8.81708564 52.9056876,6.84331379 52.9056876,4.40854282 C52.9056876,1.97377185 54.8795779,5.40012479e-13 57.3144949,5.40012479e-13 C59.749412,5.40012479e-13 61.7233022,1.97377185 61.7233022,4.40854282 Z M79.3585314,92.5793992 C79.3585314,95.0141701 77.3846412,96.987942 74.9497241,96.987942 C72.5148071,96.987942 70.5409168,95.0141701 70.5409168,92.5793992 C70.5409168,90.1446282 72.5148071,88.1708564 74.9497241,88.1708564 C77.3846412,88.1708564 79.3585314,90.1446282 79.3585314,92.5793992 Z M79.3585314,74.9452279 C79.3585314,77.3799989 77.3846412,79.3537707 74.9497241,79.3537707 C72.5148071,79.3537707 70.5409168,77.3799989 70.5409168,74.9452279 C70.5409168,72.5104569 72.5148071,70.5366851 74.9497241,70.5366851 C77.3846412,70.5366851 79.3585314,72.5104569 79.3585314,74.9452279 Z M79.3585314,57.3110566 C79.3585314,59.7458276 77.3846412,61.7195995 74.9497241,61.7195995 C72.5148071,61.7195995 70.5409168,59.7458276 70.5409168,57.3110566 C70.5409168,54.8762857 72.5148071,52.9025138 74.9497241,52.9025138 C77.3846412,52.9025138 79.3585314,54.8762857 79.3585314,57.3110566 Z M79.3585314,39.6768854 C79.3585314,42.1116563 77.3846412,44.0854282 74.9497241,44.0854282 C72.5148071,44.0854282 70.5409168,42.1116563 70.5409168,39.6768854 C70.5409168,37.2421144 72.5148071,35.2683425 74.9497241,35.2683425 C77.3846412,35.2683425 79.3585314,37.2421144 79.3585314,39.6768854 Z M79.3585314,22.0427141 C79.3585314,24.4774851 77.3846412,26.4512569 74.9497241,26.4512569 C72.5148071,26.4512569 70.5409168,24.4774851 70.5409168,22.0427141 C70.5409168,19.6079431 72.5148071,17.6341713 74.9497241,17.6341713 C77.3846412,17.6341713 79.3585314,19.6079431 79.3585314,22.0427141 Z M79.3585314,4.40854282 C79.3585314,6.84331379 77.3846412,8.81708564 74.9497241,8.81708564 C72.5148071,8.81708564 70.5409168,6.84331379 70.5409168,4.40854282 C70.5409168,1.97377185 72.5148071,4.97379915e-13 74.9497241,4.97379915e-13 C77.3846412,4.97379915e-13 79.3585314,1.97377185 79.3585314,4.40854282 Z M96.9937607,92.5793992 C96.9937607,95.0141701 95.0198704,96.987942 92.5849534,96.987942 C90.1500363,96.987942 88.1761461,95.0141701 88.1761461,92.5793992 C88.1761461,90.1446282 90.1500363,88.1708564 92.5849534,88.1708564 C95.0198704,88.1708564 96.9937607,90.1446282 96.9937607,92.5793992 Z M96.9937607,74.9452279 C96.9937607,77.3799989 95.0198704,79.3537707 92.5849534,79.3537707 C90.1500363,79.3537707 88.1761461,77.3799989 88.1761461,74.9452279 C88.1761461,72.5104569 90.1500363,70.5366851 92.5849534,70.5366851 C95.0198704,70.5366851 96.9937607,72.5104569 96.9937607,74.9452279 Z M96.9937607,57.3110566 C96.9937607,59.7458276 95.0198704,61.7195995 92.5849534,61.7195995 C90.1500363,61.7195995 88.1761461,59.7458276 88.1761461,57.3110566 C88.1761461,54.8762857 90.1500363,52.9025138 92.5849534,52.9025138 C95.0198704,52.9025138 96.9937607,54.8762857 96.9937607,57.3110566 Z M96.9937607,39.6768854 C96.9937607,42.1116563 95.0198704,44.0854282 92.5849534,44.0854282 C90.1500363,44.0854282 88.1761461,42.1116563 88.1761461,39.6768854 C88.1761461,37.2421144 90.1500363,35.2683425 92.5849534,35.2683425 C95.0198704,35.2683425 96.9937607,37.2421144 96.9937607,39.6768854 Z M96.9937607,22.0427141 C96.9937607,24.4774851 95.0198704,26.4512569 92.5849534,26.4512569 C90.1500363,26.4512569 88.1761461,24.4774851 88.1761461,22.0427141 C88.1761461,19.6079431 90.1500363,17.6341713 92.5849534,17.6341713 C95.0198704,17.6341713 96.9937607,19.6079431 96.9937607,22.0427141 Z M96.9937607,4.40854282 C96.9937607,6.84331379 95.0198704,8.81708564 92.5849534,8.81708564 C90.1500363,8.81708564 88.1761461,6.84331379 88.1761461,4.40854282 C88.1761461,1.97377185 90.1500363,2.84217094e-14 92.5849534,2.84217094e-14 C95.0198704,2.84217094e-14 96.9937607,1.97377185 96.9937607,4.40854282 Z" id="Shape"></path>
        </g>
        <g id="Data" transform="translate(173.000000, 58.000000)">
            <path d="M10,-5.68434189e-14 L412,-5.86197757e-14 C417.522847,-5.96343063e-14 422,4.4771525 422,10 L422,302 C422,307.522847 417.522847,312 412,312 L10,312 C4.4771525,312 6.76353751e-16,307.522847 0,302 L0,10 C-6.76353751e-16,4.4771525 4.4771525,-5.76052451e-14 10,-5.68434189e-14 Z" id="Shape" fill="url(#linearGradient-3)"></path>
            <polygon id="Shape" fill="url(#linearGradient-4)" points="61 137 161 137 161 262 61 262"></polygon>
            <polygon id="Shape" fill="url(#linearGradient-5)" points="161 94 261 94 261 262 161 262"></polygon>
            <polygon id="Shape" fill="url(#linearGradient-6)" points="261 51 361 51 361 262 261 262"></polygon>
        </g>
        <g id="Plant" transform="translate(120.000000, 397.000000)">
            <path d="M199,188.174269 C142.719017,213.593114 97.7234642,213.271218 64.0133428,187.20858 C30.3032215,161.145943 8.96544052,124.033496 0,75.8712405 C105.372053,44.2283274 171.705387,81.6626704 199,188.174269 Z" id="Shape" fill="url(#linearGradient-7)"></path>
            <path d="M115.89853,142.470656 C103.751316,135.579494 90.2443015,127.943142 75.3776565,119.561698 L40.892016,127.819418 C40.2802333,127.965912 39.665953,127.586943 39.5199824,126.972968 C39.3740118,126.358992 39.7516271,125.742511 40.3634098,125.596017 L72.451652,117.912363 C53.8970542,107.455192 33.2742461,95.8646208 10.5835455,83.1408384 C10.0344845,82.8329531 9.83808165,82.1366657 10.1448674,81.5856369 C10.4516531,81.0346081 11.145454,80.8375013 11.694515,81.1453866 C53.1251551,104.377567 87.6617264,123.831731 115.306161,139.509018 L111.739126,104.426202 C111.584986,102.910198 113.850871,102.678161 114.00501,104.194164 L117.735765,140.887202 C154.592735,161.79948 178.829942,175.796159 190.452172,182.880068 C190.989749,183.207729 191.160869,183.910705 190.834378,184.450209 C190.507888,184.989712 189.807422,185.161445 189.269845,184.833785 C182.315586,180.595068 170.826387,173.871062 154.803279,164.662373 C154.761111,164.684157 154.717118,164.703541 154.671409,164.720293 L123.156017,176.270705 C122.565224,176.487231 121.91139,176.182112 121.695637,175.589201 C121.479885,174.996291 121.783915,174.340113 122.374708,174.123587 L152.226934,163.182727 C141.98523,157.304619 129.997135,150.469451 116.262897,142.67737 C116.130357,142.632944 116.00606,142.56433 115.89853,142.470656 Z" id="Shape" fill="#FFFFFF" fill-rule="nonzero"></path>
            <path d="M186.397111,220 C128.543838,198.081935 96.8676044,166.008613 91.3684105,123.780034 C85.8692165,81.5514554 96.9446186,40.291444 124.594617,0 C221.65003,52.2763031 242.250861,125.609636 186.397111,220 Z" id="Shape" fill="url(#linearGradient-8)"></path>
            <path d="M162.563708,129.304978 C173.864256,170.239804 181.123492,197.331633 184.342806,210.585861 C184.491713,211.198925 184.118297,211.817323 183.508757,211.967091 C182.899218,212.116859 182.284375,211.741283 182.135469,211.128219 C180.209165,203.19744 176.830716,190.29204 172.000421,172.413182 C171.955362,172.398663 171.910703,172.381154 171.866683,172.360566 L141.515869,158.165964 C140.946908,157.899869 140.700146,157.220256 140.96471,156.648004 C141.229275,156.075753 141.904981,155.827563 142.473943,156.093658 L171.223049,169.539167 C168.130029,158.116906 164.47778,144.778947 160.266374,129.525569 C160.204104,129.400123 160.16465,129.263425 160.154641,129.120906 C156.429503,115.630464 152.268924,100.648399 147.672953,84.1749033 L117.541306,65.5450292 C117.006764,65.2145312 116.839813,64.5107721 117.168411,63.9731392 C117.497009,63.4355063 118.196722,63.2675903 118.731264,63.5980883 L146.768197,80.932837 C141.029686,60.375216 134.628875,37.5488955 127.565857,12.4542334 C127.394949,11.8470023 127.745829,11.2153946 128.349569,11.0434981 C128.953309,10.8716016 129.581285,11.22451 129.752193,11.8317411 C142.64846,57.6517416 153.337053,95.9093719 161.818533,126.60681 L183.96233,99.2732765 C184.919211,98.0921359 186.680736,99.5357572 185.723855,100.716898 L162.563708,129.304978 Z" id="Shape" fill="#FFFFFF" fill-rule="nonzero"></path>
            <path d="M244,259.562526 C196.223838,298.760152 152.710901,310.14864 113.461189,293.727992 C74.2114767,277.307343 44.0577471,246.99163 23,202.780852 C116.556202,144.804099 190.222869,163.731324 244,259.562526 Z" id="Shape" fill="url(#linearGradient-9)" fill-rule="nonzero"></path>
            <path d="M153.169327,234.117219 C194.134683,244.712951 221.136641,251.916434 234.18055,255.729153 C234.783886,255.905508 235.130224,256.538261 234.954118,257.142447 C234.778012,257.746634 234.146149,258.09346 233.542813,257.917105 C225.737881,255.635733 212.91513,252.1352 195.075714,247.415825 C195.040625,247.447727 195.003156,247.477791 194.963353,247.505765 L167.519981,266.793099 C167.005523,267.154663 166.29578,267.030129 165.934725,266.514946 C165.57367,265.999763 165.698028,265.289019 166.212486,264.927456 L192.207586,246.657974 C180.806972,243.649068 167.474018,240.170685 152.208998,236.222899 C152.069616,236.214438 151.931956,236.180546 151.804023,236.118173 C138.303048,232.627071 123.297489,228.770425 106.787534,224.548288 L75.6285754,241.433553 C75.0758088,241.733101 74.3852129,241.527196 74.0860862,240.97365 C73.7869596,240.420104 73.9925754,239.728535 74.545342,239.428987 L103.538169,223.717564 C82.9334951,218.451367 60.0404012,212.629201 34.8592418,206.251166 C34.2499177,206.096833 33.8808986,205.47707 34.0350147,204.866887 C34.1891308,204.256704 34.8080214,203.887165 35.4173455,204.041498 C81.3952802,215.687066 119.745108,225.479396 150.468989,233.419087 L137.984634,200.55283 C137.445158,199.132608 139.572492,198.322254 140.111968,199.742476 L153.169327,234.117219 Z" id="Shape" fill="#FFFFFF" fill-rule="nonzero"></path>
        </g>
        <g id="Data" transform="translate(292.000000, 232.000000)">
            <path d="M24,0 L936,0 C949.254834,-2.4348735e-15 960,10.745166 960,24 L960,696 C960,709.254834 949.254834,720 936,720 L24,720 C10.745166,720 1.623249e-15,709.254834 0,696 L0,24 C-1.623249e-15,10.745166 10.745166,2.4348735e-15 24,0 Z" id="Shape" fill="url(#linearGradient-10)"></path>
            <polygon id="Shape" fill="url(#linearGradient-11)" points="912 493.2 912 672 48 672 170.13975 653.946774 292.8 605.946774 415.2 605.946774 538.8 543.6 660.785674 543.6 784.733174 433.814947 911.257436 433.814947"></polygon>
            <polygon id="Shape" fill="#FFFFFF" points="48 48 912 48 912 384 48 384"></polygon>
            <path d="M382.8,96 L864,96 L864,124.8 L382.8,124.8 L382.8,96 Z M382.8,307.2 L864,307.2 L864,336 L382.8,336 L382.8,307.2 Z M382.8,236.4 L864,236.4 L864,265.2 L382.8,265.2 L382.8,236.4 Z M382.8,165.6 L864,165.6 L864,194.4 L382.8,194.4 L382.8,165.6 Z" id="Combined-Shape" fill="url(#linearGradient-12)"></path>
            <polygon id="Shape" fill="#52D7FD" points="382.8 96 516 96 516 124.8 382.8 124.8"></polygon>
            <polygon id="Shape" fill="#52D7FD" points="382.8 307.2 659.797177 307.2 659.797177 336 382.8 336"></polygon>
            <polygon id="Shape" fill="#0737A3" points="382.8 236.4 559.553281 236.4 559.553281 265.2 382.8 265.2"></polygon>
            <polygon id="Shape" fill="#00ADFF" points="382.8 165.6 609.349233 165.6 609.349233 194.4 382.8 194.4"></polygon>
            <path d="M48.5999695,671.346136 L47.4000305,671.334043 L49.8000305,433.193953 L50.9999695,433.206047 L48.5999695,671.346136 Z M170.99997,671.346136 L169.80003,671.334043 L172.20003,433.193953 L173.39997,433.206047 L170.99997,671.346136 Z M293.39997,671.346136 L292.20003,671.334043 L294.60003,433.193953 L295.79997,433.206047 L293.39997,671.346136 Z M415.79997,671.346136 L414.60003,671.334043 L417.00003,433.193953 L418.19997,433.206047 L415.79997,671.346136 Z M538.19997,671.346136 L537.00003,671.334043 L539.40003,433.193953 L540.59997,433.206047 L538.19997,671.346136 Z M660.59997,671.346136 L659.40003,671.334043 L661.80003,433.193953 L662.99997,433.206047 L660.59997,671.346136 Z M782.99997,671.346136 L781.80003,671.334043 L784.20003,433.193953 L785.39997,433.206047 L782.99997,671.346136 Z" id="Shape" fill="#FFFFFF" fill-rule="nonzero"></path>
            <circle id="Shape" fill="url(#linearGradient-13)" cx="214.8" cy="216" r="120"></circle>
            <path d="M214.8,336 C214.8,311.49458 214.8,271.49458 214.8,216 C155.770443,162.003796 126.255665,135.005695 126.255665,135.005695 C106.719571,156.351134 94.8,184.783584 94.8,216 C94.8,282.27417 148.52583,336 214.8,336 Z" id="Shape" fill="url(#linearGradient-14)"></path>
            <path d="M214.8,215.749191 C214.8,215.749191 214.8,255.832794 214.8,336 C281.07417,336 334.8,282.27417 334.8,216 C334.8,216 294.8,215.916397 214.8,215.749191 Z" id="Shape" fill="#0F55BE"></path>
        </g>
        <g id="Women" transform="translate(95.369989, 600.454412)">
            <path d="M137.481253,79.7933049 C132.911124,99.3654957 128.864974,110.436307 125.342803,113.005738 L143.251319,117.320342 L219.9523,113.005738 L209.322547,36.6281542 L147.688542,17.456675 L137.481253,36.6281542 L137.481253,79.7933049 Z" id="Shape" fill="#211D41"></path>
            <path d="M73.521877,178.131608 L105.871408,186.077249 L93.116636,218.709183 L105.871408,258.451027 L78.9677857,252.678721 L66.3757163,220.31809 C65.9666461,219.266812 65.8622261,218.121508 66.074437,217.013586 L73.521877,178.131608 Z" id="Shape" fill="#F4B696"></path>
            <path d="M269.979542,178.545588 L277.426982,217.427566 C277.639193,218.535488 277.534773,219.680792 277.125702,220.73207 L264.533633,253.092701 L237.630011,258.865007 L250.384783,219.123162 L237.630011,186.491229 L269.979542,178.545588 Z" id="Shape" fill="#F4B696"></path>
            <path d="M160.888051,106.056078 L182.638224,106.056078 C227.38322,106.056078 265.963091,137.511351 274.973562,181.339721 L241.047325,191.569167 L241.047325,282.279854 L100.830233,282.279854 L100.830233,191.569167 L68.5295929,181.339721 C77.5517749,137.508883 116.138279,106.056078 160.888051,106.056078 Z" id="Shape" fill="url(#linearGradient-15)"></path>
            <polygon id="Shape" fill="#0F55BE" points="101.984197 192.419619 109.229499 174.666789 109.229499 203.793033"></polygon>
            <polygon id="Shape" fill="#0F55BE" points="239.229499 192.419619 231.984197 203.793033 231.984197 174.666789"></polygon>
            <path d="M90.7055664,185.356777 L251.554456,185.356777 C252.946213,185.356777 254.074456,186.48502 254.074456,187.876777 C254.074456,187.963157 254.070014,188.04948 254.061149,188.135404 L244.581149,280.018481 C244.44859,281.303284 243.366079,282.279854 242.074456,282.279854 L100.185566,282.279854 C98.8939431,282.279854 97.811432,281.303284 97.678873,280.018481 L88.198873,188.135404 C88.0560372,186.750996 89.0625307,185.512919 90.4469393,185.370084 C90.5328633,185.361218 90.6191863,185.356777 90.7055664,185.356777 Z" id="Shape" fill="#211D41"></path>
            <path d="M276.348719,318.987331 C285.991364,311.717973 296.593856,310.026863 308.156194,313.914 C325.499701,319.744705 352.779893,328.441496 348.884223,341.492948 C344.988552,354.5444 302.134531,351.305539 291.427293,350.4554 C280.720055,349.605261 272.634772,339.309854 270.999814,333.208105 C269.909841,329.140273 271.69281,324.400015 276.348719,318.987331 Z" id="Shape" fill="#021038"></path>
            <path d="M258.370106,314.414546 L287.105936,318.305877 C293.008632,319.105204 297.145729,324.538268 296.346402,330.440963 C296.318813,330.644695 296.285404,330.847597 296.246217,331.049419 C294.99589,337.488842 289.21378,342.038242 282.660951,341.738391 L254.003543,340.427056 L258.370106,314.414546 Z" id="Shape" fill="#F4B696"></path>
            <circle id="Shape" fill="#757384" cx="171.630011" cy="229.545588" r="11"></circle>
            <path d="M272.235457,310.528108 L257.106157,342.491119 C151.098535,325.502913 88.5360469,313.293217 69.4186935,305.862031 C40.7426634,294.715253 42.5881246,269.916664 46.104947,256.683228 C49.6217693,243.449791 70.4316672,230.926374 120.289006,252.749479 C153.527233,267.298215 204.176049,286.557759 272.235457,310.528108 Z" id="Shape" fill="url(#linearGradient-16)"></path>
            <path d="M156.422696,73.6398787 L189.18823,73.6398787 L192.594944,108.320056 C192.658407,108.966102 192.690195,109.614868 192.690195,110.264023 C192.690195,121.246057 183.787497,130.148754 172.805463,130.148754 C172.156308,130.148754 171.507542,130.116966 170.861497,130.053504 C159.932068,128.979881 151.942359,119.249485 153.015982,108.320056 L156.422696,73.6398787 Z" id="Shape" fill="#F4B696"></path>
            <path d="M138.098432,69.0886028 C146.452818,90.7850917 158.064708,101.633336 172.934101,101.633336 C187.803494,101.633336 199.275722,90.7850917 207.350784,69.0886028 C212.620424,67.1026406 215.06422,64.0807875 214.682173,60.0230435 C214.109103,53.9364275 210.716792,51.7523038 204.55443,54.8425227 C204.55443,47.6642324 204.55443,41.8312693 204.55443,37.3436337 C174.99984,44.6336136 153.841629,42.2627083 141.079798,30.230918 C141.896494,44.2045408 141.896494,51.8876349 141.079798,53.2802004 C134.868362,52.2434408 131.451536,54.0375251 130.829321,58.6624533 C130.207106,63.2873815 132.630143,66.7627646 138.098432,69.0886028 Z" id="Shape" fill="#F4B696"></path>
            <path d="M72.9113026,318.987331 C77.5672122,324.400015 79.3501809,329.140273 78.2602084,333.208105 C76.6252498,339.309854 68.5399675,349.605261 57.8327294,350.4554 C47.1254913,351.305539 4.27146987,354.5444 0.375799397,341.492948 C-3.51987108,328.441496 23.7603205,319.744705 41.1038278,313.914 C52.666166,310.026863 63.2686576,311.717973 72.9113026,318.987331 Z" id="Shape" fill="#021038"></path>
            <path d="M90.8899158,314.414546 L95.2564792,340.427056 L66.599071,341.738391 C60.0462416,342.038242 54.264132,337.488842 53.0138051,331.049419 C52.9746178,330.847597 52.9412092,330.644695 52.9136203,330.440963 C52.1142927,324.538268 56.25139,319.105204 62.1540857,318.305877 L90.8899158,314.414546 Z" id="Shape" fill="#F4B696"></path>
            <path d="M78.693478,312.653851 L84.9186967,345.209279 C188.185994,326.249657 249.378319,313.054254 268.495673,305.623068 C297.171703,294.476289 295.326241,269.6777 291.809419,256.444264 C288.292597,243.210827 267.482699,230.68741 217.62536,252.510515 C184.387134,267.059252 138.076506,287.10703 78.693478,312.653851 Z" id="Shape" fill="url(#linearGradient-17)"></path>
            <path d="M145.445878,35.5840815 C151.532272,44.5681142 171.116143,48.14991 204.197492,46.3294689 C200.565018,58.1127613 200.616034,67.5530573 204.35054,74.6503566 C209.9523,85.2963057 191.947685,103.798744 201.514388,125.5152 C211.08109,147.231657 238.645507,117.896498 258.065372,143.859402 C248.863118,124.084154 239.327131,110.997787 229.45741,104.600303 C214.652829,95.0040762 219.675277,63.3135277 222.392968,46.3294689 C225.11066,29.3454101 211.264041,-0.90198633 172.630011,0.0206280025 C133.995981,0.943242336 128.023767,35.1147528 127.935325,35.5840815 C123.630011,58.4306756 125.240638,65.9872238 127.935325,72.6720188 C130.630011,79.3568138 134.678687,101.602455 125.748468,112.439498 C139.336049,109.426831 145.296563,102.828698 143.630011,92.6450989 C141.130183,77.3697009 145.802733,72.1369467 143.630011,58.2521633 C142.18153,48.995641 142.786819,41.4396137 145.445878,35.5840815 Z" id="Shape" fill="url(#linearGradient-18)"></path>
        </g>
        <g id="Men" transform="translate(1147.579748, 337.706132)">
            <polygon id="Shape" fill="#F4B696" points="179.147131 570.710745 179.147131 594.483358 155.381582 594.483358 155.381582 570.710745"></polygon>
            <polygon id="Shape" fill="#F4B696" points="109.170793 570.710745 109.170793 594.483358 85.4052436 594.483358 85.4052436 570.710745"></polygon>
            <polygon id="Shape" fill="#121958" points="151.096217 585.155744 117.939871 269.038894 195.571399 269.466533 182.005005 585.155744"></polygon>
            <path d="M80.5428496,584.794766 L66.2489801,415.647467 C65.1939768,403.163028 65.9217645,390.591969 68.4104363,378.312687 L90.5143782,269.250277 L195.571399,269.466533 L122.603358,415.805919 L113.234087,584.794766 L80.5428496,584.794766 Z" id="Shape" fill="url(#linearGradient-19)"></path>
            <path d="M136.227158,98.5251914 C133.496729,85.3715089 129.852746,78.201679 125.295208,77.0157017 C118.458903,75.2367357 114.123866,74.4731663 114.011754,67.5520237 C113.899641,60.6308811 111.751191,58.5971103 108.74841,57.645325 C105.745629,56.6935397 102.879337,52.6899797 110.261358,46.9313682 C115.182706,43.0922939 117.214651,35.2515321 116.357194,23.4090828 C143.983933,9.86591015 160.800553,13.0369219 166.807052,32.9221181 C172.813552,52.8073143 172.886293,68.9935321 167.025276,81.4807713 L168.775672,93.9466845 L136.227158,98.5251914 Z" id="Shape" fill="#F4B696"></path>
            <path d="M167.601235,80.6702556 C158.641924,81.6519553 153.327067,80.8275706 151.656664,78.1971015 C149.151059,74.251398 147.845035,66.7721818 147.938798,64.3405465 C148.032561,61.9089112 150.872968,62.5216083 153.005777,62.221592 C155.138587,61.9215758 157.774982,56.6510958 155.058213,53.3494988 C152.341444,50.0479017 149.364204,51.0437119 147.963443,51.8948515 C146.562683,52.7459912 142.725407,51.4537267 143.107448,45.4512507 C143.489489,39.4487746 145.40367,33.6078892 141.521153,34.1540318 C137.638635,34.7001745 115.532993,35.2634947 112.310028,20.6444148 C109.087063,6.02533479 116.482184,-3.5552357 131.190633,1.25239903 C145.899082,6.06003377 150.242114,4.80972191 160.943018,5.71882614 C171.643922,6.62793037 182.373845,8.08231754 187.113947,25.9755669 C191.85405,43.8688163 185.890579,54.1525033 178.458087,61.9342873 C171.025595,69.7160713 173.224986,71.4708835 172.575387,75.2545242 C172.142321,77.7769514 170.484271,79.5821952 167.601235,80.6702556 Z" id="Shape" fill="url(#linearGradient-20)"></path>
            <path d="M48.4202517,54.2528406 C44.9114329,66.3189685 42.1283512,70.6044525 40.0710065,67.1092927 C36.9849895,61.866553 24.1742593,51.2227323 15.9173658,48.7537163 C7.66047224,46.2847003 3.00447674,40.8205003 8.3175585,39.9551173 C11.859613,39.3781954 16.8373274,39.3781954 23.2507017,39.9551173 C21.6243315,35.994906 17.3009655,32.6119602 11.5825171,25.6898774 C5.8640687,18.7677946 14.7724749,20.7041871 23.2507017,26.7605086 C31.7289285,32.8168301 39.9950002,40.8205003 41.3410463,44.7807117 C42.2384104,47.4208526 44.5981455,50.5782289 48.4202517,54.2528406 Z" id="Shape" fill="#F4B696"></path>
            <path d="M110.491101,591.841956 L110.491101,608.786061 C110.491101,611.702125 108.127164,614.066061 105.211101,614.066061 L58.398938,614.066061 C56.5428278,614.066061 55.0381533,612.223455 55.0381533,609.950486 C55.0381533,601.10227 61.749021,599.949421 69.7168747,597.124759 L85.5292602,591.841956 L110.491101,591.841956 Z" id="Shape" fill="#021038"></path>
            <path d="M180.467439,591.841956 L180.467439,608.786061 C180.467439,611.702125 178.103503,614.066061 175.187439,614.066061 L128.375277,614.066061 C126.519166,614.066061 125.014492,612.223455 125.014492,609.950486 C125.014492,601.10227 131.72536,599.949421 139.693213,597.124759 L155.505599,591.841956 L180.467439,591.841956 Z" id="Shape" fill="#021038"></path>
            <path d="M35.3403354,217.33401 L38.8344807,236.664001 C33.4188266,237.88246 29.0552857,238.694542 25.7438578,239.100246 C20.776716,239.708803 12.3524111,244.862265 5.79504956,240.496457 C-0.762312016,236.130648 -1.29720453,223.375267 1.91083443,220.792994 C4.04952707,219.071479 7.86428969,218.129863 13.3551223,217.968147 C11.9473191,214.75076 13.2494059,211.982606 17.2613828,209.663682 C19.0360095,213.007255 20.7540692,215.564031 22.4155619,217.33401 C24.0770546,219.103989 28.3853124,219.103989 35.3403354,217.33401 Z" id="Shape" fill="#F4B696"></path>
            <polygon id="Shape" fill="#D64F53" points="146.138073 98.9437706 113.408321 138.925031 30.3561709 60.649444 43.1600636 42.2938676"></polygon>
            <path d="M134.602341,288.673976 L131.806588,295.848497 L130.781656,295.449104 L133.57741,288.274582 L134.602341,288.673976 Z M127.812655,306.097814 L125.016901,313.272336 L123.99197,312.872942 L126.787723,305.698421 L127.812655,306.097814 Z M121.022968,323.521653 L118.227215,330.696174 L117.202283,330.296781 L119.998036,323.122259 L121.022968,323.521653 Z M114.233281,340.945491 L111.437528,348.120013 L110.412596,347.720619 L113.20835,340.546098 L114.233281,340.945491 Z M107.443595,358.36933 L104.647841,365.543851 L103.62291,365.144458 L106.418663,357.969936 L107.443595,358.36933 Z M100.653908,375.793168 L99.1264809,379.712884 C98.7057119,380.792671 98.3022019,381.878854 97.9160807,382.971027 L96.8789847,382.604377 C97.2689865,381.501228 97.6765517,380.404129 98.1015492,379.313491 L99.6289765,375.393775 L100.653908,375.793168 Z M94.7869461,393.465782 C94.1803962,395.947386 93.6609552,398.449309 93.2295433,400.966927 L92.1453459,400.781142 C92.5810935,398.238221 93.105755,395.711154 93.7184008,393.20461 L94.7869461,393.465782 Z M91.9217297,411.847207 C91.7442753,414.394812 91.6559896,416.948594 91.6571933,419.50393 L90.5571692,419.504448 C90.5559777,416.92343 90.6451506,414.343981 90.8243886,411.770771 L91.9217297,411.847207 Z M91.9187801,430.471972 L92.1303918,438.169064 L91.0308073,438.199294 L90.8191956,430.502202 L91.9187801,430.471972 Z M92.4326943,449.164909 L92.644306,456.862 L91.5447215,456.892231 L91.3331098,449.195139 L92.4326943,449.164909 Z M92.9466085,467.857846 L93.1582202,475.554937 L92.0586357,475.585167 L91.8470239,467.888076 L92.9466085,467.857846 Z M93.4605227,486.550782 L93.6721344,494.247874 L92.5725499,494.278104 L92.3609381,486.581013 L93.4605227,486.550782 Z M93.9744369,505.243719 L94.1860486,512.940811 L93.0864641,512.971041 L92.8748523,505.273949 L93.9744369,505.243719 Z M94.488351,523.936656 L94.6999628,531.633747 L93.6003782,531.663978 L93.3887665,523.966886 L94.488351,523.936656 Z M95.0022652,542.629593 L95.213877,550.326684 L94.1142924,550.356914 L93.9026807,542.659823 L95.0022652,542.629593 Z M95.5161794,561.32253 L95.7277912,569.019621 L94.6282066,569.049851 L94.4165949,561.35276 L95.5161794,561.32253 Z" id="Shape" fill="#A587FF" fill-rule="nonzero"></path>
            <path d="M89.4202517,274.822454 L92.8072209,234.854288 L32.2651305,240.293868 L30.5609621,215.09242 L92.8072209,194.506792 L95.7231337,143.931046 C95.7231337,94.9384386 130.183731,91.6426131 163.529544,91.6426131 C185.760085,91.6426131 197.468106,104.737908 198.653605,130.928497 L195.575466,280.204954 L89.4202517,274.822454 Z" id="Shape" fill="url(#linearGradient-21)"></path>
            <path d="M92.8109518,234.854288 L107.71584,229.483201 C113.380178,227.442015 117.542301,222.556954 118.658084,216.640351 L127.348854,170.556269 L126.807513,234.095652 L92.0293994,244.409759 L92.8109518,234.854288 Z" id="Shape" fill="#4A1C25"></path>
        </g>
    </g>
</svg>