<?xml version="1.0" encoding="UTF-8"?>
<svg width="1440px" height="1024px" viewBox="0 0 1440 1024" version="1.1" xmlns="http://www.w3.org/2000/svg" xmlns:xlink="http://www.w3.org/1999/xlink">
    <!-- Generator: Sketch 53.2 (72643) - https://sketchapp.com -->
    <title>Data Security</title>
    <desc>Created with Sketch.</desc>
    <defs>
        <linearGradient x1="8.39525297%" y1="13.1381206%" x2="56.568117%" y2="50%" id="linearGradient-1">
            <stop stop-color="#CFE49F" offset="0%"></stop>
            <stop stop-color="#A9D386" offset="100%"></stop>
        </linearGradient>
        <linearGradient x1="50%" y1="7.26438915%" x2="50%" y2="151.05781%" id="linearGradient-2">
            <stop stop-color="#D0F6FF" offset="0%"></stop>
            <stop stop-color="#8BE2F7" offset="100%"></stop>
        </linearGradient>
        <linearGradient x1="8.38174197%" y1="31.3864763%" x2="56.5702499%" y2="50%" id="linearGradient-3">
            <stop stop-color="#CFE49F" offset="0%"></stop>
            <stop stop-color="#A9D386" offset="100%"></stop>
        </linearGradient>
        <linearGradient x1="34.9800858%" y1="24.563533%" x2="66.6026215%" y2="80.4180658%" id="linearGradient-4">
            <stop stop-color="#6EAE7C" offset="0%"></stop>
            <stop stop-color="#0F575D" offset="100%"></stop>
        </linearGradient>
        <linearGradient x1="34.1151714%" y1="33.9683678%" x2="64.8333502%" y2="52.4070359%" id="linearGradient-5">
            <stop stop-color="#77D791" offset="0%"></stop>
            <stop stop-color="#4FA67E" offset="100%"></stop>
        </linearGradient>
        <linearGradient x1="50%" y1="0%" x2="50%" y2="91.8482298%" id="linearGradient-6">
            <stop stop-color="#EAFCFF" offset="0%"></stop>
            <stop stop-color="#FFFFFF" offset="100%"></stop>
        </linearGradient>
        <linearGradient x1="50%" y1="7.26438915%" x2="50%" y2="151.05781%" id="linearGradient-7">
            <stop stop-color="#D0F6FF" offset="0%"></stop>
            <stop stop-color="#8BE2F7" offset="100%"></stop>
        </linearGradient>
        <linearGradient x1="50%" y1="-2.48949813e-15%" x2="50%" y2="100%" id="linearGradient-8">
            <stop stop-color="#4DBCFA" offset="0%"></stop>
            <stop stop-color="#1486DB" offset="100%"></stop>
        </linearGradient>
        <linearGradient x1="50%" y1="0%" x2="50%" y2="100%" id="linearGradient-9">
            <stop stop-color="#FF9485" offset="0%"></stop>
            <stop stop-color="#FF676E" offset="100%"></stop>
        </linearGradient>
        <linearGradient x1="50%" y1="0%" x2="50%" y2="100%" id="linearGradient-10">
            <stop stop-color="#FF9485" offset="0%"></stop>
            <stop stop-color="#FF676E" offset="100%"></stop>
        </linearGradient>
        <linearGradient x1="50%" y1="0%" x2="50%" y2="100%" id="linearGradient-11">
            <stop stop-color="#FF9485" offset="0%"></stop>
            <stop stop-color="#FF676E" offset="100%"></stop>
        </linearGradient>
        <linearGradient x1="50%" y1="-2.48949813e-15%" x2="50%" y2="100%" id="linearGradient-12">
            <stop stop-color="#4DBCFA" offset="0%"></stop>
            <stop stop-color="#1486DB" offset="100%"></stop>
        </linearGradient>
        <linearGradient x1="50%" y1="0%" x2="67.9125153%" y2="89.3678428%" id="linearGradient-13">
            <stop stop-color="#0F1752" offset="0%"></stop>
            <stop stop-color="#272884" offset="100%"></stop>
        </linearGradient>
        <linearGradient x1="82.5767258%" y1="-52.951376%" x2="82.5767258%" y2="186.664812%" id="linearGradient-14">
            <stop stop-color="#1533B6" offset="0%"></stop>
            <stop stop-color="#356BE9" offset="100%"></stop>
        </linearGradient>
        <linearGradient x1="50%" y1="-27.3641552%" x2="50%" y2="100%" id="linearGradient-15">
            <stop stop-color="#C0E4FD" offset="0%"></stop>
            <stop stop-color="#72B9FE" offset="100%"></stop>
        </linearGradient>
        <linearGradient x1="50%" y1="0%" x2="50%" y2="100%" id="linearGradient-16">
            <stop stop-color="#1D2A78" offset="0%"></stop>
            <stop stop-color="#12033B" offset="100%"></stop>
        </linearGradient>
        <linearGradient x1="50%" y1="0%" x2="50%" y2="100%" id="linearGradient-17">
            <stop stop-color="#1D2A78" offset="0%"></stop>
            <stop stop-color="#12033B" offset="100%"></stop>
        </linearGradient>
        <linearGradient x1="50%" y1="-27.3641552%" x2="50%" y2="100%" id="linearGradient-18">
            <stop stop-color="#C0E4FD" offset="0%"></stop>
            <stop stop-color="#72B9FE" offset="100%"></stop>
        </linearGradient>
    </defs>
    <g id="Data-Security" stroke="none" stroke-width="1" fill="none" fill-rule="evenodd">
        <rect fill="#FFFFFF" x="0" y="0" width="1440" height="1024"></rect>
        <g id="Ornament" transform="translate(174.000000, 106.000000)">
            <path d="M252.921769,505.925666 C113.234074,505.925666 5.68434189e-14,392.66749 5.68434189e-14,252.962833 C5.68434189e-14,113.258176 113.234074,0 252.921769,0 C392.609463,0 505.843537,113.258176 505.843537,252.962833 C505.843537,392.66749 392.609463,505.925666 252.921769,505.925666 Z M252.921769,385.925666 C326.329575,385.925666 385.843537,326.399036 385.843537,252.962833 C385.843537,179.52663 326.329575,120 252.921769,120 C179.513962,120 120,179.52663 120,252.962833 C120,326.399036 179.513962,385.925666 252.921769,385.925666 Z" id="Shape" fill="url(#linearGradient-1)"></path>
            <path d="M234.817615,296.579399 C234.817615,299.01417 232.843724,300.987942 230.408807,300.987942 C227.97389,300.987942 226,299.01417 226,296.579399 C226,294.144628 227.97389,292.170856 230.408807,292.170856 C232.843724,292.170856 234.817615,294.144628 234.817615,296.579399 Z M234.817615,278.945228 C234.817615,281.379999 232.843724,283.353771 230.408807,283.353771 C227.97389,283.353771 226,281.379999 226,278.945228 C226,276.510457 227.97389,274.536685 230.408807,274.536685 C232.843724,274.536685 234.817615,276.510457 234.817615,278.945228 Z M234.817615,261.311057 C234.817615,263.745828 232.843724,265.719599 230.408807,265.719599 C227.97389,265.719599 226,263.745828 226,261.311057 C226,258.876286 227.97389,256.902514 230.408807,256.902514 C232.843724,256.902514 234.817615,258.876286 234.817615,261.311057 Z M234.817615,243.676885 C234.817615,246.111656 232.843724,248.085428 230.408807,248.085428 C227.97389,248.085428 226,246.111656 226,243.676885 C226,241.242114 227.97389,239.268343 230.408807,239.268343 C232.843724,239.268343 234.817615,241.242114 234.817615,243.676885 Z M234.817615,226.042714 C234.817615,228.477485 232.843724,230.451257 230.408807,230.451257 C227.97389,230.451257 226,228.477485 226,226.042714 C226,223.607943 227.97389,221.634171 230.408807,221.634171 C232.843724,221.634171 234.817615,223.607943 234.817615,226.042714 Z M234.817615,208.408543 C234.817615,210.843314 232.843724,212.817086 230.408807,212.817086 C227.97389,212.817086 226,210.843314 226,208.408543 C226,205.973772 227.97389,204 230.408807,204 C232.843724,204 234.817615,205.973772 234.817615,208.408543 Z M252.452844,296.579399 C252.452844,299.01417 250.478954,300.987942 248.044037,300.987942 C245.609119,300.987942 243.635229,299.01417 243.635229,296.579399 C243.635229,294.144628 245.609119,292.170856 248.044037,292.170856 C250.478954,292.170856 252.452844,294.144628 252.452844,296.579399 Z M252.452844,278.945228 C252.452844,281.379999 250.478954,283.353771 248.044037,283.353771 C245.609119,283.353771 243.635229,281.379999 243.635229,278.945228 C243.635229,276.510457 245.609119,274.536685 248.044037,274.536685 C250.478954,274.536685 252.452844,276.510457 252.452844,278.945228 Z M252.452844,261.311057 C252.452844,263.745828 250.478954,265.719599 248.044037,265.719599 C245.609119,265.719599 243.635229,263.745828 243.635229,261.311057 C243.635229,258.876286 245.609119,256.902514 248.044037,256.902514 C250.478954,256.902514 252.452844,258.876286 252.452844,261.311057 Z M252.452844,243.676885 C252.452844,246.111656 250.478954,248.085428 248.044037,248.085428 C245.609119,248.085428 243.635229,246.111656 243.635229,243.676885 C243.635229,241.242114 245.609119,239.268343 248.044037,239.268343 C250.478954,239.268343 252.452844,241.242114 252.452844,243.676885 Z M252.452844,226.042714 C252.452844,228.477485 250.478954,230.451257 248.044037,230.451257 C245.609119,230.451257 243.635229,228.477485 243.635229,226.042714 C243.635229,223.607943 245.609119,221.634171 248.044037,221.634171 C250.478954,221.634171 252.452844,223.607943 252.452844,226.042714 Z M252.452844,208.408543 C252.452844,210.843314 250.478954,212.817086 248.044037,212.817086 C245.609119,212.817086 243.635229,210.843314 243.635229,208.408543 C243.635229,205.973772 245.609119,204 248.044037,204 C250.478954,204 252.452844,205.973772 252.452844,208.408543 Z M270.088073,296.579399 C270.088073,299.01417 268.114183,300.987942 265.679266,300.987942 C263.244349,300.987942 261.270458,299.01417 261.270458,296.579399 C261.270458,294.144628 263.244349,292.170856 265.679266,292.170856 C268.114183,292.170856 270.088073,294.144628 270.088073,296.579399 Z M270.088073,278.945228 C270.088073,281.379999 268.114183,283.353771 265.679266,283.353771 C263.244349,283.353771 261.270458,281.379999 261.270458,278.945228 C261.270458,276.510457 263.244349,274.536685 265.679266,274.536685 C268.114183,274.536685 270.088073,276.510457 270.088073,278.945228 Z M270.088073,261.311057 C270.088073,263.745828 268.114183,265.719599 265.679266,265.719599 C263.244349,265.719599 261.270458,263.745828 261.270458,261.311057 C261.270458,258.876286 263.244349,256.902514 265.679266,256.902514 C268.114183,256.902514 270.088073,258.876286 270.088073,261.311057 Z M270.088073,243.676885 C270.088073,246.111656 268.114183,248.085428 265.679266,248.085428 C263.244349,248.085428 261.270458,246.111656 261.270458,243.676885 C261.270458,241.242114 263.244349,239.268343 265.679266,239.268343 C268.114183,239.268343 270.088073,241.242114 270.088073,243.676885 Z M270.088073,226.042714 C270.088073,228.477485 268.114183,230.451257 265.679266,230.451257 C263.244349,230.451257 261.270458,228.477485 261.270458,226.042714 C261.270458,223.607943 263.244349,221.634171 265.679266,221.634171 C268.114183,221.634171 270.088073,223.607943 270.088073,226.042714 Z M270.088073,208.408543 C270.088073,210.843314 268.114183,212.817086 265.679266,212.817086 C263.244349,212.817086 261.270458,210.843314 261.270458,208.408543 C261.270458,205.973772 263.244349,204 265.679266,204 C268.114183,204 270.088073,205.973772 270.088073,208.408543 Z M287.723302,296.579399 C287.723302,299.01417 285.749412,300.987942 283.314495,300.987942 C280.879578,300.987942 278.905688,299.01417 278.905688,296.579399 C278.905688,294.144628 280.879578,292.170856 283.314495,292.170856 C285.749412,292.170856 287.723302,294.144628 287.723302,296.579399 Z M287.723302,278.945228 C287.723302,281.379999 285.749412,283.353771 283.314495,283.353771 C280.879578,283.353771 278.905688,281.379999 278.905688,278.945228 C278.905688,276.510457 280.879578,274.536685 283.314495,274.536685 C285.749412,274.536685 287.723302,276.510457 287.723302,278.945228 Z M287.723302,261.311057 C287.723302,263.745828 285.749412,265.719599 283.314495,265.719599 C280.879578,265.719599 278.905688,263.745828 278.905688,261.311057 C278.905688,258.876286 280.879578,256.902514 283.314495,256.902514 C285.749412,256.902514 287.723302,258.876286 287.723302,261.311057 Z M287.723302,243.676885 C287.723302,246.111656 285.749412,248.085428 283.314495,248.085428 C280.879578,248.085428 278.905688,246.111656 278.905688,243.676885 C278.905688,241.242114 280.879578,239.268343 283.314495,239.268343 C285.749412,239.268343 287.723302,241.242114 287.723302,243.676885 Z M287.723302,226.042714 C287.723302,228.477485 285.749412,230.451257 283.314495,230.451257 C280.879578,230.451257 278.905688,228.477485 278.905688,226.042714 C278.905688,223.607943 280.879578,221.634171 283.314495,221.634171 C285.749412,221.634171 287.723302,223.607943 287.723302,226.042714 Z M287.723302,208.408543 C287.723302,210.843314 285.749412,212.817086 283.314495,212.817086 C280.879578,212.817086 278.905688,210.843314 278.905688,208.408543 C278.905688,205.973772 280.879578,204 283.314495,204 C285.749412,204 287.723302,205.973772 287.723302,208.408543 Z M305.358531,296.579399 C305.358531,299.01417 303.384641,300.987942 300.949724,300.987942 C298.514807,300.987942 296.540917,299.01417 296.540917,296.579399 C296.540917,294.144628 298.514807,292.170856 300.949724,292.170856 C303.384641,292.170856 305.358531,294.144628 305.358531,296.579399 Z M305.358531,278.945228 C305.358531,281.379999 303.384641,283.353771 300.949724,283.353771 C298.514807,283.353771 296.540917,281.379999 296.540917,278.945228 C296.540917,276.510457 298.514807,274.536685 300.949724,274.536685 C303.384641,274.536685 305.358531,276.510457 305.358531,278.945228 Z M305.358531,261.311057 C305.358531,263.745828 303.384641,265.719599 300.949724,265.719599 C298.514807,265.719599 296.540917,263.745828 296.540917,261.311057 C296.540917,258.876286 298.514807,256.902514 300.949724,256.902514 C303.384641,256.902514 305.358531,258.876286 305.358531,261.311057 Z M305.358531,243.676885 C305.358531,246.111656 303.384641,248.085428 300.949724,248.085428 C298.514807,248.085428 296.540917,246.111656 296.540917,243.676885 C296.540917,241.242114 298.514807,239.268343 300.949724,239.268343 C303.384641,239.268343 305.358531,241.242114 305.358531,243.676885 Z M305.358531,226.042714 C305.358531,228.477485 303.384641,230.451257 300.949724,230.451257 C298.514807,230.451257 296.540917,228.477485 296.540917,226.042714 C296.540917,223.607943 298.514807,221.634171 300.949724,221.634171 C303.384641,221.634171 305.358531,223.607943 305.358531,226.042714 Z M305.358531,208.408543 C305.358531,210.843314 303.384641,212.817086 300.949724,212.817086 C298.514807,212.817086 296.540917,210.843314 296.540917,208.408543 C296.540917,205.973772 298.514807,204 300.949724,204 C303.384641,204 305.358531,205.973772 305.358531,208.408543 Z M322.993761,296.579399 C322.993761,299.01417 321.01987,300.987942 318.584953,300.987942 C316.150036,300.987942 314.176146,299.01417 314.176146,296.579399 C314.176146,294.144628 316.150036,292.170856 318.584953,292.170856 C321.01987,292.170856 322.993761,294.144628 322.993761,296.579399 Z M322.993761,278.945228 C322.993761,281.379999 321.01987,283.353771 318.584953,283.353771 C316.150036,283.353771 314.176146,281.379999 314.176146,278.945228 C314.176146,276.510457 316.150036,274.536685 318.584953,274.536685 C321.01987,274.536685 322.993761,276.510457 322.993761,278.945228 Z M322.993761,261.311057 C322.993761,263.745828 321.01987,265.719599 318.584953,265.719599 C316.150036,265.719599 314.176146,263.745828 314.176146,261.311057 C314.176146,258.876286 316.150036,256.902514 318.584953,256.902514 C321.01987,256.902514 322.993761,258.876286 322.993761,261.311057 Z M322.993761,243.676885 C322.993761,246.111656 321.01987,248.085428 318.584953,248.085428 C316.150036,248.085428 314.176146,246.111656 314.176146,243.676885 C314.176146,241.242114 316.150036,239.268343 318.584953,239.268343 C321.01987,239.268343 322.993761,241.242114 322.993761,243.676885 Z M322.993761,226.042714 C322.993761,228.477485 321.01987,230.451257 318.584953,230.451257 C316.150036,230.451257 314.176146,228.477485 314.176146,226.042714 C314.176146,223.607943 316.150036,221.634171 318.584953,221.634171 C321.01987,221.634171 322.993761,223.607943 322.993761,226.042714 Z M322.993761,208.408543 C322.993761,210.843314 321.01987,212.817086 318.584953,212.817086 C316.150036,212.817086 314.176146,210.843314 314.176146,208.408543 C314.176146,205.973772 316.150036,204 318.584953,204 C321.01987,204 322.993761,205.973772 322.993761,208.408543 Z" id="Shape" fill="#CDCBDF"></path>
            <path d="M837,292 L1027,292 C1082.22847,292 1127,336.771525 1127,392 L1127,582 C1127,587.522847 1122.52285,592 1117,592 L837,592 C831.477153,592 827,587.522847 827,582 L827,302 C827,296.477153 831.477153,292 837,292 Z" id="Shape" fill="url(#linearGradient-2)"></path>
            <g id="Plant" transform="translate(957.000000, 72.000000)">
                <path d="M39.4981201,164.85314 C63.4566962,71.748516 121.682551,39.0261602 214.175686,66.686073 C206.306031,108.785983 187.576224,141.226961 157.986264,164.009006 C128.396305,186.791051 88.9002567,187.07243 39.4981201,164.85314 Z" id="Shape" fill="url(#linearGradient-3)"></path>
                <path d="M110.90666,123.31975 L114.182626,91.2147532 C114.317975,89.8883075 116.307644,90.0913315 116.172294,91.4177773 L113.04009,122.113892 C137.314607,108.396862 167.641093,91.3752098 204.021245,71.0479371 C204.503374,70.7785492 205.112599,70.9510101 205.381987,71.4331393 C205.651375,71.9152686 205.478914,72.5244936 204.996785,72.7938815 C185.072124,83.9267104 166.963277,94.0680217 150.670521,103.217651 L178.847155,109.94056 C179.38436,110.068737 179.715944,110.608135 179.587767,111.14534 C179.459591,111.682545 178.920192,112.014128 178.382987,111.885952 L148.101203,104.660756 C135.046861,111.994186 123.186404,118.675692 112.519979,124.705186 C112.425529,124.787184 112.316344,124.847239 112.199917,124.886116 C100.139932,131.70388 89.6132281,137.684383 80.6200223,142.827497 L106.833213,152.40034 C107.351987,152.589792 107.618955,153.163922 107.429503,153.682696 C107.240051,154.20147 106.66592,154.468438 106.147147,154.278986 L78.4735497,144.172815 C78.4334076,144.158155 78.3947731,144.141192 78.3577411,144.12213 C64.2878892,152.17938 54.1992515,158.062628 48.0927331,161.771343 C47.6206877,162.058034 47.0056105,161.907774 46.7189198,161.435729 C46.4322291,160.963683 46.5824889,160.348606 47.0545343,160.061915 C57.2599898,153.863764 78.5426306,141.617201 110.90666,123.31975 Z" id="Shape" fill="#FFFFFF" fill-rule="nonzero"></path>
                <path d="M50.2925002,192.93029 C1.39886056,110.154107 19.4325579,45.8440106 104.393592,5.68434189e-14 C128.598038,35.3338181 138.293299,71.5170271 133.479377,108.549627 C128.665455,145.582227 100.936496,173.709114 50.2925002,192.93029 Z" id="Shape" fill="url(#linearGradient-4)"></path>
                <path d="M71.4174312,113.068298 L51.0322176,88.0501669 C50.1899853,87.0165217 51.7404532,85.7531732 52.5826855,86.7868184 L72.0733233,110.707065 C79.5385941,83.8429829 88.9465331,50.3627908 100.297634,10.2645827 C100.448065,9.73317982 101.0008,9.42434098 101.532203,9.57477183 C102.063606,9.72520267 102.372445,10.2779381 102.222014,10.809341 C96.0052518,32.7702963 90.3713544,52.7461701 85.3204025,70.7366492 L109.99809,55.5665848 C110.468586,55.2773579 111.084463,55.4243053 111.37369,55.8948011 C111.662917,56.3652968 111.515969,56.9811737 111.045474,57.2704006 L84.5240498,73.5738611 C80.4787456,87.9902222 76.8166666,101.101395 73.537856,112.907212 C73.5290457,113.031934 73.4943191,113.151562 73.4395101,113.261343 C69.7326936,126.609949 66.518039,138.282324 63.7956093,148.278225 L89.1001411,136.51173 C89.6009325,136.278864 90.1956791,136.496061 90.4285449,136.996852 C90.6614106,137.497643 90.444214,138.09239 89.9434227,138.325256 L63.2290923,150.747301 C63.1903464,150.765318 63.151038,150.78064 63.1113783,150.793346 C58.8598251,166.439575 55.8861651,177.733407 54.1906615,184.673826 C54.0595959,185.210334 53.518421,185.539009 52.9819135,185.407944 C52.4454061,185.276878 52.1167305,184.735703 52.2477961,184.199196 C55.0813881,172.600095 61.4708588,148.89137 71.4174312,113.068298 L71.4174312,113.068298 Z" id="Shape" fill="#FFFFFF" fill-rule="nonzero"></path>
                <path d="M-2.27373675e-13,227.324394 C47.2394574,143.593169 111.950484,127.05576 194.133079,177.712169 C175.635317,216.340743 149.14737,242.82869 114.669237,257.176011 C80.1911033,271.523332 41.9680244,261.572793 -2.27373675e-13,227.324394 Z" id="Shape" fill="url(#linearGradient-5)" fill-rule="nonzero"></path>
                <path d="M79.7249871,205.688105 L91.1987099,175.524946 C91.6727567,174.278729 93.5420825,174.9898 93.0680357,176.236017 L82.097821,205.075508 C109.095432,198.108582 142.794094,189.516001 183.195706,179.29724 C183.731129,179.161816 184.274959,179.486079 184.410384,180.021503 C184.545808,180.556927 184.221545,181.100757 183.686121,181.236181 C161.558988,186.832787 141.442419,191.941627 123.336727,196.562615 L148.813254,210.349099 C149.298979,210.611947 149.479657,211.218786 149.21681,211.704511 C148.953962,212.190237 148.347123,212.370915 147.861397,212.108067 L120.481453,197.291559 C105.973905,200.996393 92.78829,204.380518 80.9247726,207.443887 C80.8123068,207.498654 80.6912845,207.528407 80.5687493,207.535824 C67.1551379,210.999923 55.4392605,214.052132 45.4213591,216.692384 L68.2637271,232.723517 C68.7157905,233.040782 68.825066,233.664446 68.5078008,234.116509 C68.1905357,234.568573 67.5668717,234.677848 67.1148084,234.360583 L42.9998362,217.436317 C42.9648547,217.411766 42.9319258,217.385381 42.9010882,217.357383 C27.2252857,221.498542 15.9577136,224.570192 9.09938382,226.572052 C8.56922192,226.7268 8.01399309,226.422467 7.85924551,225.892305 C7.70449794,225.362143 8.00883137,224.806914 8.53899326,224.652166 C20.0009063,221.306578 43.728004,214.985659 79.7249871,205.688105 Z" id="Shape" fill="#FFFFFF" fill-rule="nonzero"></path>
            </g>
            <path d="M284.153791,941.153791 C284.153791,838.915477 284.153791,709.658839 284.153791,642.890277 C201.28674,642.890277 134.109723,709.658839 134.109723,792.022034 C134.109723,874.385229 201.28674,941.153791 284.153791,941.153791 Z" id="Shape" fill="#3B97FC" transform="translate(209.131757, 792.022034) rotate(-270.000000) translate(-209.131757, -792.022034) "></path>
        </g>
        <g id="Document" transform="translate(410.000000, 153.000000)">
            <path d="M100,50 C100,22.3857625 77.6142375,4.92619834e-13 50,1.13686838e-13 L740,1.151787e-13 C751.045695,1.151787e-13 760,8.954305 760,20 L760,800 C760,811.045695 751.045695,820 740,820 L120,820 C108.954305,820 100,811.045695 100,800 L100,50 Z" id="Shape" fill="url(#linearGradient-6)"></path>
            <polygon id="Shape" fill="#0737A3" points="140 40 720 40 720 140 140 140"></polygon>
            <path d="M140,180 L720,180 L720,220 L140,220 L140,180 Z M140,260 L650,260 L650,300 L140,300 L140,260 Z M140,340 L720,340 L720,380 L140,380 L140,340 Z M140,420 L580,420 L580,460 L140,460 L140,420 Z M140,580 L640,580 L640,620 L140,620 L140,580 Z M140,500 L720,500 L720,540 L140,540 L140,500 Z" id="Shape" fill="url(#linearGradient-7)"></path>
            <path d="M50,1.09423581e-12 C77.6142375,1.08916316e-12 100,22.3857625 100,50 L100,140 L-4.97379915e-14,140 L-4.97379915e-14,50 C-5.31197603e-14,22.3857625 22.3857625,1.09930847e-12 50,1.09423581e-12 Z" id="Shape" fill="url(#linearGradient-8)"></path>
        </g>
        <g id="Ornament" transform="translate(770.000000, 874.000000)" fill="url(#linearGradient-9)">
            <path d="M0,100 C0,44.771525 44.771525,0 100,0 L589,0 C589,55.228475 544.228475,100 489,100 L0,100 Z" id="Shape"></path>
        </g>
        <g id="Shield" transform="translate(274.000000, 345.000000)">
            <path d="M-5.68434189e-14,108 L258,-5.68434189e-14 L516,108 L516,359.754564 C516,479.245148 430,567.993627 258,626 C86.8239272,558.130172 0.994831707,469.381694 0.512713563,359.754564 C0.770299627,359.754564 0.599395106,275.836376 -5.68434189e-14,108 Z" id="Shape" fill="url(#linearGradient-10)"></path>
            <path d="M40.8,139.290566 L259.2,48 L477.6,139.290566 L477.6,350.547254 C477.6,451.550616 404.8,526.568198 259.2,575.6 C114.297464,518.230787 41.6421366,443.213205 41.234018,350.547254 C41.4520676,350.547254 41.3073949,280.128358 40.8,139.290566 Z" id="Shape" fill="#FFFFFF"></path>
            <path d="M40.8,139.290566 L259.2,48 L259.2,575.6 C114.297464,518.230787 41.6421366,443.213205 41.234018,350.547254 C41.4520676,350.547254 41.3073949,280.128358 40.8,139.290566 Z" id="Shape" fill="#F9E7E8"></path>
            <polygon id="Shape" fill="url(#linearGradient-11)" points="358.979364 209.949662 389.290331 236.050338 251.801603 395.717324 147.109736 318.31179 170.890264 286.148356 245.722098 341.476418"></polygon>
        </g>
        <g id="Padlock" transform="translate(1028.000000, 497.000000)">
            <path d="M100,232 L60,232 L60,115 C60,51.4872538 111.487254,0 175,0 C238.512746,0 290,51.4872538 290,115 L290,232 L250,232 L250,115 C250,73.5786438 216.421356,40 175,40 C133.578644,40 100,73.5786438 100,115 L100,232 Z" id="Shape" fill="#0737A3" fill-rule="nonzero"></path>
            <path d="M8,176 L342,176 C346.418278,176 350,179.581722 350,184 L350,468 C350,472.418278 346.418278,476 342,476 L8,476 C3.581722,476 5.41083001e-16,472.418278 0,468 L0,184 C-5.41083001e-16,179.581722 3.581722,176 8,176 Z" id="Shape" fill="url(#linearGradient-12)"></path>
            <path d="M152.669406,333.390961 C141.431056,326.078765 134,313.40719 134,299 C134,276.356325 152.356325,258 175,258 C197.643675,258 216,276.356325 216,299 C216,313.40719 208.568944,326.078765 197.330594,333.390961 L216,395 L134,395 L152.669406,333.390961 L152.669406,333.390961 Z" id="Shape" fill="url(#linearGradient-13)"></path>
        </g>
        <g id="Women" transform="translate(109.000000, 398.000000)">
            <polygon id="Shape" fill="#F4B696" points="89.372093 534 111 534 111 555.614907 89.372093 555.614907"></polygon>
            <path d="M88.5348837,554 L111.251479,554 L125.641587,558.803313 C132.892755,561.371596 139,562.419808 139,570.464921 C139,572.531586 137.630667,574.206949 135.941508,574.206949 L93.3348837,574.206949 C90.6839169,574.206949 88.5348837,572.057916 88.5348837,569.406949 L88.5348837,554 Z" id="Shape" fill="#021038"></path>
            <polygon id="Shape" fill="#F4B696" points="23.1980268 534 44.8259338 534 44.8259338 555.614907 23.1980268 555.614907"></polygon>
            <polygon id="Shape" fill="#211D41" points="114.825972 547.177226 86.6973392 547.177226 54.1483527 258 125 259.752511"></polygon>
            <path d="M22.3608175,554 L45.0774132,554 L59.4675206,558.803313 C66.718689,561.371596 72.8259338,562.419808 72.8259338,570.464921 C72.8259338,572.531586 71.4566003,574.206949 69.7674419,574.206949 L27.1608175,574.206949 C24.5098507,574.206949 22.3608175,572.057916 22.3608175,569.406949 L22.3608175,554 Z" id="Shape" fill="#021038"></path>
            <polygon id="Shape" fill="#221E41" points="165 97.058413 109.819551 125.47265 77.8207496 89.6980573 165 64.8394517"></polygon>
            <polygon id="Shape" fill="url(#linearGradient-14)" points="48.6519053 547.177226 20.5232729 547.177226 30.1483527 258 101 259.752511"></polygon>
            <path d="M98.3175318,82.0575283 C123.129981,84.2283363 136.294701,121.006779 137.892106,132.713437 C140.016085,148.279118 132.270133,164.334705 132.270133,164.334705 C132.270133,164.334705 129.908852,199.324354 125.186289,269.30365 L27.9481282,260.796414 L39.8323877,119.24888 C39.8364913,119.200004 39.8406805,119.151135 39.8449553,119.102274 C41.8666164,95.9945821 62.237982,78.9009767 85.3456739,80.9226378 C89.6696265,81.3009346 93.9935792,81.6792315 98.3175318,82.0575283 Z" id="Shape" fill="url(#linearGradient-15)"></path>
            <path d="M112.374459,90.335557 C110.159195,97.8967336 105.656135,100.189891 98.8652783,97.2150297 C92.0744217,94.2401682 87.7559934,89.5122477 85.9099933,83.0312681 L88.6789934,71.9254155 C84.5611769,60.0762321 83.6063752,45.5146151 90.9325721,28.1047082 C98.258769,10.6948013 113.780322,9.42710378 137.49723,24.3016155 C135.595655,34.9286401 136.689509,42.2119782 140.778791,46.1516297 C146.912715,52.061107 143.938025,55.4086851 141.129846,55.9836977 C138.321668,56.5587102 136.183884,58.1933828 135.424622,64.4411942 C134.66536,70.6890056 130.669289,70.9670903 124.312896,71.9254155 C120.075301,72.564299 116.095822,78.7010128 112.374459,90.335557 Z" id="Shape" fill="#F4B696"></path>
            <path d="M79.0912584,61.1843448 C85.1704177,70.3924663 91.0794108,72.5704329 96.8182379,67.7182445 C105.426479,60.439962 103.143893,55.0972905 98.9206022,53.4706099 C94.6973116,51.8439294 93.8337986,43.1113403 98.9206022,41.7823453 C104.007406,40.4533502 107.141095,47.4403744 108.587894,41.7823453 C110.034693,36.1243161 107.654293,30.2960736 114.254391,30.2960736 C120.854489,30.2960736 136.23301,32.7877165 139.277757,22.6601446 C142.322505,12.5325728 134.310214,1.20792265e-13 116.615408,1.20792265e-13 C98.9206022,1.20792265e-13 82.3392101,8.71725051 75.7096127,24.1413428 C71.2898811,34.424071 72.4170964,46.7717383 79.0912584,61.1843448 Z" id="Shape" fill="url(#linearGradient-16)"></path>
            <path d="M79.1604014,28.6596879 C71.5366979,24.4006484 66.4874379,26.379596 64.0126212,34.5965309 C60.3003961,46.9219332 68.7505479,63.1090005 41.9000321,66.5959335 C15.0495162,70.0828665 14.2943914,95.0687789 28.0972117,105.974501 C0.926735142,86.3759372 -6.53801037,67.1164657 5.70297522,48.1960869 C24.0644536,19.8155186 43.169102,46.6077131 51.9531285,25.2263449 C57.8091462,10.9720995 68.5389177,10.9720995 84.1424433,25.2263449 L79.1604014,28.6596879 Z" id="Shape" fill="url(#linearGradient-17)"></path>
            <polygon id="Shape" fill="#221E41" points="131.122851 188.575054 129.082802 174.344466 103.512496 135.548101 58.6177866 141.78312 125.156245 269.322296"></polygon>
            <path d="M107.148674,141.440974 L118.393183,169.854793 C157.930071,174.967777 187.996976,178.091511 208.593897,179.225996 C213.630447,179.578186 218.040976,178.865348 221.825483,177.087484 L224.829234,170.450934 C227.170527,170.614653 228.935799,172.645366 228.77208,174.986659 C228.762032,175.130344 228.744686,175.273426 228.720109,175.41535 L228.239118,178.192859 C241.977854,178.908665 248.063889,182.391239 246.497221,188.64058 C244.930554,194.889922 237.053576,198.183863 222.866286,198.522404 C217.180964,198.039981 213.117955,197.012249 210.677261,195.439211 C178.3596,196.36682 146.262207,198.100589 114.385082,200.640517 C105.582721,201.341878 97.1062019,197.152966 92.3164067,189.734655 L74.097285,161.517353 L107.148674,141.440974 Z" id="Shape" fill="#F4B696"></path>
            <path d="M102.433712,125.784418 L118.393183,169.854793 C157.930071,174.967777 187.996976,178.091511 208.593897,179.225996 L210.677261,195.439211 C178.167694,196.372329 145.881017,198.121208 113.817232,200.68585 C105.317701,201.36569 97.095634,197.484845 92.2181142,190.49099 L57.6559618,140.932464 L102.433712,125.784418 Z" id="Shape" fill="url(#linearGradient-18)"></path>
            <path d="M34.6193208,540.91694 L33.6244552,540.815735 L34.3328891,533.851676 L35.3277547,533.952881 L34.6193208,540.91694 Z M36.3398033,524.004225 L35.3449377,523.90302 L36.0533717,516.938961 L37.0482373,517.040166 L36.3398033,524.004225 Z M38.0602858,507.09151 L37.0654202,506.990305 L37.7738542,500.026246 L38.7687198,500.12745 L38.0602858,507.09151 Z M39.7807684,490.178794 L38.7859028,490.077589 L39.4943367,483.11353 L40.4892023,483.214735 L39.7807684,490.178794 Z M41.5012509,473.266079 L40.5063853,473.164874 L41.2148193,466.200815 L42.2096849,466.30202 L41.5012509,473.266079 Z M43.2217334,456.353364 L42.2268678,456.252159 L42.9353018,449.2881 L43.9301674,449.389304 L43.2217334,456.353364 Z M44.942216,439.440648 L43.9473503,439.339443 L44.6557843,432.375384 L45.6506499,432.476589 L44.942216,439.440648 Z M46.6626985,422.527933 L45.6678329,422.426728 L46.3762669,415.462669 L47.3711325,415.563874 L46.6626985,422.527933 Z M48.383181,405.615218 L47.3883154,405.514013 L48.0967494,398.549954 L49.091615,398.651158 L48.383181,405.615218 Z M50.1036635,388.702502 L49.1087979,388.601297 L49.8172319,381.637238 L50.8120975,381.738443 L50.1036635,388.702502 Z M51.8241461,371.789787 L50.8292805,371.688582 L51.5377145,364.724523 L52.5325801,364.825728 L51.8241461,371.789787 Z M53.5446286,354.877072 L52.549763,354.775867 L53.258197,347.811808 L54.2530626,347.913012 L53.5446286,354.877072 Z M55.2651111,337.964356 L54.2702455,337.863151 L54.9786795,330.899092 L55.9735451,331.000297 L55.2651111,337.964356 Z M56.9855937,321.051641 L55.9907281,320.950436 L56.699162,313.986377 L57.6940277,314.087582 L56.9855937,321.051641 Z M58.7060762,304.138926 L57.7112106,304.037721 L58.4196446,297.073662 L59.4145102,297.174866 L58.7060762,304.138926 Z M60.4265587,287.22621 L59.4316931,287.125005 L60.1401271,280.160946 L61.1349927,280.262151 L60.4265587,287.22621 Z M62.1470413,270.313495 L61.1521757,270.21229 L61.2846336,268.9102 L62.2794992,269.011405 L62.1470413,270.313495 Z" id="Shape" fill="#A587FF" fill-rule="nonzero"></path>
        </g>
    </g>
</svg>