<?xml version="1.0" encoding="UTF-8"?>
<svg width="1440px" height="1024px" viewBox="0 0 1440 1024" version="1.1" xmlns="http://www.w3.org/2000/svg" xmlns:xlink="http://www.w3.org/1999/xlink">
    <!-- Generator: Sketch 53.2 (72643) - https://sketchapp.com -->
    <title>Investment</title>
    <desc>Created with Sketch.</desc>
    <defs>
        <linearGradient x1="50%" y1="7.26438915%" x2="50%" y2="151.05781%" id="linearGradient-1">
            <stop stop-color="#D0F6FF" offset="0%"></stop>
            <stop stop-color="#8BE2F7" offset="100%"></stop>
        </linearGradient>
        <linearGradient x1="8.38174197%" y1="13.1425432%" x2="56.5702499%" y2="50%" id="linearGradient-2">
            <stop stop-color="#CFE49F" offset="0%"></stop>
            <stop stop-color="#A9D386" offset="100%"></stop>
        </linearGradient>
        <linearGradient x1="50%" y1="7.26438915%" x2="50%" y2="151.05781%" id="linearGradient-3">
            <stop stop-color="#D0F6FF" offset="0%"></stop>
            <stop stop-color="#8BE2F7" offset="100%"></stop>
        </linearGradient>
        <linearGradient x1="8.39742233%" y1="13.1381206%" x2="56.5677745%" y2="50%" id="linearGradient-4">
            <stop stop-color="#CFE49F" offset="0%"></stop>
            <stop stop-color="#A9D386" offset="100%"></stop>
        </linearGradient>
        <linearGradient x1="50%" y1="-2.48949813e-15%" x2="50%" y2="100%" id="linearGradient-5">
            <stop stop-color="#4DBCFA" offset="0%"></stop>
            <stop stop-color="#1486DB" offset="100%"></stop>
        </linearGradient>
        <linearGradient x1="50%" y1="0%" x2="50%" y2="91.8482298%" id="linearGradient-6">
            <stop stop-color="#EAFCFF" offset="0%"></stop>
            <stop stop-color="#FFFFFF" offset="100%"></stop>
        </linearGradient>
        <linearGradient x1="50%" y1="7.26438915%" x2="50%" y2="151.05781%" id="linearGradient-7">
            <stop stop-color="#D0F6FF" offset="0%"></stop>
            <stop stop-color="#8BE2F7" offset="100%"></stop>
        </linearGradient>
        <linearGradient x1="50%" y1="24.6204498%" x2="100%" y2="69.9827629%" id="linearGradient-8">
            <stop stop-color="#0F1752" offset="0%"></stop>
            <stop stop-color="#272884" offset="100%"></stop>
        </linearGradient>
        <linearGradient x1="50%" y1="80.1138423%" x2="50.9350565%" y2="38.6638498%" id="linearGradient-9">
            <stop stop-color="#2B3389" offset="0%"></stop>
            <stop stop-color="#444FB7" offset="100%"></stop>
        </linearGradient>
        <linearGradient x1="50%" y1="0%" x2="50%" y2="100%" id="linearGradient-10">
            <stop stop-color="#FF9485" offset="0%"></stop>
            <stop stop-color="#FF676E" offset="100%"></stop>
        </linearGradient>
        <linearGradient x1="50%" y1="-2.48949813e-15%" x2="50%" y2="100%" id="linearGradient-11">
            <stop stop-color="#4DBCFA" offset="0%"></stop>
            <stop stop-color="#1486DB" offset="100%"></stop>
        </linearGradient>
        <linearGradient x1="50%" y1="-2.48949813e-15%" x2="50%" y2="100%" id="linearGradient-12">
            <stop stop-color="#4DBCFA" offset="0%"></stop>
            <stop stop-color="#1486DB" offset="100%"></stop>
        </linearGradient>
        <linearGradient x1="50%" y1="0%" x2="50%" y2="100%" id="linearGradient-13">
            <stop stop-color="#FF9485" offset="0%"></stop>
            <stop stop-color="#FF676E" offset="100%"></stop>
        </linearGradient>
        <linearGradient x1="50%" y1="-2.48949813e-15%" x2="50%" y2="100%" id="linearGradient-14">
            <stop stop-color="#4DBCFA" offset="0%"></stop>
            <stop stop-color="#1486DB" offset="100%"></stop>
        </linearGradient>
        <linearGradient x1="82.5767258%" y1="-52.951376%" x2="82.5767258%" y2="186.664812%" id="linearGradient-15">
            <stop stop-color="#1533B6" offset="0%"></stop>
            <stop stop-color="#356BE9" offset="100%"></stop>
        </linearGradient>
        <linearGradient x1="50%" y1="-27.3641552%" x2="50%" y2="100%" id="linearGradient-16">
            <stop stop-color="#C0E4FD" offset="0%"></stop>
            <stop stop-color="#72B9FE" offset="100%"></stop>
        </linearGradient>
        <linearGradient x1="50%" y1="-27.3641552%" x2="50%" y2="100%" id="linearGradient-17">
            <stop stop-color="#C0E4FD" offset="0%"></stop>
            <stop stop-color="#72B9FE" offset="100%"></stop>
        </linearGradient>
        <linearGradient x1="50%" y1="0%" x2="50%" y2="100%" id="linearGradient-18">
            <stop stop-color="#1D2A78" offset="0%"></stop>
            <stop stop-color="#12033B" offset="100%"></stop>
        </linearGradient>
    </defs>
    <g id="Investment" stroke="none" stroke-width="1" fill="none" fill-rule="evenodd">
        <rect fill="#FFFFFF" x="0" y="0" width="1440" height="1024"></rect>
        <g id="Ornament" transform="translate(33.609723, 93.000000)">
            <path d="M925.390277,719 L1266.39028,719 C1312.7822,719 1350.39028,756.608081 1350.39028,803 L1009.39028,803 C962.998358,803 925.390277,765.391919 925.390277,719 Z" id="Shape" fill="url(#linearGradient-1)"></path>
            <path d="M1200.20789,517.579399 C1200.20789,520.01417 1198.234,521.987942 1195.79908,521.987942 C1193.36417,521.987942 1191.39028,520.01417 1191.39028,517.579399 C1191.39028,515.144628 1193.36417,513.170856 1195.79908,513.170856 C1198.234,513.170856 1200.20789,515.144628 1200.20789,517.579399 Z M1200.20789,499.945228 C1200.20789,502.379999 1198.234,504.353771 1195.79908,504.353771 C1193.36417,504.353771 1191.39028,502.379999 1191.39028,499.945228 C1191.39028,497.510457 1193.36417,495.536685 1195.79908,495.536685 C1198.234,495.536685 1200.20789,497.510457 1200.20789,499.945228 Z M1200.20789,482.311057 C1200.20789,484.745828 1198.234,486.719599 1195.79908,486.719599 C1193.36417,486.719599 1191.39028,484.745828 1191.39028,482.311057 C1191.39028,479.876286 1193.36417,477.902514 1195.79908,477.902514 C1198.234,477.902514 1200.20789,479.876286 1200.20789,482.311057 Z M1200.20789,464.676885 C1200.20789,467.111656 1198.234,469.085428 1195.79908,469.085428 C1193.36417,469.085428 1191.39028,467.111656 1191.39028,464.676885 C1191.39028,462.242114 1193.36417,460.268343 1195.79908,460.268343 C1198.234,460.268343 1200.20789,462.242114 1200.20789,464.676885 Z M1200.20789,447.042714 C1200.20789,449.477485 1198.234,451.451257 1195.79908,451.451257 C1193.36417,451.451257 1191.39028,449.477485 1191.39028,447.042714 C1191.39028,444.607943 1193.36417,442.634171 1195.79908,442.634171 C1198.234,442.634171 1200.20789,444.607943 1200.20789,447.042714 Z M1200.20789,429.408543 C1200.20789,431.843314 1198.234,433.817086 1195.79908,433.817086 C1193.36417,433.817086 1191.39028,431.843314 1191.39028,429.408543 C1191.39028,426.973772 1193.36417,425 1195.79908,425 C1198.234,425 1200.20789,426.973772 1200.20789,429.408543 Z M1217.84312,517.579399 C1217.84312,520.01417 1215.86923,521.987942 1213.43431,521.987942 C1210.9994,521.987942 1209.02551,520.01417 1209.02551,517.579399 C1209.02551,515.144628 1210.9994,513.170856 1213.43431,513.170856 C1215.86923,513.170856 1217.84312,515.144628 1217.84312,517.579399 Z M1217.84312,499.945228 C1217.84312,502.379999 1215.86923,504.353771 1213.43431,504.353771 C1210.9994,504.353771 1209.02551,502.379999 1209.02551,499.945228 C1209.02551,497.510457 1210.9994,495.536685 1213.43431,495.536685 C1215.86923,495.536685 1217.84312,497.510457 1217.84312,499.945228 Z M1217.84312,482.311057 C1217.84312,484.745828 1215.86923,486.719599 1213.43431,486.719599 C1210.9994,486.719599 1209.02551,484.745828 1209.02551,482.311057 C1209.02551,479.876286 1210.9994,477.902514 1213.43431,477.902514 C1215.86923,477.902514 1217.84312,479.876286 1217.84312,482.311057 Z M1217.84312,464.676885 C1217.84312,467.111656 1215.86923,469.085428 1213.43431,469.085428 C1210.9994,469.085428 1209.02551,467.111656 1209.02551,464.676885 C1209.02551,462.242114 1210.9994,460.268343 1213.43431,460.268343 C1215.86923,460.268343 1217.84312,462.242114 1217.84312,464.676885 Z M1217.84312,447.042714 C1217.84312,449.477485 1215.86923,451.451257 1213.43431,451.451257 C1210.9994,451.451257 1209.02551,449.477485 1209.02551,447.042714 C1209.02551,444.607943 1210.9994,442.634171 1213.43431,442.634171 C1215.86923,442.634171 1217.84312,444.607943 1217.84312,447.042714 Z M1217.84312,429.408543 C1217.84312,431.843314 1215.86923,433.817086 1213.43431,433.817086 C1210.9994,433.817086 1209.02551,431.843314 1209.02551,429.408543 C1209.02551,426.973772 1210.9994,425 1213.43431,425 C1215.86923,425 1217.84312,426.973772 1217.84312,429.408543 Z M1235.47835,517.579399 C1235.47835,520.01417 1233.50446,521.987942 1231.06954,521.987942 C1228.63463,521.987942 1226.66074,520.01417 1226.66074,517.579399 C1226.66074,515.144628 1228.63463,513.170856 1231.06954,513.170856 C1233.50446,513.170856 1235.47835,515.144628 1235.47835,517.579399 Z M1235.47835,499.945228 C1235.47835,502.379999 1233.50446,504.353771 1231.06954,504.353771 C1228.63463,504.353771 1226.66074,502.379999 1226.66074,499.945228 C1226.66074,497.510457 1228.63463,495.536685 1231.06954,495.536685 C1233.50446,495.536685 1235.47835,497.510457 1235.47835,499.945228 Z M1235.47835,482.311057 C1235.47835,484.745828 1233.50446,486.719599 1231.06954,486.719599 C1228.63463,486.719599 1226.66074,484.745828 1226.66074,482.311057 C1226.66074,479.876286 1228.63463,477.902514 1231.06954,477.902514 C1233.50446,477.902514 1235.47835,479.876286 1235.47835,482.311057 Z M1235.47835,464.676885 C1235.47835,467.111656 1233.50446,469.085428 1231.06954,469.085428 C1228.63463,469.085428 1226.66074,467.111656 1226.66074,464.676885 C1226.66074,462.242114 1228.63463,460.268343 1231.06954,460.268343 C1233.50446,460.268343 1235.47835,462.242114 1235.47835,464.676885 Z M1235.47835,447.042714 C1235.47835,449.477485 1233.50446,451.451257 1231.06954,451.451257 C1228.63463,451.451257 1226.66074,449.477485 1226.66074,447.042714 C1226.66074,444.607943 1228.63463,442.634171 1231.06954,442.634171 C1233.50446,442.634171 1235.47835,444.607943 1235.47835,447.042714 Z M1235.47835,429.408543 C1235.47835,431.843314 1233.50446,433.817086 1231.06954,433.817086 C1228.63463,433.817086 1226.66074,431.843314 1226.66074,429.408543 C1226.66074,426.973772 1228.63463,425 1231.06954,425 C1233.50446,425 1235.47835,426.973772 1235.47835,429.408543 Z M1253.11358,517.579399 C1253.11358,520.01417 1251.13969,521.987942 1248.70477,521.987942 C1246.26986,521.987942 1244.29596,520.01417 1244.29596,517.579399 C1244.29596,515.144628 1246.26986,513.170856 1248.70477,513.170856 C1251.13969,513.170856 1253.11358,515.144628 1253.11358,517.579399 Z M1253.11358,499.945228 C1253.11358,502.379999 1251.13969,504.353771 1248.70477,504.353771 C1246.26986,504.353771 1244.29596,502.379999 1244.29596,499.945228 C1244.29596,497.510457 1246.26986,495.536685 1248.70477,495.536685 C1251.13969,495.536685 1253.11358,497.510457 1253.11358,499.945228 Z M1253.11358,482.311057 C1253.11358,484.745828 1251.13969,486.719599 1248.70477,486.719599 C1246.26986,486.719599 1244.29596,484.745828 1244.29596,482.311057 C1244.29596,479.876286 1246.26986,477.902514 1248.70477,477.902514 C1251.13969,477.902514 1253.11358,479.876286 1253.11358,482.311057 Z M1253.11358,464.676885 C1253.11358,467.111656 1251.13969,469.085428 1248.70477,469.085428 C1246.26986,469.085428 1244.29596,467.111656 1244.29596,464.676885 C1244.29596,462.242114 1246.26986,460.268343 1248.70477,460.268343 C1251.13969,460.268343 1253.11358,462.242114 1253.11358,464.676885 Z M1253.11358,447.042714 C1253.11358,449.477485 1251.13969,451.451257 1248.70477,451.451257 C1246.26986,451.451257 1244.29596,449.477485 1244.29596,447.042714 C1244.29596,444.607943 1246.26986,442.634171 1248.70477,442.634171 C1251.13969,442.634171 1253.11358,444.607943 1253.11358,447.042714 Z M1253.11358,429.408543 C1253.11358,431.843314 1251.13969,433.817086 1248.70477,433.817086 C1246.26986,433.817086 1244.29596,431.843314 1244.29596,429.408543 C1244.29596,426.973772 1246.26986,425 1248.70477,425 C1251.13969,425 1253.11358,426.973772 1253.11358,429.408543 Z M1270.74881,517.579399 C1270.74881,520.01417 1268.77492,521.987942 1266.34,521.987942 C1263.90508,521.987942 1261.93119,520.01417 1261.93119,517.579399 C1261.93119,515.144628 1263.90508,513.170856 1266.34,513.170856 C1268.77492,513.170856 1270.74881,515.144628 1270.74881,517.579399 Z M1270.74881,499.945228 C1270.74881,502.379999 1268.77492,504.353771 1266.34,504.353771 C1263.90508,504.353771 1261.93119,502.379999 1261.93119,499.945228 C1261.93119,497.510457 1263.90508,495.536685 1266.34,495.536685 C1268.77492,495.536685 1270.74881,497.510457 1270.74881,499.945228 Z M1270.74881,482.311057 C1270.74881,484.745828 1268.77492,486.719599 1266.34,486.719599 C1263.90508,486.719599 1261.93119,484.745828 1261.93119,482.311057 C1261.93119,479.876286 1263.90508,477.902514 1266.34,477.902514 C1268.77492,477.902514 1270.74881,479.876286 1270.74881,482.311057 Z M1270.74881,464.676885 C1270.74881,467.111656 1268.77492,469.085428 1266.34,469.085428 C1263.90508,469.085428 1261.93119,467.111656 1261.93119,464.676885 C1261.93119,462.242114 1263.90508,460.268343 1266.34,460.268343 C1268.77492,460.268343 1270.74881,462.242114 1270.74881,464.676885 Z M1270.74881,447.042714 C1270.74881,449.477485 1268.77492,451.451257 1266.34,451.451257 C1263.90508,451.451257 1261.93119,449.477485 1261.93119,447.042714 C1261.93119,444.607943 1263.90508,442.634171 1266.34,442.634171 C1268.77492,442.634171 1270.74881,444.607943 1270.74881,447.042714 Z M1270.74881,429.408543 C1270.74881,431.843314 1268.77492,433.817086 1266.34,433.817086 C1263.90508,433.817086 1261.93119,431.843314 1261.93119,429.408543 C1261.93119,426.973772 1263.90508,425 1266.34,425 C1268.77492,425 1270.74881,426.973772 1270.74881,429.408543 Z M1288.38404,517.579399 C1288.38404,520.01417 1286.41015,521.987942 1283.97523,521.987942 C1281.54031,521.987942 1279.56642,520.01417 1279.56642,517.579399 C1279.56642,515.144628 1281.54031,513.170856 1283.97523,513.170856 C1286.41015,513.170856 1288.38404,515.144628 1288.38404,517.579399 Z M1288.38404,499.945228 C1288.38404,502.379999 1286.41015,504.353771 1283.97523,504.353771 C1281.54031,504.353771 1279.56642,502.379999 1279.56642,499.945228 C1279.56642,497.510457 1281.54031,495.536685 1283.97523,495.536685 C1286.41015,495.536685 1288.38404,497.510457 1288.38404,499.945228 Z M1288.38404,482.311057 C1288.38404,484.745828 1286.41015,486.719599 1283.97523,486.719599 C1281.54031,486.719599 1279.56642,484.745828 1279.56642,482.311057 C1279.56642,479.876286 1281.54031,477.902514 1283.97523,477.902514 C1286.41015,477.902514 1288.38404,479.876286 1288.38404,482.311057 Z M1288.38404,464.676885 C1288.38404,467.111656 1286.41015,469.085428 1283.97523,469.085428 C1281.54031,469.085428 1279.56642,467.111656 1279.56642,464.676885 C1279.56642,462.242114 1281.54031,460.268343 1283.97523,460.268343 C1286.41015,460.268343 1288.38404,462.242114 1288.38404,464.676885 Z M1288.38404,447.042714 C1288.38404,449.477485 1286.41015,451.451257 1283.97523,451.451257 C1281.54031,451.451257 1279.56642,449.477485 1279.56642,447.042714 C1279.56642,444.607943 1281.54031,442.634171 1283.97523,442.634171 C1286.41015,442.634171 1288.38404,444.607943 1288.38404,447.042714 Z M1288.38404,429.408543 C1288.38404,431.843314 1286.41015,433.817086 1283.97523,433.817086 C1281.54031,433.817086 1279.56642,431.843314 1279.56642,429.408543 C1279.56642,426.973772 1281.54031,425 1283.97523,425 C1286.41015,425 1288.38404,426.973772 1288.38404,429.408543 Z" id="Shape" fill="url(#linearGradient-2)"></path>
            <path d="M173.044068,861.653791 C173.044068,782.724414 173.044068,682.93652 173.044068,631.390277 C109.506984,631.390277 58,682.93652 58,746.522034 C58,810.107547 109.506984,861.653791 173.044068,861.653791 Z" id="Shape" fill="url(#linearGradient-3)" transform="translate(115.522034, 746.522034) rotate(-270.000000) translate(-115.522034, -746.522034) "></path>
            <path d="M867.312046,435.925666 C746.953684,435.925666 649.390277,338.33689 649.390277,217.962833 C649.390277,97.588776 746.953684,0 867.312046,0 C987.670408,0 1085.23381,97.588776 1085.23381,217.962833 C1085.23381,338.33689 987.670408,435.925666 867.312046,435.925666 Z M867.312046,315.925666 C921.389253,315.925666 965.233815,272.069703 965.233815,217.962833 C965.233815,163.855963 921.389253,120 867.312046,120 C813.234839,120 769.390277,163.855963 769.390277,217.962833 C769.390277,272.069703 813.234839,315.925666 867.312046,315.925666 Z" id="Shape" fill="url(#linearGradient-4)"></path>
        </g>
        <g id="Folder" transform="translate(63.000000, 119.000000)">
            <path d="M48.3639841,-1.70530257e-13 L641.930837,-1.70530257e-13 C652.623069,-1.72494388e-13 661.290837,8.66776724 661.290837,19.36 L661.290837,308.68408 L29.0039841,308.68408 L29.0039841,19.36 C29.0039841,8.66776724 37.6717513,-1.54355271e-13 48.3639841,-1.70530257e-13 Z" id="Shape" fill="url(#linearGradient-5)"></path>
            <path d="M67.6999734,19.3532338 L661.266826,19.3532338 C671.959059,19.3532338 680.626826,28.0210011 680.626826,38.7132338 L680.626826,328.037313 L48.3399734,328.037313 L48.3399734,38.7132338 C48.3399734,28.0210011 57.0077407,19.3532338 67.6999734,19.3532338 Z" id="Shape" fill="url(#linearGradient-6)"></path>
            <path d="M95.7131474,67.7363184 L313.243028,67.7363184 L313.243028,94.8308458 L95.7131474,94.8308458 L95.7131474,67.7363184 Z M95.7131474,124.828358 L632.286853,124.828358 L632.286853,151.922886 L95.7131474,151.922886 L95.7131474,124.828358 Z M95.7131474,181.920398 L632.286853,181.920398 L632.286853,209.014925 L95.7131474,209.014925 L95.7131474,181.920398 Z M95.7131474,239.9801 L632.286853,239.9801 L632.286853,267.074627 L95.7131474,267.074627 L95.7131474,239.9801 Z M95.7131474,297.072139 L632.286853,297.072139 L632.286853,324.166667 L95.7131474,324.166667 L95.7131474,297.072139 Z" id="Shape" fill="url(#linearGradient-7)"></path>
            <path d="M19.36,259.333333 L196.132621,259.333333 C201.268598,259.333333 206.194102,261.37414 209.825036,265.006575 L266.058901,321.263682 L708.64,321.263682 C719.332233,321.263682 728,329.931449 728,340.623682 L728,758.64 C728,769.332233 719.332233,778 708.64,778 L19.36,778 C8.66776724,778 1.55202756e-14,769.332233 1.42108547e-14,758.64 L3.55271368e-15,278.693333 C2.24329282e-15,268.001101 8.66776724,259.333333 19.36,259.333333 Z" id="Shape" fill="url(#linearGradient-8)"></path>
            <path d="M19.36,278.686567 L196.132621,278.686567 C201.268598,278.686567 206.194102,280.727374 209.825036,284.359809 L266.058901,340.616915 L708.64,340.616915 C719.332233,340.616915 728,349.284683 728,359.976915 L728,758.64 C728,769.332233 719.332233,778 708.64,778 L19.36,778 C8.66776724,778 7.23636944e-14,769.332233 7.10542736e-14,758.64 L1.13686838e-13,298.046567 C1.12377417e-13,287.354334 8.66776724,278.686567 19.36,278.686567 Z" id="Shape" fill="url(#linearGradient-9)"></path>
        </g>
        <g id="Pig" transform="translate(232.000000, 580.000000)">
            <path d="M406.060201,164.140029 L406.060201,132.119827 C428.071341,132.119827 445.914896,114.250066 445.914896,92.2065982 L445.914896,83.9578892 L477.88814,83.9578892 L477.88814,92.2065982 C477.88814,131.934335 445.729676,164.140029 406.060201,164.140029 Z" id="Shape" fill="#D64F53"></path>
            <path d="M188.64214,278.123376 L188.64214,317 L132.688963,317 L119.914431,258.790512 C77.3047134,239.15749 46.0134903,207.52942 34.8478691,170.36449 L2.55795385e-13,140.888889 L2.55795385e-13,99.2626263 L38.6142612,99.2626263 C45.0127802,83.8372896 54.9427871,69.5397634 67.7138529,56.8763344 L74.6455925,2.98995198 L117.819578,22.3654657 C147.663295,8.21467325 183.23077,0 221.414716,0 C326.923268,0 412.454849,62.7197058 412.454849,140.088384 C412.454849,183.650307 385.33981,222.568244 342.81089,248.261819 L327.725753,317 L271.772575,317 L271.772575,275.258646 C255.728812,278.465156 238.844348,280.176768 221.414716,280.176768 C210.240493,280.176768 199.290344,279.473269 188.64214,278.123376 L188.64214,278.123376 Z" id="Shape" fill="#D64F53"></path>
            <path d="M34.8478691,170.36449 L8.52651283e-14,140.888889 L8.52651283e-14,99.2626263 L38.6142612,99.2626263 C45.0127802,83.8372896 54.9427871,69.5397634 67.7138529,56.8763344 L74.6455925,2.98995198 L117.819578,22.3654657 C147.663295,8.21467325 183.23077,0 221.414716,0 C320.046193,0 401.220037,54.8099951 411.382869,125.159671 C402.495144,201.645799 298.715894,262 172,262 C153.815306,262 136.102978,260.757039 119.075678,258.401815 C76.8942279,238.741468 45.9400985,207.285134 34.8478691,170.36449 Z" id="Shape" fill="url(#linearGradient-10)"></path>
        </g>
        <g id="Money" transform="translate(374.000000, 435.000000)">
            <circle id="Shape" fill="url(#linearGradient-11)" cx="98" cy="98" r="98"></circle>
            <circle id="Shape" fill="#FFFFFF" cx="98" cy="98" r="79.6"></circle>
            <path d="M94.6915493,152 L94.6915493,137.759494 C74.9549296,136.392405 66.5126761,125.56962 65.6,111.21519 L82.484507,111.21519 C83.2830986,117.822785 85.6788732,123.177215 94.6915493,124.544304 L94.6915493,102.556962 C76.5521127,99.7088608 67.8816901,93.1012658 67.8816901,78.0632911 C67.8816901,64.9620253 78.3774648,55.278481 94.6915493,54.1392405 L94.6915493,44 L102.791549,44 L102.791549,54.2531646 C118.307042,55.6202532 127.661972,63.3670886 129.030986,78.0632911 L112.716901,78.0632911 C111.690141,72.1392405 108.838028,68.4936709 102.791549,67.3544304 L102.791549,87.7468354 C119.904225,90.3670886 130.4,96.0632911 130.4,111.898734 C130.4,125.56962 120.816901,136.506329 102.791549,137.759494 L102.791549,152 L94.6915493,152 Z M113.6,113.257143 C113.6,107.771429 111.217021,105.028571 102.4,103.2 L102.4,124 C109.310638,122.857143 113.6,118.857143 113.6,113.257143 Z M84.8,76.6295858 C84.8,81.8556213 86.7428571,84.695858 95.2,86.4 L95.2,67.2 C88.4571429,68.1088757 84.8,71.8579882 84.8,76.6295858 Z" id="Shape" fill="url(#linearGradient-12)"></path>
        </g>
        <g id="Arrow" transform="translate(621.000000, 156.000000)">
            <polygon id="Shape" fill="#EB5A54" points="594 216.122449 594 739.177226 396 739.177226 396 216.122449 333 216.122449 432.02281 -1.13686838e-13 486 -1.13686838e-13 684 216.122449"></polygon>
            <polygon id="Shape" fill="url(#linearGradient-13)" points="540 216.122449 540 739.177226 324 739.177226 324 216.122449 234 216.122449 432 -5.68434189e-14 630 216.122449"></polygon>
            <polygon id="Shape" fill="#1688DC" points="342 342.193878 342 739.177226 162 739.177226 162 342.193878 99 342.193878 198.02281 126.071429 252 126.071429 450 342.193878"></polygon>
            <polygon id="Shape" fill="url(#linearGradient-14)" points="288 342.193878 288 739.177226 108 739.177226 108 342.193878 2.55795385e-13 342.193878 198 126.071429 396 342.193878"></polygon>
        </g>
        <g id="Women" transform="translate(515.119659, 324.220642)">
            <path d="M289.23711,552.13971 C291.49941,548.1252 293.808903,544.714821 296.16559,541.908572 C299.700552,537.699081 300.953017,539.204581 302.06129,541.123715 C303.169564,543.042849 305.65709,547.351823 307.666486,550.832199 C309.675976,554.3126 308.818502,555.319636 302.442344,558.442947 C296.066187,561.566258 294.988641,561.432336 289.122869,566.13295 C283.257097,570.833563 270.159772,578.143823 264.7187,575.260065 C259.277867,572.376169 267.342877,565.245098 274.704314,559.552126 C279.611814,555.756778 284.456079,553.285973 289.23711,552.13971 Z" id="Shape" fill="#211D41"></path>
            <path d="M292.047637,523.779358 L302.804153,542.410191 L299.672676,546.325192 C293.981794,553.439982 285.629016,557.918191 276.553594,558.72012 L285.212824,550.87998 L275.186613,533.514074 L292.047637,523.779358 Z" id="Shape" fill="#F4B696"></path>
            <polygon id="Shape" fill="#211D41" points="275.616646 543.986109 203.791471 431.311181 223.1508 294.779358 249.480878 428.881578 302.002468 530.949533"></polygon>
            <path d="M193.266178,560.93488 C197.232642,558.589362 200.937911,556.790634 204.381986,555.538694 C209.548098,553.660649 209.880015,555.590683 209.880241,557.806839 C209.880467,560.022994 209.880241,564.998438 209.880241,569.01723 C209.88031,573.036091 208.634197,573.479472 201.550628,572.99626 C194.467058,572.513048 193.600837,571.858295 186.170622,572.99626 C178.740407,574.134225 163.742662,573.916433 160.472434,568.698489 C157.202483,563.480546 167.752522,561.337362 176.974199,560.087823 C183.121892,559.254705 188.552552,559.537057 193.266178,560.93488 Z" id="Shape" fill="#211D41"></path>
            <path d="M209.880341,537.779358 L209.880341,559.292391 L205.210902,561.117142 C196.725059,564.43329 187.252236,564.135144 178.991726,560.291924 L190.410908,557.831779 L190.410908,537.779358 L209.880341,537.779358 Z" id="Shape" fill="#F4B696"></path>
            <path d="M46.2816522,150.089906 L44.2570919,167.068845 C36.628526,165.442386 32.1685468,164.454964 30.8771543,164.106578 C22.8006846,161.927746 12.2989949,164.855777 4.84505947,157.207865 C-2.608876,149.559953 -0.956179152,132.516938 6.3536258,135.711902 C11.2268291,137.841879 16.5175308,139.273376 22.225731,140.006393 L21.9757654,134.299265 C27.7679552,134.985726 31.7622312,138.824272 33.9585933,145.814903 L46.2816522,150.089906 Z" id="Shape" fill="#F4B696"></path>
            <path d="M191.565092,92.123435 L187.880341,69.7793579 C176.805103,71.4496958 170.716246,68.1413583 169.613768,59.8543453 C168.511291,51.5673323 167.902608,46.5944595 167.787719,44.9357269 L161.659088,42.9549798 L169.613768,32.7031228 L173.862144,12.9262738 C184.003984,9.18772786 195.107526,13.0251231 207.172772,24.4384597 C225.27064,41.5584645 216.228583,80.3103548 213.826483,89.5952075 C212.225083,95.7851092 204.80462,96.6278518 191.565092,92.123435 Z" id="Shape" fill="#F4B696"></path>
            <path d="M215.880341,550.419949 L182.027023,550.419949 L138.888163,258.004221 L226.754048,257.575309 C228.820629,273.621536 228.481545,289.886303 225.747997,305.832459 L205.515571,423.858327 L215.880341,550.419949 Z" id="Shape" fill="url(#linearGradient-15)"></path>
            <path d="M138.888163,258.004221 L152.969504,148.279358 C192.071087,101.395271 214.14321,77.9532273 219.185874,77.9532273 C229.153868,81.5924192 233.262857,95.154909 231.512842,118.640697 C229.762826,142.126485 228.223814,188.672705 226.895806,258.279358 L138.888163,258.004221 Z" id="Shape" fill="url(#linearGradient-16)"></path>
            <path d="M215.372202,133.07659 L130.343589,178.184042 C126.922279,179.999037 123.006809,180.662134 119.178668,180.074856 L35.4764682,167.234034 L41.2090541,147.164361 L112.010375,148.138372 L155.750024,103.338765 C161.377578,97.5748356 168.392152,93.3540698 176.120534,91.0815477 L207.587134,81.8288289 L215.372202,133.07659 Z" id="Shape" fill="url(#linearGradient-17)"></path>
            <path d="M165.221365,10.4918475 C160.272945,18.9357933 166.889117,26.5144679 185.06988,33.227871 C212.341024,43.2979757 187.882778,49.3925767 199.795125,66.0949638 C211.707472,82.797351 184.133184,108.699686 205.515571,132.493594 C219.770495,148.3562 226.777008,157.854569 226.53511,160.988701 C237.776165,156.060629 244.310634,145.657514 246.138517,129.779358 C248.880341,105.962123 225.362843,81.7228667 228.665629,60.2999533 C231.968414,38.8770399 233.5515,18.450762 207.880341,5.44590871 C190.766235,-3.2239935 176.546577,-1.54201391 165.221365,10.4918475 Z" id="Shape" fill="url(#linearGradient-18)"></path>
            <path d="M197.24242,539.251958 L196.248337,539.360577 L195.488002,532.401993 L196.482085,532.293374 L197.24242,539.251958 Z M195.395892,522.35254 L194.401808,522.461159 L193.641473,515.502575 L194.635556,515.393956 L195.395892,522.35254 Z M193.549363,505.453122 L192.55528,505.561741 L191.794945,498.603157 L192.789028,498.494538 L193.549363,505.453122 Z M191.702835,488.553704 L190.708751,488.662323 L189.948416,481.703739 L190.942499,481.59512 L191.702835,488.553704 Z M189.856306,471.654286 L188.862223,471.762905 L188.101887,464.804321 L189.095971,464.695702 L189.856306,471.654286 Z M188.009778,454.754867 L187.015694,454.863487 L186.255359,447.904903 L187.249442,447.796284 L188.009778,454.754867 Z M186.163249,437.855449 L185.169166,437.964069 L184.40883,431.005485 L185.402914,430.896865 L186.163249,437.855449 Z M184.316721,420.956031 L183.322637,421.064651 L182.562302,414.106067 L183.556385,413.997447 L184.316721,420.956031 Z M183.474148,404.067652 L182.474211,404.056417 L182.552858,397.056859 L183.552795,397.068094 L183.474148,404.067652 Z M183.665149,387.068725 L182.665212,387.05749 L182.743859,380.057932 L183.743796,380.069167 L183.665149,387.068725 Z M183.85615,370.069798 L182.856213,370.058563 L182.93486,363.059005 L183.934797,363.07024 L183.85615,370.069798 Z M184.047151,353.070871 L183.047214,353.059636 L183.125861,346.060078 L184.125798,346.071313 L184.047151,353.070871 Z M184.238152,336.071944 L183.238215,336.060709 L183.316862,329.061151 L184.316799,329.072386 L184.238152,336.071944 Z M184.429153,319.073017 L183.429216,319.061782 L183.507863,312.062224 L184.5078,312.073459 L184.429153,319.073017 Z M184.620154,302.07409 L183.620217,302.062855 L183.698864,295.063297 L184.698801,295.074532 L184.620154,302.07409 Z M184.811155,285.075163 L183.811218,285.063928 L183.889865,278.06437 L184.889802,278.075605 L184.811155,285.075163 Z" id="Shape" fill="#A587FF" fill-rule="nonzero"></path>
        </g>
    </g>
</svg>