<?xml version="1.0" encoding="UTF-8"?>
<svg width="1440px" height="1024px" viewBox="0 0 1440 1024" version="1.1" xmlns="http://www.w3.org/2000/svg" xmlns:xlink="http://www.w3.org/1999/xlink">
    <!-- Generator: Sketch 53.2 (72643) - https://sketchapp.com -->
    <title>Time Management</title>
    <desc>Created with Sketch.</desc>
    <defs>
        <linearGradient x1="8.38174197%" y1="31.3864763%" x2="56.5702499%" y2="50%" id="linearGradient-1">
            <stop stop-color="#CFE49F" offset="0%"></stop>
            <stop stop-color="#A9D386" offset="100%"></stop>
        </linearGradient>
        <linearGradient x1="34.9800858%" y1="24.563533%" x2="66.6026215%" y2="80.4180658%" id="linearGradient-2">
            <stop stop-color="#6EAE7C" offset="0%"></stop>
            <stop stop-color="#0F575D" offset="100%"></stop>
        </linearGradient>
        <linearGradient x1="34.1151714%" y1="33.9683678%" x2="64.8333502%" y2="52.4070359%" id="linearGradient-3">
            <stop stop-color="#77D791" offset="0%"></stop>
            <stop stop-color="#4FA67E" offset="100%"></stop>
        </linearGradient>
        <linearGradient x1="8.38174197%" y1="13.1425432%" x2="56.5702499%" y2="50%" id="linearGradient-4">
            <stop stop-color="#CFE49F" offset="0%"></stop>
            <stop stop-color="#A9D386" offset="100%"></stop>
        </linearGradient>
        <linearGradient x1="50%" y1="-2.48949813e-15%" x2="50%" y2="100%" id="linearGradient-5">
            <stop stop-color="#4DBCFA" offset="0%"></stop>
            <stop stop-color="#1486DB" offset="100%"></stop>
        </linearGradient>
        <linearGradient x1="50%" y1="7.26438915%" x2="50%" y2="151.05781%" id="linearGradient-6">
            <stop stop-color="#D0F6FF" offset="0%"></stop>
            <stop stop-color="#8BE2F7" offset="100%"></stop>
        </linearGradient>
        <linearGradient x1="50%" y1="0%" x2="50%" y2="91.8482298%" id="linearGradient-7">
            <stop stop-color="#EAFCFF" offset="0%"></stop>
            <stop stop-color="#FFFFFF" offset="100%"></stop>
        </linearGradient>
        <linearGradient x1="50%" y1="7.26438915%" x2="50%" y2="151.05781%" id="linearGradient-8">
            <stop stop-color="#D0F6FF" offset="0%"></stop>
            <stop stop-color="#8BE2F7" offset="100%"></stop>
        </linearGradient>
        <linearGradient x1="50%" y1="0%" x2="50%" y2="100%" id="linearGradient-9">
            <stop stop-color="#FF9485" offset="0%"></stop>
            <stop stop-color="#FF676E" offset="100%"></stop>
        </linearGradient>
        <linearGradient x1="50%" y1="0%" x2="50%" y2="100%" id="linearGradient-10">
            <stop stop-color="#FF9485" offset="0%"></stop>
            <stop stop-color="#FF676E" offset="100%"></stop>
        </linearGradient>
        <linearGradient x1="50%" y1="0%" x2="50%" y2="100%" id="linearGradient-11">
            <stop stop-color="#FF9485" offset="0%"></stop>
            <stop stop-color="#FF676E" offset="100%"></stop>
        </linearGradient>
        <linearGradient x1="50%" y1="0%" x2="50%" y2="100%" id="linearGradient-12">
            <stop stop-color="#FF9485" offset="0%"></stop>
            <stop stop-color="#FF676E" offset="100%"></stop>
        </linearGradient>
        <linearGradient x1="50%" y1="0%" x2="50%" y2="100%" id="linearGradient-13">
            <stop stop-color="#1D2A78" offset="0%"></stop>
            <stop stop-color="#12033B" offset="100%"></stop>
        </linearGradient>
        <linearGradient x1="50%" y1="7.26438915%" x2="50%" y2="151.05781%" id="linearGradient-14">
            <stop stop-color="#D0F6FF" offset="0%"></stop>
            <stop stop-color="#8BE2F7" offset="100%"></stop>
        </linearGradient>
        <linearGradient x1="50%" y1="0%" x2="50%" y2="91.8482298%" id="linearGradient-15">
            <stop stop-color="#EAFCFF" offset="0%"></stop>
            <stop stop-color="#FFFFFF" offset="100%"></stop>
        </linearGradient>
        <linearGradient x1="50%" y1="0%" x2="50%" y2="100%" id="linearGradient-16">
            <stop stop-color="#FF9485" offset="0%"></stop>
            <stop stop-color="#FF676E" offset="100%"></stop>
        </linearGradient>
        <linearGradient x1="50%" y1="0%" x2="57.1499188%" y2="89.3678428%" id="linearGradient-17">
            <stop stop-color="#0F1752" offset="0%"></stop>
            <stop stop-color="#272884" offset="100%"></stop>
        </linearGradient>
        <linearGradient x1="50%" y1="43.590916%" x2="100%" y2="55.0462362%" id="linearGradient-18">
            <stop stop-color="#0F1752" offset="0%"></stop>
            <stop stop-color="#272884" offset="100%"></stop>
        </linearGradient>
        <linearGradient x1="50%" y1="114.0151%" x2="50.9350565%" y2="25.9019529%" id="linearGradient-19">
            <stop stop-color="#2B3389" offset="0%"></stop>
            <stop stop-color="#444FB7" offset="100%"></stop>
        </linearGradient>
        <linearGradient x1="50%" y1="-2.48949813e-15%" x2="50%" y2="100%" id="linearGradient-20">
            <stop stop-color="#4DBCFA" offset="0%"></stop>
            <stop stop-color="#1486DB" offset="100%"></stop>
        </linearGradient>
        <linearGradient x1="50%" y1="0%" x2="100%" y2="89.3678428%" id="linearGradient-21">
            <stop stop-color="#0F1752" offset="0%"></stop>
            <stop stop-color="#272884" offset="100%"></stop>
        </linearGradient>
        <linearGradient x1="50%" y1="-27.3641552%" x2="50%" y2="100%" id="linearGradient-22">
            <stop stop-color="#C0E4FD" offset="0%"></stop>
            <stop stop-color="#72B9FE" offset="100%"></stop>
        </linearGradient>
        <linearGradient x1="82.5767258%" y1="-52.951376%" x2="82.5767258%" y2="186.664812%" id="linearGradient-23">
            <stop stop-color="#1533B6" offset="0%"></stop>
            <stop stop-color="#356BE9" offset="100%"></stop>
        </linearGradient>
        <linearGradient x1="50%" y1="0%" x2="50%" y2="100%" id="linearGradient-24">
            <stop stop-color="#1D2A78" offset="0%"></stop>
            <stop stop-color="#12033B" offset="100%"></stop>
        </linearGradient>
        <linearGradient x1="50%" y1="-2.48949813e-15%" x2="50%" y2="100%" id="linearGradient-25">
            <stop stop-color="#4DBCFA" offset="0%"></stop>
            <stop stop-color="#1486DB" offset="100%"></stop>
        </linearGradient>
        <linearGradient x1="50%" y1="-27.3641552%" x2="50%" y2="100%" id="linearGradient-26">
            <stop stop-color="#C0E4FD" offset="0%"></stop>
            <stop stop-color="#72B9FE" offset="100%"></stop>
        </linearGradient>
        <linearGradient x1="50%" y1="-27.3641552%" x2="50%" y2="100%" id="linearGradient-27">
            <stop stop-color="#C0E4FD" offset="0%"></stop>
            <stop stop-color="#72B9FE" offset="100%"></stop>
        </linearGradient>
    </defs>
    <g id="Time-Management" stroke="none" stroke-width="1" fill="none" fill-rule="evenodd">
        <rect fill="#FFFFFF" x="0" y="0" width="1440" height="1024"></rect>
        <g id="Ornament" transform="translate(276.000000, 176.648649)">
            <path d="M934.153791,820.505142 C934.153791,718.266828 934.153791,589.01019 934.153791,522.241628 C851.28674,522.241628 784.109723,589.01019 784.109723,671.373385 C784.109723,753.73658 851.28674,820.505142 934.153791,820.505142 Z" id="Shape" fill="#66D4FF" transform="translate(859.131757, 671.373385) rotate(-270.000000) translate(-859.131757, -671.373385) "></path>
            <g id="Plant" transform="translate(785.000000, 481.351351)">
                <path d="M39.4981201,164.85314 C63.4566962,71.748516 121.682551,39.0261602 214.175686,66.686073 C206.306031,108.785983 187.576224,141.226961 157.986264,164.009006 C128.396305,186.791051 88.9002567,187.07243 39.4981201,164.85314 Z" id="Shape" fill="url(#linearGradient-1)"></path>
                <path d="M110.90666,123.31975 L114.182626,91.2147532 C114.317975,89.8883075 116.307644,90.0913315 116.172294,91.4177773 L113.04009,122.113892 C137.314607,108.396862 167.641093,91.3752098 204.021245,71.0479371 C204.503374,70.7785492 205.112599,70.9510101 205.381987,71.4331393 C205.651375,71.9152686 205.478914,72.5244936 204.996785,72.7938815 C185.072124,83.9267104 166.963277,94.0680217 150.670521,103.217651 L178.847155,109.94056 C179.38436,110.068737 179.715944,110.608135 179.587767,111.14534 C179.459591,111.682545 178.920192,112.014128 178.382987,111.885952 L148.101203,104.660756 C135.046861,111.994186 123.186404,118.675692 112.519979,124.705186 C112.425529,124.787184 112.316344,124.847239 112.199917,124.886116 C100.139932,131.70388 89.6132281,137.684383 80.6200223,142.827497 L106.833213,152.40034 C107.351987,152.589792 107.618955,153.163922 107.429503,153.682696 C107.240051,154.20147 106.66592,154.468438 106.147147,154.278986 L78.4735497,144.172815 C78.4334076,144.158155 78.3947731,144.141192 78.3577411,144.12213 C64.2878892,152.17938 54.1992515,158.062628 48.0927331,161.771343 C47.6206877,162.058034 47.0056105,161.907774 46.7189198,161.435729 C46.4322291,160.963683 46.5824889,160.348606 47.0545343,160.061915 C57.2599898,153.863764 78.5426306,141.617201 110.90666,123.31975 Z" id="Shape" fill="#FFFFFF" fill-rule="nonzero"></path>
                <path d="M50.2925002,192.93029 C1.39886056,110.154107 19.4325579,45.8440106 104.393592,5.68434189e-14 C128.598038,35.3338181 138.293299,71.5170271 133.479377,108.549627 C128.665455,145.582227 100.936496,173.709114 50.2925002,192.93029 Z" id="Shape" fill="url(#linearGradient-2)"></path>
                <path d="M71.4174312,113.068298 L51.0322176,88.0501669 C50.1899853,87.0165217 51.7404532,85.7531732 52.5826855,86.7868184 L72.0733233,110.707065 C79.5385941,83.8429829 88.9465331,50.3627908 100.297634,10.2645827 C100.448065,9.73317982 101.0008,9.42434098 101.532203,9.57477183 C102.063606,9.72520267 102.372445,10.2779381 102.222014,10.809341 C96.0052518,32.7702963 90.3713544,52.7461701 85.3204025,70.7366492 L109.99809,55.5665848 C110.468586,55.2773579 111.084463,55.4243053 111.37369,55.8948011 C111.662917,56.3652968 111.515969,56.9811737 111.045474,57.2704006 L84.5240498,73.5738611 C80.4787456,87.9902222 76.8166666,101.101395 73.537856,112.907212 C73.5290457,113.031934 73.4943191,113.151562 73.4395101,113.261343 C69.7326936,126.609949 66.518039,138.282324 63.7956093,148.278225 L89.1001411,136.51173 C89.6009325,136.278864 90.1956791,136.496061 90.4285449,136.996852 C90.6614106,137.497643 90.444214,138.09239 89.9434227,138.325256 L63.2290923,150.747301 C63.1903464,150.765318 63.151038,150.78064 63.1113783,150.793346 C58.8598251,166.439575 55.8861651,177.733407 54.1906615,184.673826 C54.0595959,185.210334 53.518421,185.539009 52.9819135,185.407944 C52.4454061,185.276878 52.1167305,184.735703 52.2477961,184.199196 C55.0813881,172.600095 61.4708588,148.89137 71.4174312,113.068298 L71.4174312,113.068298 Z" id="Shape" fill="#FFFFFF" fill-rule="nonzero"></path>
                <path d="M-2.27373675e-13,227.324394 C47.2394574,143.593169 111.950484,127.05576 194.133079,177.712169 C175.635317,216.340743 149.14737,242.82869 114.669237,257.176011 C80.1911033,271.523332 41.9680244,261.572793 -2.27373675e-13,227.324394 Z" id="Shape" fill="url(#linearGradient-3)" fill-rule="nonzero"></path>
                <path d="M79.7249871,205.688105 L91.1987099,175.524946 C91.6727567,174.278729 93.5420825,174.9898 93.0680357,176.236017 L82.097821,205.075508 C109.095432,198.108582 142.794094,189.516001 183.195706,179.29724 C183.731129,179.161816 184.274959,179.486079 184.410384,180.021503 C184.545808,180.556927 184.221545,181.100757 183.686121,181.236181 C161.558988,186.832787 141.442419,191.941627 123.336727,196.562615 L148.813254,210.349099 C149.298979,210.611947 149.479657,211.218786 149.21681,211.704511 C148.953962,212.190237 148.347123,212.370915 147.861397,212.108067 L120.481453,197.291559 C105.973905,200.996393 92.78829,204.380518 80.9247726,207.443887 C80.8123068,207.498654 80.6912845,207.528407 80.5687493,207.535824 C67.1551379,210.999923 55.4392605,214.052132 45.4213591,216.692384 L68.2637271,232.723517 C68.7157905,233.040782 68.825066,233.664446 68.5078008,234.116509 C68.1905357,234.568573 67.5668717,234.677848 67.1148084,234.360583 L42.9998362,217.436317 C42.9648547,217.411766 42.9319258,217.385381 42.9010882,217.357383 C27.2252857,221.498542 15.9577136,224.570192 9.09938382,226.572052 C8.56922192,226.7268 8.01399309,226.422467 7.85924551,225.892305 C7.70449794,225.362143 8.00883137,224.806914 8.53899326,224.652166 C20.0009063,221.306578 43.728004,214.985659 79.7249871,205.688105 Z" id="Shape" fill="#FFFFFF" fill-rule="nonzero"></path>
            </g>
            <path d="M411.817615,92.9307505 C411.817615,95.3655215 409.843724,97.3392933 407.408807,97.3392933 C404.97389,97.3392933 403,95.3655215 403,92.9307505 C403,90.4959796 404.97389,88.5222077 407.408807,88.5222077 C409.843724,88.5222077 411.817615,90.4959796 411.817615,92.9307505 Z M411.817615,75.2965793 C411.817615,77.7313502 409.843724,79.7051221 407.408807,79.7051221 C404.97389,79.7051221 403,77.7313502 403,75.2965793 C403,72.8618083 404.97389,70.8880364 407.408807,70.8880364 C409.843724,70.8880364 411.817615,72.8618083 411.817615,75.2965793 Z M411.817615,57.662408 C411.817615,60.097179 409.843724,62.0709508 407.408807,62.0709508 C404.97389,62.0709508 403,60.097179 403,57.662408 C403,55.227637 404.97389,53.2538652 407.408807,53.2538652 C409.843724,53.2538652 411.817615,55.227637 411.817615,57.662408 Z M411.817615,40.0282367 C411.817615,42.4630077 409.843724,44.4367795 407.408807,44.4367795 C404.97389,44.4367795 403,42.4630077 403,40.0282367 C403,37.5934657 404.97389,35.6196939 407.408807,35.6196939 C409.843724,35.6196939 411.817615,37.5934657 411.817615,40.0282367 Z M411.817615,22.3940654 C411.817615,24.8288364 409.843724,26.8026083 407.408807,26.8026083 C404.97389,26.8026083 403,24.8288364 403,22.3940654 C403,19.9592945 404.97389,17.9855226 407.408807,17.9855226 C409.843724,17.9855226 411.817615,19.9592945 411.817615,22.3940654 Z M411.817615,4.75989417 C411.817615,7.19466514 409.843724,9.16843699 407.408807,9.16843699 C404.97389,9.16843699 403,7.19466514 403,4.75989417 C403,2.3251232 404.97389,0.351351351 407.408807,0.351351351 C409.843724,0.351351351 411.817615,2.3251232 411.817615,4.75989417 Z M429.452844,92.9307505 C429.452844,95.3655215 427.478954,97.3392933 425.044037,97.3392933 C422.609119,97.3392933 420.635229,95.3655215 420.635229,92.9307505 C420.635229,90.4959796 422.609119,88.5222077 425.044037,88.5222077 C427.478954,88.5222077 429.452844,90.4959796 429.452844,92.9307505 Z M429.452844,75.2965793 C429.452844,77.7313502 427.478954,79.7051221 425.044037,79.7051221 C422.609119,79.7051221 420.635229,77.7313502 420.635229,75.2965793 C420.635229,72.8618083 422.609119,70.8880364 425.044037,70.8880364 C427.478954,70.8880364 429.452844,72.8618083 429.452844,75.2965793 Z M429.452844,57.662408 C429.452844,60.097179 427.478954,62.0709508 425.044037,62.0709508 C422.609119,62.0709508 420.635229,60.097179 420.635229,57.662408 C420.635229,55.227637 422.609119,53.2538652 425.044037,53.2538652 C427.478954,53.2538652 429.452844,55.227637 429.452844,57.662408 Z M429.452844,40.0282367 C429.452844,42.4630077 427.478954,44.4367795 425.044037,44.4367795 C422.609119,44.4367795 420.635229,42.4630077 420.635229,40.0282367 C420.635229,37.5934657 422.609119,35.6196939 425.044037,35.6196939 C427.478954,35.6196939 429.452844,37.5934657 429.452844,40.0282367 Z M429.452844,22.3940654 C429.452844,24.8288364 427.478954,26.8026083 425.044037,26.8026083 C422.609119,26.8026083 420.635229,24.8288364 420.635229,22.3940654 C420.635229,19.9592945 422.609119,17.9855226 425.044037,17.9855226 C427.478954,17.9855226 429.452844,19.9592945 429.452844,22.3940654 Z M429.452844,4.75989417 C429.452844,7.19466514 427.478954,9.16843699 425.044037,9.16843699 C422.609119,9.16843699 420.635229,7.19466514 420.635229,4.75989417 C420.635229,2.3251232 422.609119,0.351351351 425.044037,0.351351351 C427.478954,0.351351351 429.452844,2.3251232 429.452844,4.75989417 Z M447.088073,92.9307505 C447.088073,95.3655215 445.114183,97.3392933 442.679266,97.3392933 C440.244349,97.3392933 438.270458,95.3655215 438.270458,92.9307505 C438.270458,90.4959796 440.244349,88.5222077 442.679266,88.5222077 C445.114183,88.5222077 447.088073,90.4959796 447.088073,92.9307505 Z M447.088073,75.2965793 C447.088073,77.7313502 445.114183,79.7051221 442.679266,79.7051221 C440.244349,79.7051221 438.270458,77.7313502 438.270458,75.2965793 C438.270458,72.8618083 440.244349,70.8880364 442.679266,70.8880364 C445.114183,70.8880364 447.088073,72.8618083 447.088073,75.2965793 Z M447.088073,57.662408 C447.088073,60.097179 445.114183,62.0709508 442.679266,62.0709508 C440.244349,62.0709508 438.270458,60.097179 438.270458,57.662408 C438.270458,55.227637 440.244349,53.2538652 442.679266,53.2538652 C445.114183,53.2538652 447.088073,55.227637 447.088073,57.662408 Z M447.088073,40.0282367 C447.088073,42.4630077 445.114183,44.4367795 442.679266,44.4367795 C440.244349,44.4367795 438.270458,42.4630077 438.270458,40.0282367 C438.270458,37.5934657 440.244349,35.6196939 442.679266,35.6196939 C445.114183,35.6196939 447.088073,37.5934657 447.088073,40.0282367 Z M447.088073,22.3940654 C447.088073,24.8288364 445.114183,26.8026083 442.679266,26.8026083 C440.244349,26.8026083 438.270458,24.8288364 438.270458,22.3940654 C438.270458,19.9592945 440.244349,17.9855226 442.679266,17.9855226 C445.114183,17.9855226 447.088073,19.9592945 447.088073,22.3940654 Z M447.088073,4.75989417 C447.088073,7.19466514 445.114183,9.16843699 442.679266,9.16843699 C440.244349,9.16843699 438.270458,7.19466514 438.270458,4.75989417 C438.270458,2.3251232 440.244349,0.351351351 442.679266,0.351351351 C445.114183,0.351351351 447.088073,2.3251232 447.088073,4.75989417 Z M464.723302,92.9307505 C464.723302,95.3655215 462.749412,97.3392933 460.314495,97.3392933 C457.879578,97.3392933 455.905688,95.3655215 455.905688,92.9307505 C455.905688,90.4959796 457.879578,88.5222077 460.314495,88.5222077 C462.749412,88.5222077 464.723302,90.4959796 464.723302,92.9307505 Z M464.723302,75.2965793 C464.723302,77.7313502 462.749412,79.7051221 460.314495,79.7051221 C457.879578,79.7051221 455.905688,77.7313502 455.905688,75.2965793 C455.905688,72.8618083 457.879578,70.8880364 460.314495,70.8880364 C462.749412,70.8880364 464.723302,72.8618083 464.723302,75.2965793 Z M464.723302,57.662408 C464.723302,60.097179 462.749412,62.0709508 460.314495,62.0709508 C457.879578,62.0709508 455.905688,60.097179 455.905688,57.662408 C455.905688,55.227637 457.879578,53.2538652 460.314495,53.2538652 C462.749412,53.2538652 464.723302,55.227637 464.723302,57.662408 Z M464.723302,40.0282367 C464.723302,42.4630077 462.749412,44.4367795 460.314495,44.4367795 C457.879578,44.4367795 455.905688,42.4630077 455.905688,40.0282367 C455.905688,37.5934657 457.879578,35.6196939 460.314495,35.6196939 C462.749412,35.6196939 464.723302,37.5934657 464.723302,40.0282367 Z M464.723302,22.3940654 C464.723302,24.8288364 462.749412,26.8026083 460.314495,26.8026083 C457.879578,26.8026083 455.905688,24.8288364 455.905688,22.3940654 C455.905688,19.9592945 457.879578,17.9855226 460.314495,17.9855226 C462.749412,17.9855226 464.723302,19.9592945 464.723302,22.3940654 Z M464.723302,4.75989417 C464.723302,7.19466514 462.749412,9.16843699 460.314495,9.16843699 C457.879578,9.16843699 455.905688,7.19466514 455.905688,4.75989417 C455.905688,2.3251232 457.879578,0.351351351 460.314495,0.351351351 C462.749412,0.351351351 464.723302,2.3251232 464.723302,4.75989417 Z M482.358531,92.9307505 C482.358531,95.3655215 480.384641,97.3392933 477.949724,97.3392933 C475.514807,97.3392933 473.540917,95.3655215 473.540917,92.9307505 C473.540917,90.4959796 475.514807,88.5222077 477.949724,88.5222077 C480.384641,88.5222077 482.358531,90.4959796 482.358531,92.9307505 Z M482.358531,75.2965793 C482.358531,77.7313502 480.384641,79.7051221 477.949724,79.7051221 C475.514807,79.7051221 473.540917,77.7313502 473.540917,75.2965793 C473.540917,72.8618083 475.514807,70.8880364 477.949724,70.8880364 C480.384641,70.8880364 482.358531,72.8618083 482.358531,75.2965793 Z M482.358531,57.662408 C482.358531,60.097179 480.384641,62.0709508 477.949724,62.0709508 C475.514807,62.0709508 473.540917,60.097179 473.540917,57.662408 C473.540917,55.227637 475.514807,53.2538652 477.949724,53.2538652 C480.384641,53.2538652 482.358531,55.227637 482.358531,57.662408 Z M482.358531,40.0282367 C482.358531,42.4630077 480.384641,44.4367795 477.949724,44.4367795 C475.514807,44.4367795 473.540917,42.4630077 473.540917,40.0282367 C473.540917,37.5934657 475.514807,35.6196939 477.949724,35.6196939 C480.384641,35.6196939 482.358531,37.5934657 482.358531,40.0282367 Z M482.358531,22.3940654 C482.358531,24.8288364 480.384641,26.8026083 477.949724,26.8026083 C475.514807,26.8026083 473.540917,24.8288364 473.540917,22.3940654 C473.540917,19.9592945 475.514807,17.9855226 477.949724,17.9855226 C480.384641,17.9855226 482.358531,19.9592945 482.358531,22.3940654 Z M482.358531,4.75989417 C482.358531,7.19466514 480.384641,9.16843699 477.949724,9.16843699 C475.514807,9.16843699 473.540917,7.19466514 473.540917,4.75989417 C473.540917,2.3251232 475.514807,0.351351351 477.949724,0.351351351 C480.384641,0.351351351 482.358531,2.3251232 482.358531,4.75989417 Z M499.993761,92.9307505 C499.993761,95.3655215 498.01987,97.3392933 495.584953,97.3392933 C493.150036,97.3392933 491.176146,95.3655215 491.176146,92.9307505 C491.176146,90.4959796 493.150036,88.5222077 495.584953,88.5222077 C498.01987,88.5222077 499.993761,90.4959796 499.993761,92.9307505 Z M499.993761,75.2965793 C499.993761,77.7313502 498.01987,79.7051221 495.584953,79.7051221 C493.150036,79.7051221 491.176146,77.7313502 491.176146,75.2965793 C491.176146,72.8618083 493.150036,70.8880364 495.584953,70.8880364 C498.01987,70.8880364 499.993761,72.8618083 499.993761,75.2965793 Z M499.993761,57.662408 C499.993761,60.097179 498.01987,62.0709508 495.584953,62.0709508 C493.150036,62.0709508 491.176146,60.097179 491.176146,57.662408 C491.176146,55.227637 493.150036,53.2538652 495.584953,53.2538652 C498.01987,53.2538652 499.993761,55.227637 499.993761,57.662408 Z M499.993761,40.0282367 C499.993761,42.4630077 498.01987,44.4367795 495.584953,44.4367795 C493.150036,44.4367795 491.176146,42.4630077 491.176146,40.0282367 C491.176146,37.5934657 493.150036,35.6196939 495.584953,35.6196939 C498.01987,35.6196939 499.993761,37.5934657 499.993761,40.0282367 Z M499.993761,22.3940654 C499.993761,24.8288364 498.01987,26.8026083 495.584953,26.8026083 C493.150036,26.8026083 491.176146,24.8288364 491.176146,22.3940654 C491.176146,19.9592945 493.150036,17.9855226 495.584953,17.9855226 C498.01987,17.9855226 499.993761,19.9592945 499.993761,22.3940654 Z M499.993761,4.75989417 C499.993761,7.19466514 498.01987,9.16843699 495.584953,9.16843699 C493.150036,9.16843699 491.176146,7.19466514 491.176146,4.75989417 C491.176146,2.3251232 493.150036,0.351351351 495.584953,0.351351351 C498.01987,0.351351351 499.993761,2.3251232 499.993761,4.75989417 Z" id="Shape" fill="url(#linearGradient-4)"></path>
            <path d="M558.351351,411.702703 C558.351351,254.469288 558.351351,55.6840977 558.351351,-47 C431.325859,-47 328.351351,55.6840977 328.351351,182.351351 C328.351351,309.018605 431.325859,411.702703 558.351351,411.702703 Z" id="Shape" fill="url(#linearGradient-5)" transform="translate(443.351351, 182.351351) rotate(-270.000000) translate(-443.351351, -182.351351) "></path>
            <path d="M0,746.351351 C0,709.900558 29.5492065,680.351351 66,680.351351 L779,680.351351 C779,716.802145 749.450793,746.351351 713,746.351351 L0,746.351351 Z" id="Shape" fill="url(#linearGradient-6)"></path>
        </g>
        <g id="Note" transform="translate(716.000000, 405.000000)">
            <path d="M16,-5.68434189e-14 L403,-5.68434189e-14 C411.836556,-8.98604212e-14 419,7.163444 419,16 L419,501.541376 C419,510.377932 411.836556,517.541376 403,517.541376 L16,517.541376 C7.163444,517.541376 3.70564389e-13,510.377932 3.69482223e-13,501.541376 L3.69482223e-13,16 C3.68400057e-13,7.163444 7.163444,-5.52201699e-14 16,-5.68434189e-14 Z" id="Shape" fill="url(#linearGradient-7)"></path>
            <path d="M39.1812977,40.0309119 L187.110687,40.0309119 L187.110687,62.4482226 L39.1812977,62.4482226 L39.1812977,40.0309119 Z M39.1812977,95.2735703 L379.019084,95.2735703 L379.019084,117.690881 L39.1812977,117.690881 L39.1812977,95.2735703 Z M39.1812977,142.510046 L323.045802,142.510046 L323.045802,164.927357 L39.1812977,164.927357 L39.1812977,142.510046 Z M39.1812977,190.547141 L379.019084,190.547141 L379.019084,212.964451 L39.1812977,212.964451 L39.1812977,190.547141 Z M39.1812977,237.783617 L251.080153,237.783617 L251.080153,260.200927 L39.1812977,260.200927 L39.1812977,237.783617 Z M39.1812977,285.020093 L379.019084,285.020093 L379.019084,307.437403 L39.1812977,307.437403 L39.1812977,285.020093 Z M39.1812977,332.256569 L355.030534,332.256569 L355.030534,354.673879 L39.1812977,354.673879 L39.1812977,332.256569 Z M39.1812977,379.493045 L379.019084,379.493045 L379.019084,401.910355 L39.1812977,401.910355 L39.1812977,379.493045 Z M39.1812977,426.729521 L323.045802,426.729521 L323.045802,449.146832 L39.1812977,449.146832 L39.1812977,426.729521 Z" id="Shape" fill="url(#linearGradient-8)"></path>
        </g>
        <g id="Women" transform="translate(827.293450, 103.122206)">
            <polygon id="Shape" fill="#F4B696" points="262.069043 428.04887 258.828046 403.753202 279.667804 402.482146 283.14056 428.04887"></polygon>
            <path d="M259.954799,424.398062 L282.616058,422.813432 L297.306174,426.601241 C304.718833,428.657453 310.884321,429.277091 311.44552,437.302607 C311.589683,439.364238 310.340552,441.131039 308.655509,441.248869 L266.152672,444.220957 C263.508163,444.405879 261.214455,442.41199 261.029533,439.76748 C260.775701,436.137506 260.521868,432.507531 260.268036,428.877557 L259.954799,424.398062 Z" id="Shape" fill="#211D41"></path>
            <path d="M243.393927,349.805755 L224.822394,290.487171 L58.6696277,247.649863 L138.01513,221.580848 L254.546919,239.449458 C267.118863,241.377199 276.640675,251.817537 277.405762,264.513387 L286.390592,413.607762 L257.182568,416.643552 L243.393927,349.805755 Z" id="Shape" fill="#211D41"></path>
            <path d="M193.234215,231.112269 L128.621099,249.306908 L84.9782982,182.793097 L73.7065502,79.0860848 C106.125622,85.7205946 126.653529,128.588631 135.29027,207.690194 L193.234215,231.112269 Z" id="Shape" fill="#211D41"></path>
            <polygon id="Shape" fill="#F4B696" points="224.262903 449.04887 220.828046 424.753202 242.21056 423.479308 245.045103 449.04887"></polygon>
            <path d="M247.48712,432.26331 L219.566248,435.273156 L205.073542,302.717722 L64.3337803,302.717722 C41.5521321,297.845685 27.4998359,280.301066 22.1768919,250.083866 C14.1924758,204.758065 -16.4516551,84.1202381 55.3406974,78.1036073 C127.13305,72.0869765 122.053154,157.285245 122.053154,186.375327 C122.053154,205.768714 122.053154,223.387791 122.053154,239.232557 L225.583978,258.493861 C236.047747,260.440584 243.716114,269.45283 243.962568,280.093293 L247.48712,432.26331 Z" id="Shape" fill="url(#linearGradient-9)"></path>
            <path d="M248.649914,432.860241 L219.566248,435.273156 L205.073542,302.717722 L64.3337803,302.717722 C41.5521321,297.845685 27.4998359,280.301066 22.1768919,250.083866 C57.0316705,247.207541 92.3967213,243.590438 128.272044,239.232557 L225.915485,258.378635 C236.224238,260.399991 243.762305,269.285808 244.076056,279.78618 L248.649914,432.860241 Z" id="Shape" fill="#312C74"></path>
            <path d="M233.344104,425.451618 L232.84183,418.469661 L233.839252,418.397908 L234.341527,425.379864 L233.344104,425.451618 Z M232.124294,408.495437 L231.62202,401.51348 L232.619442,401.441727 L233.121717,408.423684 L232.124294,408.495437 Z M230.904484,391.539256 L230.40221,384.5573 L231.399632,384.485546 L231.901907,391.467503 L230.904484,391.539256 Z M229.684674,374.583076 L229.1824,367.601119 L230.179822,367.529365 L230.682097,374.511322 L229.684674,374.583076 Z M228.464864,357.626895 L227.96259,350.644938 L228.960012,350.573185 L229.462287,357.555142 L228.464864,357.626895 Z M227.245054,340.670714 L226.74278,333.688758 L227.740202,333.617004 L228.242477,340.598961 L227.245054,340.670714 Z M226.025244,323.714534 L225.52297,316.732577 L226.520392,316.660823 L227.022667,323.64278 L226.025244,323.714534 Z M224.805434,306.758353 L224.30316,299.776396 L225.300582,299.704643 L225.802857,306.686599 L224.805434,306.758353 Z M223.585624,289.802172 L223.514789,288.817507 C223.375302,286.878547 222.588044,285.082065 221.297038,283.677584 L222.03326,283.000844 C223.475906,284.570293 224.356371,286.579469 224.512211,288.745753 L224.583047,289.730419 L223.585624,289.802172 Z M212.437184,280.927412 L205.437184,280.927412 L205.437184,279.927412 L212.437184,279.927412 L212.437184,280.927412 Z M195.437184,280.927412 L188.437184,280.927412 L188.437184,279.927412 L195.437184,279.927412 L195.437184,280.927412 Z M178.437184,280.927412 L171.437184,280.927412 L171.437184,279.927412 L178.437184,279.927412 L178.437184,280.927412 Z M161.437184,280.927412 L154.437184,280.927412 L154.437184,279.927412 L161.437184,279.927412 L161.437184,280.927412 Z M144.437184,280.927412 L137.437184,280.927412 L137.437184,279.927412 L144.437184,279.927412 L144.437184,280.927412 Z M127.437184,280.927412 L120.437184,280.927412 L120.437184,279.927412 L127.437184,279.927412 L127.437184,280.927412 Z M110.431751,280.92613 C108.054236,280.907286 105.694972,280.680628 103.3759,280.251405 L103.557893,279.268106 C105.819641,279.686718 108.120663,279.907781 110.439677,279.926162 L110.431751,280.92613 Z M93.7313911,277.176905 C91.5835324,276.181304 89.5269404,274.999284 87.5858018,273.645401 L88.15787,272.825195 C90.0511686,274.145711 92.0570636,275.298593 94.1519395,276.269634 L93.7313911,277.176905 Z M80.0713965,266.86433 C78.5284521,265.07421 77.1433711,263.149966 75.9328506,261.110842 L76.7927441,260.600369 C77.9733006,262.589018 79.3240913,264.465624 80.8288614,266.211454 L80.0713965,266.86433 Z M71.7494036,251.837411 L71.3950597,250.917527 L72.3282209,250.558069 L72.6825648,251.477953 L71.7494036,251.837411 Z" id="Shape" fill="#A587FF" fill-rule="nonzero"></path>
            <path d="M221.954799,445.398062 L244.616058,443.813432 L259.306174,447.601241 C266.718833,449.657453 272.884321,450.277091 273.44552,458.302607 C273.589683,460.364238 272.340552,462.131039 270.655509,462.248869 L228.152672,465.220957 C225.508163,465.405879 223.214455,463.41199 223.029533,460.76748 C222.775701,457.137506 222.521868,453.507531 222.268036,449.877557 L221.954799,445.398062 Z" id="Shape" fill="#211D41"></path>
            <polygon id="Shape" fill="#211D41" points="130.683462 227.570727 30.6585583 212.996791 18.627433 182.266911 47.7314914 122.584952 47.7314914 197.876751"></polygon>
            <polygon id="Shape" fill="url(#linearGradient-10)" points="182.825231 260.796768 96.1894717 260.796768 96.1894717 254.872818 182.825231 243.070305 199.21779 238.177954 245.1786 238.177954 245.1786 250.370331 243.937951 256.051061"></polygon>
            <polygon id="Shape" fill="#FFFFFF" points="156.818581 238.177954 245.1786 238.177954 245.1786 250.370331 184.836985 254.872818 96.1894717 254.872818"></polygon>
            <path d="M146.851569,246.394788 C146.702951,247.237645 148.052113,248.404709 150.717094,250.548474 C156.304881,255.043406 150.34044,254.347427 144.993793,250.834536 C139.647146,247.321646 139.048003,245.386018 124.732359,243.363637 C110.416715,241.341255 81.6942164,240.200323 60.4711591,238.079202 C46.3224542,236.665121 30.8815677,229.364748 6.63036276,222.575698 L6.63036276,165.925774 L40.0516551,169.169 L33.5836746,203.18182 C74.1414251,215.534627 102.405431,223.119024 118.375692,225.935012 C134.345953,228.751 145.831079,230.776137 152.831072,232.010425 C157.821264,234.553709 162.344841,239.042153 166.401804,245.475758 C167.409961,247.478116 166.866433,248.145421 164.77122,247.477675 C161.6284,246.476055 158.029726,239.58993 152.520653,237.633975 C158.449121,242.368428 162.144666,246.915232 163.718898,250.238015 C166.080246,255.22219 159.23197,248.98126 156.865475,246.65609 C150.943414,242.206442 148.943399,241.040457 150.86543,243.158135 C153.748476,246.334652 156.463645,248.911342 158.589247,251.258962 C160.714849,253.606583 157.300472,253.045721 154.351931,251.189394 C151.40339,249.333067 147.000188,245.55193 146.851569,246.394788 Z" id="Shape" fill="#F4B696"></path>
            <polygon id="Shape" fill="url(#linearGradient-11)" points="268.594749 166.624062 245.1786 250.370331 184.836985 254.872818 210.054376 161.221077"></polygon>
            <path d="M42.3176083,181.863932 L40.2653718,201.877794 L130.882542,227.570727 L124.057562,246.140951 L17.5881488,233.201587 C6.90879292,231.903711 -0.830658255,222.390579 0.0714641828,211.670537 C3.56089442,170.205265 5.83981953,145.375158 6.90823951,137.180215 C14.7631057,76.9322059 48.483651,91.1207202 48.483651,121.876101 C48.483651,131.695076 46.4283034,151.69102 42.3176083,181.863932 Z" id="Shape" fill="url(#linearGradient-12)"></path>
            <path d="M49.8802526,46.9679341 C57.6997661,26.9078404 66.414306,16.8777935 76.0238724,16.8777935 C85.6334388,16.8777935 91.4729463,22.0961252 93.5423949,32.5327885 L99.6629749,45.8741858 C100.123558,46.8781464 99.6830634,48.0653937 98.6791027,48.5259768 C98.5058317,48.6054676 98.3220856,48.6597772 98.1334417,48.6872571 L93.5423949,49.3560376 C93.5423949,54.2298223 92.8376865,59.1421818 91.4282697,64.0931161 C90.0188528,69.0440504 84.8840537,72.1155794 76.0238724,73.307703 C75.751986,77.8315821 75.6160428,80.0935216 75.6160428,80.0935216 C94.9667636,89.2808027 83.708883,109.433355 67.3794558,105.022885 C56.4931711,102.082571 51.5511265,93.771601 52.5533221,80.0899738 L52.5533221,57.2046828 L49.8802526,46.9679341 Z" id="Shape" fill="#F4B696"></path>
            <path d="M92.8543899,28.8777935 C84.2895055,32.0097302 76.5999919,34.6763968 69.785849,36.8777935 C59.5646346,40.1798885 58.8580804,48.8082214 61.307199,55.0008658 C63.7563176,61.1935102 77.9915671,81.8777935 58.4155757,91.8777935 C38.8395842,101.877794 7.87636209,120.252374 7.87636209,132.532871 C0.233012052,110.470051 2.50428355,93.1667067 14.6901766,80.6228386 C32.9690161,61.8070364 37.7013865,58.2635921 35.3427068,39.9044888 C32.9840271,21.5453855 47.2081819,1.27260215e-13 67.7806166,-1.13686838e-13 C88.3530513,-3.54802729e-13 97.1292297,4.70559088 100.382448,14.2059852 C102.551261,20.5395813 100.041908,25.4301841 92.8543899,28.8777935 Z" id="Shape" fill="url(#linearGradient-13)"></path>
        </g>
        <g id="Calendar" transform="translate(184.000000, 97.000000)">
            <path d="M10,9.9475983e-13 L478,9.9475983e-13 C483.522847,9.93745299e-13 488,4.4771525 488,10 L488,408 C488,413.522847 483.522847,418 478,418 L10,418 C4.4771525,418 1.16139548e-13,413.522847 1.15463195e-13,408 L1.15463195e-13,10 C1.14786841e-13,4.4771525 4.4771525,9.95774361e-13 10,9.9475983e-13 Z" id="Shape" fill="url(#linearGradient-14)"></path>
            <path d="M321.340289,357 C260.65008,357 222,314.853261 222,244.927989 L222,234.072011 C222,163.827446 262.886035,122 321.659711,122 C380.433387,122 421,162.230978 421,233.11413 L421,243.650815 C421,313.576087 382.988764,357 321.340289,357 Z M322.96,317 C355.28,317 370,292.340909 370,244.303719 L370,234.055785 C370,187.940083 354,162 322.32,162 C290.32,162 274,186.659091 274,234.055785 L274,244.944215 C274,292.981405 290.96,317 322.96,317 Z M114.286645,354 L114.286645,176.244755 L68,206.671329 L68,162.472727 L120.67101,125 L166,125 L166,354 L114.286645,354 Z" id="Shape" fill="url(#linearGradient-15)"></path>
            <path d="M10,2.13162821e-14 L478,2.13162821e-14 C483.522847,2.03017514e-14 488,4.4771525 488,10 L488,78 L0,78 L0,10 C-6.76353751e-16,4.4771525 4.4771525,2.23308127e-14 10,2.13162821e-14 Z" id="Shape" fill="url(#linearGradient-16)"></path>
        </g>
        <g id="Stopwatch" transform="translate(267.000000, 305.000000)">
            <path d="M265,0 L290,0 C295.522847,-1.01453063e-15 300,4.4771525 300,10 L300,109 C300,114.522847 295.522847,119 290,119 L265,119 C259.477153,119 255,114.522847 255,109 L255,10 C255,4.4771525 259.477153,9.89631482e-15 265,0 Z" id="Shape" fill="url(#linearGradient-17)"></path>
            <path d="M252.5,2.25597319e-13 L304.5,2.29150032e-13 C312.508129,2.27678963e-13 319,6.49187113 319,14.5 C319,22.5081289 312.508129,29 304.5,29 L252.5,29 C244.491871,29 238,22.5081289 238,14.5 C238,6.49187113 244.491871,2.27068388e-13 252.5,2.25597319e-13 Z" id="Shape" fill="url(#linearGradient-18)"></path>
            <circle id="Shape" fill="url(#linearGradient-19)" cx="278.5" cy="339.5" r="278.5"></circle>
            <circle id="Shape" fill="url(#linearGradient-20)" cx="279.300287" cy="340.300287" r="226.481322"></circle>
            <path d="M277.546836,566.774963 C166.492068,554.097417 80.2275331,459.797406 80.2275331,345.349234 C80.2275331,222.258808 180.012039,122.474303 303.102464,122.474303 C326.343291,122.474303 348.753272,126.03158 369.817625,132.631354 C449.846673,167.56281 505.781609,247.399397 505.781609,340.300287 C505.781609,465.382468 404.382468,566.781609 279.300287,566.781609 C278.715283,566.781609 278.130796,566.779391 277.546836,566.774963 L277.546836,566.774963 Z" id="Shape" fill="#FFFFFF"></path>
            <path d="M380.045052,245.786077 C385.835226,239.110854 395.940427,238.39338 402.61565,244.183555 C409.290873,249.973729 410.008347,260.07893 404.218173,266.754153 L289.08656,399.484038 C284.058749,405.280368 275.623914,406.691318 268.98342,402.846821 L211.98342,369.846821 C204.336032,365.419386 201.725744,355.630808 206.153179,347.98342 C210.580614,340.336032 220.369192,337.725744 228.01658,342.153179 L273.575776,368.529556 L380.045052,245.786077 Z M282.5,129 L282.5,147 C282.5,153.666667 272.5,153.666667 272.5,147 L272.5,129 C272.5,122.333333 282.5,122.333333 282.5,129 Z M282.5,534 L282.5,552 C282.5,558.666667 272.5,558.666667 272.5,552 L272.5,534 C272.5,527.333333 282.5,527.333333 282.5,534 Z M66,335.5 L84,335.5 C90.6666667,335.5 90.6666667,345.5 84,345.5 L66,345.5 C59.3333333,345.5 59.3333333,335.5 66,335.5 Z M471,335.5 L489,335.5 C495.666667,335.5 495.666667,345.5 489,345.5 L471,345.5 C464.333333,345.5 464.333333,335.5 471,335.5 Z M124.411382,486.51755 L137.139304,473.789628 C141.853349,469.075583 148.924417,476.146651 144.210372,480.860696 L131.48245,493.588618 C126.768404,498.302663 119.697337,491.231596 124.411382,486.51755 Z M410.789628,200.139304 L423.51755,187.411382 C428.231596,182.697337 435.302663,189.768404 430.588618,194.48245 L417.860696,207.210372 C413.146651,211.924417 406.075583,204.853349 410.789628,200.139304 Z M423.51755,493.588618 L410.789628,480.860696 C406.075583,476.146651 413.146651,469.075583 417.860696,473.789628 L430.588618,486.51755 C435.302663,491.231596 428.231596,498.302663 423.51755,493.588618 Z M137.139304,207.210372 L124.411382,194.48245 C119.697337,189.768404 126.768404,182.697337 131.48245,187.411382 L144.210372,200.139304 C148.924417,204.853349 141.853349,211.924417 137.139304,207.210372 Z" id="Shape" fill="url(#linearGradient-21)"></path>
        </g>
        <g id="Men" transform="translate(43.555296, 351.504501)">
            <path d="M249.550583,141.495499 L260.401154,163.713539 C265.86193,174.895231 263.852787,188.287309 255.351206,197.374302 L227.881214,226.735855 L213.350446,211.329615 L237.444704,183.275201 L226.584062,163.495499 L249.550583,141.495499 Z" id="Shape" fill="#F4B696"></path>
            <polygon id="Shape" fill="url(#linearGradient-22)" points="198.091984 83.495499 230.922536 98.7048419 259.444704 155.142658 232.72857 178.495499 198.091984 137.442142"></polygon>
            <polygon id="Shape" fill="#F4B696" points="229.444704 531.495499 232.444704 553.110406 210.816797 553.110406 207.816797 531.495499"></polygon>
            <polygon id="Shape" fill="#F4B696" points="148.312921 529.86817 148.312921 551.483077 126.685014 551.483077 126.685014 529.86817"></polygon>
            <polygon id="Shape" fill="#121958" points="206.467275 543.002078 168.459899 419.099452 156.293247 255.577362 227.144894 253.824851 215.226956 413.240924 234.595907 543.002078"></polygon>
            <polygon id="Shape" fill="url(#linearGradient-23)" points="122.259978 542.673863 122.259978 386.12967 131.334597 255.769559 227.215396 254.189685 172.488631 406.666355 152.010734 542.673863"></polygon>
            <path d="M149.514471,549.08142 L149.514471,564.488369 C149.514471,567.139336 147.365438,569.288369 144.714471,569.288369 L102.107847,569.288369 C100.418688,569.288369 99.049355,567.613006 99.049355,565.546342 C99.049355,557.501228 105.1566,556.453017 112.407768,553.884733 L126.797876,549.08142 L149.514471,549.08142 Z" id="Shape" fill="#211D41"></path>
            <path d="M233.444704,551.495499 L233.444704,566.902448 C233.444704,569.553415 231.295671,571.702448 228.644704,571.702448 L186.038079,571.702448 C184.348921,571.702448 182.979588,570.027085 182.979588,567.96042 C182.979588,559.915307 189.086832,558.867095 196.338001,556.298812 L210.728108,551.495499 L233.444704,551.495499 Z" id="Shape" fill="#211D41"></path>
            <path d="M174.162406,88.3345537 C169.050888,77.2402516 164.353194,71.6342564 160.069325,71.5165681 C153.643521,71.3400356 149.643346,71.5510222 148.128327,65.4423118 C146.613307,59.3336015 144.292242,57.9716437 141.434919,57.7431481 C138.577596,57.5146524 135.217111,54.5545503 140.585129,47.9415841 C144.163808,43.5329399 144.361893,36.1705835 141.179384,25.8545148 C162.906763,8.20051137 178.467114,7.56715828 187.860436,23.9544555 C197.253759,40.3417528 200.628884,54.6667499 197.985814,66.9294469 L204.444704,84.2951017 L174.162406,88.3345537 Z" id="Shape" fill="#F4B696"></path>
            <path d="M198.276328,66.5598173 C190.532643,69.2636629 185.651195,69.6213576 183.631982,67.6329014 C180.603163,64.6502171 177.915324,58.2915058 177.501115,56.1180473 C177.086906,53.9445889 179.730893,53.9059163 181.560752,53.2034991 C183.390611,52.5010819 184.650388,47.2920791 181.566064,44.9232583 C178.481741,42.5544376 176.045415,44.0461504 174.977407,45.0869623 C173.909399,46.1277743 170.242467,45.7684728 169.353526,40.3724767 C168.464585,34.9764805 168.967287,29.4099869 165.636253,30.6886509 C162.30522,31.9673148 142.818739,36.991787 136.970753,24.7000729 C131.122766,12.4083588 135.720682,2.40671497 149.746402,3.65487769 C163.772122,4.90304042 167.367482,2.90625493 177.042219,1.52099863 C186.716955,0.135742335 196.528952,-0.772370913 204.391905,14.1094503 C212.254857,28.9912715 209.070238,39.3227451 204.071272,47.7384369 C199.072307,56.1541286 201.381487,57.2585194 201.579351,60.7435521 C201.71126,63.0669072 200.610252,65.0056622 198.276328,66.5598173 Z" id="Shape" fill="url(#linearGradient-24)"></path>
            <polygon id="Shape" fill="url(#linearGradient-25)" points="56.9821083 157.539529 0 134.30009 22.3004567 118.495499 84.4447038 139.539529"></polygon>
            <path d="M187.249602,81.995499 C206.154392,75.0660964 227.097143,84.7740662 234.026546,103.678856 C235.76767,108.42899 236.501083,113.489513 236.180127,118.5385 L226.584062,269.495499 L131.269243,255.95193 L143.563956,137.170337 C146.197936,110.096734 160.759818,91.7051216 187.249602,81.995499 Z" id="Shape" fill="url(#linearGradient-26)"></path>
            <polygon id="Shape" fill="#221E41" points="203.003574 153.652145 178.824761 187.879927 134.629897 215.347805 136.755042 187.00235"></polygon>
            <path d="M175.171277,132.635462 L189.829568,165.558523 C165.741818,190.037929 146.319127,202.077626 131.561495,201.677617 C116.803864,201.277608 93.3155595,188.074796 61.0965824,162.069183 C56.9149821,162.274318 50.5936084,162.274318 42.1324614,162.069183 C33.6713143,161.864048 27.3309613,155.767216 23.1114022,143.778685 L44.534466,147.526284 L41.3958378,137.87192 C44.5032297,137.614846 47.7926776,138.520809 51.2641814,140.58981 C54.7356853,142.65881 57.5873749,145.720478 59.8192504,149.774812 L130.091663,174.495499 L175.171277,132.635462 Z" id="Shape" fill="#F4B696"></path>
            <path d="M138.864249,520.774325 L139.321117,513.78925 L140.318985,513.854517 L139.862117,520.839592 L138.864249,520.774325 Z M139.973784,503.810572 L140.430652,496.825497 L141.42852,496.890763 L140.971652,503.875838 L139.973784,503.810572 Z M141.08332,486.846818 L141.540187,479.861743 L142.538055,479.92701 L142.081187,486.912085 L141.08332,486.846818 Z M142.192855,469.883065 L142.649722,462.89799 L143.64759,462.963256 L143.190722,469.948331 L142.192855,469.883065 Z M143.30239,452.919311 L143.759257,445.934236 L144.757125,445.999503 L144.300257,452.984578 L143.30239,452.919311 Z M144.411925,435.955558 L144.868792,428.970483 L145.86666,429.035749 L145.409792,436.020824 L144.411925,435.955558 Z M145.52146,418.991804 L145.978327,412.006729 L146.976195,412.071996 L146.519327,419.057071 L145.52146,418.991804 Z M146.630995,402.028051 L147.087862,395.042976 L148.08573,395.108242 L147.628862,402.093317 L146.630995,402.028051 Z M148.331067,385.072301 L149.817782,378.232003 L150.794967,378.444391 L149.308252,385.284689 L148.331067,385.072301 Z M151.94166,368.460148 L153.428375,361.61985 L154.405561,361.832238 L152.918846,368.672536 L151.94166,368.460148 Z M155.552254,351.847996 L157.038969,345.007698 L158.016155,345.220086 L156.529439,352.060384 L155.552254,351.847996 Z M159.162848,335.235843 L160.649563,328.395545 L161.626748,328.607933 L160.140033,335.448231 L159.162848,335.235843 Z M162.773441,318.623691 L164.260156,311.783393 L165.237342,311.99578 L163.750627,318.836079 L162.773441,318.623691 Z M166.384035,302.011538 L167.87075,295.17124 L168.847935,295.383628 L167.36122,302.223926 L166.384035,302.011538 Z M169.994629,285.399386 L171.481344,278.559087 L172.458529,278.771475 L170.971814,285.611773 L169.994629,285.399386 Z" id="Shape" fill="#FFFFFF" fill-rule="nonzero"></path>
            <path d="M176.603019,182.294247 L150.107941,151.082789 C172.887111,123.441136 190.25525,115.844956 202.212359,128.294247 C214.169469,140.743538 205.633022,158.743538 176.603019,182.294247 Z" id="Shape" fill="url(#linearGradient-27)"></path>
        </g>
    </g>
</svg>