<?xml version="1.0" encoding="UTF-8"?>
<svg width="1440px" height="1024px" viewBox="0 0 1440 1024" version="1.1" xmlns="http://www.w3.org/2000/svg" xmlns:xlink="http://www.w3.org/1999/xlink">
    <!-- Generator: Sketch 53.2 (72643) - https://sketchapp.com -->
    <title>Success</title>
    <desc>Created with Sketch.</desc>
    <defs>
        <linearGradient x1="50%" y1="0%" x2="50%" y2="100%" id="linearGradient-1">
            <stop stop-color="#FF9485" offset="0%"></stop>
            <stop stop-color="#FF676E" offset="100%"></stop>
        </linearGradient>
        <linearGradient x1="8.38174197%" y1="41.9937292%" x2="56.5702499%" y2="50%" id="linearGradient-2">
            <stop stop-color="#CFE49F" offset="0%"></stop>
            <stop stop-color="#A9D386" offset="100%"></stop>
        </linearGradient>
        <linearGradient x1="50%" y1="7.26438915%" x2="50%" y2="151.05781%" id="linearGradient-3">
            <stop stop-color="#D0F6FF" offset="0%"></stop>
            <stop stop-color="#8BE2F7" offset="100%"></stop>
        </linearGradient>
        <linearGradient x1="50%" y1="0%" x2="50%" y2="100%" id="linearGradient-4">
            <stop stop-color="#FF9485" offset="0%"></stop>
            <stop stop-color="#FF676E" offset="100%"></stop>
        </linearGradient>
        <linearGradient x1="50%" y1="7.26438915%" x2="50%" y2="151.05781%" id="linearGradient-5">
            <stop stop-color="#D0F6FF" offset="0%"></stop>
            <stop stop-color="#8BE2F7" offset="100%"></stop>
        </linearGradient>
        <linearGradient x1="4.76643799%" y1="37.1557748%" x2="100%" y2="65.3596994%" id="linearGradient-6">
            <stop stop-color="#6EAE7C" offset="0%"></stop>
            <stop stop-color="#0F575D" offset="100%"></stop>
        </linearGradient>
        <linearGradient x1="36.1805563%" y1="13.1381206%" x2="52.1816675%" y2="50%" id="linearGradient-7">
            <stop stop-color="#CFE49F" offset="0%"></stop>
            <stop stop-color="#A9D386" offset="100%"></stop>
        </linearGradient>
        <linearGradient x1="34.1151714%" y1="33.9683678%" x2="64.8333502%" y2="52.4070359%" id="linearGradient-8">
            <stop stop-color="#77D791" offset="0%"></stop>
            <stop stop-color="#4FA67E" offset="100%"></stop>
        </linearGradient>
        <linearGradient x1="50%" y1="0%" x2="50%" y2="100%" id="linearGradient-9">
            <stop stop-color="#FF9485" offset="0%"></stop>
            <stop stop-color="#FF676E" offset="100%"></stop>
        </linearGradient>
        <linearGradient x1="50%" y1="0%" x2="50%" y2="100%" id="linearGradient-10">
            <stop stop-color="#FF9485" offset="0%"></stop>
            <stop stop-color="#FF676E" offset="100%"></stop>
        </linearGradient>
        <linearGradient x1="50%" y1="0%" x2="50%" y2="100%" id="linearGradient-11">
            <stop stop-color="#FF9485" offset="0%"></stop>
            <stop stop-color="#FF676E" offset="100%"></stop>
        </linearGradient>
        <linearGradient x1="50%" y1="28.0303504%" x2="100%" y2="67.2979542%" id="linearGradient-12">
            <stop stop-color="#0F1752" offset="0%"></stop>
            <stop stop-color="#272884" offset="100%"></stop>
        </linearGradient>
        <linearGradient x1="50%" y1="60.8716523%" x2="50.9350565%" y2="45.9074408%" id="linearGradient-13">
            <stop stop-color="#2B3389" offset="0%"></stop>
            <stop stop-color="#444FB7" offset="100%"></stop>
        </linearGradient>
        <linearGradient x1="50%" y1="67.0606262%" x2="50.9350565%" y2="43.5776439%" id="linearGradient-14">
            <stop stop-color="#2B3389" offset="0%"></stop>
            <stop stop-color="#444FB7" offset="100%"></stop>
        </linearGradient>
        <linearGradient x1="50%" y1="49.767984%" x2="100%" y2="50.1826794%" id="linearGradient-15">
            <stop stop-color="#0F1752" offset="0%"></stop>
            <stop stop-color="#272884" offset="100%"></stop>
        </linearGradient>
        <linearGradient x1="50%" y1="101.672345%" x2="50.9350565%" y2="30.5482988%" id="linearGradient-16">
            <stop stop-color="#2B3389" offset="0%"></stop>
            <stop stop-color="#444FB7" offset="100%"></stop>
        </linearGradient>
        <linearGradient x1="50%" y1="114.0151%" x2="50.2873443%" y2="25.9019529%" id="linearGradient-17">
            <stop stop-color="#2B3389" offset="0%"></stop>
            <stop stop-color="#444FB7" offset="100%"></stop>
        </linearGradient>
        <linearGradient x1="50%" y1="47.4173554%" x2="100%" y2="52.033463%" id="linearGradient-18">
            <stop stop-color="#0F1752" offset="0%"></stop>
            <stop stop-color="#272884" offset="100%"></stop>
        </linearGradient>
        <linearGradient x1="50%" y1="-2.48949813e-15%" x2="50%" y2="100%" id="linearGradient-19">
            <stop stop-color="#4DBCFA" offset="0%"></stop>
            <stop stop-color="#1486DB" offset="100%"></stop>
        </linearGradient>
        <linearGradient x1="50%" y1="40.9781502%" x2="100%" y2="57.1034153%" id="linearGradient-20">
            <stop stop-color="#0F1752" offset="0%"></stop>
            <stop stop-color="#272884" offset="100%"></stop>
        </linearGradient>
        <linearGradient x1="50%" y1="0%" x2="50%" y2="100%" id="linearGradient-21">
            <stop stop-color="#FF9485" offset="0%"></stop>
            <stop stop-color="#FF676E" offset="100%"></stop>
        </linearGradient>
    </defs>
    <g id="Success" stroke="none" stroke-width="1" fill="none" fill-rule="evenodd">
        <rect fill="#FFFFFF" x="0" y="0" width="1440" height="1024"></rect>
        <g id="Ornament" transform="translate(68.000000, 95.000000)">
            <path d="M996.817615,92.5793992 C996.817615,95.0141701 994.843724,96.987942 992.408807,96.987942 C989.97389,96.987942 988,95.0141701 988,92.5793992 C988,90.1446282 989.97389,88.1708564 992.408807,88.1708564 C994.843724,88.1708564 996.817615,90.1446282 996.817615,92.5793992 Z M996.817615,74.9452279 C996.817615,77.3799989 994.843724,79.3537707 992.408807,79.3537707 C989.97389,79.3537707 988,77.3799989 988,74.9452279 C988,72.5104569 989.97389,70.5366851 992.408807,70.5366851 C994.843724,70.5366851 996.817615,72.5104569 996.817615,74.9452279 Z M996.817615,57.3110566 C996.817615,59.7458276 994.843724,61.7195995 992.408807,61.7195995 C989.97389,61.7195995 988,59.7458276 988,57.3110566 C988,54.8762857 989.97389,52.9025138 992.408807,52.9025138 C994.843724,52.9025138 996.817615,54.8762857 996.817615,57.3110566 Z M996.817615,39.6768854 C996.817615,42.1116563 994.843724,44.0854282 992.408807,44.0854282 C989.97389,44.0854282 988,42.1116563 988,39.6768854 C988,37.2421144 989.97389,35.2683425 992.408807,35.2683425 C994.843724,35.2683425 996.817615,37.2421144 996.817615,39.6768854 Z M996.817615,22.0427141 C996.817615,24.4774851 994.843724,26.4512569 992.408807,26.4512569 C989.97389,26.4512569 988,24.4774851 988,22.0427141 C988,19.6079431 989.97389,17.6341713 992.408807,17.6341713 C994.843724,17.6341713 996.817615,19.6079431 996.817615,22.0427141 Z M996.817615,4.40854282 C996.817615,6.84331379 994.843724,8.81708564 992.408807,8.81708564 C989.97389,8.81708564 988,6.84331379 988,4.40854282 C988,1.97377185 989.97389,4.93827201e-13 992.408807,4.93827201e-13 C994.843724,4.93827201e-13 996.817615,1.97377185 996.817615,4.40854282 Z M1014.45284,92.5793992 C1014.45284,95.0141701 1012.47895,96.987942 1010.04404,96.987942 C1007.60912,96.987942 1005.63523,95.0141701 1005.63523,92.5793992 C1005.63523,90.1446282 1007.60912,88.1708564 1010.04404,88.1708564 C1012.47895,88.1708564 1014.45284,90.1446282 1014.45284,92.5793992 Z M1014.45284,74.9452279 C1014.45284,77.3799989 1012.47895,79.3537707 1010.04404,79.3537707 C1007.60912,79.3537707 1005.63523,77.3799989 1005.63523,74.9452279 C1005.63523,72.5104569 1007.60912,70.5366851 1010.04404,70.5366851 C1012.47895,70.5366851 1014.45284,72.5104569 1014.45284,74.9452279 Z M1014.45284,57.3110566 C1014.45284,59.7458276 1012.47895,61.7195995 1010.04404,61.7195995 C1007.60912,61.7195995 1005.63523,59.7458276 1005.63523,57.3110566 C1005.63523,54.8762857 1007.60912,52.9025138 1010.04404,52.9025138 C1012.47895,52.9025138 1014.45284,54.8762857 1014.45284,57.3110566 Z M1014.45284,39.6768854 C1014.45284,42.1116563 1012.47895,44.0854282 1010.04404,44.0854282 C1007.60912,44.0854282 1005.63523,42.1116563 1005.63523,39.6768854 C1005.63523,37.2421144 1007.60912,35.2683425 1010.04404,35.2683425 C1012.47895,35.2683425 1014.45284,37.2421144 1014.45284,39.6768854 Z M1014.45284,22.0427141 C1014.45284,24.4774851 1012.47895,26.4512569 1010.04404,26.4512569 C1007.60912,26.4512569 1005.63523,24.4774851 1005.63523,22.0427141 C1005.63523,19.6079431 1007.60912,17.6341713 1010.04404,17.6341713 C1012.47895,17.6341713 1014.45284,19.6079431 1014.45284,22.0427141 Z M1014.45284,4.40854282 C1014.45284,6.84331379 1012.47895,8.81708564 1010.04404,8.81708564 C1007.60912,8.81708564 1005.63523,6.84331379 1005.63523,4.40854282 C1005.63523,1.97377185 1007.60912,4.93827201e-13 1010.04404,4.93827201e-13 C1012.47895,4.93827201e-13 1014.45284,1.97377185 1014.45284,4.40854282 Z M1032.08807,92.5793992 C1032.08807,95.0141701 1030.11418,96.987942 1027.67927,96.987942 C1025.24435,96.987942 1023.27046,95.0141701 1023.27046,92.5793992 C1023.27046,90.1446282 1025.24435,88.1708564 1027.67927,88.1708564 C1030.11418,88.1708564 1032.08807,90.1446282 1032.08807,92.5793992 Z M1032.08807,74.9452279 C1032.08807,77.3799989 1030.11418,79.3537707 1027.67927,79.3537707 C1025.24435,79.3537707 1023.27046,77.3799989 1023.27046,74.9452279 C1023.27046,72.5104569 1025.24435,70.5366851 1027.67927,70.5366851 C1030.11418,70.5366851 1032.08807,72.5104569 1032.08807,74.9452279 Z M1032.08807,57.3110566 C1032.08807,59.7458276 1030.11418,61.7195995 1027.67927,61.7195995 C1025.24435,61.7195995 1023.27046,59.7458276 1023.27046,57.3110566 C1023.27046,54.8762857 1025.24435,52.9025138 1027.67927,52.9025138 C1030.11418,52.9025138 1032.08807,54.8762857 1032.08807,57.3110566 Z M1032.08807,39.6768854 C1032.08807,42.1116563 1030.11418,44.0854282 1027.67927,44.0854282 C1025.24435,44.0854282 1023.27046,42.1116563 1023.27046,39.6768854 C1023.27046,37.2421144 1025.24435,35.2683425 1027.67927,35.2683425 C1030.11418,35.2683425 1032.08807,37.2421144 1032.08807,39.6768854 Z M1032.08807,22.0427141 C1032.08807,24.4774851 1030.11418,26.4512569 1027.67927,26.4512569 C1025.24435,26.4512569 1023.27046,24.4774851 1023.27046,22.0427141 C1023.27046,19.6079431 1025.24435,17.6341713 1027.67927,17.6341713 C1030.11418,17.6341713 1032.08807,19.6079431 1032.08807,22.0427141 Z M1032.08807,4.40854282 C1032.08807,6.84331379 1030.11418,8.81708564 1027.67927,8.81708564 C1025.24435,8.81708564 1023.27046,6.84331379 1023.27046,4.40854282 C1023.27046,1.97377185 1025.24435,4.93827201e-13 1027.67927,4.93827201e-13 C1030.11418,4.93827201e-13 1032.08807,1.97377185 1032.08807,4.40854282 Z M1049.7233,92.5793992 C1049.7233,95.0141701 1047.74941,96.987942 1045.31449,96.987942 C1042.87958,96.987942 1040.90569,95.0141701 1040.90569,92.5793992 C1040.90569,90.1446282 1042.87958,88.1708564 1045.31449,88.1708564 C1047.74941,88.1708564 1049.7233,90.1446282 1049.7233,92.5793992 Z M1049.7233,74.9452279 C1049.7233,77.3799989 1047.74941,79.3537707 1045.31449,79.3537707 C1042.87958,79.3537707 1040.90569,77.3799989 1040.90569,74.9452279 C1040.90569,72.5104569 1042.87958,70.5366851 1045.31449,70.5366851 C1047.74941,70.5366851 1049.7233,72.5104569 1049.7233,74.9452279 Z M1049.7233,57.3110566 C1049.7233,59.7458276 1047.74941,61.7195995 1045.31449,61.7195995 C1042.87958,61.7195995 1040.90569,59.7458276 1040.90569,57.3110566 C1040.90569,54.8762857 1042.87958,52.9025138 1045.31449,52.9025138 C1047.74941,52.9025138 1049.7233,54.8762857 1049.7233,57.3110566 Z M1049.7233,39.6768854 C1049.7233,42.1116563 1047.74941,44.0854282 1045.31449,44.0854282 C1042.87958,44.0854282 1040.90569,42.1116563 1040.90569,39.6768854 C1040.90569,37.2421144 1042.87958,35.2683425 1045.31449,35.2683425 C1047.74941,35.2683425 1049.7233,37.2421144 1049.7233,39.6768854 Z M1049.7233,22.0427141 C1049.7233,24.4774851 1047.74941,26.4512569 1045.31449,26.4512569 C1042.87958,26.4512569 1040.90569,24.4774851 1040.90569,22.0427141 C1040.90569,19.6079431 1042.87958,17.6341713 1045.31449,17.6341713 C1047.74941,17.6341713 1049.7233,19.6079431 1049.7233,22.0427141 Z M1049.7233,4.40854282 C1049.7233,6.84331379 1047.74941,8.81708564 1045.31449,8.81708564 C1042.87958,8.81708564 1040.90569,6.84331379 1040.90569,4.40854282 C1040.90569,1.97377185 1042.87958,5.41788836e-13 1045.31449,5.41788836e-13 C1047.74941,5.41788836e-13 1049.7233,1.97377185 1049.7233,4.40854282 Z M1067.35853,92.5793992 C1067.35853,95.0141701 1065.38464,96.987942 1062.94972,96.987942 C1060.51481,96.987942 1058.54092,95.0141701 1058.54092,92.5793992 C1058.54092,90.1446282 1060.51481,88.1708564 1062.94972,88.1708564 C1065.38464,88.1708564 1067.35853,90.1446282 1067.35853,92.5793992 Z M1067.35853,74.9452279 C1067.35853,77.3799989 1065.38464,79.3537707 1062.94972,79.3537707 C1060.51481,79.3537707 1058.54092,77.3799989 1058.54092,74.9452279 C1058.54092,72.5104569 1060.51481,70.5366851 1062.94972,70.5366851 C1065.38464,70.5366851 1067.35853,72.5104569 1067.35853,74.9452279 Z M1067.35853,57.3110566 C1067.35853,59.7458276 1065.38464,61.7195995 1062.94972,61.7195995 C1060.51481,61.7195995 1058.54092,59.7458276 1058.54092,57.3110566 C1058.54092,54.8762857 1060.51481,52.9025138 1062.94972,52.9025138 C1065.38464,52.9025138 1067.35853,54.8762857 1067.35853,57.3110566 Z M1067.35853,39.6768854 C1067.35853,42.1116563 1065.38464,44.0854282 1062.94972,44.0854282 C1060.51481,44.0854282 1058.54092,42.1116563 1058.54092,39.6768854 C1058.54092,37.2421144 1060.51481,35.2683425 1062.94972,35.2683425 C1065.38464,35.2683425 1067.35853,37.2421144 1067.35853,39.6768854 Z M1067.35853,22.0427141 C1067.35853,24.4774851 1065.38464,26.4512569 1062.94972,26.4512569 C1060.51481,26.4512569 1058.54092,24.4774851 1058.54092,22.0427141 C1058.54092,19.6079431 1060.51481,17.6341713 1062.94972,17.6341713 C1065.38464,17.6341713 1067.35853,19.6079431 1067.35853,22.0427141 Z M1067.35853,4.40854282 C1067.35853,6.84331379 1065.38464,8.81708564 1062.94972,8.81708564 C1060.51481,8.81708564 1058.54092,6.84331379 1058.54092,4.40854282 C1058.54092,1.97377185 1060.51481,4.93827201e-13 1062.94972,4.93827201e-13 C1065.38464,4.93827201e-13 1067.35853,1.97377185 1067.35853,4.40854282 Z M1084.99376,92.5793992 C1084.99376,95.0141701 1083.01987,96.987942 1080.58495,96.987942 C1078.15004,96.987942 1076.17615,95.0141701 1076.17615,92.5793992 C1076.17615,90.1446282 1078.15004,88.1708564 1080.58495,88.1708564 C1083.01987,88.1708564 1084.99376,90.1446282 1084.99376,92.5793992 Z M1084.99376,74.9452279 C1084.99376,77.3799989 1083.01987,79.3537707 1080.58495,79.3537707 C1078.15004,79.3537707 1076.17615,77.3799989 1076.17615,74.9452279 C1076.17615,72.5104569 1078.15004,70.5366851 1080.58495,70.5366851 C1083.01987,70.5366851 1084.99376,72.5104569 1084.99376,74.9452279 Z M1084.99376,57.3110566 C1084.99376,59.7458276 1083.01987,61.7195995 1080.58495,61.7195995 C1078.15004,61.7195995 1076.17615,59.7458276 1076.17615,57.3110566 C1076.17615,54.8762857 1078.15004,52.9025138 1080.58495,52.9025138 C1083.01987,52.9025138 1084.99376,54.8762857 1084.99376,57.3110566 Z M1084.99376,39.6768854 C1084.99376,42.1116563 1083.01987,44.0854282 1080.58495,44.0854282 C1078.15004,44.0854282 1076.17615,42.1116563 1076.17615,39.6768854 C1076.17615,37.2421144 1078.15004,35.2683425 1080.58495,35.2683425 C1083.01987,35.2683425 1084.99376,37.2421144 1084.99376,39.6768854 Z M1084.99376,22.0427141 C1084.99376,24.4774851 1083.01987,26.4512569 1080.58495,26.4512569 C1078.15004,26.4512569 1076.17615,24.4774851 1076.17615,22.0427141 C1076.17615,19.6079431 1078.15004,17.6341713 1080.58495,17.6341713 C1083.01987,17.6341713 1084.99376,19.6079431 1084.99376,22.0427141 Z M1084.99376,4.40854282 C1084.99376,6.84331379 1083.01987,8.81708564 1080.58495,8.81708564 C1078.15004,8.81708564 1076.17615,6.84331379 1076.17615,4.40854282 C1076.17615,1.97377185 1078.15004,3.19744231e-14 1080.58495,3.19744231e-14 C1083.01987,3.19744231e-14 1084.99376,1.97377185 1084.99376,4.40854282 Z" id="Shape" fill="url(#linearGradient-1)"></path>
            <path d="M24,65 L710,65 C723.254834,65 734,75.745166 734,89 L734,825 C734,838.254834 723.254834,849 710,849 L24,849 C10.745166,849 1.23216284e-13,838.254834 5.68434189e-14,825 L5.68434189e-14,89 C5.52201699e-14,75.745166 10.745166,65 24,65 Z" id="Shape" fill="#FFFFFF"></path>
            <polygon id="Shape" fill="url(#linearGradient-2)" points="53.7335286 512 691.013177 512 691.013177 809 53.7335286 809"></polygon>
            <polygon id="Shape" fill="url(#linearGradient-3)" points="54 125 691.279649 125 691.279649 422 54 422"></polygon>
            <path d="M354.653791,896.653791 C354.653791,831.435553 354.653791,748.982215 354.653791,706.390277 C302.162401,706.390277 259.609723,748.982215 259.609723,801.522034 C259.609723,854.061852 302.162401,896.653791 354.653791,896.653791 Z" id="Shape" fill="url(#linearGradient-4)" transform="translate(307.131757, 801.522034) rotate(-270.000000) translate(-307.131757, -801.522034) "></path>
            <path d="M1218,773.702703 C1218,586.990339 1218,350.935853 1218,229 C1067.22626,229 945,350.935853 945,501.351351 C945,651.766849 1067.22626,773.702703 1218,773.702703 Z" id="Shape" fill="url(#linearGradient-5)" transform="translate(1081.500000, 501.351351) rotate(-180.000000) translate(-1081.500000, -501.351351) "></path>
            <g id="Plant" transform="translate(1090.000000, 513.000000)">
                <path d="M39.4981201,164.85314 C63.4566962,71.748516 121.682551,39.0261602 214.175686,66.686073 C206.306031,108.785983 187.576224,141.226961 157.986264,164.009006 C128.396305,186.791051 88.9002567,187.07243 39.4981201,164.85314 Z" id="Shape" fill="url(#linearGradient-6)"></path>
                <path d="M110.90666,123.31975 L114.182626,91.2147532 C114.317975,89.8883075 116.307644,90.0913315 116.172294,91.4177773 L113.04009,122.113892 C137.314607,108.396862 167.641093,91.3752098 204.021245,71.0479371 C204.503374,70.7785492 205.112599,70.9510101 205.381987,71.4331393 C205.651375,71.9152686 205.478914,72.5244936 204.996785,72.7938815 C185.072124,83.9267104 166.963277,94.0680217 150.670521,103.217651 L178.847155,109.94056 C179.38436,110.068737 179.715944,110.608135 179.587767,111.14534 C179.459591,111.682545 178.920192,112.014128 178.382987,111.885952 L148.101203,104.660756 C135.046861,111.994186 123.186404,118.675692 112.519979,124.705186 C112.425529,124.787184 112.316344,124.847239 112.199917,124.886116 C100.139932,131.70388 89.6132281,137.684383 80.6200223,142.827497 L106.833213,152.40034 C107.351987,152.589792 107.618955,153.163922 107.429503,153.682696 C107.240051,154.20147 106.66592,154.468438 106.147147,154.278986 L78.4735497,144.172815 C78.4334076,144.158155 78.3947731,144.141192 78.3577411,144.12213 C64.2878892,152.17938 54.1992515,158.062628 48.0927331,161.771343 C47.6206877,162.058034 47.0056105,161.907774 46.7189198,161.435729 C46.4322291,160.963683 46.5824889,160.348606 47.0545343,160.061915 C57.2599898,153.863764 78.5426306,141.617201 110.90666,123.31975 Z" id="Shape" fill="#FFFFFF" fill-rule="nonzero"></path>
                <path d="M50.2925002,192.93029 C1.39886056,110.154107 19.4325579,45.8440106 104.393592,5.68434189e-14 C128.598038,35.3338181 138.293299,71.5170271 133.479377,108.549627 C128.665455,145.582227 100.936496,173.709114 50.2925002,192.93029 Z" id="Shape" fill="url(#linearGradient-7)"></path>
                <path d="M71.4174312,113.068298 L51.0322176,88.0501669 C50.1899853,87.0165217 51.7404532,85.7531732 52.5826855,86.7868184 L72.0733233,110.707065 C79.5385941,83.8429829 88.9465331,50.3627908 100.297634,10.2645827 C100.448065,9.73317982 101.0008,9.42434098 101.532203,9.57477183 C102.063606,9.72520267 102.372445,10.2779381 102.222014,10.809341 C96.0052518,32.7702963 90.3713544,52.7461701 85.3204025,70.7366492 L109.99809,55.5665848 C110.468586,55.2773579 111.084463,55.4243053 111.37369,55.8948011 C111.662917,56.3652968 111.515969,56.9811737 111.045474,57.2704006 L84.5240498,73.5738611 C80.4787456,87.9902222 76.8166666,101.101395 73.537856,112.907212 C73.5290457,113.031934 73.4943191,113.151562 73.4395101,113.261343 C69.7326936,126.609949 66.518039,138.282324 63.7956093,148.278225 L89.1001411,136.51173 C89.6009325,136.278864 90.1956791,136.496061 90.4285449,136.996852 C90.6614106,137.497643 90.444214,138.09239 89.9434227,138.325256 L63.2290923,150.747301 C63.1903464,150.765318 63.151038,150.78064 63.1113783,150.793346 C58.8598251,166.439575 55.8861651,177.733407 54.1906615,184.673826 C54.0595959,185.210334 53.518421,185.539009 52.9819135,185.407944 C52.4454061,185.276878 52.1167305,184.735703 52.2477961,184.199196 C55.0813881,172.600095 61.4708588,148.89137 71.4174312,113.068298 L71.4174312,113.068298 Z" id="Shape" fill="#FFFFFF" fill-rule="nonzero"></path>
                <path d="M-2.27373675e-13,227.324394 C47.2394574,143.593169 111.950484,127.05576 194.133079,177.712169 C175.635317,216.340743 149.14737,242.82869 114.669237,257.176011 C80.1911033,271.523332 41.9680244,261.572793 -2.27373675e-13,227.324394 Z" id="Shape" fill="url(#linearGradient-8)" fill-rule="nonzero"></path>
                <path d="M79.7249871,205.688105 L91.1987099,175.524946 C91.6727567,174.278729 93.5420825,174.9898 93.0680357,176.236017 L82.097821,205.075508 C109.095432,198.108582 142.794094,189.516001 183.195706,179.29724 C183.731129,179.161816 184.274959,179.486079 184.410384,180.021503 C184.545808,180.556927 184.221545,181.100757 183.686121,181.236181 C161.558988,186.832787 141.442419,191.941627 123.336727,196.562615 L148.813254,210.349099 C149.298979,210.611947 149.479657,211.218786 149.21681,211.704511 C148.953962,212.190237 148.347123,212.370915 147.861397,212.108067 L120.481453,197.291559 C105.973905,200.996393 92.78829,204.380518 80.9247726,207.443887 C80.8123068,207.498654 80.6912845,207.528407 80.5687493,207.535824 C67.1551379,210.999923 55.4392605,214.052132 45.4213591,216.692384 L68.2637271,232.723517 C68.7157905,233.040782 68.825066,233.664446 68.5078008,234.116509 C68.1905357,234.568573 67.5668717,234.677848 67.1148084,234.360583 L42.9998362,217.436317 C42.9648547,217.411766 42.9319258,217.385381 42.9010882,217.357383 C27.2252857,221.498542 15.9577136,224.570192 9.09938382,226.572052 C8.56922192,226.7268 8.01399309,226.422467 7.85924551,225.892305 C7.70449794,225.362143 8.00883137,224.806914 8.53899326,224.652166 C20.0009063,221.306578 43.728004,214.985659 79.7249871,205.688105 Z" id="Shape" fill="#FFFFFF" fill-rule="nonzero"></path>
            </g>
            <path d="M1221.15379,923.153791 C1221.15379,820.572699 1221.15379,690.882697 1221.15379,623.890277 C1138.83902,623.890277 1072.10972,690.882697 1072.10972,773.522034 C1072.10972,856.161371 1138.83902,923.153791 1221.15379,923.153791 Z" id="Shape" fill="url(#linearGradient-9)" transform="translate(1146.631757, 773.522034) rotate(-270.000000) translate(-1146.631757, -773.522034) "></path>
        </g>
        <g id="Money" transform="translate(856.000000, 79.000000)">
            <circle id="Shape" fill="url(#linearGradient-10)" cx="122.5" cy="122.5" r="122.5"></circle>
            <circle id="Shape" fill="#FFFFFF" cx="122.5" cy="122.5" r="99.5"></circle>
            <path d="M118.364437,190 L118.364437,172.199367 C93.693662,170.490506 83.1408451,156.962025 82,139.018987 L103.105634,139.018987 C104.103873,147.278481 107.098592,153.971519 118.364437,155.68038 L118.364437,128.196203 C95.6901408,124.636076 84.8521127,116.376582 84.8521127,97.5791139 C84.8521127,81.2025316 97.971831,69.0981013 118.364437,67.6740506 L118.364437,55 L128.489437,55 L128.489437,67.8164557 C147.883803,69.5253165 159.577465,79.2088608 161.288732,97.5791139 L140.896127,97.5791139 C139.612676,90.1740506 136.047535,85.6170886 128.489437,84.193038 L128.489437,109.683544 C149.880282,112.958861 163,120.079114 163,139.873418 C163,156.962025 151.021127,170.632911 128.489437,172.199367 L128.489437,190 L118.364437,190 Z M142,141.571429 C142,134.714286 139.021277,131.285714 128,129 L128,155 C136.638298,153.571429 142,148.571429 142,141.571429 Z M106,95.7869822 C106,102.319527 108.428571,105.869822 119,108 L119,84 C110.571429,85.1360947 106,89.8224852 106,95.7869822 Z" id="Shape" fill="url(#linearGradient-11)"></path>
        </g>
        <g id="Dollar" transform="translate(393.902818, 584.196353)">
            <path d="M12,-2.84217094e-14 L588.097182,-2.66453526e-14 C594.724599,-2.78665979e-14 600.097182,5.372583 600.097182,12 L600.097182,348.168303 C600.097182,354.79572 594.724599,360.168303 588.097182,360.168303 L12,360.168303 C5.372583,360.168303 -2.18713936e-14,354.79572 -5.5067062e-14,348.168303 L-5.5067062e-14,12 C-5.58442181e-14,5.372583 5.372583,-2.54241073e-14 12,-2.84217094e-14 Z" id="Shape" fill="#00ADFF"></path>
            <path d="M97.5674282,20 L502.206033,20 C504.362217,61.4612248 538.284174,94.5160586 580.097182,95.2897789 L580.097182,263.817514 C537.928121,264.597823 503.785073,298.211357 502.157876,340.168279 L97.4339853,340.168303 C94.8272076,299.280884 61.3121068,266.796332 20.000005,265.825972 L20,97.2813214 C62.2972209,96.2878218 96.4211531,62.2592594 97.567428,20.0000078 L97.5674282,20 Z" id="Shape" fill="#4BC4FC"></path>
            <circle id="Shape" fill="#00ADFF" cx="300.097182" cy="179.803647" r="109"></circle>
            <path d="M296.625351,234.803647 L296.625351,220.299427 C275.914083,218.907022 267.054928,207.883815 266.097182,193.263562 L283.815492,193.263562 C284.65352,199.99352 287.167604,205.447106 296.625351,206.839512 L296.625351,184.444997 C277.590139,181.544153 268.491548,174.814195 268.491548,159.497739 C268.491548,146.153858 279.505632,136.290988 296.625351,135.130651 L296.625351,124.803647 L305.125351,124.803647 L305.125351,135.246685 C321.407041,136.63909 331.223942,144.529385 332.660562,159.497739 L315.540844,159.497739 C314.463379,153.463984 311.470421,149.750904 305.125351,148.590566 L305.125351,169.360609 C323.083097,172.029385 334.097182,177.831073 334.097182,193.959765 C334.097182,207.883815 324.040844,219.023056 305.125351,220.299427 L305.125351,234.803647 L296.625351,234.803647 Z M317.097182,195.324775 C317.097182,189.64221 314.685834,186.800928 305.763848,184.906739 L305.763848,206.453131 C312.756756,205.269263 317.097182,201.125727 317.097182,195.324775 Z M286.497182,158.086145 C286.497182,163.333507 288.614398,166.185334 297.830515,167.89643 L297.830515,148.61808 C290.48253,149.530664 286.497182,153.295076 286.497182,158.086145 Z" id="Shape" fill="#4BC4FC"></path>
        </g>
        <g id="Thophy" transform="translate(591.060188, 201.000000)">
            <path d="M534.939812,378 L621.509671,378 C657.2281,378 688.61898,354.321815 698.431587,319.97769 L733.141092,198.494423 C733.651614,196.707593 733.910613,194.858331 733.910613,193 C733.910613,181.954305 724.956308,173 713.910613,173 L534.939812,173 L534.939812,378 Z M514.939812,133 L713.910613,133 C747.047698,133 773.910613,159.862915 773.910613,193 C773.910613,198.574992 773.133618,204.12278 771.60205,209.483268 L736.892545,330.966535 C722.173634,382.482722 675.087314,418 621.509671,418 L514.939812,418 C503.894117,418 494.939812,409.045695 494.939812,398 L494.939812,153 C494.939812,141.954305 503.894117,133 514.939812,133 Z M60,173 C48.954305,173 40,181.954305 40,193 C40,194.858331 40.2589984,196.707593 40.769521,198.494423 L75.4790261,319.97769 C85.2916331,354.321815 116.682513,378 152.400942,378 L238.970801,378 L238.970801,173 L60,173 Z M278.970801,153 L278.970801,398 C278.970801,409.045695 270.016496,418 258.970801,418 L152.400942,418 C98.8232988,418 51.7369787,382.482722 37.0180682,330.966535 L2.30856314,209.483268 C0.776995148,204.12278 -1.13686838e-13,198.574992 -1.13686838e-13,193 C-1.13686838e-13,159.862915 26.862915,133 60,133 L258.970801,133 C270.016496,133 278.970801,141.954305 278.970801,153 Z M325.939812,473 L432.939812,473 L432.939812,646 L325.939812,646 L325.939812,473 Z" id="Shape" fill="url(#linearGradient-12)"></path>
            <path d="M305.939812,600 L452.939812,600 C508.168287,600 552.939812,644.771525 552.939812,700 L552.939812,743 L205.939812,743 L205.939812,700 C205.939812,644.771525 250.711337,600 305.939812,600 Z" id="Shape" fill="url(#linearGradient-13)"></path>
            <path d="M375.939812,600 L452.939812,600 C508.168287,600 552.939812,644.771525 552.939812,700 L552.939812,743 L275.939812,743 L275.939812,700 C275.939812,644.771525 320.711337,600 375.939812,600 Z" id="Shape" fill="url(#linearGradient-14)"></path>
            <path d="M199.939812,718 L558.939812,718 C561.148951,718 562.939812,719.790861 562.939812,722 L562.939812,739 C562.939812,741.209139 561.148951,743 558.939812,743 L199.939812,743 C197.730673,743 195.939812,741.209139 195.939812,739 L195.939812,722 C195.939812,719.790861 197.730673,718 199.939812,718 Z" id="Shape" fill="url(#linearGradient-15)"></path>
            <path d="M122.939812,35 L634.939812,35 C626.712329,110.986431 616.712329,193.653098 604.939812,283 C587.281036,417.020353 490.652924,495 377.939812,495 C265.2267,495 169.312809,417.020353 152.939812,283 C142.024481,193.653098 132.024481,110.986431 122.939812,35 Z" id="Shape" fill="url(#linearGradient-16)"></path>
            <path d="M122.939812,35 L271.939812,35 C278.606479,98.3333333 285.273145,175.705297 291.939812,267.115891 C301.939812,404.231782 315.939812,419 377.939812,495 C265.2267,495 169.312809,417.020353 152.939812,283 C142.024481,193.653098 132.024481,110.986431 122.939812,35 Z" id="Shape" fill="url(#linearGradient-17)"></path>
            <path d="M112.939812,-1.49213975e-13 L644.939812,-1.49213975e-13 C655.985507,-1.51243036e-13 664.939812,8.954305 664.939812,20 L664.939812,70 C664.939812,81.045695 655.985507,90 644.939812,90 L112.939812,90 C101.894117,90 92.9398121,81.045695 92.9398121,70 L92.9398121,20 C92.9398121,8.954305 101.894117,-1.47184913e-13 112.939812,-1.49213975e-13 Z" id="Shape" fill="#0737A3"></path>
            <path d="M268.939812,-1.84741111e-13 L644.939812,-1.84741111e-13 C655.985507,-1.57338529e-13 664.939812,8.954305 664.939812,20 L664.939812,70 C664.939812,81.045695 655.985507,90 644.939812,90 L276.939812,90 L268.939812,-1.84741111e-13 Z" id="Shape" fill="url(#linearGradient-18)"></path>
        </g>
        <g id="Credit-card" transform="translate(407.000000, 267.000000)">
            <path d="M12,0 L327,0 C333.627417,-1.21743675e-15 339,5.372583 339,12 L339,192 C339,198.627417 333.627417,204 327,204 L12,204 C5.372583,204 8.11624501e-16,198.627417 0,192 L0,12 C-8.11624501e-16,5.372583 5.372583,1.21743675e-15 12,0 Z" id="Shape" fill="url(#linearGradient-19)"></path>
            <path d="M0,34 L339,34 L339,75 L0,75 L0,34 Z M281,178 C268.297451,178 258,167.702549 258,155 C258,142.297451 268.297451,132 281,132 C293.702549,132 304,142.297451 304,155 C304,167.702549 293.702549,178 281,178 Z" id="Shape" fill="url(#linearGradient-20)"></path>
            <path d="M27,132 L81,132 L81,146 L27,146 L27,132 Z M27,163 L68,163 L68,177 L27,177 L27,163 Z M95,132 L163,132 L163,146 L95,146 L95,132 Z M81,163 L129,163 L129,177 L81,177 L81,163 Z M258,178 C245.297451,178 235,167.702549 235,155 C235,142.297451 245.297451,132 258,132 C270.702549,132 281,142.297451 281,155 C281,167.702549 270.702549,178 258,178 Z" id="Shape" fill="#FFFFFF"></path>
        </g>
        <g id="Men" transform="translate(145.460946, 353.000000)">
            <polygon id="Shape" fill="#F4B696" points="193.740604 461 215.368511 461 215.368511 482.614907 193.740604 482.614907"></polygon>
            <path d="M192.539054,480.213251 L215.255649,480.213251 L229.645757,485.016563 C236.896925,487.584847 243.00417,488.633058 243.00417,496.678172 C243.00417,498.744837 241.634836,500.420199 239.945678,500.420199 L197.339054,500.420199 C194.688087,500.420199 192.539054,498.271166 192.539054,495.620199 L192.539054,480.213251 Z" id="Shape" fill="#021038"></path>
            <polygon id="Shape" fill="#F4B696" points="72.5390537 557 94.1669606 557 94.1669606 578.614907 72.5390537 578.614907"></polygon>
            <path d="M83.5390537,571 C92.9278944,571 100.539054,578.611159 100.539054,588 L100.539054,591.34357 L66.5390537,591.34357 L66.5390537,588 C66.5390537,578.611159 74.1502129,571 83.5390537,571 Z" id="Shape" fill="#021038"></path>
            <path d="M162.073937,180.708726 L194.358605,173.416777 L194.358605,216.622401 C194.358605,221.580011 192.51732,226.360931 189.1919,230.037816 L155.539054,267.247445 L142.418818,254 L167.644274,217.015808 L162.073937,180.708726 Z" id="Shape" fill="#F4B696"></path>
            <path d="M139.089825,271.943482 L156.838476,282.033259 L218.819483,340.031396 C223.084288,344.022147 225.391469,349.677802 225.135061,355.512947 L220.06133,470.977288 L188.262898,470.977288 L178.349473,373.512323 L109.053009,337.12785 L99.5342089,562 L66.7816483,562 L42.5390537,282.033259 L56.9640124,254 L139.089825,271.943482 Z" id="Shape" fill="#312C74"></path>
            <path d="M45.1818755,282 L48.1818755,159.94385 L41.4921869,183.720928 L1.98061243,177.112621 C5.11466205,124.183247 36.7001514,96.7765953 96.7370804,94.8926678 C156.774009,93.0087404 189.936997,121.255681 196.226043,179.633489 L159.964697,185.532417 L154.675518,159.94385 L156.964697,282 L45.1818755,282 Z" id="Shape" fill="url(#linearGradient-21)"></path>
            <path d="M140.527075,8.43960335 C145.709528,6.67318891 143.635155,24.3369209 134.332576,30.600136 C134.335508,32.1303797 134.296052,33.3724248 134.296052,34.1719679 L134.296052,50.8415521 C134.296052,57.7863822 131.180021,65.5091945 124.947957,74.0099891 L71.4403902,75.049471 C63.0307552,69.6422823 58.8259376,61.3504601 58.8259376,50.1740044 C58.8259376,33.4093209 56.1086102,12.7577599 68.5782867,16.7393251 C69.0544476,8.1815869 74.4861925,2.96509998 84.8735217,1.08986435 C100.454515,-1.72298911 109.829266,1.2824447 122.712815,5.8457435 C123.141582,5.99761094 123.554639,6.16565963 123.952558,6.34881352 C131.873963,8.80893053 137.398801,9.50586027 140.527075,8.43960335 Z" id="Shape" fill="#221E41"></path>
            <path d="M81.7682194,69.6149936 L111.396628,69.6149936 L114.474466,100.903214 C114.532004,101.488133 114.560826,102.075521 114.560826,102.663263 C114.560826,112.59246 106.511621,120.641665 96.5824239,120.641665 C95.994682,120.641665 95.4072936,120.612844 94.822375,120.555305 C84.9408731,119.583257 77.7183338,110.784716 78.690382,100.903214 L81.7682194,69.6149936 Z" id="Shape" fill="#FF7272"></path>
            <path d="M65.1984061,65.5052593 C68.3508414,85.096865 78.8509544,94.8926678 96.698745,94.8926678 C114.546536,94.8926678 124.920359,85.096865 127.820214,65.5052593 C132.585314,63.7119651 134.795129,60.9832769 134.449661,57.3191946 C133.93146,51.8230712 130.863945,49.8508401 125.291596,52.6412617 C125.291596,46.1593726 125.291596,40.8922941 125.291596,36.8400261 C98.566701,43.4227691 79.4342764,41.2818771 67.894322,30.41735 C68.6328237,43.0353228 68.6328237,49.9730421 67.894322,51.2305079 C62.277598,50.2943295 59.1879153,51.9143609 58.6252741,56.090602 C58.0626328,60.2668431 60.2536768,63.4050622 65.1984061,65.5052593 Z" id="Shape" fill="#F4B696"></path>
            <path d="M37.6168599,183.095701 L26.8789353,222.60675 L66.5390537,292.43459 L55.4910288,306 L2.02598062,235.349898 C0.43301725,233.244915 -0.263007169,230.595454 0.0897027779,227.979334 L6.83823541,177.924129 L37.6168599,183.095701 Z" id="Shape" fill="#F4B696"></path>
        </g>
    </g>
</svg>