<?xml version="1.0" encoding="UTF-8"?>
<svg width="1440px" height="1024px" viewBox="0 0 1440 1024" version="1.1" xmlns="http://www.w3.org/2000/svg" xmlns:xlink="http://www.w3.org/1999/xlink">
    <!-- Generator: Sketch 53.2 (72643) - https://sketchapp.com -->
    <title>Business Schedule</title>
    <desc>Created with Sketch.</desc>
    <defs>
        <linearGradient x1="50%" y1="0%" x2="50%" y2="100%" id="linearGradient-1">
            <stop stop-color="#FF9485" offset="0%"></stop>
            <stop stop-color="#FF676E" offset="100%"></stop>
        </linearGradient>
        <linearGradient x1="50%" y1="7.26438915%" x2="50%" y2="151.05781%" id="linearGradient-2">
            <stop stop-color="#D0F6FF" offset="0%"></stop>
            <stop stop-color="#8BE2F7" offset="100%"></stop>
        </linearGradient>
        <linearGradient x1="8.38174197%" y1="42.8596548%" x2="56.5702499%" y2="50%" id="linearGradient-3">
            <stop stop-color="#CFE49F" offset="0%"></stop>
            <stop stop-color="#A9D386" offset="100%"></stop>
        </linearGradient>
        <linearGradient x1="50%" y1="0%" x2="50%" y2="143.743183%" id="linearGradient-4">
            <stop stop-color="#FFC8C0" offset="0%"></stop>
            <stop stop-color="#FF676E" offset="100%"></stop>
        </linearGradient>
        <linearGradient x1="8.38174197%" y1="31.2307029%" x2="56.5702499%" y2="50%" id="linearGradient-5">
            <stop stop-color="#CFE49F" offset="0%"></stop>
            <stop stop-color="#A9D386" offset="100%"></stop>
        </linearGradient>
        <linearGradient x1="44.7064793%" y1="3.88170857%" x2="54.943122%" y2="56.9243345%" id="linearGradient-6">
            <stop stop-color="#77D791" offset="0%"></stop>
            <stop stop-color="#4FA67E" offset="100%"></stop>
        </linearGradient>
        <linearGradient x1="4.76643799%" y1="41.0625251%" x2="100%" y2="60.6878325%" id="linearGradient-7">
            <stop stop-color="#6EAE7C" offset="0%"></stop>
            <stop stop-color="#0F575D" offset="100%"></stop>
        </linearGradient>
        <linearGradient x1="50%" y1="7.26438915%" x2="50%" y2="151.05781%" id="linearGradient-8">
            <stop stop-color="#D0F6FF" offset="0%"></stop>
            <stop stop-color="#8BE2F7" offset="100%"></stop>
        </linearGradient>
        <linearGradient x1="50%" y1="0%" x2="50%" y2="100%" id="linearGradient-9">
            <stop stop-color="#FF9485" offset="0%"></stop>
            <stop stop-color="#FF676E" offset="100%"></stop>
        </linearGradient>
        <linearGradient x1="50%" y1="48.8626713%" x2="100%" y2="50.8954835%" id="linearGradient-10">
            <stop stop-color="#0F1752" offset="0%"></stop>
            <stop stop-color="#272884" offset="100%"></stop>
        </linearGradient>
        <linearGradient x1="50%" y1="0%" x2="50%" y2="91.8482298%" id="linearGradient-11">
            <stop stop-color="#EAFCFF" offset="0%"></stop>
            <stop stop-color="#FFFFFF" offset="100%"></stop>
        </linearGradient>
        <linearGradient x1="50%" y1="0%" x2="50%" y2="100%" id="linearGradient-12">
            <stop stop-color="#FF9485" offset="0%"></stop>
            <stop stop-color="#FF676E" offset="100%"></stop>
        </linearGradient>
        <linearGradient x1="50%" y1="-2.48949813e-15%" x2="50%" y2="100%" id="linearGradient-13">
            <stop stop-color="#4DBCFA" offset="0%"></stop>
            <stop stop-color="#1486DB" offset="100%"></stop>
        </linearGradient>
        <linearGradient x1="50%" y1="0%" x2="50%" y2="69.6197333%" id="linearGradient-14">
            <stop stop-color="#4DBCFA" offset="0%"></stop>
            <stop stop-color="#1486DB" offset="100%"></stop>
        </linearGradient>
        <linearGradient x1="82.5767258%" y1="-52.951376%" x2="82.5767258%" y2="186.664812%" id="linearGradient-15">
            <stop stop-color="#1533B6" offset="0%"></stop>
            <stop stop-color="#356BE9" offset="100%"></stop>
        </linearGradient>
        <linearGradient x1="50%" y1="0%" x2="50%" y2="100%" id="linearGradient-16">
            <stop stop-color="#1D2A78" offset="0%"></stop>
            <stop stop-color="#12033B" offset="100%"></stop>
        </linearGradient>
        <linearGradient x1="50%" y1="0%" x2="50%" y2="100%" id="linearGradient-17">
            <stop stop-color="#FF9485" offset="0%"></stop>
            <stop stop-color="#FF676E" offset="100%"></stop>
        </linearGradient>
    </defs>
    <g id="Business-Schedule" stroke="none" stroke-width="1" fill="none" fill-rule="evenodd">
        <rect fill="#FFFFFF" x="0" y="0" width="1440" height="1024"></rect>
        <g id="Ornament" transform="translate(521.000000, 143.000000)">
            <path d="M701.817615,182.579399 C701.817615,185.01417 699.843724,186.987942 697.408807,186.987942 C694.97389,186.987942 693,185.01417 693,182.579399 C693,180.144628 694.97389,178.170856 697.408807,178.170856 C699.843724,178.170856 701.817615,180.144628 701.817615,182.579399 Z M701.817615,164.945228 C701.817615,167.379999 699.843724,169.353771 697.408807,169.353771 C694.97389,169.353771 693,167.379999 693,164.945228 C693,162.510457 694.97389,160.536685 697.408807,160.536685 C699.843724,160.536685 701.817615,162.510457 701.817615,164.945228 Z M701.817615,147.311057 C701.817615,149.745828 699.843724,151.719599 697.408807,151.719599 C694.97389,151.719599 693,149.745828 693,147.311057 C693,144.876286 694.97389,142.902514 697.408807,142.902514 C699.843724,142.902514 701.817615,144.876286 701.817615,147.311057 Z M701.817615,129.676885 C701.817615,132.111656 699.843724,134.085428 697.408807,134.085428 C694.97389,134.085428 693,132.111656 693,129.676885 C693,127.242114 694.97389,125.268343 697.408807,125.268343 C699.843724,125.268343 701.817615,127.242114 701.817615,129.676885 Z M701.817615,112.042714 C701.817615,114.477485 699.843724,116.451257 697.408807,116.451257 C694.97389,116.451257 693,114.477485 693,112.042714 C693,109.607943 694.97389,107.634171 697.408807,107.634171 C699.843724,107.634171 701.817615,109.607943 701.817615,112.042714 Z M701.817615,94.4085428 C701.817615,96.8433138 699.843724,98.8170856 697.408807,98.8170856 C694.97389,98.8170856 693,96.8433138 693,94.4085428 C693,91.9737719 694.97389,90 697.408807,90 C699.843724,90 701.817615,91.9737719 701.817615,94.4085428 Z M719.452844,182.579399 C719.452844,185.01417 717.478954,186.987942 715.044037,186.987942 C712.609119,186.987942 710.635229,185.01417 710.635229,182.579399 C710.635229,180.144628 712.609119,178.170856 715.044037,178.170856 C717.478954,178.170856 719.452844,180.144628 719.452844,182.579399 Z M719.452844,164.945228 C719.452844,167.379999 717.478954,169.353771 715.044037,169.353771 C712.609119,169.353771 710.635229,167.379999 710.635229,164.945228 C710.635229,162.510457 712.609119,160.536685 715.044037,160.536685 C717.478954,160.536685 719.452844,162.510457 719.452844,164.945228 Z M719.452844,147.311057 C719.452844,149.745828 717.478954,151.719599 715.044037,151.719599 C712.609119,151.719599 710.635229,149.745828 710.635229,147.311057 C710.635229,144.876286 712.609119,142.902514 715.044037,142.902514 C717.478954,142.902514 719.452844,144.876286 719.452844,147.311057 Z M719.452844,129.676885 C719.452844,132.111656 717.478954,134.085428 715.044037,134.085428 C712.609119,134.085428 710.635229,132.111656 710.635229,129.676885 C710.635229,127.242114 712.609119,125.268343 715.044037,125.268343 C717.478954,125.268343 719.452844,127.242114 719.452844,129.676885 Z M719.452844,112.042714 C719.452844,114.477485 717.478954,116.451257 715.044037,116.451257 C712.609119,116.451257 710.635229,114.477485 710.635229,112.042714 C710.635229,109.607943 712.609119,107.634171 715.044037,107.634171 C717.478954,107.634171 719.452844,109.607943 719.452844,112.042714 Z M719.452844,94.4085428 C719.452844,96.8433138 717.478954,98.8170856 715.044037,98.8170856 C712.609119,98.8170856 710.635229,96.8433138 710.635229,94.4085428 C710.635229,91.9737719 712.609119,90 715.044037,90 C717.478954,90 719.452844,91.9737719 719.452844,94.4085428 Z M737.088073,182.579399 C737.088073,185.01417 735.114183,186.987942 732.679266,186.987942 C730.244349,186.987942 728.270458,185.01417 728.270458,182.579399 C728.270458,180.144628 730.244349,178.170856 732.679266,178.170856 C735.114183,178.170856 737.088073,180.144628 737.088073,182.579399 Z M737.088073,164.945228 C737.088073,167.379999 735.114183,169.353771 732.679266,169.353771 C730.244349,169.353771 728.270458,167.379999 728.270458,164.945228 C728.270458,162.510457 730.244349,160.536685 732.679266,160.536685 C735.114183,160.536685 737.088073,162.510457 737.088073,164.945228 Z M737.088073,147.311057 C737.088073,149.745828 735.114183,151.719599 732.679266,151.719599 C730.244349,151.719599 728.270458,149.745828 728.270458,147.311057 C728.270458,144.876286 730.244349,142.902514 732.679266,142.902514 C735.114183,142.902514 737.088073,144.876286 737.088073,147.311057 Z M737.088073,129.676885 C737.088073,132.111656 735.114183,134.085428 732.679266,134.085428 C730.244349,134.085428 728.270458,132.111656 728.270458,129.676885 C728.270458,127.242114 730.244349,125.268343 732.679266,125.268343 C735.114183,125.268343 737.088073,127.242114 737.088073,129.676885 Z M737.088073,112.042714 C737.088073,114.477485 735.114183,116.451257 732.679266,116.451257 C730.244349,116.451257 728.270458,114.477485 728.270458,112.042714 C728.270458,109.607943 730.244349,107.634171 732.679266,107.634171 C735.114183,107.634171 737.088073,109.607943 737.088073,112.042714 Z M737.088073,94.4085428 C737.088073,96.8433138 735.114183,98.8170856 732.679266,98.8170856 C730.244349,98.8170856 728.270458,96.8433138 728.270458,94.4085428 C728.270458,91.9737719 730.244349,90 732.679266,90 C735.114183,90 737.088073,91.9737719 737.088073,94.4085428 Z M754.723302,182.579399 C754.723302,185.01417 752.749412,186.987942 750.314495,186.987942 C747.879578,186.987942 745.905688,185.01417 745.905688,182.579399 C745.905688,180.144628 747.879578,178.170856 750.314495,178.170856 C752.749412,178.170856 754.723302,180.144628 754.723302,182.579399 Z M754.723302,164.945228 C754.723302,167.379999 752.749412,169.353771 750.314495,169.353771 C747.879578,169.353771 745.905688,167.379999 745.905688,164.945228 C745.905688,162.510457 747.879578,160.536685 750.314495,160.536685 C752.749412,160.536685 754.723302,162.510457 754.723302,164.945228 Z M754.723302,147.311057 C754.723302,149.745828 752.749412,151.719599 750.314495,151.719599 C747.879578,151.719599 745.905688,149.745828 745.905688,147.311057 C745.905688,144.876286 747.879578,142.902514 750.314495,142.902514 C752.749412,142.902514 754.723302,144.876286 754.723302,147.311057 Z M754.723302,129.676885 C754.723302,132.111656 752.749412,134.085428 750.314495,134.085428 C747.879578,134.085428 745.905688,132.111656 745.905688,129.676885 C745.905688,127.242114 747.879578,125.268343 750.314495,125.268343 C752.749412,125.268343 754.723302,127.242114 754.723302,129.676885 Z M754.723302,112.042714 C754.723302,114.477485 752.749412,116.451257 750.314495,116.451257 C747.879578,116.451257 745.905688,114.477485 745.905688,112.042714 C745.905688,109.607943 747.879578,107.634171 750.314495,107.634171 C752.749412,107.634171 754.723302,109.607943 754.723302,112.042714 Z M754.723302,94.4085428 C754.723302,96.8433138 752.749412,98.8170856 750.314495,98.8170856 C747.879578,98.8170856 745.905688,96.8433138 745.905688,94.4085428 C745.905688,91.9737719 747.879578,90 750.314495,90 C752.749412,90 754.723302,91.9737719 754.723302,94.4085428 Z M772.358531,182.579399 C772.358531,185.01417 770.384641,186.987942 767.949724,186.987942 C765.514807,186.987942 763.540917,185.01417 763.540917,182.579399 C763.540917,180.144628 765.514807,178.170856 767.949724,178.170856 C770.384641,178.170856 772.358531,180.144628 772.358531,182.579399 Z M772.358531,164.945228 C772.358531,167.379999 770.384641,169.353771 767.949724,169.353771 C765.514807,169.353771 763.540917,167.379999 763.540917,164.945228 C763.540917,162.510457 765.514807,160.536685 767.949724,160.536685 C770.384641,160.536685 772.358531,162.510457 772.358531,164.945228 Z M772.358531,147.311057 C772.358531,149.745828 770.384641,151.719599 767.949724,151.719599 C765.514807,151.719599 763.540917,149.745828 763.540917,147.311057 C763.540917,144.876286 765.514807,142.902514 767.949724,142.902514 C770.384641,142.902514 772.358531,144.876286 772.358531,147.311057 Z M772.358531,129.676885 C772.358531,132.111656 770.384641,134.085428 767.949724,134.085428 C765.514807,134.085428 763.540917,132.111656 763.540917,129.676885 C763.540917,127.242114 765.514807,125.268343 767.949724,125.268343 C770.384641,125.268343 772.358531,127.242114 772.358531,129.676885 Z M772.358531,112.042714 C772.358531,114.477485 770.384641,116.451257 767.949724,116.451257 C765.514807,116.451257 763.540917,114.477485 763.540917,112.042714 C763.540917,109.607943 765.514807,107.634171 767.949724,107.634171 C770.384641,107.634171 772.358531,109.607943 772.358531,112.042714 Z M772.358531,94.4085428 C772.358531,96.8433138 770.384641,98.8170856 767.949724,98.8170856 C765.514807,98.8170856 763.540917,96.8433138 763.540917,94.4085428 C763.540917,91.9737719 765.514807,90 767.949724,90 C770.384641,90 772.358531,91.9737719 772.358531,94.4085428 Z M789.993761,182.579399 C789.993761,185.01417 788.01987,186.987942 785.584953,186.987942 C783.150036,186.987942 781.176146,185.01417 781.176146,182.579399 C781.176146,180.144628 783.150036,178.170856 785.584953,178.170856 C788.01987,178.170856 789.993761,180.144628 789.993761,182.579399 Z M789.993761,164.945228 C789.993761,167.379999 788.01987,169.353771 785.584953,169.353771 C783.150036,169.353771 781.176146,167.379999 781.176146,164.945228 C781.176146,162.510457 783.150036,160.536685 785.584953,160.536685 C788.01987,160.536685 789.993761,162.510457 789.993761,164.945228 Z M789.993761,147.311057 C789.993761,149.745828 788.01987,151.719599 785.584953,151.719599 C783.150036,151.719599 781.176146,149.745828 781.176146,147.311057 C781.176146,144.876286 783.150036,142.902514 785.584953,142.902514 C788.01987,142.902514 789.993761,144.876286 789.993761,147.311057 Z M789.993761,129.676885 C789.993761,132.111656 788.01987,134.085428 785.584953,134.085428 C783.150036,134.085428 781.176146,132.111656 781.176146,129.676885 C781.176146,127.242114 783.150036,125.268343 785.584953,125.268343 C788.01987,125.268343 789.993761,127.242114 789.993761,129.676885 Z M789.993761,112.042714 C789.993761,114.477485 788.01987,116.451257 785.584953,116.451257 C783.150036,116.451257 781.176146,114.477485 781.176146,112.042714 C781.176146,109.607943 783.150036,107.634171 785.584953,107.634171 C788.01987,107.634171 789.993761,109.607943 789.993761,112.042714 Z M789.993761,94.4085428 C789.993761,96.8433138 788.01987,98.8170856 785.584953,98.8170856 C783.150036,98.8170856 781.176146,96.8433138 781.176146,94.4085428 C781.176146,91.9737719 783.150036,90 785.584953,90 C788.01987,90 789.993761,91.9737719 789.993761,94.4085428 Z" id="Shape" fill="url(#linearGradient-1)"></path>
            <circle id="Shape" fill="url(#linearGradient-2)" cx="690" cy="233" r="98"></circle>
            <path d="M234,0 C289.228475,1.0658141e-14 334,44.771525 334,100 L334,147 L100,147 C44.771525,147 0,102.228475 0,47 L0,0 L234,0 Z" id="Shape" fill="url(#linearGradient-3)"></path>
            <path d="M327,762 C327,643.811064 422.487378,548 540.277027,548 C658.066677,548 753.554054,643.811064 753.554054,762 L327,762 Z" id="Shape" fill="url(#linearGradient-4)"></path>
        </g>
        <g id="Plant" transform="translate(70.000000, 587.000000)">
            <path d="M199,188.174269 C142.719017,213.593114 97.7234642,213.271218 64.0133428,187.20858 C30.3032215,161.145943 8.96544052,124.033496 0,75.8712405 C105.372053,44.2283274 171.705387,81.6626704 199,188.174269 Z" id="Shape" fill="url(#linearGradient-5)"></path>
            <path d="M115.89853,142.470656 C103.751316,135.579494 90.2443015,127.943142 75.3776565,119.561698 L40.892016,127.819418 C40.2802333,127.965912 39.665953,127.586943 39.5199824,126.972968 C39.3740118,126.358992 39.7516271,125.742511 40.3634098,125.596017 L72.451652,117.912363 C53.8970542,107.455192 33.2742461,95.8646208 10.5835455,83.1408384 C10.0344845,82.8329531 9.83808165,82.1366657 10.1448674,81.5856369 C10.4516531,81.0346081 11.145454,80.8375013 11.694515,81.1453866 C53.1251551,104.377567 87.6617264,123.831731 115.306161,139.509018 L111.739126,104.426202 C111.584986,102.910198 113.850871,102.678161 114.00501,104.194164 L117.735765,140.887202 C154.592735,161.79948 178.829942,175.796159 190.452172,182.880068 C190.989749,183.207729 191.160869,183.910705 190.834378,184.450209 C190.507888,184.989712 189.807422,185.161445 189.269845,184.833785 C182.315586,180.595068 170.826387,173.871062 154.803279,164.662373 C154.761111,164.684157 154.717118,164.703541 154.671409,164.720293 L123.156017,176.270705 C122.565224,176.487231 121.91139,176.182112 121.695637,175.589201 C121.479885,174.996291 121.783915,174.340113 122.374708,174.123587 L152.226934,163.182727 C141.98523,157.304619 129.997135,150.469451 116.262897,142.67737 C116.130357,142.632944 116.00606,142.56433 115.89853,142.470656 Z" id="Shape" fill="#FFFFFF" fill-rule="nonzero"></path>
            <path d="M186.397111,220 C128.543838,198.081935 96.8676044,166.008613 91.3684105,123.780034 C85.8692165,81.5514554 96.9446186,40.291444 124.594617,0 C221.65003,52.2763031 242.250861,125.609636 186.397111,220 Z" id="Shape" fill="url(#linearGradient-6)" fill-rule="nonzero"></path>
            <path d="M162.563708,129.304978 C173.864256,170.239804 181.123492,197.331633 184.342806,210.585861 C184.491713,211.198925 184.118297,211.817323 183.508757,211.967091 C182.899218,212.116859 182.284375,211.741283 182.135469,211.128219 C180.209165,203.19744 176.830716,190.29204 172.000421,172.413182 C171.955362,172.398663 171.910703,172.381154 171.866683,172.360566 L141.515869,158.165964 C140.946908,157.899869 140.700146,157.220256 140.96471,156.648004 C141.229275,156.075753 141.904981,155.827563 142.473943,156.093658 L171.223049,169.539167 C168.130029,158.116906 164.47778,144.778947 160.266374,129.525569 C160.204104,129.400123 160.16465,129.263425 160.154641,129.120906 C156.429503,115.630464 152.268924,100.648399 147.672953,84.1749033 L117.541306,65.5450292 C117.006764,65.2145312 116.839813,64.5107721 117.168411,63.9731392 C117.497009,63.4355063 118.196722,63.2675903 118.731264,63.5980883 L146.768197,80.932837 C141.029686,60.375216 134.628875,37.5488955 127.565857,12.4542334 C127.394949,11.8470023 127.745829,11.2153946 128.349569,11.0434981 C128.953309,10.8716016 129.581285,11.22451 129.752193,11.8317411 C142.64846,57.6517416 153.337053,95.9093719 161.818533,126.60681 L183.96233,99.2732765 C184.919211,98.0921359 186.680736,99.5357572 185.723855,100.716898 L162.563708,129.304978 Z" id="Shape" fill="#FFFFFF" fill-rule="nonzero"></path>
            <path d="M244,259.562526 C196.223838,298.760152 152.710901,310.14864 113.461189,293.727992 C74.2114767,277.307343 44.0577471,246.99163 23,202.780852 C116.556202,144.804099 190.222869,163.731324 244,259.562526 Z" id="Shape" fill="url(#linearGradient-7)"></path>
            <path d="M153.169327,234.117219 C194.134683,244.712951 221.136641,251.916434 234.18055,255.729153 C234.783886,255.905508 235.130224,256.538261 234.954118,257.142447 C234.778012,257.746634 234.146149,258.09346 233.542813,257.917105 C225.737881,255.635733 212.91513,252.1352 195.075714,247.415825 C195.040625,247.447727 195.003156,247.477791 194.963353,247.505765 L167.519981,266.793099 C167.005523,267.154663 166.29578,267.030129 165.934725,266.514946 C165.57367,265.999763 165.698028,265.289019 166.212486,264.927456 L192.207586,246.657974 C180.806972,243.649068 167.474018,240.170685 152.208998,236.222899 C152.069616,236.214438 151.931956,236.180546 151.804023,236.118173 C138.303048,232.627071 123.297489,228.770425 106.787534,224.548288 L75.6285754,241.433553 C75.0758088,241.733101 74.3852129,241.527196 74.0860862,240.97365 C73.7869596,240.420104 73.9925754,239.728535 74.545342,239.428987 L103.538169,223.717564 C82.9334951,218.451367 60.0404012,212.629201 34.8592418,206.251166 C34.2499177,206.096833 33.8808986,205.47707 34.0350147,204.866887 C34.1891308,204.256704 34.8080214,203.887165 35.4173455,204.041498 C81.3952802,215.687066 119.745108,225.479396 150.468989,233.419087 L137.984634,200.55283 C137.445158,199.132608 139.572492,198.322254 140.111968,199.742476 L153.169327,234.117219 Z" id="Shape" fill="#FFFFFF" fill-rule="nonzero"></path>
        </g>
        <g id="Calendar" transform="translate(241.000000, 332.000000)">
            <path d="M20,-1.13686838e-13 L590,-1.13686838e-13 C601.045695,-1.13686838e-13 610,8.954305 610,20 L610,553.407278 C610,564.452973 601.045695,573.407278 590,573.407278 L20,573.407278 C8.954305,573.407278 1.13686838e-13,564.452973 1.13686838e-13,553.407278 L1.13686838e-13,20 C1.13686838e-13,8.954305 8.954305,-1.13686838e-13 20,-1.13686838e-13 Z" id="Shape" fill="url(#linearGradient-8)"></path>
            <path d="M40,131 L140,131 L140,231 L40,231 L40,131 Z M40,281 L140,281 L140,381 L40,381 L40,281 Z M40,431 L140,431 L140,531 L40,531 L40,431 Z M325,131 L425,131 L425,231 L325,231 L325,131 Z M325,281 L425,281 L425,381 L325,381 L325,281 Z M325,431 L425,431 L425,531 L325,531 L325,431 Z M183,131 L283,131 L283,231 L183,231 L183,131 Z M183,431 L283,431 L283,531 L183,531 L183,431 Z M468,131 L568,131 L568,231 L468,231 L468,131 Z M468,281 L568,281 L568,381 L468,381 L468,281 Z M468,431 L568,431 L568,531 L468,531 L468,431 Z" id="Shape" fill="#77D0E6"></path>
            <polygon id="Shape" fill="url(#linearGradient-9)" points="183 281 283 281 283 381 183 381"></polygon>
            <path d="M20,-7.10542736e-15 L590,-7.10542736e-15 C601.045695,-7.10542736e-15 610,8.954305 610,20 L610,92 L0,92 L0,20 C0,8.954305 8.954305,-7.10542736e-15 20,-7.10542736e-15 Z" id="Shape" fill="url(#linearGradient-10)"></path>
            <polygon id="Shape" fill="#FFFFFF" fill-rule="nonzero" points="260.743489 306.498423 267.881825 313.501577 223.06378 359.184754 198.494545 335.028324 205.505455 327.897606 222.936215 345.035499"></polygon>
        </g>
        <g id="Clock" transform="translate(137.000000, 145.000000)">
            <circle id="Shape" fill="url(#linearGradient-9)" cx="174" cy="174" r="174"></circle>
            <circle id="Shape" fill="url(#linearGradient-2)" cx="174.5" cy="174.5" r="141.5"></circle>
            <path d="M50.1242038,177.654459 C50.1242038,100.750566 112.467127,38.4076433 189.371019,38.4076433 C203.89132,38.4076433 217.892529,40.6301433 231.053023,44.7535212 C281.053217,66.577842 316,116.457792 316,174.5 C316,252.648292 252.648292,316 174.5,316 C174.134503,316 173.769331,315.998614 173.404486,315.995848 C104.020179,308.075226 50.1242038,249.158882 50.1242038,177.654459 Z" id="Shape" fill="url(#linearGradient-11)"></path>
            <path d="M237.728577,115.129055 C241.523295,111.11633 247.852478,110.939601 251.865202,114.73432 C255.877927,118.529038 256.054655,124.858221 252.259937,128.870945 L167.582967,218.412598 C164.496943,221.675914 159.613807,222.481392 155.643211,220.382073 L99.3259252,190.606202 C94.4434961,188.024781 92.5781598,181.974136 95.15958,177.091707 C97.7410003,172.209278 103.791646,170.343941 108.674075,172.925362 L158.273138,199.149199 L237.728577,115.129055 Z" id="Shape" fill="url(#linearGradient-12)"></path>
        </g>
        <g id="Mail" transform="translate(729.833481, 374.007146)">
            <path d="M17.7942996,143.69185 L550.985356,0.823736818 C563.788542,-2.60686666 576.948629,4.99111309 580.379233,17.7942996 L671.483536,357.80019 C674.91414,370.603377 667.31616,383.763464 654.512974,387.194067 L121.321918,530.06218 C108.518731,533.492784 95.3586442,525.894804 91.9280407,513.091617 L0.823736818,173.085727 C-2.60686666,160.28254 4.99111309,147.122453 17.7942996,143.69185 Z" id="Shape" fill="url(#linearGradient-13)"></path>
            <polygon id="Shape" fill="url(#linearGradient-14)" points="332.012532 249.988145 654.512974 387.194067 121.321918 530.06218"></polygon>
            <polygon id="Shape" fill="#52D7FD" points="17.7942996 143.69185 550.985356 0.823736818 347.069441 306.181295"></polygon>
        </g>
        <g id="Men" transform="translate(897.287204, 125.573246)">
            <polygon id="Shape" fill="#121958" points="65.3309666 334.519248 48.6091819 272.112698 52.0682046 248.143017 122.212886 273.459477 155.226513 310.431809"></polygon>
            <path d="M5.36899683,169.565119 L31.7356799,184.242907 L28.9615467,207.367169 L55.0863807,228.76835 L48.3618275,246.292535 L14.2285234,225.04121 C3.66474056,218.46422 -1.7420681,206.04847 0.638601773,193.834432 L5.36899683,169.565119 Z" id="Shape" fill="#E9A17C"></path>
            <polygon id="Shape" fill="#D64F53" points="38.6321225 90.9927366 52.5945412 143.101192 27.4425892 191.206988 -5.68434189e-14 170.706564 16.5947888 108.882544"></polygon>
            <polygon id="Shape" fill="#E9A17C" points="207.897508 402.313599 208.253688 385.96747 230.601597 388.104711 227.222329 406.259327"></polygon>
            <path d="M116.233387,74.6558084 L276.452616,31.7251954 L281.586741,19.8251954 L284.21782,29.6445153 L303.818723,24.3924692 C304.715692,35.3100075 302.708076,42.777252 297.795875,46.7942027 C292.883674,50.8111534 284.813582,52.9735278 273.585601,53.281326 L126.80208,114.098706 L116.233387,74.6558084 Z" id="Shape" fill="#E9A17C"></path>
            <path d="M69.3449071,89.7374321 L39.54676,92.3444321 L38.5491891,80.9421439 C30.7980003,71.0791508 27.5518779,56.7243709 28.8108219,37.8778042 C30.0697659,19.0312374 44.3329602,12.7792826 71.6004049,19.1219397 C73.2622515,29.789081 76.6677335,36.3194885 81.8168511,38.7131621 C89.5405275,42.3036724 87.8177671,46.4373342 85.3497882,47.8952727 C82.8818092,49.3532111 81.3926925,51.5948187 82.7088845,57.749432 C84.0250766,63.9040453 80.3372527,65.467973 74.639165,68.4435265 C70.8404399,70.4272288 69.0756873,77.5251973 69.3449071,89.7374321 Z" id="Shape" fill="#E9A17C"></path>
            <path d="M58.4252329,255.065189 L144.128884,246.106531 L236.320291,253.348854 C238.183261,253.495205 240.027724,253.821281 241.827953,254.322536 C257.257268,258.618666 266.282498,274.609299 261.986368,290.038615 L233.369116,392.815907 L204.629625,390.527941 L211.80213,295.998172 L129.457537,318.062339 C94.4052132,327.454581 58.3757741,306.652974 48.9835322,271.600651 L58.4252329,255.065189 Z" id="Shape" fill="url(#linearGradient-15)"></path>
            <path d="M205.517398,400.484025 L228.14755,402.463907 L242.064262,408.503122 C249.063997,411.693614 255.056644,413.270118 254.355466,421.284617 C254.175345,423.343418 252.665205,424.89306 250.982474,424.74584 L208.537981,421.032428 C205.897101,420.801381 203.943547,418.473225 204.174594,415.832346 L205.517398,400.484025 Z" id="Shape" fill="#211D41"></path>
            <path d="M38.126042,80.7372759 C35.3470278,80.3635358 33.5075543,79.1036443 32.6076216,76.9576014 C31.2577225,73.7385371 32.8490667,71.7336394 24.6668299,66.3610679 C16.4845931,60.9884964 9.09325601,53.0986748 9.63666988,36.276091 C10.1800838,19.4535072 19.3971388,15.9684176 28.6999911,12.9723523 C38.0028434,9.97628686 42.1096641,10.194884 54.1687396,2.92457164 C66.227815,-4.34574072 74.7448261,2.62808376 74.8770235,16.2393917 C75.009221,29.8506996 55.2923045,33.8770449 51.7378621,34.1880183 C48.1834196,34.4989917 51.0754354,39.281753 52.6419095,44.5213283 C54.2083837,49.7609035 51.0700738,51.6913191 49.653893,51.2240272 C48.2377122,50.7567354 45.3940326,50.484008 43.6602838,53.9651683 C41.9265351,57.4463287 45.3422913,61.5758997 47.2948773,61.4050706 C49.2474634,61.2342414 51.6408155,60.1099528 52.2213087,62.2450215 C52.8018019,64.3800901 53.1734635,71.2735331 51.7587015,75.282099 C50.8155269,77.9544763 46.271307,79.7728686 38.126042,80.7372759 Z" id="Shape" fill="url(#linearGradient-16)"></path>
            <path d="M129.956698,64.1703257 L142.613057,111.404499 L109.004554,120.40987 L142.901218,246.913942 L48.6175892,272.177164 L12.9349666,139.007804 C6.93141054,116.602227 20.2278751,93.5720753 42.6334514,87.5685192 C46.8734828,86.4324062 51.1135141,85.2962933 55.3535454,84.1601803 C64.0925258,81.8185775 88.9602435,75.1552927 129.956698,64.1703257 Z" id="Shape" fill="url(#linearGradient-17)"></path>
            <path d="M95.5168884,267.312643 L96.2011956,266.583449 L101.305552,271.373599 L100.621245,272.102793 L95.5168884,267.312643 Z M107.913184,278.945865 L108.597491,278.216671 L110.536409,280.036236 C111.579994,281.015582 112.67948,281.928975 113.829078,282.772519 L113.237484,283.578755 C112.055496,282.711444 110.925046,281.772328 109.852101,280.76543 L107.913184,278.945865 Z M122.154165,288.378378 L122.501408,287.440603 C124.663646,288.241245 126.899533,288.829752 129.176868,289.19716 L129.017595,290.184394 C126.676119,289.806639 124.37728,289.201562 122.154165,288.378378 Z M139.149155,290.393324 L139.03079,289.400354 C139.143443,289.386804 139.143443,289.386804 139.256062,289.372772 L145.975261,288.527875 L146.100022,289.520062 L139.380792,290.364962 C139.264975,290.379393 139.264975,290.379393 139.149155,290.393324 Z M156.02189,288.27245 L155.897128,287.280263 L162.842436,286.406935 L162.967197,287.399122 L156.02189,288.27245 Z M172.889065,286.15151 L172.764304,285.159323 L179.709612,284.285994 L179.834373,285.278181 L172.889065,286.15151 Z M189.756241,284.030569 L189.63148,283.038382 L196.576787,282.165054 L196.701548,283.157241 L189.756241,284.030569 Z M206.623416,281.909629 L206.498655,280.917442 L213.443963,280.044113 L213.568724,281.0363 L206.623416,281.909629 Z M223.321769,280.730417 L223.563175,279.759993 C225.9664,280.357828 228.147812,281.552422 229.934938,283.221424 L229.252398,283.952272 C227.588687,282.398528 225.558788,281.286906 223.321769,280.730417 Z M233.474113,292.401658 L234.468596,292.296758 C234.593422,293.480141 234.57183,294.681241 234.400126,295.881737 L233.879845,299.432475 L232.89041,299.287495 L233.410445,295.738455 C233.5702,294.621486 233.590304,293.503175 233.474113,292.401658 Z M231.440382,309.181796 L232.429814,309.326799 L231.414793,316.252817 L230.425362,316.107814 L231.440382,309.181796 Z M228.975332,326.002127 L229.964763,326.14713 L228.949743,333.073148 L227.960311,332.928145 L228.975332,326.002127 Z M226.510282,342.822457 L227.499713,342.96746 L226.484692,349.893479 L225.495261,349.748476 L226.510282,342.822457 Z M224.045231,359.642788 L225.034663,359.787791 L224.019642,366.71381 L223.030211,366.568807 L224.045231,359.642788 Z M221.580181,376.463119 L222.569612,376.608122 L221.554592,383.53414 L220.56516,383.389138 L221.580181,376.463119 Z" id="Shape" fill="#FFFFFF" fill-rule="nonzero"></path>
        </g>
    </g>
</svg>