<?xml version="1.0" encoding="UTF-8"?>
<svg width="1440px" height="1024px" viewBox="0 0 1440 1024" version="1.1" xmlns="http://www.w3.org/2000/svg" xmlns:xlink="http://www.w3.org/1999/xlink">
    <!-- Generator: Sketch 53.2 (72643) - https://sketchapp.com -->
    <title>Company</title>
    <desc>Created with Sketch.</desc>
    <defs>
        <linearGradient x1="34.1151714%" y1="3.88724169%" x2="64.8333502%" y2="56.9235037%" id="linearGradient-1">
            <stop stop-color="#77D791" offset="0%"></stop>
            <stop stop-color="#4FA67E" offset="100%"></stop>
        </linearGradient>
        <linearGradient x1="50%" y1="7.26438915%" x2="50%" y2="151.05781%" id="linearGradient-2">
            <stop stop-color="#D0F6FF" offset="0%"></stop>
            <stop stop-color="#8BE2F7" offset="100%"></stop>
        </linearGradient>
        <linearGradient x1="50%" y1="-2.48949813e-15%" x2="50%" y2="224.518265%" id="linearGradient-3">
            <stop stop-color="#4DBCFA" offset="0%"></stop>
            <stop stop-color="#1486DB" offset="100%"></stop>
        </linearGradient>
        <linearGradient x1="50%" y1="-2.48949813e-15%" x2="50%" y2="224.518265%" id="linearGradient-4">
            <stop stop-color="#4DBCFA" offset="0%"></stop>
            <stop stop-color="#1486DB" offset="100%"></stop>
        </linearGradient>
        <linearGradient x1="50%" y1="-2.48949813e-15%" x2="50%" y2="224.518265%" id="linearGradient-5">
            <stop stop-color="#4DBCFA" offset="0%"></stop>
            <stop stop-color="#1486DB" offset="100%"></stop>
        </linearGradient>
        <linearGradient x1="50%" y1="-2.48949813e-15%" x2="50%" y2="224.518265%" id="linearGradient-6">
            <stop stop-color="#4DBCFA" offset="0%"></stop>
            <stop stop-color="#1486DB" offset="100%"></stop>
        </linearGradient>
        <linearGradient x1="50%" y1="0%" x2="50%" y2="143.743183%" id="linearGradient-7">
            <stop stop-color="#FFC8C0" offset="0%"></stop>
            <stop stop-color="#FF676E" offset="100%"></stop>
        </linearGradient>
        <linearGradient x1="50%" y1="61.9239585%" x2="50%" y2="100%" id="linearGradient-8">
            <stop stop-color="#FFA79A" offset="0%"></stop>
            <stop stop-color="#FF676E" offset="100%"></stop>
        </linearGradient>
        <linearGradient x1="50%" y1="0%" x2="50%" y2="100%" id="linearGradient-9">
            <stop stop-color="#FF9485" offset="0%"></stop>
            <stop stop-color="#FF676E" offset="100%"></stop>
        </linearGradient>
        <linearGradient x1="82.5767258%" y1="-52.951376%" x2="82.5767258%" y2="186.664812%" id="linearGradient-10">
            <stop stop-color="#1533B6" offset="0%"></stop>
            <stop stop-color="#356BE9" offset="100%"></stop>
        </linearGradient>
        <linearGradient x1="50%" y1="-27.3641552%" x2="50%" y2="100%" id="linearGradient-11">
            <stop stop-color="#C0E4FD" offset="0%"></stop>
            <stop stop-color="#72B9FE" offset="100%"></stop>
        </linearGradient>
        <linearGradient x1="50%" y1="-27.3641552%" x2="50%" y2="100%" id="linearGradient-12">
            <stop stop-color="#C0E4FD" offset="0%"></stop>
            <stop stop-color="#72B9FE" offset="100%"></stop>
        </linearGradient>
        <linearGradient x1="50%" y1="114.0151%" x2="50.1580906%" y2="25.9019529%" id="linearGradient-13">
            <stop stop-color="#2B3389" offset="0%"></stop>
            <stop stop-color="#444FB7" offset="100%"></stop>
        </linearGradient>
        <linearGradient x1="50%" y1="57.9835065%" x2="50.9350565%" y2="46.9946635%" id="linearGradient-14">
            <stop stop-color="#2B3389" offset="0%"></stop>
            <stop stop-color="#444FB7" offset="100%"></stop>
        </linearGradient>
        <linearGradient x1="50%" y1="0%" x2="53.9552522%" y2="89.3678428%" id="linearGradient-15">
            <stop stop-color="#0F1752" offset="0%"></stop>
            <stop stop-color="#272884" offset="100%"></stop>
        </linearGradient>
        <linearGradient x1="42.1756202%" y1="13.1381206%" x2="51.2352302%" y2="50%" id="linearGradient-16">
            <stop stop-color="#CFE49F" offset="0%"></stop>
            <stop stop-color="#A9D386" offset="100%"></stop>
        </linearGradient>
        <linearGradient x1="46.8178172%" y1="3.88170857%" x2="52.9715418%" y2="56.9243345%" id="linearGradient-17">
            <stop stop-color="#77D791" offset="0%"></stop>
            <stop stop-color="#4FA67E" offset="100%"></stop>
        </linearGradient>
        <linearGradient x1="50%" y1="42.7107438%" x2="100%" y2="55.7392458%" id="linearGradient-18">
            <stop stop-color="#0F1752" offset="0%"></stop>
            <stop stop-color="#272884" offset="100%"></stop>
        </linearGradient>
        <linearGradient x1="82.5767258%" y1="-52.951376%" x2="82.5767258%" y2="186.664812%" id="linearGradient-19">
            <stop stop-color="#1533B6" offset="0%"></stop>
            <stop stop-color="#356BE9" offset="100%"></stop>
        </linearGradient>
        <linearGradient x1="50%" y1="0%" x2="50%" y2="100%" id="linearGradient-20">
            <stop stop-color="#FF9485" offset="0%"></stop>
            <stop stop-color="#FF676E" offset="100%"></stop>
        </linearGradient>
    </defs>
    <g id="Company" stroke="none" stroke-width="1" fill="none" fill-rule="evenodd">
        <rect fill="#FFFFFF" x="0" y="0" width="1440" height="1024"></rect>
        <g id="Ornament" transform="translate(322.150223, 547.000000)" fill-rule="nonzero">
            <path d="M415.843537,207.962833 L315.843537,207.962833 C315.843537,148.333697 267.522405,100 207.921769,100 C148.321132,100 100,148.333697 100,207.962833 L3.97903932e-13,207.962833 C3.97903932e-13,93.1110415 93.0868362,4.54747351e-13 207.921769,4.54747351e-13 C322.756701,4.54747351e-13 415.843537,93.1110415 415.843537,207.962833 Z" id="Shape" fill="#0B3B85"></path>
            <path d="M450.667391,127.579399 C450.667391,130.01417 448.693501,131.987942 446.258584,131.987942 C443.823667,131.987942 441.849777,130.01417 441.849777,127.579399 C441.849777,125.144628 443.823667,123.170856 446.258584,123.170856 C448.693501,123.170856 450.667391,125.144628 450.667391,127.579399 Z M450.667391,109.945228 C450.667391,112.379999 448.693501,114.353771 446.258584,114.353771 C443.823667,114.353771 441.849777,112.379999 441.849777,109.945228 C441.849777,107.510457 443.823667,105.536685 446.258584,105.536685 C448.693501,105.536685 450.667391,107.510457 450.667391,109.945228 Z M450.667391,92.3110566 C450.667391,94.7458276 448.693501,96.7195995 446.258584,96.7195995 C443.823667,96.7195995 441.849777,94.7458276 441.849777,92.3110566 C441.849777,89.8762857 443.823667,87.9025138 446.258584,87.9025138 C448.693501,87.9025138 450.667391,89.8762857 450.667391,92.3110566 Z M450.667391,74.6768854 C450.667391,77.1116563 448.693501,79.0854282 446.258584,79.0854282 C443.823667,79.0854282 441.849777,77.1116563 441.849777,74.6768854 C441.849777,72.2421144 443.823667,70.2683425 446.258584,70.2683425 C448.693501,70.2683425 450.667391,72.2421144 450.667391,74.6768854 Z M450.667391,57.0427141 C450.667391,59.4774851 448.693501,61.4512569 446.258584,61.4512569 C443.823667,61.4512569 441.849777,59.4774851 441.849777,57.0427141 C441.849777,54.6079431 443.823667,52.6341713 446.258584,52.6341713 C448.693501,52.6341713 450.667391,54.6079431 450.667391,57.0427141 Z M450.667391,39.4085428 C450.667391,41.8433138 448.693501,43.8170856 446.258584,43.8170856 C443.823667,43.8170856 441.849777,41.8433138 441.849777,39.4085428 C441.849777,36.9737719 443.823667,35 446.258584,35 C448.693501,35 450.667391,36.9737719 450.667391,39.4085428 Z M468.302621,127.579399 C468.302621,130.01417 466.32873,131.987942 463.893813,131.987942 C461.458896,131.987942 459.485006,130.01417 459.485006,127.579399 C459.485006,125.144628 461.458896,123.170856 463.893813,123.170856 C466.32873,123.170856 468.302621,125.144628 468.302621,127.579399 Z M468.302621,109.945228 C468.302621,112.379999 466.32873,114.353771 463.893813,114.353771 C461.458896,114.353771 459.485006,112.379999 459.485006,109.945228 C459.485006,107.510457 461.458896,105.536685 463.893813,105.536685 C466.32873,105.536685 468.302621,107.510457 468.302621,109.945228 Z M468.302621,92.3110566 C468.302621,94.7458276 466.32873,96.7195995 463.893813,96.7195995 C461.458896,96.7195995 459.485006,94.7458276 459.485006,92.3110566 C459.485006,89.8762857 461.458896,87.9025138 463.893813,87.9025138 C466.32873,87.9025138 468.302621,89.8762857 468.302621,92.3110566 Z M468.302621,74.6768854 C468.302621,77.1116563 466.32873,79.0854282 463.893813,79.0854282 C461.458896,79.0854282 459.485006,77.1116563 459.485006,74.6768854 C459.485006,72.2421144 461.458896,70.2683425 463.893813,70.2683425 C466.32873,70.2683425 468.302621,72.2421144 468.302621,74.6768854 Z M468.302621,57.0427141 C468.302621,59.4774851 466.32873,61.4512569 463.893813,61.4512569 C461.458896,61.4512569 459.485006,59.4774851 459.485006,57.0427141 C459.485006,54.6079431 461.458896,52.6341713 463.893813,52.6341713 C466.32873,52.6341713 468.302621,54.6079431 468.302621,57.0427141 Z M468.302621,39.4085428 C468.302621,41.8433138 466.32873,43.8170856 463.893813,43.8170856 C461.458896,43.8170856 459.485006,41.8433138 459.485006,39.4085428 C459.485006,36.9737719 461.458896,35 463.893813,35 C466.32873,35 468.302621,36.9737719 468.302621,39.4085428 Z M485.93785,127.579399 C485.93785,130.01417 483.96396,131.987942 481.529042,131.987942 C479.094125,131.987942 477.120235,130.01417 477.120235,127.579399 C477.120235,125.144628 479.094125,123.170856 481.529042,123.170856 C483.96396,123.170856 485.93785,125.144628 485.93785,127.579399 Z M485.93785,109.945228 C485.93785,112.379999 483.96396,114.353771 481.529042,114.353771 C479.094125,114.353771 477.120235,112.379999 477.120235,109.945228 C477.120235,107.510457 479.094125,105.536685 481.529042,105.536685 C483.96396,105.536685 485.93785,107.510457 485.93785,109.945228 Z M485.93785,92.3110566 C485.93785,94.7458276 483.96396,96.7195995 481.529042,96.7195995 C479.094125,96.7195995 477.120235,94.7458276 477.120235,92.3110566 C477.120235,89.8762857 479.094125,87.9025138 481.529042,87.9025138 C483.96396,87.9025138 485.93785,89.8762857 485.93785,92.3110566 Z M485.93785,74.6768854 C485.93785,77.1116563 483.96396,79.0854282 481.529042,79.0854282 C479.094125,79.0854282 477.120235,77.1116563 477.120235,74.6768854 C477.120235,72.2421144 479.094125,70.2683425 481.529042,70.2683425 C483.96396,70.2683425 485.93785,72.2421144 485.93785,74.6768854 Z M485.93785,57.0427141 C485.93785,59.4774851 483.96396,61.4512569 481.529042,61.4512569 C479.094125,61.4512569 477.120235,59.4774851 477.120235,57.0427141 C477.120235,54.6079431 479.094125,52.6341713 481.529042,52.6341713 C483.96396,52.6341713 485.93785,54.6079431 485.93785,57.0427141 Z M485.93785,39.4085428 C485.93785,41.8433138 483.96396,43.8170856 481.529042,43.8170856 C479.094125,43.8170856 477.120235,41.8433138 477.120235,39.4085428 C477.120235,36.9737719 479.094125,35 481.529042,35 C483.96396,35 485.93785,36.9737719 485.93785,39.4085428 Z M503.573079,127.579399 C503.573079,130.01417 501.599189,131.987942 499.164272,131.987942 C496.729355,131.987942 494.755464,130.01417 494.755464,127.579399 C494.755464,125.144628 496.729355,123.170856 499.164272,123.170856 C501.599189,123.170856 503.573079,125.144628 503.573079,127.579399 Z M503.573079,109.945228 C503.573079,112.379999 501.599189,114.353771 499.164272,114.353771 C496.729355,114.353771 494.755464,112.379999 494.755464,109.945228 C494.755464,107.510457 496.729355,105.536685 499.164272,105.536685 C501.599189,105.536685 503.573079,107.510457 503.573079,109.945228 Z M503.573079,92.3110566 C503.573079,94.7458276 501.599189,96.7195995 499.164272,96.7195995 C496.729355,96.7195995 494.755464,94.7458276 494.755464,92.3110566 C494.755464,89.8762857 496.729355,87.9025138 499.164272,87.9025138 C501.599189,87.9025138 503.573079,89.8762857 503.573079,92.3110566 Z M503.573079,74.6768854 C503.573079,77.1116563 501.599189,79.0854282 499.164272,79.0854282 C496.729355,79.0854282 494.755464,77.1116563 494.755464,74.6768854 C494.755464,72.2421144 496.729355,70.2683425 499.164272,70.2683425 C501.599189,70.2683425 503.573079,72.2421144 503.573079,74.6768854 Z M503.573079,57.0427141 C503.573079,59.4774851 501.599189,61.4512569 499.164272,61.4512569 C496.729355,61.4512569 494.755464,59.4774851 494.755464,57.0427141 C494.755464,54.6079431 496.729355,52.6341713 499.164272,52.6341713 C501.599189,52.6341713 503.573079,54.6079431 503.573079,57.0427141 Z M503.573079,39.4085428 C503.573079,41.8433138 501.599189,43.8170856 499.164272,43.8170856 C496.729355,43.8170856 494.755464,41.8433138 494.755464,39.4085428 C494.755464,36.9737719 496.729355,35 499.164272,35 C501.599189,35 503.573079,36.9737719 503.573079,39.4085428 Z M521.208308,127.579399 C521.208308,130.01417 519.234418,131.987942 516.799501,131.987942 C514.364584,131.987942 512.390694,130.01417 512.390694,127.579399 C512.390694,125.144628 514.364584,123.170856 516.799501,123.170856 C519.234418,123.170856 521.208308,125.144628 521.208308,127.579399 Z M521.208308,109.945228 C521.208308,112.379999 519.234418,114.353771 516.799501,114.353771 C514.364584,114.353771 512.390694,112.379999 512.390694,109.945228 C512.390694,107.510457 514.364584,105.536685 516.799501,105.536685 C519.234418,105.536685 521.208308,107.510457 521.208308,109.945228 Z M521.208308,92.3110566 C521.208308,94.7458276 519.234418,96.7195995 516.799501,96.7195995 C514.364584,96.7195995 512.390694,94.7458276 512.390694,92.3110566 C512.390694,89.8762857 514.364584,87.9025138 516.799501,87.9025138 C519.234418,87.9025138 521.208308,89.8762857 521.208308,92.3110566 Z M521.208308,74.6768854 C521.208308,77.1116563 519.234418,79.0854282 516.799501,79.0854282 C514.364584,79.0854282 512.390694,77.1116563 512.390694,74.6768854 C512.390694,72.2421144 514.364584,70.2683425 516.799501,70.2683425 C519.234418,70.2683425 521.208308,72.2421144 521.208308,74.6768854 Z M521.208308,57.0427141 C521.208308,59.4774851 519.234418,61.4512569 516.799501,61.4512569 C514.364584,61.4512569 512.390694,59.4774851 512.390694,57.0427141 C512.390694,54.6079431 514.364584,52.6341713 516.799501,52.6341713 C519.234418,52.6341713 521.208308,54.6079431 521.208308,57.0427141 Z M521.208308,39.4085428 C521.208308,41.8433138 519.234418,43.8170856 516.799501,43.8170856 C514.364584,43.8170856 512.390694,41.8433138 512.390694,39.4085428 C512.390694,36.9737719 514.364584,35 516.799501,35 C519.234418,35 521.208308,36.9737719 521.208308,39.4085428 Z M538.843537,127.579399 C538.843537,130.01417 536.869647,131.987942 534.43473,131.987942 C531.999813,131.987942 530.025923,130.01417 530.025923,127.579399 C530.025923,125.144628 531.999813,123.170856 534.43473,123.170856 C536.869647,123.170856 538.843537,125.144628 538.843537,127.579399 Z M538.843537,109.945228 C538.843537,112.379999 536.869647,114.353771 534.43473,114.353771 C531.999813,114.353771 530.025923,112.379999 530.025923,109.945228 C530.025923,107.510457 531.999813,105.536685 534.43473,105.536685 C536.869647,105.536685 538.843537,107.510457 538.843537,109.945228 Z M538.843537,92.3110566 C538.843537,94.7458276 536.869647,96.7195995 534.43473,96.7195995 C531.999813,96.7195995 530.025923,94.7458276 530.025923,92.3110566 C530.025923,89.8762857 531.999813,87.9025138 534.43473,87.9025138 C536.869647,87.9025138 538.843537,89.8762857 538.843537,92.3110566 Z M538.843537,74.6768854 C538.843537,77.1116563 536.869647,79.0854282 534.43473,79.0854282 C531.999813,79.0854282 530.025923,77.1116563 530.025923,74.6768854 C530.025923,72.2421144 531.999813,70.2683425 534.43473,70.2683425 C536.869647,70.2683425 538.843537,72.2421144 538.843537,74.6768854 Z M538.843537,57.0427141 C538.843537,59.4774851 536.869647,61.4512569 534.43473,61.4512569 C531.999813,61.4512569 530.025923,59.4774851 530.025923,57.0427141 C530.025923,54.6079431 531.999813,52.6341713 534.43473,52.6341713 C536.869647,52.6341713 538.843537,54.6079431 538.843537,57.0427141 Z M538.843537,39.4085428 C538.843537,41.8433138 536.869647,43.8170856 534.43473,43.8170856 C531.999813,43.8170856 530.025923,41.8433138 530.025923,39.4085428 C530.025923,36.9737719 531.999813,35 534.43473,35 C536.869647,35 538.843537,36.9737719 538.843537,39.4085428 Z" id="Shape" fill="url(#linearGradient-1)"></path>
        </g>
        <g id="Arrow" transform="translate(282.000000, 226.000000)" fill="url(#linearGradient-2)">
            <polygon id="Shape" points="476 277 476 312 356 227 476 142 476 177 838 177 838 277"></polygon>
            <polygon id="Shape" points="362 135 0 135 0 35 362 35 362 0 482 85 362 170"></polygon>
        </g>
        <g id="Building" transform="translate(890.000000, 97.000000)">
            <polygon id="Shape" fill="url(#linearGradient-3)" points="112 78 391 78 391 544.404843 501 637.268559 501 858 112 858"></polygon>
            <polygon id="Shape" fill="#1688DC" points="413 687 481 687 481 798 413 798"></polygon>
            <polygon id="Shape" fill="#1688DC" points="4.54747351e-13 78 279 78 279 544.404843 393.180449 637.268559 393.180449 858 4.54747351e-13 858"></polygon>
            <path d="M0,78 L275,78 L275,100 L0,100 L0,78 Z M0,139 L275,139 L275,161 L0,161 L0,139 Z M0,200 L274.804511,200 L274.804511,222 L0,222 L0,200 Z M0,261 L274.804511,261 L274.804511,283 L0,283 L0,261 Z M0,322 L274.804511,322 L274.804511,344 L0,344 L0,322 Z M0,383 L274.804511,383 L274.804511,405 L0,405 L0,383 Z M0,444 L274.804511,444 L274.804511,466 L0,466 L0,444 Z M0,505 L274.804511,505 L274.804511,527 L0,527 L0,505 Z M5.68434189e-14,566 L393,566 L393,588 L5.68434189e-14,588 L5.68434189e-14,566 Z M5.68434189e-14,627 L393,627 L393,649 L5.68434189e-14,649 L5.68434189e-14,627 Z" id="Combined-Shape" fill="url(#linearGradient-4)"></path>
            <polygon id="Shape" fill="url(#linearGradient-5)" points="40 687 353.180449 687 353.180449 858 40 858"></polygon>
            <polygon id="Shape" fill="#1688DC" points="281 545.581429 391.055557 544 501.055557 636.863715 392.707683 636.434027"></polygon>
            <polygon id="Shape" fill="#1688DC" points="112 0 279 0 279 78 112 78"></polygon>
            <polygon id="Shape" fill="url(#linearGradient-6)" points="112 0 246 0 246 78 112 78"></polygon>
        </g>
        <g id="Diagram" transform="translate(513.000000, 687.062688)">
            <polygon id="Shape" fill="url(#linearGradient-7)" points="-4.68958206e-13 134.752099 125.440048 134.752099 125.440048 267.937312 -4.68958206e-13 267.937312"></polygon>
            <polygon id="Shape" fill="url(#linearGradient-8)" points="125.440048 67.3760493 250.880097 67.3760493 250.880097 267.937312 125.440048 267.937312"></polygon>
            <polygon id="Shape" fill="url(#linearGradient-9)" points="250.880097 4.8316906e-13 376.320145 4.8316906e-13 376.320145 267.937312 250.880097 267.937312"></polygon>
        </g>
        <g id="Men" transform="translate(720.555296, 384.309174)">
            <path d="M249.550583,140.690826 L260.401154,162.908866 C265.86193,174.090557 263.852787,187.482636 255.351206,196.569629 L227.881214,225.931182 L213.350446,210.524941 L237.444704,182.470528 L226.584062,162.690826 L249.550583,140.690826 Z" id="Shape" fill="#F4B696"></path>
            <polygon id="Shape" fill="#221E41" points="198.091984 82.6908259 230.922536 97.9001687 259.444704 154.337985 232.72857 177.690826 198.091984 136.637469"></polygon>
            <polygon id="Shape" fill="#F4B696" points="229.444704 530.690826 232.444704 552.305733 210.816797 552.305733 207.816797 530.690826"></polygon>
            <polygon id="Shape" fill="#F4B696" points="148.312921 529.063497 148.312921 550.678403 126.685014 550.678403 126.685014 529.063497"></polygon>
            <polygon id="Shape" fill="#211D41" points="206.467275 542.197405 168.459899 418.294779 156.293247 254.772689 227.144894 253.020178 215.226956 412.43625 234.595907 542.197405"></polygon>
            <polygon id="Shape" fill="url(#linearGradient-10)" points="122.259978 541.86919 122.259978 385.324997 131.334597 254.964886 227.215396 253.385012 172.488631 405.861682 152.010734 541.86919"></polygon>
            <path d="M149.90982,550.690826 L149.90982,566.097775 C149.90982,568.748742 147.760787,570.897775 145.10982,570.897775 L102.503196,570.897775 C100.814037,570.897775 99.4447038,569.222412 99.4447038,567.155747 C99.4447038,559.110633 105.551949,558.062422 112.803117,555.494138 L127.193224,550.690826 L149.90982,550.690826 Z" id="Shape" fill="#211D41"></path>
            <path d="M233.90982,550.690826 L233.90982,566.097775 C233.90982,568.748742 231.760787,570.897775 229.10982,570.897775 L186.503196,570.897775 C184.814037,570.897775 183.444704,569.222412 183.444704,567.155747 C183.444704,559.110633 189.551949,558.062422 196.803117,555.494138 L211.193224,550.690826 L233.90982,550.690826 Z" id="Shape" fill="#211D41"></path>
            <path d="M174.162406,87.5298806 C169.050888,76.4355785 164.353194,70.8295833 160.069325,70.7118949 C153.643521,70.5353624 149.643346,70.7463491 148.128327,64.6376387 C146.613307,58.5289283 144.292242,57.1669706 141.434919,56.9384749 C138.577596,56.7099793 135.217111,53.7498771 140.585129,47.1369109 C144.163808,42.7282668 144.361893,35.3659103 141.179384,25.0498416 C162.906763,7.3958382 178.467114,6.76248511 187.860436,23.1497824 C197.253759,39.5370796 200.628884,53.8620767 197.985814,66.1247738 L204.444704,83.4904285 L174.162406,87.5298806 Z" id="Shape" fill="#F4B696"></path>
            <path d="M198.276328,65.7551441 C190.532643,68.4589897 185.651195,68.8166844 183.631982,66.8282282 C180.603163,63.8455439 177.915324,57.4868326 177.501115,55.3133742 C177.086906,53.1399157 179.730893,53.1012431 181.560752,52.3988259 C183.390611,51.6964088 184.650388,46.4874059 181.566064,44.1185852 C178.481741,41.7497644 176.045415,43.2414773 174.977407,44.2822892 C173.909399,45.3231011 170.242467,44.9637996 169.353526,39.5678035 C168.464585,34.1718074 168.967287,28.6053137 165.636253,29.8839777 C162.30522,31.1626417 142.818739,36.1871138 136.970753,23.8953997 C131.122766,11.6036856 135.720682,1.60204181 149.746402,2.85020453 C163.772122,4.09836725 167.367482,2.10158177 177.042219,0.716325469 C186.716955,-0.668930829 196.528952,-1.57704408 204.391905,13.3047771 C212.254857,28.1865983 209.070238,38.5180719 204.071272,46.9337637 C199.072307,55.3494555 201.381487,56.4538462 201.579351,59.9388789 C201.71126,62.262234 200.610252,64.2009891 198.276328,65.7551441 Z" id="Shape" fill="#221E41"></path>
            <polygon id="Shape" fill="#FFFFFF" points="56.9821083 156.734856 1.13686838e-13 133.495417 22.3004567 117.690826 84.4447038 138.734856"></polygon>
            <path d="M187.249602,81.1908259 C206.154392,74.2614233 227.097143,83.9693931 234.026546,102.874183 C235.76767,107.624317 236.501083,112.68484 236.180127,117.733827 L226.584062,268.690826 L131.269243,255.147257 L143.563956,136.365664 C146.197936,109.292061 160.759818,90.9004484 187.249602,81.1908259 Z" id="Shape" fill="url(#linearGradient-11)"></path>
            <polygon id="Shape" fill="#221E41" points="203.003574 152.847472 178.824761 187.075254 134.629897 214.543132 136.755042 186.197677"></polygon>
            <path d="M175.171277,131.830789 L189.829568,164.75385 C165.741818,189.233255 146.319127,201.272953 131.561495,200.872944 C116.803864,200.472934 93.3155595,187.270123 61.0965824,161.26451 C56.9149821,161.469644 50.5936084,161.469644 42.1324614,161.26451 C33.6713143,161.059375 27.3309613,154.962542 23.1114022,142.974012 L44.534466,146.721611 L41.3958378,137.067247 C44.5032297,136.810173 47.7926776,137.716136 51.2641814,139.785136 C54.7356853,141.854137 57.5873749,144.915804 59.8192504,148.970138 L130.091663,173.690826 L175.171277,131.830789 Z" id="Shape" fill="#F4B696"></path>
            <path d="M138.864249,519.969652 L139.321117,512.984577 L140.318985,513.049844 L139.862117,520.034919 L138.864249,519.969652 Z M139.973784,503.005898 L140.430652,496.020823 L141.42852,496.08609 L140.971652,503.071165 L139.973784,503.005898 Z M141.08332,486.042145 L141.540187,479.05707 L142.538055,479.122337 L142.081187,486.107412 L141.08332,486.042145 Z M142.192855,469.078391 L142.649722,462.093316 L143.64759,462.158583 L143.190722,469.143658 L142.192855,469.078391 Z M143.30239,452.114638 L143.759257,445.129563 L144.757125,445.19483 L144.300257,452.179905 L143.30239,452.114638 Z M144.411925,435.150884 L144.868792,428.16581 L145.86666,428.231076 L145.409792,435.216151 L144.411925,435.150884 Z M145.52146,418.187131 L145.978327,411.202056 L146.976195,411.267323 L146.519327,418.252398 L145.52146,418.187131 Z M146.630995,401.223378 L147.087862,394.238303 L148.08573,394.303569 L147.628862,401.288644 L146.630995,401.223378 Z M148.331067,384.267628 L149.817782,377.42733 L150.794967,377.639718 L149.308252,384.480016 L148.331067,384.267628 Z M151.94166,367.655475 L153.428375,360.815177 L154.405561,361.027565 L152.918846,367.867863 L151.94166,367.655475 Z M155.552254,351.043323 L157.038969,344.203025 L158.016155,344.415412 L156.529439,351.255711 L155.552254,351.043323 Z M159.162848,334.43117 L160.649563,327.590872 L161.626748,327.80326 L160.140033,334.643558 L159.162848,334.43117 Z M162.773441,317.819018 L164.260156,310.978719 L165.237342,311.191107 L163.750627,318.031405 L162.773441,317.819018 Z M166.384035,301.206865 L167.87075,294.366567 L168.847935,294.578955 L167.36122,301.419253 L166.384035,301.206865 Z M169.994629,284.594712 L171.481344,277.754414 L172.458529,277.966802 L170.971814,284.8071 L169.994629,284.594712 Z" id="Shape" fill="#A587FF" fill-rule="nonzero"></path>
            <path d="M176.603019,181.489574 L150.107941,150.278116 C172.887111,122.636463 190.25525,115.040283 202.212359,127.489574 C214.169469,139.938865 205.633022,157.938865 176.603019,181.489574 Z" id="Shape" fill="url(#linearGradient-12)"></path>
        </g>
        <g id="Building-2" transform="translate(56.442181, 120.462833)">
            <polygon id="Shape" fill="url(#linearGradient-13)" points="-3.97959443e-13 120 151.092198 1.30739863e-12 343.557819 0.627253106 283.557819 835.537167 1.55781931 835.537167"></polygon>
            <polygon id="Shape" fill="url(#linearGradient-14)" points="2.95874436e-14 120 151.092198 1.13692389e-12 343.557819 0.627253106 231.610526 121.326442"></polygon>
            <polygon id="Shape" fill="url(#linearGradient-15)" points="221.557819 120.537167 345.557819 1.13631327e-13 456.557819 120.537167 456.557819 835.537167 221.557819 835.537167"></polygon>
            <polygon id="Shape" fill="#211D41" points="251.557819 698.537167 431.557819 698.537167 431.557819 834.537167 251.557819 834.537167"></polygon>
            <polygon id="Shape" fill="#00ADFF" points="251.557819 708.537167 421.557819 708.537167 421.557819 834.537167 251.557819 834.537167"></polygon>
            <polygon id="Shape" fill="#211D41" points="251.557819 211.537167 320.557819 211.537167 320.557819 282.537167 251.557819 282.537167"></polygon>
            <polygon id="Shape" fill="#211D41" points="251.557819 332.537167 320.557819 332.537167 320.557819 403.537167 251.557819 403.537167"></polygon>
            <polygon id="Shape" fill="#00ADFF" points="251.557819 211.537167 310.557819 211.537167 310.557819 272.537167 251.557819 272.537167"></polygon>
            <polygon id="Shape" fill="#00ADFF" points="251.557819 332.537167 310.557819 332.537167 310.557819 393.537167 251.557819 393.537167"></polygon>
            <polygon id="Shape" fill="#211D41" points="367.557819 211.537167 436.557819 211.537167 436.557819 282.537167 367.557819 282.537167"></polygon>
            <polygon id="Shape" fill="#211D41" points="367.557819 332.537167 436.557819 332.537167 436.557819 403.537167 367.557819 403.537167"></polygon>
            <polygon id="Shape" fill="#00ADFF" points="367.557819 211.537167 426.557819 211.537167 426.557819 272.537167 367.557819 272.537167"></polygon>
            <polygon id="Shape" fill="#00ADFF" points="367.557819 332.537167 426.557819 332.537167 426.557819 393.537167 367.557819 393.537167"></polygon>
            <polygon id="Shape" fill="#211D41" points="251.557819 453.537167 320.557819 453.537167 320.557819 524.537167 251.557819 524.537167"></polygon>
            <polygon id="Shape" fill="#00ADFF" points="251.557819 453.537167 310.557819 453.537167 310.557819 514.537167 251.557819 514.537167"></polygon>
            <polygon id="Shape" fill="#211D41" points="367.557819 453.537167 436.557819 453.537167 436.557819 524.537167 367.557819 524.537167"></polygon>
            <polygon id="Shape" fill="#00ADFF" points="367.557819 453.537167 426.557819 453.537167 426.557819 514.537167 367.557819 514.537167"></polygon>
            <polygon id="Shape" fill="#211D41" points="251.557819 574.537167 320.557819 574.537167 320.557819 645.537167 251.557819 645.537167"></polygon>
            <polygon id="Shape" fill="#00ADFF" points="251.557819 574.537167 310.557819 574.537167 310.557819 635.537167 251.557819 635.537167"></polygon>
            <polygon id="Shape" fill="#211D41" points="367.557819 574.537167 436.557819 574.537167 436.557819 645.537167 367.557819 645.537167"></polygon>
            <polygon id="Shape" fill="#00ADFF" points="367.557819 574.537167 426.557819 574.537167 426.557819 635.537167 367.557819 635.537167"></polygon>
        </g>
        <g id="Plant" transform="translate(58.000000, 622.000000)">
            <path d="M171.941471,256 C189.05666,229.187318 193.765096,205.070796 186.066779,183.650435 C174.519303,151.519894 161.270409,123.092963 180.79541,88.8244568 C200.320411,54.555951 207.037369,-12.6627673 163.861908,2.08211124 C120.686446,16.8269898 146.178205,64.4341861 104.056962,108.291168 C75.9761327,137.529156 78.9285674,186.765433 112.914266,256 L171.941471,256 Z" id="Shape" fill="url(#linearGradient-16)"></path>
            <path d="M146.073976,256.405545 C145.849999,256.910375 145.259185,257.138051 144.754356,256.914075 C144.249526,256.690099 144.021849,256.099285 144.245826,255.594455 C156.411146,228.174537 160.044344,203.961439 155.181747,182.94286 C153.956639,177.647329 152.577879,172.822908 150.23812,165.311458 C150.074344,164.785682 149.908201,164.253688 149.681163,163.527706 C149.40312,162.638857 149.258285,162.175795 149.126086,161.75267 C148.680047,160.325052 148.349961,159.262239 148.030741,158.222916 C147.213398,155.561796 146.556084,153.337474 145.963886,151.203928 C139.639322,128.418053 140.371617,111.30537 151.502457,88.7816885 C164.502008,62.4765966 171,34.8865504 171,6 C171,5.44771525 171.447715,5 172,5 C172.552285,5 173,5.44771525 173,6 C173,35.1951395 166.430632,63.0882439 153.295463,89.6677632 C142.400722,111.71369 141.689778,128.32742 147.891027,150.669021 C148.477745,152.782821 149.130166,154.990585 149.942594,157.635705 C150.260695,158.671384 150.58992,159.731424 151.035081,161.156233 C151.167171,161.579009 151.311894,162.041712 151.589996,162.930752 C151.81724,163.657391 151.983585,164.19003 152.147626,164.716661 C154.501041,172.271948 155.891345,177.136764 157.130282,182.492071 C162.100345,203.975172 158.402801,228.617096 146.073976,256.405545 Z" id="Shape" fill="#FFFFFF" fill-rule="nonzero"></path>
            <path d="M41.0654863,256 C43.9195379,245.333817 39.7836699,229.525179 28.6578821,208.574084 C11.9692006,177.147443 6.8116605,147.502232 35.0239856,119.841612 C63.2363107,92.180992 51.2937466,82.4081462 36.3628736,49.8024693 C21.4320005,17.1967924 46.6846399,-20.6029892 95.3296058,40.6602261 C143.974572,101.923442 89.1229675,123.038573 114.655303,169.949618 C131.676859,201.223647 129.544089,229.907108 108.256992,256 L41.0654863,256 Z" id="Shape" fill="url(#linearGradient-17)" fill-rule="nonzero"></path>
            <path d="M66.8964725,263.578926 C66.5767408,264.029248 65.9524887,264.135112 65.5021666,263.81538 C65.0518444,263.495649 64.94598,262.871397 65.2657118,262.421074 C79.3835834,242.536938 81.566555,220.548233 71.8094753,196.329549 C64.9432534,179.286452 63.6865089,162.256466 67.0116688,145.214142 C69.5451934,132.229159 74.3871687,120.344326 81.4303935,107.595014 C87.4665878,96.6685799 88.8334646,85.6467696 84.4453581,72.574692 C79.1265023,56.7299315 65.3270023,38.413222 41.3297793,16.7421619 C40.9198946,16.3720092 40.8876855,15.739664 41.2578381,15.3297793 C41.6279908,14.9198946 42.260336,14.8876855 42.6702207,15.2578381 C66.9000217,37.1389314 80.8959349,55.7163492 86.3413825,71.9382241 C90.9159837,85.5658655 89.4775867,97.1643787 83.1810188,108.562128 C76.2301176,121.144321 71.462363,132.846976 68.9746537,145.597144 C65.7208657,162.273668 66.9487311,178.912316 73.6645845,195.582174 C83.6712535,220.42038 81.4169332,243.127768 66.8964725,263.578926 Z" id="Shape" fill="#FFFFFF" fill-rule="nonzero"></path>
            <polygon id="Shape" fill="url(#linearGradient-18)" points="8.52651283e-14 250 220 250 220 334 8.52651283e-14 334"></polygon>
        </g>
        <g id="Women" transform="translate(434.809686, 377.012595)">
            <polygon id="Shape" fill="#F4B696" points="31.4853454 537.552259 54.1043108 537.552259 54.1043108 560.153248 31.4853454 560.153248"></polygon>
            <polygon id="Shape" fill="#F4B696" points="98.0856325 537.552259 120.704598 537.552259 120.704598 560.153248 98.0856325 560.153248"></polygon>
            <polygon id="Shape" fill="#211D41" points="58.1829262 551.285342 28.7653518 551.285342 15.853476 251.15474 89.7396232 250.748177"></polygon>
            <path d="M125.332403,550.942154 L94.2183745,550.942154 L85.3011291,390.281851 L15.853476,251.15474 L115.841957,250.949143 L136.878448,354.63137 C139.247711,366.30872 139.940583,378.264145 138.936165,390.137014 L125.332403,550.942154 Z" id="Shape" fill="url(#linearGradient-19)"></path>
            <path d="M80.8980648,90.7669752 L52.5475165,77.5570578 L57.6095106,66.7099219 C55.7497796,53.7277109 60.3200612,39.0318471 71.3203554,22.6223305 C82.3206497,6.2128139 98.5089707,8.00419946 119.885319,27.9964872 C115.809538,38.5249897 115.47713,46.2184082 118.888095,51.0767425 C124.004543,58.3642441 120.281683,61.2074542 117.283801,61.2381325 C114.285918,61.2688107 111.76454,62.5206736 109.73658,68.7820312 C107.708619,75.0433887 103.550536,74.5326293 96.8333285,74.2497832 C92.3551902,74.0612191 87.0434357,79.5669498 80.8980648,90.7669752 Z" id="Shape" fill="#F4B696"></path>
            <polygon id="Shape" fill="#FFFFFF" points="185.859853 217.157022 222.674471 166.882589 179.177727 153.987405 148.190314 195.673094"></polygon>
            <path d="M96.8290233,557.642027 L120.586565,557.642027 L135.636072,562.664469 C143.219512,565.349919 149.606609,566.44595 149.606609,574.858085 C149.606609,577.019032 148.174529,578.770826 146.407968,578.770826 L101.845023,578.770826 C99.074763,578.770826 96.8290233,576.525086 96.8290233,573.754826 L96.8290233,557.642027 Z" id="Shape" fill="#211D41"></path>
            <path d="M30.2287362,557.642027 L53.9862775,557.642027 L69.0357848,562.664469 C76.6192244,565.349919 83.0063222,566.44595 83.0063222,574.858085 C83.0063222,577.019032 81.5742416,578.770826 79.8076807,578.770826 L35.2447362,578.770826 C32.4744759,578.770826 30.2287362,576.525086 30.2287362,573.754826 L30.2287362,557.642027 Z" id="Shape" fill="#211D41"></path>
            <path d="M168.354094,201.591547 C174.973568,203.274293 179.073971,203.274293 180.655304,201.591547 C182.236637,199.9088 183.871808,197.478034 185.560816,194.299248 C189.379233,196.503884 190.6185,199.135612 189.278617,202.194431 C194.504541,202.348177 198.135258,203.243385 200.170768,204.880056 C203.224033,207.335063 202.714947,219.4618 196.473949,223.612442 C190.232952,227.763084 182.215083,222.863607 177.487584,222.285043 C174.335918,221.899334 170.182898,221.127275 165.028526,219.968867 L168.354094,201.591547 Z" id="Shape" fill="#F4B696"></path>
            <path d="M73.917737,269.415589 L74.8912818,269.035806 L77.5497666,275.850619 L76.5762218,276.230402 L73.917737,269.415589 Z M80.3740575,285.96585 L81.3476023,285.586066 L84.0060871,292.400879 L83.0325423,292.780663 L80.3740575,285.96585 Z M86.830378,302.516111 L87.8039228,302.136327 L90.4624076,308.95114 L89.4888628,309.330924 L86.830378,302.516111 Z M93.2866985,319.066371 L94.2602432,318.686588 L96.9187281,325.501401 L95.9451833,325.881184 L93.2866985,319.066371 Z M99.743019,335.616632 L100.716564,335.236849 L103.375049,342.051662 L102.401504,342.431445 L99.743019,335.616632 Z M106.199339,352.166893 L107.172884,351.787109 L108.654579,355.585314 C109.048856,356.596013 109.427373,357.612561 109.790014,358.634596 L108.805172,358.98404 C108.446139,357.972174 108.071389,356.965741 107.681034,355.965098 L106.199339,352.166893 Z M111.789381,368.95118 L112.804216,368.701911 C113.388907,371.082328 113.890043,373.482328 114.306738,375.89748 L113.276953,376.075153 C112.864404,373.684032 112.368254,371.307911 111.789381,368.95118 Z M114.531207,386.410293 L115.573598,386.336491 C115.746671,388.78099 115.834178,391.231509 115.835808,393.683609 L114.790808,393.684303 C114.789194,391.256603 114.702558,388.830468 114.531207,386.410293 Z M114.54536,404.102969 L115.589965,404.13172 L115.388714,411.44395 L114.34411,411.4152 L114.54536,404.102969 Z M114.056609,421.861244 L115.101213,421.889994 L114.899963,429.202225 L113.855358,429.173475 L114.056609,421.861244 Z M113.567857,439.619519 L114.612462,439.648269 L114.411211,446.9605 L113.366607,446.93175 L113.567857,439.619519 Z M113.079106,457.377794 L114.12371,457.406544 L113.922459,464.718775 L112.877855,464.690025 L113.079106,457.377794 Z M112.590354,475.136069 L113.634958,475.164819 L113.433708,482.47705 L112.389103,482.448299 L112.590354,475.136069 Z M112.101602,492.894344 L113.146207,492.923094 L112.944956,500.235324 L111.900352,500.206574 L112.101602,492.894344 Z M111.612851,510.652618 L112.657455,510.681369 L112.456205,517.993599 L111.4116,517.964849 L111.612851,510.652618 Z M111.124099,528.410893 L112.168704,528.439643 L111.967453,535.751874 L110.922848,535.723124 L111.124099,528.410893 Z" id="Shape" fill="#A587FF" fill-rule="nonzero"></path>
            <path d="M116.883296,256.246697 L15.8496056,261.363923 L12.9199733,119.444493 C14.0482776,91.1546061 25.1914375,77.0096627 46.3494528,77.0096627 C78.0864759,77.0096627 110.884501,90.8381415 110.884501,137.416169 L113.659734,179.889359 L172.902883,199.460432 L171.280934,223.419838 L113.659734,218.248345 L116.883296,256.246697 Z" id="Shape" fill="url(#linearGradient-20)"></path>
            <path d="M113.656183,218.248345 L114.400029,227.332879 L81.2998063,217.527098 L80.7845832,157.119227 L89.0571188,200.937676 C90.1183906,206.559082 94.0743407,211.199586 99.456945,213.13713 L113.656183,218.248345 Z" id="Shape" fill="#221E41"></path>
            <path d="M128.850267,24.6240301 C127.076965,33.4321507 120.523647,37.8362109 109.190314,37.8362109 C92.1903139,37.8362109 84.9852581,40.5200238 84.8517612,52.8486888 C84.7182642,65.1773537 87.4091934,103.535506 56.1903139,103.535506 C24.9714345,103.535506 12.1961472,146.946927 13.8028261,162.144051 C-4.11198602,131.470845 -4.58795131,105.58665 12.3749302,84.4914654 C37.8192524,52.8486888 48.5673775,50.5855471 48.5673775,27.7864761 C48.5673775,4.98740512 65.8370271,-3.01259488 86.8895462,0.987405119 C107.942065,4.98740512 120.078407,5.9748555 126.134361,8.303867 C130.171663,9.85654133 131.076965,15.2965957 128.850267,24.6240301 Z" id="Shape" fill="#211D41"></path>
        </g>
    </g>
</svg>