<?xml version="1.0" encoding="UTF-8"?>
<svg width="1440px" height="1024px" viewBox="0 0 1440 1024" version="1.1" xmlns="http://www.w3.org/2000/svg" xmlns:xlink="http://www.w3.org/1999/xlink">
    <!-- Generator: Sketch 53.2 (72643) - https://sketchapp.com -->
    <title>CRM</title>
    <desc>Created with Sketch.</desc>
    <defs>
        <linearGradient x1="50%" y1="7.26438915%" x2="50%" y2="151.05781%" id="linearGradient-1">
            <stop stop-color="#D0F6FF" offset="0%"></stop>
            <stop stop-color="#8BE2F7" offset="100%"></stop>
        </linearGradient>
        <linearGradient x1="50%" y1="0%" x2="50%" y2="143.743183%" id="linearGradient-2">
            <stop stop-color="#FFC8C0" offset="0%"></stop>
            <stop stop-color="#FF676E" offset="100%"></stop>
        </linearGradient>
        <linearGradient x1="50%" y1="61.9239585%" x2="50%" y2="100%" id="linearGradient-3">
            <stop stop-color="#FFA79A" offset="0%"></stop>
            <stop stop-color="#FF676E" offset="100%"></stop>
        </linearGradient>
        <linearGradient x1="8.38174197%" y1="13.1381206%" x2="56.5702499%" y2="50%" id="linearGradient-4">
            <stop stop-color="#CFE49F" offset="0%"></stop>
            <stop stop-color="#A9D386" offset="100%"></stop>
        </linearGradient>
        <linearGradient x1="4.76643799%" y1="24.563533%" x2="100%" y2="80.4180658%" id="linearGradient-5">
            <stop stop-color="#6EAE7C" offset="0%"></stop>
            <stop stop-color="#0F575D" offset="100%"></stop>
        </linearGradient>
        <linearGradient x1="50%" y1="0%" x2="50%" y2="100%" id="linearGradient-6">
            <stop stop-color="#FF9485" offset="0%"></stop>
            <stop stop-color="#FF676E" offset="100%"></stop>
        </linearGradient>
        <linearGradient x1="50%" y1="0%" x2="50%" y2="100%" id="linearGradient-7">
            <stop stop-color="#FF9485" offset="0%"></stop>
            <stop stop-color="#FF676E" offset="100%"></stop>
        </linearGradient>
        <linearGradient x1="8.38174197%" y1="31.3864763%" x2="56.5702499%" y2="50%" id="linearGradient-8">
            <stop stop-color="#CFE49F" offset="0%"></stop>
            <stop stop-color="#A9D386" offset="100%"></stop>
        </linearGradient>
        <linearGradient x1="44.725404%" y1="3.88170857%" x2="54.92545%" y2="56.9243345%" id="linearGradient-9">
            <stop stop-color="#77D791" offset="0%"></stop>
            <stop stop-color="#4FA67E" offset="100%"></stop>
        </linearGradient>
        <linearGradient x1="4.76643799%" y1="41.1577799%" x2="100%" y2="60.5739226%" id="linearGradient-10">
            <stop stop-color="#6EAE7C" offset="0%"></stop>
            <stop stop-color="#0F575D" offset="100%"></stop>
        </linearGradient>
        <linearGradient x1="50%" y1="7.26438915%" x2="50%" y2="151.05781%" id="linearGradient-11">
            <stop stop-color="#D0F6FF" offset="0%"></stop>
            <stop stop-color="#8BE2F7" offset="100%"></stop>
        </linearGradient>
        <linearGradient x1="50%" y1="7.26438915%" x2="50%" y2="100%" id="linearGradient-12">
            <stop stop-color="#55D0FF" offset="0%"></stop>
            <stop stop-color="#32A2FE" offset="100%"></stop>
        </linearGradient>
        <linearGradient x1="50%" y1="50.0740015%" x2="50.9350565%" y2="49.9721427%" id="linearGradient-13">
            <stop stop-color="#2B3389" offset="0%"></stop>
            <stop stop-color="#444FB7" offset="100%"></stop>
        </linearGradient>
        <linearGradient x1="50%" y1="78.4511557%" x2="50.9350565%" y2="39.2897568%" id="linearGradient-14">
            <stop stop-color="#2B3389" offset="0%"></stop>
            <stop stop-color="#444FB7" offset="100%"></stop>
        </linearGradient>
        <linearGradient x1="50%" y1="0%" x2="52.6627218%" y2="89.3678428%" id="linearGradient-15">
            <stop stop-color="#0F1752" offset="0%"></stop>
            <stop stop-color="#272884" offset="100%"></stop>
        </linearGradient>
        <linearGradient x1="50%" y1="-2.48949813e-15%" x2="50%" y2="100%" id="linearGradient-16">
            <stop stop-color="#4DBCFA" offset="0%"></stop>
            <stop stop-color="#1486DB" offset="100%"></stop>
        </linearGradient>
        <linearGradient x1="50%" y1="114.0151%" x2="50.0978736%" y2="25.9019529%" id="linearGradient-17">
            <stop stop-color="#2B3389" offset="0%"></stop>
            <stop stop-color="#444FB7" offset="100%"></stop>
        </linearGradient>
        <linearGradient x1="50%" y1="7.26438915%" x2="50%" y2="151.05781%" id="linearGradient-18">
            <stop stop-color="#D0F6FF" offset="0%"></stop>
            <stop stop-color="#8BE2F7" offset="100%"></stop>
        </linearGradient>
        <linearGradient x1="50%" y1="0%" x2="50%" y2="100%" id="linearGradient-19">
            <stop stop-color="#FF9485" offset="0%"></stop>
            <stop stop-color="#FF676E" offset="100%"></stop>
        </linearGradient>
        <linearGradient x1="50%" y1="0%" x2="50%" y2="69.6197333%" id="linearGradient-20">
            <stop stop-color="#4DBCFA" offset="0%"></stop>
            <stop stop-color="#1486DB" offset="100%"></stop>
        </linearGradient>
        <linearGradient x1="50%" y1="0%" x2="50%" y2="100%" id="linearGradient-21">
            <stop stop-color="#FF9485" offset="0%"></stop>
            <stop stop-color="#FF676E" offset="100%"></stop>
        </linearGradient>
        <linearGradient x1="50%" y1="0%" x2="50%" y2="100%" id="linearGradient-22">
            <stop stop-color="#FF9485" offset="0%"></stop>
            <stop stop-color="#FF676E" offset="100%"></stop>
        </linearGradient>
        <linearGradient x1="50%" y1="49.94555%" x2="100%" y2="50.0428716%" id="linearGradient-23">
            <stop stop-color="#0F1752" offset="0%"></stop>
            <stop stop-color="#272884" offset="100%"></stop>
        </linearGradient>
        <linearGradient x1="82.5767258%" y1="-52.951376%" x2="82.5767258%" y2="186.664812%" id="linearGradient-24">
            <stop stop-color="#1533B6" offset="0%"></stop>
            <stop stop-color="#356BE9" offset="100%"></stop>
        </linearGradient>
        <linearGradient x1="50%" y1="0%" x2="50%" y2="100%" id="linearGradient-25">
            <stop stop-color="#FF9485" offset="0%"></stop>
            <stop stop-color="#FF676E" offset="100%"></stop>
        </linearGradient>
        <linearGradient x1="50%" y1="0%" x2="50%" y2="100%" id="linearGradient-26">
            <stop stop-color="#FF9485" offset="0%"></stop>
            <stop stop-color="#FF676E" offset="100%"></stop>
        </linearGradient>
        <linearGradient x1="50%" y1="0%" x2="50%" y2="100%" id="linearGradient-27">
            <stop stop-color="#1D2A78" offset="0%"></stop>
            <stop stop-color="#12033B" offset="100%"></stop>
        </linearGradient>
        <linearGradient x1="50%" y1="0%" x2="58.4207805%" y2="89.3678428%" id="linearGradient-28">
            <stop stop-color="#0F1752" offset="0%"></stop>
            <stop stop-color="#272884" offset="100%"></stop>
        </linearGradient>
        <linearGradient x1="50%" y1="-27.3641552%" x2="50%" y2="100%" id="linearGradient-29">
            <stop stop-color="#C0E4FD" offset="0%"></stop>
            <stop stop-color="#72B9FE" offset="100%"></stop>
        </linearGradient>
        <linearGradient x1="50%" y1="0%" x2="50%" y2="100%" id="linearGradient-30">
            <stop stop-color="#1D2A78" offset="0%"></stop>
            <stop stop-color="#12033B" offset="100%"></stop>
        </linearGradient>
    </defs>
    <g id="CRM" stroke="none" stroke-width="1" fill="none" fill-rule="evenodd">
        <rect fill="#FFFFFF" x="0" y="0" width="1440" height="1024"></rect>
        <g id="Data" transform="translate(108.000000, 90.000000)">
            <polygon id="Shape" fill="url(#linearGradient-1)" points="1171 280 1171 642 1071 642 1071 280 1036 280 1121 160 1206 280"></polygon>
            <polygon id="Shape" fill="url(#linearGradient-2)" points="149 100 229 100 229 185 149 185"></polygon>
            <polygon id="Shape" fill="url(#linearGradient-3)" points="229 57 309 57 309 185 229 185"></polygon>
            <path d="M152,426 C73.5755655,426 10,362.424434 10,284 C10,205.575566 73.5755655,142 152,142 C230.424434,142 294,205.575566 294,284 C294,362.424434 230.424434,426 152,426 Z M152,366 C197.287349,366 234,329.287349 234,284 C234,238.712651 197.287349,202 152,202 C106.712651,202 70,238.712651 70,284 C70,329.287349 106.712651,366 152,366 Z" id="Shape" fill="url(#linearGradient-4)"></path>
            <path d="M0,284 L80,284 C80,323.764502 112.235498,356 152,356 L152,436 C68.052718,436 0,367.947282 0,284 Z" id="Shape" fill="url(#linearGradient-5)"></path>
            <polygon id="Shape" fill="url(#linearGradient-6)" points="1079 120 1079 482 979 482 979 120 944 120 1029 0 1114 120"></polygon>
            <polygon id="Shape" fill="url(#linearGradient-7)" points="309 14 389 14 389 185 309 185"></polygon>
            <path d="M407.817615,172.579399 C407.817615,175.01417 405.843724,176.987942 403.408807,176.987942 C400.97389,176.987942 399,175.01417 399,172.579399 C399,170.144628 400.97389,168.170856 403.408807,168.170856 C405.843724,168.170856 407.817615,170.144628 407.817615,172.579399 Z M407.817615,154.945228 C407.817615,157.379999 405.843724,159.353771 403.408807,159.353771 C400.97389,159.353771 399,157.379999 399,154.945228 C399,152.510457 400.97389,150.536685 403.408807,150.536685 C405.843724,150.536685 407.817615,152.510457 407.817615,154.945228 Z M407.817615,137.311057 C407.817615,139.745828 405.843724,141.719599 403.408807,141.719599 C400.97389,141.719599 399,139.745828 399,137.311057 C399,134.876286 400.97389,132.902514 403.408807,132.902514 C405.843724,132.902514 407.817615,134.876286 407.817615,137.311057 Z M407.817615,119.676885 C407.817615,122.111656 405.843724,124.085428 403.408807,124.085428 C400.97389,124.085428 399,122.111656 399,119.676885 C399,117.242114 400.97389,115.268343 403.408807,115.268343 C405.843724,115.268343 407.817615,117.242114 407.817615,119.676885 Z M407.817615,102.042714 C407.817615,104.477485 405.843724,106.451257 403.408807,106.451257 C400.97389,106.451257 399,104.477485 399,102.042714 C399,99.6079431 400.97389,97.6341713 403.408807,97.6341713 C405.843724,97.6341713 407.817615,99.6079431 407.817615,102.042714 Z M407.817615,84.4085428 C407.817615,86.8433138 405.843724,88.8170856 403.408807,88.8170856 C400.97389,88.8170856 399,86.8433138 399,84.4085428 C399,81.9737719 400.97389,80 403.408807,80 C405.843724,80 407.817615,81.9737719 407.817615,84.4085428 Z M425.452844,172.579399 C425.452844,175.01417 423.478954,176.987942 421.044037,176.987942 C418.609119,176.987942 416.635229,175.01417 416.635229,172.579399 C416.635229,170.144628 418.609119,168.170856 421.044037,168.170856 C423.478954,168.170856 425.452844,170.144628 425.452844,172.579399 Z M425.452844,154.945228 C425.452844,157.379999 423.478954,159.353771 421.044037,159.353771 C418.609119,159.353771 416.635229,157.379999 416.635229,154.945228 C416.635229,152.510457 418.609119,150.536685 421.044037,150.536685 C423.478954,150.536685 425.452844,152.510457 425.452844,154.945228 Z M425.452844,137.311057 C425.452844,139.745828 423.478954,141.719599 421.044037,141.719599 C418.609119,141.719599 416.635229,139.745828 416.635229,137.311057 C416.635229,134.876286 418.609119,132.902514 421.044037,132.902514 C423.478954,132.902514 425.452844,134.876286 425.452844,137.311057 Z M425.452844,119.676885 C425.452844,122.111656 423.478954,124.085428 421.044037,124.085428 C418.609119,124.085428 416.635229,122.111656 416.635229,119.676885 C416.635229,117.242114 418.609119,115.268343 421.044037,115.268343 C423.478954,115.268343 425.452844,117.242114 425.452844,119.676885 Z M425.452844,102.042714 C425.452844,104.477485 423.478954,106.451257 421.044037,106.451257 C418.609119,106.451257 416.635229,104.477485 416.635229,102.042714 C416.635229,99.6079431 418.609119,97.6341713 421.044037,97.6341713 C423.478954,97.6341713 425.452844,99.6079431 425.452844,102.042714 Z M425.452844,84.4085428 C425.452844,86.8433138 423.478954,88.8170856 421.044037,88.8170856 C418.609119,88.8170856 416.635229,86.8433138 416.635229,84.4085428 C416.635229,81.9737719 418.609119,80 421.044037,80 C423.478954,80 425.452844,81.9737719 425.452844,84.4085428 Z M443.088073,172.579399 C443.088073,175.01417 441.114183,176.987942 438.679266,176.987942 C436.244349,176.987942 434.270458,175.01417 434.270458,172.579399 C434.270458,170.144628 436.244349,168.170856 438.679266,168.170856 C441.114183,168.170856 443.088073,170.144628 443.088073,172.579399 Z M443.088073,154.945228 C443.088073,157.379999 441.114183,159.353771 438.679266,159.353771 C436.244349,159.353771 434.270458,157.379999 434.270458,154.945228 C434.270458,152.510457 436.244349,150.536685 438.679266,150.536685 C441.114183,150.536685 443.088073,152.510457 443.088073,154.945228 Z M443.088073,137.311057 C443.088073,139.745828 441.114183,141.719599 438.679266,141.719599 C436.244349,141.719599 434.270458,139.745828 434.270458,137.311057 C434.270458,134.876286 436.244349,132.902514 438.679266,132.902514 C441.114183,132.902514 443.088073,134.876286 443.088073,137.311057 Z M443.088073,119.676885 C443.088073,122.111656 441.114183,124.085428 438.679266,124.085428 C436.244349,124.085428 434.270458,122.111656 434.270458,119.676885 C434.270458,117.242114 436.244349,115.268343 438.679266,115.268343 C441.114183,115.268343 443.088073,117.242114 443.088073,119.676885 Z M443.088073,102.042714 C443.088073,104.477485 441.114183,106.451257 438.679266,106.451257 C436.244349,106.451257 434.270458,104.477485 434.270458,102.042714 C434.270458,99.6079431 436.244349,97.6341713 438.679266,97.6341713 C441.114183,97.6341713 443.088073,99.6079431 443.088073,102.042714 Z M443.088073,84.4085428 C443.088073,86.8433138 441.114183,88.8170856 438.679266,88.8170856 C436.244349,88.8170856 434.270458,86.8433138 434.270458,84.4085428 C434.270458,81.9737719 436.244349,80 438.679266,80 C441.114183,80 443.088073,81.9737719 443.088073,84.4085428 Z M460.723302,172.579399 C460.723302,175.01417 458.749412,176.987942 456.314495,176.987942 C453.879578,176.987942 451.905688,175.01417 451.905688,172.579399 C451.905688,170.144628 453.879578,168.170856 456.314495,168.170856 C458.749412,168.170856 460.723302,170.144628 460.723302,172.579399 Z M460.723302,154.945228 C460.723302,157.379999 458.749412,159.353771 456.314495,159.353771 C453.879578,159.353771 451.905688,157.379999 451.905688,154.945228 C451.905688,152.510457 453.879578,150.536685 456.314495,150.536685 C458.749412,150.536685 460.723302,152.510457 460.723302,154.945228 Z M460.723302,137.311057 C460.723302,139.745828 458.749412,141.719599 456.314495,141.719599 C453.879578,141.719599 451.905688,139.745828 451.905688,137.311057 C451.905688,134.876286 453.879578,132.902514 456.314495,132.902514 C458.749412,132.902514 460.723302,134.876286 460.723302,137.311057 Z M460.723302,119.676885 C460.723302,122.111656 458.749412,124.085428 456.314495,124.085428 C453.879578,124.085428 451.905688,122.111656 451.905688,119.676885 C451.905688,117.242114 453.879578,115.268343 456.314495,115.268343 C458.749412,115.268343 460.723302,117.242114 460.723302,119.676885 Z M460.723302,102.042714 C460.723302,104.477485 458.749412,106.451257 456.314495,106.451257 C453.879578,106.451257 451.905688,104.477485 451.905688,102.042714 C451.905688,99.6079431 453.879578,97.6341713 456.314495,97.6341713 C458.749412,97.6341713 460.723302,99.6079431 460.723302,102.042714 Z M460.723302,84.4085428 C460.723302,86.8433138 458.749412,88.8170856 456.314495,88.8170856 C453.879578,88.8170856 451.905688,86.8433138 451.905688,84.4085428 C451.905688,81.9737719 453.879578,80 456.314495,80 C458.749412,80 460.723302,81.9737719 460.723302,84.4085428 Z M478.358531,172.579399 C478.358531,175.01417 476.384641,176.987942 473.949724,176.987942 C471.514807,176.987942 469.540917,175.01417 469.540917,172.579399 C469.540917,170.144628 471.514807,168.170856 473.949724,168.170856 C476.384641,168.170856 478.358531,170.144628 478.358531,172.579399 Z M478.358531,154.945228 C478.358531,157.379999 476.384641,159.353771 473.949724,159.353771 C471.514807,159.353771 469.540917,157.379999 469.540917,154.945228 C469.540917,152.510457 471.514807,150.536685 473.949724,150.536685 C476.384641,150.536685 478.358531,152.510457 478.358531,154.945228 Z M478.358531,137.311057 C478.358531,139.745828 476.384641,141.719599 473.949724,141.719599 C471.514807,141.719599 469.540917,139.745828 469.540917,137.311057 C469.540917,134.876286 471.514807,132.902514 473.949724,132.902514 C476.384641,132.902514 478.358531,134.876286 478.358531,137.311057 Z M478.358531,119.676885 C478.358531,122.111656 476.384641,124.085428 473.949724,124.085428 C471.514807,124.085428 469.540917,122.111656 469.540917,119.676885 C469.540917,117.242114 471.514807,115.268343 473.949724,115.268343 C476.384641,115.268343 478.358531,117.242114 478.358531,119.676885 Z M478.358531,102.042714 C478.358531,104.477485 476.384641,106.451257 473.949724,106.451257 C471.514807,106.451257 469.540917,104.477485 469.540917,102.042714 C469.540917,99.6079431 471.514807,97.6341713 473.949724,97.6341713 C476.384641,97.6341713 478.358531,99.6079431 478.358531,102.042714 Z M478.358531,84.4085428 C478.358531,86.8433138 476.384641,88.8170856 473.949724,88.8170856 C471.514807,88.8170856 469.540917,86.8433138 469.540917,84.4085428 C469.540917,81.9737719 471.514807,80 473.949724,80 C476.384641,80 478.358531,81.9737719 478.358531,84.4085428 Z M495.993761,172.579399 C495.993761,175.01417 494.01987,176.987942 491.584953,176.987942 C489.150036,176.987942 487.176146,175.01417 487.176146,172.579399 C487.176146,170.144628 489.150036,168.170856 491.584953,168.170856 C494.01987,168.170856 495.993761,170.144628 495.993761,172.579399 Z M495.993761,154.945228 C495.993761,157.379999 494.01987,159.353771 491.584953,159.353771 C489.150036,159.353771 487.176146,157.379999 487.176146,154.945228 C487.176146,152.510457 489.150036,150.536685 491.584953,150.536685 C494.01987,150.536685 495.993761,152.510457 495.993761,154.945228 Z M495.993761,137.311057 C495.993761,139.745828 494.01987,141.719599 491.584953,141.719599 C489.150036,141.719599 487.176146,139.745828 487.176146,137.311057 C487.176146,134.876286 489.150036,132.902514 491.584953,132.902514 C494.01987,132.902514 495.993761,134.876286 495.993761,137.311057 Z M495.993761,119.676885 C495.993761,122.111656 494.01987,124.085428 491.584953,124.085428 C489.150036,124.085428 487.176146,122.111656 487.176146,119.676885 C487.176146,117.242114 489.150036,115.268343 491.584953,115.268343 C494.01987,115.268343 495.993761,117.242114 495.993761,119.676885 Z M495.993761,102.042714 C495.993761,104.477485 494.01987,106.451257 491.584953,106.451257 C489.150036,106.451257 487.176146,104.477485 487.176146,102.042714 C487.176146,99.6079431 489.150036,97.6341713 491.584953,97.6341713 C494.01987,97.6341713 495.993761,99.6079431 495.993761,102.042714 Z M495.993761,84.4085428 C495.993761,86.8433138 494.01987,88.8170856 491.584953,88.8170856 C489.150036,88.8170856 487.176146,86.8433138 487.176146,84.4085428 C487.176146,81.9737719 489.150036,80 491.584953,80 C494.01987,80 495.993761,81.9737719 495.993761,84.4085428 Z" id="Shape" fill="#91E5F5"></path>
        </g>
        <g id="Plant" transform="translate(1131.372997, 610.763146)">
            <path d="M39.4981201,164.85314 C63.4566962,71.748516 121.682551,39.0261602 214.175686,66.686073 C206.306031,108.785983 187.576224,141.226961 157.986264,164.009006 C128.396305,186.791051 88.9002567,187.07243 39.4981201,164.85314 Z" id="Shape" fill="url(#linearGradient-8)"></path>
            <path d="M112.199981,124.886095 C100.139976,131.70387 89.6132561,137.684381 80.6200381,142.827502 L106.833213,152.40034 C107.351987,152.589792 107.618955,153.163922 107.429503,153.682696 C107.240051,154.20147 106.66592,154.468438 106.147147,154.278986 L78.4735497,144.172815 C78.4334125,144.158157 78.3947825,144.141197 78.3577547,144.122137 C64.2878983,152.179389 54.1992577,158.06264 48.092738,161.771355 C47.6206926,162.058046 47.0056154,161.907786 46.7189248,161.435741 C46.4322341,160.963695 46.5824938,160.348618 47.0545393,160.061927 C57.2599941,153.863777 78.5426326,141.617214 110.906658,123.319766 L114.182626,91.2147532 C114.317975,89.8883075 116.307644,90.0913315 116.172294,91.4177773 L113.040088,122.113908 C137.314606,108.396877 167.641095,91.3752236 204.02125,71.047949 C204.503379,70.7785611 205.112604,70.951022 205.381992,71.4331513 C205.65138,71.9152805 205.478919,72.5245055 204.99679,72.7938934 C185.072135,83.9267193 166.963292,94.068028 150.67054,103.217655 L178.847155,109.94056 C179.38436,110.068737 179.715944,110.608135 179.587767,111.14534 C179.459591,111.682545 178.920192,112.014128 178.382987,111.885952 L148.101221,104.660761 C135.046853,111.994206 123.186373,118.675724 112.51993,124.705228 C112.425509,124.78719 112.316363,124.847224 112.199981,124.886095 L112.199981,124.886095 Z" id="Shape" fill="#FFFFFF" fill-rule="nonzero"></path>
            <path d="M50.2925002,192.93029 C1.39886056,110.154107 19.4325579,45.8440106 104.393592,5.68434189e-14 C128.598038,35.3338181 138.293299,71.5170271 133.479377,108.549627 C128.665455,145.582227 100.936496,173.709114 50.2925002,192.93029 Z" id="Shape" fill="url(#linearGradient-9)" fill-rule="nonzero"></path>
            <path d="M71.4174312,113.068298 L51.0322176,88.0501669 C50.1899853,87.0165217 51.7404532,85.7531732 52.5826855,86.7868184 L72.0733233,110.707065 C79.5385941,83.8429829 88.9465331,50.3627908 100.297634,10.2645827 C100.448065,9.73317982 101.0008,9.42434098 101.532203,9.57477183 C102.063606,9.72520267 102.372445,10.2779381 102.222014,10.809341 C96.0052518,32.7702963 90.3713544,52.7461701 85.3204025,70.7366492 L109.99809,55.5665848 C110.468586,55.2773579 111.084463,55.4243053 111.37369,55.8948011 C111.662917,56.3652968 111.515969,56.9811737 111.045474,57.2704006 L84.5240498,73.5738611 C80.4787456,87.9902222 76.8166666,101.101395 73.537856,112.907212 C73.5290457,113.031934 73.4943191,113.151562 73.4395101,113.261343 C69.7326936,126.609949 66.518039,138.282324 63.7956093,148.278225 L89.1001411,136.51173 C89.6009325,136.278864 90.1956791,136.496061 90.4285449,136.996852 C90.6614106,137.497643 90.444214,138.09239 89.9434227,138.325256 L63.2290923,150.747301 C63.1903464,150.765318 63.151038,150.78064 63.1113783,150.793346 C58.8598251,166.439575 55.8861651,177.733407 54.1906615,184.673826 C54.0595959,185.210334 53.518421,185.539009 52.9819135,185.407944 C52.4454061,185.276878 52.1167305,184.735703 52.2477961,184.199196 C55.0813881,172.600095 61.4708588,148.89137 71.4174312,113.068298 Z" id="Shape" fill="#FFFFFF" fill-rule="nonzero"></path>
            <path d="M-1.13686838e-13,227.324394 C47.2394574,143.593169 111.950484,127.05576 194.133079,177.712169 C175.635317,216.340743 149.14737,242.82869 114.669237,257.176011 C80.1911033,271.523332 41.9680244,261.572793 -1.13686838e-13,227.324394 Z" id="Shape" fill="url(#linearGradient-10)"></path>
            <path d="M79.7249797,205.688125 L91.1987099,175.524946 C91.6727567,174.278729 93.5420825,174.9898 93.0680357,176.236017 L82.0978137,205.075527 C109.095426,198.108601 142.794093,189.516019 183.19571,179.297256 C183.731134,179.161832 184.274964,179.486095 184.410388,180.021519 C184.545813,180.556943 184.221549,181.100773 183.686125,181.236197 C161.558999,186.832801 141.442436,191.94164 123.336749,196.562627 L148.813254,210.349099 C149.298979,210.611947 149.479657,211.218786 149.21681,211.704511 C148.953962,212.190237 148.347123,212.370915 147.861397,212.108067 L120.481475,197.291571 C105.973888,200.996415 92.7882394,204.380548 80.9246965,207.443924 C80.8122791,207.498655 80.6913149,207.528394 80.5688374,207.535819 C67.1551971,210.999925 55.4392964,214.05214 45.4213772,216.692397 L68.2637271,232.723517 C68.7157905,233.040782 68.825066,233.664446 68.5078008,234.116509 C68.1905357,234.568573 67.5668717,234.677848 67.1148084,234.360583 L42.9998362,217.436317 C42.9648603,217.41177 42.9319364,217.38539 42.9011031,217.357396 C27.2252951,221.498557 15.9577195,224.570208 9.09938818,226.572069 C8.56922629,226.726816 8.01399746,226.422483 7.85924988,225.892321 C7.7045023,225.362159 8.00883573,224.80693 8.53899762,224.652183 C20.0009094,221.306595 43.7280033,214.985676 79.7249797,205.688125 Z" id="Shape" fill="#FFFFFF" fill-rule="nonzero"></path>
        </g>
        <g id="Ornament" transform="translate(69.000000, 671.000000)">
            <path d="M116,232 C116,152.475393 116,51.934969 116,0 C51.934969,0 0,51.934969 0,116 C0,180.065031 51.934969,232 116,232 Z" id="Shape" fill="url(#linearGradient-11)" transform="translate(58.000000, 116.000000) scale(-1, 1) translate(-58.000000, -116.000000) "></path>
            <path d="M188,47 C84.7227518,47 1,130.722752 1,234 L188,234 L188,47 Z" id="Shape" fill="url(#linearGradient-12)"></path>
        </g>
        <g id="Laptop" transform="translate(207.000000, 255.000000)">
            <path d="M0,616 L1000,616 C1000,634.777681 984.777681,650 966,650 L34,650 C15.2223185,650 0,634.777681 0,616 Z" id="Shape" fill="url(#linearGradient-13)"></path>
            <path d="M90,0 L910,0 C932.09139,0 950,17.90861 950,40 L950,600 L50,600 L50,40 C50,17.90861 67.90861,0 90,0 Z" id="Shape" fill="url(#linearGradient-14)"></path>
            <path d="M90,0 L188.461537,0 L188.461537,600 L50,600 L50,40 C50,17.90861 67.90861,0 90,0 Z" id="Shape" fill="url(#linearGradient-15)"></path>
            <path d="M10,76 L159,76 C164.522847,76 169,80.4771525 169,86 L169,152 C169,157.522847 164.522847,162 159,162 L10,162 C4.4771525,162 0,157.522847 0,152 L0,86 C0,80.4771525 4.4771525,76 10,76 Z" id="Shape" fill="url(#linearGradient-16)"></path>
            <path d="M40,129 C34.4771525,129 30,124.522847 30,119 C30,113.477153 34.4771525,109 40,109 C45.5228475,109 50,113.477153 50,119 C50,124.522847 45.5228475,129 40,129 Z M80,129 C74.4771525,129 70,124.522847 70,119 C70,113.477153 74.4771525,109 80,109 C85.5228475,109 90,113.477153 90,119 C90,124.522847 85.5228475,129 80,129 Z M120,129 C114.477153,129 110,124.522847 110,119 C110,113.477153 114.477153,109 120,109 C125.522847,109 130,113.477153 130,119 C130,124.522847 125.522847,129 120,129 Z" id="Shape" fill="#FFFFFF"></path>
            <path d="M80,202 L159,202 C164.522847,202 169,206.477153 169,212 L169,278 C169,283.522847 164.522847,288 159,288 L80,288 C74.4771525,288 70,283.522847 70,278 L70,212 C70,206.477153 74.4771525,202 80,202 Z M80,312 L159,312 C164.522847,312 169,316.477153 169,322 L169,388 C169,393.522847 164.522847,398 159,398 L80,398 C74.4771525,398 70,393.522847 70,388 L70,322 C70,316.477153 74.4771525,312 80,312 Z M80,422 L159,422 C164.522847,422 169,426.477153 169,432 L169,498 C169,503.522847 164.522847,508 159,508 L80,508 C74.4771525,508 70,503.522847 70,498 L70,432 C70,426.477153 74.4771525,422 80,422 Z" id="Shape" fill="url(#linearGradient-17)"></path>
            <path d="M212,90 L926,90 C928.209139,90 930,91.790861 930,94 L930,585 C930,587.209139 928.209139,589 926,589 L212,589 C209.790861,589 208,587.209139 208,585 L208,94 C208,91.790861 209.790861,90 212,90 Z M212,20 L926,20 C928.209139,20 930,21.790861 930,24 L930,66 C930,68.209139 928.209139,70 926,70 L212,70 C209.790861,70 208,68.209139 208,66 L208,24 C208,21.790861 209.790861,20 212,20 Z" id="Shape" fill="#FFFFFF"></path>
            <path d="M291.597152,451.966234 C331.085519,455.065287 372.026412,435.845801 414.419831,394.307776 C478.009959,332.000738 504.217669,310.264892 598.566617,352.286334 C692.915566,394.307776 717.37928,346.365972 738.301251,291.769728 C759.223221,237.173484 791.147065,201.854227 840.600081,201.854227 C840.600081,231.694212 840.600081,353.860272 840.600081,568.352406 L291.597152,568.352406 L291.597152,451.966234 Z" id="Shape" fill="url(#linearGradient-18)"></path>
            <path d="M230,110 L286,110 C287.104569,110 288,110.895431 288,112 L288,128 C288,129.104569 287.104569,130 286,130 L230,130 C228.895431,130 228,129.104569 228,128 L228,112 C228,110.895431 228.895431,110 230,110 Z M310,110 L366,110 C367.104569,110 368,110.895431 368,112 L368,128 C368,129.104569 367.104569,130 366,130 L310,130 C308.895431,130 308,129.104569 308,128 L308,112 C308,110.895431 308.895431,110 310,110 Z" id="Shape" fill="url(#linearGradient-19)"></path>
            <path d="M230,150 L396,150 C397.104569,150 398,150.895431 398,152 L398,158 C398,159.104569 397.104569,160 396,160 L230,160 C228.895431,160 228,159.104569 228,158 L228,152 C228,150.895431 228.895431,150 230,150 Z M230,210 L376,210 C377.104569,210 378,210.895431 378,212 L378,218 C378,219.104569 377.104569,220 376,220 L230,220 C228.895431,220 228,219.104569 228,218 L228,212 C228,210.895431 228.895431,210 230,210 Z M230,270 L406,270 C407.104569,270 408,270.895431 408,272 L408,278 C408,279.104569 407.104569,280 406,280 L230,280 C228.895431,280 228,279.104569 228,278 L228,272 C228,270.895431 228.895431,270 230,270 Z M230,240 L346,240 C347.104569,240 348,240.895431 348,242 L348,248 C348,249.104569 347.104569,250 346,250 L230,250 C228.895431,250 228,249.104569 228,248 L228,242 C228,240.895431 228.895431,240 230,240 Z M230,180 L416,180 C417.104569,180 418,180.895431 418,182 L418,188 C418,189.104569 417.104569,190 416,190 L230,190 C228.895431,190 228,189.104569 228,188 L228,182 C228,180.895431 228.895431,180 230,180 Z" id="Shape" fill="#8FC8F0"></path>
            <path d="M339.63964,444.712329 L341.63964,444.712329 L341.63964,566.47037 L339.63964,566.47037 L339.63964,444.712329 Z M290.727894,448.133997 L292.727894,448.133997 L292.727894,566.47037 L290.727894,566.47037 L290.727894,448.133997 Z M388.540612,416.564502 L390.540612,416.564502 L390.540612,566.66551 L388.540612,566.66551 L388.540612,416.564502 Z M438.59515,369.881971 L440.59515,369.881971 L440.59515,566.66551 L438.59515,566.66551 L438.59515,369.881971 Z M488.649688,334.870073 L490.649688,334.870073 L490.649688,566.66551 L488.649688,566.66551 L488.649688,334.870073 Z M538.704226,333.20284 L540.704226,333.20284 L540.704226,566.66551 L538.704226,566.66551 L538.704226,333.20284 Z M588.758764,348.207939 L590.758764,348.207939 L590.758764,566.66551 L588.758764,566.66551 L588.758764,348.207939 Z M638.813302,366.547505 L640.813302,366.547505 L640.813302,566.66551 L638.813302,566.66551 L638.813302,366.547505 Z M688.867841,359.878572 L690.867841,359.878572 L690.867841,566.66551 L688.867841,566.66551 L688.867841,359.878572 Z M738.922379,283.185842 L740.922379,283.185842 L740.922379,566.66551 L738.922379,566.66551 L738.922379,283.185842 Z M788.976917,216.496512 L790.976917,216.496512 L790.976917,566.66551 L788.976917,566.66551 L788.976917,216.496512 Z M839.031455,203.158646 L841.031455,203.158646 L841.031455,566.66551 L839.031455,566.66551 L839.031455,203.158646 Z" id="Shape" fill="url(#linearGradient-20)"></path>
            <path d="M518.154999,334.617253 C510.33221,334.747191 503.074342,335.893755 496.118921,338.001904 C484.115857,341.639967 472.476327,348.250091 459.227564,358.688811 C448.204683,367.373754 437.472163,377.320657 417.219287,397.164881 C374.071279,439.442269 332.078576,459.155522 291.284193,455.953972 L291.91011,447.978495 C330.092462,450.975053 369.981545,432.249334 411.620375,391.450671 C432.075806,371.40798 442.954775,361.325348 454.276498,352.404947 C468.250553,341.39477 480.733187,334.305843 493.798412,330.345846 C501.846852,327.906408 510.201657,326.639988 519.185367,326.598605 C521.942498,318.419894 529.679535,312.530507 538.79219,312.530507 C550.201274,312.530507 559.454057,321.762209 559.476994,333.160362 C571.666481,336.775366 585.102037,341.910639 600.194035,348.632362 C643.153351,367.765722 672.736777,368.811509 693.764443,354.922044 C702.822413,348.938956 710.47803,340.124271 717.452973,328.153717 C723.190798,318.306334 728.102916,307.204207 734.566115,290.338377 C757.670301,230.047605 792.174151,197.854227 840.600081,197.854227 L840.600081,205.854227 C796.050204,205.854227 764.076581,235.686809 742.036386,293.201079 C735.430587,310.439025 730.371881,321.872462 724.365184,332.18129 C716.816025,345.137325 708.369641,354.862501 698.173658,361.597283 C674.515912,377.224002 642.158325,376.080148 596.939199,355.940306 C582.4092,349.468888 569.541123,344.531448 557.936962,341.044526 C554.846208,348.573274 547.438396,353.875172 538.79219,353.875172 C527.84456,353.875172 518.882331,345.375142 518.154999,334.617253 L518.154999,334.617253 Z M538.79219,345.875172 C545.798509,345.875172 551.477036,340.200904 551.477036,333.20284 C551.477036,326.204776 545.798509,320.530507 538.79219,320.530507 C531.785872,320.530507 526.107344,326.204776 526.107344,333.20284 C526.107344,340.200904 531.785872,345.875172 538.79219,345.875172 Z" id="Shape" fill="url(#linearGradient-21)"></path>
            <polygon id="Shape" fill="#8FC8F0" points="475.615006 166 600.751351 166 600.751351 232.68933 563.279221 232.68933 563.279221 267.244917 531.963602 232.68933 475.615006 232.68933"></polygon>
            <polygon id="Shape" fill="url(#linearGradient-22)" points="647.412613 201.720104 647.412613 268.409434 591.064017 268.409434 559.748398 302.965021 559.748398 268.409434 522.276267 268.409434 522.276267 201.720104"></polygon>
            <path d="M598.69261,616 C595.356524,625.883663 586.009317,633 575,633 L426,633 C414.990683,633 405.643476,625.883663 402.30739,616 L0,616 L0,600 L1000,600 L1000,616 L598.69261,616 L598.69261,616 Z" id="Shape" fill="url(#linearGradient-23)"></path>
        </g>
        <g id="Women" transform="translate(72.670258, 521.000000)">
            <path d="M224.619969,210.159238 C222.243599,208.966526 213.514778,206.995706 207.207109,208.577472 C200.89944,210.159238 199.364967,208.732692 197.176329,207.102197 C202.003996,203.076001 209.71963,201.015845 220.323233,200.921727 C227.999738,200.921727 241.563189,203.984496 259.076891,203.984496 C276.590593,203.984496 311.347232,200.921727 352.558438,192.623625 L356.312223,155.98554 L392.46656,158.803859 L380.986442,222.412398 C353.920223,225.085068 332.7304,225.846691 317.416972,224.697265 C294.446832,222.973126 262.548364,219.10449 247.449522,219.10449 C232.350681,219.10449 233.604157,219.678865 227.25879,222.412398 C220.913423,225.145931 205.075532,220.331078 216.177322,218.36546 C221.540122,217.415955 221.60285,217.75486 224.619969,215.660117 C227.637088,213.565374 226.996339,211.351951 224.619969,210.159238 Z" id="Shape" fill="#221E41"></path>
            <path d="M125.29835,356.791549 C135.559599,356.10043 142.861703,355.449867 147.204662,354.839861 C153.719101,353.924852 154.648553,355.140054 153.15393,358.961389 C151.659307,362.782724 147.666903,368.740977 145.218858,372.730106 C142.770814,376.719234 140.049117,376.071663 131.924127,372.713028 C123.799137,369.354394 123.606693,368.461637 113.989638,369.157968 C104.372583,369.854299 90.1680718,362.936283 87.6399888,356.009218 C85.1119059,349.082154 95.3418076,351.122705 106.446541,351.952757 C113.849696,352.506125 120.133632,354.119056 125.29835,356.791549 Z" id="Shape" fill="#021038"></path>
            <path d="M26.4749077,307.302759 C33.8546252,314.465905 39.2241488,319.457114 42.5834783,322.276388 C47.6224727,326.505299 47.3413265,328.009145 43.5014234,329.455396 C39.6615203,330.901647 32.562235,331.921562 27.9596736,332.771558 C23.3571122,333.621554 23.2006567,330.708894 20.2599289,322.423485 C17.3192011,314.138075 16.6704026,313.854426 9.71786175,307.173498 C2.76532092,300.49257 -2.34768233,283.150463 1.1085122,276.63662 C4.56470673,270.122777 10.7924207,281.104469 17.6060885,289.912307 C22.1485336,295.784199 25.1048067,301.581017 26.4749077,307.302759 Z" id="Shape" fill="#021038"></path>
            <path d="M78.7399285,302.39054 L83.5142653,323.529005 L41.2652244,330.121161 C38.2677655,325.683996 33.6867058,321.369133 27.5220453,317.176571 C21.3573847,312.984009 19.7826957,306.462764 22.7979781,297.612836 C27.3207926,304.653526 34.1935225,308.989671 43.4161678,310.621271 L78.7399285,302.39054 Z" id="Shape" fill="#FFC1AC"></path>
            <path d="M154.30518,312.262738 L173.901894,321.514648 L153.085476,358.865883 C147.743523,358.496121 141.522983,359.449551 134.423855,361.72617 C127.324726,364.00279 121.21644,361.228783 116.098995,353.404148 C124.431657,354.174803 132.079861,351.428615 139.043607,345.165585 L154.30518,312.262738 Z" id="Shape" fill="#FFC1AC"></path>
            <path d="M404.532353,316.418884 L209.450786,273.997139 L173.517075,340.756275 L139.479358,326.105913 L178.182823,239.089038 C181.037995,232.669762 186.296153,227.625773 192.828542,225.039848 L384.923088,268.637552 L404.532353,316.418884 Z" id="Shape" fill="#121958"></path>
            <path d="M72.8647195,331.345253 L59.7043636,299.423244 L183.379958,260.469515 C311.192325,263.379444 399.234823,264.275816 447.507452,263.15863 C447.507452,303.215123 415.035249,335.687326 374.978757,335.687326 C371.469766,335.687326 367.965401,335.432675 364.493274,334.92538 L189.66015,309.381381 L72.8647195,331.345253 Z" id="Shape" fill="url(#linearGradient-24)"></path>
            <path d="M407.465918,269.693515 L408.334103,270.368982 L403.605839,276.446277 L402.737654,275.770811 L407.465918,269.693515 Z M395.982993,284.452663 L396.851178,285.128129 L392.122915,291.205425 L391.254729,290.529958 L395.982993,284.452663 Z M383.53764,298.115097 L384.164124,299.019264 C382.009486,300.512181 379.682052,301.738178 377.234383,302.67093 L376.842675,301.643036 C379.207444,300.741876 381.456038,299.557409 383.53764,298.115097 Z M366.280597,303.692266 L366.301526,304.792067 C364.991425,304.816998 363.678455,304.762536 362.368433,304.628149 L358.533851,304.231823 L358.64694,303.137652 L362.481104,303.533935 C363.746415,303.663734 365.014908,303.716352 366.280597,303.692266 Z M347.70523,302.006736 L347.592139,303.100907 L339.932942,302.309266 L340.046033,301.215095 L347.70523,302.006736 Z M329.104323,300.084179 L328.991231,301.17835 L321.332034,300.386709 L321.445125,299.292538 L329.104323,300.084179 Z M310.503415,298.161622 L310.390323,299.255793 L302.731126,298.464152 L302.844218,297.369981 L310.503415,298.161622 Z M291.902507,296.239066 L291.789416,297.333237 L284.130218,296.541596 L284.24331,295.447425 L291.902507,296.239066 Z M273.301599,294.316509 L273.188508,295.41068 L265.529311,294.619039 L265.642402,293.524868 L273.301599,294.316509 Z M254.700692,292.393952 L254.5876,293.488123 L246.928403,292.696482 L247.041495,291.602311 L254.700692,292.393952 Z M236.099784,290.471395 L235.986692,291.565566 L228.327495,290.773925 L228.440587,289.679754 L236.099784,290.471395 Z M217.498876,288.548838 L217.385785,289.643009 L209.726588,288.851368 L209.839679,287.757197 L217.498876,288.548838 Z M198.897969,286.626282 L198.784877,287.720453 L191.12568,286.928812 L191.238771,285.834641 L198.897969,286.626282 Z M180.296109,287.349879 L180.565325,288.416426 L173.099496,290.300939 L172.83028,289.234392 L180.296109,287.349879 Z M162.16481,291.926555 L162.434026,292.993102 L154.968197,294.877616 L154.698981,293.811069 L162.16481,291.926555 Z M144.03351,296.503232 L144.302726,297.569779 L136.836897,299.454293 L136.567681,298.387746 L144.03351,296.503232 Z M125.902211,301.079908 L126.171427,302.146455 L118.705598,304.030969 L118.436381,302.964422 L125.902211,301.079908 Z M107.770911,305.656585 L108.040127,306.723132 L100.574298,308.607646 L100.305082,307.541099 L107.770911,305.656585 Z M89.6396114,310.233262 L89.9088277,311.299809 L82.4429985,313.184323 L82.1737823,312.117776 L89.6396114,310.233262 Z" id="Shape" fill="#FFFFFF" fill-rule="nonzero"></path>
            <path d="M411.697129,76.404037 C389.983023,92.4051584 375.203024,103.835306 367.357131,110.694479 C355.588291,120.983239 341.026968,148.394349 350.918094,170.269652 C360.809221,192.144955 362.112033,196.513865 362.112033,209.569475 C362.112033,218.273215 362.112033,236.461812 362.112033,264.135267 C376.084955,264.135267 404.676147,264.135267 447.885607,264.135267 C447.885607,242.344217 447.885607,216.634205 447.885607,187.005232 C447.885607,142.561772 439.517346,110.236284 428.45881,95.6635134 C421.086452,85.9483327 415.499225,79.5285073 411.697129,76.404037 Z" id="Shape" fill="url(#linearGradient-25)"></path>
            <path d="M203.592188,223.326365 L297.910697,245.460104 C298.631065,245.629153 299.153196,246.25371 299.191923,246.992668 L299.272383,248.527941 C299.280606,248.684837 299.266563,248.842107 299.230673,248.995063 C299.020787,249.889558 298.125546,250.444531 297.231095,250.23463 L182.758664,223.371367 C182.606783,223.335726 182.463715,223.279835 182.332131,223.206894 L181.643158,223.005677 C180.889644,222.785611 180.264726,222.256429 179.923485,221.549454 L136.424043,131.428376 C136.336791,131.24761 136.289831,131.050053 136.286408,130.849359 C136.273352,130.08381 136.883337,129.452628 137.648847,129.439575 L138.446513,129.425974 L165.573528,147.973194 L203.592188,223.326365 L203.592188,223.326365 Z" id="Shape" fill="#F08568"></path>
            <polygon id="Shape" fill="#DEE1EF" points="166.956181 147.900728 205.352559 224.002539 183.612254 220.548164 138.388272 129.37697"></polygon>
            <path d="M386.43803,140.052685 L369.569214,211.604407 C388.291294,214.577261 397.652334,215.601114 397.652334,214.675968 C397.652334,213.750821 400.377363,203.605169 405.82742,184.239012 L386.43803,140.052685 Z" id="Shape" fill="#D64F53"></path>
            <path d="M252.518011,214.568444 C251.799948,214.568444 243.25603,214.352641 240.030662,215.135019 C236.805293,215.917397 238.363439,219.116618 246.274336,218.547447 C254.185234,217.978276 253.236074,214.568444 252.518011,214.568444 Z" id="Shape" fill="#F4B696"></path>
            <path d="M255.535253,230.811291 C255.535253,229.886976 250.143005,233.08274 246.658875,234.504126 C243.174745,235.925511 239.43811,235.881707 242.139118,233.783461 C244.840125,231.685216 248.211141,229.453905 251.873197,226.616113 C254.314568,224.724252 251.968733,225.58929 244.835691,229.211225 C241.882686,231.240416 233.428612,236.593817 236.874805,231.735605 C239.172268,228.496798 243.955458,224.353975 251.148726,220.430329 C244.922589,221.477481 239.803718,228.126518 236.273247,228.602421 C233.919599,228.91969 233.46666,228.108028 234.914429,226.167434 C240.435862,220.085633 246.088784,216.160167 251.873197,214.391036 C259.549702,214.391036 272.144805,214.391036 289.658507,214.391036 C307.172209,214.391036 338.655507,211.625002 384.108402,206.092934 L387.862187,169.454849 L424.016524,172.273168 L412.536406,235.881707 C385.470187,238.554377 364.280364,239.316 348.966936,238.166574 C325.996795,236.442435 295.234245,232.269365 279.629186,231.735605 C264.024128,231.201846 263.02389,233.148174 256.678523,235.881707 C250.333155,238.61524 243.858992,238.236912 250.645,234.504126 C253.881448,232.723849 255.535253,231.735605 255.535253,230.811291 Z" id="Shape" fill="#F4B696"></path>
            <path d="M334.066456,49.8738294 C327.266812,48.7871452 323.520227,43.6356166 322.826701,34.4192436 C322.133175,25.2028705 333.770978,25.2028705 357.740111,34.4192436 L334.066456,49.8738294 Z" id="Shape" fill="#221E41"></path>
            <path d="M409.053548,81.5074368 C403.724389,71.5181257 399.931438,63.9593377 397.674693,58.8310728 C395.417949,53.7028078 393.180924,47.956572 390.96362,41.5923653 C391.474898,28.4442436 387.232439,20.3060571 378.236243,17.1778058 C364.741949,12.4854289 342.608825,19.8496425 336.842871,25.951109 C331.076917,32.0525754 328.390212,44.0213232 338.102775,60.0667434 L336.259498,71.1859002 C338.701768,72.977472 341.068591,73.3325635 343.359966,72.2511748 C347.008565,77.7232998 349.663722,81.1587989 351.32544,82.5576722 C353.818015,84.6559821 359.642647,91.0139215 372.609241,84.7961173 C376.410102,90.2653253 379.640507,96.409488 382.300455,103.228605 C383.65492,106.70095 366.452864,118.615481 376.32036,127.291462 C382.89869,133.075449 392.016054,128.698273 403.67245,114.159934 L409.053548,81.5074368 Z" id="Shape" fill="#F4B696"></path>
            <path d="M386.661269,135.240995 L384.026199,174.853219 C413.032989,179.540279 427.536384,181.883809 427.536384,181.883809 L429.462931,140.637154" id="Shape" fill="url(#linearGradient-26)"></path>
            <path d="M323.365838,35.3471677 C320.155925,27.0834457 331.019515,11.3489154 343.922449,5.7571042 C362.47007,-2.28097413 393.851326,-7.92100935 412.87489,31.9825261 C431.898453,71.8860615 422.744027,90.9381976 457.635769,105.092078 C492.527511,119.245959 491.313553,152.267252 447.896702,169.968812 C442.998809,144.391296 438.634823,131.83034 428.118193,125.899883 C415.956407,119.041702 382.79138,122.475895 386.557634,91.6817431 C390.323888,60.8875909 368.337059,79.8136279 368.337059,42.0891474 C359.499922,30.6138297 329.200806,48.5867685 323.365838,35.3471677 Z" id="Shape" fill="url(#linearGradient-27)"></path>
        </g>
        <g id="Men" transform="translate(909.170010, 275.461948)">
            <path d="M305.481105,155.685299 L316.331676,177.903338 C321.792452,189.08503 319.783309,202.477109 311.281728,211.564101 L283.811736,240.925654 L272.780724,225.739034 L292.476342,198.305476 L283.811736,176.687153 L305.481105,155.685299 Z" id="Shape" fill="#E9A17C"></path>
            <polygon id="Shape" fill="#75BBFD" points="253.015364 88.3993354 278.932016 99.9758803 310.962586 155.398251 289.76098 182.302804 253.015364 142.345979"></polygon>
            <polygon id="Shape" fill="#F4B696" points="273.380378 539.910723 273.380378 561.525629 251.752471 561.525629 251.752471 539.910723"></polygon>
            <polygon id="Shape" fill="#F4B696" points="209.698207 539.910723 209.698207 561.525629 188.0703 561.525629 188.0703 539.910723"></polygon>
            <polygon id="Shape" fill="#0C1452" points="247.852561 553.044631 217.678533 265.619915 288.53018 263.867404 275.981194 553.044631"></polygon>
            <path d="M183.645264,552.716416 L170.638139,398.934102 C169.677341,387.574653 170.340126,376.13625 172.606509,364.963797 L192.719883,265.812112 L288.600682,264.232238 L221.922553,399.065729 L213.39602,552.716416 L183.645264,552.716416 Z" id="Shape" fill="url(#linearGradient-28)"></path>
            <path d="M210.899757,559.123973 L210.899757,574.530922 C210.899757,577.181889 208.750724,579.330922 206.099757,579.330922 L163.493133,579.330922 C161.803975,579.330922 160.434641,577.655559 160.434641,575.588894 C160.434641,567.543781 166.541886,566.495569 173.793054,563.927286 L188.183162,559.123973 L210.899757,559.123973 Z" id="Shape" fill="#021038"></path>
            <path d="M173.82999,92.7037598 L173.82999,133.538052 L112.066156,124.741454 L36.6799395,70.1172413 C25.7548785,72.7259465 17.4001052,72.7259465 11.6156196,70.1172413 C5.83113405,67.5085362 1.95926084,60.8153411 -1.42108547e-14,50.0376562 L20.292348,50.0376562 L20.292348,39.8719481 L28.3314786,50.0376562 L113.259921,92.7037598 L173.82999,92.7037598 Z" id="Shape" fill="#F4B696"></path>
            <path d="M274.581928,559.123973 L274.581928,574.530922 C274.581928,577.181889 272.432895,579.330922 269.781928,579.330922 L227.175304,579.330922 C225.486145,579.330922 224.116812,577.655559 224.116812,575.588894 C224.116812,567.543781 230.224056,566.495569 237.475225,563.927286 L251.865332,559.123973 L274.581928,559.123973 Z" id="Shape" fill="#021038"></path>
            <path d="M221.52512,89.975095 C220.728949,77.7858674 218.352283,70.8687172 214.395122,69.2236442 C208.459381,66.7560347 204.649285,65.5194731 205.424059,59.2735663 C206.198832,53.0276595 204.520013,50.924367 201.934358,49.687075 C199.348703,48.4497829 197.272225,44.4819995 204.653577,40.2319893 C209.574479,37.3986492 212.397839,30.5962846 213.123659,19.8248955 C239.734544,11.1298598 254.488356,16.1149047 257.385096,34.7800304 C260.281836,53.445156 258.299168,68.0282299 251.437091,78.529252 L251.437091,89.975095 L221.52512,89.975095 Z" id="Shape" fill="#F4B696"></path>
            <path d="M157.860447,86.1274155 C200.3031,86.1274155 226.048056,86.1274155 235.095314,86.1274155 C239.484917,86.1274155 243.874521,86.1274155 248.264124,86.1274155 C271.460084,86.1274155 290.264124,104.931456 290.264124,128.127416 L290.264124,265.994482 L192.654529,265.994482 L192.654529,135.02783 L157.860447,135.02783 L157.860447,86.1274155 Z" id="Shape" fill="url(#linearGradient-29)"></path>
            <path d="M251.840773,78.2882838 C243.642449,78.0374529 238.957038,76.622035 237.784539,74.0420301 C236.025792,70.1720227 235.795236,63.2724188 236.187436,61.0948814 C236.579637,58.9173441 239.06187,59.82876 241.021915,59.82876 C242.981959,59.82876 246.024802,55.4172005 243.994247,52.1003932 C241.963693,48.7835858 239.154604,49.3031185 237.784539,49.8920604 C236.414475,50.4810023 233.11986,48.8314543 234.223714,43.47529 C235.327569,38.1191257 237.791734,33.1025085 234.223714,33.1025085 C230.655695,33.1025085 210.662888,30.8099272 209.608279,17.2388926 C208.553669,3.66785805 216.430462,-4.02173535 229.077298,2.1698936 C241.724135,8.36152255 245.796276,7.78582424 255.324852,9.95969169 C264.853429,12.1335591 274.339156,14.8020676 276.346686,31.5132748 C278.354217,48.2244819 271.67865,56.7284778 263.995799,62.793734 C256.312949,68.8589901 258.072976,70.7175638 257.008773,74.0420301 C256.299305,76.2583409 254.576638,77.6737588 251.840773,78.2882838 Z" id="Shape" fill="url(#linearGradient-30)"></path>
            <path d="M235.134232,272.286741 L232.693766,278.847543 L231.756508,278.498905 L234.196975,271.938103 L235.134232,272.286741 Z M229.207385,288.220117 L226.766918,294.780919 L225.829661,294.432281 L228.270128,287.871479 L229.207385,288.220117 Z M223.280537,304.153493 L220.840071,310.714295 L219.902813,310.365657 L222.34328,303.804855 L223.280537,304.153493 Z M217.35369,320.08687 L214.913223,326.647672 L213.975966,326.299033 L216.416432,319.738231 L217.35369,320.08687 Z M211.426842,336.020246 L208.986376,342.581048 L208.049118,342.23241 L210.489585,335.671608 L211.426842,336.020246 Z M205.499995,351.953622 L203.059528,358.514424 L202.122271,358.165786 L204.562737,351.604984 L205.499995,351.953622 Z M199.580235,367.884266 C198.793513,370.070516 198.083879,372.282897 197.452469,374.517362 L196.490151,374.245432 C197.127908,371.98851 197.844674,369.753893 198.639303,367.545671 L199.580235,367.884266 Z M195.225978,384.232297 C194.821243,386.518921 194.496658,388.819135 194.252847,391.128698 L193.258373,391.023716 C193.504634,388.690941 193.832481,386.36761 194.241284,384.058005 L195.225978,384.232297 Z M193.704264,401.078528 C193.698919,402.151262 193.710923,403.224211 193.740287,404.296963 L193.844249,408.07507 L192.844627,408.102576 L192.740664,404.324398 C192.711002,403.240793 192.698878,402.157061 192.704276,401.073546 L193.704264,401.078528 Z M194.119316,418.071286 L194.311863,425.068637 L193.312242,425.096144 L193.119695,418.098793 L194.119316,418.071286 Z M194.58693,435.064853 L194.779478,442.062205 L193.779856,442.089711 L193.587309,435.09236 L194.58693,435.064853 Z M195.054545,452.058421 L195.247092,459.055772 L194.24747,459.083279 L194.054923,452.085928 L195.054545,452.058421 Z M195.522159,469.051988 L195.714706,476.04934 L194.715085,476.076846 L194.522538,469.079495 L195.522159,469.051988 Z M195.989773,486.045556 L196.182321,493.042907 L195.182699,493.070414 L194.990152,486.073063 L195.989773,486.045556 Z M196.457388,503.039123 L196.649935,510.036475 L195.650313,510.063981 L195.457766,503.06663 L196.457388,503.039123 Z M196.925002,520.032691 L197.117549,527.030042 L196.117928,527.057549 L195.925381,520.060198 L196.925002,520.032691 Z M197.392616,537.026258 L197.585164,544.02361 L196.585542,544.051116 L196.392995,537.053765 L197.392616,537.026258 Z" id="Shape" fill="#A587FF" fill-rule="nonzero"></path>
        </g>
    </g>
</svg>