<?xml version="1.0" encoding="UTF-8"?>
<svg width="1440px" height="1024px" viewBox="0 0 1440 1024" version="1.1" xmlns="http://www.w3.org/2000/svg" xmlns:xlink="http://www.w3.org/1999/xlink">
    <!-- Generator: Sketch 53.2 (72643) - https://sketchapp.com -->
    <title>Accounting</title>
    <desc>Created with Sketch.</desc>
    <g id="Accounting" stroke="none" stroke-width="1" fill="none" fill-rule="evenodd">
        <rect fill="#211D41" x="0" y="0" width="1440" height="1024"></rect>
        <g id="Ornament" transform="translate(95.000000, 276.000000)">
            <path d="M1016.81761,92.5793992 C1016.81761,95.0141701 1014.84372,96.987942 1012.40881,96.987942 C1009.97389,96.987942 1008,95.0141701 1008,92.5793992 C1008,90.1446282 1009.97389,88.1708564 1012.40881,88.1708564 C1014.84372,88.1708564 1016.81761,90.1446282 1016.81761,92.5793992 Z M1016.81761,74.9452279 C1016.81761,77.3799989 1014.84372,79.3537707 1012.40881,79.3537707 C1009.97389,79.3537707 1008,77.3799989 1008,74.9452279 C1008,72.5104569 1009.97389,70.5366851 1012.40881,70.5366851 C1014.84372,70.5366851 1016.81761,72.5104569 1016.81761,74.9452279 Z M1016.81761,57.3110566 C1016.81761,59.7458276 1014.84372,61.7195995 1012.40881,61.7195995 C1009.97389,61.7195995 1008,59.7458276 1008,57.3110566 C1008,54.8762857 1009.97389,52.9025138 1012.40881,52.9025138 C1014.84372,52.9025138 1016.81761,54.8762857 1016.81761,57.3110566 Z M1016.81761,39.6768854 C1016.81761,42.1116563 1014.84372,44.0854282 1012.40881,44.0854282 C1009.97389,44.0854282 1008,42.1116563 1008,39.6768854 C1008,37.2421144 1009.97389,35.2683425 1012.40881,35.2683425 C1014.84372,35.2683425 1016.81761,37.2421144 1016.81761,39.6768854 Z M1016.81761,22.0427141 C1016.81761,24.4774851 1014.84372,26.4512569 1012.40881,26.4512569 C1009.97389,26.4512569 1008,24.4774851 1008,22.0427141 C1008,19.6079431 1009.97389,17.6341713 1012.40881,17.6341713 C1014.84372,17.6341713 1016.81761,19.6079431 1016.81761,22.0427141 Z M1016.81761,4.40854282 C1016.81761,6.84331379 1014.84372,8.81708564 1012.40881,8.81708564 C1009.97389,8.81708564 1008,6.84331379 1008,4.40854282 C1008,1.97377185 1009.97389,4.8316906e-13 1012.40881,4.8316906e-13 C1014.84372,4.8316906e-13 1016.81761,1.97377185 1016.81761,4.40854282 Z M1034.45284,92.5793992 C1034.45284,95.0141701 1032.47895,96.987942 1030.04404,96.987942 C1027.60912,96.987942 1025.63523,95.0141701 1025.63523,92.5793992 C1025.63523,90.1446282 1027.60912,88.1708564 1030.04404,88.1708564 C1032.47895,88.1708564 1034.45284,90.1446282 1034.45284,92.5793992 Z M1034.45284,74.9452279 C1034.45284,77.3799989 1032.47895,79.3537707 1030.04404,79.3537707 C1027.60912,79.3537707 1025.63523,77.3799989 1025.63523,74.9452279 C1025.63523,72.5104569 1027.60912,70.5366851 1030.04404,70.5366851 C1032.47895,70.5366851 1034.45284,72.5104569 1034.45284,74.9452279 Z M1034.45284,57.3110566 C1034.45284,59.7458276 1032.47895,61.7195995 1030.04404,61.7195995 C1027.60912,61.7195995 1025.63523,59.7458276 1025.63523,57.3110566 C1025.63523,54.8762857 1027.60912,52.9025138 1030.04404,52.9025138 C1032.47895,52.9025138 1034.45284,54.8762857 1034.45284,57.3110566 Z M1034.45284,39.6768854 C1034.45284,42.1116563 1032.47895,44.0854282 1030.04404,44.0854282 C1027.60912,44.0854282 1025.63523,42.1116563 1025.63523,39.6768854 C1025.63523,37.2421144 1027.60912,35.2683425 1030.04404,35.2683425 C1032.47895,35.2683425 1034.45284,37.2421144 1034.45284,39.6768854 Z M1034.45284,22.0427141 C1034.45284,24.4774851 1032.47895,26.4512569 1030.04404,26.4512569 C1027.60912,26.4512569 1025.63523,24.4774851 1025.63523,22.0427141 C1025.63523,19.6079431 1027.60912,17.6341713 1030.04404,17.6341713 C1032.47895,17.6341713 1034.45284,19.6079431 1034.45284,22.0427141 Z M1034.45284,4.40854282 C1034.45284,6.84331379 1032.47895,8.81708564 1030.04404,8.81708564 C1027.60912,8.81708564 1025.63523,6.84331379 1025.63523,4.40854282 C1025.63523,1.97377185 1027.60912,4.8316906e-13 1030.04404,4.8316906e-13 C1032.47895,4.8316906e-13 1034.45284,1.97377185 1034.45284,4.40854282 Z M1052.08807,92.5793992 C1052.08807,95.0141701 1050.11418,96.987942 1047.67927,96.987942 C1045.24435,96.987942 1043.27046,95.0141701 1043.27046,92.5793992 C1043.27046,90.1446282 1045.24435,88.1708564 1047.67927,88.1708564 C1050.11418,88.1708564 1052.08807,90.1446282 1052.08807,92.5793992 Z M1052.08807,74.9452279 C1052.08807,77.3799989 1050.11418,79.3537707 1047.67927,79.3537707 C1045.24435,79.3537707 1043.27046,77.3799989 1043.27046,74.9452279 C1043.27046,72.5104569 1045.24435,70.5366851 1047.67927,70.5366851 C1050.11418,70.5366851 1052.08807,72.5104569 1052.08807,74.9452279 Z M1052.08807,57.3110566 C1052.08807,59.7458276 1050.11418,61.7195995 1047.67927,61.7195995 C1045.24435,61.7195995 1043.27046,59.7458276 1043.27046,57.3110566 C1043.27046,54.8762857 1045.24435,52.9025138 1047.67927,52.9025138 C1050.11418,52.9025138 1052.08807,54.8762857 1052.08807,57.3110566 Z M1052.08807,39.6768854 C1052.08807,42.1116563 1050.11418,44.0854282 1047.67927,44.0854282 C1045.24435,44.0854282 1043.27046,42.1116563 1043.27046,39.6768854 C1043.27046,37.2421144 1045.24435,35.2683425 1047.67927,35.2683425 C1050.11418,35.2683425 1052.08807,37.2421144 1052.08807,39.6768854 Z M1052.08807,22.0427141 C1052.08807,24.4774851 1050.11418,26.4512569 1047.67927,26.4512569 C1045.24435,26.4512569 1043.27046,24.4774851 1043.27046,22.0427141 C1043.27046,19.6079431 1045.24435,17.6341713 1047.67927,17.6341713 C1050.11418,17.6341713 1052.08807,19.6079431 1052.08807,22.0427141 Z M1052.08807,4.40854282 C1052.08807,6.84331379 1050.11418,8.81708564 1047.67927,8.81708564 C1045.24435,8.81708564 1043.27046,6.84331379 1043.27046,4.40854282 C1043.27046,1.97377185 1045.24435,4.8316906e-13 1047.67927,4.8316906e-13 C1050.11418,4.8316906e-13 1052.08807,1.97377185 1052.08807,4.40854282 Z M1069.7233,92.5793992 C1069.7233,95.0141701 1067.74941,96.987942 1065.31449,96.987942 C1062.87958,96.987942 1060.90569,95.0141701 1060.90569,92.5793992 C1060.90569,90.1446282 1062.87958,88.1708564 1065.31449,88.1708564 C1067.74941,88.1708564 1069.7233,90.1446282 1069.7233,92.5793992 Z M1069.7233,74.9452279 C1069.7233,77.3799989 1067.74941,79.3537707 1065.31449,79.3537707 C1062.87958,79.3537707 1060.90569,77.3799989 1060.90569,74.9452279 C1060.90569,72.5104569 1062.87958,70.5366851 1065.31449,70.5366851 C1067.74941,70.5366851 1069.7233,72.5104569 1069.7233,74.9452279 Z M1069.7233,57.3110566 C1069.7233,59.7458276 1067.74941,61.7195995 1065.31449,61.7195995 C1062.87958,61.7195995 1060.90569,59.7458276 1060.90569,57.3110566 C1060.90569,54.8762857 1062.87958,52.9025138 1065.31449,52.9025138 C1067.74941,52.9025138 1069.7233,54.8762857 1069.7233,57.3110566 Z M1069.7233,39.6768854 C1069.7233,42.1116563 1067.74941,44.0854282 1065.31449,44.0854282 C1062.87958,44.0854282 1060.90569,42.1116563 1060.90569,39.6768854 C1060.90569,37.2421144 1062.87958,35.2683425 1065.31449,35.2683425 C1067.74941,35.2683425 1069.7233,37.2421144 1069.7233,39.6768854 Z M1069.7233,22.0427141 C1069.7233,24.4774851 1067.74941,26.4512569 1065.31449,26.4512569 C1062.87958,26.4512569 1060.90569,24.4774851 1060.90569,22.0427141 C1060.90569,19.6079431 1062.87958,17.6341713 1065.31449,17.6341713 C1067.74941,17.6341713 1069.7233,19.6079431 1069.7233,22.0427141 Z M1069.7233,4.40854282 C1069.7233,6.84331379 1067.74941,8.81708564 1065.31449,8.81708564 C1062.87958,8.81708564 1060.90569,6.84331379 1060.90569,4.40854282 C1060.90569,1.97377185 1062.87958,5.25801624e-13 1065.31449,5.25801624e-13 C1067.74941,5.25801624e-13 1069.7233,1.97377185 1069.7233,4.40854282 Z M1087.35853,92.5793992 C1087.35853,95.0141701 1085.38464,96.987942 1082.94972,96.987942 C1080.51481,96.987942 1078.54092,95.0141701 1078.54092,92.5793992 C1078.54092,90.1446282 1080.51481,88.1708564 1082.94972,88.1708564 C1085.38464,88.1708564 1087.35853,90.1446282 1087.35853,92.5793992 Z M1087.35853,74.9452279 C1087.35853,77.3799989 1085.38464,79.3537707 1082.94972,79.3537707 C1080.51481,79.3537707 1078.54092,77.3799989 1078.54092,74.9452279 C1078.54092,72.5104569 1080.51481,70.5366851 1082.94972,70.5366851 C1085.38464,70.5366851 1087.35853,72.5104569 1087.35853,74.9452279 Z M1087.35853,57.3110566 C1087.35853,59.7458276 1085.38464,61.7195995 1082.94972,61.7195995 C1080.51481,61.7195995 1078.54092,59.7458276 1078.54092,57.3110566 C1078.54092,54.8762857 1080.51481,52.9025138 1082.94972,52.9025138 C1085.38464,52.9025138 1087.35853,54.8762857 1087.35853,57.3110566 Z M1087.35853,39.6768854 C1087.35853,42.1116563 1085.38464,44.0854282 1082.94972,44.0854282 C1080.51481,44.0854282 1078.54092,42.1116563 1078.54092,39.6768854 C1078.54092,37.2421144 1080.51481,35.2683425 1082.94972,35.2683425 C1085.38464,35.2683425 1087.35853,37.2421144 1087.35853,39.6768854 Z M1087.35853,22.0427141 C1087.35853,24.4774851 1085.38464,26.4512569 1082.94972,26.4512569 C1080.51481,26.4512569 1078.54092,24.4774851 1078.54092,22.0427141 C1078.54092,19.6079431 1080.51481,17.6341713 1082.94972,17.6341713 C1085.38464,17.6341713 1087.35853,19.6079431 1087.35853,22.0427141 Z M1087.35853,4.40854282 C1087.35853,6.84331379 1085.38464,8.81708564 1082.94972,8.81708564 C1080.51481,8.81708564 1078.54092,6.84331379 1078.54092,4.40854282 C1078.54092,1.97377185 1080.51481,4.8316906e-13 1082.94972,4.8316906e-13 C1085.38464,4.8316906e-13 1087.35853,1.97377185 1087.35853,4.40854282 Z M1104.99376,92.5793992 C1104.99376,95.0141701 1103.01987,96.987942 1100.58495,96.987942 C1098.15004,96.987942 1096.17615,95.0141701 1096.17615,92.5793992 C1096.17615,90.1446282 1098.15004,88.1708564 1100.58495,88.1708564 C1103.01987,88.1708564 1104.99376,90.1446282 1104.99376,92.5793992 Z M1104.99376,74.9452279 C1104.99376,77.3799989 1103.01987,79.3537707 1100.58495,79.3537707 C1098.15004,79.3537707 1096.17615,77.3799989 1096.17615,74.9452279 C1096.17615,72.5104569 1098.15004,70.5366851 1100.58495,70.5366851 C1103.01987,70.5366851 1104.99376,72.5104569 1104.99376,74.9452279 Z M1104.99376,57.3110566 C1104.99376,59.7458276 1103.01987,61.7195995 1100.58495,61.7195995 C1098.15004,61.7195995 1096.17615,59.7458276 1096.17615,57.3110566 C1096.17615,54.8762857 1098.15004,52.9025138 1100.58495,52.9025138 C1103.01987,52.9025138 1104.99376,54.8762857 1104.99376,57.3110566 Z M1104.99376,39.6768854 C1104.99376,42.1116563 1103.01987,44.0854282 1100.58495,44.0854282 C1098.15004,44.0854282 1096.17615,42.1116563 1096.17615,39.6768854 C1096.17615,37.2421144 1098.15004,35.2683425 1100.58495,35.2683425 C1103.01987,35.2683425 1104.99376,37.2421144 1104.99376,39.6768854 Z M1104.99376,22.0427141 C1104.99376,24.4774851 1103.01987,26.4512569 1100.58495,26.4512569 C1098.15004,26.4512569 1096.17615,24.4774851 1096.17615,22.0427141 C1096.17615,19.6079431 1098.15004,17.6341713 1100.58495,17.6341713 C1103.01987,17.6341713 1104.99376,19.6079431 1104.99376,22.0427141 Z M1104.99376,4.40854282 C1104.99376,6.84331379 1103.01987,8.81708564 1100.58495,8.81708564 C1098.15004,8.81708564 1096.17615,6.84331379 1096.17615,4.40854282 C1096.17615,1.97377185 1098.15004,-4.40536496e-13 1100.58495,-4.40536496e-13 C1103.01987,-4.40536496e-13 1104.99376,1.97377185 1104.99376,4.40854282 Z" id="Shape" fill="#CDCBDF"></path>
            <path d="M1056.92177,557.925666 C936.563407,557.925666 839,460.33689 839,339.962833 C839,219.588776 936.563407,122 1056.92177,122 C1177.28013,122 1274.84354,219.588776 1274.84354,339.962833 C1274.84354,460.33689 1177.28013,557.925666 1056.92177,557.925666 Z M1056.92177,437.925666 C1110.99898,437.925666 1154.84354,394.069703 1154.84354,339.962833 C1154.84354,285.855963 1110.99898,242 1056.92177,242 C1002.84456,242 959,285.855963 959,339.962833 C959,394.069703 1002.84456,437.925666 1056.92177,437.925666 Z" id="Shape" fill="#0B3B85" fill-rule="nonzero"></path>
            <path d="M0,673 C7.10542736e-15,617.771525 44.771525,573 100,573 L589,573 C589,628.228475 544.228475,673 489,673 L0,673 Z" id="Shape" fill="#EE342C"></path>
        </g>
        <g id="Plant" transform="translate(40.000000, 565.000000)">
            <path d="M199,188.174269 C142.719017,213.593114 97.7234642,213.271218 64.0133428,187.20858 C30.3032215,161.145943 8.96544052,124.033496 0,75.8712405 C105.372053,44.2283274 171.705387,81.6626704 199,188.174269 Z" id="Shape" fill="#EE342C"></path>
            <path d="M115.89853,142.470656 C103.751316,135.579494 90.2443015,127.943142 75.3776565,119.561698 L40.892016,127.819418 C40.2802333,127.965912 39.665953,127.586943 39.5199824,126.972968 C39.3740118,126.358992 39.7516271,125.742511 40.3634098,125.596017 L72.451652,117.912363 C53.8970542,107.455192 33.2742461,95.8646208 10.5835455,83.1408384 C10.0344845,82.8329531 9.83808165,82.1366657 10.1448674,81.5856369 C10.4516531,81.0346081 11.145454,80.8375013 11.694515,81.1453866 C53.1251551,104.377567 87.6617264,123.831731 115.306161,139.509018 L111.739126,104.426202 C111.584986,102.910198 113.850871,102.678161 114.00501,104.194164 L117.735765,140.887202 C154.592735,161.79948 178.829942,175.796159 190.452172,182.880068 C190.989749,183.207729 191.160869,183.910705 190.834378,184.450209 C190.507888,184.989712 189.807422,185.161445 189.269845,184.833785 C182.315586,180.595068 170.826387,173.871062 154.803279,164.662373 C154.761111,164.684157 154.717118,164.703541 154.671409,164.720293 L123.156017,176.270705 C122.565224,176.487231 121.91139,176.182112 121.695637,175.589201 C121.479885,174.996291 121.783915,174.340113 122.374708,174.123587 L152.226934,163.182727 C141.98523,157.304619 129.997135,150.469451 116.262897,142.67737 C116.130357,142.632944 116.00606,142.56433 115.89853,142.470656 Z" id="Shape" fill="#FFFFFF" fill-rule="nonzero"></path>
            <path d="M186.397111,220 C128.543838,198.081935 96.8676044,166.008613 91.3684105,123.780034 C85.8692165,81.5514554 96.9446186,40.291444 124.594617,0 C221.65003,52.2763031 242.250861,125.609636 186.397111,220 Z" id="Shape" fill="#FDA0A2"></path>
            <path d="M162.563708,129.304978 C173.864256,170.239804 181.123492,197.331633 184.342806,210.585861 C184.491713,211.198925 184.118297,211.817323 183.508757,211.967091 C182.899218,212.116859 182.284375,211.741283 182.135469,211.128219 C180.209165,203.19744 176.830716,190.29204 172.000421,172.413182 C171.955362,172.398663 171.910703,172.381154 171.866683,172.360566 L141.515869,158.165964 C140.946908,157.899869 140.700146,157.220256 140.96471,156.648004 C141.229275,156.075753 141.904981,155.827563 142.473943,156.093658 L171.223049,169.539167 C168.130029,158.116906 164.47778,144.778947 160.266374,129.525569 C160.204104,129.400123 160.16465,129.263425 160.154641,129.120906 C156.429503,115.630464 152.268924,100.648399 147.672953,84.1749033 L117.541306,65.5450292 C117.006764,65.2145312 116.839813,64.5107721 117.168411,63.9731392 C117.497009,63.4355063 118.196722,63.2675903 118.731264,63.5980883 L146.768197,80.932837 C141.029686,60.375216 134.628875,37.5488955 127.565857,12.4542334 C127.394949,11.8470023 127.745829,11.2153946 128.349569,11.0434981 C128.953309,10.8716016 129.581285,11.22451 129.752193,11.8317411 C142.64846,57.6517416 153.337053,95.9093719 161.818533,126.60681 L183.96233,99.2732765 C184.919211,98.0921359 186.680736,99.5357572 185.723855,100.716898 L162.563708,129.304978 Z" id="Shape" fill="#FFFFFF" fill-rule="nonzero"></path>
            <path d="M244,259.562526 C196.223838,298.760152 152.710901,310.14864 113.461189,293.727992 C74.2114767,277.307343 44.0577471,246.99163 23,202.780852 C116.556202,144.804099 190.222869,163.731324 244,259.562526 Z" id="Shape" fill="#FC5274"></path>
            <path d="M153.169327,234.117219 C194.134683,244.712951 221.136641,251.916434 234.18055,255.729153 C234.783886,255.905508 235.130224,256.538261 234.954118,257.142447 C234.778012,257.746634 234.146149,258.09346 233.542813,257.917105 C225.737881,255.635733 212.91513,252.1352 195.075714,247.415825 C195.040625,247.447727 195.003156,247.477791 194.963353,247.505765 L167.519981,266.793099 C167.005523,267.154663 166.29578,267.030129 165.934725,266.514946 C165.57367,265.999763 165.698028,265.289019 166.212486,264.927456 L192.207586,246.657974 C180.806972,243.649068 167.474018,240.170685 152.208998,236.222899 C152.069616,236.214438 151.931956,236.180546 151.804023,236.118173 C138.303048,232.627071 123.297489,228.770425 106.787534,224.548288 L75.6285754,241.433553 C75.0758088,241.733101 74.3852129,241.527196 74.0860862,240.97365 C73.7869596,240.420104 73.9925754,239.728535 74.545342,239.428987 L103.538169,223.717564 C82.9334951,218.451367 60.0404012,212.629201 34.8592418,206.251166 C34.2499177,206.096833 33.8808986,205.47707 34.0350147,204.866887 C34.1891308,204.256704 34.8080214,203.887165 35.4173455,204.041498 C81.3952802,215.687066 119.745108,225.479396 150.468989,233.419087 L137.984634,200.55283 C137.445158,199.132608 139.572492,198.322254 140.111968,199.742476 L153.169327,234.117219 Z" id="Shape" fill="#FFFFFF" fill-rule="nonzero"></path>
        </g>
        <g id="Document" transform="translate(454.000000, 130.000000)">
            <path d="M660,50 L660,800 C660,811.045695 651.045695,820 640,820 L20,820 C8.954305,820 0,811.045695 0,800 L1.13686838e-13,20 C1.13686838e-13,8.954305 8.954305,-3.39568651e-13 20,-3.39568651e-13 L710,-3.41060513e-13 C682.385763,3.78724829e-14 660,22.3857625 660,50 Z" id="Shape" fill="#FFFFFF"></path>
            <polygon id="Shape" fill="#4BC4FC" points="620 40 620 140 40 140 40 40"></polygon>
            <path d="M620,180 L620,220 L40,220 L40,180 L620,180 Z M530,260 L530,300 L110,300 L110,260 L530,260 Z M620,340 L620,380 L40,380 L40,340 L620,340 Z M560,420 L560,460 L180,460 L180,420 L560,420 Z M580,580 L580,620 L120,620 L120,580 L580,580 Z M620,500 L620,540 L40,540 L40,500 L620,500 Z" id="Shape" fill="#BDDEFF"></path>
            <path d="M710,1.09423581e-12 C737.614237,1.09930847e-12 760,22.3857625 760,50 L760,140 L660,140 L660,50 C660,22.3857625 682.385763,1.08916316e-12 710,1.09423581e-12 Z" id="Shape" fill="#4BC4FC"></path>
        </g>
        <g id="Data" transform="translate(776.000000, 583.000000)">
            <path d="M6,0 L453,-1.77635684e-15 C456.313708,-2.38507522e-15 459,2.6862915 459,6 L459,361 C459,364.313708 456.313708,367 453,367 L6,367 C2.6862915,367 4.05812251e-16,364.313708 0,361 L0,6 C-4.05812251e-16,2.6862915 2.6862915,6.08718376e-16 6,0 Z" id="Shape" fill="#00ADFF"></path>
            <polygon id="Shape" fill="#FFFFFF" points="25 90 435 90 435 343 25 343"></polygon>
            <path d="M25,30 L103,30 L103,50 L25,50 L25,30 Z M133,30 L211,30 L211,50 L133,50 L133,30 Z" id="Shape" fill="#FFFFFF"></path>
            <path d="M74,312.2 L74,131 L102.8,131 L102.8,312.2 L74,312.2 Z M354.2,312.2 L354.2,131 L383,131 L383,312.2 L354.2,312.2 Z" id="Shape" fill="#BDDEFF"></path>
            <path d="M74,312.2 L74,259 L102.8,259 L102.8,312.2 L74,312.2 Z M354.2,311.997177 L354.2,215 L383,215 L383,311.997177 L354.2,311.997177 Z" id="Shape" fill="#00ADFF"></path>
            <path d="M285,312.2 L285,131 L313.8,131 L313.8,312.2 L285,312.2 Z M143.6,312.2 L143.6,131 L172.4,131 L172.4,312.2 L143.6,312.2 Z" id="Shape" fill="#BDDEFF"></path>
            <path d="M285,311.997177 L285,185 L313.8,185 L313.8,311.997177 L285,311.997177 Z M143.6,312.2 L143.6,215.650767 L172.4,215.650767 L172.4,312.2 L143.6,312.2 Z" id="Shape" fill="#00ADFF"></path>
            <polygon id="Shape" fill="#BDDEFF" points="214.4 312.2 214.4 131 243.2 131 243.2 312.2"></polygon>
            <polygon id="Shape" fill="#00ADFF" points="214.4 312.2 214.4 265.446719 243.2 265.446719 243.2 312.2"></polygon>
        </g>
        <g id="Men" transform="translate(1176.766647, 342.375536)">
            <polygon id="Shape" fill="#FE9F9F" points="19.5064739 564.041342 43.2720228 564.041342 43.2720228 587.813954 19.5064739 587.813954"></polygon>
            <polygon id="Shape" fill="#FE9F9F" points="89.4828125 564.041342 113.248361 564.041342 113.248361 587.813954 89.4828125 587.813954"></polygon>
            <polygon id="Shape" fill="#211D41" points="47.5573883 578.486341 16.6486004 578.486341 3.08220557 262.797129 80.7137336 262.369491"></polygon>
            <path d="M118.110755,578.125362 L85.4195183,578.125362 L76.0502467,409.136516 L3.08220557,262.797129 L108.139227,262.580874 L130.243169,371.643284 C132.731841,383.922566 133.459628,396.493625 132.404625,408.978064 L118.110755,578.125362 Z" id="Shape" fill="#312C74"></path>
            <path d="M71.4239856,94.0949486 L41.6363127,80.2002362 L46.9549055,68.7907905 C45.0009025,55.1355887 49.8028574,39.6778992 61.3607702,22.417722 C72.918683,5.15754481 89.9276102,7.04179485 112.387552,28.0704721 C108.105165,39.1447666 107.755907,47.2370077 111.339778,52.3471955 C116.715585,60.0124772 112.804008,63.0030778 109.65416,63.0353464 C106.504311,63.067615 103.855121,64.3843738 101.724361,70.9703168 C99.5936006,77.5562598 95.2247386,77.0190229 88.1670276,76.7215142 C83.4618869,76.5231751 77.8808729,82.3143199 71.4239856,94.0949486 Z" id="Shape" fill="#FE9F9F"></path>
            <polygon id="Shape" fill="#FFFFFF" points="184.063411 226.826999 226.898735 168.086517 176.288484 153.019826 140.233353 201.725248"></polygon>
            <path d="M48.3805249,71.190031 C45.9415823,69.3065955 44.8837826,67.0954651 45.2071259,64.5566398 C45.6921409,60.7484018 48.3084863,59.7133063 43.4759323,50.0984989 C38.6433783,40.4836914 35.9471419,28.9058025 45.7116044,13.1802749 C55.4760669,-2.54525265 66.1623644,-0.798964306 76.6614862,1.46029655 C87.160608,3.71955741 90.9483149,6.18501644 106.419691,5.8877867 C121.891067,5.59055697 126.161968,16.9146262 118.805626,29.9526181 C111.449284,42.99061 90.4742522,35.98884 86.9210591,34.3314229 C83.3678661,32.6740059 83.4906973,38.819325 82.1010908,44.6712194 C80.7114842,50.5231137 76.6640573,50.6370014 75.5733523,49.4135098 C74.4826473,48.1900181 71.9266452,46.3672593 68.3632925,48.7302859 C64.7999398,51.0933124 65.780198,56.9043049 67.7320977,57.814785 C69.6839974,58.7252652 72.5794273,58.9697946 71.9581519,61.3225927 C71.3368766,63.6753907 67.9012079,70.4459562 64.3514742,73.4866833 C61.984985,75.5138347 56.6613353,74.7482839 48.3805249,71.190031 Z" id="Shape" fill="#EE342C"></path>
            <path d="M88.1625042,585.172553 L113.124345,585.172553 L128.93673,590.455356 C136.904584,593.280018 143.615452,594.432867 143.615452,603.281083 C143.615452,605.554052 142.110777,607.396658 140.254667,607.396658 L93.4425042,607.396658 C90.5264407,607.396658 88.1625042,605.032721 88.1625042,602.116658 L88.1625042,585.172553 Z" id="Shape" fill="#EE342C"></path>
            <path d="M18.1861656,585.172553 L43.1480063,585.172553 L58.9603918,590.455356 C66.9282454,593.280018 73.6391132,594.432867 73.6391132,603.281083 C73.6391132,605.554052 72.1344386,607.396658 70.2783285,607.396658 L23.4661656,607.396658 C20.5501021,607.396658 18.1861656,605.032721 18.1861656,602.116658 L18.1861656,585.172553 Z" id="Shape" fill="#EE342C"></path>
            <path d="M163.31327,210.664607 C170.268293,212.434586 174.57655,212.434586 176.238043,210.664607 C177.899536,208.894627 179.617596,206.337852 181.392222,202.994279 C185.404199,205.313202 186.706286,208.081357 185.298483,211.298744 C190.789315,211.46046 194.604078,212.402076 196.742771,214.123591 C199.95081,216.705864 199.415917,229.461245 192.858555,233.827053 C186.301194,238.192862 177.876889,233.0394 172.909747,232.430843 C169.598319,232.025139 165.234778,231.213057 159.819124,229.994598 L163.31327,210.664607 Z" id="Shape" fill="#FE9F9F"></path>
            <path d="M64.0887979,282.004572 L65.1137296,281.605179 L67.9094829,288.779701 L66.8845512,289.179094 L64.0887979,282.004572 Z M70.8784845,299.428411 L71.9034162,299.029017 L74.6991695,306.203539 L73.6742378,306.602932 L70.8784845,299.428411 Z M77.6681711,316.852249 L78.6931028,316.452856 L81.4888561,323.627378 L80.4639244,324.026771 L77.6681711,316.852249 Z M84.4578578,334.276088 L85.4827895,333.876694 L88.2785427,341.051216 L87.253611,341.450609 L84.4578578,334.276088 Z M91.2475444,351.699926 L92.2724761,351.300533 L95.0682294,358.475055 L94.0432977,358.874448 L91.2475444,351.699926 Z M98.037231,369.123765 L99.0621627,368.724371 L100.58959,372.644088 C101.014587,373.734725 101.422153,374.831824 101.812154,375.934974 L100.775059,376.301623 C100.388937,375.20945 99.9854272,374.123267 99.5646582,373.043481 L98.037231,369.123765 Z M103.904193,386.796379 L104.972738,386.535206 C105.585384,389.041751 106.110046,391.568818 106.545793,394.111739 L105.461596,394.297524 C105.030184,391.779905 104.510743,389.277983 103.904193,386.796379 Z M106.769409,405.177803 L107.866751,405.101368 C108.045989,407.674577 108.135162,410.254027 108.133958,412.835045 L107.033946,412.834527 C107.03515,410.279191 106.946864,407.725408 106.769409,405.177803 Z M106.772359,423.802569 L107.871944,423.832799 L107.660332,431.529891 L106.560747,431.49966 L106.772359,423.802569 Z M106.258445,442.495506 L107.358029,442.525736 L107.146418,450.222827 L106.046833,450.192597 L106.258445,442.495506 Z M105.744531,461.188442 L106.844115,461.218673 L106.632503,468.915764 L105.532919,468.885534 L105.744531,461.188442 Z M105.230617,479.881379 L106.330201,479.911609 L106.118589,487.608701 L105.019005,487.578471 L105.230617,479.881379 Z M104.716702,498.574316 L105.816287,498.604546 L105.604675,506.301638 L104.505091,506.271407 L104.716702,498.574316 Z M104.202788,517.267253 L105.302373,517.297483 L105.090761,524.994574 L103.991176,524.964344 L104.202788,517.267253 Z M103.688874,535.960189 L104.788458,535.99042 L104.576847,543.687511 L103.477262,543.657281 L103.688874,535.960189 Z M103.17496,554.653126 L104.274544,554.683356 L104.062933,562.380448 L102.963348,562.350218 L103.17496,554.653126 Z" id="Shape" fill="#A587FF" fill-rule="nonzero"></path>
            <path d="M109.233353,268.153051 L3.07813897,273.535551 L-7.10542736e-14,124.259094 C1.18549947,94.5026741 12.8935199,79.6244643 35.1240614,79.6244643 C68.4698737,79.6244643 102.930471,94.1698041 102.930471,143.162412 L105.846384,187.837389 L168.092643,208.423016 L166.388474,233.624464 L105.846384,228.184885 L109.233353,268.153051 Z" id="Shape" fill="#00ADFF"></path>
            <path d="M105.842653,228.184885 L106.624206,237.740355 L71.8460919,227.426249 L71.3047515,163.886866 L79.9955211,209.970948 C81.111304,215.887551 85.2734273,220.772611 90.9377645,222.813797 L105.842653,228.184885 Z" id="Shape" fill="#221E41"></path>
        </g>
        <g id="Calculator" transform="translate(196.000000, 374.000000)">
            <path d="M8,2.84217094e-13 L506.4,2.84217094e-13 C510.818278,2.52011716e-13 514.4,3.581722 514.4,8 L514.4,567.2 C514.4,571.618278 510.818278,575.2 506.4,575.2 L8,575.2 C3.581722,575.2 5.41083001e-16,571.618278 0,567.2 L0,8 C-5.41083001e-16,3.581722 3.581722,2.85028719e-13 8,2.84217094e-13 Z" id="Shape" fill="#3B97FC"></path>
            <path d="M56,48 L458.4,48 C462.818278,48 466.4,51.581722 466.4,56 L466.4,174.4 C466.4,178.818278 462.818278,182.4 458.4,182.4 L56,182.4 C51.581722,182.4 48,178.818278 48,174.4 L48,56 C48,51.581722 51.581722,48 56,48 Z" id="Shape" fill="#BDDEFF"></path>
            <path d="M72,48 L458.4,48 C462.818278,48 466.4,51.581722 466.4,56 L466.4,158.4 C466.4,162.818278 462.818278,166.4 458.4,166.4 L72,166.4 C67.581722,166.4 64,162.818278 64,158.4 L64,56 C64,51.581722 67.581722,48 72,48 Z" id="Shape" fill="#FFFFFF"></path>
            <path d="M51.2,211.2 L125.057831,211.2 C128.592454,211.2 131.457831,214.065378 131.457831,217.6 L131.457831,265.6 C131.457831,269.134622 128.592454,272 125.057831,272 L51.2,272 C47.6653776,272 44.8,269.134622 44.8,265.6 L44.8,217.6 C44.8,214.065378 47.6653776,211.2 51.2,211.2 Z M51.2,384 L125.057831,384 C128.592454,384 131.457831,386.865378 131.457831,390.4 L131.457831,438.4 C131.457831,441.934622 128.592454,444.8 125.057831,444.8 L51.2,444.8 C47.6653776,444.8 44.8,441.934622 44.8,438.4 L44.8,390.4 C44.8,386.865378 47.6653776,384 51.2,384 Z M164,211.2 L237.857831,211.2 C241.392454,211.2 244.257831,214.065378 244.257831,217.6 L244.257831,265.6 C244.257831,269.134622 241.392454,272 237.857831,272 L164,272 C160.465378,272 157.6,269.134622 157.6,265.6 L157.6,217.6 C157.6,214.065378 160.465378,211.2 164,211.2 Z M164,297.6 L237.857831,297.6 C241.392454,297.6 244.257831,300.465378 244.257831,304 L244.257831,352 C244.257831,355.534622 241.392454,358.4 237.857831,358.4 L164,358.4 C160.465378,358.4 157.6,355.534622 157.6,352 L157.6,304 C157.6,300.465378 160.465378,297.6 164,297.6 Z M164,384 L237.857831,384 C241.392454,384 244.257831,386.865378 244.257831,390.4 L244.257831,438.4 C244.257831,441.934622 241.392454,444.8 237.857831,444.8 L164,444.8 C160.465378,444.8 157.6,441.934622 157.6,438.4 L157.6,390.4 C157.6,386.865378 160.465378,384 164,384 Z M164,470.4 L237.857831,470.4 C241.392454,470.4 244.257831,473.265378 244.257831,476.8 L244.257831,524.8 C244.257831,528.334622 241.392454,531.2 237.857831,531.2 L164,531.2 C160.465378,531.2 157.6,528.334622 157.6,524.8 L157.6,476.8 C157.6,473.265378 160.465378,470.4 164,470.4 Z M276.8,211.2 L350.657831,211.2 C354.192454,211.2 357.057831,214.065378 357.057831,217.6 L357.057831,265.6 C357.057831,269.134622 354.192454,272 350.657831,272 L276.8,272 C273.265378,272 270.4,269.134622 270.4,265.6 L270.4,217.6 C270.4,214.065378 273.265378,211.2 276.8,211.2 Z M276.8,297.6 L350.657831,297.6 C354.192454,297.6 357.057831,300.465378 357.057831,304 L357.057831,352 C357.057831,355.534622 354.192454,358.4 350.657831,358.4 L276.8,358.4 C273.265378,358.4 270.4,355.534622 270.4,352 L270.4,304 C270.4,300.465378 273.265378,297.6 276.8,297.6 Z M276.8,384 L350.657831,384 C354.192454,384 357.057831,386.865378 357.057831,390.4 L357.057831,438.4 C357.057831,441.934622 354.192454,444.8 350.657831,444.8 L276.8,444.8 C273.265378,444.8 270.4,441.934622 270.4,438.4 L270.4,390.4 C270.4,386.865378 273.265378,384 276.8,384 Z M276.8,470.4 L350.657831,470.4 C354.192454,470.4 357.057831,473.265378 357.057831,476.8 L357.057831,524.8 C357.057831,528.334622 354.192454,531.2 350.657831,531.2 L276.8,531.2 C273.265378,531.2 270.4,528.334622 270.4,524.8 L270.4,476.8 C270.4,473.265378 273.265378,470.4 276.8,470.4 Z M389.6,211.2 L463.457831,211.2 C466.992454,211.2 469.857831,214.065378 469.857831,217.6 L469.857831,265.6 C469.857831,269.134622 466.992454,272 463.457831,272 L389.6,272 C386.065378,272 383.2,269.134622 383.2,265.6 L383.2,217.6 C383.2,214.065378 386.065378,211.2 389.6,211.2 Z M389.6,297.6 L463.457831,297.6 C466.992454,297.6 469.857831,300.465378 469.857831,304 L469.857831,352 C469.857831,355.534622 466.992454,358.4 463.457831,358.4 L389.6,358.4 C386.065378,358.4 383.2,355.534622 383.2,352 L383.2,304 C383.2,300.465378 386.065378,297.6 389.6,297.6 Z M389.6,384 L463.457831,384 C466.992454,384 469.857831,386.865378 469.857831,390.4 L469.857831,438.4 C469.857831,441.934622 466.992454,444.8 463.457831,444.8 L389.6,444.8 C386.065378,444.8 383.2,441.934622 383.2,438.4 L383.2,390.4 C383.2,386.865378 386.065378,384 389.6,384 Z M389.6,470.4 L463.457831,470.4 C466.992454,470.4 469.857831,473.265378 469.857831,476.8 L469.857831,524.8 C469.857831,528.334622 466.992454,531.2 463.457831,531.2 L389.6,531.2 C386.065378,531.2 383.2,528.334622 383.2,524.8 L383.2,476.8 C383.2,473.265378 386.065378,470.4 389.6,470.4 Z M51.2,297.6 L125.057831,297.6 C128.592454,297.6 131.457831,300.465378 131.457831,304 L131.457831,352 C131.457831,355.534622 128.592454,358.4 125.057831,358.4 L51.2,358.4 C47.6653776,358.4 44.8,355.534622 44.8,352 L44.8,304 C44.8,300.465378 47.6653776,297.6 51.2,297.6 Z M51.2,470.4 L125.057831,470.4 C128.592454,470.4 131.457831,473.265378 131.457831,476.8 L131.457831,524.8 C131.457831,528.334622 128.592454,531.2 125.057831,531.2 L51.2,531.2 C47.6653776,531.2 44.8,528.334622 44.8,524.8 L44.8,476.8 C44.8,473.265378 47.6653776,470.4 51.2,470.4 Z" id="Shape" fill="#00ADFF" fill-rule="nonzero"></path>
            <path d="M51.2,300.8 L125.057831,300.8 C126.825143,300.8 128.257831,302.232689 128.257831,304 L128.257831,352 C128.257831,353.767311 126.825143,355.2 125.057831,355.2 L51.2,355.2 C49.4326888,355.2 48,353.767311 48,352 L48,304 C48,302.232689 49.4326888,300.8 51.2,300.8 Z M51.2,473.6 L125.057831,473.6 C126.825143,473.6 128.257831,475.032689 128.257831,476.8 L128.257831,524.8 C128.257831,526.567311 126.825143,528 125.057831,528 L51.2,528 C49.4326888,528 48,526.567311 48,524.8 L48,476.8 C48,475.032689 49.4326888,473.6 51.2,473.6 Z M51.2,214.4 L125.057831,214.4 C126.825143,214.4 128.257831,215.832689 128.257831,217.6 L128.257831,265.6 C128.257831,267.367311 126.825143,268.8 125.057831,268.8 L51.2,268.8 C49.4326888,268.8 48,267.367311 48,265.6 L48,217.6 C48,215.832689 49.4326888,214.4 51.2,214.4 Z M51.2,387.2 L125.057831,387.2 C126.825143,387.2 128.257831,388.632689 128.257831,390.4 L128.257831,438.4 C128.257831,440.167311 126.825143,441.6 125.057831,441.6 L51.2,441.6 C49.4326888,441.6 48,440.167311 48,438.4 L48,390.4 C48,388.632689 49.4326888,387.2 51.2,387.2 Z M164,214.4 L237.857831,214.4 C239.625143,214.4 241.057831,215.832689 241.057831,217.6 L241.057831,265.6 C241.057831,267.367311 239.625143,268.8 237.857831,268.8 L164,268.8 C162.232689,268.8 160.8,267.367311 160.8,265.6 L160.8,217.6 C160.8,215.832689 162.232689,214.4 164,214.4 Z M164,300.8 L237.857831,300.8 C239.625143,300.8 241.057831,302.232689 241.057831,304 L241.057831,352 C241.057831,353.767311 239.625143,355.2 237.857831,355.2 L164,355.2 C162.232689,355.2 160.8,353.767311 160.8,352 L160.8,304 C160.8,302.232689 162.232689,300.8 164,300.8 Z M164,387.2 L237.857831,387.2 C239.625143,387.2 241.057831,388.632689 241.057831,390.4 L241.057831,438.4 C241.057831,440.167311 239.625143,441.6 237.857831,441.6 L164,441.6 C162.232689,441.6 160.8,440.167311 160.8,438.4 L160.8,390.4 C160.8,388.632689 162.232689,387.2 164,387.2 Z M164,473.6 L237.857831,473.6 C239.625143,473.6 241.057831,475.032689 241.057831,476.8 L241.057831,524.8 C241.057831,526.567311 239.625143,528 237.857831,528 L164,528 C162.232689,528 160.8,526.567311 160.8,524.8 L160.8,476.8 C160.8,475.032689 162.232689,473.6 164,473.6 Z M276.8,214.4 L350.657831,214.4 C352.425143,214.4 353.857831,215.832689 353.857831,217.6 L353.857831,265.6 C353.857831,267.367311 352.425143,268.8 350.657831,268.8 L276.8,268.8 C275.032689,268.8 273.6,267.367311 273.6,265.6 L273.6,217.6 C273.6,215.832689 275.032689,214.4 276.8,214.4 Z M276.8,300.8 L350.657831,300.8 C352.425143,300.8 353.857831,302.232689 353.857831,304 L353.857831,352 C353.857831,353.767311 352.425143,355.2 350.657831,355.2 L276.8,355.2 C275.032689,355.2 273.6,353.767311 273.6,352 L273.6,304 C273.6,302.232689 275.032689,300.8 276.8,300.8 Z M276.8,387.2 L350.657831,387.2 C352.425143,387.2 353.857831,388.632689 353.857831,390.4 L353.857831,438.4 C353.857831,440.167311 352.425143,441.6 350.657831,441.6 L276.8,441.6 C275.032689,441.6 273.6,440.167311 273.6,438.4 L273.6,390.4 C273.6,388.632689 275.032689,387.2 276.8,387.2 Z M276.8,473.6 L350.657831,473.6 C352.425143,473.6 353.857831,475.032689 353.857831,476.8 L353.857831,524.8 C353.857831,526.567311 352.425143,528 350.657831,528 L276.8,528 C275.032689,528 273.6,526.567311 273.6,524.8 L273.6,476.8 C273.6,475.032689 275.032689,473.6 276.8,473.6 Z M389.6,214.4 L463.457831,214.4 C465.225143,214.4 466.657831,215.832689 466.657831,217.6 L466.657831,265.6 C466.657831,267.367311 465.225143,268.8 463.457831,268.8 L389.6,268.8 C387.832689,268.8 386.4,267.367311 386.4,265.6 L386.4,217.6 C386.4,215.832689 387.832689,214.4 389.6,214.4 Z M389.6,300.8 L463.457831,300.8 C465.225143,300.8 466.657831,302.232689 466.657831,304 L466.657831,352 C466.657831,353.767311 465.225143,355.2 463.457831,355.2 L389.6,355.2 C387.832689,355.2 386.4,353.767311 386.4,352 L386.4,304 C386.4,302.232689 387.832689,300.8 389.6,300.8 Z M389.6,387.2 L463.457831,387.2 C465.225143,387.2 466.657831,388.632689 466.657831,390.4 L466.657831,438.4 C466.657831,440.167311 465.225143,441.6 463.457831,441.6 L389.6,441.6 C387.832689,441.6 386.4,440.167311 386.4,438.4 L386.4,390.4 C386.4,388.632689 387.832689,387.2 389.6,387.2 Z M389.6,473.6 L463.457831,473.6 C465.225143,473.6 466.657831,475.032689 466.657831,476.8 L466.657831,524.8 C466.657831,526.567311 465.225143,528 463.457831,528 L389.6,528 C387.832689,528 386.4,526.567311 386.4,524.8 L386.4,476.8 C386.4,475.032689 387.832689,473.6 389.6,473.6 Z" id="Shape" fill="#BDDEFF" fill-rule="nonzero"></path>
            <path d="M317.2,497.688159 L328.488159,497.688159 C330.255471,497.688159 331.688159,499.120848 331.688159,500.888159 C331.688159,502.655471 330.255471,504.088159 328.488159,504.088159 L317.2,504.088159 L317.2,515.376319 C317.2,517.14363 315.767311,518.576319 314,518.576319 C312.232689,518.576319 310.8,517.14363 310.8,515.376319 L310.8,504.088159 L299.511841,504.088159 C297.744529,504.088159 296.311841,502.655471 296.311841,500.888159 C296.311841,499.120848 297.744529,497.688159 299.511841,497.688159 L310.8,497.688159 L310.8,486.4 C310.8,484.632689 312.232689,483.2 314,483.2 C315.767311,483.2 317.2,484.632689 317.2,486.4 L317.2,497.688159 L317.2,497.688159 Z M200.8,508.8 C196.381722,508.8 192.8,505.218278 192.8,500.8 C192.8,496.381722 196.381722,492.8 200.8,492.8 C205.218278,492.8 208.8,496.381722 208.8,500.8 C208.8,505.218278 205.218278,508.8 200.8,508.8 Z M85.7632,427.6 L85.7632,404.512 L79.7312,408.464 L79.7312,402.7232 L86.5952,397.856 L92.5024,397.856 L92.5024,427.6 L85.7632,427.6 Z M86.976,509.1744 C91.1776,509.1744 93.0912,505.9712 93.0912,499.7312 L93.0912,498.4 C93.0912,492.4096 91.0112,489.04 86.8928,489.04 C82.7328,489.04 80.6112,492.2432 80.6112,498.4 L80.6112,499.8144 C80.6112,506.0544 82.816,509.1744 86.976,509.1744 Z M86.8096,514.4576 C78.9056,514.4576 73.872,508.9664 73.872,499.856 L73.872,498.4416 C73.872,489.2896 79.1968,483.84 86.8512,483.84 C94.5056,483.84 99.7888,489.0816 99.7888,498.3168 L99.7888,499.6896 C99.7888,508.8 94.8384,514.4576 86.8096,514.4576 Z M89.2832,341.2 L89.2832,335.2928 L74.6816,335.2928 L74.6816,332.8384 L87.536,311.456 L95.8144,311.456 L95.8144,330.4672 L99.7248,330.4672 L99.7248,335.2928 L95.8144,335.2928 L95.8144,341.2 L89.2832,341.2 Z M81.4208,330.4672 L89.408,330.4672 L89.408,316.5312 L81.4208,330.4672 Z M80.3584,254.8 L89.4272,230.5056 L76.3232,230.5056 L76.3232,225.056 L97.872,225.056 L97.872,225.8048 L87.2224,254.8 L80.3584,254.8 Z M188.4992,427.6 L188.4992,426.5184 L199.3984,414.9952 C202.2688,411.9584 204.0992,409.3376 204.0992,406.6336 C204.0992,404.1792 202.7264,402.5984 200.1472,402.5984 C197.5264,402.5984 195.8624,404.1376 195.4048,408.048 L189.2896,408.048 C189.6224,401.184 193.7824,397.44 200.4384,397.44 C207.0112,397.44 210.7552,401.1008 210.7552,406.4672 C210.7552,410.4192 208.4672,413.664 205.0144,416.992 L199.3984,422.4832 L210.9632,422.4832 L210.9632,427.6 L188.4992,427.6 Z M199.5552,341.6576 C192.2336,341.6576 188.8224,337.664 188.5312,332.3392 L194.7296,332.3392 C195.104,334.8352 196.1024,336.4992 199.5136,336.4992 C202.5504,336.4992 204.1728,334.3776 204.1728,331.216 C204.1728,328.0128 202.3424,326.016 199.3472,326.016 C196.56,326.016 194.8544,327.0144 193.648,328.3872 L189.904,328.3872 L190.32,311.456 L209.1648,311.456 L209.1648,316.5728 L195.3536,316.5728 L195.2288,324.0192 C196.3936,322.6048 198.4736,321.2736 201.8432,321.2736 C207.2512,321.2736 210.9536,324.976 210.9536,331.2992 C210.9536,337.6224 206.4192,341.6576 199.5552,341.6576 Z M199.712,255.2576 C193.1392,255.2576 188.064,252.2208 188.064,246.3968 C188.064,242.7776 190.144,240.1568 193.5552,238.9504 C190.8512,237.8272 189.2288,235.7472 189.2288,232.752 C189.2288,227.5936 194.1792,224.64 199.7536,224.64 C205.4528,224.64 210.1952,227.6352 210.1952,232.7104 C210.1952,235.7056 208.4896,237.744 205.8688,238.9088 C209.3632,240.1152 211.3184,242.6944 211.3184,246.2304 C211.3184,252.0544 206.3264,255.2576 199.712,255.2576 Z M199.712,250.3488 C202.5408,250.3488 204.6624,248.6848 204.6624,245.7312 C204.6624,242.8192 202.5408,241.1968 199.7536,241.1968 C197.008,241.1968 194.7616,242.8192 194.7616,245.7728 C194.7616,248.7264 196.9664,250.3488 199.712,250.3488 Z M199.7952,237.0784 C202.208,237.0784 203.9552,235.6224 203.9552,233.168 C203.9552,230.88 202.1248,229.3408 199.7536,229.3408 C197.3824,229.3408 195.5104,230.7968 195.5104,233.2096 C195.5104,235.6224 197.4656,237.0784 199.7952,237.0784 Z M312.2208,428.0576 C304.6496,428.0576 300.7808,424.1888 300.5312,418.1568 L306.6048,418.1568 C306.8544,421.0272 308.3936,423.1072 311.9712,423.1072 C315.3408,423.1072 316.9216,421.4848 316.9216,418.8224 C316.9216,415.9936 315.3408,414.5376 312.1376,414.5376 L309.808,414.5376 L309.808,410.0448 L311.9712,410.0448 C315.0912,410.0448 316.5056,408.6304 316.5056,406.0928 C316.5056,403.9712 315.1328,402.3904 312.3872,402.3904 C309.5584,402.3904 307.8112,404.096 307.4784,406.8832 L301.5296,406.8832 C301.8624,401.4336 305.7312,397.44 312.512,397.44 C319.0432,397.44 322.8704,400.8512 322.8704,405.5104 C322.8704,408.8384 320.9152,410.9184 317.9616,411.9584 C321.4144,412.7072 323.744,415.1616 323.744,418.9472 C323.744,424.5216 319.4592,428.0576 312.2208,428.0576 Z M313.3024,341.6576 C304.3168,341.6576 301.072,335.584 301.072,327.472 L301.072,326.7232 C301.072,316.656 306.5216,311.04 313.8016,311.04 C319.7088,311.04 323.4528,313.8272 324.1184,319.2768 L317.8784,319.2768 C317.4624,317.3216 316.464,316.1152 313.8848,316.1152 C310.1824,316.1152 307.8944,319.36 307.728,325.4752 C309.1008,323.2704 311.3472,321.7728 314.9248,321.7728 C320.5408,321.7728 324.7424,325.4336 324.7424,331.424 C324.7424,337.5392 320.3744,341.6576 313.3024,341.6576 Z M313.2192,336.7904 C316.1728,336.7904 318.128,334.6272 318.128,331.5072 C318.128,328.3872 316.256,326.224 313.2192,326.224 C310.224,326.224 308.144,328.3456 308.144,331.2992 C308.144,334.7104 310.224,336.7904 313.2192,336.7904 Z M312.096,255.216 C305.648,255.216 301.8208,252.1376 301.1552,246.7712 L307.4368,246.7712 C307.8528,248.8096 309.0592,250.0992 311.888,250.0992 C315.84,250.0992 317.7952,246.9792 317.92,240.9056 C316.5472,243.0688 314.384,244.5248 310.8064,244.5248 C305.0656,244.5248 300.864,240.9472 300.864,234.9152 C300.864,228.7584 305.2736,224.5984 312.3872,224.5984 C320.5824,224.5984 324.5344,230.1312 324.5344,238.7008 L324.5344,240.032 C324.5344,249.7664 320.0832,255.216 312.096,255.216 Z M312.304,240.032 C315.3408,240.032 317.3792,237.952 317.3792,235.04 C317.3792,231.5872 315.3408,229.4656 312.304,229.4656 C309.3504,229.4656 307.3952,231.6288 307.3952,234.7488 C307.3952,237.8688 309.3088,240.032 312.304,240.032 Z M440.976319,505.6 C442.74363,505.6 444.176319,507.032689 444.176319,508.8 C444.176319,510.567311 442.74363,512 440.976319,512 L412,512 C410.232689,512 408.8,510.567311 408.8,508.8 C408.8,507.032689 410.232689,505.6 412,505.6 L440.976319,505.6 Z M440.976319,490 C442.74363,490 444.176319,491.432689 444.176319,493.2 C444.176319,494.967311 442.74363,496.4 440.976319,496.4 L412,496.4 C410.232689,496.4 408.8,494.967311 408.8,493.2 C408.8,491.432689 410.232689,490 412,490 L440.976319,490 Z M412,411.6 L440.976319,411.6 C445.242985,411.6 445.242985,418 440.976319,418 L412,418 C407.733333,418 407.733333,411.6 412,411.6 Z M442.576319,238.4 C444.34363,238.4 445.776319,239.832689 445.776319,241.6 C445.776319,243.367311 444.34363,244.8 442.576319,244.8 L410.4,244.8 C408.632689,244.8 407.2,243.367311 407.2,241.6 C407.2,239.832689 408.632689,238.4 410.4,238.4 L442.576319,238.4 Z M426.4,232.8 C422.865378,232.8 420,229.934622 420,226.4 C420,222.865378 422.865378,220 426.4,220 C429.934622,220 432.8,222.865378 432.8,226.4 C432.8,229.934622 429.934622,232.8 426.4,232.8 Z M426.4,263.2 C422.865378,263.2 420,260.334622 420,256.8 C420,253.265378 422.865378,250.4 426.4,250.4 C429.934622,250.4 432.8,253.265378 432.8,256.8 C432.8,260.334622 429.934622,263.2 426.4,263.2 Z M427.288159,332.451321 L416.481566,341.706664 C415.139266,342.856282 413.119168,342.700081 411.969551,341.357782 C410.819934,340.015482 410.976134,337.995384 412.318434,336.845766 L422.368787,328.238108 L412.318434,319.630449 C410.976134,318.480832 410.819934,316.460734 411.969551,315.118434 C413.119168,313.776134 415.139266,313.619934 416.481566,314.769551 L427.288159,324.024894 L438.094753,314.769551 C439.437052,313.619934 441.45715,313.776134 442.606768,315.118434 C443.756385,316.460734 443.600185,318.480832 442.257885,319.630449 L432.207532,328.238108 L442.257885,336.845766 C443.600185,337.995384 443.756385,340.015482 442.606768,341.357782 C441.45715,342.700081 439.437052,342.856282 438.094753,341.706664 L427.288159,332.451321 Z" id="Shape" fill="#00ADFF"></path>
        </g>
        <g id="Money" transform="translate(654.000000, 754.000000)">
            <circle id="Shape" fill="#EE342C" cx="98" cy="98" r="98"></circle>
            <circle id="Shape" fill="#FFFFFF" cx="98" cy="98" r="79.6"></circle>
            <path d="M94.6915493,152 L94.6915493,137.759494 C74.9549296,136.392405 66.5126761,125.56962 65.6,111.21519 L82.484507,111.21519 C83.2830986,117.822785 85.6788732,123.177215 94.6915493,124.544304 L94.6915493,102.556962 C76.5521127,99.7088608 67.8816901,93.1012658 67.8816901,78.0632911 C67.8816901,64.9620253 78.3774648,55.278481 94.6915493,54.1392405 L94.6915493,44 L102.791549,44 L102.791549,54.2531646 C118.307042,55.6202532 127.661972,63.3670886 129.030986,78.0632911 L112.716901,78.0632911 C111.690141,72.1392405 108.838028,68.4936709 102.791549,67.3544304 L102.791549,87.7468354 C119.904225,90.3670886 130.4,96.0632911 130.4,111.898734 C130.4,125.56962 120.816901,136.506329 102.791549,137.759494 L102.791549,152 L94.6915493,152 Z M113.6,113.257143 C113.6,107.771429 111.217021,105.028571 102.4,103.2 L102.4,124 C109.310638,122.857143 113.6,118.857143 113.6,113.257143 Z M84.8,76.6295858 C84.8,81.8556213 86.7428571,84.695858 95.2,86.4 L95.2,67.2 C88.4571429,68.1088757 84.8,71.8579882 84.8,76.6295858 Z" id="Shape" fill="#EE342C"></path>
        </g>
        <g id="Men-2" transform="translate(95.249707, 66.476226)">
            <polygon id="Shape" fill="#FE9F9F" points="49.3877999 427.69485 52.6287967 403.399183 31.789039 402.128126 28.3162829 427.69485"></polygon>
            <path d="M51.5020442,424.044042 L51.1888075,428.523537 C50.9349749,432.153512 50.6811424,435.783486 50.4273098,439.413461 C50.2423877,442.05797 47.9486805,444.051859 45.3041713,443.866937 L2.80133451,440.894849 C1.11629078,440.77702 -0.132839653,439.010218 0.0113235931,436.948587 C0.572522356,428.923071 6.73800967,428.303433 14.150669,426.247222 L28.840785,422.459413 L51.5020442,424.044042 Z" id="Shape" fill="#EE342C"></path>
            <path d="M68.0629159,349.451736 L54.274275,416.289533 L25.0662511,413.253742 L34.0510815,264.159367 C34.8161677,251.463517 44.3379806,241.02318 56.9099243,239.095438 L173.441713,221.226828 L252.787215,247.295843 L86.6344487,290.133152 L68.0629159,349.451736 Z" id="Shape" fill="#211D41"></path>
            <path d="M118.222628,230.758249 L176.166573,207.336174 C184.803315,128.234611 205.331221,85.366575 237.750293,78.7320652 L226.478545,182.439078 L182.835744,248.952888 L118.222628,230.758249 Z" id="Shape" fill="#FF7070"></path>
            <path d="M172.410226,204.100566 L215.267371,215.759735 C212.686042,144.002256 207.925263,107.179482 200.985035,105.291412 C187.738004,123.573389 178.213068,156.509774 172.410226,204.100566 Z" id="Path-2" fill="#0F55BE"></path>
            <polygon id="Shape" fill="#FE9F9F" points="87.1939403 448.69485 90.6287967 424.399183 69.2462832 423.125288 66.4117402 448.69485"></polygon>
            <path d="M63.9697235,431.90929 L67.4942753,279.739273 C67.740729,269.09881 75.409096,260.086564 85.8728649,258.139841 L189.40369,238.878538 C189.40369,223.033772 189.40369,205.414695 189.40369,186.021307 C189.40369,156.931226 184.323793,71.7329569 256.116146,77.7495877 C327.908498,83.7662185 297.264367,204.404046 289.279951,249.729846 C283.957007,279.947047 269.904711,297.491665 247.123063,302.363702 L106.383302,302.363702 L91.890595,434.919136 L63.9697235,431.90929 Z" id="Shape" fill="#00ADFF"></path>
            <path d="M62.8069294,432.506222 L67.3807869,279.432161 C67.6945383,268.931788 75.2326048,260.045971 85.5413577,258.024615 L183.184799,238.878538 C219.060122,243.236419 254.425173,246.853522 289.279951,249.729846 C283.957007,279.947047 269.904711,299.158332 247.123063,307.363702 L106.383302,307.363702 L93.890595,434.919136 L62.8069294,432.506222 Z" id="Shape" fill="#312C74"></path>
            <path d="M78.0806083,425.097598 L77.0831859,425.025845 L77.5854606,418.043888 L78.5828829,418.115641 L78.0806083,425.097598 Z M79.3004182,408.141418 L78.3029958,408.069664 L78.8052705,401.087707 L79.8026929,401.159461 L79.3004182,408.141418 Z M80.5202282,391.185237 L79.5228058,391.113483 L80.0250805,384.131527 L81.0225029,384.20328 L80.5202282,391.185237 Z M81.7400382,374.229056 L80.7426158,374.157303 L81.2448905,367.175346 L82.2423129,367.247099 L81.7400382,374.229056 Z M82.9598482,357.272875 L81.9624258,357.201122 L82.4647005,350.219165 L83.4621229,350.290919 L82.9598482,357.272875 Z M84.1796582,340.316695 L83.1822358,340.244941 L83.6845105,333.262984 L84.6819328,333.334738 L84.1796582,340.316695 Z M85.3994681,323.360514 L84.4020457,323.288761 L84.9043204,316.306804 L85.9017428,316.378557 L85.3994681,323.360514 Z M86.6192781,306.404333 L85.6218557,306.33258 L86.1241304,299.350623 L87.1215528,299.422377 L86.6192781,306.404333 Z M87.8390881,289.448153 L86.8416657,289.376399 L86.9125015,288.391734 C87.0683418,286.225449 87.9488061,284.216274 89.3914524,282.646825 L90.1276748,283.323565 C88.8366685,284.728045 88.0494106,286.524528 87.9099239,288.463487 L87.8390881,289.448153 Z M98.9875281,280.573392 L98.9875281,279.573392 L105.987528,279.573392 L105.987528,280.573392 L98.9875281,280.573392 Z M115.987528,280.573392 L115.987528,279.573392 L122.987528,279.573392 L122.987528,280.573392 L115.987528,280.573392 Z M132.987528,280.573392 L132.987528,279.573392 L139.987528,279.573392 L139.987528,280.573392 L132.987528,280.573392 Z M149.987528,280.573392 L149.987528,279.573392 L156.987528,279.573392 L156.987528,280.573392 L149.987528,280.573392 Z M166.987528,280.573392 L166.987528,279.573392 L173.987528,279.573392 L173.987528,280.573392 L166.987528,280.573392 Z M183.987528,280.573392 L183.987528,279.573392 L190.987528,279.573392 L190.987528,280.573392 L183.987528,280.573392 Z M200.992961,280.572111 L200.985035,279.572142 C203.30405,279.553761 205.605071,279.332699 207.866819,278.914086 L208.048812,279.897386 C205.729741,280.326608 203.370477,280.553266 200.992961,280.572111 Z M217.693321,276.822885 L217.272773,275.915615 C219.367649,274.944574 221.373544,273.791692 223.266843,272.471175 L223.838911,273.291381 C221.897772,274.645265 219.84118,275.827285 217.693321,276.822885 Z M231.353316,266.510311 L230.595851,265.857435 C232.100621,264.111605 233.451412,262.234999 234.631968,260.246349 L235.491862,260.756823 C234.281341,262.795947 232.89626,264.720191 231.353316,266.510311 Z M239.675309,251.483392 L238.742148,251.123934 L239.096492,250.204049 L240.029653,250.563507 L239.675309,251.483392 Z" id="Shape" fill="#A587FF" fill-rule="nonzero"></path>
            <path d="M89.5020442,445.044042 L89.1888075,449.523537 C88.9349749,453.153512 88.6811424,456.783486 88.4273098,460.413461 C88.2423877,463.05797 85.9486805,465.051859 83.3041713,464.866937 L40.8013345,461.894849 C39.1162908,461.77702 37.8671603,460.010218 38.0113236,457.948587 C38.5725224,449.923071 44.7380097,449.303433 52.150669,447.247222 L66.840785,443.459413 L89.5020442,445.044042 Z" id="Shape" fill="#EE342C"></path>
            <polygon id="Shape" fill="#211D41" points="263.725352 213.642085 263.725352 122.230932 292.82941 181.912891 280.798285 212.642772"></polygon>
            <polygon id="Shape" fill="#FF6E6E" points="128.631612 260.442749 67.5188918 255.697042 66.2782433 250.016311 66.2782433 237.823934 112.239053 237.823934 128.631612 242.716285 215.267371 254.518799 215.267371 260.442749"></polygon>
            <polygon id="Shape" fill="#FDE7E9" points="154.638262 237.823934 215.267371 254.518799 126.619858 254.518799 66.2782433 250.016311 66.2782433 237.823934"></polygon>
            <path d="M164.605274,246.040768 C164.456656,245.197911 160.053453,248.979047 157.104912,250.835375 C154.156371,252.691702 150.741995,253.252563 152.867596,250.904942 C154.993198,248.557322 157.708367,245.980632 160.591413,242.804115 C162.513444,240.686437 160.513429,241.852422 154.591368,246.302071 C152.224873,248.627241 145.376597,254.86817 147.737945,249.883996 C149.312178,246.561213 153.007722,242.014409 158.93619,237.279956 C153.427117,239.23591 149.828443,246.122035 146.685623,247.123655 C144.59041,247.791401 144.046882,247.124096 145.055039,245.121739 C149.112002,238.688134 153.63558,234.199689 158.625771,231.656405 C165.625764,230.422118 177.11089,228.39698 193.081151,225.580992 C209.051412,222.765004 237.315418,215.180607 277.873169,202.8278 L271.405188,168.81498 L304.82648,165.571754 L308.585549,225.420486 C284.334344,232.209535 265.134389,236.311101 250.985684,237.725182 C229.762627,239.846304 201.040129,240.987236 186.724484,243.009617 C172.40884,245.031998 171.809697,246.967626 166.46305,250.480517 C161.116403,253.993407 155.151963,254.689386 160.739749,250.194455 C163.40473,248.050689 164.753892,246.883625 164.605274,246.040768 Z" id="Shape" fill="#FE9F9F"></path>
            <polygon id="Shape" fill="#FF6E6E" points="42.8620942 166.270043 101.402467 160.867057 126.619858 254.518799 66.2782433 250.016311"></polygon>
            <path d="M269.139235,181.509912 C264.56657,155.643537 262.973192,136.250544 262.973192,121.522082 C262.973192,90.7667006 296.693737,76.5781863 304.548604,136.826196 C306.385006,150.911681 308.830167,164.351335 310.826967,176.713593 C297.013188,178.470906 284.927167,178.859174 269.139235,181.509912 Z" id="Shape" fill="#00ADFF"></path>
            <path d="M261.576591,46.6139145 L258.903521,56.8506632 L258.903521,79.7359542 C259.905717,93.4175814 254.963672,101.728552 244.077387,104.668865 C227.74796,109.079335 216.49008,88.9267831 235.8408,79.739502 C235.8408,79.739502 235.704857,77.4775624 235.432971,72.9536834 C226.572789,71.7615597 221.43799,68.6900308 220.028573,63.7390965 C218.619157,58.7881622 217.914448,53.8758027 217.914448,49.002018 L214.24633,49.466902 C213.911403,49.5093494 213.571182,49.4663223 213.257368,49.34183 C212.230639,48.9345193 211.728501,47.7720007 212.135812,46.745272 L217.914448,32.1787689 C221.741481,21.7970659 228.459781,16.6062144 238.069347,16.6062144 C247.678913,16.6062144 255.514661,26.6087811 261.576591,46.6139145 Z" id="Shape" fill="#FE9F9F"></path>
            <path d="M275.318904,46.6872655 C272.481575,58.3963541 266.989261,64.2508984 258.841963,64.2508984 C255.155172,59.4920194 255.848172,54.2533304 257.866254,51.6520214 C260.67809,46.8566559 260.67809,43.7972304 257.866254,42.4737449 C253.648501,40.4885166 251.274959,44.4589732 251.274959,44.4589732 C251.274959,40.9857093 251.274959,37.6787572 251.274959,34.538117 C251.274959,29.8271565 242.956962,26.7249249 235.693299,29.2992591 C228.429635,31.8735933 212.236186,35.4546786 206.476206,24.1300216 C200.716226,12.8053647 205.640039,-0.640036547 223.821079,0.204986094 C242.002118,1.05000873 255.161022,-3.27893933 261.184469,7.03723106 C265.685995,5.80111707 269.771304,6.7751095 273.440397,9.95920835 C277.10949,13.1433072 277.735659,25.3859929 275.318904,46.6872655 Z" id="Shape" fill="#EE342C"></path>
        </g>
    </g>
</svg>