<?xml version="1.0" encoding="UTF-8"?>
<svg width="1440px" height="1024px" viewBox="0 0 1440 1024" version="1.1" xmlns="http://www.w3.org/2000/svg" xmlns:xlink="http://www.w3.org/1999/xlink">
    <!-- Generator: Sketch 53.2 (72643) - https://sketchapp.com -->
    <title>Advertising</title>
    <desc>Created with Sketch.</desc>
    <defs>
        <linearGradient x1="50%" y1="-2.48949813e-15%" x2="50%" y2="100%" id="linearGradient-1">
            <stop stop-color="#4DBCFA" offset="0%"></stop>
            <stop stop-color="#1486DB" offset="100%"></stop>
        </linearGradient>
        <linearGradient x1="50%" y1="7.26438915%" x2="50%" y2="151.05781%" id="linearGradient-2">
            <stop stop-color="#D0F6FF" offset="0%"></stop>
            <stop stop-color="#8BE2F7" offset="100%"></stop>
        </linearGradient>
        <linearGradient x1="39.4677466%" y1="13.1381206%" x2="51.6627206%" y2="50%" id="linearGradient-3">
            <stop stop-color="#CFE49F" offset="0%"></stop>
            <stop stop-color="#A9D386" offset="100%"></stop>
        </linearGradient>
        <linearGradient x1="50%" y1="0%" x2="50%" y2="91.8482298%" id="linearGradient-4">
            <stop stop-color="#EAFCFF" offset="0%"></stop>
            <stop stop-color="#FFFFFF" offset="100%"></stop>
        </linearGradient>
        <linearGradient x1="50%" y1="7.26438915%" x2="50%" y2="151.05781%" id="linearGradient-5">
            <stop stop-color="#D0F6FF" offset="0%"></stop>
            <stop stop-color="#8BE2F7" offset="100%"></stop>
        </linearGradient>
        <linearGradient x1="50%" y1="-2.48949813e-15%" x2="50%" y2="100%" id="linearGradient-6">
            <stop stop-color="#4DBCFA" offset="0%"></stop>
            <stop stop-color="#1486DB" offset="100%"></stop>
        </linearGradient>
        <linearGradient x1="50%" y1="29.52%" x2="100%" y2="66.1250684%" id="linearGradient-7">
            <stop stop-color="#0F1752" offset="0%"></stop>
            <stop stop-color="#272884" offset="100%"></stop>
        </linearGradient>
        <linearGradient x1="50%" y1="78.4511557%" x2="50.9350565%" y2="39.2897568%" id="linearGradient-8">
            <stop stop-color="#2B3389" offset="0%"></stop>
            <stop stop-color="#444FB7" offset="100%"></stop>
        </linearGradient>
        <linearGradient x1="50%" y1="26.6527778%" x2="100%" y2="68.3825955%" id="linearGradient-9">
            <stop stop-color="#0F1752" offset="0%"></stop>
            <stop stop-color="#272884" offset="100%"></stop>
        </linearGradient>
        <linearGradient x1="50%" y1="7.26438915%" x2="50%" y2="151.05781%" id="linearGradient-10">
            <stop stop-color="#D0F6FF" offset="0%"></stop>
            <stop stop-color="#8BE2F7" offset="100%"></stop>
        </linearGradient>
        <linearGradient x1="50%" y1="47.9676119%" x2="100%" y2="51.6002147%" id="linearGradient-11">
            <stop stop-color="#0F1752" offset="0%"></stop>
            <stop stop-color="#272884" offset="100%"></stop>
        </linearGradient>
        <linearGradient x1="50%" y1="0%" x2="50%" y2="100%" id="linearGradient-12">
            <stop stop-color="#FF9485" offset="0%"></stop>
            <stop stop-color="#FF676E" offset="100%"></stop>
        </linearGradient>
        <linearGradient x1="82.5767258%" y1="-52.951376%" x2="82.5767258%" y2="186.664812%" id="linearGradient-13">
            <stop stop-color="#1533B6" offset="0%"></stop>
            <stop stop-color="#356BE9" offset="100%"></stop>
        </linearGradient>
        <linearGradient x1="50%" y1="-27.3641552%" x2="50%" y2="100%" id="linearGradient-14">
            <stop stop-color="#C0E4FD" offset="0%"></stop>
            <stop stop-color="#72B9FE" offset="100%"></stop>
        </linearGradient>
        <linearGradient x1="50%" y1="0%" x2="50%" y2="100%" id="linearGradient-15">
            <stop stop-color="#1D2A78" offset="0%"></stop>
            <stop stop-color="#12033B" offset="100%"></stop>
        </linearGradient>
        <linearGradient x1="50%" y1="-27.3641552%" x2="50%" y2="100%" id="linearGradient-16">
            <stop stop-color="#C0E4FD" offset="0%"></stop>
            <stop stop-color="#72B9FE" offset="100%"></stop>
        </linearGradient>
        <linearGradient x1="50%" y1="0%" x2="50%" y2="100%" id="linearGradient-17">
            <stop stop-color="#1D2A78" offset="0%"></stop>
            <stop stop-color="#12033B" offset="100%"></stop>
        </linearGradient>
        <linearGradient x1="82.5767258%" y1="-52.951376%" x2="82.5767258%" y2="186.664812%" id="linearGradient-18">
            <stop stop-color="#1533B6" offset="0%"></stop>
            <stop stop-color="#356BE9" offset="100%"></stop>
        </linearGradient>
        <linearGradient x1="50%" y1="0%" x2="50%" y2="100%" id="linearGradient-19">
            <stop stop-color="#1D2A78" offset="0%"></stop>
            <stop stop-color="#12033B" offset="100%"></stop>
        </linearGradient>
        <linearGradient x1="50%" y1="0%" x2="50%" y2="100%" id="linearGradient-20">
            <stop stop-color="#FF9485" offset="0%"></stop>
            <stop stop-color="#FF676E" offset="100%"></stop>
        </linearGradient>
        <linearGradient x1="50%" y1="0%" x2="50%" y2="100%" id="linearGradient-21">
            <stop stop-color="#FF9485" offset="0%"></stop>
            <stop stop-color="#FF676E" offset="100%"></stop>
        </linearGradient>
    </defs>
    <g id="Advertising" stroke="none" stroke-width="1" fill="none" fill-rule="evenodd">
        <rect fill="#FFFFFF" x="0" y="0" width="1440" height="1024"></rect>
        <g id="Ornament" transform="translate(50.609723, 138.000000)">
            <path d="M1104.39028,61 L1283.39028,61 L1283.39028,84 C1283.39028,139.228475 1238.61875,184 1183.39028,184 L1004.39028,184 L1004.39028,161 C1004.39028,105.771525 1049.1618,61 1104.39028,61 Z" id="Shape" fill="url(#linearGradient-1)"></path>
            <path d="M1094.20789,323.579399 C1094.20789,326.01417 1092.234,327.987942 1089.79908,327.987942 C1087.36417,327.987942 1085.39028,326.01417 1085.39028,323.579399 C1085.39028,321.144628 1087.36417,319.170856 1089.79908,319.170856 C1092.234,319.170856 1094.20789,321.144628 1094.20789,323.579399 Z M1094.20789,305.945228 C1094.20789,308.379999 1092.234,310.353771 1089.79908,310.353771 C1087.36417,310.353771 1085.39028,308.379999 1085.39028,305.945228 C1085.39028,303.510457 1087.36417,301.536685 1089.79908,301.536685 C1092.234,301.536685 1094.20789,303.510457 1094.20789,305.945228 Z M1094.20789,288.311057 C1094.20789,290.745828 1092.234,292.719599 1089.79908,292.719599 C1087.36417,292.719599 1085.39028,290.745828 1085.39028,288.311057 C1085.39028,285.876286 1087.36417,283.902514 1089.79908,283.902514 C1092.234,283.902514 1094.20789,285.876286 1094.20789,288.311057 Z M1094.20789,270.676885 C1094.20789,273.111656 1092.234,275.085428 1089.79908,275.085428 C1087.36417,275.085428 1085.39028,273.111656 1085.39028,270.676885 C1085.39028,268.242114 1087.36417,266.268343 1089.79908,266.268343 C1092.234,266.268343 1094.20789,268.242114 1094.20789,270.676885 Z M1094.20789,253.042714 C1094.20789,255.477485 1092.234,257.451257 1089.79908,257.451257 C1087.36417,257.451257 1085.39028,255.477485 1085.39028,253.042714 C1085.39028,250.607943 1087.36417,248.634171 1089.79908,248.634171 C1092.234,248.634171 1094.20789,250.607943 1094.20789,253.042714 Z M1094.20789,235.408543 C1094.20789,237.843314 1092.234,239.817086 1089.79908,239.817086 C1087.36417,239.817086 1085.39028,237.843314 1085.39028,235.408543 C1085.39028,232.973772 1087.36417,231 1089.79908,231 C1092.234,231 1094.20789,232.973772 1094.20789,235.408543 Z M1111.84312,323.579399 C1111.84312,326.01417 1109.86923,327.987942 1107.43431,327.987942 C1104.9994,327.987942 1103.02551,326.01417 1103.02551,323.579399 C1103.02551,321.144628 1104.9994,319.170856 1107.43431,319.170856 C1109.86923,319.170856 1111.84312,321.144628 1111.84312,323.579399 Z M1111.84312,305.945228 C1111.84312,308.379999 1109.86923,310.353771 1107.43431,310.353771 C1104.9994,310.353771 1103.02551,308.379999 1103.02551,305.945228 C1103.02551,303.510457 1104.9994,301.536685 1107.43431,301.536685 C1109.86923,301.536685 1111.84312,303.510457 1111.84312,305.945228 Z M1111.84312,288.311057 C1111.84312,290.745828 1109.86923,292.719599 1107.43431,292.719599 C1104.9994,292.719599 1103.02551,290.745828 1103.02551,288.311057 C1103.02551,285.876286 1104.9994,283.902514 1107.43431,283.902514 C1109.86923,283.902514 1111.84312,285.876286 1111.84312,288.311057 Z M1111.84312,270.676885 C1111.84312,273.111656 1109.86923,275.085428 1107.43431,275.085428 C1104.9994,275.085428 1103.02551,273.111656 1103.02551,270.676885 C1103.02551,268.242114 1104.9994,266.268343 1107.43431,266.268343 C1109.86923,266.268343 1111.84312,268.242114 1111.84312,270.676885 Z M1111.84312,253.042714 C1111.84312,255.477485 1109.86923,257.451257 1107.43431,257.451257 C1104.9994,257.451257 1103.02551,255.477485 1103.02551,253.042714 C1103.02551,250.607943 1104.9994,248.634171 1107.43431,248.634171 C1109.86923,248.634171 1111.84312,250.607943 1111.84312,253.042714 Z M1111.84312,235.408543 C1111.84312,237.843314 1109.86923,239.817086 1107.43431,239.817086 C1104.9994,239.817086 1103.02551,237.843314 1103.02551,235.408543 C1103.02551,232.973772 1104.9994,231 1107.43431,231 C1109.86923,231 1111.84312,232.973772 1111.84312,235.408543 Z M1129.47835,323.579399 C1129.47835,326.01417 1127.50446,327.987942 1125.06954,327.987942 C1122.63463,327.987942 1120.66074,326.01417 1120.66074,323.579399 C1120.66074,321.144628 1122.63463,319.170856 1125.06954,319.170856 C1127.50446,319.170856 1129.47835,321.144628 1129.47835,323.579399 Z M1129.47835,305.945228 C1129.47835,308.379999 1127.50446,310.353771 1125.06954,310.353771 C1122.63463,310.353771 1120.66074,308.379999 1120.66074,305.945228 C1120.66074,303.510457 1122.63463,301.536685 1125.06954,301.536685 C1127.50446,301.536685 1129.47835,303.510457 1129.47835,305.945228 Z M1129.47835,288.311057 C1129.47835,290.745828 1127.50446,292.719599 1125.06954,292.719599 C1122.63463,292.719599 1120.66074,290.745828 1120.66074,288.311057 C1120.66074,285.876286 1122.63463,283.902514 1125.06954,283.902514 C1127.50446,283.902514 1129.47835,285.876286 1129.47835,288.311057 Z M1129.47835,270.676885 C1129.47835,273.111656 1127.50446,275.085428 1125.06954,275.085428 C1122.63463,275.085428 1120.66074,273.111656 1120.66074,270.676885 C1120.66074,268.242114 1122.63463,266.268343 1125.06954,266.268343 C1127.50446,266.268343 1129.47835,268.242114 1129.47835,270.676885 Z M1129.47835,253.042714 C1129.47835,255.477485 1127.50446,257.451257 1125.06954,257.451257 C1122.63463,257.451257 1120.66074,255.477485 1120.66074,253.042714 C1120.66074,250.607943 1122.63463,248.634171 1125.06954,248.634171 C1127.50446,248.634171 1129.47835,250.607943 1129.47835,253.042714 Z M1129.47835,235.408543 C1129.47835,237.843314 1127.50446,239.817086 1125.06954,239.817086 C1122.63463,239.817086 1120.66074,237.843314 1120.66074,235.408543 C1120.66074,232.973772 1122.63463,231 1125.06954,231 C1127.50446,231 1129.47835,232.973772 1129.47835,235.408543 Z M1147.11358,323.579399 C1147.11358,326.01417 1145.13969,327.987942 1142.70477,327.987942 C1140.26986,327.987942 1138.29596,326.01417 1138.29596,323.579399 C1138.29596,321.144628 1140.26986,319.170856 1142.70477,319.170856 C1145.13969,319.170856 1147.11358,321.144628 1147.11358,323.579399 Z M1147.11358,305.945228 C1147.11358,308.379999 1145.13969,310.353771 1142.70477,310.353771 C1140.26986,310.353771 1138.29596,308.379999 1138.29596,305.945228 C1138.29596,303.510457 1140.26986,301.536685 1142.70477,301.536685 C1145.13969,301.536685 1147.11358,303.510457 1147.11358,305.945228 Z M1147.11358,288.311057 C1147.11358,290.745828 1145.13969,292.719599 1142.70477,292.719599 C1140.26986,292.719599 1138.29596,290.745828 1138.29596,288.311057 C1138.29596,285.876286 1140.26986,283.902514 1142.70477,283.902514 C1145.13969,283.902514 1147.11358,285.876286 1147.11358,288.311057 Z M1147.11358,270.676885 C1147.11358,273.111656 1145.13969,275.085428 1142.70477,275.085428 C1140.26986,275.085428 1138.29596,273.111656 1138.29596,270.676885 C1138.29596,268.242114 1140.26986,266.268343 1142.70477,266.268343 C1145.13969,266.268343 1147.11358,268.242114 1147.11358,270.676885 Z M1147.11358,253.042714 C1147.11358,255.477485 1145.13969,257.451257 1142.70477,257.451257 C1140.26986,257.451257 1138.29596,255.477485 1138.29596,253.042714 C1138.29596,250.607943 1140.26986,248.634171 1142.70477,248.634171 C1145.13969,248.634171 1147.11358,250.607943 1147.11358,253.042714 Z M1147.11358,235.408543 C1147.11358,237.843314 1145.13969,239.817086 1142.70477,239.817086 C1140.26986,239.817086 1138.29596,237.843314 1138.29596,235.408543 C1138.29596,232.973772 1140.26986,231 1142.70477,231 C1145.13969,231 1147.11358,232.973772 1147.11358,235.408543 Z M1164.74881,323.579399 C1164.74881,326.01417 1162.77492,327.987942 1160.34,327.987942 C1157.90508,327.987942 1155.93119,326.01417 1155.93119,323.579399 C1155.93119,321.144628 1157.90508,319.170856 1160.34,319.170856 C1162.77492,319.170856 1164.74881,321.144628 1164.74881,323.579399 Z M1164.74881,305.945228 C1164.74881,308.379999 1162.77492,310.353771 1160.34,310.353771 C1157.90508,310.353771 1155.93119,308.379999 1155.93119,305.945228 C1155.93119,303.510457 1157.90508,301.536685 1160.34,301.536685 C1162.77492,301.536685 1164.74881,303.510457 1164.74881,305.945228 Z M1164.74881,288.311057 C1164.74881,290.745828 1162.77492,292.719599 1160.34,292.719599 C1157.90508,292.719599 1155.93119,290.745828 1155.93119,288.311057 C1155.93119,285.876286 1157.90508,283.902514 1160.34,283.902514 C1162.77492,283.902514 1164.74881,285.876286 1164.74881,288.311057 Z M1164.74881,270.676885 C1164.74881,273.111656 1162.77492,275.085428 1160.34,275.085428 C1157.90508,275.085428 1155.93119,273.111656 1155.93119,270.676885 C1155.93119,268.242114 1157.90508,266.268343 1160.34,266.268343 C1162.77492,266.268343 1164.74881,268.242114 1164.74881,270.676885 Z M1164.74881,253.042714 C1164.74881,255.477485 1162.77492,257.451257 1160.34,257.451257 C1157.90508,257.451257 1155.93119,255.477485 1155.93119,253.042714 C1155.93119,250.607943 1157.90508,248.634171 1160.34,248.634171 C1162.77492,248.634171 1164.74881,250.607943 1164.74881,253.042714 Z M1164.74881,235.408543 C1164.74881,237.843314 1162.77492,239.817086 1160.34,239.817086 C1157.90508,239.817086 1155.93119,237.843314 1155.93119,235.408543 C1155.93119,232.973772 1157.90508,231 1160.34,231 C1162.77492,231 1164.74881,232.973772 1164.74881,235.408543 Z M1182.38404,323.579399 C1182.38404,326.01417 1180.41015,327.987942 1177.97523,327.987942 C1175.54031,327.987942 1173.56642,326.01417 1173.56642,323.579399 C1173.56642,321.144628 1175.54031,319.170856 1177.97523,319.170856 C1180.41015,319.170856 1182.38404,321.144628 1182.38404,323.579399 Z M1182.38404,305.945228 C1182.38404,308.379999 1180.41015,310.353771 1177.97523,310.353771 C1175.54031,310.353771 1173.56642,308.379999 1173.56642,305.945228 C1173.56642,303.510457 1175.54031,301.536685 1177.97523,301.536685 C1180.41015,301.536685 1182.38404,303.510457 1182.38404,305.945228 Z M1182.38404,288.311057 C1182.38404,290.745828 1180.41015,292.719599 1177.97523,292.719599 C1175.54031,292.719599 1173.56642,290.745828 1173.56642,288.311057 C1173.56642,285.876286 1175.54031,283.902514 1177.97523,283.902514 C1180.41015,283.902514 1182.38404,285.876286 1182.38404,288.311057 Z M1182.38404,270.676885 C1182.38404,273.111656 1180.41015,275.085428 1177.97523,275.085428 C1175.54031,275.085428 1173.56642,273.111656 1173.56642,270.676885 C1173.56642,268.242114 1175.54031,266.268343 1177.97523,266.268343 C1180.41015,266.268343 1182.38404,268.242114 1182.38404,270.676885 Z M1182.38404,253.042714 C1182.38404,255.477485 1180.41015,257.451257 1177.97523,257.451257 C1175.54031,257.451257 1173.56642,255.477485 1173.56642,253.042714 C1173.56642,250.607943 1175.54031,248.634171 1177.97523,248.634171 C1180.41015,248.634171 1182.38404,250.607943 1182.38404,253.042714 Z M1182.38404,235.408543 C1182.38404,237.843314 1180.41015,239.817086 1177.97523,239.817086 C1175.54031,239.817086 1173.56642,237.843314 1173.56642,235.408543 C1173.56642,232.973772 1175.54031,231 1177.97523,231 C1180.41015,231 1182.38404,232.973772 1182.38404,235.408543 Z" id="Shape" fill="#CDCBDF"></path>
            <path d="M1093.39028,0 C1148.61875,1.42108547e-14 1193.39028,44.771525 1193.39028,100 L1193.39028,123 L1014.39028,123 C959.161802,123 914.390277,78.228475 914.390277,23 L914.390277,0 L1093.39028,0 Z" id="Shape" fill="url(#linearGradient-2)"></path>
            <path d="M147.044068,862.653791 C147.044068,795.72166 147.044068,711.101504 147.044068,667.390277 C92.8958243,667.390277 49,711.101504 49,765.022034 C49,818.942564 92.8958243,862.653791 147.044068,862.653791 Z" id="Shape" fill="#FDA0A2" transform="translate(98.022034, 765.022034) rotate(-270.000000) translate(-98.022034, -765.022034) "></path>
            <path d="M1209.54407,888.153791 C1209.54407,785.915477 1209.54407,656.658839 1209.54407,589.890277 C1126.67702,589.890277 1059.5,656.658839 1059.5,739.022034 C1059.5,821.385229 1126.67702,888.153791 1209.54407,888.153791 Z" id="Shape" fill="url(#linearGradient-3)" transform="translate(1134.522034, 739.022034) rotate(-270.000000) translate(-1134.522034, -739.022034) "></path>
        </g>
        <g id="Document" transform="translate(51.000000, 153.000000)">
            <path d="M96.0526316,47.987988 C96.0526316,21.484954 74.5505176,1.93154385e-13 48.0263158,-1.70530257e-13 L710.789474,-1.69098427e-13 C721.399154,-1.69098427e-13 730,8.59398162 730,19.1951952 L730,779.804805 C730,790.406018 721.399154,799 710.789474,799 L115.252632,799 C104.648764,799 96.0526316,790.403867 96.0526316,779.8 L96.0526316,47.987988 Z" id="Shape" fill="url(#linearGradient-4)"></path>
            <polygon id="Shape" fill="#3B97FC" points="134.473684 38.3903904 691.578947 38.3903904 691.578947 134.366366 134.473684 134.366366"></polygon>
            <path d="M134.473684,172.756757 L691.578947,172.756757 L691.578947,211.147147 L134.473684,211.147147 L134.473684,172.756757 Z M134.473684,249.537538 L624.342105,249.537538 L624.342105,287.927928 L134.473684,287.927928 L134.473684,249.537538 Z M134.473684,326.318318 L362.598684,326.318318 L362.598684,364.708709 L134.473684,364.708709 L134.473684,326.318318 Z M413.026316,326.318318 L691.578947,326.318318 L691.578947,595.051051 L413.026316,595.051051 L413.026316,326.318318 Z M134.473684,633.441441 L280.953947,633.441441 L280.953947,748.612613 L134.473684,748.612613 L134.473684,633.441441 Z M134.473684,403.099099 L362.598684,403.099099 L362.598684,441.489489 L134.473684,441.489489 L134.473684,403.099099 Z M134.473684,556.660661 L362.598684,556.660661 L362.598684,595.051051 L134.473684,595.051051 L134.473684,556.660661 Z M317.296172,633.441441 L691.578947,633.441441 L691.578947,671.831832 L317.296172,671.831832 L317.296172,633.441441 Z M317.296172,709.022523 L691.578947,709.022523 L691.578947,747.412913 L317.296172,747.412913 L317.296172,709.022523 Z M134.473684,479.87988 L362.598684,479.87988 L362.598684,518.27027 L134.473684,518.27027 L134.473684,479.87988 Z" id="Shape" fill="url(#linearGradient-5)"></path>
            <path d="M48.0263158,1.03739239e-12 C74.5505176,1.03251998e-12 96.0526316,21.502114 96.0526316,48.0263158 L96.0526316,134.366366 L-4.33431069e-13,134.366366 L-4.33431069e-13,48.0263158 C-4.36679347e-13,21.502114 21.502114,1.04226481e-12 48.0263158,1.03739239e-12 Z" id="Shape" fill="url(#linearGradient-6)"></path>
        </g>
        <g id="Monitor" transform="translate(523.000000, 369.000000)">
            <polygon id="Shape" fill="url(#linearGradient-7)" points="245 443 355 443 375 539 225 539"></polygon>
            <path d="M10,70 L590,70 C595.522847,70 600,74.4771525 600,80 L600,460 C600,465.522847 595.522847,470 590,470 L10,470 C4.4771525,470 6.76353751e-16,465.522847 0,460 L0,80 C-6.76353751e-16,74.4771525 4.4771525,70 10,70 Z" id="Shape" fill="url(#linearGradient-8)"></path>
            <path d="M10,5.68434189e-14 L590,5.68434189e-14 C595.522847,5.58288882e-14 600,4.4771525 600,10 L600,410 L0,410 L0,10 C-6.76353751e-16,4.4771525 4.4771525,5.78579495e-14 10,5.68434189e-14 Z" id="Shape" fill="url(#linearGradient-9)"></path>
            <polygon id="Shape" fill="#FFFFFF" points="30 30 570 30 570 380 30 380"></polygon>
            <path d="M276,226 L530,226 L530,341 L276,341 L276,226 Z M70,226 L236,226 L236,341 L70,341 L70,226 Z" id="Shape" fill="#EE342C"></path>
            <polygon id="Shape" fill="#FFFFFF" points="118 249 188 284 118 319"></polygon>
            <polygon id="Shape" fill="url(#linearGradient-10)" points="70 71 530 71 530 186 70 186"></polygon>
            <path d="M140,164 C120.670034,164 105,148.329966 105,129 C105,109.670034 120.670034,94 140,94 C159.329966,94 175,109.670034 175,129 C175,148.329966 159.329966,164 140,164 Z M203,94 L305,94 L305,108 L203,108 L203,94 Z M203,150 L495,150 L495,164 L203,164 L203,150 Z M203,122 L495,122 L495,136 L203,136 L203,122 Z" id="Shape" fill="#FFFFFF"></path>
            <path d="M186,583 C180.477153,583 176,578.522847 176,573 L176,543 C176,537.477153 180.477153,533 186,533 L414,533 C419.522847,533 424,537.477153 424,543 L424,573 C424,578.522847 419.522847,583 414,583 L186,583 Z" id="Shape" fill="url(#linearGradient-11)"></path>
        </g>
        <g id="Folder" transform="translate(855.000000, 640.800000)">
            <path d="M11.616,2.8643754e-14 L117.742394,5.82867088e-14 C120.822976,6.31716901e-14 123.777401,1.2236885 125.955795,3.4018959 L159.714999,37.158209 L389.384,37.158209 C395.79934,37.158209 401,42.3588693 401,48.774209 L401,299.584 C401,305.99934 395.79934,311.2 389.384,311.2 L11.616,311.2 C5.20066035,311.2 4.98165568e-13,305.99934 4.97379915e-13,299.584 L5.04485342e-13,11.616 C5.0369969e-13,5.20066035 5.20066035,7.99360578e-15 11.616,2.8643754e-14 Z" id="Shape" fill="#EB5A54"></path>
            <path d="M11.616,11.6119403 L117.742394,11.6119403 C120.822976,11.6119403 123.777401,12.8356288 125.955795,15.0138362 L159.714999,48.7701493 L389.384,48.7701493 C395.79934,48.7701493 401,53.9708096 401,60.3861493 L401,299.584 C401,305.99934 395.79934,311.2 389.384,311.2 L11.616,311.2 C5.20066035,311.2 2.12172116e-13,305.99934 2.11386464e-13,299.584 L1.95399252e-13,23.2279403 C1.946136e-13,16.8126006 5.20066035,11.6119403 11.616,11.6119403 Z" id="Shape" fill="url(#linearGradient-12)"></path>
        </g>
        <g id="Women" transform="translate(756.597153, 71.359400)">
            <polygon id="Shape" fill="#F4B696" points="215.984554 367.688726 236.773281 362.505514 241.948306 383.261406 221.159579 388.444617"></polygon>
            <path d="M219.429647,386.426363 L241.264821,380.982243 L256.246586,382.146018 C263.8313,382.874463 269.952541,382.417392 271.878696,390.142778 C272.373495,392.12731 271.458407,394.064257 269.834789,394.46907 L228.878425,404.680639 C226.331926,405.315552 223.752881,403.765906 223.117967,401.219406 L219.429647,386.426363 Z" id="Shape" fill="#211D41"></path>
            <polygon id="Shape" fill="#F4B696" points="156.418724 370.6406 177.229033 368.65497 174.026273 388.031904 152.601127 388.031904"></polygon>
            <path d="M152.410841,385.655092 L174.914469,385.655092 L189.169669,390.408716 C196.352858,392.950431 202.402847,393.987799 202.402847,401.949687 C202.402847,403.994972 201.046351,405.653004 199.373029,405.653004 L157.162841,405.653004 C154.538384,405.653004 152.410841,403.525461 152.410841,400.901004 L152.410841,385.655092 Z" id="Shape" fill="#211D41"></path>
            <path d="M178.550314,206.049938 C176.409657,207.124889 175.832464,209.119773 178.550314,211.007693 C181.268164,212.895613 181.324671,212.590169 186.155533,213.445926 C196.156133,215.21747 181.889207,219.556932 176.173239,217.093292 C170.45727,214.629652 171.586414,214.111988 157.985231,214.111988 C144.384048,214.111988 135.649598,217.598658 114.957872,219.152565 C101.163388,220.188503 82.0753893,219.502079 57.6938761,217.093292 L47.3524743,159.76509 L79.9206525,157.225036 L83.3020986,190.24569 C120.425553,197.724486 131.734671,200.484855 147.511184,200.484855 C163.287697,200.484855 175.505786,197.724486 182.420856,197.724486 C191.972684,197.809311 198.923003,199.666059 203.271812,203.294731 C201.300266,204.764241 199.917998,206.049938 194.235988,204.624347 C188.553979,203.198755 180.690972,204.974987 178.550314,206.049938 Z" id="Shape" fill="#FB6868"></path>
            <path d="M213.523853,378.16751 L185.2175,284.177285 L80.9962374,293.762971 C56.9057046,295.978683 34.9312199,279.920187 29.7247821,256.294858 L24.7711036,233.816479 C25.1696247,233.88791 85.071051,233.925545 204.475382,233.929385 C216.467636,233.929771 226.619045,242.782168 228.251272,254.662824 L244.402847,372.22695 L213.523853,378.16751 Z" id="Shape" fill="#221E41"></path>
            <path d="M149.632095,377.363032 L169.983541,297.6406 L72.7711036,297.6406 C46.2614356,297.6406 24.7711036,276.150268 24.7711036,249.6406 L24.7711036,233.816479 C25.1560521,233.885477 85.5154864,233.922943 205.849407,233.928876 C208.924679,233.929027 211.971266,234.520209 214.823405,235.670256 C227.116501,240.627112 233.0637,254.610962 228.106844,266.904058 L183.567276,377.363032 L149.632095,377.363032 Z" id="Shape" fill="url(#linearGradient-13)"></path>
            <path d="M57.5173372,83.9297127 C68.7173611,79.2784982 81.7915773,84.3645074 96.7399858,99.1877404 C111.688394,114.010973 113.340441,159.180623 101.696127,234.696689 L24.4304578,234.696689 L24.4304578,165.182024 C24.4304578,125.126653 26.8668537,107.27454 36.8284905,94.1405997 C43.4695816,85.3846394 50.3658639,81.9810104 57.5173372,83.9297127 Z" id="Shape" fill="url(#linearGradient-14)"></path>
            <path d="M200.419487,206.023805 C201.066325,206.023805 208.762769,205.829309 211.668213,206.53444 C214.573656,207.23957 213.170063,210.122918 206.04385,209.609944 C198.917636,209.09697 199.772649,206.023805 200.419487,206.023805 Z" id="Shape" fill="#FF7272"></path>
            <path d="M239.330679,229.99574 C239.164115,230.469141 238.766218,230.83858 238.259385,230.957579 L219.688019,231.535864 L218.152091,231.591744 L218.156217,231.583562 L135.141507,234.16852 C134.335777,234.357696 133.529334,233.857518 133.340267,233.05134 C133.307937,232.913486 133.295287,232.771744 133.302694,232.630339 L133.375174,231.246649 C133.41006,230.580652 133.8804,230.01776 134.529314,229.865402 L220.370596,227.19243 L252.739922,163.003782 L277.176201,146.287806 L277.894746,146.300065 C278.584325,146.311829 279.133805,146.880691 279.122044,147.570655 C279.118961,147.751533 279.076658,147.929585 278.998061,148.092504 L239.813342,229.315551 C239.690369,229.570451 239.526501,229.799707 239.330679,229.99574 Z" id="Combined-Shape" fill="#EE342C"></path>
            <polygon id="Shape" fill="#FFFFFF" points="251.494415 162.938471 277.228665 146.243641 236.490463 228.413122 218.152091 228.413122"></polygon>
            <path d="M79.7830331,140.865298 L94.9786259,205.35242 C78.1135943,208.031751 69.6810785,208.954515 69.6810785,208.120712 C69.6810785,207.286909 67.2263464,198.14298 62.3168821,180.688924 L79.7830331,140.865298 Z" id="Shape" fill="#221E41"></path>
            <path d="M197.701526,220.662927 C197.701526,221.495981 199.19129,222.386651 202.106714,223.991153 C208.219615,227.355386 202.387626,227.69636 196.671658,225.23272 C190.955689,222.76908 190.054665,221.014922 175.997477,221.495981 C161.940288,221.97704 134.229084,225.738086 113.537358,227.291993 C99.7428738,228.327931 80.6548752,227.641507 56.2733621,225.23272 L45.9319602,167.904518 L78.5001384,165.364464 L81.8815846,198.385118 C122.825994,203.370981 151.186455,205.863913 166.962967,205.863913 C182.73948,205.863913 194.085272,205.863913 201.000342,205.863913 C206.210997,207.458371 211.303204,210.996259 216.276965,216.477578 C217.581129,218.226569 217.173117,218.958093 215.052928,218.672149 C211.872646,218.243233 207.261517,212.250683 201.652952,211.306922 C208.132718,214.843169 212.441462,218.576954 214.511039,221.495981 C217.615403,225.874521 209.999891,221.049684 207.339795,219.220843 C200.914282,215.956517 198.801131,215.176888 201.000342,216.881958 C204.299157,219.439562 207.335802,221.450567 209.768895,223.341643 C212.201989,225.23272 208.835992,225.272199 205.697454,223.991153 C202.558915,222.710107 197.701526,219.829874 197.701526,220.662927 Z" id="Shape" fill="#F4B696"></path>
            <path d="M56.7099257,75.6052844 C61.5104832,66.6022597 64.9272108,59.7897824 66.9601083,55.1678525 C68.9930058,50.5459226 71.0081393,45.3670366 73.0055088,39.6311946 C71.7883213,29.5879211 75.231658,23.1565914 83.3355189,20.3372055 C95.4913102,16.1081265 115.429044,22.7452405 120.623071,28.2442837 C125.817098,33.7433269 127.614872,47.8535244 120.623071,56.2815202 L122.283513,66.3028362 C120.083492,67.9175186 117.951435,68.2375505 115.887343,67.2629318 C112.600649,72.194771 110.208857,75.2910689 108.711966,76.5518256 C106.46663,78.4429606 101.219745,84.1731541 89.5393118,78.5692597 C86.8728839,83.6021442 84.8631802,87.3047288 83.5102006,89.6770136 C81.9203869,92.4645579 92.3989366,96.3563007 83.5102006,104.175665 C77.5843765,109.388575 67.0056126,102.715488 51.7739087,84.1564042 L56.7099257,75.6052844 Z" id="Shape" fill="#F4B696"></path>
            <path d="M64.1636279,67.9950354 C61.9488038,65.9523307 61.1078651,63.7071719 61.640812,61.2595588 C62.4402322,57.5881392 65.0783881,56.8007067 61.1947905,47.0182049 C57.3111929,37.2357031 55.6776618,25.7204449 66.5415803,11.2174156 C77.4054989,-3.28561373 87.6681746,-0.677935755 97.7044452,2.41396323 C107.740716,5.50586222 141.402847,11.2174156 136.837539,29.220266 C132.272231,47.2231165 108.200066,37.2446831 104.880138,35.3279218 C101.56021,33.4111605 101.152492,39.4124059 99.2962627,44.9994767 C97.4400337,50.5865475 93.4865161,50.3546955 92.5287541,49.0695608 C91.5709921,47.784426 89.2368999,45.7909561 85.5620308,47.7927129 C81.8871617,49.7944698 82.3435985,55.5424294 84.1673571,56.595377 C85.9911157,57.6483245 88.7913871,58.1319927 87.9841056,60.3730155 C87.1768241,62.6140384 83.2481051,68.9233553 79.5283446,71.5869306 C77.0485042,73.3626474 71.926932,72.165349 64.1636279,67.9950354 Z" id="Shape" fill="url(#linearGradient-15)"></path>
            <polygon id="Shape" fill="url(#linearGradient-16)" points="79.5819366 136.528686 81.9556338 172.22983 42.7612364 178.566261 41.0257836 141.39206"></polygon>
            <path d="M166.787556,368.516017 L168.732903,361.79176 L169.693511,362.069667 L167.748164,368.793924 L166.787556,368.516017 Z M171.511971,352.18568 L173.457318,345.461424 L174.417926,345.73933 L172.472579,352.463587 L171.511971,352.18568 Z M176.236386,335.855343 L178.181733,329.131087 L179.142342,329.408993 L177.196994,336.13325 L176.236386,335.855343 Z M180.960801,319.525006 L182.906148,312.80075 L183.866757,313.078657 L181.921409,319.802913 L180.960801,319.525006 Z M185.685216,303.194669 L187.630564,296.470413 L188.591172,296.74832 L186.645824,303.472576 L185.685216,303.194669 Z M190.409631,286.864332 L192.354979,280.140076 L193.315587,280.417983 L191.370239,287.142239 L190.409631,286.864332 Z M192.298474,270.784308 C191.253633,268.79991 189.544943,267.240369 187.440675,266.396138 L187.813025,265.468046 C190.139546,266.401444 192.028869,268.125851 193.183315,270.318415 L192.298474,270.784308 Z M177.722708,266.037793 L170.733518,266.426665 L170.677965,265.428209 L177.667155,265.039337 L177.722708,266.037793 Z M160.748961,266.982196 L153.75977,267.371068 L153.704217,266.372612 L160.693407,265.98374 L160.748961,266.982196 Z M143.775213,267.926599 L136.786023,268.315471 L136.73047,267.317015 L143.71966,266.928143 L143.775213,267.926599 Z M126.801466,268.871002 L119.812275,269.259874 L119.756722,268.261418 L126.745912,267.872546 L126.801466,268.871002 Z M109.827718,269.815405 L102.838528,270.204277 L102.782975,269.205821 L109.772165,268.816949 L109.827718,269.815405 Z M92.8539707,270.759808 L85.8647805,271.14868 L85.8092274,270.150224 L92.7984175,269.761352 L92.8539707,270.759808 Z M75.7492404,270.276735 C73.4619287,269.516337 71.3259096,268.357297 69.441438,266.857387 L70.06419,266.074968 C71.8569489,267.501881 73.8889834,268.604497 76.0647068,269.327799 L75.7492404,270.276735 Z M63.3090993,258.756209 C63.1043327,258.267855 62.9180409,257.770614 62.7506834,257.265267 L61.0371603,252.075029 L61.9867484,251.761529 L63.7001258,256.951326 C63.8592389,257.431778 64.0364948,257.9049 64.2313118,258.369525 L63.3090993,258.756209 Z" id="Shape" fill="#A587FF" fill-rule="nonzero"></path>
            <path d="M71.3914891,23.4912186 C57.0228303,20.4444064 49.8385009,27.4942001 49.8385009,44.6405997 C49.8385009,70.3601992 53.0984458,69.6871301 38.7506465,81.8222382 C29.185447,89.9123102 24.4028472,109.753353 24.4028472,141.345366 C-4.08258791,107.759668 -7.62974409,75.2808603 13.7613786,43.9089423 C35.1525014,12.5370242 56.6996575,3.7199386 78.4028472,17.4576853 L71.3914891,23.4912186 Z" id="Shape" fill="url(#linearGradient-17)"></path>
        </g>
        <g id="Men" transform="translate(139.766647, 247.996128)">
            <polygon id="Shape" fill="#F4B696" points="19.5064739 660.420749 43.2720228 660.420749 43.2720228 684.193362 19.5064739 684.193362"></polygon>
            <polygon id="Shape" fill="#F4B696" points="89.4828125 660.420749 113.248361 660.420749 113.248361 684.193362 89.4828125 684.193362"></polygon>
            <polygon id="Shape" fill="#211D41" points="47.5573883 674.865748 16.6486004 674.865748 3.08220557 359.176537 80.7137336 358.748898"></polygon>
            <path d="M118.110755,674.504769 L85.4195183,674.504769 L76.0502467,505.515923 L3.08220557,359.176537 L108.139227,358.960281 L130.243169,468.022691 C132.731841,480.301973 133.459628,492.873032 132.404625,505.357471 L118.110755,674.504769 Z" id="Shape" fill="url(#linearGradient-18)"></path>
            <path d="M62.4264465,188.235195 L29.8779325,183.656688 L31.6283291,171.190775 C25.767312,158.703536 25.8400533,142.517318 31.8465529,122.632122 C37.8530524,102.746926 54.6696718,99.5759141 82.296411,113.119087 C81.4389541,124.961536 83.4708995,132.802298 88.392247,136.641372 C95.7742683,142.399984 92.9079759,146.403544 89.9051949,147.355329 C86.9024139,148.307114 84.7539643,150.340885 84.6418515,157.262028 C84.5297387,164.18317 80.1947023,164.94674 73.3583966,166.725706 C68.8008594,167.911683 65.1568761,175.081513 62.4264465,188.235195 Z" id="Shape" fill="#F4B696"></path>
            <path d="M31.0523702,170.38026 C28.1693345,169.292199 26.5112837,167.486955 26.0782177,164.964528 C25.4286189,161.180887 27.6280097,159.426075 20.1955177,151.644291 C12.7630257,143.862507 6.79955492,133.57882 11.5396575,115.685571 C16.2797601,97.7923215 27.0096825,96.3379343 37.7105866,95.4288301 C48.4114907,94.5197259 52.7545233,95.7700377 67.462972,90.962403 C82.1714207,86.1547682 89.5665418,95.7353387 86.3435766,110.354419 C83.1206115,124.973499 61.0149695,124.410178 57.1324523,123.864036 C53.249935,123.317893 55.1641165,129.158779 55.5461575,135.161255 C55.9281985,141.163731 52.0909224,142.455995 50.6901617,141.604855 C49.2894009,140.753716 46.3121609,139.757906 43.5953919,143.059503 C40.8786229,146.3611 43.5150182,151.63158 45.6478278,151.931596 C47.7806374,152.231612 50.6210442,151.618915 50.7148072,154.05055 C50.8085702,156.482186 49.5025457,163.961402 46.9969411,167.907105 C45.3265379,170.537574 40.011681,171.361959 31.0523702,170.38026 Z" id="Shape" fill="url(#linearGradient-19)"></path>
            <path d="M150.233353,143.962845 C153.062431,141.990854 154.925652,139.684788 155.823016,137.044647 C157.169062,133.084435 161.416927,124.544134 172.219298,117.516706 C183.021669,110.489279 193.227584,134.866874 185.248424,141.178804 C177.269265,147.490735 162.456193,147.788079 159.370176,153.030819 C157.312831,156.525979 154.267224,153.503321 150.233353,143.962845 Z" id="Shape" fill="#F4B696"></path>
            <path d="M141.050729,109.152175 L167.430712,95.7109024 L192.154306,138.970418 C192.999686,140.449602 192.472934,142.339876 190.977771,143.192464 C190.934916,143.216901 190.891492,143.240328 190.847536,143.262725 L182.493586,147.519275 C181.287797,148.133655 179.827353,147.907584 178.879001,146.95975 L141.050729,109.152175 Z" id="Shape" fill="#EB5A54"></path>
            <path d="M219.722406,7.13981471 L259.219579,84.6573823 L156.03859,118.257572 C146.827702,121.257035 136.745111,117.998416 131.067438,110.18708 C125.640862,102.721201 126.696902,92.365765 133.522559,86.1123928 L219.722406,7.13981471 Z" id="Shape" fill="url(#linearGradient-20)"></path>
            <ellipse id="Shape" fill="#EB5A54" transform="translate(240.337581, 45.500000) rotate(-27.000000) translate(-240.337581, -45.500000) " cx="240.337581" cy="45.5" rx="13" ry="43.5"></ellipse>
            <path d="M173.03783,117.824654 C175.69666,115.57697 178.321134,114.672553 180.911252,115.111401 C184.796428,115.769674 188.969099,119.133704 191.155202,125.019175 C193.341306,130.904645 191.493363,134.228393 190.049409,136.384237 C188.605456,138.540082 184.589808,139.394775 183.594618,136.384237 C182.931158,134.377213 183.863631,132.528739 186.392039,130.838818 C182.745738,132.611908 180.147201,133.055181 178.596428,132.168636 C176.270269,130.838818 179.223076,128.017312 180.911252,126.669291 C177.598193,128.913937 175.457691,129.475099 174.489746,128.352776 C173.03783,126.669291 174.323055,123.623296 176.900406,121.85286 C173.934284,123.965704 171.882136,124.493915 170.74396,123.437493 C169.605785,122.381071 170.370408,120.510125 173.03783,117.824654 Z" id="Shape" fill="#FE9F9F"></path>
            <path d="M88.1625042,681.55196 L113.124345,681.55196 L128.93673,686.834763 C136.904584,689.659425 143.615452,690.812274 143.615452,699.66049 C143.615452,701.933459 142.110777,703.776065 140.254667,703.776065 L93.4425042,703.776065 C90.5264407,703.776065 88.1625042,701.412129 88.1625042,698.496065 L88.1625042,681.55196 Z" id="Shape" fill="#211D41"></path>
            <path d="M18.1861656,681.55196 L43.1480063,681.55196 L58.9603918,686.834763 C66.9282454,689.659425 73.6391132,690.812274 73.6391132,699.66049 C73.6391132,701.933459 72.1344386,703.776065 70.2783285,703.776065 L23.4661656,703.776065 C20.5501021,703.776065 18.1861656,701.412129 18.1861656,698.496065 L18.1861656,681.55196 Z" id="Shape" fill="#211D41"></path>
            <path d="M163.31327,307.044014 C170.268293,308.813993 174.57655,308.813993 176.238043,307.044014 C177.899536,305.274035 179.617596,302.717259 181.392222,299.373686 C185.404199,301.69261 186.706286,304.460764 185.298483,307.678151 C190.789315,307.839867 194.604078,308.781483 196.742771,310.502998 C199.95081,313.085271 199.415917,325.840652 192.858555,330.206461 C186.301194,334.572269 177.876889,329.418807 172.909747,328.81025 C169.598319,328.404546 165.234778,327.592464 159.819124,326.374005 L163.31327,307.044014 Z" id="Shape" fill="#F4B696"></path>
            <polygon id="Shape" fill="#221E41" points="52.5155325 188.653775 155.493541 132.003872 168.297434 150.359448 85.2452844 228.635034"></polygon>
            <path d="M64.0887979,378.383979 L65.1137296,377.984586 L67.9094829,385.159108 L66.8845512,385.558501 L64.0887979,378.383979 Z M70.8784845,395.807818 L71.9034162,395.408425 L74.6991695,402.582946 L73.6742378,402.98234 L70.8784845,395.807818 Z M77.6681711,413.231656 L78.6931028,412.832263 L81.4888561,420.006785 L80.4639244,420.406178 L77.6681711,413.231656 Z M84.4578578,430.655495 L85.4827895,430.256102 L88.2785427,437.430623 L87.253611,437.830017 L84.4578578,430.655495 Z M91.2475444,448.079333 L92.2724761,447.67994 L95.0682294,454.854462 L94.0432977,455.253855 L91.2475444,448.079333 Z M98.037231,465.503172 L99.0621627,465.103779 L100.58959,469.023495 C101.014587,470.114133 101.422153,471.211232 101.812154,472.314381 L100.775059,472.681031 C100.388937,471.588858 99.9854272,470.502675 99.5646582,469.422888 L98.037231,465.503172 Z M103.904193,483.175786 L104.972738,482.914614 C105.585384,485.421158 106.110046,487.948225 106.545793,490.491146 L105.461596,490.676931 C105.030184,488.159312 104.510743,485.65739 103.904193,483.175786 Z M106.769409,501.557211 L107.866751,501.480775 C108.045989,504.053985 108.135162,506.633434 108.133958,509.214452 L107.033946,509.213934 C107.03515,506.658598 106.946864,504.104816 106.769409,501.557211 Z M106.772359,520.181976 L107.871944,520.212206 L107.660332,527.909298 L106.560747,527.879068 L106.772359,520.181976 Z M106.258445,538.874913 L107.358029,538.905143 L107.146418,546.602235 L106.046833,546.572004 L106.258445,538.874913 Z M105.744531,557.56785 L106.844115,557.59808 L106.632503,565.295171 L105.532919,565.264941 L105.744531,557.56785 Z M105.230617,576.260786 L106.330201,576.291017 L106.118589,583.988108 L105.019005,583.957878 L105.230617,576.260786 Z M104.716702,594.953723 L105.816287,594.983953 L105.604675,602.681045 L104.505091,602.650815 L104.716702,594.953723 Z M104.202788,613.64666 L105.302373,613.67689 L105.090761,621.373982 L103.991176,621.343751 L104.202788,613.64666 Z M103.688874,632.339597 L104.788458,632.369827 L104.576847,640.066918 L103.477262,640.036688 L103.688874,632.339597 Z M103.17496,651.032533 L104.274544,651.062764 L104.062933,658.759855 L102.963348,658.729625 L103.17496,651.032533 Z" id="Shape" fill="#A587FF" fill-rule="nonzero"></path>
            <path d="M109.233353,364.532458 L3.07813897,369.914958 L-4.54747351e-13,220.638501 C1.18549947,194.447912 12.8935199,181.352617 35.1240614,181.352617 C68.4698737,181.352617 102.930471,184.648443 102.930471,233.64105 L105.846384,284.216796 L168.092643,304.802424 L166.388474,330.003872 L105.846384,324.564292 L109.233353,364.532458 Z" id="Shape" fill="url(#linearGradient-21)"></path>
            <path d="M105.842653,324.564292 L106.624206,334.119763 L71.8460919,323.805656 L71.3047515,260.266273 L79.9955211,306.350355 C81.111304,312.266958 85.2734273,317.152018 90.9377645,319.193205 L105.842653,324.564292 Z" id="Shape" fill="#221E41"></path>
        </g>
    </g>
</svg>