<svg width="800" height="600" viewBox="0 0 800 600" fill="none" xmlns="http://www.w3.org/2000/svg">
<path d="M416.621 450.641C256.726 486.382 180 473.101 180 382.674C180 103.775 655 113.149 655 382.674C655 465.954 576.517 414.9 416.621 450.641Z" fill="url(#paint0_linear)"/>
<ellipse cx="295.502" cy="532.5" rx="60.5" ry="6.5" fill="#414E7C"/>
<path d="M172.502 476.804C159.002 441.5 152.002 425.5 123.502 433.5C156.002 405 207.079 427.203 207.916 476.804C208.753 526.406 190.693 531.783 190.693 531.783C190.693 531.783 185.891 511.819 172.502 476.804Z" fill="#6386FF"/>
<path d="M190.824 438.5C167.856 392.296 150.139 354.986 180.778 314C140.001 375 229.802 413.423 224.491 464.194C219.179 514.965 190.824 531.872 190.824 531.872C190.824 531.872 213.791 484.704 190.824 438.5Z" fill="#A0B5FF"/>
<path d="M220.772 354.633C221.404 356.513 228.802 360.377 231.04 360.899L235.384 356.983C235.253 354.894 232.383 349.934 231.435 348.368C230.25 346.41 224.326 344.06 220.772 346.41C217.218 348.759 219.982 352.284 220.772 354.633Z" fill="#FCD8E3"/>
<path d="M329.896 260.318L329.13 271.249H335.501C335.501 270.079 335.666 261.522 336.476 260.318C337.488 258.813 339.513 253.297 340.019 247.279C340.525 241.261 334.958 240.759 332.933 240.759C330.908 240.759 327.871 245.774 327.365 249.285C326.96 252.093 328.883 257.81 329.896 260.318Z" fill="#FCD8E3"/>
<path d="M289.026 318.218C289.026 319.799 289.562 325.068 287.42 328.756C289.384 330.161 291.972 330.864 294.542 330.864C297.113 330.864 300.968 328.964 302.575 327.559L299.55 318.218C301.37 316.302 303.646 311.089 303.646 308.733C303.646 306.098 303.646 298.721 302.575 296.087C301.504 293.452 297.755 290.817 293.471 290.817C289.187 290.817 285.974 292.925 284.903 296.087C283.832 299.248 283.297 304.518 283.832 308.733C284.261 312.105 287.777 316.461 289.026 318.218Z" fill="#FCD8E3"/>
<path d="M294.089 313.116C292.724 313.116 289.538 316.302 289.083 316.757C289.083 318.122 293.634 323.583 294.999 323.583C296.364 323.583 299.55 317.667 299.55 316.757C299.55 315.847 295.454 313.116 294.089 313.116Z" fill="#EFC9E3"/>
<path d="M279.072 469.207L275.886 459.195L281.347 452.824C281.954 455.403 283.258 463.473 283.623 466.021C283.987 468.57 280.892 469.51 279.072 469.207Z" fill="#FCD8E3"/>
<path d="M303.646 491.506L304.556 475.578H313.202C312.444 479.825 309.562 491.506 308.652 492.871C307.819 494.12 304.253 492.264 303.646 491.506Z" fill="#FCD8E3"/>
<path d="M263.599 420.059C261.779 416.054 274.066 399.277 279.982 388.659L314.567 386.838L323.214 436.441L312.747 481.039C311.382 483.314 302.735 482.404 303.191 478.764C303.555 475.851 305.011 445.391 306.376 436.441L293.179 410.502L282.257 421.424V458.285C281.347 461.016 277.706 461.471 275.886 461.016C274.065 460.561 265.874 425.065 263.599 420.059Z" fill="#3C56C6"/>
<path d="M257.228 380.922C254.316 381.286 238.418 369.849 230.834 364.085C229.014 358.624 233.716 355.741 236.295 354.983L257.228 366.815C258.442 363.326 261.233 355.347 262.689 351.342C264.509 346.337 274.066 335.87 276.796 333.139C278.617 331.319 284.078 327.83 287.263 326.313C288.628 326.768 289.994 328.589 294.999 328.589C300.915 328.589 302.736 324.493 302.736 324.493C302.736 324.493 307.742 324.493 309.562 323.583C311.382 322.673 322.759 302.194 323.669 300.829C324.124 296.733 328.675 269.429 328.675 269.429C328.675 269.429 330.04 270.339 332.316 270.339C335.046 270.339 336.411 269.429 336.411 269.429C336.411 269.429 337.776 300.829 336.411 304.925C335.046 309.02 319.573 337.69 315.933 342.696C312.292 347.702 311.382 376.827 315.023 387.748C308.197 395.485 303.404 395.485 294.999 395.485C285.898 395.485 281.196 391.086 279.527 389.114C282.257 382.288 279.527 354.983 279.527 354.983C273.308 363.478 260.141 380.558 257.228 380.922Z" fill="#6386FF"/>
<path d="M302.115 506.673C301.227 504.398 302.69 493.775 303.393 491.097L304.299 491.18L309.288 491.713L311.266 506.673C311.058 508.938 309.097 513.254 306.559 513.021C303.387 512.73 303.225 509.516 302.115 506.673Z" fill="#F5B4C8"/>
<path d="M281.918 467.961C280.31 469.037 279.482 468.85 279.269 468.622C278.568 471.831 274.297 478.15 271.93 480.567C272.242 481.191 273.436 482.467 273.947 483.014C274.587 483.697 278.56 482.706 281.256 480.348C283.412 478.462 286.788 473.068 288.206 470.607L283.631 465.427C283.73 465.824 283.526 466.886 281.918 467.961Z" fill="#F5B4C8"/>
<path d="M283.088 287.632C281.996 290.908 282.712 302.194 283.622 306.745C283.622 297.188 288.094 291.727 294.465 291.727C299.561 291.727 302.129 298.099 303.191 301.739C302.887 300.071 303.475 297.006 304.931 294.458C306.388 291.909 304.325 284.901 303.111 281.716C303.111 282.808 301.291 283.991 300.381 284.446C301.109 281.898 298.864 279.744 297.65 278.985C297.195 282.626 291.279 285.811 292.644 284.446C293.736 283.354 292.189 280.351 291.279 278.985C290.824 281.261 284.453 283.536 283.088 287.632Z" fill="#3C56C6"/>
<ellipse cx="497.509" cy="533.373" rx="40.9568" ry="7.73628" fill="#414E7C"/>
<path d="M492.958 326.768V362.719H496.143V331.774H506.155C507.16 331.774 507.975 330.959 507.975 329.954V329.798C507.975 329.315 507.783 328.852 507.442 328.511L504.413 325.481C504.071 325.14 503.608 324.948 503.126 324.948H494.778C493.773 324.948 492.958 325.763 492.958 326.768Z" fill="#3C56C6"/>
<path d="M492.048 386.383H502.059V531.097C502.059 531.097 500.694 532.007 497.053 532.007C493.413 532.007 492.048 531.097 492.048 531.097V386.383Z" fill="#B2C3FF"/>
<path d="M556.319 496.211C540.024 500.957 526.125 522.19 521.085 532C531.521 525.699 561.063 518.612 561.063 518.612C561.063 518.612 592.964 508.964 604.453 501.17C595.346 505.993 576.688 490.278 556.319 496.211Z" fill="#FFE0EA"/>
<path d="M543.491 482.872C529.379 494.562 522.902 520.608 521.085 532C529.127 521.473 554.863 501.639 554.863 501.639C554.863 501.639 582.38 478.423 590.97 466.034C583.747 474.591 561.131 468.261 543.491 482.872Z" fill="#FEC6D7"/>
<path d="M517.718 474.228C509.332 490.5 516.421 519.568 521.085 532C523.618 518.686 540.848 490.588 540.848 490.588C540.848 490.588 556.954 458.418 558.997 443C556.199 454.019 528.2 453.889 517.718 474.228Z" fill="#F9759C"/>
<path d="M471.114 345.426H518.442C528.495 345.426 536.645 353.576 536.645 363.629V386.383H471.114V345.426Z" fill="#F9759C"/>
<path d="M457.462 360.899C457.462 352.354 464.389 345.426 472.934 345.426C481.48 345.426 488.407 352.354 488.407 360.899V386.383H457.462V360.899Z" fill="#FEC6D7"/>
<rect x="462.923" y="371.821" width="19.1132" height="2.73045" rx="1.36523" fill="#FCE1E9"/>
<path d="M408.6 137.658L312.3 201.595C309.667 203.344 309.574 207.178 312.119 209.051L445.983 307.606C447.58 308.781 449.755 308.788 451.358 307.621L549.872 235.958C552.433 234.095 552.355 230.251 549.721 228.493L413.644 137.664C412.117 136.646 410.129 136.643 408.6 137.658Z" fill="#8798D1"/>
<path d="M408.047 134.521L311.747 198.458C309.114 200.206 309.021 204.04 311.566 205.914L445.43 304.469C447.027 305.644 449.202 305.651 450.805 304.484L549.319 232.821C551.88 230.958 551.802 227.114 549.168 225.356L413.091 134.527C411.564 133.509 409.576 133.506 408.047 134.521Z" fill="url(#paint1_linear)"/>
<path d="M437.612 275.208L340.847 202.634C339.835 201.875 339.853 200.351 340.882 199.615C341.542 199.144 342.43 199.152 343.081 199.633L440.37 271.504C441.657 272.455 441.61 274.395 440.279 275.282C439.464 275.825 438.396 275.796 437.612 275.208Z" fill="white" fill-opacity="0.2"/>
<path d="M401.671 232.447L351.786 195.353C350.767 194.595 350.782 193.064 351.815 192.326C352.47 191.859 353.349 191.861 354.001 192.332L404.385 228.745C405.682 229.682 405.646 231.627 404.314 232.514C403.507 233.052 402.449 233.025 401.671 232.447Z" fill="white" fill-opacity="0.2"/>
<path d="M417.885 175.34L396.802 160.23C395.581 159.355 393.948 159.32 392.691 160.141L376.83 170.499C374.715 171.881 374.615 174.944 376.636 176.46L397.681 192.243C398.936 193.185 400.652 193.216 401.941 192.322L417.84 181.29C419.908 179.855 419.931 176.806 417.885 175.34Z" fill="#8798D1"/>
<path d="M392.835 161.661L378.424 171.334C376.857 172.386 376.805 174.674 378.322 175.796L398.08 190.414C398.998 191.093 400.242 191.13 401.198 190.505L416.014 180.82C417.616 179.773 417.672 177.446 416.122 176.324L395.959 161.716C395.032 161.045 393.785 161.023 392.835 161.661Z" fill="#FFCBDA"/>
<path d="M396.493 162.146L390.782 166.272L409.471 180.198L415.7 176.072M377.804 175.04L382.476 171.946L400.646 185.355L395.974 188.45M384.553 166.788L409.471 185.355" stroke="white" stroke-opacity="0.3" stroke-width="0.910151"/>
<path d="M528.709 227.297L507.296 213.142C506.256 212.455 504.899 212.482 503.888 213.212L489.465 223.61C487.778 224.825 487.809 227.345 489.525 228.519L510.239 242.692C511.264 243.393 512.614 243.391 513.635 242.687L528.757 232.27C530.508 231.064 530.483 228.469 528.709 227.297Z" fill="url(#paint2_linear)"/>
<path d="M283.284 176.814L261.44 171.353M317.414 135.402L307.858 121.295M387.496 101.726L384.766 85.7987M482.607 107.187L488.068 94.9002M534.941 146.324L547.683 135.402M569.071 198.657L587.729 195.472M564.065 262.823L581.358 269.649" stroke="#E0DEDF" stroke-width="4" stroke-linecap="round" stroke-linejoin="round"/>
<defs>
<linearGradient id="paint0_linear" x1="406.713" y1="236.484" x2="406.713" y2="452.772" gradientUnits="userSpaceOnUse">
<stop stop-color="#FEC6D7"/>
<stop offset="1" stop-color="#BBCAFF"/>
</linearGradient>
<linearGradient id="paint1_linear" x1="310.751" y1="205.5" x2="564.751" y2="236.5" gradientUnits="userSpaceOnUse">
<stop stop-color="#6386FF"/>
<stop offset="1" stop-color="#3C56C6"/>
</linearGradient>
<linearGradient id="paint2_linear" x1="509.209" y1="212" x2="509.209" y2="243.855" gradientUnits="userSpaceOnUse">
<stop stop-color="white"/>
<stop offset="1" stop-color="white" stop-opacity="0"/>
</linearGradient>
</defs>
</svg>
