<svg width="800" height="600" viewBox="0 0 800 600" fill="none" xmlns="http://www.w3.org/2000/svg">
<path d="M384.758 417.116C249.773 447.349 185 436.114 185 359.623C185 123.705 586 131.635 586 359.623C586 430.069 519.744 386.883 384.758 417.116Z" fill="url(#paint0_linear)"/>
<path d="M342.938 371.868C353.154 402.298 351.968 445.737 349.418 461.626L354.212 467.299C355.75 446.834 356.625 398.78 346.385 370.615C333.225 334.416 308.688 308.078 295.245 294.361L294.492 296.586C305.93 307.65 331.633 338.196 342.938 371.868Z" fill="#F9AEC5"/>
<path d="M371.711 397.231C372.506 424.08 360.003 466.879 351.209 465.492C345.229 464.549 351.403 420.838 353.693 397.181C356.238 370.887 350.629 354.032 341.005 338.207C322.971 308.551 321.5 276 331.404 257.377C328.5 279 341.394 294.012 349 307.5C356.606 320.988 370.115 343.357 371.711 397.231Z" fill="#F9759C"/>
<path d="M341.79 391.258C323.404 367.112 301.447 364.776 290.297 362.583C291.224 369.558 293.522 374.557 299.692 385.849C305.863 397.142 317.28 406.852 331.097 408.912C321.833 432.343 349.082 465.89 353.295 469.124C353.743 465.027 364.772 421.441 341.79 391.258Z" fill="#FCE1E9"/>
<path fill-rule="evenodd" clip-rule="evenodd" d="M215.867 215.327C225.983 223.213 245.484 241.027 253.68 250.764C245.791 242.922 226.95 225.089 214.692 216.496L214.739 216.28C210.589 220.715 211.087 232.542 222.45 254.514C228.067 252.268 234.165 250.563 238.342 250.571C234.894 251.467 228.926 253.381 223.231 256.008C225.543 260.382 228.274 265.146 231.47 270.318C232.507 271.996 233.593 273.607 234.724 275.153C238.907 271.512 243.49 268.293 247.069 266.972C244.344 268.876 239.871 272.375 235.69 276.446C240.625 282.897 246.335 288.177 252.398 292.472C256.185 288.105 260.52 284.058 264.043 282.203C261.532 284.5 257.425 288.693 253.746 293.408C273.596 306.89 296.837 310.146 309.002 309.655C308.698 308.162 308.42 306.643 308.136 305.097C306.419 295.729 304.511 285.325 295.716 273.112C294.733 271.746 293.702 270.382 292.632 269.024C289.821 271.916 287.538 275.839 286.537 277.942C286.893 275.021 289.315 270.912 291.792 267.971C283.526 257.707 272.998 247.784 262.508 239.317C260.152 242.046 258.275 245.311 257.393 247.164C257.697 244.673 259.503 241.317 261.565 238.559C259.699 237.068 257.836 235.624 255.99 234.234C253.37 237.073 251.262 240.715 250.311 242.713C250.639 240.027 252.713 236.335 254.971 233.471C239.711 222.104 225.737 214.491 220.443 214.218C218.708 214.129 217.146 214.482 215.867 215.327Z" fill="#F9AEC5"/>
<path d="M661.532 426.968V486.527H603.097V426.968V421.296L621.364 421.159L661.532 426.968Z" fill="#7795FF" fill-opacity="0.7"/>
<path d="M363 209.845V242L395.5 213.535H603V174H395.5L363 209.845Z" fill="#DAE2FF"/>
<path d="M395.78 214L395.5 174L360.788 210.666V244.068L395.78 214Z" fill="#6785EF"/>
<path d="M354.425 463.566H303.494L341.625 486.364H395.249V213.317H353.365L312.54 249.37H353.365C353.365 249.37 353.365 393.404 354.425 463.566Z" fill="#9CB0F4"/>
<path d="M352.759 463.12H300.456L372.253 505.913H716.5L662.296 486.894H395.552L352.759 463.12Z" fill="#414E7C"/>
<path d="M620.939 395.361L615.909 407.995L619.446 408.916L624.435 396.996L640.342 395.035L625.273 394.891L630.263 382.971L645.699 376.675L631.142 380.15L637.338 359.685L627.646 378.514L618.324 365.776L626.767 381.335L621.777 393.255L609.429 383.215L620.939 395.361Z" fill="#F9759C"/>
<circle cx="607.957" cy="383.849" r="6.45075" transform="rotate(3.274 607.957 383.849)" fill="#F9AEC5"/>
<circle cx="617.69" cy="364.304" r="6.45075" transform="rotate(3.274 617.69 364.304)" fill="#F9AEC5"/>
<circle cx="638.136" cy="358.294" r="6.45075" transform="rotate(3.274 638.136 358.294)" fill="#F9AEC5"/>
<circle cx="648.521" cy="377.554" r="6.45075" transform="rotate(3.274 648.521 377.554)" fill="#F9AEC5"/>
<circle cx="643.163" cy="395.914" r="6.45075" transform="rotate(3.274 643.163 395.914)" fill="#F9AEC5"/>
<path d="M313.07 246.189V248.84L352.834 214.378H614.272V211.727H351.774L313.07 246.189Z" fill="#7490F1"/>
<path d="M374.572 474.7V274.819L395.249 265.806V486.364L374.572 474.7Z" fill="#6785EF"/>
<path d="M395.25 213.317L353.365 249.37V284.892L395.25 266.336V213.317Z" fill="#3C56C6"/>
<rect x="395.25" y="266.336" width="80.5885" height="220.558" fill="#DAE2FF"/>
<path d="M475.332 266.653H478.303V486.869H475.332V266.653Z" fill="white"/>
<path d="M478.303 266.036H603.096V486.9H478.303V266.036Z" fill="#DAE2FF"/>
<path d="M614 214H395V266.521L614 267V214Z" fill="#6785EF"/>
<path d="M263.369 452.764H321.013V462.371C321.013 462.371 317.519 465.865 292.191 465.865C266.862 465.865 263.369 462.371 263.369 462.371V452.764Z" fill="url(#paint1_linear)"/>
<ellipse cx="292.191" cy="452.764" rx="28.8222" ry="4.367" fill="#6885EF"/>
<path d="M250.055 443.156H307.7V452.764C307.7 452.764 304.206 456.257 278.877 456.257C253.549 456.257 250.055 452.764 250.055 452.764V443.156Z" fill="url(#paint2_linear)"/>
<ellipse cx="278.877" cy="443.156" rx="28.8222" ry="4.367" fill="#6885EF"/>
<path d="M604.802 416.672H662.763V426.333C662.763 426.333 659.25 429.845 633.782 429.845C608.315 429.845 604.802 426.333 604.802 426.333V416.672Z" fill="url(#paint3_linear)"/>
<ellipse cx="633.782" cy="416.672" rx="28.9804" ry="4.39098" fill="#6885EF"/>
<path d="M607.952 406.732H665.913V416.392C665.913 416.392 662.4 419.905 636.933 419.905C611.465 419.905 607.952 416.392 607.952 416.392V406.732Z" fill="url(#paint4_linear)"/>
<ellipse cx="636.933" cy="406.732" rx="28.9804" ry="4.39098" fill="#6885EF"/>
<path d="M602.821 484.021H660.782V493.681C660.782 493.681 657.269 497.194 631.802 497.194C606.334 497.194 602.821 493.681 602.821 493.681V484.021Z" fill="url(#paint5_linear)"/>
<ellipse cx="631.802" cy="484.021" rx="28.9804" ry="4.39098" fill="#6885EF"/>
<path d="M606.962 474.081H664.923V483.741C664.923 483.741 661.41 487.253 635.942 487.253C610.475 487.253 606.962 483.741 606.962 483.741V474.081Z" fill="url(#paint6_linear)"/>
<ellipse cx="635.942" cy="474.081" rx="28.9804" ry="4.39098" fill="#6885EF"/>
<path d="M606.962 464.176H664.923V473.836C664.923 473.836 661.41 477.349 635.942 477.349C610.475 477.349 606.962 473.836 606.962 473.836V464.176Z" fill="url(#paint7_linear)"/>
<ellipse cx="635.942" cy="464.176" rx="28.9804" ry="4.39098" fill="#6885EF"/>
<path d="M606.962 454.272H664.923V463.932C664.923 463.932 661.41 467.445 635.942 467.445C610.475 467.445 606.962 463.932 606.962 463.932V454.272Z" fill="url(#paint8_linear)"/>
<ellipse cx="635.942" cy="454.272" rx="28.9804" ry="4.39098" fill="#6885EF"/>
<path d="M603 444.368H660.961V454.028C660.961 454.028 657.448 457.541 631.98 457.541C606.513 457.541 603 454.028 603 454.028V444.368Z" fill="url(#paint9_linear)"/>
<ellipse cx="631.98" cy="444.368" rx="28.9804" ry="4.39098" fill="#6885EF"/>
<path d="M520.127 481.26H590.112V492.924C590.112 492.924 585.87 497.165 555.119 497.165C524.368 497.165 520.127 492.924 520.127 492.924V481.26Z" fill="url(#paint10_linear)"/>
<ellipse cx="555.12" cy="481.26" rx="34.9924" ry="5.30187" fill="#6885EF"/>
<path d="M424.556 428.885C424.556 428.885 431.004 424.144 435.968 422.229C463.07 411.768 487.919 475.951 463.545 492.6C458.25 496.217 447.855 496.879 447.855 496.879C442.624 497.354 429.529 494.977 420.277 475.482C411.025 455.988 413.62 438.395 424.556 428.885Z" fill="url(#paint11_linear)"/>
<ellipse cx="448.806" cy="457.89" rx="26.6268" ry="38.0383" transform="rotate(-15.5293 448.806 457.89)" fill="#6885EF"/>
<path d="M531.047 475.541C531.047 475.541 528.781 470.813 528.152 467.385C524.719 448.668 569.055 440.488 576.803 458.203C578.487 462.052 577.647 468.823 577.647 468.823C577.317 472.247 574.192 480.387 560.518 483.968C546.844 487.549 535.837 483.737 531.047 475.541Z" fill="url(#paint12_linear)"/>
<ellipse cx="552.668" cy="463.464" rx="17.442" ry="24.9172" transform="rotate(-94.8178 552.668 463.464)" fill="#6885EF"/>
<ellipse cx="172.5" cy="488.5" rx="99.5" ry="20.5" fill="#414E7C"/>
<path d="M143.329 488.199L147.927 475.363L156.005 473.632C153.312 478.633 147.927 488.864 147.927 489.787C147.927 490.71 144.29 490.699 143.329 488.199Z" fill="#FCD8E3"/>
<path d="M185.352 466.613L192.566 456.106L199.108 459.774L188.813 469.877L185.352 466.613Z" fill="#FCD8E3"/>
<path d="M154.334 476.517H146.773C149.565 461.219 157.241 441.569 160.731 433.656C160.731 426.403 159.034 404.744 159.034 392.084C159.034 379.424 164.874 368.368 167.201 365.071L195.375 367.073C195.375 367.073 218.419 424.405 217.837 430.999C217.255 437.593 196.207 464.298 196.207 464.298L189.809 457.704L205.624 429.68C205.624 429.68 186.514 414.914 180.617 403.296C182.368 415.061 172.362 438.932 172.362 438.932L154.334 476.517Z" fill="#3C56C6"/>
<path d="M147.927 503.058C145.619 502.596 139.465 497.672 138.119 494.403L144.465 485.172C143.081 487.941 146.196 489.018 147.927 489.21C147.927 489.21 147.927 494.403 156.582 496.711C159.978 497.617 159.851 501.711 159.466 503.058C155.428 503.25 150.235 503.519 147.927 503.058Z" fill="white"/>
<path d="M185.687 465.236L180.578 468.629L178.062 470.04C178.062 470.04 179.739 486.387 180.578 488.827C181.417 491.267 185.154 489.437 185.459 487.15C185.821 484.433 185.763 482.126 186.869 478.199C187.975 474.272 189.284 471.73 190.301 469.925L185.687 465.236Z" fill="white"/>
<path d="M183.699 296.503C183.238 299.272 180.045 301.888 178.507 302.849C178.507 304.696 185.815 305.927 189.469 306.311L190.623 296.503H183.699Z" fill="#FCD8E3"/>
<path d="M181.392 287.848C182.776 290.618 183.507 295.156 183.699 297.08H189.469H196.97C197.547 296.503 199.278 294.195 201.585 289.579C204.47 283.809 201.585 270.539 200.432 268.808C199.278 267.077 192.931 261.885 186.584 267.077C180.238 272.27 179.661 284.386 181.392 287.848Z" fill="#FCD8E3"/>
<path d="M198.7 277.463C200.431 274.578 202.855 267.77 198.7 263.616C189.469 261.885 186.057 262.268 180.814 267.077C175.772 271.702 175.045 277.463 175.622 283.809C176.199 290.156 181.968 291.31 183.122 292.464C184.276 293.618 192.354 287.848 192.354 283.809C192.354 280.578 196.585 278.232 198.7 277.463Z" fill="#FC97B5"/>
<path d="M170.743 276.917C173.255 274.834 175.931 277.208 176.955 278.656C177.525 280.834 178.642 285.419 178.557 286.338C178.449 287.487 178.128 290.934 175.669 292.443C173.211 293.952 171.127 291.44 169.618 288.981C168.109 286.523 167.603 279.522 170.743 276.917Z" fill="#FC97B5"/>
<path d="M204.885 282.438C209.942 276.391 209.164 261.041 198.703 263.894C192.998 270.075 195.099 272.447 194.482 275.211C193.714 278.651 192.98 280.296 191.417 283.802L191.396 283.85C189.557 287.973 194.482 299.555 198.014 302.883C196.326 297.178 197.169 291.663 204.885 282.438Z" fill="#FC97B5"/>
<path d="M236.203 370.355L228.703 365.162V357.661L239.088 365.162L236.203 370.355Z" fill="#FCD8E3"/>
<path d="M137.903 373.826L141.218 360.977L147.958 357.949L140.967 375.809L137.903 373.826Z" fill="#FCD8E3"/>
<path d="M170.429 352.469C168.698 361.302 168.256 360.444 166.371 365.899C167.333 366.992 163.509 376.583 173.028 376.583C186.817 376.583 191.721 369.079 195.375 367.549C195.375 364.269 196.97 344.254 198.124 336.384C199.047 330.087 198.508 326.584 198.124 325.928C199.855 328.333 203.778 339.401 205.624 343.598C207.471 347.796 221.779 360.214 228.703 365.899L232.742 359.969C232.165 359.392 214.856 339.007 213.702 336.384C212.548 333.76 205.624 308.042 199.278 305.157C192.931 302.272 175.045 302.614 170.429 304.582C166.737 306.156 155.813 321.92 150.235 331.977L140.427 364.587L145.619 365.899C147.158 361.745 157.851 342.471 158.313 339.847C158.89 336.568 168.698 326.074 168.698 327.386C168.698 333.944 172.16 343.635 170.429 352.469Z" fill="#6386FF"/>
<path d="M244.858 376.124C241.627 376.586 237.742 372.47 236.204 370.355C235.627 368.432 235.281 364.7 238.512 365.162C242.55 365.739 247.743 368.047 249.474 370.355C251.205 372.663 248.897 375.547 244.858 376.124Z" fill="#FCD8E3"/>
<path d="M131.956 383.018C132.879 379.442 136.029 374.932 137.488 373.124L141.958 374.277L139.652 383.215C138.931 386.009 135.399 390.46 133.453 388.767C131.506 387.073 130.803 387.487 131.956 383.018Z" fill="#FCD8E3"/>
<path d="M182.545 325.351C182.545 325.351 181.968 311.504 192.354 303.426C191.777 303.426 189.674 303.192 188.892 303.426C183.122 305.157 178.507 319.005 179.66 325.351H182.545Z" fill="#F9759C"/>
<path d="M171.006 319.582C171.006 319.582 174.66 307.465 176.776 303.426C176.199 303.426 173.314 303.426 172.737 304.003C172.084 304.656 167.544 316.697 167.544 319.582H171.006Z" fill="#F9759C"/>
<path d="M181.968 343.814C181.968 337.352 182.773 325.107 183.157 319.145H165.33C163.407 324.146 158.89 334.006 158.89 336.314C158.89 339.198 161.184 354.78 161.761 356.511C162.061 357.41 169.39 357.387 174.454 357.088C177.187 356.927 179.647 354.203 179.647 354.203C179.647 354.203 181.968 350.276 181.968 343.814Z" fill="#F9759C"/>
<path d="M157.159 338.926C157.159 328.54 160.079 322.03 164.117 319.145H183.157C175.311 319.145 173.314 332.002 173.314 338.926H157.159Z" fill="#F9AEC5"/>
<path d="M614 267H603V273L614 267Z" fill="#001E87"/>
<defs>
<linearGradient id="paint0_linear" x1="376.394" y1="235.963" x2="376.394" y2="418.919" gradientUnits="userSpaceOnUse">
<stop stop-color="#BBCAFF"/>
<stop offset="1" stop-color="#FFC5D6"/>
</linearGradient>
<linearGradient id="paint1_linear" x1="263.369" y1="462.371" x2="321.013" y2="462.371" gradientUnits="userSpaceOnUse">
<stop stop-color="#6885EF"/>
<stop offset="0.497238" stop-color="#B2C3FF"/>
<stop offset="1" stop-color="#6885EF"/>
</linearGradient>
<linearGradient id="paint2_linear" x1="250.055" y1="452.764" x2="307.7" y2="452.764" gradientUnits="userSpaceOnUse">
<stop stop-color="#6885EF"/>
<stop offset="0.497238" stop-color="#B2C3FF"/>
<stop offset="1" stop-color="#6885EF"/>
</linearGradient>
<linearGradient id="paint3_linear" x1="604.802" y1="426.333" x2="662.763" y2="426.333" gradientUnits="userSpaceOnUse">
<stop stop-color="#6885EF"/>
<stop offset="0.497238" stop-color="#B2C3FF"/>
<stop offset="1" stop-color="#6885EF"/>
</linearGradient>
<linearGradient id="paint4_linear" x1="607.952" y1="416.392" x2="665.913" y2="416.392" gradientUnits="userSpaceOnUse">
<stop stop-color="#6885EF"/>
<stop offset="0.497238" stop-color="#B2C3FF"/>
<stop offset="1" stop-color="#6885EF"/>
</linearGradient>
<linearGradient id="paint5_linear" x1="602.821" y1="493.681" x2="660.782" y2="493.681" gradientUnits="userSpaceOnUse">
<stop stop-color="#6885EF"/>
<stop offset="0.497238" stop-color="#B2C3FF"/>
<stop offset="1" stop-color="#6885EF"/>
</linearGradient>
<linearGradient id="paint6_linear" x1="606.962" y1="483.741" x2="664.923" y2="483.741" gradientUnits="userSpaceOnUse">
<stop stop-color="#6885EF"/>
<stop offset="0.497238" stop-color="#B2C3FF"/>
<stop offset="1" stop-color="#6885EF"/>
</linearGradient>
<linearGradient id="paint7_linear" x1="606.962" y1="473.836" x2="664.923" y2="473.836" gradientUnits="userSpaceOnUse">
<stop stop-color="#6885EF"/>
<stop offset="0.497238" stop-color="#B2C3FF"/>
<stop offset="1" stop-color="#6885EF"/>
</linearGradient>
<linearGradient id="paint8_linear" x1="606.962" y1="463.932" x2="664.923" y2="463.932" gradientUnits="userSpaceOnUse">
<stop stop-color="#6885EF"/>
<stop offset="0.497238" stop-color="#B2C3FF"/>
<stop offset="1" stop-color="#6885EF"/>
</linearGradient>
<linearGradient id="paint9_linear" x1="603" y1="454.028" x2="660.961" y2="454.028" gradientUnits="userSpaceOnUse">
<stop stop-color="#6885EF"/>
<stop offset="0.497238" stop-color="#B2C3FF"/>
<stop offset="1" stop-color="#6885EF"/>
</linearGradient>
<linearGradient id="paint10_linear" x1="520.127" y1="492.924" x2="590.112" y2="492.924" gradientUnits="userSpaceOnUse">
<stop stop-color="#6885EF"/>
<stop offset="0.497238" stop-color="#B2C3FF"/>
<stop offset="1" stop-color="#6885EF"/>
</linearGradient>
<linearGradient id="paint11_linear" x1="419.326" y1="427.934" x2="453.561" y2="498.781" gradientUnits="userSpaceOnUse">
<stop stop-color="#6885EF"/>
<stop offset="0.502762" stop-color="#B2C3FF"/>
<stop offset="1" stop-color="#6885EF"/>
</linearGradient>
<linearGradient id="paint12_linear" x1="529.799" y1="478.791" x2="579.566" y2="465.382" gradientUnits="userSpaceOnUse">
<stop stop-color="#6885EF"/>
<stop offset="0.502762" stop-color="#B2C3FF"/>
<stop offset="1" stop-color="#6885EF"/>
</linearGradient>
</defs>
</svg>
