<svg width="800" height="600" viewBox="0 0 800 600" fill="none" xmlns="http://www.w3.org/2000/svg">
<path d="M206.03 318.295C255.644 373.316 297.609 331.04 345.764 308.01C429.638 267.898 525.767 367.349 568.911 314.169C600.865 274.783 572.64 173.314 505.265 126.279C446.592 85.3189 380.893 85.768 303.441 119.185C220.952 154.776 152.636 259.083 206.03 318.295Z" fill="url(#paint0_linear)"/>
<path d="M551.936 353.75C548.329 384.353 557.322 424.824 562.51 439.195L559.245 445.491C554.131 426.624 544.573 381.765 548.615 353.279C553.81 316.667 571.008 286.975 580.561 271.376L581.642 273.308C573.403 286.011 555.928 319.884 551.936 353.75Z" fill="#F9759C"/>
<path d="M575.159 378.114C557.131 396.319 558.659 425.955 561.677 438.497C569.864 424.135 580.224 403.988 601.765 390.476C626.418 375.01 639.832 356.584 647.96 340.063C640.121 352.035 597.694 355.357 575.159 378.114Z" fill="#7795FF" fill-opacity="0.7"/>
<path d="M579.021 353.795C560.993 372 559.426 415.277 562.444 427.819C570.63 413.458 583.76 388.982 605.444 371.319C627.233 353.57 640.742 329.102 641.526 311.816C632.444 326.819 601.556 331.038 579.021 353.795Z" fill="#7795FF" fill-opacity="0.7"/>
<path d="M563.899 358.66C548.513 387.638 555.923 424.528 561.551 439.35C567.345 418.5 582.612 386.492 597.99 366.932C617.128 342.591 622.135 309.375 627.444 285.819C621.548 303.539 583.132 322.438 563.899 358.66Z" fill="#5970C4"/>
<path fill-rule="evenodd" clip-rule="evenodd" d="M637.325 181.106C629.692 190.562 615.454 211.236 609.881 222.035C615.525 213.075 629.168 192.517 638.592 181.962L638.511 181.77C643.042 185.079 644.755 196.265 638.575 219.176C633.127 218.218 627.347 217.864 623.601 218.724C626.858 218.86 632.559 219.436 638.147 220.736C636.872 225.308 635.292 230.329 633.37 235.828C632.746 237.613 632.066 239.345 631.334 241.025C626.918 238.465 622.22 236.384 618.769 235.876C621.561 237.104 626.211 239.471 630.704 242.433C627.455 249.487 623.298 255.6 618.645 260.863C614.45 257.542 609.824 254.634 606.326 253.615C608.997 255.255 613.446 258.346 617.606 262.015C602.264 278.701 582.014 286.496 571.015 288.518C571.014 287.056 570.987 285.576 570.959 284.069C570.789 274.938 570.6 264.798 576.259 251.557C576.892 250.076 577.567 248.588 578.279 247.096C581.328 249.233 584.092 252.444 585.374 254.211C584.521 251.546 581.599 248.189 578.84 245.938C584.38 234.632 592.01 223.184 599.873 213.108C602.484 215.184 604.764 217.862 605.893 219.418C605.165 217.145 602.933 214.369 600.581 212.205C601.982 210.427 603.389 208.693 604.791 207.013C607.659 209.14 610.215 212.123 611.433 213.802C610.648 211.35 608.114 208.314 605.565 206.091C617.177 192.323 628.32 182.337 633.019 181.001C634.558 180.563 636.024 180.575 637.325 181.106Z" fill="#EE7298"/>
<path d="M539.493 155.987V359.592H536.216L434.618 294.045L433.799 96.1753H438.305L539.493 155.987Z" fill="#213375"/>
<path d="M431.341 295.684L433.799 96.1753L536.216 157.626V359.592L431.341 295.684Z" fill="#3E5193"/>
<path d="M518.191 169.916V373.521H514.913L413.315 307.974L412.496 110.104H417.002L518.191 169.916Z" fill="#4F70E4"/>
<path d="M410.038 309.612L412.496 110.104L514.913 171.554V373.521L410.038 309.612Z" fill="#6785EF"/>
<path d="M496.887 184.664V388.269H493.61L392.012 322.722L391.193 124.852H395.699L496.887 184.664Z" fill="#B2C3FF"/>
<path d="M388.735 324.361L391.193 124.852L493.61 186.302V388.269L388.735 324.361Z" fill="#E8EDFF"/>
<path d="M396.928 176.88V143.287L487.465 196.134V231.366L396.928 176.88Z" fill="white" fill-opacity="0.3"/>
<ellipse cx="409.182" cy="168.079" rx="5.93676" ry="10.3112" transform="rotate(-1.59497 409.182 168.079)" fill="white"/>
<path d="M419.87 167.867V165L448.956 182.615V185.483L419.87 167.867Z" fill="#B2C3FF"/>
<path d="M419.87 182.206V179.338L436.256 189.58V192.447L419.87 182.206Z" fill="#B2C3FF"/>
<path d="M419.87 174.832V171.964L457.969 195.315V198.183L419.87 174.832Z" fill="#B2C3FF"/>
<path d="M472.963 204.796L472.307 208.307L475.912 214.979L482.139 204.796L481.811 200.231L475.912 210.765L472.963 204.796Z" fill="#6785EF"/>
<path d="M396.928 217.437V183.844L487.465 236.691V271.923L396.928 217.437Z" fill="white" fill-opacity="0.3"/>
<ellipse cx="409.182" cy="208.636" rx="5.93676" ry="10.3112" transform="rotate(-1.59497 409.182 208.636)" fill="white"/>
<path d="M419.87 208.424V205.557L448.956 223.172V226.04L419.87 208.424Z" fill="#B2C3FF"/>
<path d="M419.87 222.763V219.895L436.256 230.137V233.004L419.87 222.763Z" fill="#B2C3FF"/>
<path d="M419.87 215.389V212.521L457.969 235.872V238.74L419.87 215.389Z" fill="#B2C3FF"/>
<path d="M472.963 245.353L472.307 248.864L475.912 255.536L482.139 245.353L481.811 240.788L475.912 251.322L472.963 245.353Z" fill="#6785EF"/>
<path d="M396.928 259.223V225.63L487.465 278.478V313.709L396.928 259.223Z" fill="white" fill-opacity="0.3"/>
<ellipse cx="409.182" cy="250.422" rx="5.93676" ry="10.3112" transform="rotate(-1.59497 409.182 250.422)" fill="white"/>
<path d="M419.87 250.211V247.343L448.956 264.959V267.826L419.87 250.211Z" fill="#B2C3FF"/>
<path d="M419.87 264.549V261.681L436.256 271.923V274.791L419.87 264.549Z" fill="#B2C3FF"/>
<path d="M419.87 257.175V254.307L457.969 277.658V280.526L419.87 257.175Z" fill="#B2C3FF"/>
<path d="M472.963 287.139L472.307 290.651L475.912 297.322L482.139 287.139L481.811 282.574L475.912 293.109L472.963 287.139Z" fill="#6785EF"/>
<path d="M396.928 301.009V267.417L487.465 320.264V355.495L396.928 301.009Z" fill="white" fill-opacity="0.3"/>
<ellipse cx="409.182" cy="292.208" rx="5.93676" ry="10.3112" transform="rotate(-1.59497 409.182 292.208)" fill="#C4C4C4"/>
<path d="M419.87 291.997V289.129L448.956 306.745V309.612L419.87 291.997Z" fill="#B2C3FF"/>
<path d="M419.87 306.335V303.467L436.256 313.709V316.577L419.87 306.335Z" fill="#B2C3FF"/>
<path d="M419.87 298.961V296.093L457.969 319.444V322.312L419.87 298.961Z" fill="#B2C3FF"/>
<path d="M472.963 328.925L472.307 332.437L475.912 339.109L482.139 328.925L481.811 324.36L475.912 334.895L472.963 328.925Z" fill="#C4C4C4"/>
<ellipse cx="483.96" cy="334.115" rx="18.3015" ry="30.1759" transform="rotate(-1.59497 483.96 334.115)" fill="#EE7298"/>
<ellipse cx="480.79" cy="334.115" rx="18.3015" ry="30.1759" transform="rotate(-1.59497 480.79 334.115)" fill="#F796B3"/>
<path d="M478.223 346.254V320.854L481.091 322.493V347.892L478.223 346.254Z" fill="white"/>
<path d="M471.668 331.505V328.228L488.875 338.88V341.747L471.668 331.505Z" fill="white"/>
<ellipse cx="265.5" cy="434.5" rx="77.5" ry="31.5" fill="#414E7C"/>
<path d="M226.506 343.615C226.507 341.297 227.599 337.606 228.965 333.783V328.867H233.881C233.881 330.505 233.389 334.438 234.7 335.422C236.011 336.405 237.158 346.483 237.158 348.531C237.158 350.579 234.7 347.712 234.7 347.712C234.372 352.955 231.832 352.628 229.784 352.628C226.916 352.628 226.506 346.073 226.506 343.615Z" fill="#FCD8E3"/>
<path d="M359.006 201.581L352.684 207.009L357.2 213.34L361.264 208.365C362.468 207.31 365.238 205.199 366.683 205.199C368.489 205.199 373.456 198.868 375.714 195.249C377.972 191.631 374.359 183.49 373.456 183.038C372.553 182.586 363.522 193.893 363.07 195.249C362.709 196.335 360.21 199.923 359.006 201.581Z" fill="#FCD8E3"/>
<path d="M249.448 377.208L240.026 414.897C239.479 415.853 238.715 418.338 240.026 420.633C241.337 422.927 246.853 421.588 249.448 420.633L266.244 377.208L276.896 343.615L287.137 366.147L282.221 413.258H290.415L306.392 366.147L292.463 313.299C289.049 314.119 279.518 316.167 276.896 317.806C274.274 319.444 262.148 318.489 256.412 317.806L249.448 377.208Z" fill="#293354"/>
<path d="M280.583 421.861L282.221 412.849C286.482 414.16 290.005 412.303 290.824 411.21C292.463 415.143 301.339 419.13 306.392 420.632L305.572 425.139C302.978 425.412 298.444 425.794 294.511 425.139C290.578 424.483 283.314 422.681 280.583 421.861Z" fill="#96888C"/>
<path d="M227.735 299.371L226.916 332.554H236.338L243.712 303.467L256.002 282.165L258.46 295.274C258.46 298.224 256.822 312.07 256.002 318.625C258.051 319.035 264.032 320.018 271.57 320.673C279.108 321.329 290.824 315.484 295.74 312.48C295.74 309.203 293.692 290.358 295.74 287.49C297.789 284.623 297.789 269.875 298.608 263.32C299.263 258.076 319.911 249.118 325.236 245.704L360.468 213.34C360.14 211.046 355.415 206.376 353.094 204.328L348.178 208.015L314.585 229.727L287.547 242.017C286.181 245.841 283.041 251.931 278.125 252.259C273.209 252.587 268.156 249.391 266.654 246.523L243.712 260.862L227.735 299.371Z" fill="#384FAB"/>
<path d="M271.98 235.872C271.98 237.839 271.433 243.383 270.751 244.885C272.799 246.797 277.633 250.456 280.583 249.801C283.532 249.145 284.816 243.246 285.089 240.379C284.106 238.412 284.679 235.189 285.089 233.824C285.417 231.857 288.776 228.908 290.415 227.679C291.234 225.221 286.728 214.569 286.318 213.34C285.908 212.111 285.499 205.147 276.896 203.508C268.293 201.87 263.377 209.244 262.147 212.521C260.918 215.798 262.147 225.221 267.473 230.137C271.734 234.07 271.98 234.916 271.98 235.872Z" fill="#FCD8E3"/>
<path d="M265.834 248.572L269.112 243.656L279.354 246.523L285.089 239.559L287.957 243.656L285.089 251.849L283.041 249.947C282.767 250.171 281.975 250.784 280.992 251.439C280.009 252.095 278.484 252.259 277.844 252.259L277.305 254.307L265.834 248.572Z" fill="#A4B6F5"/>
<path d="M258.46 217.027C259.444 222.271 266.517 229.59 269.931 232.595C268.292 229.645 267.883 222.626 267.883 219.485C267.227 215.88 269.522 211.429 270.751 209.653C273.045 207.687 279.627 207.742 282.631 208.015C284.27 208.015 285.499 205.83 285.908 204.737C287.547 199.412 280.992 197.363 276.486 195.315C271.98 193.267 263.786 201.87 261.328 203.508C258.87 205.147 257.231 210.473 258.46 217.027Z" fill="#3C56C6"/>
<path d="M241.087 449.154C235.873 448.515 234.524 438.606 235.986 433.427C237.448 428.247 238.3 423.894 239.381 419.228C239.75 419.598 241.138 420.418 243.745 420.738C246.353 421.057 248.169 420.631 248.752 420.377C248.222 424.697 249.616 426.816 250.073 433.206C250.531 439.595 247.606 449.954 241.087 449.154Z" fill="#96888C"/>
<ellipse cx="391.5" cy="503.5" rx="77.5" ry="31.5" fill="#414E7C"/>
<path d="M394.962 428.527C392.963 422.253 390.213 406.067 389.439 395.834L414.037 394L414.037 445.564L406.477 495.733C404.892 497.221 403.322 497.152 401.876 496.348C400.856 490.668 396.161 472.257 395.57 466.513C394.98 460.768 398.722 449.506 400.666 444.592C400.725 443.92 396.962 434.8 394.962 428.527Z" fill="#FCD8E3"/>
<path d="M376.518 411.765C375.379 405.875 375.106 390.1 375.698 380.908L396.5 380.908L390 424.968L375.873 470.702C374.114 471.756 372.207 471.203 370.889 470.249C370.637 465.049 370.682 448.718 370.861 443.532C371.04 438.346 376.218 428.995 378.785 424.968C378.932 424.382 377.656 417.655 376.518 411.765Z" fill="#FCD8E3"/>
<path d="M406.969 491.804C404.886 493.039 401.863 491.668 400.611 490.828C399.512 496.704 397.719 508.906 399.336 510.708C401.356 512.961 408.584 512.127 413.883 512.293C418.122 512.425 421.709 511.895 422.449 510.929C422.682 509.411 422.099 508.069 421.778 507.589C420.525 508.044 418.322 506.498 415.529 505.422C410.532 503.497 407.8 495.385 406.969 491.804Z" fill="#E1A7B9"/>
<path d="M377.024 467.531C374.255 469.179 371.915 468.218 371.091 467.531C370.432 473.022 369.212 484.52 369.608 486.579C370.102 489.153 371.091 490.183 375.046 490.183C379.001 490.183 384.934 487.094 384.934 485.549C384.934 484.314 383.945 482.289 383.451 481.431C381.473 482.255 379.99 480.401 379.496 479.372C378.309 478.548 377.353 471.135 377.024 467.531Z" fill="#E1A7B9"/>
<path d="M374.518 372C374.518 363.664 378.595 355.185 381.313 352.467L384.032 350.202C393.545 350.504 415 341.5 411.579 355.638C410.396 360.532 410.975 366.99 411.579 368.5C414 386.13 416 399.5 422 415.5C420.188 418.037 410.637 422.255 402.5 423.5C382.646 426.537 372.002 417.726 367.576 414.063L367.5 414C367.5 414 369.409 406.143 370.5 401C373.664 386.081 374.518 382.42 374.518 372Z" fill="#3C56C6"/>
<path d="M364.757 355.228L364.757 351.561H369.716V355.752C369.716 356.276 370.113 358.057 371.7 360.99C373.287 363.924 371.039 369.198 370.212 371.468C369.419 373.563 367.237 371.642 366.245 370.42C366.245 368.848 363.766 364.134 363.27 362.038C362.873 360.362 364.096 356.8 364.757 355.228Z" fill="#FCD8E3"/>
<path d="M466.094 333.618C464.078 334.022 458.868 337.821 456.516 339.671L458.028 345.219C460.045 344.714 464.884 343.706 468.111 343.706C471.337 343.706 472.816 342.024 473.152 341.184C473.992 338.662 475.37 333.316 474.16 332.105C472.648 330.592 468.615 333.114 466.094 333.618Z" fill="#FCD8E3"/>
<path d="M398.438 294.045C395.817 297.65 394.478 297.596 393.522 297.322V302.648C393.522 303.468 396.8 306.745 401.716 309.613C405.649 311.907 412.094 307.564 414.825 305.106C411.876 303.795 408.68 299.371 411.138 294.045C411.138 294.045 413.596 293.635 414.825 291.177C416.054 288.719 418.594 284.869 420.561 277.658C423.019 268.646 415.235 262.091 408.68 260.862C402.125 259.633 397.784 264.068 395.98 270.284C394.598 275.05 395.121 281.461 398.438 285.442C400.487 287.9 401.06 290.44 398.438 294.045Z" fill="#FCD8E3"/>
<path d="M381.853 340.062C383.445 346.431 378.682 356.477 378.682 356.477C388.649 367.803 407.676 367.369 409.488 364.651C411.3 361.933 411.579 355.957 412.938 347.696C412.938 347.696 417.695 333.893 415.204 328.91C418.828 336.158 428.881 350.202 434.77 353.826C436.383 354.818 460.14 345.219 460.14 345.219C460.502 341.957 458.63 340.688 457.422 338.423L435.05 341.141C435.05 341.141 430.373 333.413 426.529 318.037C424.264 308.976 416.5 312.5 414.384 303.54C413.327 306.107 405.777 309.158 400.34 306.258C394.904 303.359 396.547 301.067 397 298.5C397 298.5 396.5 300.572 390.5 301C386.963 301.252 384.128 300.373 380 303C375.017 306.171 368.073 317.864 365.564 331.001C364.179 338.25 364.917 355.465 364.917 355.465C364.917 355.465 370.807 359.089 370.807 353.2C371.713 350.481 373.265 337.344 373.265 337.344C373.265 337.344 376.243 328.283 381.227 319.676C381.227 326.924 380.041 332.813 381.853 340.062Z" fill="#FFBDD1"/>
<path d="M392.607 272.627C393.96 263.829 401.905 258.245 405.709 256.554C407.54 255.708 412.725 255.2 418.81 259.937C424.896 264.675 423.037 272.909 421.346 276.433C418.641 281.171 417.965 295.326 417.965 301.812C415.26 297.751 415.429 287.995 415.852 283.624C413.739 289.123 415.007 294.621 415.007 298.005C415.007 301.389 419.233 313.655 417.965 314.501C416.951 315.178 413.034 316.757 411.203 317.462L409.513 301.812V318.308C408.245 319.577 401.483 320 399.792 320C398.44 320 399.229 312.668 399.792 309.003L397.679 318.308C392.269 318.646 386.972 313.655 385 311.117C387.958 308.157 390.917 283.624 392.607 272.627Z" fill="#3C56C6"/>
<mask id="mask0" mask-type="alpha" maskUnits="userSpaceOnUse" x="127" y="370" width="77" height="52">
<ellipse rx="18.6593" ry="41.8762" transform="matrix(-0.382131 0.924108 0.894002 0.448064 165.568 395.526)" fill="#F4A0D7"/>
</mask>
<g mask="url(#mask0)">
<ellipse rx="18.6593" ry="41.8762" transform="matrix(-0.382131 0.924108 0.894002 0.448064 160.351 408.143)" fill="#BECCFF"/>
</g>
<mask id="mask1" mask-type="alpha" maskUnits="userSpaceOnUse" x="150" y="343" width="58" height="77">
<ellipse rx="17.8734" ry="43.7911" transform="matrix(-0.763594 0.645697 0.572183 0.820126 178.804 381.455)" fill="#C4C4C4"/>
</mask>
<g mask="url(#mask1)">
<ellipse rx="17.8734" ry="43.7911" transform="matrix(-0.763594 0.645697 0.572183 0.820126 168.817 389.899)" fill="#8FA6F9"/>
</g>
<mask id="mask2" mask-type="alpha" maskUnits="userSpaceOnUse" x="183" y="344" width="32" height="79">
<ellipse rx="14.9385" ry="39.1982" transform="matrix(-0.991057 0.133443 0.110413 0.993886 198.867 383.034)" fill="#8D8D8D"/>
</mask>
<g mask="url(#mask2)">
<ellipse rx="14.9385" ry="39.1982" transform="matrix(-0.991057 0.133443 0.110413 0.993886 188.035 384.492)" fill="#6785EF"/>
</g>
<defs>
<linearGradient id="paint0_linear" x1="569.85" y1="192.399" x2="185.105" y2="265.196" gradientUnits="userSpaceOnUse">
<stop stop-color="#FFBDD1"/>
<stop offset="1" stop-color="#7795FF" stop-opacity="0.58"/>
</linearGradient>
</defs>
</svg>
