<?xml version="1.0" encoding="UTF-8"?>
<svg width="1440px" height="1024px" viewBox="0 0 1440 1024" version="1.1" xmlns="http://www.w3.org/2000/svg" xmlns:xlink="http://www.w3.org/1999/xlink">
    <!-- Generator: Sketch 53.2 (72643) - https://sketchapp.com -->
    <title>Ecommerce</title>
    <desc>Created with Sketch.</desc>
    <defs>
        <linearGradient x1="8.38174197%" y1="31.3864763%" x2="56.5702499%" y2="50%" id="linearGradient-1">
            <stop stop-color="#CFE49F" offset="0%"></stop>
            <stop stop-color="#A9D386" offset="100%"></stop>
        </linearGradient>
        <linearGradient x1="44.725404%" y1="3.88170857%" x2="54.92545%" y2="56.9243345%" id="linearGradient-2">
            <stop stop-color="#77D791" offset="0%"></stop>
            <stop stop-color="#4FA67E" offset="100%"></stop>
        </linearGradient>
        <linearGradient x1="4.76643799%" y1="41.1577799%" x2="100%" y2="60.5739226%" id="linearGradient-3">
            <stop stop-color="#6EAE7C" offset="0%"></stop>
            <stop stop-color="#0F575D" offset="100%"></stop>
        </linearGradient>
        <linearGradient x1="50%" y1="7.26438915%" x2="50%" y2="151.05781%" id="linearGradient-4">
            <stop stop-color="#D0F6FF" offset="0%"></stop>
            <stop stop-color="#8BE2F7" offset="100%"></stop>
        </linearGradient>
        <linearGradient x1="50%" y1="7.26438915%" x2="50%" y2="151.05781%" id="linearGradient-5">
            <stop stop-color="#D0F6FF" offset="0%"></stop>
            <stop stop-color="#8BE2F7" offset="100%"></stop>
        </linearGradient>
        <linearGradient x1="50%" y1="7.26438915%" x2="50%" y2="100%" id="linearGradient-6">
            <stop stop-color="#55D0FF" offset="0%"></stop>
            <stop stop-color="#32A2FE" offset="100%"></stop>
        </linearGradient>
        <linearGradient x1="50%" y1="0%" x2="50%" y2="100%" id="linearGradient-7">
            <stop stop-color="#FF9485" offset="0%"></stop>
            <stop stop-color="#FF676E" offset="100%"></stop>
        </linearGradient>
        <linearGradient x1="50%" y1="0%" x2="50%" y2="100%" id="linearGradient-8">
            <stop stop-color="#FF9485" offset="0%"></stop>
            <stop stop-color="#FF676E" offset="100%"></stop>
        </linearGradient>
        <linearGradient x1="50%" y1="114.0151%" x2="50.353888%" y2="25.9019529%" id="linearGradient-9">
            <stop stop-color="#2B3389" offset="0%"></stop>
            <stop stop-color="#444FB7" offset="100%"></stop>
        </linearGradient>
        <linearGradient x1="50%" y1="0%" x2="50%" y2="91.8482298%" id="linearGradient-10">
            <stop stop-color="#EAFCFF" offset="0%"></stop>
            <stop stop-color="#FFFFFF" offset="100%"></stop>
        </linearGradient>
        <linearGradient x1="50%" y1="0%" x2="50%" y2="100%" id="linearGradient-11">
            <stop stop-color="#FF9485" offset="0%"></stop>
            <stop stop-color="#FF676E" offset="100%"></stop>
        </linearGradient>
        <linearGradient x1="50%" y1="0%" x2="50%" y2="69.6197333%" id="linearGradient-12">
            <stop stop-color="#4DBCFA" offset="0%"></stop>
            <stop stop-color="#1486DB" offset="100%"></stop>
        </linearGradient>
        <linearGradient x1="50%" y1="0%" x2="50%" y2="69.6197333%" id="linearGradient-13">
            <stop stop-color="#4DBCFA" offset="0%"></stop>
            <stop stop-color="#1486DB" offset="100%"></stop>
        </linearGradient>
        <linearGradient x1="50%" y1="-2.48949813e-15%" x2="50%" y2="100%" id="linearGradient-14">
            <stop stop-color="#4DBCFA" offset="0%"></stop>
            <stop stop-color="#1486DB" offset="100%"></stop>
        </linearGradient>
        <linearGradient x1="50%" y1="49.27956%" x2="100%" y2="50.5672434%" id="linearGradient-15">
            <stop stop-color="#0F1752" offset="0%"></stop>
            <stop stop-color="#272884" offset="100%"></stop>
        </linearGradient>
        <linearGradient x1="50%" y1="0%" x2="50%" y2="100%" id="linearGradient-16">
            <stop stop-color="#052569" offset="0%"></stop>
            <stop stop-color="#021038" offset="100%"></stop>
        </linearGradient>
        <linearGradient x1="50%" y1="0%" x2="50%" y2="100%" id="linearGradient-17">
            <stop stop-color="#CD8E7C" offset="0%"></stop>
            <stop stop-color="#E6B18C" offset="100%"></stop>
        </linearGradient>
        <linearGradient x1="50%" y1="0%" x2="58.4207805%" y2="89.3678428%" id="linearGradient-18">
            <stop stop-color="#0F1752" offset="0%"></stop>
            <stop stop-color="#272884" offset="100%"></stop>
        </linearGradient>
        <linearGradient x1="50%" y1="0%" x2="50%" y2="100%" id="linearGradient-19">
            <stop stop-color="#CD8E7C" offset="0%"></stop>
            <stop stop-color="#E6B18C" offset="100%"></stop>
        </linearGradient>
        <linearGradient x1="50%" y1="0%" x2="50%" y2="100%" id="linearGradient-20">
            <stop stop-color="#CD8E7C" offset="0%"></stop>
            <stop stop-color="#E6B18C" offset="100%"></stop>
        </linearGradient>
        <linearGradient x1="50%" y1="0%" x2="50%" y2="100%" id="linearGradient-21">
            <stop stop-color="#FF9485" offset="0%"></stop>
            <stop stop-color="#FF676E" offset="100%"></stop>
        </linearGradient>
        <linearGradient x1="50%" y1="0%" x2="50%" y2="100%" id="linearGradient-22">
            <stop stop-color="#FFFFFF" offset="0%"></stop>
            <stop stop-color="#A587FF" offset="100%"></stop>
        </linearGradient>
        <linearGradient x1="50%" y1="0%" x2="50%" y2="100%" id="linearGradient-23">
            <stop stop-color="#48137B" offset="0%"></stop>
            <stop stop-color="#300C59" offset="100%"></stop>
        </linearGradient>
        <linearGradient x1="50%" y1="0%" x2="50%" y2="100%" id="linearGradient-24">
            <stop stop-color="#48137B" offset="0%"></stop>
            <stop stop-color="#300C59" offset="100%"></stop>
        </linearGradient>
    </defs>
    <g id="Ecommerce" stroke="none" stroke-width="1" fill="none" fill-rule="evenodd">
        <rect fill="#FFFFFF" x="0" y="0" width="1440" height="1024"></rect>
        <g id="Plant" transform="translate(179.000000, 612.000000)">
            <path d="M174.677566,164.85314 C125.275429,187.07243 85.779381,186.791051 56.1894216,164.009006 C26.5994621,141.226961 7.8696549,108.785983 -2.84217094e-14,66.686073 C92.4931343,39.0261602 150.71899,71.748516 174.677566,164.85314 Z" id="Shape" fill="url(#linearGradient-1)"></path>
            <path d="M101.975705,124.886095 C101.859322,124.847224 101.750177,124.78719 101.655756,124.705228 C90.9893131,118.675724 79.128833,111.994206 66.0744644,104.660761 L35.7926984,111.885952 C35.2554933,112.014128 34.7160951,111.682545 34.5879186,111.14534 C34.4597422,110.608135 34.7913254,110.068737 35.3285304,109.94056 L63.5051462,103.217655 C47.2123941,94.068028 29.1035512,83.9267193 9.1788962,72.7938934 C8.69676696,72.5245055 8.52430603,71.9152805 8.79369392,71.4331513 C9.06308182,70.951022 9.67230683,70.7785611 10.1544361,71.047949 C46.5345912,91.3752236 76.8610795,108.396877 101.135598,122.113908 L98.0033914,91.4177773 C97.8680421,90.0913315 99.8577107,89.8883075 99.99306,91.2147532 L103.269027,123.319766 C135.633053,141.617214 156.915692,153.863777 167.121146,160.061927 C167.593192,160.348618 167.743452,160.963695 167.456761,161.435741 C167.17007,161.907786 166.554993,162.058046 166.082948,161.771355 C159.976428,158.06264 149.887787,152.179389 135.817931,144.122137 C135.780903,144.141197 135.742273,144.158157 135.702136,144.172815 L108.028539,154.278986 C107.509765,154.468438 106.935635,154.20147 106.746183,153.682696 C106.556731,153.163922 106.823699,152.589792 107.342473,152.40034 L133.555648,142.827502 C124.56243,137.684381 114.03571,131.70387 101.975705,124.886095 L101.975705,124.886095 Z" id="Shape" fill="#FFFFFF" fill-rule="nonzero"></path>
            <path d="M163.883186,192.93029 C113.23919,173.709114 85.5102307,145.582227 80.6963085,108.549627 C75.8823864,71.5170271 85.577648,35.3338181 109.782093,-5.68434189e-14 C194.743128,45.8440106 212.776825,110.154107 163.883186,192.93029 Z" id="Shape" fill="url(#linearGradient-2)" fill-rule="nonzero"></path>
            <path d="M142.758255,113.068298 C152.704827,148.89137 159.094298,172.600095 161.92789,184.199196 C162.058955,184.735703 161.73028,185.276878 161.193772,185.407944 C160.657265,185.539009 160.11609,185.210334 159.985024,184.673826 C158.289521,177.733407 155.315861,166.439575 151.064307,150.793346 C151.024648,150.78064 150.985339,150.765318 150.946593,150.747301 L124.232263,138.325256 C123.731472,138.09239 123.514275,137.497643 123.747141,136.996852 C123.980007,136.496061 124.574753,136.278864 125.075545,136.51173 L150.380076,148.278225 C147.657647,138.282324 144.442992,126.609949 140.736176,113.261343 C140.681367,113.151562 140.64664,113.031934 140.63783,112.907212 C137.359019,101.101395 133.69694,87.9902222 129.651636,73.5738611 L103.130212,57.2704006 C102.659716,56.9811737 102.512769,56.3652968 102.801996,55.8948011 C103.091223,55.4243053 103.7071,55.2773579 104.177595,55.5665848 L128.855283,70.7366492 C123.804331,52.7461701 118.170434,32.7702963 111.953672,10.809341 C111.803241,10.2779381 112.11208,9.72520267 112.643483,9.57477183 C113.174886,9.42434098 113.727621,9.73317982 113.878052,10.2645827 C125.229153,50.3627908 134.637092,83.8429829 142.102362,110.707065 L161.593,86.7868184 C162.435233,85.7531732 163.9857,87.0165217 163.143468,88.0501669 L142.758255,113.068298 Z" id="Shape" fill="#FFFFFF" fill-rule="nonzero"></path>
            <path d="M214.175686,227.324394 C172.207661,261.572793 133.984582,271.523332 99.5064492,257.176011 C65.0283159,242.82869 38.5403686,216.340743 20.0426072,177.712169 C102.225202,127.05576 166.936228,143.593169 214.175686,227.324394 Z" id="Shape" fill="url(#linearGradient-3)"></path>
            <path d="M134.450706,205.688125 C170.447682,214.985676 194.174776,221.306595 205.636688,224.652183 C206.16685,224.80693 206.471183,225.362159 206.316436,225.892321 C206.161688,226.422483 205.606459,226.726816 205.076298,226.572069 C198.217966,224.570208 186.950391,221.498557 171.274583,217.357396 C171.243749,217.38539 171.210825,217.41177 171.17585,217.436317 L147.060877,234.360583 C146.608814,234.677848 145.98515,234.568573 145.667885,234.116509 C145.35062,233.664446 145.459895,233.040782 145.911959,232.723517 L168.754309,216.692397 C158.736389,214.05214 147.020489,210.999925 133.606848,207.535819 C133.484371,207.528394 133.363407,207.498655 133.250989,207.443924 C121.387446,204.380548 108.201798,200.996415 93.6942112,197.291571 L66.3142884,212.108067 C65.8285627,212.370915 65.2217239,212.190237 64.9588761,211.704511 C64.6960283,211.218786 64.8767065,210.611947 65.3624322,210.349099 L90.8389372,196.562627 C72.7332494,191.94164 52.6166865,186.832801 30.4895603,181.236197 C29.9541365,181.100773 29.629873,180.556943 29.7652975,180.021519 C29.900722,179.486095 30.444552,179.161832 30.9799758,179.297256 C71.381593,189.516019 105.080259,198.108601 132.077872,205.075527 L121.10765,176.236017 C120.633603,174.9898 122.502929,174.278729 122.976976,175.524946 L134.450706,205.688125 Z" id="Shape" fill="#FFFFFF" fill-rule="nonzero"></path>
        </g>
        <g id="Ornament" transform="translate(224.000000, 96.000000)">
            <polygon id="Shape" fill="url(#linearGradient-4)" points="710.939747 132.061711 1040.9932 132.061711 1040.9932 451.41094 710.939747 451.41094"></polygon>
            <path d="M-5.68434189e-14,0 L382.702703,0 C382.702703,106.038672 297.031785,192 191.351351,192 C85.6709181,192 0,106.038672 -5.68434189e-14,0 Z" id="Shape" fill="url(#linearGradient-5)"></path>
            <path d="M23.4675461,497.341567 C23.4675461,499.728446 21.5332977,501.663394 19.1472813,501.663394 C16.761265,501.663394 14.8270165,499.728446 14.8270165,497.341567 C14.8270165,494.954687 16.761265,493.019739 19.1472813,493.019739 C21.5332977,493.019739 23.4675461,494.954687 23.4675461,497.341567 Z M23.4675461,471.937619 C23.4675461,474.324498 21.5332977,476.259446 19.1472813,476.259446 C16.761265,476.259446 14.8270165,474.324498 14.8270165,471.937619 C14.8270165,469.55074 16.761265,467.615792 19.1472813,467.615792 C21.5332977,467.615792 23.4675461,469.55074 23.4675461,471.937619 Z M23.4675461,446.533671 C23.4675461,448.92055 21.5332977,450.855498 19.1472813,450.855498 C16.761265,450.855498 14.8270165,448.92055 14.8270165,446.533671 C14.8270165,444.146792 16.761265,442.211844 19.1472813,442.211844 C21.5332977,442.211844 23.4675461,444.146792 23.4675461,446.533671 Z M23.4675461,421.129723 C23.4675461,423.516602 21.5332977,425.45155 19.1472813,425.45155 C16.761265,425.45155 14.8270165,423.516602 14.8270165,421.129723 C14.8270165,418.742844 16.761265,416.807896 19.1472813,416.807896 C21.5332977,416.807896 23.4675461,418.742844 23.4675461,421.129723 Z M23.4675461,395.725775 C23.4675461,398.112655 21.5332977,400.047603 19.1472813,400.047603 C16.761265,400.047603 14.8270165,398.112655 14.8270165,395.725775 C14.8270165,393.338896 16.761265,391.403948 19.1472813,391.403948 C21.5332977,391.403948 23.4675461,393.338896 23.4675461,395.725775 Z M23.4675461,370.321827 C23.4675461,372.708707 21.5332977,374.643655 19.1472813,374.643655 C16.761265,374.643655 14.8270165,372.708707 14.8270165,370.321827 C14.8270165,367.934948 16.761265,366 19.1472813,366 C21.5332977,366 23.4675461,367.934948 23.4675461,370.321827 Z M48.8638328,497.341567 C48.8638328,499.728446 46.9295844,501.663394 44.543568,501.663394 C42.1575517,501.663394 40.2233032,499.728446 40.2233032,497.341567 C40.2233032,494.954687 42.1575517,493.019739 44.543568,493.019739 C46.9295844,493.019739 48.8638328,494.954687 48.8638328,497.341567 Z M48.8638328,471.937619 C48.8638328,474.324498 46.9295844,476.259446 44.543568,476.259446 C42.1575517,476.259446 40.2233032,474.324498 40.2233032,471.937619 C40.2233032,469.55074 42.1575517,467.615792 44.543568,467.615792 C46.9295844,467.615792 48.8638328,469.55074 48.8638328,471.937619 Z M48.8638328,446.533671 C48.8638328,448.92055 46.9295844,450.855498 44.543568,450.855498 C42.1575517,450.855498 40.2233032,448.92055 40.2233032,446.533671 C40.2233032,444.146792 42.1575517,442.211844 44.543568,442.211844 C46.9295844,442.211844 48.8638328,444.146792 48.8638328,446.533671 Z M48.8638328,421.129723 C48.8638328,423.516602 46.9295844,425.45155 44.543568,425.45155 C42.1575517,425.45155 40.2233032,423.516602 40.2233032,421.129723 C40.2233032,418.742844 42.1575517,416.807896 44.543568,416.807896 C46.9295844,416.807896 48.8638328,418.742844 48.8638328,421.129723 Z M48.8638328,395.725775 C48.8638328,398.112655 46.9295844,400.047603 44.543568,400.047603 C42.1575517,400.047603 40.2233032,398.112655 40.2233032,395.725775 C40.2233032,393.338896 42.1575517,391.403948 44.543568,391.403948 C46.9295844,391.403948 48.8638328,393.338896 48.8638328,395.725775 Z M48.8638328,370.321827 C48.8638328,372.708707 46.9295844,374.643655 44.543568,374.643655 C42.1575517,374.643655 40.2233032,372.708707 40.2233032,370.321827 C40.2233032,367.934948 42.1575517,366 44.543568,366 C46.9295844,366 48.8638328,367.934948 48.8638328,370.321827 Z M74.2601195,497.341567 C74.2601195,499.728446 72.3258711,501.663394 69.9398547,501.663394 C67.5538383,501.663394 65.6195899,499.728446 65.6195899,497.341567 C65.6195899,494.954687 67.5538383,493.019739 69.9398547,493.019739 C72.3258711,493.019739 74.2601195,494.954687 74.2601195,497.341567 Z M74.2601195,471.937619 C74.2601195,474.324498 72.3258711,476.259446 69.9398547,476.259446 C67.5538383,476.259446 65.6195899,474.324498 65.6195899,471.937619 C65.6195899,469.55074 67.5538383,467.615792 69.9398547,467.615792 C72.3258711,467.615792 74.2601195,469.55074 74.2601195,471.937619 Z M74.2601195,446.533671 C74.2601195,448.92055 72.3258711,450.855498 69.9398547,450.855498 C67.5538383,450.855498 65.6195899,448.92055 65.6195899,446.533671 C65.6195899,444.146792 67.5538383,442.211844 69.9398547,442.211844 C72.3258711,442.211844 74.2601195,444.146792 74.2601195,446.533671 Z M74.2601195,421.129723 C74.2601195,423.516602 72.3258711,425.45155 69.9398547,425.45155 C67.5538383,425.45155 65.6195899,423.516602 65.6195899,421.129723 C65.6195899,418.742844 67.5538383,416.807896 69.9398547,416.807896 C72.3258711,416.807896 74.2601195,418.742844 74.2601195,421.129723 Z M74.2601195,395.725775 C74.2601195,398.112655 72.3258711,400.047603 69.9398547,400.047603 C67.5538383,400.047603 65.6195899,398.112655 65.6195899,395.725775 C65.6195899,393.338896 67.5538383,391.403948 69.9398547,391.403948 C72.3258711,391.403948 74.2601195,393.338896 74.2601195,395.725775 Z M74.2601195,370.321827 C74.2601195,372.708707 72.3258711,374.643655 69.9398547,374.643655 C67.5538383,374.643655 65.6195899,372.708707 65.6195899,370.321827 C65.6195899,367.934948 67.5538383,366 69.9398547,366 C72.3258711,366 74.2601195,367.934948 74.2601195,370.321827 Z M99.6564062,497.341567 C99.6564062,499.728446 97.7221578,501.663394 95.3361414,501.663394 C92.950125,501.663394 91.0158766,499.728446 91.0158766,497.341567 C91.0158766,494.954687 92.950125,493.019739 95.3361414,493.019739 C97.7221578,493.019739 99.6564062,494.954687 99.6564062,497.341567 Z M99.6564062,471.937619 C99.6564062,474.324498 97.7221578,476.259446 95.3361414,476.259446 C92.950125,476.259446 91.0158766,474.324498 91.0158766,471.937619 C91.0158766,469.55074 92.950125,467.615792 95.3361414,467.615792 C97.7221578,467.615792 99.6564062,469.55074 99.6564062,471.937619 Z M99.6564062,446.533671 C99.6564062,448.92055 97.7221578,450.855498 95.3361414,450.855498 C92.950125,450.855498 91.0158766,448.92055 91.0158766,446.533671 C91.0158766,444.146792 92.950125,442.211844 95.3361414,442.211844 C97.7221578,442.211844 99.6564062,444.146792 99.6564062,446.533671 Z M99.6564062,421.129723 C99.6564062,423.516602 97.7221578,425.45155 95.3361414,425.45155 C92.950125,425.45155 91.0158766,423.516602 91.0158766,421.129723 C91.0158766,418.742844 92.950125,416.807896 95.3361414,416.807896 C97.7221578,416.807896 99.6564062,418.742844 99.6564062,421.129723 Z M99.6564062,395.725775 C99.6564062,398.112655 97.7221578,400.047603 95.3361414,400.047603 C92.950125,400.047603 91.0158766,398.112655 91.0158766,395.725775 C91.0158766,393.338896 92.950125,391.403948 95.3361414,391.403948 C97.7221578,391.403948 99.6564062,393.338896 99.6564062,395.725775 Z M99.6564062,370.321827 C99.6564062,372.708707 97.7221578,374.643655 95.3361414,374.643655 C92.950125,374.643655 91.0158766,372.708707 91.0158766,370.321827 C91.0158766,367.934948 92.950125,366 95.3361414,366 C97.7221578,366 99.6564062,367.934948 99.6564062,370.321827 Z M125.052693,497.341567 C125.052693,499.728446 123.118444,501.663394 120.732428,501.663394 C118.346412,501.663394 116.412163,499.728446 116.412163,497.341567 C116.412163,494.954687 118.346412,493.019739 120.732428,493.019739 C123.118444,493.019739 125.052693,494.954687 125.052693,497.341567 Z M125.052693,471.937619 C125.052693,474.324498 123.118444,476.259446 120.732428,476.259446 C118.346412,476.259446 116.412163,474.324498 116.412163,471.937619 C116.412163,469.55074 118.346412,467.615792 120.732428,467.615792 C123.118444,467.615792 125.052693,469.55074 125.052693,471.937619 Z M125.052693,446.533671 C125.052693,448.92055 123.118444,450.855498 120.732428,450.855498 C118.346412,450.855498 116.412163,448.92055 116.412163,446.533671 C116.412163,444.146792 118.346412,442.211844 120.732428,442.211844 C123.118444,442.211844 125.052693,444.146792 125.052693,446.533671 Z M125.052693,421.129723 C125.052693,423.516602 123.118444,425.45155 120.732428,425.45155 C118.346412,425.45155 116.412163,423.516602 116.412163,421.129723 C116.412163,418.742844 118.346412,416.807896 120.732428,416.807896 C123.118444,416.807896 125.052693,418.742844 125.052693,421.129723 Z M125.052693,395.725775 C125.052693,398.112655 123.118444,400.047603 120.732428,400.047603 C118.346412,400.047603 116.412163,398.112655 116.412163,395.725775 C116.412163,393.338896 118.346412,391.403948 120.732428,391.403948 C123.118444,391.403948 125.052693,393.338896 125.052693,395.725775 Z M125.052693,370.321827 C125.052693,372.708707 123.118444,374.643655 120.732428,374.643655 C118.346412,374.643655 116.412163,372.708707 116.412163,370.321827 C116.412163,367.934948 118.346412,366 120.732428,366 C123.118444,366 125.052693,367.934948 125.052693,370.321827 Z M150.44898,497.341567 C150.44898,499.728446 148.514731,501.663394 146.128715,501.663394 C143.742698,501.663394 141.80845,499.728446 141.80845,497.341567 C141.80845,494.954687 143.742698,493.019739 146.128715,493.019739 C148.514731,493.019739 150.44898,494.954687 150.44898,497.341567 Z M150.44898,471.937619 C150.44898,474.324498 148.514731,476.259446 146.128715,476.259446 C143.742698,476.259446 141.80845,474.324498 141.80845,471.937619 C141.80845,469.55074 143.742698,467.615792 146.128715,467.615792 C148.514731,467.615792 150.44898,469.55074 150.44898,471.937619 Z M150.44898,446.533671 C150.44898,448.92055 148.514731,450.855498 146.128715,450.855498 C143.742698,450.855498 141.80845,448.92055 141.80845,446.533671 C141.80845,444.146792 143.742698,442.211844 146.128715,442.211844 C148.514731,442.211844 150.44898,444.146792 150.44898,446.533671 Z M150.44898,421.129723 C150.44898,423.516602 148.514731,425.45155 146.128715,425.45155 C143.742698,425.45155 141.80845,423.516602 141.80845,421.129723 C141.80845,418.742844 143.742698,416.807896 146.128715,416.807896 C148.514731,416.807896 150.44898,418.742844 150.44898,421.129723 Z M150.44898,395.725775 C150.44898,398.112655 148.514731,400.047603 146.128715,400.047603 C143.742698,400.047603 141.80845,398.112655 141.80845,395.725775 C141.80845,393.338896 143.742698,391.403948 146.128715,391.403948 C148.514731,391.403948 150.44898,393.338896 150.44898,395.725775 Z M150.44898,370.321827 C150.44898,372.708707 148.514731,374.643655 146.128715,374.643655 C143.742698,374.643655 141.80845,372.708707 141.80845,370.321827 C141.80845,367.934948 143.742698,366 146.128715,366 C148.514731,366 150.44898,367.934948 150.44898,370.321827 Z" id="Shape" fill="#8BE1F7"></path>
            <path d="M241.231293,587 C134.512596,587 48,673.539025 48,780.290323 L302.75983,780.290323 L241.231293,587 Z" id="Shape" fill="url(#linearGradient-6)"></path>
        </g>
        <g id="Data" transform="translate(768.000000, 150.000000)">
            <path d="M239,0 L383.003897,0 C410.618134,-7.10542736e-15 433.003897,22.3857625 433.003897,50 L433.003897,108 L289,108 C261.385763,108 239,85.6142375 239,58 L239,0 Z" id="Shape" fill="url(#linearGradient-7)"></path>
            <path d="M292.960155,61.2538569 C287.657363,61.2538569 283.358601,56.9537812 283.358601,51.6493689 C283.358601,46.3449566 287.657363,42.0448808 292.960155,42.0448808 C298.262948,42.0448808 302.56171,46.3449566 302.56171,51.6493689 C302.56171,56.9537812 298.262948,61.2538569 292.960155,61.2538569 Z M336.167153,61.2538569 C330.86436,61.2538569 326.565598,56.9537812 326.565598,51.6493689 C326.565598,46.3449566 330.86436,42.0448808 336.167153,42.0448808 C341.469945,42.0448808 345.768707,46.3449566 345.768707,51.6493689 C345.768707,56.9537812 341.469945,61.2538569 336.167153,61.2538569 Z M379.37415,61.2538569 C374.071357,61.2538569 369.772595,56.9537812 369.772595,51.6493689 C369.772595,46.3449566 374.071357,42.0448808 379.37415,42.0448808 C384.676942,42.0448808 388.975705,46.3449566 388.975705,51.6493689 C388.975705,56.9537812 384.676942,61.2538569 379.37415,61.2538569 Z" id="Shape" fill="#FFFFFF"></path>
            <path d="M395,173 L499.023324,173 C521.114714,173 539.023324,190.90861 539.023324,213 L539.023324,253.176322 L435,253.176322 C412.90861,253.176322 395,235.267712 395,213.176322 L395,173 Z" id="Shape" fill="url(#linearGradient-8)"></path>
            <path d="M175.341108,540.659187 C79.0078895,540.659187 0.919339164,462.546781 0.919339164,366.196353 C0.919339164,269.845926 79.0078895,191.73352 175.341108,191.73352 C271.674326,191.73352 349.762877,269.845926 349.762877,366.196353 C349.762877,462.546781 271.674326,540.659187 175.341108,540.659187 Z M175.341108,460.659187 C227.486075,460.659187 269.762877,418.36947 269.762877,366.196353 C269.762877,314.023237 227.486075,271.73352 175.341108,271.73352 C123.19614,271.73352 80.9193392,314.023237 80.9193392,366.196353 C80.9193392,418.36947 123.19614,460.659187 175.341108,460.659187 Z" id="Shape" fill="#FFFFFF" fill-rule="nonzero"></path>
            <path d="M434,218 C430.134007,218 427,214.865993 427,211 C427,207.134007 430.134007,204 434,204 C437.865993,204 441,207.134007 441,211 C441,214.865993 437.865993,218 434,218 Z M467,218 C463.134007,218 460,214.865993 460,211 C460,207.134007 463.134007,204 467,204 C470.865993,204 474,207.134007 474,211 C474,214.865993 470.865993,218 467,218 Z M500,218 C496.134007,218 493,214.865993 493,211 C493,207.134007 496.134007,204 500,204 C503.865993,204 507,207.134007 507,211 C507,214.865993 503.865993,218 500,218 Z" id="Shape" fill="#FFFFFF"></path>
        </g>
        <g id="Smartphone" transform="translate(463.263362, 96.000000)">
            <path d="M36,0 L444.077745,0 C463.959996,2.84217094e-14 480.077745,16.117749 480.077745,36 L480.077745,744.364656 C480.077745,764.246907 463.959996,780.364656 444.077745,780.364656 L36,780.364656 C16.117749,780.364656 0,764.246907 0,744.364656 L0,36 C0,16.117749 16.117749,0 36,0 Z" id="Shape" fill="url(#linearGradient-9)"></path>
            <path d="M460.077745,696.325386 L20,696.325386 L20,48.0224404 L460.077745,48.0224404 L460.077745,696.325386 Z M424.077745,780.364656 L56,780.364656 L424.077745,780.364656 L424.077745,780.364656 Z" id="Shape" fill="url(#linearGradient-10)"></path>
            <path d="M398.465306,84.0392707 C401.116273,84.0392707 403.265306,86.1883039 403.265306,88.8392707 L403.265306,103.250491 C403.265306,105.901458 401.116273,108.050491 398.465306,108.050491 L324.051701,108.050491 C321.400734,108.050491 319.251701,105.901458 319.251701,103.250491 L319.251701,88.8392707 C319.251701,86.1883039 321.400734,84.0392707 324.051701,84.0392707 L398.465306,84.0392707 Z M434.471137,132.061711 C437.122104,132.061711 439.271137,134.210744 439.271137,136.861711 L439.271137,151.272931 C439.271137,153.923898 437.122104,156.072931 434.471137,156.072931 L324.051701,156.072931 C321.400734,156.072931 319.251701,153.923898 319.251701,151.272931 L319.251701,136.861711 C319.251701,134.210744 321.400734,132.061711 324.051701,132.061711 L434.471137,132.061711 Z" id="Shape" fill="#8FC8F0"></path>
            <path d="M48.5366375,84 L270.977454,84 C273.628421,84 275.777454,86.1490332 275.777454,88.8 L275.777454,247.278541 C275.777454,249.929508 273.628421,252.078541 270.977454,252.078541 L48.5366375,252.078541 C45.8856707,252.078541 43.7366375,249.929508 43.7366375,247.278541 L43.7366375,88.8 C43.7366375,86.1490332 45.8856707,84 48.5366375,84 Z" id="Shape" fill="url(#linearGradient-11)"></path>
            <path d="M177.307278,134.021534 L177.590716,130 L173.59486,130 C172.6244,136.784588 166.789581,142 159.736638,142 C152.683694,142 146.848875,136.784588 145.878415,130 L141.706604,130 L141.627342,135.238221 C141.490478,144.283271 138.748519,153.092412 133.736638,160.612584 L133.736638,204 C133.736638,205.104569 134.632068,206 135.736638,206 L183.736638,206 C184.841207,206 185.736638,205.104569 185.736638,204 L185.736638,160.720536 C179.646557,153.220405 176.626737,143.677317 177.307278,134.021534 Z M189.736638,160 L189.736638,204 C189.736638,207.313708 187.050346,210 183.736638,210 L135.736638,210 C132.422929,210 129.736638,207.313708 129.736638,204 L129.736638,160 C129.736638,159.59618 129.858879,159.201818 130.08728,158.868797 C134.876712,151.885541 137.499684,143.644585 137.6278,135.177702 L137.736866,127.969741 C137.7534,126.877095 138.643867,126 139.736638,126 L147.736638,126 C148.841207,126 149.736638,126.895431 149.736638,128 C149.736638,133.522847 154.21379,138 159.736638,138 C165.259485,138 169.736638,133.522847 169.736638,128 C169.736638,126.895431 170.632068,126 171.736638,126 L179.736638,126 C180.896574,126 181.813239,126.983546 181.731688,128.140611 L181.29738,134.302757 C180.672734,143.165477 183.531184,151.922119 189.264494,158.709398 C189.569376,159.070327 189.736638,159.527536 189.736638,160 Z" id="Shape" fill="#FFFFFF" fill-rule="nonzero"></path>
            <path d="M48.5366375,300 L270.977454,300 C273.628421,300 275.777454,302.149033 275.777454,304.8 L275.777454,463.278541 C275.777454,465.929508 273.628421,468.078541 270.977454,468.078541 L48.5366375,468.078541 C45.8856707,468.078541 43.7366375,465.929508 43.7366375,463.278541 L43.7366375,304.8 C43.7366375,302.149033 45.8856707,300 48.5366375,300 Z" id="Shape" fill="url(#linearGradient-12)"></path>
            <path d="M180.736638,355.751329 C181.678434,356.222043 182.508285,356.946699 183.113685,357.899967 L186.226374,362.80124 C188.071241,365.706187 188.292849,369.355637 186.813038,372.46247 L181.572452,383.464979 C179.056109,388.747992 178.748166,394.815828 180.716733,400.32645 L186.883704,417.589699 C187.99847,420.71027 186.372443,424.143689 183.251872,425.258454 C182.604073,425.489868 181.921304,425.608161 181.233411,425.608161 L139.239864,425.608161 C135.926155,425.608161 133.239864,422.921869 133.239864,419.608161 C133.239864,418.920268 133.358157,418.237498 133.589571,417.589699 L139.756543,400.32645 C141.725109,394.815828 141.417166,388.747992 138.900823,383.464979 L133.660237,372.46247 C132.180426,369.355637 132.402034,365.706187 134.246901,362.80124 L137.35959,357.899967 C138.171823,356.621017 139.388074,355.753573 140.736638,355.358807 L140.736638,345 C140.736638,343.895431 141.632068,343 142.736638,343 C143.841207,343 144.736638,343.895431 144.736638,345 L144.736638,355.578963 C145.039226,355.705726 145.335416,355.859069 145.622166,356.039677 L160.236638,365.244516 L174.851109,356.039677 C175.44787,355.663811 176.085515,355.40603 176.736638,355.260163 L176.736638,345 C176.736638,343.895431 177.632068,343 178.736638,343 C179.841207,343 180.736638,343.895431 180.736638,345 L180.736638,355.751329 L180.736638,355.751329 Z M183.201762,370.742388 C184.089648,368.878289 183.956683,366.688619 182.849763,364.945651 L179.737074,360.044378 C179.146476,359.114416 177.915045,358.837164 176.982882,359.424281 L161.302524,369.300463 C160.65115,369.710727 159.822125,369.710727 159.170751,369.300463 L143.490393,359.424281 C142.55823,358.837164 141.326799,359.114416 140.736201,360.044378 L137.623512,364.945651 C136.516592,366.688619 136.383627,368.878289 137.271514,370.742388 L142.5121,381.744898 C145.48596,387.988459 145.849892,395.159537 143.523405,401.672091 L137.356433,418.93534 C137.279295,419.151273 137.239864,419.378863 137.239864,419.608161 C137.239864,420.71273 138.135294,421.608161 139.239864,421.608161 L181.233411,421.608161 C181.462709,421.608161 181.690299,421.56873 181.906232,421.491592 C182.946422,421.120003 183.488431,419.97553 183.116842,418.93534 L176.94987,401.672091 C174.623383,395.159537 174.987315,387.988459 177.961175,381.744898 L183.201762,370.742388 Z" id="Shape" fill="#FFFFFF" fill-rule="nonzero"></path>
            <path d="M48.8038873,516.241234 L271.244704,516.241234 C273.89567,516.241234 276.044704,518.390267 276.044704,521.041234 L276.044704,655.508555 C276.044704,658.159522 273.89567,660.308555 271.244704,660.308555 L48.8038873,660.308555 C46.1529205,660.308555 44.0038873,658.159522 44.0038873,655.508555 L44.0038873,521.041234 C44.0038873,518.390267 46.1529205,516.241234 48.8038873,516.241234 Z" id="Shape" fill="url(#linearGradient-13)"></path>
            <path d="M189.122407,615.763225 L198.622763,612.59644 L194.775177,562.57782 C191.112339,555.989223 183.86621,552.45125 174.589013,552.040452 C173.601192,558.805308 167.775558,564 160.736638,564 C153.69746,564 147.871656,558.804927 146.884153,552.039708 C137.509713,552.447085 130.196101,555.986819 126.699586,562.558473 L122.850512,612.59644 L132.346396,615.761734 L136.212714,602.859987 C137.19436,599.584274 137.398872,596.124825 136.810015,592.756269 L133.591439,574.344397 C133.401234,573.256327 134.129097,572.220081 135.217167,572.029875 C136.305236,571.83967 137.341483,572.567533 137.531688,573.655603 L140.750264,592.067474 C141.446186,596.048495 141.204489,600.136936 140.044363,604.008232 L134.824748,621.425877 C134.768929,621.612142 134.740572,621.805551 134.740572,622 C134.740572,623.104569 135.636002,624 136.740572,624 L184.727785,624 C184.922233,624 185.115643,623.971643 185.301907,623.915824 C186.359988,623.598745 186.960688,622.483958 186.643609,621.425877 L181.423994,604.008232 C180.263867,600.136936 180.022171,596.048495 180.718092,592.067474 L183.936668,573.655603 C184.126874,572.567533 185.16312,571.83967 186.25119,572.029875 C187.33926,572.220081 188.067123,573.256327 187.876917,574.344397 L184.658341,592.756269 C184.069485,596.124825 184.273997,599.584274 185.255643,602.859987 L189.122407,615.763225 L189.122407,615.763225 Z M190.27119,619.596667 L190.475258,620.277632 C191.426495,623.451874 189.624395,626.796235 186.450153,627.747473 C185.891359,627.914929 185.311131,628 184.727785,628 L136.740572,628 C133.426863,628 130.740572,625.313708 130.740572,622 C130.740572,621.416654 130.825643,620.836426 130.993099,620.277632 L131.197613,619.595177 L120.104182,615.897367 C119.233542,615.607153 118.672141,614.761639 118.742529,613.846607 L122.742529,561.846607 C122.762537,561.586495 122.833242,561.332809 122.950658,561.099845 C127.37711,552.317409 136.945617,548 148.736638,548 C149.841207,548 150.736638,548.895431 150.736638,550 C150.736638,555.522847 155.21379,560 160.736638,560 C166.259485,560 170.736638,555.522847 170.736638,550 C170.736638,548.895431 171.632068,548 172.736638,548 C184.418328,548 193.886979,552.315013 198.505441,561.066547 C198.633088,561.308427 198.70977,561.573917 198.730746,561.846607 L202.730746,613.846607 C202.801134,614.761639 202.239733,615.607153 201.369093,615.897367 L190.27119,619.596667 Z" id="Shape" fill="#FFFFFF" fill-rule="nonzero"></path>
            <path d="M398.465306,300.140252 C401.116273,300.140252 403.265306,302.289286 403.265306,304.940252 L403.265306,319.351473 C403.265306,322.002439 401.116273,324.151473 398.465306,324.151473 L324.051701,324.151473 C321.400734,324.151473 319.251701,322.002439 319.251701,319.351473 L319.251701,304.940252 C319.251701,302.289286 321.400734,300.140252 324.051701,300.140252 L398.465306,300.140252 Z M434.471137,348.162693 C437.122104,348.162693 439.271137,350.311726 439.271137,352.962693 L439.271137,367.373913 C439.271137,370.02488 437.122104,372.173913 434.471137,372.173913 L324.051701,372.173913 C321.400734,372.173913 319.251701,370.02488 319.251701,367.373913 L319.251701,352.962693 C319.251701,350.311726 321.400734,348.162693 324.051701,348.162693 L434.471137,348.162693 Z" id="Shape" fill="#8FC8F0"></path>
            <path d="M436.871137,180.084151 C438.19662,180.084151 439.271137,181.158668 439.271137,182.484151 L439.271137,189.689762 C439.271137,191.015245 438.19662,192.089762 436.871137,192.089762 L321.651701,192.089762 C320.326217,192.089762 319.251701,191.015245 319.251701,189.689762 L319.251701,182.484151 C319.251701,181.158668 320.326217,180.084151 321.651701,180.084151 L436.871137,180.084151 Z M436.871137,216.100982 C438.19662,216.100982 439.271137,217.175498 439.271137,218.500982 L439.271137,225.706592 C439.271137,227.032075 438.19662,228.106592 436.871137,228.106592 L321.651701,228.106592 C320.326217,228.106592 319.251701,227.032075 319.251701,225.706592 L319.251701,218.500982 C319.251701,217.175498 320.326217,216.100982 321.651701,216.100982 L436.871137,216.100982 Z" id="Shape" fill="#8FC8F0" opacity="0.5"></path>
            <path d="M436.871137,396.185133 C438.19662,396.185133 439.271137,397.25965 439.271137,398.585133 L439.271137,405.790743 C439.271137,407.116227 438.19662,408.190743 436.871137,408.190743 L321.651701,408.190743 C320.326217,408.190743 319.251701,407.116227 319.251701,405.790743 L319.251701,398.585133 C319.251701,397.25965 320.326217,396.185133 321.651701,396.185133 L436.871137,396.185133 Z" id="Shape" fill="#8FC8F0" opacity="0.5"></path>
        </g>
        <g id="Credit-Card" transform="translate(706.902818, 516.196353)">
            <path d="M12,-2.84217094e-14 L588.097182,-2.84217094e-14 C594.724599,-2.84217094e-14 600.097182,5.372583 600.097182,12 L600.097182,348.168303 C600.097182,354.79572 594.724599,360.168303 588.097182,360.168303 L12,360.168303 C5.372583,360.168303 -5.68434189e-14,354.79572 -5.68434189e-14,348.168303 L-5.68434189e-14,12 C-5.68434189e-14,5.372583 5.372583,-2.84217094e-14 12,-2.84217094e-14 Z" id="Shape" fill="url(#linearGradient-14)"></path>
            <polygon id="Shape" fill="url(#linearGradient-15)" points="-5.68434189e-14 60.0280505 600.097182 60.0280505 600.097182 132.061711 -5.68434189e-14 132.061711"></polygon>
            <path d="M48.0077745,234.109397 L144.023324,234.109397 L144.023324,258.120617 L48.0077745,258.120617 L48.0077745,234.109397 Z M48.0077745,288.134642 L120.019436,288.134642 L120.019436,312.145863 L48.0077745,312.145863 L48.0077745,288.134642 Z M168.027211,234.109397 L288.046647,234.109397 L288.046647,258.120617 L168.027211,258.120617 L168.027211,234.109397 Z M144.023324,288.134642 L228.036929,288.134642 L228.036929,312.145863 L144.023324,312.145863 L144.023324,288.134642 Z" id="Shape" fill="#FFFFFF" opacity="0.5"></path>
            <ellipse id="Shape" fill="#23257B" cx="457.274052" cy="274.928471" rx="40.8066084" ry="40.8190743"></ellipse>
            <ellipse id="Shape" fill="#FFFFFF" opacity="0.5" cx="498.080661" cy="274.928471" rx="40.8066084" ry="40.8190743"></ellipse>
        </g>
        <g id="Women" transform="translate(299.000000, 302.384261)">
            <path d="M68.1731649,82.4770671 L52.6963541,129.644916 L28.0549621,188.798468 L39.7978225,204.296076 L32.4303378,229.547307 L8.74784398,205.775727 C-0.230126756,196.763984 -2.54861817,183.069852 2.96255608,171.605018 L36.3761009,102.095193 L68.1731649,82.4770671 Z" id="Shape" fill="#FF686E"></path>
            <path d="M129.91045,560.225194 C135.146651,558.670815 141.179379,558.356839 148.008635,559.283267 C158.252671,560.672754 169.972337,563.055975 166.339863,568.858328 C162.707083,574.660682 146.046616,574.902866 137.792653,573.637449 C129.538689,572.372032 128.576435,573.100117 120.707547,573.637449 C112.838659,574.17478 111.454396,573.68174 111.454473,569.212767 C111.454473,564.743871 111.454222,559.211177 111.454473,556.746812 C111.454723,554.282447 111.823438,552.136249 117.56229,554.224636 C121.388192,555.616792 125.504245,557.616978 129.91045,560.225194 Z" id="Shape" fill="url(#linearGradient-16)"></path>
            <path d="M111.490348,533.98842 L133.118255,533.98842 L133.118255,556.286712 L145.803422,559.022393 C136.627866,563.295703 126.103065,563.627192 116.676778,559.939767 L111.490348,557.910912 L111.490348,533.98842 Z" id="Shape" fill="url(#linearGradient-17)"></path>
            <path d="M66.9104495,560.225194 C72.1466507,558.670815 78.179379,558.356839 85.0086347,559.283267 C95.2526707,560.672754 106.972337,563.055975 103.339863,568.858328 C99.7070831,574.660682 83.0466161,574.902866 74.7926526,573.637449 C66.5386891,572.372032 65.5764346,573.100117 57.7075466,573.637449 C49.8386586,574.17478 48.4543964,573.68174 48.4544726,569.212767 C48.4544728,564.743871 48.4542219,559.211177 48.4544726,556.746812 C48.4547233,554.282447 48.8234383,552.136249 54.56229,554.224636 C58.3881918,555.616792 62.504245,557.616978 66.9104495,560.225194 Z" id="Shape" fill="url(#linearGradient-16)"></path>
            <path d="M48.4903476,533.98842 L70.1182546,533.98842 L70.1182546,556.286712 L82.8034218,559.022393 C73.6278658,563.295703 63.1030654,563.627192 53.6767777,559.939767 L48.4903476,557.910912 L48.4903476,533.98842 Z" id="Shape" fill="url(#linearGradient-17)"></path>
            <polygon id="Shape" fill="#0C1452" points="73.3359352 547.122311 45.2073028 547.122311 32.6583164 257.945085 103.509964 259.697595"></polygon>
            <path d="M137.543178,546.794131 L107.792422,546.794131 L99.2658893,393.143444 L32.5877597,258.309953 L128.468559,259.889827 L148.581933,359.041512 C150.848316,370.213965 151.511101,381.652369 150.550303,393.011817 L137.543178,546.794131 Z" id="Shape" fill="url(#linearGradient-18)"></path>
            <path d="M95.2386764,87.8569451 L68.5915435,81.5004162 L70.9712681,70.3046923 C64.2571311,58.510142 64.2571311,43.785376 70.9712681,26.1303942 C77.6854051,8.47541239 93.7547413,8.08031265 119.179277,24.945095 L123.81296,46.7204796 C119.339791,48.265528 117.103206,51.2749864 117.103206,55.7488551 C117.103206,62.4596581 111.889173,64.9416466 105.649038,66.3577624 C101.488949,67.3018396 98.0188281,74.4682338 95.2386764,87.8569451 Z" id="Shape" fill="url(#linearGradient-19)"></path>
            <path d="M142.724234,101.824881 L211.491227,105.8114 L290.56229,44.6349425 L278.394955,63.0215474 C279.970439,68.8162787 279.311765,73.5147311 276.418933,77.1169046 C273.5261,80.719078 269.968461,82.3620297 265.746014,82.0457595 L224.798056,127.157841 C220.92178,131.428307 215.390686,133.817551 209.624288,133.712391 L146.498178,132.561183 L142.724234,101.824881 Z" id="Shape" fill="url(#linearGradient-20)"></path>
            <path d="M86.0932399,80.2050944 C95.1404982,80.2050944 136.452231,88.3957843 210.028439,104.777164 L246.285579,76.268363 L259.198444,91.8498244 L230.372535,126.537498 C224.672905,133.39615 216.217374,137.363578 207.299589,137.363578 L130.431864,137.363578 C132.704921,141.310487 133.84145,147.532599 133.84145,156.029913 C133.84145,164.527228 130.331707,171.51531 123.312221,176.994159 L128.534025,260.072161 L30.9244296,260.072161 L30.9244296,122.205094 C30.9244296,99.0091349 49.7284701,80.2050944 72.9244296,80.2050944 C77.3140331,80.2050944 81.7036365,80.2050944 86.0932399,80.2050944 Z" id="Shape" fill="url(#linearGradient-21)"></path>
            <path d="M86.0543117,266.364399 L86.9915691,266.015761 L89.4320357,272.576563 L88.4947783,272.925201 L86.0543117,266.364399 Z M91.9811592,282.297775 L92.9184166,281.949137 L95.3588833,288.509939 L94.4216259,288.858577 L91.9811592,282.297775 Z M97.9080068,298.231151 L98.8452642,297.882513 L101.285731,304.443315 L100.348473,304.791953 L97.9080068,298.231151 Z M103.834854,314.164528 L104.772112,313.815889 L107.212578,320.376691 L106.275321,320.725329 L103.834854,314.164528 Z M109.761702,330.097904 L110.698959,329.749266 L113.139426,336.310068 L112.202169,336.658706 L109.761702,330.097904 Z M115.688549,346.03128 L116.625807,345.682642 L119.066274,352.243444 L118.129016,352.592082 L115.688549,346.03128 Z M121.608309,361.961924 L122.549241,361.623329 C123.34387,363.831551 124.060636,366.066168 124.698393,368.32309 L123.736076,368.59502 C123.104665,366.360555 122.395031,364.148174 121.608309,361.961924 Z M125.962567,378.309955 L126.947261,378.135663 C127.356063,380.445268 127.68391,382.768599 127.930171,385.101374 L126.935697,385.206356 C126.691886,382.896793 126.367301,380.596579 125.962567,378.309955 Z M127.48428,395.156186 L128.484268,395.151204 C128.489666,396.234719 128.477542,397.318451 128.447881,398.402056 L128.343917,402.180234 L127.344295,402.152728 L127.448257,398.374621 C127.477622,397.301869 127.489625,396.22892 127.48428,395.156186 Z M127.069228,412.148944 L128.06885,412.176451 L127.876303,419.173802 L126.876681,419.146295 L127.069228,412.148944 Z M126.601614,429.142511 L127.601235,429.170018 L127.408688,436.167369 L126.409067,436.139863 L126.601614,429.142511 Z M126.133999,446.136079 L127.133621,446.163586 L126.941074,453.160937 L125.941452,453.13343 L126.133999,446.136079 Z M125.666385,463.129646 L126.666007,463.157153 L126.47346,470.154504 L125.473838,470.126998 L125.666385,463.129646 Z M125.198771,480.123214 L126.198392,480.150721 L126.005845,487.148072 L125.006224,487.120565 L125.198771,480.123214 Z M124.731156,497.116781 L125.730778,497.144288 L125.538231,504.141639 L124.538609,504.114133 L124.731156,497.116781 Z M124.263542,514.110349 L125.263164,514.137856 L125.070617,521.135207 L124.070995,521.1077 L124.263542,514.110349 Z M123.795928,531.103916 L124.795549,531.131423 L124.603002,538.128774 L123.603381,538.101268 L123.795928,531.103916 Z" id="Shape" fill="url(#linearGradient-22)" fill-rule="nonzero"></path>
            <path d="M61.6386129,61.1843448 C67.7177721,70.3924663 73.6267653,72.5704329 79.3655923,67.7182445 C87.9738329,60.439962 85.6912473,55.0972905 81.4679567,53.4706099 C77.244666,51.8439294 76.381153,43.1113403 81.4679567,41.7823453 C86.5547603,40.4533502 89.6884495,47.4403744 91.1352483,41.7823453 C92.5820471,36.1243161 90.2016476,30.2960736 96.8017456,30.2960736 C103.401844,30.2960736 118.780365,32.7877165 121.825112,22.6601446 C124.869859,12.5325728 116.857568,7.10542736e-15 99.1627625,7.10542736e-15 C81.4679567,7.10542736e-15 64.8865645,8.71725051 58.2569672,24.1413428 C53.8372356,34.424071 54.9644508,46.7717383 61.6386129,61.1843448 Z" id="Shape" fill="url(#linearGradient-23)"></path>
            <path d="M64.5756585,23.5919417 C55.9550433,22.1972138 51.8871308,25.7837649 52.3719211,34.3515952 C53.0991065,47.2033405 66.5759549,59.5240861 42.5373245,71.9841486 C18.4986942,84.444211 26.3347944,108.181556 43.0351795,113.708741 C10.8001794,104.584965 -2.80151403,89.040075 2.23009912,67.074071 C9.77751885,34.125065 36.8934862,52.7673179 37.8349125,29.67109 C38.46253,14.2736047 48.5452171,10.6038067 68.082974,18.6616959 L64.5756585,23.5919417 Z" id="Shape" fill="url(#linearGradient-24)"></path>
        </g>
    </g>
</svg>