<svg width="800" height="600" viewBox="0 0 800 600" fill="none" xmlns="http://www.w3.org/2000/svg">
<rect width="800" height="600" fill="white"/>
<path d="M189.312 255.916C248.232 232.259 427.981 199.24 574.846 246.173C644.531 268.442 679.56 307.928 643.045 346.848C604.345 388.098 392.982 420.436 267.254 390.922C79.3581 346.815 143.905 274.147 189.312 255.916Z" fill="url(#paint0_linear)" fill-opacity="0.5"/>
<path fill-rule="evenodd" clip-rule="evenodd" d="M575.744 153.548C574.563 152.636 573.561 151.532 573.721 150.555C575.324 149.509 577.164 146.369 575.79 142.184C574.073 136.952 570.294 134.859 568.233 136.603C566.172 138.347 564.454 148.462 569.607 150.555C570.95 151.529 573.467 153.467 574.409 154.562C573.67 155.281 572.987 156.239 572.449 157.428C571.007 160.615 572.812 162.391 574.156 163.315C574.231 163.996 573.651 164.925 572.872 165.739C570.973 161.814 567.832 160.381 566.02 161.914C563.959 163.658 562.241 173.774 567.394 175.866C568.997 177.029 571.233 180.193 571.508 181.03C571.783 181.868 574.248 181.379 574.935 181.03C573.332 180.217 571.233 177.541 571.508 175.866C573.085 174.837 574.891 171.783 573.642 167.699C574.779 166.478 576.44 164.906 577.388 164.386C582.021 163.085 581.093 155.055 579.387 153.554C578.488 152.764 577.11 152.776 575.744 153.548Z" fill="#F9759C"/>
<path d="M321.656 189.372C323.426 192.53 325.809 198.361 326.5 198.5C313.5 197.5 303 179.5 308.24 171.861C299.5 171.861 292.688 161.516 290 161C301.691 159.27 316.294 161.019 319.095 171.485C321.896 181.952 319.886 186.215 321.656 189.372Z" fill="#6885EF" fill-opacity="0.5"/>
<path d="M315.901 159.838C322.674 144.666 335.71 138.726 341.8 135.146C342.375 138.51 341.844 141.3 340.079 147.831C338.313 154.362 334.154 162.063 326.503 166.203C334.904 173.997 322.618 196.267 321.474 198.552C321.472 198.613 321.458 198.661 321.432 198.696C321.362 198.791 321.382 198.737 321.474 198.552C321.562 196.401 307.668 178.28 315.901 159.838Z" fill="#6885EF"/>
<ellipse cx="169.378" cy="424.969" rx="73.3776" ry="14.6755" fill="#F3F3F3"/>
<path d="M165.375 411.759H242.321V424.584C242.321 424.584 237.658 429.247 203.848 429.247C170.039 429.247 165.375 424.584 165.375 424.584V411.759Z" fill="url(#paint1_linear)"/>
<ellipse cx="203.848" cy="411.759" rx="38.4728" ry="5.82921" fill="#F9AEC5"/>
<path d="M165.375 397.818H242.321V410.642C242.321 410.642 237.658 415.305 203.848 415.305C170.039 415.305 165.375 410.642 165.375 410.642V397.818Z" fill="url(#paint2_linear)"/>
<ellipse cx="203.848" cy="397.818" rx="38.4728" ry="5.82921" fill="#F9AEC5"/>
<path d="M165.375 384.352H242.321V397.176C242.321 397.176 237.658 401.84 203.848 401.84C170.039 401.84 165.375 397.176 165.375 397.176V384.352Z" fill="url(#paint3_linear)"/>
<ellipse cx="203.848" cy="384.352" rx="38.4728" ry="5.82921" fill="#F9AEC5"/>
<path d="M165.375 370.887H242.321V383.711C242.321 383.711 237.658 388.374 203.848 388.374C170.039 388.374 165.375 383.711 165.375 383.711V370.887Z" fill="url(#paint4_linear)"/>
<ellipse cx="203.848" cy="370.887" rx="38.4728" ry="5.82921" fill="#F9AEC5"/>
<path d="M171.146 357.421H248.092V370.245C248.092 370.245 243.428 374.909 209.619 374.909C175.809 374.909 171.146 370.245 171.146 370.245V357.421Z" fill="url(#paint5_linear)"/>
<ellipse cx="209.619" cy="357.421" rx="38.4728" ry="5.82921" fill="#F9AEC5"/>
<ellipse cx="145.272" cy="246.045" rx="39.5957" ry="7.91914" fill="#F3F3F3"/>
<path d="M143.112 238.917H184.633V245.837C184.633 245.837 182.117 248.353 163.872 248.353C145.628 248.353 143.112 245.837 143.112 245.837V238.917Z" fill="url(#paint6_linear)"/>
<ellipse cx="163.873" cy="238.917" rx="20.7605" ry="3.14554" fill="#F9AEC5"/>
<path d="M143.112 231.393H184.633V238.314C184.633 238.314 182.117 240.83 163.872 240.83C145.628 240.83 143.112 238.314 143.112 238.314V231.393Z" fill="url(#paint7_linear)"/>
<ellipse cx="163.873" cy="231.394" rx="20.7605" ry="3.14554" fill="#F9AEC5"/>
<path d="M143.112 224.127H184.633V231.048C184.633 231.048 182.117 233.564 163.872 233.564C145.628 233.564 143.112 231.048 143.112 231.048V224.127Z" fill="url(#paint8_linear)"/>
<ellipse cx="163.873" cy="224.127" rx="20.7605" ry="3.14554" fill="#F9AEC5"/>
<path d="M143.112 216.861H184.633V223.781C184.633 223.781 182.117 226.298 163.872 226.298C145.628 226.298 143.112 223.781 143.112 223.781V216.861Z" fill="url(#paint9_linear)"/>
<ellipse cx="163.873" cy="216.861" rx="20.7605" ry="3.14554" fill="#F9AEC5"/>
<path d="M143.323 209.595H184.844V216.515C184.844 216.515 182.328 219.032 164.084 219.032C145.839 219.032 143.323 216.515 143.323 216.515V209.595Z" fill="url(#paint10_linear)"/>
<ellipse cx="164.084" cy="209.595" rx="20.7605" ry="3.14554" fill="#F9AEC5"/>
<ellipse cx="323.313" cy="205.405" rx="39.5957" ry="7.91914" fill="#F3F3F3"/>
<path d="M321.153 198.277H362.675V205.197C362.675 205.197 360.158 207.713 341.914 207.713C323.67 207.713 321.153 205.197 321.153 205.197V198.277Z" fill="url(#paint11_linear)"/>
<ellipse cx="341.914" cy="198.277" rx="20.7605" ry="3.14554" fill="#F9AEC5"/>
<path d="M321.153 190.754H362.675V197.674C362.675 197.674 360.158 200.19 341.914 200.19C323.67 200.19 321.153 197.674 321.153 197.674V190.754Z" fill="url(#paint12_linear)"/>
<ellipse cx="341.914" cy="190.754" rx="20.7605" ry="3.14554" fill="#F9AEC5"/>
<path d="M321.153 183.487H362.675V190.408C362.675 190.408 360.158 192.924 341.914 192.924C323.67 192.924 321.153 190.408 321.153 190.408V183.487Z" fill="url(#paint13_linear)"/>
<ellipse cx="341.914" cy="183.487" rx="20.7605" ry="3.14554" fill="#F9AEC5"/>
<path d="M321.153 176.221H362.675V183.141C362.675 183.141 360.158 185.658 341.914 185.658C323.67 185.658 321.153 183.141 321.153 183.141V176.221Z" fill="url(#paint14_linear)"/>
<ellipse cx="341.914" cy="176.221" rx="20.7605" ry="3.14554" fill="#F9AEC5"/>
<path d="M316.527 168.955H358.048V175.875C358.048 175.875 355.531 178.392 337.287 178.392C319.043 178.392 316.527 175.875 316.527 175.875V168.955Z" fill="url(#paint15_linear)"/>
<ellipse cx="337.288" cy="168.955" rx="20.7605" ry="3.14554" fill="#F9AEC5"/>
<ellipse cx="580.596" cy="188.063" rx="39.5957" ry="7.91914" fill="#F3F3F3"/>
<path d="M578.436 180.935H619.957V187.855C619.957 187.855 617.44 190.372 599.196 190.372C580.952 190.372 578.436 187.855 578.436 187.855V180.935Z" fill="url(#paint16_linear)"/>
<ellipse cx="599.196" cy="180.935" rx="20.7605" ry="3.14554" fill="#F9AEC5"/>
<path d="M578.436 173.412H619.957V180.332C619.957 180.332 617.44 182.848 599.196 182.848C580.952 182.848 578.436 180.332 578.436 180.332V173.412Z" fill="url(#paint17_linear)"/>
<ellipse cx="599.196" cy="173.412" rx="20.7605" ry="3.14554" fill="#F9AEC5"/>
<path d="M578.436 166.146H619.957V173.066C619.957 173.066 617.44 175.582 599.196 175.582C580.952 175.582 578.436 173.066 578.436 173.066V166.146Z" fill="url(#paint18_linear)"/>
<ellipse cx="599.197" cy="166.146" rx="20.7605" ry="3.14554" fill="#F9AEC5"/>
<ellipse cx="539.169" cy="489.961" rx="76.4417" ry="18.3847" fill="#F3F3F3"/>
<path d="M537.717 483.672L535.782 467.706H544.007V483.672H537.717Z" fill="#FCD8E3"/>
<path d="M592.871 477.866L586.098 463.835L592.871 459.481L598.193 473.995L592.871 477.866Z" fill="#FCD8E3"/>
<path d="M527.073 417.874C526.686 413.616 529.815 385.781 531.428 372.396C535.621 371.912 544.974 371.235 548.845 372.396C553.683 373.847 566.262 364.171 567.713 365.622C569.165 367.074 572.068 384.007 572.551 388.361C572.938 391.845 574.648 410.455 575.454 419.325L594.323 460.449C594.71 463.545 588.356 465.609 585.13 466.255L561.908 424.647L548.845 397.554L544.007 422.712V469.641C542.458 471.189 536.911 470.286 534.33 469.641C532.073 454.159 527.46 422.131 527.073 417.874Z" fill="#3C56C6"/>
<path d="M469.578 283.446L475.504 287.227L471.501 293.942C469.96 293.158 465.304 290.902 459.009 288.158C451.14 284.727 444.593 271.877 447.443 268.714C450.293 265.551 453.293 267.367 458.728 269.99C463.076 272.089 467.804 277.929 469.578 283.446Z" fill="#FCD8E3"/>
<path d="M496.11 314.822L469.5 294.986C469.5 289.955 472.726 286.439 474.338 285.31L500.464 297.405H546.426C545.458 300.631 543.523 308.049 543.523 311.92C543.523 315.79 534.814 317.403 530.46 317.725L496.11 314.822Z" fill="#B2C3FF"/>
<path d="M582 382.5L583.5 378L587.579 379C587.41 380.069 586.971 383.274 586.565 387.549C586.058 392.892 579.469 399.303 576.934 398.235C574.4 397.166 574.907 395.029 575.414 391.289C575.819 388.297 578.959 384.637 582 382.5Z" fill="#FCD8E3"/>
<path d="M544.5 288C544.866 289.798 545 294.5 542.257 296.654C543.934 297.553 548.202 299.081 551.861 298.002C555.519 296.923 560.178 292.914 560.94 291.116C558.653 290.217 553.659 279.5 556.891 275.53C558.72 273.282 561.921 268.338 562.378 258.45C562.836 248.563 550.946 249.461 546.373 250.81C541.8 252.158 536.312 261.147 534.94 266.541C533.568 271.934 534.94 280.923 534.94 282.271C534.94 283.35 539.818 284.818 542.257 285.417C542.562 285.118 544.134 286.202 544.5 288Z" fill="#FCD8E3"/>
<path d="M531.428 314.339C532.589 307.372 539.169 298.212 542.071 295.47C543.845 296.115 545.458 296.922 549.329 296.922C553.199 296.922 558.037 292.084 559.972 289.664C559.972 289.664 579.325 301.598 581.744 304.663C584.163 307.727 591.033 343.561 591.42 348.205C591.904 354.011 590.936 381.435 588.517 382.887C586.582 384.048 583.195 381.113 581.744 379.5L579.808 351.592L567.713 324.015C567.068 329.821 567.713 339.11 567.713 341.432C567.713 343.754 567.068 360.139 567.713 365.622C567.552 366.429 565.681 368.719 559.488 371.428C553.296 374.137 537.233 374.492 531.428 373.363L531.428 345.786C531.428 340.948 529.976 323.047 531.428 314.339Z" fill="#B2C3FF"/>
<path d="M539.652 257.249C537.717 257.411 533.847 257.249 533.847 255.314C533.847 252.895 530.944 251.444 529.976 251.927C530.46 250.153 531.911 247.67 533.847 248.057C536.266 248.541 537.717 247.089 537.717 246.122C536.588 246.122 534.33 245.831 534.33 244.67C534.33 243.688 533.869 243.098 533.531 242.842C533.472 242.806 533.415 242.77 533.363 242.735C533.412 242.76 533.47 242.795 533.531 242.842C534.569 243.471 536.619 244.199 537.717 242.735C539.169 240.8 542.071 240.8 543.039 241.767C544.007 242.735 544.007 243.219 544.974 242.735C544.007 241.767 544.007 240.413 544.007 238.865C544.007 236.929 544.007 235.962 544.974 234.51C545.136 235.155 545.748 236.833 546.909 238.381C548.361 240.316 551.748 241.767 553.199 241.767C554.65 241.767 563.359 246.122 562.391 249.992C561.424 253.863 563.843 258.701 562.391 262.087C560.94 265.474 559.972 271.764 558.521 273.699C557.069 275.634 555.618 276.602 555.618 277.569C553.359 273.616 555.618 265.958 553.199 262.087C550.275 257.41 544.974 255.314 539.652 257.249Z" fill="#F9759C"/>
<path d="M589.001 484.639C590.936 482.317 591.742 478.188 591.904 476.414L598.677 472.544L603.999 484.639C603.838 485.929 602.257 489.284 597.226 492.38C592.194 495.477 583.518 496.573 579.808 496.734C579.647 495.767 579.421 493.348 579.808 491.413C580.292 488.993 586.582 487.542 589.001 484.639Z" fill="white"/>
<path d="M537.717 483.672C539.169 484.155 542.555 483.188 544.007 482.22L545.458 492.864C543.523 494.477 538.685 498.089 534.814 499.637C530.944 501.186 524.493 501.895 521.751 502.056C520.203 499.734 521.106 497.218 521.751 496.251C522.88 495.606 525.912 494.025 529.008 492.864C532.105 491.703 536.266 486.091 537.717 483.672Z" fill="white"/>
<path d="M228.063 498.949L381 498L454.986 446.902H290.557C278.534 446.902 266.789 450.514 256.844 457.269L222.382 480.677C214.208 486.23 218.181 499.011 228.063 498.949Z" fill="url(#paint19_linear)"/>
<path d="M363.546 252.253V484.505C363.546 496.579 377.083 503.705 387.037 496.871L398.5 489L447.984 449.571C453.937 444.827 457.405 437.63 457.405 430.018V181.992C457.405 177.272 452.206 174.401 448.211 176.913L382.252 218.392C370.611 225.713 363.546 238.501 363.546 252.253Z" fill="#F3F3F3"/>
<path d="M367.417 254.334V481.185C367.417 493.375 381.187 500.475 391.118 493.403L452.712 449.54C459.299 444.849 463.211 437.262 463.211 429.176V183.318C463.211 179.439 458.984 177.037 455.651 179.023L386.939 219.973C374.833 227.188 367.417 240.241 367.417 254.334Z" fill="white" stroke="#F3F3F3" stroke-width="2"/>
<path d="M367.417 254.003V305.63C367.417 305.63 397.238 324.495 426.441 307.565C459.824 288.213 463.694 246.605 463.694 246.605V181.513C463.694 177.605 459.413 175.208 456.081 177.25L386.51 219.902C374.647 227.174 367.417 240.089 367.417 254.003Z" fill="#3C56C6"/>
<path d="M398.35 270.676V265.307C398.35 256.87 435.934 253.035 436.701 253.035C437.468 253.035 436.701 261.472 436.701 261.472C436.701 263.006 433.633 268.375 424.429 272.21C411.254 277.7 399.117 274.511 398.35 270.676Z" fill="url(#paint20_linear)"/>
<ellipse cx="417.88" cy="258.425" rx="20.1332" ry="8.8868" transform="rotate(-17.8689 417.88 258.425)" fill="#F9AEC5"/>
<path d="M398.35 263.006V257.637C398.35 249.2 435.934 245.365 436.701 245.365C437.468 245.365 436.701 253.802 436.701 253.802C436.701 255.336 433.633 260.705 424.429 264.54C411.254 270.03 399.117 266.841 398.35 263.006Z" fill="url(#paint21_linear)"/>
<ellipse cx="417.88" cy="250.755" rx="20.1332" ry="8.8868" transform="rotate(-17.8689 417.88 250.755)" fill="#F9AEC5"/>
<path d="M398.35 255.336V249.967C398.35 241.53 435.934 237.695 436.701 237.695C437.468 237.695 436.701 246.132 436.701 246.132C436.701 247.666 433.633 253.035 424.429 256.87C411.255 262.359 399.117 259.171 398.35 255.336Z" fill="url(#paint22_linear)"/>
<ellipse cx="417.713" cy="243.294" rx="20.2203" ry="9.03521" transform="rotate(-17.8689 417.713 243.294)" fill="#F9AEC5"/>
<ellipse cx="422.341" cy="308.742" rx="13.3558" ry="20.0337" transform="rotate(9.60114 422.341 308.742)" fill="#6386FF"/>
<path d="M411.443 419.325V413.036L453.051 388.361V394.167L411.443 419.325Z" fill="#EAEAEA"/>
<path d="M411.443 430.453V424.163L439.504 407.714V413.519L411.443 430.453Z" fill="#EAEAEA"/>
<ellipse cx="395.937" cy="429.913" rx="9.37328" ry="14.0599" transform="rotate(9.60114 395.937 429.913)" fill="#B2C3FF"/>
<path d="M411.443 371.912V365.622L453.051 340.948V346.754L411.443 371.912Z" fill="#EAEAEA"/>
<path d="M411.443 383.039V376.75L439.504 360.3V366.106L411.443 383.039Z" fill="#EAEAEA"/>
<ellipse cx="395.937" cy="382.5" rx="9.37328" ry="14.0599" transform="rotate(9.60114 395.937 382.5)" fill="#B2C3FF"/>
<path d="M418.216 311.608L422.208 316.758L428.86 302.243" stroke="white" stroke-width="3" stroke-linecap="round" stroke-linejoin="round"/>
<path d="M454 175C450.534 175.502 449.18 176.453 448.213 176.937L453.534 178.872C457.5 176 461.759 177.421 461.759 177.421C460.63 176.615 457.466 174.498 454 175Z" fill="#F3F3F3"/>
<path d="M163.733 209.352C163.733 69 394.5 12.5 406 204.5" stroke="#F9B2C8" stroke-width="2.78633" stroke-linecap="round" stroke-linejoin="round" stroke-dasharray="9.29 13.93"/>
<path d="M600.5 165.109C605.5 45 429 47.1089 429 190.609" stroke="#F9B2C8" stroke-width="2.78633" stroke-linecap="round" stroke-linejoin="round" stroke-dasharray="9.29 13.93"/>
<path d="M339.839 168.712C339.839 122.267 418 49 418 197.5" stroke="#F9B2C8" stroke-width="2.78633" stroke-linecap="round" stroke-linejoin="round" stroke-dasharray="9.29 13.93"/>
<path d="M207.276 354.011C155 116 394 69 394 212.5" stroke="#F9B2C8" stroke-width="2.78633" stroke-linecap="round" stroke-linejoin="round" stroke-dasharray="9.29 13.93"/>
<mask id="mask0" mask-type="alpha" maskUnits="userSpaceOnUse" x="288" y="450" width="77" height="52">
<ellipse rx="18.6593" ry="41.8762" transform="matrix(-0.382131 0.924108 0.894002 0.448064 326.568 475.526)" fill="#F4A0D7"/>
</mask>
<g mask="url(#mask0)">
<ellipse rx="18.6593" ry="41.8762" transform="matrix(-0.382131 0.924108 0.894002 0.448064 321.351 488.143)" fill="#BECCFF"/>
</g>
<mask id="mask1" mask-type="alpha" maskUnits="userSpaceOnUse" x="311" y="423" width="58" height="77">
<ellipse rx="17.8734" ry="43.7911" transform="matrix(-0.763594 0.645697 0.572183 0.820126 339.804 461.455)" fill="#C4C4C4"/>
</mask>
<g mask="url(#mask1)">
<ellipse rx="17.8734" ry="43.7911" transform="matrix(-0.763594 0.645697 0.572183 0.820126 329.818 469.899)" fill="#8FA6F9"/>
</g>
<mask id="mask2" mask-type="alpha" maskUnits="userSpaceOnUse" x="344" y="424" width="32" height="79">
<ellipse rx="14.9385" ry="39.1982" transform="matrix(-0.991057 0.133443 0.110413 0.993886 359.867 463.034)" fill="#8D8D8D"/>
</mask>
<g mask="url(#mask2)">
<ellipse rx="14.9385" ry="39.1982" transform="matrix(-0.991057 0.133443 0.110413 0.993886 349.035 464.492)" fill="#6386FF"/>
</g>
<defs>
<linearGradient id="paint0_linear" x1="413.914" y1="237.012" x2="383.158" y2="370.475" gradientUnits="userSpaceOnUse">
<stop stop-color="#6885EF" stop-opacity="0.43"/>
<stop offset="1" stop-color="#FFC6EC" stop-opacity="0.3"/>
</linearGradient>
<linearGradient id="paint1_linear" x1="165.375" y1="428.742" x2="241.643" y2="428.742" gradientUnits="userSpaceOnUse">
<stop stop-color="#F9AEC5"/>
<stop offset="0.535912" stop-color="#FFDAE6"/>
<stop offset="1" stop-color="#F9AEC5"/>
</linearGradient>
<linearGradient id="paint2_linear" x1="165.375" y1="414.8" x2="241.643" y2="414.8" gradientUnits="userSpaceOnUse">
<stop stop-color="#F9AEC5"/>
<stop offset="0.535912" stop-color="#FFDAE6"/>
<stop offset="1" stop-color="#F9AEC5"/>
</linearGradient>
<linearGradient id="paint3_linear" x1="165.375" y1="401.335" x2="241.643" y2="401.335" gradientUnits="userSpaceOnUse">
<stop stop-color="#F9AEC5"/>
<stop offset="0.535912" stop-color="#FFDAE6"/>
<stop offset="1" stop-color="#F9AEC5"/>
</linearGradient>
<linearGradient id="paint4_linear" x1="165.375" y1="387.869" x2="241.643" y2="387.869" gradientUnits="userSpaceOnUse">
<stop stop-color="#F9AEC5"/>
<stop offset="0.535912" stop-color="#FFDAE6"/>
<stop offset="1" stop-color="#F9AEC5"/>
</linearGradient>
<linearGradient id="paint5_linear" x1="171.146" y1="374.404" x2="247.414" y2="374.404" gradientUnits="userSpaceOnUse">
<stop stop-color="#F9AEC5"/>
<stop offset="0.535912" stop-color="#FFDAE6"/>
<stop offset="1" stop-color="#F9AEC5"/>
</linearGradient>
<linearGradient id="paint6_linear" x1="143.112" y1="248.081" x2="184.267" y2="248.081" gradientUnits="userSpaceOnUse">
<stop stop-color="#F9AEC5"/>
<stop offset="0.535912" stop-color="#FFDAE6"/>
<stop offset="1" stop-color="#F9AEC5"/>
</linearGradient>
<linearGradient id="paint7_linear" x1="143.112" y1="240.558" x2="184.267" y2="240.558" gradientUnits="userSpaceOnUse">
<stop stop-color="#F9AEC5"/>
<stop offset="0.535912" stop-color="#FFDAE6"/>
<stop offset="1" stop-color="#F9AEC5"/>
</linearGradient>
<linearGradient id="paint8_linear" x1="143.112" y1="233.291" x2="184.267" y2="233.291" gradientUnits="userSpaceOnUse">
<stop stop-color="#F9AEC5"/>
<stop offset="0.535912" stop-color="#FFDAE6"/>
<stop offset="1" stop-color="#F9AEC5"/>
</linearGradient>
<linearGradient id="paint9_linear" x1="143.112" y1="226.025" x2="184.267" y2="226.025" gradientUnits="userSpaceOnUse">
<stop stop-color="#F9AEC5"/>
<stop offset="0.535912" stop-color="#FFDAE6"/>
<stop offset="1" stop-color="#F9AEC5"/>
</linearGradient>
<linearGradient id="paint10_linear" x1="143.323" y1="218.759" x2="184.478" y2="218.759" gradientUnits="userSpaceOnUse">
<stop stop-color="#F9AEC5"/>
<stop offset="0.535912" stop-color="#FFDAE6"/>
<stop offset="1" stop-color="#F9AEC5"/>
</linearGradient>
<linearGradient id="paint11_linear" x1="321.153" y1="207.441" x2="362.309" y2="207.441" gradientUnits="userSpaceOnUse">
<stop stop-color="#F9AEC5"/>
<stop offset="0.535912" stop-color="#FFDAE6"/>
<stop offset="1" stop-color="#F9AEC5"/>
</linearGradient>
<linearGradient id="paint12_linear" x1="321.153" y1="199.918" x2="362.309" y2="199.918" gradientUnits="userSpaceOnUse">
<stop stop-color="#F9AEC5"/>
<stop offset="0.535912" stop-color="#FFDAE6"/>
<stop offset="1" stop-color="#F9AEC5"/>
</linearGradient>
<linearGradient id="paint13_linear" x1="321.153" y1="192.652" x2="362.309" y2="192.652" gradientUnits="userSpaceOnUse">
<stop stop-color="#F9AEC5"/>
<stop offset="0.535912" stop-color="#FFDAE6"/>
<stop offset="1" stop-color="#F9AEC5"/>
</linearGradient>
<linearGradient id="paint14_linear" x1="321.153" y1="185.385" x2="362.309" y2="185.385" gradientUnits="userSpaceOnUse">
<stop stop-color="#F9AEC5"/>
<stop offset="0.535912" stop-color="#FFDAE6"/>
<stop offset="1" stop-color="#F9AEC5"/>
</linearGradient>
<linearGradient id="paint15_linear" x1="316.527" y1="178.119" x2="357.682" y2="178.119" gradientUnits="userSpaceOnUse">
<stop stop-color="#F9AEC5"/>
<stop offset="0.535912" stop-color="#FFDAE6"/>
<stop offset="1" stop-color="#F9AEC5"/>
</linearGradient>
<linearGradient id="paint16_linear" x1="578.436" y1="190.099" x2="619.591" y2="190.099" gradientUnits="userSpaceOnUse">
<stop stop-color="#F9AEC5"/>
<stop offset="0.535912" stop-color="#FFDAE6"/>
<stop offset="1" stop-color="#F9AEC5"/>
</linearGradient>
<linearGradient id="paint17_linear" x1="578.436" y1="182.576" x2="619.591" y2="182.576" gradientUnits="userSpaceOnUse">
<stop stop-color="#F9AEC5"/>
<stop offset="0.535912" stop-color="#FFDAE6"/>
<stop offset="1" stop-color="#F9AEC5"/>
</linearGradient>
<linearGradient id="paint18_linear" x1="578.436" y1="175.31" x2="619.591" y2="175.31" gradientUnits="userSpaceOnUse">
<stop stop-color="#F9AEC5"/>
<stop offset="0.535912" stop-color="#FFDAE6"/>
<stop offset="1" stop-color="#F9AEC5"/>
</linearGradient>
<linearGradient id="paint19_linear" x1="335" y1="533" x2="274.5" y2="473" gradientUnits="userSpaceOnUse">
<stop stop-color="#F3F3F3"/>
<stop offset="1" stop-color="#F3F3F3" stop-opacity="0"/>
</linearGradient>
<linearGradient id="paint20_linear" x1="398.35" y1="274.511" x2="436.701" y2="274.511" gradientUnits="userSpaceOnUse">
<stop stop-color="#F9AEC5"/>
<stop offset="0.535912" stop-color="#FFDAE6"/>
<stop offset="1" stop-color="#F9AEC5"/>
</linearGradient>
<linearGradient id="paint21_linear" x1="398.35" y1="266.841" x2="436.701" y2="266.841" gradientUnits="userSpaceOnUse">
<stop stop-color="#F9AEC5"/>
<stop offset="0.535912" stop-color="#FFDAE6"/>
<stop offset="1" stop-color="#F9AEC5"/>
</linearGradient>
<linearGradient id="paint22_linear" x1="398.35" y1="259.171" x2="436.701" y2="259.171" gradientUnits="userSpaceOnUse">
<stop stop-color="#F9AEC5"/>
<stop offset="0.535912" stop-color="#FFDAE6"/>
<stop offset="1" stop-color="#F9AEC5"/>
</linearGradient>
</defs>
</svg>
