<svg width="800" height="600" viewBox="0 0 800 600" fill="none" xmlns="http://www.w3.org/2000/svg">
<rect width="800" height="600" fill="white"/>
<path d="M108.616 415.159C179.116 494.64 238.318 433.956 306.376 401.02C424.914 343.655 561.476 487.351 622.294 410.968C667.338 354.397 626.892 208.124 531.289 140.059C448.032 80.785 355.031 81.1146 245.551 128.869C128.95 179.729 32.7451 329.623 108.616 415.159Z" fill="url(#paint0_linear)" fill-opacity="0.15"/>
<path fill-rule="evenodd" clip-rule="evenodd" d="M700.445 149.932C700.338 149.994 700.234 150.056 700.134 150.119C695.037 153.293 685.659 165.105 684.058 169.088C688.002 168.87 703.062 166.203 708.166 163.03C715.302 179.384 714.885 197.609 707.957 213.227C699.044 206.393 687.652 200.432 674.317 199.359C686.881 206.495 696.295 215.018 702.932 222.393C698.147 229.608 691.773 235.937 683.944 240.813C682.644 241.623 681.289 242.428 679.884 243.224C674.741 233.354 667.036 223.444 655.626 217.722C663.187 228.14 667.949 238.783 670.942 247.83C661.677 252.168 651.071 255.873 640.2 258.023C638.696 248.3 635.293 238.399 628.465 230.581C630.87 240.893 631.569 250.761 631.413 259.4C616.623 261.088 601.875 259.479 589.829 252.287C597.185 245.165 598.716 233.4 592.904 224.067C587.197 214.905 576.264 211.061 566.748 214.199C566.13 200.347 571.494 186.106 579.709 173.263C587.248 177.685 595.325 183.295 603.218 190.347C598.944 180.733 592.093 172.768 584.528 166.307C591.465 157.018 599.705 148.719 607.89 142.186C614.579 149.657 621.661 159.041 627.77 170.328C626.861 157.867 621.745 146.363 615.441 136.646C616.309 136.065 617.172 135.507 618.028 134.975C625.872 130.09 634.379 127.159 642.982 126.051C646.415 135.391 649.507 146.607 651.031 159.204C654.517 148.048 654.271 136.32 652.343 125.558C670.755 125.976 688.655 134.534 700.445 149.932Z" fill="#3C56C6"/>
<path d="M487.324 304.256C509.257 255.485 567.309 228.466 591.504 216.98L593.514 220.207C568.945 230.135 513.099 262.228 494.083 310.794C477.66 352.74 487.835 392.097 497.828 413.764C498.815 415.903 498.103 418.459 496.103 419.704C493.84 421.114 490.853 420.289 489.75 417.861C479.463 395.23 466.845 349.794 487.324 304.256Z" fill="#3C56C6"/>
<path d="M244.462 292.183C200.803 262.228 163.149 270.358 143.478 272.82C148.825 283.869 155.365 290.894 171.76 306.231C188.155 321.567 212.378 331.414 236.396 327.274C233.855 371.158 297.336 411.843 306.084 414.898C304.587 407.867 299.036 329.627 244.462 292.183Z" fill="#FEC6D7"/>
<path d="M279.263 265.749C254.681 218.854 217.596 208.431 199.057 201.408C198.617 213.675 201.112 222.943 208.432 244.166C215.751 265.389 232.556 285.422 255.723 292.995C232.953 330.595 270.037 396.245 276.342 403.036C278.306 396.121 309.99 324.368 279.263 265.749Z" fill="#F8B7CB"/>
<path d="M501.23 382.361C471.156 405.701 467.151 455.504 468.907 477.487C483.845 456.766 503.164 427.269 537.364 413.065C576.507 396.808 599.909 371.335 615.216 347.006C601.286 363.892 538.821 353.185 501.23 382.361Z" fill="#A0B5FF"/>
<path d="M495.494 337.679C467.002 379.92 470.034 444.019 475.111 470.788C487.929 438.376 516.885 391.056 543.385 364.453C576.364 331.346 598.569 281.172 611.251 244.082C598.942 271.256 531.109 284.877 495.494 337.679Z" fill="#5777ED"/>
<path d="M327.87 229.292L281.636 324.702V512.5L406.468 546.204V393.632L462.368 315.455L465.311 170.029L327.87 153.216V229.292Z" fill="url(#paint1_linear)"/>
<path d="M435.469 245.264L328.29 230.133L286.259 315.035L412.772 338.572L435.469 245.264Z" fill="#E0E3ED"/>
<path d="M435.469 309.151V246.104L412.772 338.992L435.469 309.151Z" fill="#485890"/>
<path d="M411.511 344.877L311.058 326.383L283.738 359.167L386.713 379.342L411.511 344.877Z" fill="#C6CCE1"/>
<path d="M438.831 268.45L438.831 265.479L458.462 268.801L458.462 271.743L438.831 268.45Z" fill="#485890"/>
<path d="M438.601 261.656L438.601 258.498L458.612 262.059L458.537 265.03L438.601 261.656Z" fill="#485890"/>
<path d="M403.002 331.27L305.896 312.867C303.793 312.468 302.593 310.233 303.422 308.26L331.9 240.529C332.496 239.111 333.979 238.279 335.5 238.508L424.156 251.845C426.149 252.145 427.433 254.119 426.898 256.062L406.87 328.858C406.405 330.547 404.722 331.596 403.002 331.27Z" fill="white" stroke="#B2C3FF" stroke-width="1.68123"/>
<path d="M406.047 392.639L281.636 367L281.636 505.006L406.047 544.677V392.639Z" fill="url(#paint2_linear)"/>
<path d="M364.531 410.054L364.531 407.083L395.312 413.768L395.312 416.71L364.531 410.054Z" fill="#F9759C"/>
<path d="M364.169 403.26L364.169 400.102L395.547 407.025L395.429 409.996L364.169 403.26Z" fill="#F9759C"/>
<path d="M284.672 392.356L284.673 389.385L304.753 393.632L304.753 396.575L284.672 392.356Z" fill="#F9759C"/>
<path d="M284.31 385.561L284.31 382.403L315.688 389.327L315.571 392.298L284.31 385.561Z" fill="#F9759C"/>
<path d="M358.553 265.439L336.276 261.656L342.161 248.206L363.176 251.568L358.553 265.439Z" fill="#B2C3FF"/>
<path d="M406.887 282.251L332.493 269.364L334.595 265.859L408.148 278.468L406.887 282.251Z" fill="#F3F3F3"/>
<path d="M405.206 287.295L330.812 274.408L332.913 270.903L406.467 283.512L405.206 287.295Z" fill="#F3F3F3"/>
<path d="M402.685 292.338L328.29 279.451L330.392 275.946L403.946 288.556L402.685 292.338Z" fill="#F3F3F3"/>
<path d="M390.916 318.397L316.521 305.511L318.623 302.005L392.177 314.615L390.916 318.397Z" fill="#C4C4C4"/>
<path d="M384.191 269.642L361.915 265.859L366.539 251.989L388.815 255.771L384.191 269.642Z" fill="#B2C3FF"/>
<path d="M409.41 274.265L387.133 270.482L391.757 256.612L414.033 260.395L409.41 274.265Z" fill="#B2C3FF"/>
<path d="M343.001 301.585L320.725 297.802L326.609 284.352L347.625 287.715L343.001 301.585Z" fill="#F9759C"/>
<path d="M368.64 305.788L346.364 302.005L350.987 288.135L373.263 291.918L368.64 305.788Z" fill="#F9759C"/>
<path d="M393.858 310.411L371.582 306.629L376.205 292.759L398.481 296.541L393.858 310.411Z" fill="#F9759C"/>
<path d="M406.047 393.212V543.5L525.415 484V131.36L465.311 170.029L461.948 315.455L406.047 393.212Z" fill="url(#paint3_linear)"/>
<path d="M401 119L327 154L465.311 170.029L525.415 131.36L401 119Z" fill="#F7F7F7"/>
<path d="M467.833 192.869L323.247 176.754V208.137L467.833 223.828V192.869Z" fill="#E0E3ED"/>
<path d="M467.832 192.869L529.197 153.637V185.02L467.832 223.828V192.869Z" fill="#485890"/>
<path d="M327.87 174.652L323.247 176.754L327.87 177.174V174.652Z" fill="#DADADA"/>
<path d="M525.415 153.637V156.158L529.197 153.637H525.415Z" fill="#C4C4C4"/>
<path d="M205.197 451.861C205.197 432.527 207.299 422.019 215.285 405.627C232.097 397.557 268.244 402.264 284.215 405.627C285.616 413.193 289.175 433.367 288.839 450.18C288.503 466.992 280.573 529.197 277.49 544.749C271.672 545.668 252.692 540.966 251.431 531.63C250.065 531.627 246.464 500.185 245.174 482.839C245.657 504.011 243.779 541.624 242.605 541.807C223.691 544.749 213.183 529.508 213.183 527.516C213.183 523.733 211.375 492.58 210.661 487.587C209.821 481.703 205.198 470.526 205.197 451.861Z" fill="#3C56C6"/>
<path d="M241.707 283.512C245.63 281.41 253.644 276.283 254.317 272.584C252.355 266.84 248.348 254.006 248.012 248.626C247.592 241.901 248.853 232.234 252.215 226.35C255.578 220.466 266.926 217.944 274.492 217.524C282.057 217.103 282.477 217.944 286.681 219.205C290.884 220.466 292.985 224.248 295.927 228.872C298.869 233.495 300.551 240.64 299.29 244.844C298.029 249.047 290.043 262.076 286.681 269.221C283.991 274.938 275.192 275.526 271.129 275.106C271.549 283.512 271.97 286.034 273.231 288.556C274.492 291.077 260.621 299.904 252.215 297.802C243.809 295.701 240.026 289.396 241.707 283.512Z" fill="#FCD8E3"/>
<path d="M329.972 371.777C326.273 370.768 300.551 355.805 292.985 349.921C292.985 346.222 305.034 337.732 311.058 333.949C319.184 340.954 336.361 354.88 340.06 354.544C343.758 354.208 365.979 353.563 376.626 352.863C376.626 350.341 383.772 346.978 387.134 344.457C390.497 341.935 392.178 344.457 393.439 346.978C394.7 349.5 395.12 354.544 393.439 357.906C391.757 361.269 383.351 363.37 379.989 363.791C376.626 364.211 368.641 367.573 357.292 369.255C345.944 370.936 334.596 373.037 329.972 371.777Z" fill="#FCD8E3"/>
<path d="M234.563 248.626C235.403 227.191 257.679 202.813 268.608 199.03C276.677 195.667 283.739 197.629 286.26 199.03C299.71 196.928 307.696 213.741 309.377 227.191C310.722 237.95 306.015 244.003 303.493 245.684C300.971 252.409 300.971 288.135 300.131 287.295C299.787 286.951 298.739 286.255 297.188 285.437C297.052 285.365 296.492 263.831 296.348 263.757L295.739 273.492C295.453 278.668 295.16 283.969 295.087 283.932C292.903 282.848 291.224 282.706 287.942 281.831C286.105 281.341 283.304 280.977 279.956 280.811V253.25L277.854 280.811C269.934 280.532 259.712 280.695 251.795 280.149C242.044 279.477 234.563 275.106 232.041 273.004C232.601 272.023 233.89 265.775 234.563 248.626Z" fill="#F9759C"/>
<path d="M218.17 394.473C220.988 383.906 221.112 376.82 220.272 370.936C219.431 365.052 212.706 338.993 208.924 323.861C205.141 308.73 208.503 297.802 211.866 294.02C215.228 290.237 226.576 286.454 231.62 285.193C235.655 284.184 240.587 283.372 242.548 282.671C241.988 285.754 242.464 293.011 250.534 295.701C258.604 298.391 270.148 291.218 272.81 288.135C277.013 292.899 286.512 302.93 290.883 304.948C296.347 307.469 310.733 327.502 311.058 328.485C319.464 341.094 300.551 351.181 292.985 351.181C291.68 349.177 290.267 347.158 288.899 345.324C289.289 346.052 289.551 346.756 289.623 347.399C290.043 351.181 283.318 359.588 282.477 362.95C281.637 366.313 282.057 402.039 284.159 411.286C278.414 415.348 279.115 421.793 271.129 429.779C262.871 438.037 221.532 441.968 214.808 425.156C211.989 418.108 212.194 411.984 213.596 406.662C214.87 401.827 216.489 400.778 218.17 394.473Z" fill="white"/>
<path d="M229.098 286.034C220.182 289.006 220.692 306.208 222.373 312.933C222.934 313.214 224.307 313.774 225.316 313.774C226.576 313.774 229.306 311.655 229.098 310.412C228.258 305.368 227.837 291.077 236.244 284.352C230.78 285.193 231.62 285.193 229.098 286.034Z" fill="#EDEDED"/>
<path d="M278.274 293.599C267.766 296.541 258.099 309.151 257.259 315.035C257.259 317.725 261.742 319.238 263.984 319.658C263.984 318.678 264.74 315.707 267.766 311.672C270.793 307.638 278.694 298.643 283.738 299.063L278.274 293.599Z" fill="#EDEDED"/>
<path d="M205.818 369.064C205.037 353.238 206.749 344.096 207.703 341.503C219.34 341.727 243.133 341.372 245.217 338.156C247.822 334.137 265.237 324.822 267.821 327.932C270.405 331.043 269.854 386.8 267.334 389.567C264.815 392.334 256.414 399.319 249.141 403.444C241.868 407.569 220.728 403.209 214.347 401.101C207.966 398.993 206.796 388.846 205.818 369.064Z" fill="#6386FF"/>
<path d="M227.467 310.398C222.929 311.159 217.851 314.345 215.879 315.843C214.744 316.508 211.39 319.988 207.064 328.591C201.655 339.344 204.337 350.496 208.503 357.892C211.42 363.069 225.896 363.066 236.14 363.755C248.233 364.57 251.419 356.335 255.087 346.354C257.958 338.542 264.688 333.511 267.957 328.987C266.723 326.532 266.348 318.346 259.562 315.081C250.966 310.944 233.139 309.446 227.467 310.398Z" fill="#F9759C"/>
<path d="M213.795 388.846C213.054 385.649 212.351 360.874 212.1 350.517L216.396 350.806L216.274 352.596C216.06 355.729 218.183 387.793 218.091 389.136C217.999 390.478 214.535 392.044 213.795 388.846Z" fill="#EDEDED"/>
<path d="M233.129 390.148C232.484 386.958 232.019 362.199 231.864 351.847L235.73 352.108L235.608 353.898C235.394 357.031 237.087 389.066 236.995 390.409C236.904 391.751 233.774 393.339 233.129 390.148Z" fill="#EDEDED"/>
<path d="M222.423 395.294C210.844 393.629 206.49 388.909 206.205 386.234C205.874 391.081 208.094 399.642 211.112 403.387C214.13 407.132 225.74 408.356 225.74 408.356C225.74 408.356 241.509 410.303 247.247 408.476C252.984 406.649 266.52 393.394 267.511 392.575C268.304 391.921 268.545 382.02 268.566 377.152C268.566 377.152 255.091 389.526 249.263 392.675C243.435 395.824 232.858 396.795 222.423 395.294Z" fill="#3C56C6"/>
<defs>
<linearGradient id="paint0_linear" x1="623.035" y1="235.598" x2="78.7381" y2="338.583" gradientUnits="userSpaceOnUse">
<stop stop-color="#4066EA"/>
<stop offset="1" stop-color="#4066EA" stop-opacity="0.4"/>
</linearGradient>
<linearGradient id="paint1_linear" x1="373.473" y1="448" x2="373.473" y2="532.5" gradientUnits="userSpaceOnUse">
<stop stop-color="#F3F3F3"/>
<stop offset="1" stop-color="#F3F3F3" stop-opacity="0"/>
</linearGradient>
<linearGradient id="paint2_linear" x1="378.198" y1="356.677" x2="341.198" y2="487.177" gradientUnits="userSpaceOnUse">
<stop stop-color="#DDDFE5"/>
<stop offset="1" stop-color="#D0DAFF" stop-opacity="0"/>
</linearGradient>
<linearGradient id="paint3_linear" x1="453" y1="358" x2="519.5" y2="483" gradientUnits="userSpaceOnUse">
<stop stop-color="#6C7DB9"/>
<stop offset="1" stop-color="white"/>
</linearGradient>
</defs>
</svg>
