<svg width="800" height="600" viewBox="0 0 800 600" fill="none" xmlns="http://www.w3.org/2000/svg">
<rect width="800" height="600" fill="white"/>
<path d="M207.03 374.295C256.644 429.316 298.609 387.04 346.764 364.01C430.638 323.898 526.767 423.349 569.911 370.169C601.865 330.783 573.64 229.314 506.265 182.279C447.592 141.319 381.893 141.768 304.441 175.185C221.952 210.776 153.636 315.083 207.03 374.295Z" fill="url(#paint0_linear)" fill-opacity="0.1"/>
<ellipse cx="491.004" cy="488.389" rx="68.034" ry="14.6688" transform="rotate(1.05046 491.004 488.389)" fill="#F3F3F3"/>
<path d="M161.338 450.935H304.035L407.088 515.241H260.076C249.229 515.241 238.584 512.3 229.275 506.731L157.744 463.942C151.647 460.295 154.233 450.935 161.338 450.935Z" fill="url(#paint1_linear)"/>
<mask id="mask0" mask-type="alpha" maskUnits="userSpaceOnUse" x="542" y="422" width="107" height="79">
<ellipse cx="595.459" cy="461.573" rx="20.5" ry="49" transform="rotate(65.5228 595.459 461.573)" fill="#F4A0D7"/>
</mask>
<g mask="url(#mask0)">
<ellipse cx="601.674" cy="475.225" rx="20.5" ry="49" transform="rotate(65.5228 601.674 475.225)" fill="#FCE1E9"/>
</g>
<mask id="mask1" mask-type="alpha" maskUnits="userSpaceOnUse" x="534" y="395" width="93" height="104">
<ellipse cx="580.692" cy="447.347" rx="20.5" ry="49" transform="rotate(37.5274 580.692 447.347)" fill="#C4C4C4"/>
</mask>
<g mask="url(#mask1)">
<ellipse cx="592.588" cy="456.485" rx="20.5" ry="49" transform="rotate(37.5274 592.588 456.485)" fill="#FFBDD1"/>
</g>
<mask id="mask2" mask-type="alpha" maskUnits="userSpaceOnUse" x="538" y="405" width="38" height="86">
<ellipse cx="556.792" cy="448.056" rx="17.7673" ry="42.4682" transform="rotate(6.97287 556.792 448.056)" fill="#8D8D8D"/>
</mask>
<g mask="url(#mask2)">
<ellipse cx="569.696" cy="449.634" rx="17.7673" ry="42.4682" transform="rotate(6.97287 569.696 449.634)" fill="#F9759C"/>
</g>
<path d="M258.456 424.71C276.324 442.532 280.088 476.334 279.736 491.008C270.59 476.012 250.456 454.295 236.495 445.642C225.747 438.98 201.765 410.362 192.302 392.912C200.759 405.256 236.12 402.434 258.456 424.71Z" fill="#6785EF"/>
<path d="M229.902 442.933C254.057 450.242 273.477 477.776 280.167 490.63C265.002 481.808 237.005 472.157 220.646 471.007C208.052 470.121 173.393 456.247 156.778 445.446C170.075 452.287 199.708 433.798 229.902 442.933Z" fill="#6785EF" fill-opacity="0.6"/>
<path d="M461.463 360.157L471.417 355.396V345.442L457.568 351.934L461.463 360.157Z" fill="#FCD8E3"/>
<path d="M424.242 329.861L432.032 325.966L435.495 332.458L428.57 336.353L424.242 329.861Z" fill="#FCD8E3"/>
<path d="M457.568 364.485L461.896 360.157L458.433 351.934C457.279 352.367 454.538 353.146 452.807 352.8C450.643 352.367 447.18 352.8 445.449 354.098C443.718 355.396 444.151 357.56 445.449 360.157C446.488 362.235 453.961 363.908 457.568 364.485Z" fill="#FCD8E3"/>
<path d="M424.675 329.861L429.003 336.353C428.57 336.642 427.358 337.392 425.973 338.084C424.242 338.95 422.078 340.248 420.78 340.681C419.481 341.114 418.183 340.681 414.721 336.353C411.951 332.891 414.721 331.16 416.452 330.727C416.596 330.438 417.144 329.861 418.183 329.861H424.675Z" fill="#FCD8E3"/>
<path d="M458 310.385L481.371 288.745C484.978 288.745 491.499 291.515 492.191 297.401C492.884 303.287 487.575 308.51 484.834 310.385L462.328 324.235L433.331 334.189L430.301 325.533L458 310.385Z" fill="#B2C3FF"/>
<path d="M498.683 275.329L496.952 281.821L499.982 290.044L512.966 284.418V272.732L498.683 275.329Z" fill="#FCD8E3"/>
<path d="M492.191 267.538C492.191 269.616 496.808 273.886 499.116 275.762C502.723 275.762 510.542 275.069 512.966 272.299C515.995 268.837 518.592 257.584 519.458 252.823C520.323 248.062 512.966 242.869 509.071 241.571C505.175 240.272 500.847 243.302 497.385 248.062C493.923 252.823 492.191 264.942 492.191 267.538Z" fill="#FCD8E3"/>
<path d="M507.772 274.463C508.732 273.184 500.166 268.73 494.419 267.716C493.599 267.571 492.624 268.004 492.624 268.837C492.624 269.27 498.251 276.627 498.251 276.627L497.818 279.224C498.683 279.368 501.713 278.791 501.713 278.791C501.713 278.791 506.474 276.194 507.772 274.463Z" fill="#EDD2E4"/>
<path d="M475.312 309.953C474.966 306.144 479.208 294.228 481.371 288.745L494.355 283.985L497.49 279.657L499.354 286.908L503.548 282.714L515.197 278.986C515.053 281.294 519.111 286.322 521.189 288.745C523.786 291.775 525.084 304.326 525.084 309.953C525.084 314.454 518.448 347.317 515.13 363.187C512.966 363.764 506.82 365.004 499.549 365.351C492.278 365.697 482.958 361.456 479.207 359.292C478.053 344.432 475.659 313.761 475.312 309.953Z" fill="#B2C3FF"/>
<path d="M515.197 278.986L512.966 278.52V279.716L515.197 278.986Z" fill="#DADADA"/>
<path d="M462.21 478.744C462.681 478.274 465.791 475.281 466.92 472.005C468.097 473.376 471.394 473.65 472.807 473.18C474.22 472.71 475.826 471.5 476.611 470.521C478.573 473.654 482.462 479.291 481.049 480.231L474.573 483.757C471.826 485.127 465.507 488.104 462.21 489.045C458.913 489.985 454.164 489.436 452.201 489.045C452.005 488.261 451.73 487.079 452.201 485.668C452.79 483.906 461.621 479.331 462.21 478.744Z" fill="#2B3A7C"/>
<path d="M503.014 489.131C504.052 487.4 504.6 480.042 504.745 476.58L506.043 473.983H513.833L514.699 478.744V487.833C514.699 489.996 515.565 495.19 514.699 496.056C513.833 496.921 510.804 498.652 506.043 498.22C501.282 497.787 501.715 491.295 503.014 489.131Z" fill="#2B3A7C"/>
<path d="M455.404 413.824C456.096 410.362 471.561 370.939 478.775 353.772V348.145C482.381 349.3 488.691 351.144 495.654 351.608C502.146 352.041 514.498 352.473 517.527 351.608L516.662 356.801L516.229 374.979L512.334 424.644L514.697 473.983C514.697 475.137 513.918 477.445 510.802 477.445C507.686 477.445 505.752 476.58 505.175 476.147L492.624 425.942L488.17 388.027L473.148 424.211L477.044 470.953C476.466 471.675 474.62 473.637 471.85 473.983C469.08 474.329 467.089 474.127 466.656 473.117C462.905 456.815 454.711 417.286 455.404 413.824Z" fill="#3C56C6"/>
<path d="M513.831 296.536C511.235 300.431 506.041 312.117 506.041 312.117C506.041 312.117 496.952 326.399 493.923 328.996C490.893 331.592 466.656 345.875 466.656 345.875L471.85 357.128L504.31 341.547C504.31 341.547 523.353 328.13 526.815 320.773C530.278 313.415 531.576 308.221 530.71 302.162C529.845 296.103 522.487 290.909 522.487 290.909C522.487 290.909 516.428 292.641 513.831 296.536Z" fill="url(#paint2_linear)"/>
<path d="M497.36 248.013C496.483 246.259 494.582 242.458 496.519 239.407C499.006 235.488 503.144 234.129 507.772 233.78C511.935 233.466 515.13 236.81 517.294 238.541C520.756 238.108 523.353 242.003 524.218 245.033C525.084 248.062 524.218 253.689 522.487 256.718C521.102 259.142 516.716 266.529 515.562 267.971C516.861 265.374 517.496 261.102 518.592 256.718C519.458 253.256 515.995 246.764 514.264 244.6C512.1 245.033 509.676 244.081 505.175 243.735C500.674 243.388 498.683 246.764 497.385 248.062L497.36 248.013Z" fill="#3049A0"/>
<path d="M496.087 288.246L498.422 283.18L499.354 286.908L503.548 282.714L503.011 289.112L499.354 286.908L496.087 288.246Z" fill="#97ADF9"/>
<path d="M461.03 354.098L459.299 351.068L463.194 349.337L464.925 352.367L461.03 354.098Z" fill="#293253"/>
<path d="M463.194 359.292L461.895 356.695L466.223 354.964L467.522 357.56L463.194 359.292Z" fill="#293253"/>
<circle cx="463.194" cy="354.531" r="3.46238" fill="#B2C3FF"/>
<path d="M453.745 375.609C445.328 416.088 424.662 510.233 414.137 512.274L407.267 509.148C400.759 506.684 363.361 428.563 342.056 388.669C350.559 367.359 361.351 323.229 365.594 305.257C366.492 301.456 370.912 299.71 374.162 301.878L441.983 347.11C451.346 353.354 456.037 364.592 453.745 375.609Z" fill="#6386FF"/>
<path d="M270.655 318.239C269.105 322.011 296.603 436.723 303 450C311.274 456.875 376.169 499.309 390.308 507.236C407.982 517.144 410.435 514.943 414.559 512.259C405.69 512.108 382.866 424.05 374.405 390.141C372.291 381.669 367.373 374.22 360.337 369.05C338.612 353.087 291.198 318.513 283.634 315.23C273.766 310.947 272.594 313.523 270.655 318.239Z" fill="#DAE2FF"/>
<path d="M394.973 511.047C386.585 505.921 342.11 477.154 318.5 461C318.5 461 342.316 459.788 352.102 444.411C361.888 429.033 372.398 383.367 365.15 373.581C371.674 380.105 372.14 380.571 375.401 394.55C378.663 408.53 389.381 446.275 397.303 473.768C401.599 488.68 411.593 511.047 414.078 512.445C408.952 516.639 401.917 515.291 394.973 511.047Z" fill="#3C56C6" fill-opacity="0.2"/>
<path d="M302.473 322.373C302.865 333.07 305.607 356.719 307.153 373.583C307.317 375.37 308.323 376.97 309.866 377.886L331.539 390.752C333.506 391.921 335.964 390.352 335.728 388.076C333.75 369.033 331.127 344.834 330.696 333.073C330.135 317.75 326.21 304.106 317.097 300.798C307.985 297.49 301.878 306.118 302.473 322.373Z" fill="#BAC6F4"/>
<ellipse cx="315.71" cy="321.198" rx="8.43878" ry="13.0801" transform="rotate(-4.82116 315.71 321.198)" fill="white"/>
<path d="M335.086 106.105C324.41 118.656 303.145 154.318 303.491 196.56C303.924 249.361 322.102 275.762 335.086 295.67C348.07 315.579 348.503 341.114 344.607 355.396" stroke="#F9B2C8" stroke-width="2.78633" stroke-linecap="round" stroke-linejoin="round" stroke-dasharray="9.29 13.93"/>
<path d="M383.789 421.578C434.582 389.425 439.823 313.848 429.869 277.926C417.071 231.744 380.089 219.003 382.694 178.815C383.841 161.106 400.438 140.729 400.438 140.729" stroke="#F9B2C8" stroke-width="2.78633" stroke-linecap="round" stroke-linejoin="round" stroke-dasharray="9.29 13.93"/>
<path d="M377.265 396.414C403.361 354.01 394.402 326.05 376.333 304.149C345.169 266.374 287.33 304.149 254.711 269.666" stroke="#F9B2C8" stroke-width="2.78633" stroke-linecap="round" stroke-linejoin="round" stroke-dasharray="9.29 13.93"/>
<path d="M390.484 117.79L400.871 112.164L419.048 155.877L407.796 159.772C403.901 158.329 395.418 153.02 390.917 143.325C386.416 133.631 388.753 121.686 390.484 117.79Z" fill="url(#paint3_linear)"/>
<ellipse cx="409.094" cy="134.237" rx="15.1479" ry="23.8039" transform="rotate(-22.8095 409.094 134.237)" fill="#F9AEC5"/>
<path d="M220.5 253C221 247.5 221.007 249.231 221.007 249.231L263.5 245.5C263.5 245.5 264.73 258.594 261.701 265.074C258.671 271.554 249.069 279.808 237.5 278C221.5 275.5 220 258.5 220.5 253Z" fill="url(#paint4_linear)"/>
<ellipse rx="21.4262" ry="24.347" transform="matrix(0.99566 0.0930659 -0.117529 0.993069 242.172 249.706)" fill="#F9AEC5"/>
<path d="M373.53 342.942L373.53 338.306L406.662 337.884L403.65 346.314C401.307 349.864 396.622 353.939 387.586 353.268C378.55 352.597 374.534 346.735 373.53 342.942Z" fill="url(#paint5_linear)"/>
<ellipse rx="16.5321" ry="13.4306" transform="matrix(0.997814 0.0660853 -0.164745 0.986336 389.896 336.662)" fill="#F9AEC5"/>
<path d="M389.53 238.423L394.6 230.445L439.66 261.623L433.044 269.815C428.278 270.804 415.864 270.025 405.012 261.718C395.447 254.396 389.492 244.245 389.53 238.423Z" fill="url(#paint6_linear)"/>
<ellipse cx="416.982" cy="246.21" rx="14.0852" ry="27.3563" transform="rotate(-55.2278 416.982 246.21)" fill="#F9AEC5"/>
<path d="M286.677 173.517L281.733 166.759L336.51 135.937L340.435 144.727C338.435 148.586 330.158 157.4 317.85 163.446C305.025 169.747 291.849 175.345 286.677 173.517Z" fill="url(#paint7_linear)"/>
<ellipse cx="308.928" cy="151.147" rx="6.45467" ry="31.2551" transform="rotate(61.0854 308.928 151.147)" fill="#F9AEC5"/>
<defs>
<linearGradient id="paint0_linear" x1="570.85" y1="248.399" x2="186.105" y2="321.196" gradientUnits="userSpaceOnUse">
<stop stop-color="#4066EA"/>
<stop offset="1" stop-color="#4066EA" stop-opacity="0.4"/>
</linearGradient>
<linearGradient id="paint1_linear" x1="342" y1="475.5" x2="240.5" y2="476" gradientUnits="userSpaceOnUse">
<stop stop-color="#F3F3F3"/>
<stop offset="1" stop-color="#F3F3F3" stop-opacity="0"/>
</linearGradient>
<linearGradient id="paint2_linear" x1="522.92" y1="291.342" x2="476.178" y2="357.128" gradientUnits="userSpaceOnUse">
<stop stop-color="#97ACF8"/>
<stop offset="1" stop-color="#B2C3FF"/>
</linearGradient>
<linearGradient id="paint3_linear" x1="399.14" y1="112.164" x2="419.049" y2="157.608" gradientUnits="userSpaceOnUse">
<stop stop-color="#F9AEC5"/>
<stop offset="0.508287" stop-color="#FFDAE6"/>
<stop offset="1" stop-color="#F9AEC5"/>
</linearGradient>
<linearGradient id="paint4_linear" x1="223.243" y1="261.611" x2="260.97" y2="276.554" gradientUnits="userSpaceOnUse">
<stop stop-color="#F9AEC5"/>
<stop offset="0.508287" stop-color="#FFDAE6"/>
<stop offset="1" stop-color="#F9AEC5"/>
</linearGradient>
<linearGradient id="paint5_linear" x1="375.26" y1="343.479" x2="400.973" y2="357.854" gradientUnits="userSpaceOnUse">
<stop stop-color="#F9AEC5"/>
<stop offset="0.508287" stop-color="#FFDDE7"/>
<stop offset="1" stop-color="#F9AEC5"/>
</linearGradient>
<linearGradient id="paint6_linear" x1="395.761" y1="229.658" x2="440.65" y2="262.833" gradientUnits="userSpaceOnUse">
<stop stop-color="#F9AEC5"/>
<stop offset="0.508287" stop-color="#FFDCE7"/>
<stop offset="1" stop-color="#F9AEC5"/>
</linearGradient>
<linearGradient id="paint7_linear" x1="277.927" y1="162.761" x2="332.414" y2="132.225" gradientUnits="userSpaceOnUse">
<stop stop-color="#F9AEC5"/>
<stop offset="0.508287" stop-color="#FFDCE7"/>
<stop offset="1" stop-color="#F9AEC5"/>
</linearGradient>
</defs>
</svg>
