<?xml version="1.0" encoding="UTF-8"?>
<svg width="1440px" height="1024px" viewBox="0 0 1440 1024" version="1.1" xmlns="http://www.w3.org/2000/svg" xmlns:xlink="http://www.w3.org/1999/xlink">
    <!-- Generator: Sketch 53.2 (72643) - https://sketchapp.com -->
    <title>Presentation</title>
    <desc>Created with Sketch.</desc>
    <defs>
        <linearGradient x1="8.40190948%" y1="13.1381206%" x2="56.5670661%" y2="50%" id="linearGradient-1">
            <stop stop-color="#CFE49F" offset="0%"></stop>
            <stop stop-color="#A9D386" offset="100%"></stop>
        </linearGradient>
        <linearGradient x1="4.76643799%" y1="37.0482836%" x2="100%" y2="65.4882422%" id="linearGradient-2">
            <stop stop-color="#6EAE7C" offset="0%"></stop>
            <stop stop-color="#0F575D" offset="100%"></stop>
        </linearGradient>
        <linearGradient x1="36.1309735%" y1="13.1381206%" x2="52.1894951%" y2="50%" id="linearGradient-3">
            <stop stop-color="#CFE49F" offset="0%"></stop>
            <stop stop-color="#A9D386" offset="100%"></stop>
        </linearGradient>
        <linearGradient x1="34.1151714%" y1="33.7956635%" x2="64.8333502%" y2="52.4329662%" id="linearGradient-4">
            <stop stop-color="#77D791" offset="0%"></stop>
            <stop stop-color="#4FA67E" offset="100%"></stop>
        </linearGradient>
        <linearGradient x1="4.78713616%" y1="24.563533%" x2="99.9771208%" y2="80.4180658%" id="linearGradient-5">
            <stop stop-color="#6EAE7C" offset="0%"></stop>
            <stop stop-color="#0F575D" offset="100%"></stop>
        </linearGradient>
        <linearGradient x1="50%" y1="7.26438915%" x2="50%" y2="151.05781%" id="linearGradient-6">
            <stop stop-color="#D0F6FF" offset="0%"></stop>
            <stop stop-color="#8BE2F7" offset="100%"></stop>
        </linearGradient>
        <linearGradient x1="50%" y1="0%" x2="50%" y2="100%" id="linearGradient-7">
            <stop stop-color="#FF9485" offset="0%"></stop>
            <stop stop-color="#FF676E" offset="100%"></stop>
        </linearGradient>
        <linearGradient x1="50%" y1="106.060832%" x2="50%" y2="2.77555756e-15%" id="linearGradient-8">
            <stop stop-color="#CAF6FD" offset="0%"></stop>
            <stop stop-color="#FFFFFF" offset="100%"></stop>
        </linearGradient>
        <linearGradient x1="50%" y1="7.26438915%" x2="50%" y2="151.05781%" id="linearGradient-9">
            <stop stop-color="#D0F6FF" offset="0%"></stop>
            <stop stop-color="#8BE2F7" offset="100%"></stop>
        </linearGradient>
        <linearGradient x1="50%" y1="50.6688453%" x2="50.9350565%" y2="49.7482178%" id="linearGradient-10">
            <stop stop-color="#2B3389" offset="0%"></stop>
            <stop stop-color="#444FB7" offset="100%"></stop>
        </linearGradient>
        <linearGradient x1="50%" y1="0%" x2="50%" y2="100%" id="linearGradient-11">
            <stop stop-color="#FF9485" offset="0%"></stop>
            <stop stop-color="#FF676E" offset="100%"></stop>
        </linearGradient>
        <linearGradient x1="50%" y1="-27.3641552%" x2="50%" y2="100%" id="linearGradient-12">
            <stop stop-color="#C0E4FD" offset="0%"></stop>
            <stop stop-color="#72B9FE" offset="100%"></stop>
        </linearGradient>
        <linearGradient x1="50%" y1="0%" x2="50%" y2="100%" id="linearGradient-13">
            <stop stop-color="#1D2A78" offset="0%"></stop>
            <stop stop-color="#12033B" offset="100%"></stop>
        </linearGradient>
        <linearGradient x1="50%" y1="-27.3641552%" x2="50%" y2="100%" id="linearGradient-14">
            <stop stop-color="#C0E4FD" offset="0%"></stop>
            <stop stop-color="#72B9FE" offset="100%"></stop>
        </linearGradient>
        <linearGradient x1="82.5767258%" y1="-52.951376%" x2="82.5767258%" y2="186.664812%" id="linearGradient-15">
            <stop stop-color="#1533B6" offset="0%"></stop>
            <stop stop-color="#356BE9" offset="100%"></stop>
        </linearGradient>
        <linearGradient x1="50%" y1="0%" x2="50%" y2="100%" id="linearGradient-16">
            <stop stop-color="#FF9485" offset="0%"></stop>
            <stop stop-color="#FF676E" offset="100%"></stop>
        </linearGradient>
        <linearGradient x1="50%" y1="0%" x2="50%" y2="100%" id="linearGradient-17">
            <stop stop-color="#1D2A78" offset="0%"></stop>
            <stop stop-color="#12033B" offset="100%"></stop>
        </linearGradient>
    </defs>
    <g id="Presentation" stroke="none" stroke-width="1" fill="none" fill-rule="evenodd">
        <rect fill="#FFFFFF" x="0" y="0" width="1440" height="1024"></rect>
        <g id="Ornament" transform="translate(60.000000, 69.000000)">
            <path d="M1129.81761,601.579399 C1129.81761,604.01417 1127.84372,605.987942 1125.40881,605.987942 C1122.97389,605.987942 1121,604.01417 1121,601.579399 C1121,599.144628 1122.97389,597.170856 1125.40881,597.170856 C1127.84372,597.170856 1129.81761,599.144628 1129.81761,601.579399 Z M1129.81761,583.945228 C1129.81761,586.379999 1127.84372,588.353771 1125.40881,588.353771 C1122.97389,588.353771 1121,586.379999 1121,583.945228 C1121,581.510457 1122.97389,579.536685 1125.40881,579.536685 C1127.84372,579.536685 1129.81761,581.510457 1129.81761,583.945228 Z M1129.81761,566.311057 C1129.81761,568.745828 1127.84372,570.719599 1125.40881,570.719599 C1122.97389,570.719599 1121,568.745828 1121,566.311057 C1121,563.876286 1122.97389,561.902514 1125.40881,561.902514 C1127.84372,561.902514 1129.81761,563.876286 1129.81761,566.311057 Z M1129.81761,548.676885 C1129.81761,551.111656 1127.84372,553.085428 1125.40881,553.085428 C1122.97389,553.085428 1121,551.111656 1121,548.676885 C1121,546.242114 1122.97389,544.268343 1125.40881,544.268343 C1127.84372,544.268343 1129.81761,546.242114 1129.81761,548.676885 Z M1129.81761,531.042714 C1129.81761,533.477485 1127.84372,535.451257 1125.40881,535.451257 C1122.97389,535.451257 1121,533.477485 1121,531.042714 C1121,528.607943 1122.97389,526.634171 1125.40881,526.634171 C1127.84372,526.634171 1129.81761,528.607943 1129.81761,531.042714 Z M1129.81761,513.408543 C1129.81761,515.843314 1127.84372,517.817086 1125.40881,517.817086 C1122.97389,517.817086 1121,515.843314 1121,513.408543 C1121,510.973772 1122.97389,509 1125.40881,509 C1127.84372,509 1129.81761,510.973772 1129.81761,513.408543 Z M1147.45284,601.579399 C1147.45284,604.01417 1145.47895,605.987942 1143.04404,605.987942 C1140.60912,605.987942 1138.63523,604.01417 1138.63523,601.579399 C1138.63523,599.144628 1140.60912,597.170856 1143.04404,597.170856 C1145.47895,597.170856 1147.45284,599.144628 1147.45284,601.579399 Z M1147.45284,583.945228 C1147.45284,586.379999 1145.47895,588.353771 1143.04404,588.353771 C1140.60912,588.353771 1138.63523,586.379999 1138.63523,583.945228 C1138.63523,581.510457 1140.60912,579.536685 1143.04404,579.536685 C1145.47895,579.536685 1147.45284,581.510457 1147.45284,583.945228 Z M1147.45284,566.311057 C1147.45284,568.745828 1145.47895,570.719599 1143.04404,570.719599 C1140.60912,570.719599 1138.63523,568.745828 1138.63523,566.311057 C1138.63523,563.876286 1140.60912,561.902514 1143.04404,561.902514 C1145.47895,561.902514 1147.45284,563.876286 1147.45284,566.311057 Z M1147.45284,548.676885 C1147.45284,551.111656 1145.47895,553.085428 1143.04404,553.085428 C1140.60912,553.085428 1138.63523,551.111656 1138.63523,548.676885 C1138.63523,546.242114 1140.60912,544.268343 1143.04404,544.268343 C1145.47895,544.268343 1147.45284,546.242114 1147.45284,548.676885 Z M1147.45284,531.042714 C1147.45284,533.477485 1145.47895,535.451257 1143.04404,535.451257 C1140.60912,535.451257 1138.63523,533.477485 1138.63523,531.042714 C1138.63523,528.607943 1140.60912,526.634171 1143.04404,526.634171 C1145.47895,526.634171 1147.45284,528.607943 1147.45284,531.042714 Z M1147.45284,513.408543 C1147.45284,515.843314 1145.47895,517.817086 1143.04404,517.817086 C1140.60912,517.817086 1138.63523,515.843314 1138.63523,513.408543 C1138.63523,510.973772 1140.60912,509 1143.04404,509 C1145.47895,509 1147.45284,510.973772 1147.45284,513.408543 Z M1165.08807,601.579399 C1165.08807,604.01417 1163.11418,605.987942 1160.67927,605.987942 C1158.24435,605.987942 1156.27046,604.01417 1156.27046,601.579399 C1156.27046,599.144628 1158.24435,597.170856 1160.67927,597.170856 C1163.11418,597.170856 1165.08807,599.144628 1165.08807,601.579399 Z M1165.08807,583.945228 C1165.08807,586.379999 1163.11418,588.353771 1160.67927,588.353771 C1158.24435,588.353771 1156.27046,586.379999 1156.27046,583.945228 C1156.27046,581.510457 1158.24435,579.536685 1160.67927,579.536685 C1163.11418,579.536685 1165.08807,581.510457 1165.08807,583.945228 Z M1165.08807,566.311057 C1165.08807,568.745828 1163.11418,570.719599 1160.67927,570.719599 C1158.24435,570.719599 1156.27046,568.745828 1156.27046,566.311057 C1156.27046,563.876286 1158.24435,561.902514 1160.67927,561.902514 C1163.11418,561.902514 1165.08807,563.876286 1165.08807,566.311057 Z M1165.08807,548.676885 C1165.08807,551.111656 1163.11418,553.085428 1160.67927,553.085428 C1158.24435,553.085428 1156.27046,551.111656 1156.27046,548.676885 C1156.27046,546.242114 1158.24435,544.268343 1160.67927,544.268343 C1163.11418,544.268343 1165.08807,546.242114 1165.08807,548.676885 Z M1165.08807,531.042714 C1165.08807,533.477485 1163.11418,535.451257 1160.67927,535.451257 C1158.24435,535.451257 1156.27046,533.477485 1156.27046,531.042714 C1156.27046,528.607943 1158.24435,526.634171 1160.67927,526.634171 C1163.11418,526.634171 1165.08807,528.607943 1165.08807,531.042714 Z M1165.08807,513.408543 C1165.08807,515.843314 1163.11418,517.817086 1160.67927,517.817086 C1158.24435,517.817086 1156.27046,515.843314 1156.27046,513.408543 C1156.27046,510.973772 1158.24435,509 1160.67927,509 C1163.11418,509 1165.08807,510.973772 1165.08807,513.408543 Z M1182.7233,601.579399 C1182.7233,604.01417 1180.74941,605.987942 1178.31449,605.987942 C1175.87958,605.987942 1173.90569,604.01417 1173.90569,601.579399 C1173.90569,599.144628 1175.87958,597.170856 1178.31449,597.170856 C1180.74941,597.170856 1182.7233,599.144628 1182.7233,601.579399 Z M1182.7233,583.945228 C1182.7233,586.379999 1180.74941,588.353771 1178.31449,588.353771 C1175.87958,588.353771 1173.90569,586.379999 1173.90569,583.945228 C1173.90569,581.510457 1175.87958,579.536685 1178.31449,579.536685 C1180.74941,579.536685 1182.7233,581.510457 1182.7233,583.945228 Z M1182.7233,566.311057 C1182.7233,568.745828 1180.74941,570.719599 1178.31449,570.719599 C1175.87958,570.719599 1173.90569,568.745828 1173.90569,566.311057 C1173.90569,563.876286 1175.87958,561.902514 1178.31449,561.902514 C1180.74941,561.902514 1182.7233,563.876286 1182.7233,566.311057 Z M1182.7233,548.676885 C1182.7233,551.111656 1180.74941,553.085428 1178.31449,553.085428 C1175.87958,553.085428 1173.90569,551.111656 1173.90569,548.676885 C1173.90569,546.242114 1175.87958,544.268343 1178.31449,544.268343 C1180.74941,544.268343 1182.7233,546.242114 1182.7233,548.676885 Z M1182.7233,531.042714 C1182.7233,533.477485 1180.74941,535.451257 1178.31449,535.451257 C1175.87958,535.451257 1173.90569,533.477485 1173.90569,531.042714 C1173.90569,528.607943 1175.87958,526.634171 1178.31449,526.634171 C1180.74941,526.634171 1182.7233,528.607943 1182.7233,531.042714 Z M1182.7233,513.408543 C1182.7233,515.843314 1180.74941,517.817086 1178.31449,517.817086 C1175.87958,517.817086 1173.90569,515.843314 1173.90569,513.408543 C1173.90569,510.973772 1175.87958,509 1178.31449,509 C1180.74941,509 1182.7233,510.973772 1182.7233,513.408543 Z M1200.35853,601.579399 C1200.35853,604.01417 1198.38464,605.987942 1195.94972,605.987942 C1193.51481,605.987942 1191.54092,604.01417 1191.54092,601.579399 C1191.54092,599.144628 1193.51481,597.170856 1195.94972,597.170856 C1198.38464,597.170856 1200.35853,599.144628 1200.35853,601.579399 Z M1200.35853,583.945228 C1200.35853,586.379999 1198.38464,588.353771 1195.94972,588.353771 C1193.51481,588.353771 1191.54092,586.379999 1191.54092,583.945228 C1191.54092,581.510457 1193.51481,579.536685 1195.94972,579.536685 C1198.38464,579.536685 1200.35853,581.510457 1200.35853,583.945228 Z M1200.35853,566.311057 C1200.35853,568.745828 1198.38464,570.719599 1195.94972,570.719599 C1193.51481,570.719599 1191.54092,568.745828 1191.54092,566.311057 C1191.54092,563.876286 1193.51481,561.902514 1195.94972,561.902514 C1198.38464,561.902514 1200.35853,563.876286 1200.35853,566.311057 Z M1200.35853,548.676885 C1200.35853,551.111656 1198.38464,553.085428 1195.94972,553.085428 C1193.51481,553.085428 1191.54092,551.111656 1191.54092,548.676885 C1191.54092,546.242114 1193.51481,544.268343 1195.94972,544.268343 C1198.38464,544.268343 1200.35853,546.242114 1200.35853,548.676885 Z M1200.35853,531.042714 C1200.35853,533.477485 1198.38464,535.451257 1195.94972,535.451257 C1193.51481,535.451257 1191.54092,533.477485 1191.54092,531.042714 C1191.54092,528.607943 1193.51481,526.634171 1195.94972,526.634171 C1198.38464,526.634171 1200.35853,528.607943 1200.35853,531.042714 Z M1200.35853,513.408543 C1200.35853,515.843314 1198.38464,517.817086 1195.94972,517.817086 C1193.51481,517.817086 1191.54092,515.843314 1191.54092,513.408543 C1191.54092,510.973772 1193.51481,509 1195.94972,509 C1198.38464,509 1200.35853,510.973772 1200.35853,513.408543 Z M1217.99376,601.579399 C1217.99376,604.01417 1216.01987,605.987942 1213.58495,605.987942 C1211.15004,605.987942 1209.17615,604.01417 1209.17615,601.579399 C1209.17615,599.144628 1211.15004,597.170856 1213.58495,597.170856 C1216.01987,597.170856 1217.99376,599.144628 1217.99376,601.579399 Z M1217.99376,583.945228 C1217.99376,586.379999 1216.01987,588.353771 1213.58495,588.353771 C1211.15004,588.353771 1209.17615,586.379999 1209.17615,583.945228 C1209.17615,581.510457 1211.15004,579.536685 1213.58495,579.536685 C1216.01987,579.536685 1217.99376,581.510457 1217.99376,583.945228 Z M1217.99376,566.311057 C1217.99376,568.745828 1216.01987,570.719599 1213.58495,570.719599 C1211.15004,570.719599 1209.17615,568.745828 1209.17615,566.311057 C1209.17615,563.876286 1211.15004,561.902514 1213.58495,561.902514 C1216.01987,561.902514 1217.99376,563.876286 1217.99376,566.311057 Z M1217.99376,548.676885 C1217.99376,551.111656 1216.01987,553.085428 1213.58495,553.085428 C1211.15004,553.085428 1209.17615,551.111656 1209.17615,548.676885 C1209.17615,546.242114 1211.15004,544.268343 1213.58495,544.268343 C1216.01987,544.268343 1217.99376,546.242114 1217.99376,548.676885 Z M1217.99376,531.042714 C1217.99376,533.477485 1216.01987,535.451257 1213.58495,535.451257 C1211.15004,535.451257 1209.17615,533.477485 1209.17615,531.042714 C1209.17615,528.607943 1211.15004,526.634171 1213.58495,526.634171 C1216.01987,526.634171 1217.99376,528.607943 1217.99376,531.042714 Z M1217.99376,513.408543 C1217.99376,515.843314 1216.01987,517.817086 1213.58495,517.817086 C1211.15004,517.817086 1209.17615,515.843314 1209.17615,513.408543 C1209.17615,510.973772 1211.15004,509 1213.58495,509 C1216.01987,509 1217.99376,510.973772 1217.99376,513.408543 Z" id="Shape" fill="#CDCBDF"></path>
            <path d="M280.421769,338.925666 C186.849868,338.925666 111,263.051731 111,169.462833 C111,75.8739349 186.849868,0 280.421769,0 C373.993669,0 449.843537,75.8739349 449.843537,169.462833 C449.843537,263.051731 373.993669,338.925666 280.421769,338.925666 Z M280.421769,258.925666 C329.805207,258.925666 369.843537,218.874632 369.843537,169.462833 C369.843537,120.051035 329.805207,80 280.421769,80 C231.038331,80 191,120.051035 191,169.462833 C191,218.874632 231.038331,258.925666 280.421769,258.925666 Z" id="Shape" fill="url(#linearGradient-1)"></path>
            <g id="Plant" transform="translate(0.000000, 536.000000)">
                <path d="M199,188.174269 C142.719017,213.593114 97.7234642,213.271218 64.0133428,187.20858 C30.3032215,161.145943 8.96544052,124.033496 0,75.8712405 C105.372053,44.2283274 171.705387,81.6626704 199,188.174269 Z" id="Shape" fill="url(#linearGradient-2)"></path>
                <path d="M115.89853,142.470656 C103.751316,135.579494 90.2443015,127.943142 75.3776565,119.561698 L40.892016,127.819418 C40.2802333,127.965912 39.665953,127.586943 39.5199824,126.972968 C39.3740118,126.358992 39.7516271,125.742511 40.3634098,125.596017 L72.451652,117.912363 C53.8970542,107.455192 33.2742461,95.8646208 10.5835455,83.1408384 C10.0344845,82.8329531 9.83808165,82.1366657 10.1448674,81.5856369 C10.4516531,81.0346081 11.145454,80.8375013 11.694515,81.1453866 C53.1251551,104.377567 87.6617264,123.831731 115.306161,139.509018 L111.739126,104.426202 C111.584986,102.910198 113.850871,102.678161 114.00501,104.194164 L117.735765,140.887202 C154.592735,161.79948 178.829942,175.796159 190.452172,182.880068 C190.989749,183.207729 191.160869,183.910705 190.834378,184.450209 C190.507888,184.989712 189.807422,185.161445 189.269845,184.833785 C182.315586,180.595068 170.826387,173.871062 154.803279,164.662373 C154.761111,164.684157 154.717118,164.703541 154.671409,164.720293 L123.156017,176.270705 C122.565224,176.487231 121.91139,176.182112 121.695637,175.589201 C121.479885,174.996291 121.783915,174.340113 122.374708,174.123587 L152.226934,163.182727 C141.98523,157.304619 129.997135,150.469451 116.262897,142.67737 C116.130357,142.632944 116.00606,142.56433 115.89853,142.470656 Z" id="Shape" fill="#FFFFFF" fill-rule="nonzero"></path>
                <path d="M186.397111,220 C128.543838,198.081935 96.8676044,166.008613 91.3684105,123.780034 C85.8692165,81.5514554 96.9446186,40.291444 124.594617,0 C221.65003,52.2763031 242.250861,125.609636 186.397111,220 Z" id="Shape" fill="url(#linearGradient-3)"></path>
                <path d="M162.563708,129.304978 C173.864256,170.239804 181.123492,197.331633 184.342806,210.585861 C184.491713,211.198925 184.118297,211.817323 183.508757,211.967091 C182.899218,212.116859 182.284375,211.741283 182.135469,211.128219 C180.209165,203.19744 176.830716,190.29204 172.000421,172.413182 C171.955362,172.398663 171.910703,172.381154 171.866683,172.360566 L141.515869,158.165964 C140.946908,157.899869 140.700146,157.220256 140.96471,156.648004 C141.229275,156.075753 141.904981,155.827563 142.473943,156.093658 L171.223049,169.539167 C168.130029,158.116906 164.47778,144.778947 160.266374,129.525569 C160.204104,129.400123 160.16465,129.263425 160.154641,129.120906 C156.429503,115.630464 152.268924,100.648399 147.672953,84.1749033 L117.541306,65.5450292 C117.006764,65.2145312 116.839813,64.5107721 117.168411,63.9731392 C117.497009,63.4355063 118.196722,63.2675903 118.731264,63.5980883 L146.768197,80.932837 C141.029686,60.375216 134.628875,37.5488955 127.565857,12.4542334 C127.394949,11.8470023 127.745829,11.2153946 128.349569,11.0434981 C128.953309,10.8716016 129.581285,11.22451 129.752193,11.8317411 C142.64846,57.6517416 153.337053,95.9093719 161.818533,126.60681 L183.96233,99.2732765 C184.919211,98.0921359 186.680736,99.5357572 185.723855,100.716898 L162.563708,129.304978 Z" id="Shape" fill="#FFFFFF" fill-rule="nonzero"></path>
                <path d="M244,259.562526 C196.223838,298.760152 152.710901,310.14864 113.461189,293.727992 C74.2114767,277.307343 44.0577471,246.99163 23,202.780852 C116.556202,144.804099 190.222869,163.731324 244,259.562526 Z" id="Shape" fill="url(#linearGradient-4)" fill-rule="nonzero"></path>
                <path d="M153.169327,234.117219 C194.134683,244.712951 221.136641,251.916434 234.18055,255.729153 C234.783886,255.905508 235.130224,256.538261 234.954118,257.142447 C234.778012,257.746634 234.146149,258.09346 233.542813,257.917105 C225.737881,255.635733 212.91513,252.1352 195.075714,247.415825 C195.040625,247.447727 195.003156,247.477791 194.963353,247.505765 L167.519981,266.793099 C167.005523,267.154663 166.29578,267.030129 165.934725,266.514946 C165.57367,265.999763 165.698028,265.289019 166.212486,264.927456 L192.207586,246.657974 C180.806972,243.649068 167.474018,240.170685 152.208998,236.222899 C152.069616,236.214438 151.931956,236.180546 151.804023,236.118173 C138.303048,232.627071 123.297489,228.770425 106.787534,224.548288 L75.6285754,241.433553 C75.0758088,241.733101 74.3852129,241.527196 74.0860862,240.97365 C73.7869596,240.420104 73.9925754,239.728535 74.545342,239.428987 L103.538169,223.717564 C82.9334951,218.451367 60.0404012,212.629201 34.8592418,206.251166 C34.2499177,206.096833 33.8808986,205.47707 34.0350147,204.866887 C34.1891308,204.256704 34.8080214,203.887165 35.4173455,204.041498 C81.3952802,215.687066 119.745108,225.479396 150.468989,233.419087 L137.984634,200.55283 C137.445158,199.132608 139.572492,198.322254 140.111968,199.742476 L153.169327,234.117219 Z" id="Shape" fill="#FFFFFF" fill-rule="nonzero"></path>
            </g>
            <path d="M101,169.462833 L201,169.462833 C201,213.352494 236.561889,248.925666 280.421769,248.925666 L280.421769,348.925666 C181.326311,348.925666 101,268.573869 101,169.462833 Z" id="Shape" fill="url(#linearGradient-5)"></path>
            <path d="M71,774 L1182,774 C1223.97364,774 1258,808.026359 1258,850 L147,850 C105.026359,850 71,815.973641 71,774 Z" id="Shape" fill="url(#linearGradient-6)"></path>
            <path d="M206.653791,907.653791 C206.653791,828.724414 206.653791,728.93652 206.653791,677.390277 C143.116706,677.390277 91.6097229,728.93652 91.6097229,792.522034 C91.6097229,856.107547 143.116706,907.653791 206.653791,907.653791 Z" id="Shape" fill="url(#linearGradient-7)" transform="translate(149.131757, 792.522034) rotate(-270.000000) translate(-149.131757, -792.522034) "></path>
        </g>
        <g id="Data" transform="translate(310.000000, 182.000000)">
            <path d="M283.036929,659.274043 L392.74629,498.890777 L398.838658,503.05823 L404.25371,499.354092 L513.954335,659.724587 L515.26919,659.727152 L515.264682,661.640173 L566.81419,737 L542.582661,737 L503.389629,679.70401 L293.573472,679.294638 L254.100411,737 L230.078797,737 L229.935795,736.90218 L282.694394,659.774793 L282.695575,659.273377 L283.036929,659.274043 Z M307.236161,659.321258 L489.690422,659.677245 L398.341536,526.135015 L307.236161,659.321258 L307.236161,659.321258 Z" id="Shape" fill="#1E1539"></path>
            <path d="M15.36,5.68434189e-14 L781.64,5.5067062e-14 C790.123094,5.3508743e-14 797,6.87690624 797,15.36 L797,595.64 C797,604.123094 790.123094,611 781.64,611 L15.36,611 C6.87690624,611 1.28936572e-13,604.123094 1.27897692e-13,595.64 L1.15463195e-13,15.36 C1.14424315e-13,6.87690624 6.87690624,7.26125926e-14 15.36,5.68434189e-14 Z" id="Shape" fill="url(#linearGradient-8)"></path>
            <polygon id="Shape" fill="url(#linearGradient-9)" points="59 121 736 121 736 318 59 318"></polygon>
            <path d="M15.36,-4.97379915e-14 L781.64,-4.79616347e-14 C790.123094,-4.95199537e-14 797,6.87690624 797,15.36 L797,81.4666667 L5.68434189e-14,81.4666667 L5.86197757e-14,15.36 C5.75808963e-14,6.87690624 6.87690624,-4.99560293e-14 15.36,-4.97379915e-14 Z" id="Shape" fill="url(#linearGradient-10)"></path>
            <path d="M61.1393581,560 C85.7182533,511.999502 117.589751,485.832711 156.75385,481.499627 C215.5,475 232,497.677994 254.124157,475 C276.248314,452.322006 309.5,430.973313 350,457 C390.5,483.026687 411.332081,439 447.136859,430.140605 C482.941637,421.281209 506.410873,457.365829 542,475 C577.589127,492.634171 587,425.877474 641,430.140605 C695,434.403735 678,385 735.790087,385 L735.790087,561.027866 L61.1393581,560 Z" id="Shape" fill="#78BCFE"></path>
            <circle id="Shape" fill="#00ADFF" cx="159.5" cy="227.5" r="64.5"></circle>
            <path d="M159,292 C159,278.832536 159,257.339389 159,227.520561 C127.51757,198.506854 111.776355,184 111.776355,184 C101.357104,195.469516 95,210.747087 95,227.520561 C95,263.131572 123.653776,292 159,292 Z" id="Shape" fill="#52D7FD"></path>
            <path d="M159,227 C159,227 159,248.666667 159,292 C194.898509,292 224,262.959206 224,227.135572 C224,227.135572 202.333333,227.090381 159,227 Z" id="Shape" fill="#1056BF"></path>
            <polygon id="Shape" fill="#FFFFFF" points="262.8 164 696 164 696 186.8 262.8 186.8"></polygon>
            <polygon id="Shape" fill="#52D7FD" points="262.8 164 436 164 436 186.8 262.8 186.8"></polygon>
            <polygon id="Shape" fill="#FFFFFF" points="263 261 696.2 261 696.2 284.8 263 284.8"></polygon>
            <polygon id="Shape" fill="#1056BF" points="263 261 479.753281 261 479.753281 284.8 263 284.8"></polygon>
            <polygon id="Shape" fill="#FFFFFF" points="263 214 696.2 214 696.2 237.8 263 237.8"></polygon>
            <polygon id="Shape" fill="#00ADFF" points="263 214 529.549233 214 529.549233 237.8 263 237.8"></polygon>
            <path d="M61.1393581,560 C76.3182533,523.040874 108.189751,506.463655 156.75385,510.268343 C229.6,515.975374 238.549318,499.2 254.124157,475 C269.698997,450.8 309.5,430.973313 350,457 C390.5,483.026687 423.296322,506.219589 447.136859,493.2 C470.977396,480.180411 506.410873,457.365829 542,475 C577.589127,492.634171 614,478.376717 641,460.745026 C668,443.113336 705.580175,439.242218 734.790087,468.460106 L734.790087,561.027866 L61.1393581,560 Z" id="Shape" fill="#BDDEFF"></path>
            <path d="M155,360 L157,360 L157,561 L155,561 L155,360 Z M59,360 L61,360 L61,561 L59,561 L59,360 Z M253,360 L255,360 L255,561 L253,561 L253,360 Z M349,360 L351,360 L351,561 L349,561 L349,360 Z M446,360 L448,360 L448,561 L446,561 L446,360 Z M542,360 L544,360 L544,561 L542,561 L542,360 Z M639,360 L641,360 L641,561 L639,561 L639,360 Z M735,360 L737,360 L737,561 L735,561 L735,360 Z" id="Shape" fill="#FFFFFF"></path>
        </g>
        <g id="Video" transform="translate(959.000000, 99.000000)">
            <path d="M10,-1.98951966e-13 L249,-1.98951966e-13 C254.522847,-1.99966497e-13 259,4.4771525 259,10 L259,186 C259,191.522847 254.522847,196 249,196 L10,196 C4.4771525,196 6.76353751e-16,191.522847 0,186 L0,10 C-6.76353751e-16,4.4771525 4.4771525,-1.97937435e-13 10,-1.98951966e-13 Z" id="Shape" fill="url(#linearGradient-11)"></path>
            <polygon id="Shape" fill="#FFFFFF" points="79 48 180 98.5 79 149"></polygon>
        </g>
        <g id="Women" transform="translate(985.000000, 344.569254)">
            <path d="M227.356769,552.791098 C229.619068,548.776588 231.928562,545.366209 234.285249,542.55996 C237.82021,538.350469 239.072676,539.855969 240.180949,541.775103 C241.289222,543.694238 243.776749,548.003211 245.786145,551.483587 C247.795635,554.963988 246.93816,555.971024 240.562003,559.094335 C234.185846,562.217646 233.1083,562.083724 227.242527,566.784338 C221.376755,571.484952 208.279431,578.795212 202.838359,575.911453 C197.397526,573.027557 205.462536,565.896486 212.823973,560.203515 C217.731472,556.408167 222.575738,553.937361 227.356769,552.791098 Z" id="Shape" fill="#221E41"></path>
            <path d="M232,521.230746 L240.923812,543.061579 L237.792334,546.97658 C232.101453,554.09137 223.748674,558.569579 214.673253,559.371508 L223.332482,551.531369 L213.306272,534.165463 L232,521.230746 Z" id="Shape" fill="#F4B696"></path>
            <polygon id="Shape" fill="#211D41" points="213.736305 544.637497 161.91113 431.962569 184.18958 278.611157 207.600537 429.532966 240.122126 531.600922"></polygon>
            <path d="M40.1937077,57.9430803 L31.4882799,48.2297411 C32.9564235,41.0507801 31.3239151,35.7570487 26.5907548,32.3485466 L24.0425087,37.4612997 C19.4053783,34.0527976 15.4720299,30.235799 12.2424632,26.0103039 C7.39811332,19.6720612 -2.30998584,33.7769752 0.50159184,44.0797291 C3.31316952,54.3824831 13.9176918,56.9128897 19.9252126,62.7340894 C20.8857891,63.664874 24.3078631,66.6907337 30.1914344,71.8116685 L40.1937077,57.9430803 Z" id="Shape" fill="#F4B696"></path>
            <path d="M130.385837,561.586268 C134.3523,559.24075 138.05757,557.442022 141.501645,556.190083 C146.667757,554.312037 146.999674,556.242071 146.9999,558.458227 C147.000125,560.674382 146.9999,565.649826 146.9999,569.668618 C146.999968,573.687479 145.753856,574.13086 138.670286,573.647648 C131.586716,573.164437 130.720495,572.509684 123.290281,573.647648 C115.860066,574.785613 100.86232,574.567822 97.5920931,569.349878 C94.3221412,564.131934 104.87218,561.98875 114.093858,560.739211 C120.241551,559.906093 125.672211,560.188445 130.385837,561.586268 Z" id="Shape" fill="#221E41"></path>
            <path d="M147,538.430746 L147,559.943779 L142.33056,561.76853 C133.844717,565.084678 124.371895,564.786532 116.111384,560.943312 L127.530567,558.483167 L127.530567,538.430746 L147,538.430746 Z" id="Shape" fill="#F4B696"></path>
            <path d="M163.685623,127.982699 L80.6667292,122.229598 C76.1075752,121.913655 71.8392922,119.875355 68.7276965,116.528166 L20.1178317,64.2378125 L37.3920926,51.4307461 L79.2869748,86.8591844 C142.114202,84.3213304 174.179083,83.0524033 175.481618,83.0524033 C176.784152,83.0524033 176.784152,85.7881326 175.481618,91.2595911 L163.685623,127.982699 Z" id="Shape" fill="#211D41"></path>
            <path d="M51.9968705,215.682871 L58.1804188,231.624858 C50.6812189,233.770175 46.2797244,234.992167 44.9759352,235.290832 C36.8219361,237.158711 28.9241217,244.674253 18.7522102,241.420959 C8.58029877,238.167664 2.0383323,222.34368 9.99245198,221.732921 C15.2951984,221.325748 20.6386579,220.105851 26.0228305,218.073229 L23.1227892,213.151486 C28.5592635,211.038327 33.888088,212.552363 39.109263,217.693594 L51.9968705,215.682871 Z" id="Shape" fill="#F4B696"></path>
            <path d="M149.684751,92.7748233 L146,70.4307461 C134.924762,72.1010841 128.835904,68.7927465 127.733427,60.5057335 C126.63095,52.2187205 126.022267,47.2458477 125.907378,45.5871151 L119.716825,44.4307461 L127.733427,33.3545111 L131.981802,13.5776621 C142.123642,9.83911614 153.227185,13.6765114 165.292431,25.0898479 C183.390299,42.2098527 174.348242,80.9617431 171.946142,90.2465957 C170.344742,96.4364975 162.924278,97.27924 149.684751,92.7748233 Z" id="Shape" fill="#F4B696"></path>
            <path d="M152,551.071338 L120.146682,551.071338 L97.0078212,258.655609 L184.873707,258.226698 C186.940287,274.272925 186.601204,290.537692 183.867656,306.483847 L163.635229,424.509715 L152,551.071338 Z" id="Shape" fill="#312C74"></path>
            <path d="M97.0078212,258.655609 L112.70296,148.601823 C106.227728,133.133568 106.458837,118.939424 113.396287,106.019393 C116.633614,99.9903236 125.928174,95.2338573 133.993509,91.1224525 C151.628309,82.1328942 171.958776,78.6046156 177.305533,78.6046156 C187.273527,82.2438074 191.382516,95.8062973 189.632501,119.292085 C187.882485,142.777873 186.343473,189.324093 185.015465,258.930746 L97.0078212,258.655609 Z" id="Shape" fill="url(#linearGradient-12)"></path>
            <path d="M155.197701,136.669479 L167.01956,145.968694 L126.150909,221.92213 C124.10738,225.719981 120.528042,228.454505 116.326545,229.427697 L100.180449,233.167616 L103,214.024408 L155.197701,136.669479 Z" id="Shape" fill="#211D41"></path>
            <path d="M122.936131,12.6087936 C117.106837,21.8560774 123.857973,28.9462327 143.189538,33.8792593 C172.186887,41.2787992 146.002437,50.043965 157.914784,66.7463521 C169.827131,83.4487392 142.252843,109.351074 163.635229,133.144983 C177.890154,149.007588 185.766248,158.505957 187.263514,161.640089 C199.297707,154.167194 205.314804,143.27933 205.314804,128.976498 C205.314804,107.52225 183.482502,82.374255 186.785287,60.9513416 C190.088073,39.5284281 190.814465,18.0410193 165.143306,5.03616599 C148.0292,-3.63373622 133.960142,-1.10952701 122.936131,12.6087936 Z" id="Shape" fill="url(#linearGradient-13)"></path>
            <path d="M170.432976,142.268374 L123.841411,211.436435 C121.347998,215.138061 117.568315,217.781362 113.235881,218.853355 L46.2387384,235.430746 L43.7846241,214.067264 L92.6196436,194.79799 C121.835411,139.119088 136.768929,110.715623 137.420196,109.587596 C138.071463,108.459568 140.440674,109.827432 144.527829,113.691189 L170.432976,142.268374 Z" id="Shape" fill="url(#linearGradient-14)"></path>
            <path d="M135.36483,539.97204 L134.365244,539.943272 L134.566621,532.946169 L135.566207,532.974937 L135.36483,539.97204 Z M135.853888,522.979076 L134.854302,522.950308 L135.055678,515.953205 L136.055264,515.981973 L135.853888,522.979076 Z M136.342945,505.986112 L135.343359,505.957344 L135.544736,498.960241 L136.544322,498.989009 L136.342945,505.986112 Z M136.832003,488.993148 L135.832417,488.96438 L136.033793,481.967277 L137.033379,481.996045 L136.832003,488.993148 Z M137.32106,472.000184 L136.321474,471.971416 L136.522851,464.974313 L137.522437,465.003082 L137.32106,472.000184 Z M137.810118,455.00722 L136.810531,454.978452 L137.011908,447.98135 L138.011494,448.010118 L137.810118,455.00722 Z M138.299175,438.014256 L137.299589,437.985488 L137.500966,430.988386 L138.500552,431.017154 L138.299175,438.014256 Z M138.788233,421.021293 L137.788646,420.992524 L137.990023,413.995422 L138.989609,414.02419 L138.788233,421.021293 Z M139.27729,404.028329 L138.277704,403.999561 L138.47908,397.002458 L139.478667,397.031226 L139.27729,404.028329 Z M139.766347,387.035365 L138.766761,387.006597 L138.968138,380.009494 L139.967724,380.038262 L139.766347,387.035365 Z M140.255405,370.042401 L139.255819,370.013633 L139.457195,363.01653 L140.456782,363.045298 L140.255405,370.042401 Z M140.744462,353.049437 L139.744876,353.020669 L139.946253,346.023566 L140.945839,346.052334 L140.744462,353.049437 Z M141.23352,336.056473 L140.233934,336.027705 L140.43531,329.030602 L141.434896,329.05937 L141.23352,336.056473 Z M141.722577,319.063509 L140.722991,319.034741 L140.924368,312.037638 L141.923954,312.066406 L141.722577,319.063509 Z M142.211635,302.070545 L141.212049,302.041777 L141.413425,295.044674 L142.413011,295.073442 L142.211635,302.070545 Z M142.700692,285.077581 L141.701106,285.048813 L141.902483,278.05171 L142.902069,278.080478 L142.700692,285.077581 Z" id="Shape" fill="#A587FF" fill-rule="nonzero"></path>
        </g>
        <g id="Men" transform="translate(214.454764, 339.461948)">
            <path d="M13.8941207,155.685299 L35.5634898,176.687153 L26.8988834,198.305476 L46.5945023,225.739034 L35.5634898,240.925654 L8.09349753,211.564101 C-0.408083016,202.477109 -2.4172265,189.08503 3.04354954,177.903338 L13.8941207,155.685299 Z" id="Shape" fill="#F4B696"></path>
            <polygon id="Shape" fill="#221E41" points="66.3598619 88.3993354 40.4432093 99.9758803 8.41264027 155.398251 29.6142459 182.302804 66.3598619 142.345979"></polygon>
            <polygon id="Shape" fill="#F4B696" points="45.9948482 539.910723 67.6227552 539.910723 67.6227552 561.525629 45.9948482 561.525629"></polygon>
            <polygon id="Shape" fill="#F4B696" points="109.677019 539.910723 131.304926 539.910723 131.304926 561.525629 109.677019 561.525629"></polygon>
            <polygon id="Shape" fill="#211D41" points="71.5226645 553.044631 43.3940322 553.044631 30.8450457 263.867404 101.696693 265.619915"></polygon>
            <path d="M135.729961,552.716416 L105.979206,552.716416 L97.4526732,399.065729 L30.7745436,264.232238 L126.655343,265.812112 L146.768716,364.963797 C149.0351,376.13625 149.697885,387.574653 148.737087,398.934102 L135.729961,552.716416 Z" id="Shape" fill="url(#linearGradient-15)"></path>
            <path d="M108.475468,559.123973 L131.192064,559.123973 L145.582172,563.927286 C152.83334,566.495569 158.940585,567.543781 158.940585,575.588894 C158.940585,577.655559 157.571251,579.330922 155.882093,579.330922 L113.275468,579.330922 C110.624502,579.330922 108.475468,577.181889 108.475468,574.530922 L108.475468,559.123973 Z" id="Shape" fill="#211D41"></path>
            <path d="M145.545236,92.7037598 L206.115305,92.7037598 L291.043747,50.0376562 L299.082878,39.8719481 L299.082878,50.0376562 L319.375226,50.0376562 C317.415965,60.8153411 313.544092,67.5085362 307.759606,70.1172413 C301.975121,72.7259465 293.620347,72.7259465 282.695286,70.1172413 L207.30907,124.741454 L145.545236,133.538052 L145.545236,92.7037598 Z" id="Shape" fill="#F4B696"></path>
            <path d="M44.7932978,559.123973 L67.5098935,559.123973 L81.900001,563.927286 C89.1511694,566.495569 95.2584141,567.543781 95.2584141,575.588894 C95.2584141,577.655559 93.8890806,579.330922 92.1999222,579.330922 L49.5932978,579.330922 C46.942331,579.330922 44.7932978,577.181889 44.7932978,574.530922 L44.7932978,559.123973 Z" id="Shape" fill="#211D41"></path>
            <path d="M97.8501058,89.975095 C98.6462769,77.7858674 101.022943,70.8687172 104.980104,69.2236442 C110.915845,66.7560347 114.725941,65.5194731 113.951167,59.2735663 C113.176394,53.0276595 114.855213,50.924367 117.440868,49.687075 C120.026523,48.4497829 122.103,44.4819995 114.721648,40.2319893 C109.800747,37.3986492 106.977387,30.5962846 106.251566,19.8248955 C79.6406816,11.1298598 64.8868693,16.1149047 61.9901295,34.7800304 C59.0933896,53.445156 61.076058,68.0282299 67.9381347,78.529252 L67.9381347,89.975095 L97.8501058,89.975095 Z" id="Shape" fill="#F4B696"></path>
            <path d="M161.514779,86.1274155 L161.514779,135.02783 L126.720696,135.02783 L126.720696,265.994482 L29.1111015,265.994482 L29.1111015,128.127416 C29.1111015,104.931456 47.915142,86.1274155 71.1111015,86.1274155 C75.500705,86.1274155 79.8903084,86.1274155 84.2799118,86.1274155 C93.3271701,86.1274155 119.072126,86.1274155 161.514779,86.1274155 Z" id="Shape" fill="url(#linearGradient-16)"></path>
            <path d="M67.5344532,78.2882838 C75.7327767,78.0374529 80.4181877,76.622035 81.5906864,74.0420301 C83.3494343,70.1720227 83.5799901,63.2724188 83.1877894,61.0948814 C82.7955886,58.9173441 80.3133557,59.82876 78.3533111,59.82876 C76.3932665,59.82876 73.3504241,55.4172005 75.3809785,52.1003932 C77.4115329,48.7835858 80.2206217,49.3031185 81.5906864,49.8920604 C82.960751,50.4810023 86.2553655,48.8314543 85.1515113,43.47529 C84.0476572,38.1191257 81.5834915,33.1025085 85.1515113,33.1025085 C88.7195312,33.1025085 108.712338,30.8099272 109.766947,17.2388926 C110.821556,3.66785805 102.944764,-4.02173535 90.2979275,2.1698936 C77.651091,8.36152255 73.57895,7.78582424 64.0503736,9.95969169 C54.5217971,12.1335591 45.0360702,14.8020676 43.0285394,31.5132748 C41.0210086,48.2244819 47.6965761,56.7284778 55.3794266,62.793734 C63.062277,68.8589901 61.30225,70.7175638 62.3664524,74.0420301 C63.0759207,76.2583409 64.7985876,77.6737588 67.5344532,78.2882838 Z" id="Shape" fill="url(#linearGradient-17)"></path>
            <path d="M84.2409933,272.286741 L85.1782507,271.938103 L87.6187174,278.498905 L86.6814599,278.847543 L84.2409933,272.286741 Z M90.1678408,288.220117 L91.1050983,287.871479 L93.5455649,294.432281 L92.6083075,294.780919 L90.1678408,288.220117 Z M96.0946884,304.153493 L97.0319458,303.804855 L99.4724125,310.365657 L98.535155,310.714295 L96.0946884,304.153493 Z M102.021536,320.08687 L102.958793,319.738231 L105.39926,326.299033 L104.462003,326.647672 L102.021536,320.08687 Z M107.948384,336.020246 L108.885641,335.671608 L111.326108,342.23241 L110.38885,342.581048 L107.948384,336.020246 Z M113.875231,351.953622 L114.812488,351.604984 L117.252955,358.165786 L116.315698,358.514424 L113.875231,351.953622 Z M119.794991,367.884266 L120.735923,367.545671 C121.530552,369.753893 122.247318,371.98851 122.885074,374.245432 L121.922757,374.517362 C121.291347,372.282897 120.581713,370.070516 119.794991,367.884266 Z M124.149248,384.232297 L125.133942,384.058005 C125.542745,386.36761 125.870592,388.690941 126.116852,391.023716 L125.122378,391.128698 C124.878568,388.819135 124.553983,386.518921 124.149248,384.232297 Z M125.670962,401.078528 L126.670949,401.073546 C126.676348,402.157061 126.664224,403.240793 126.634562,404.324398 L126.530599,408.102576 L125.530977,408.07507 L125.634939,404.296963 C125.664303,403.224211 125.676306,402.151262 125.670962,401.078528 Z M125.25591,418.071286 L126.255531,418.098793 L126.062984,425.096144 L125.063363,425.068637 L125.25591,418.071286 Z M124.788295,435.064853 L125.787917,435.09236 L125.59537,442.089711 L124.595748,442.062205 L124.788295,435.064853 Z M124.320681,452.058421 L125.320303,452.085928 L125.127756,459.083279 L124.128134,459.055772 L124.320681,452.058421 Z M123.853067,469.051988 L124.852688,469.079495 L124.660141,476.076846 L123.66052,476.04934 L123.853067,469.051988 Z M123.385452,486.045556 L124.385074,486.073063 L124.192527,493.070414 L123.192905,493.042907 L123.385452,486.045556 Z M122.917838,503.039123 L123.91746,503.06663 L123.724913,510.063981 L122.725291,510.036475 L122.917838,503.039123 Z M122.450224,520.032691 L123.449845,520.060198 L123.257298,527.057549 L122.257677,527.030042 L122.450224,520.032691 Z M121.982609,537.026258 L122.982231,537.053765 L122.789684,544.051116 L121.790062,544.02361 L121.982609,537.026258 Z" id="Shape" fill="#A587FF" fill-rule="nonzero"></path>
        </g>
    </g>
</svg>