<?xml version="1.0" encoding="UTF-8"?>
<svg width="1440px" height="1024px" viewBox="0 0 1440 1024" version="1.1" xmlns="http://www.w3.org/2000/svg" xmlns:xlink="http://www.w3.org/1999/xlink">
    <!-- Generator: Sketch 53.2 (72643) - https://sketchapp.com -->
    <title>Startup</title>
    <desc>Created with Sketch.</desc>
    <defs>
        <linearGradient x1="8.38174197%" y1="31.3864763%" x2="56.5702499%" y2="50%" id="linearGradient-1">
            <stop stop-color="#CFE49F" offset="0%"></stop>
            <stop stop-color="#A9D386" offset="100%"></stop>
        </linearGradient>
        <linearGradient x1="34.9800858%" y1="24.563533%" x2="66.6026215%" y2="80.4180658%" id="linearGradient-2">
            <stop stop-color="#6EAE7C" offset="0%"></stop>
            <stop stop-color="#0F575D" offset="100%"></stop>
        </linearGradient>
        <linearGradient x1="34.1151714%" y1="33.9683678%" x2="64.8333502%" y2="52.4070359%" id="linearGradient-3">
            <stop stop-color="#77D791" offset="0%"></stop>
            <stop stop-color="#4FA67E" offset="100%"></stop>
        </linearGradient>
        <linearGradient x1="50%" y1="7.26438915%" x2="50%" y2="151.05781%" id="linearGradient-4">
            <stop stop-color="#D0F6FF" offset="0%"></stop>
            <stop stop-color="#8BE2F7" offset="100%"></stop>
        </linearGradient>
        <linearGradient x1="50%" y1="7.26438915%" x2="50%" y2="151.05781%" id="linearGradient-5">
            <stop stop-color="#D0F6FF" offset="0%"></stop>
            <stop stop-color="#8BE2F7" offset="100%"></stop>
        </linearGradient>
        <linearGradient x1="50%" y1="-2.48949813e-15%" x2="50%" y2="100%" id="linearGradient-6">
            <stop stop-color="#4DBCFA" offset="0%"></stop>
            <stop stop-color="#1486DB" offset="100%"></stop>
        </linearGradient>
        <linearGradient x1="39.5247765%" y1="13.1381206%" x2="51.6537174%" y2="50%" id="linearGradient-7">
            <stop stop-color="#CFE49F" offset="0%"></stop>
            <stop stop-color="#A9D386" offset="100%"></stop>
        </linearGradient>
        <linearGradient x1="50%" y1="34.066077%" x2="100%" y2="62.5456835%" id="linearGradient-8">
            <stop stop-color="#0F1752" offset="0%"></stop>
            <stop stop-color="#272884" offset="100%"></stop>
        </linearGradient>
        <linearGradient x1="50%" y1="78.4511557%" x2="50.9350565%" y2="39.2897568%" id="linearGradient-9">
            <stop stop-color="#2B3389" offset="0%"></stop>
            <stop stop-color="#444FB7" offset="100%"></stop>
        </linearGradient>
        <linearGradient x1="50%" y1="26.6527778%" x2="100%" y2="68.3825955%" id="linearGradient-10">
            <stop stop-color="#0F1752" offset="0%"></stop>
            <stop stop-color="#272884" offset="100%"></stop>
        </linearGradient>
        <linearGradient x1="50%" y1="7.26438915%" x2="50%" y2="151.05781%" id="linearGradient-11">
            <stop stop-color="#D0F6FF" offset="0%"></stop>
            <stop stop-color="#8BE2F7" offset="100%"></stop>
        </linearGradient>
        <linearGradient x1="50%" y1="0%" x2="50%" y2="91.8482298%" id="linearGradient-12">
            <stop stop-color="#EAFCFF" offset="0%"></stop>
            <stop stop-color="#FFFFFF" offset="100%"></stop>
        </linearGradient>
        <linearGradient x1="50%" y1="0%" x2="50%" y2="100%" id="linearGradient-13">
            <stop stop-color="#FF9485" offset="0%"></stop>
            <stop stop-color="#FF676E" offset="100%"></stop>
        </linearGradient>
        <linearGradient x1="50%" y1="-2.48949813e-15%" x2="50%" y2="100%" id="linearGradient-14">
            <stop stop-color="#4DBCFA" offset="0%"></stop>
            <stop stop-color="#1486DB" offset="100%"></stop>
        </linearGradient>
        <linearGradient x1="50%" y1="0%" x2="50%" y2="100%" id="linearGradient-15">
            <stop stop-color="#FF9485" offset="0%"></stop>
            <stop stop-color="#FF676E" offset="100%"></stop>
        </linearGradient>
        <linearGradient x1="50%" y1="-27.3641552%" x2="50%" y2="100%" id="linearGradient-16">
            <stop stop-color="#C0E4FD" offset="0%"></stop>
            <stop stop-color="#72B9FE" offset="100%"></stop>
        </linearGradient>
        <linearGradient x1="50%" y1="-27.3641552%" x2="50%" y2="100%" id="linearGradient-17">
            <stop stop-color="#C0E4FD" offset="0%"></stop>
            <stop stop-color="#72B9FE" offset="100%"></stop>
        </linearGradient>
        <linearGradient x1="50%" y1="0%" x2="50%" y2="100%" id="linearGradient-18">
            <stop stop-color="#1D2A78" offset="0%"></stop>
            <stop stop-color="#12033B" offset="100%"></stop>
        </linearGradient>
        <linearGradient x1="82.5767258%" y1="-52.951376%" x2="82.5767258%" y2="186.664812%" id="linearGradient-19">
            <stop stop-color="#1533B6" offset="0%"></stop>
            <stop stop-color="#356BE9" offset="100%"></stop>
        </linearGradient>
        <linearGradient x1="50%" y1="0%" x2="50%" y2="100%" id="linearGradient-20">
            <stop stop-color="#FF9485" offset="0%"></stop>
            <stop stop-color="#FF676E" offset="100%"></stop>
        </linearGradient>
        <linearGradient x1="50%" y1="0%" x2="75.542665%" y2="89.3678428%" id="linearGradient-21">
            <stop stop-color="#0F1752" offset="0%"></stop>
            <stop stop-color="#272884" offset="100%"></stop>
        </linearGradient>
        <linearGradient x1="50%" y1="7.26438915%" x2="50%" y2="151.05781%" id="linearGradient-22">
            <stop stop-color="#D0F6FF" offset="0%"></stop>
            <stop stop-color="#8BE2F7" offset="100%"></stop>
        </linearGradient>
        <linearGradient x1="50%" y1="49.7442775%" x2="100%" y2="50.2013449%" id="linearGradient-23">
            <stop stop-color="#0F1752" offset="0%"></stop>
            <stop stop-color="#272884" offset="100%"></stop>
        </linearGradient>
        <linearGradient x1="50%" y1="0%" x2="50%" y2="100%" id="linearGradient-24">
            <stop stop-color="#1D2A78" offset="0%"></stop>
            <stop stop-color="#12033B" offset="100%"></stop>
        </linearGradient>
        <linearGradient x1="50%" y1="0%" x2="50%" y2="100%" id="linearGradient-25">
            <stop stop-color="#FF9485" offset="0%"></stop>
            <stop stop-color="#FF676E" offset="100%"></stop>
        </linearGradient>
    </defs>
    <g id="Startup" stroke="none" stroke-width="1" fill="none" fill-rule="evenodd">
        <rect fill="#FFFFFF" x="0" y="0" width="1440" height="1024"></rect>
        <g id="Plant" transform="translate(1151.000000, 638.000000)">
            <path d="M39.4981201,164.85314 C63.4566962,71.748516 121.682551,39.0261602 214.175686,66.686073 C206.306031,108.785983 187.576224,141.226961 157.986264,164.009006 C128.396305,186.791051 88.9002567,187.07243 39.4981201,164.85314 Z" id="Shape" fill="url(#linearGradient-1)"></path>
            <path d="M110.90666,123.31975 L114.182626,91.2147532 C114.317975,89.8883075 116.307644,90.0913315 116.172294,91.4177773 L113.04009,122.113892 C137.314607,108.396862 167.641093,91.3752098 204.021245,71.0479371 C204.503374,70.7785492 205.112599,70.9510101 205.381987,71.4331393 C205.651375,71.9152686 205.478914,72.5244936 204.996785,72.7938815 C185.072124,83.9267104 166.963277,94.0680217 150.670521,103.217651 L178.847155,109.94056 C179.38436,110.068737 179.715944,110.608135 179.587767,111.14534 C179.459591,111.682545 178.920192,112.014128 178.382987,111.885952 L148.101203,104.660756 C135.046861,111.994186 123.186404,118.675692 112.519979,124.705186 C112.425529,124.787184 112.316344,124.847239 112.199917,124.886116 C100.139932,131.70388 89.6132281,137.684383 80.6200223,142.827497 L106.833213,152.40034 C107.351987,152.589792 107.618955,153.163922 107.429503,153.682696 C107.240051,154.20147 106.66592,154.468438 106.147147,154.278986 L78.4735497,144.172815 C78.4334076,144.158155 78.3947731,144.141192 78.3577411,144.12213 C64.2878892,152.17938 54.1992515,158.062628 48.0927331,161.771343 C47.6206877,162.058034 47.0056105,161.907774 46.7189198,161.435729 C46.4322291,160.963683 46.5824889,160.348606 47.0545343,160.061915 C57.2599898,153.863764 78.5426306,141.617201 110.90666,123.31975 Z" id="Shape" fill="#FFFFFF" fill-rule="nonzero"></path>
            <path d="M50.2925002,192.93029 C1.39886056,110.154107 19.4325579,45.8440106 104.393592,5.68434189e-14 C128.598038,35.3338181 138.293299,71.5170271 133.479377,108.549627 C128.665455,145.582227 100.936496,173.709114 50.2925002,192.93029 Z" id="Shape" fill="url(#linearGradient-2)"></path>
            <path d="M71.4174312,113.068298 L51.0322176,88.0501669 C50.1899853,87.0165217 51.7404532,85.7531732 52.5826855,86.7868184 L72.0733233,110.707065 C79.5385941,83.8429829 88.9465331,50.3627908 100.297634,10.2645827 C100.448065,9.73317982 101.0008,9.42434098 101.532203,9.57477183 C102.063606,9.72520267 102.372445,10.2779381 102.222014,10.809341 C96.0052518,32.7702963 90.3713544,52.7461701 85.3204025,70.7366492 L109.99809,55.5665848 C110.468586,55.2773579 111.084463,55.4243053 111.37369,55.8948011 C111.662917,56.3652968 111.515969,56.9811737 111.045474,57.2704006 L84.5240498,73.5738611 C80.4787456,87.9902222 76.8166666,101.101395 73.537856,112.907212 C73.5290457,113.031934 73.4943191,113.151562 73.4395101,113.261343 C69.7326936,126.609949 66.518039,138.282324 63.7956093,148.278225 L89.1001411,136.51173 C89.6009325,136.278864 90.1956791,136.496061 90.4285449,136.996852 C90.6614106,137.497643 90.444214,138.09239 89.9434227,138.325256 L63.2290923,150.747301 C63.1903464,150.765318 63.151038,150.78064 63.1113783,150.793346 C58.8598251,166.439575 55.8861651,177.733407 54.1906615,184.673826 C54.0595959,185.210334 53.518421,185.539009 52.9819135,185.407944 C52.4454061,185.276878 52.1167305,184.735703 52.2477961,184.199196 C55.0813881,172.600095 61.4708588,148.89137 71.4174312,113.068298 L71.4174312,113.068298 Z" id="Shape" fill="#FFFFFF" fill-rule="nonzero"></path>
            <path d="M-2.27373675e-13,227.324394 C47.2394574,143.593169 111.950484,127.05576 194.133079,177.712169 C175.635317,216.340743 149.14737,242.82869 114.669237,257.176011 C80.1911033,271.523332 41.9680244,261.572793 -2.27373675e-13,227.324394 Z" id="Shape" fill="url(#linearGradient-3)" fill-rule="nonzero"></path>
            <path d="M79.7249871,205.688105 L91.1987099,175.524946 C91.6727567,174.278729 93.5420825,174.9898 93.0680357,176.236017 L82.097821,205.075508 C109.095432,198.108582 142.794094,189.516001 183.195706,179.29724 C183.731129,179.161816 184.274959,179.486079 184.410384,180.021503 C184.545808,180.556927 184.221545,181.100757 183.686121,181.236181 C161.558988,186.832787 141.442419,191.941627 123.336727,196.562615 L148.813254,210.349099 C149.298979,210.611947 149.479657,211.218786 149.21681,211.704511 C148.953962,212.190237 148.347123,212.370915 147.861397,212.108067 L120.481453,197.291559 C105.973905,200.996393 92.78829,204.380518 80.9247726,207.443887 C80.8123068,207.498654 80.6912845,207.528407 80.5687493,207.535824 C67.1551379,210.999923 55.4392605,214.052132 45.4213591,216.692384 L68.2637271,232.723517 C68.7157905,233.040782 68.825066,233.664446 68.5078008,234.116509 C68.1905357,234.568573 67.5668717,234.677848 67.1148084,234.360583 L42.9998362,217.436317 C42.9648547,217.411766 42.9319258,217.385381 42.9010882,217.357383 C27.2252857,221.498542 15.9577136,224.570192 9.09938382,226.572052 C8.56922192,226.7268 8.01399309,226.422467 7.85924551,225.892305 C7.70449794,225.362143 8.00883137,224.806914 8.53899326,224.652166 C20.0009063,221.306578 43.728004,214.985659 79.7249871,205.688105 Z" id="Shape" fill="#FFFFFF" fill-rule="nonzero"></path>
        </g>
        <g id="Ornament" transform="translate(127.000000, 151.780405)">
            <path d="M112,684.219595 L1053,684.219595 C1089.45079,684.219595 1119,713.768801 1119,750.219595 L178,750.219595 C141.549207,750.219595 112,720.670388 112,684.219595 Z" id="Shape" fill="url(#linearGradient-4)"></path>
            <path d="M845,63.2195946 L1125,63.2195946 C1130.52285,63.2195946 1135,67.6967471 1135,73.2195946 L1135,353.219595 C1135,358.742442 1130.52285,363.219595 1125,363.219595 L845,363.219595 C839.477153,363.219595 835,358.742442 835,353.219595 L835,73.2195946 C835,67.6967471 839.477153,63.2195946 845,63.2195946 Z" id="Shape" fill="url(#linearGradient-5)"></path>
            <path d="M12.8176146,700.798994 C12.8176146,703.233765 10.8437243,705.207537 8.4088073,705.207537 C5.97389026,705.207537 4,703.233765 4,700.798994 C4,698.364223 5.97389026,696.390451 8.4088073,696.390451 C10.8437243,696.390451 12.8176146,698.364223 12.8176146,700.798994 Z M12.8176146,683.164823 C12.8176146,685.599593 10.8437243,687.573365 8.4088073,687.573365 C5.97389026,687.573365 4,685.599593 4,683.164823 C4,680.730052 5.97389026,678.75628 8.4088073,678.75628 C10.8437243,678.75628 12.8176146,680.730052 12.8176146,683.164823 Z M12.8176146,665.530651 C12.8176146,667.965422 10.8437243,669.939194 8.4088073,669.939194 C5.97389026,669.939194 4,667.965422 4,665.530651 C4,663.09588 5.97389026,661.122108 8.4088073,661.122108 C10.8437243,661.122108 12.8176146,663.09588 12.8176146,665.530651 Z M12.8176146,647.89648 C12.8176146,650.331251 10.8437243,652.305023 8.4088073,652.305023 C5.97389026,652.305023 4,650.331251 4,647.89648 C4,645.461709 5.97389026,643.487937 8.4088073,643.487937 C10.8437243,643.487937 12.8176146,645.461709 12.8176146,647.89648 Z M12.8176146,630.262309 C12.8176146,632.69708 10.8437243,634.670852 8.4088073,634.670852 C5.97389026,634.670852 4,632.69708 4,630.262309 C4,627.827538 5.97389026,625.853766 8.4088073,625.853766 C10.8437243,625.853766 12.8176146,627.827538 12.8176146,630.262309 Z M12.8176146,612.628137 C12.8176146,615.062908 10.8437243,617.03668 8.4088073,617.03668 C5.97389026,617.03668 4,615.062908 4,612.628137 C4,610.193366 5.97389026,608.219595 8.4088073,608.219595 C10.8437243,608.219595 12.8176146,610.193366 12.8176146,612.628137 Z M30.4528438,700.798994 C30.4528438,703.233765 28.4789536,705.207537 26.0440365,705.207537 C23.6091195,705.207537 21.6352292,703.233765 21.6352292,700.798994 C21.6352292,698.364223 23.6091195,696.390451 26.0440365,696.390451 C28.4789536,696.390451 30.4528438,698.364223 30.4528438,700.798994 Z M30.4528438,683.164823 C30.4528438,685.599593 28.4789536,687.573365 26.0440365,687.573365 C23.6091195,687.573365 21.6352292,685.599593 21.6352292,683.164823 C21.6352292,680.730052 23.6091195,678.75628 26.0440365,678.75628 C28.4789536,678.75628 30.4528438,680.730052 30.4528438,683.164823 Z M30.4528438,665.530651 C30.4528438,667.965422 28.4789536,669.939194 26.0440365,669.939194 C23.6091195,669.939194 21.6352292,667.965422 21.6352292,665.530651 C21.6352292,663.09588 23.6091195,661.122108 26.0440365,661.122108 C28.4789536,661.122108 30.4528438,663.09588 30.4528438,665.530651 Z M30.4528438,647.89648 C30.4528438,650.331251 28.4789536,652.305023 26.0440365,652.305023 C23.6091195,652.305023 21.6352292,650.331251 21.6352292,647.89648 C21.6352292,645.461709 23.6091195,643.487937 26.0440365,643.487937 C28.4789536,643.487937 30.4528438,645.461709 30.4528438,647.89648 Z M30.4528438,630.262309 C30.4528438,632.69708 28.4789536,634.670852 26.0440365,634.670852 C23.6091195,634.670852 21.6352292,632.69708 21.6352292,630.262309 C21.6352292,627.827538 23.6091195,625.853766 26.0440365,625.853766 C28.4789536,625.853766 30.4528438,627.827538 30.4528438,630.262309 Z M30.4528438,612.628137 C30.4528438,615.062908 28.4789536,617.03668 26.0440365,617.03668 C23.6091195,617.03668 21.6352292,615.062908 21.6352292,612.628137 C21.6352292,610.193366 23.6091195,608.219595 26.0440365,608.219595 C28.4789536,608.219595 30.4528438,610.193366 30.4528438,612.628137 Z M48.088073,700.798994 C48.088073,703.233765 46.1141828,705.207537 43.6792657,705.207537 C41.2443487,705.207537 39.2704584,703.233765 39.2704584,700.798994 C39.2704584,698.364223 41.2443487,696.390451 43.6792657,696.390451 C46.1141828,696.390451 48.088073,698.364223 48.088073,700.798994 Z M48.088073,683.164823 C48.088073,685.599593 46.1141828,687.573365 43.6792657,687.573365 C41.2443487,687.573365 39.2704584,685.599593 39.2704584,683.164823 C39.2704584,680.730052 41.2443487,678.75628 43.6792657,678.75628 C46.1141828,678.75628 48.088073,680.730052 48.088073,683.164823 Z M48.088073,665.530651 C48.088073,667.965422 46.1141828,669.939194 43.6792657,669.939194 C41.2443487,669.939194 39.2704584,667.965422 39.2704584,665.530651 C39.2704584,663.09588 41.2443487,661.122108 43.6792657,661.122108 C46.1141828,661.122108 48.088073,663.09588 48.088073,665.530651 Z M48.088073,647.89648 C48.088073,650.331251 46.1141828,652.305023 43.6792657,652.305023 C41.2443487,652.305023 39.2704584,650.331251 39.2704584,647.89648 C39.2704584,645.461709 41.2443487,643.487937 43.6792657,643.487937 C46.1141828,643.487937 48.088073,645.461709 48.088073,647.89648 Z M48.088073,630.262309 C48.088073,632.69708 46.1141828,634.670852 43.6792657,634.670852 C41.2443487,634.670852 39.2704584,632.69708 39.2704584,630.262309 C39.2704584,627.827538 41.2443487,625.853766 43.6792657,625.853766 C46.1141828,625.853766 48.088073,627.827538 48.088073,630.262309 Z M48.088073,612.628137 C48.088073,615.062908 46.1141828,617.03668 43.6792657,617.03668 C41.2443487,617.03668 39.2704584,615.062908 39.2704584,612.628137 C39.2704584,610.193366 41.2443487,608.219595 43.6792657,608.219595 C46.1141828,608.219595 48.088073,610.193366 48.088073,612.628137 Z M65.7233022,700.798994 C65.7233022,703.233765 63.749412,705.207537 61.3144949,705.207537 C58.8795779,705.207537 56.9056876,703.233765 56.9056876,700.798994 C56.9056876,698.364223 58.8795779,696.390451 61.3144949,696.390451 C63.749412,696.390451 65.7233022,698.364223 65.7233022,700.798994 Z M65.7233022,683.164823 C65.7233022,685.599593 63.749412,687.573365 61.3144949,687.573365 C58.8795779,687.573365 56.9056876,685.599593 56.9056876,683.164823 C56.9056876,680.730052 58.8795779,678.75628 61.3144949,678.75628 C63.749412,678.75628 65.7233022,680.730052 65.7233022,683.164823 Z M65.7233022,665.530651 C65.7233022,667.965422 63.749412,669.939194 61.3144949,669.939194 C58.8795779,669.939194 56.9056876,667.965422 56.9056876,665.530651 C56.9056876,663.09588 58.8795779,661.122108 61.3144949,661.122108 C63.749412,661.122108 65.7233022,663.09588 65.7233022,665.530651 Z M65.7233022,647.89648 C65.7233022,650.331251 63.749412,652.305023 61.3144949,652.305023 C58.8795779,652.305023 56.9056876,650.331251 56.9056876,647.89648 C56.9056876,645.461709 58.8795779,643.487937 61.3144949,643.487937 C63.749412,643.487937 65.7233022,645.461709 65.7233022,647.89648 Z M65.7233022,630.262309 C65.7233022,632.69708 63.749412,634.670852 61.3144949,634.670852 C58.8795779,634.670852 56.9056876,632.69708 56.9056876,630.262309 C56.9056876,627.827538 58.8795779,625.853766 61.3144949,625.853766 C63.749412,625.853766 65.7233022,627.827538 65.7233022,630.262309 Z M65.7233022,612.628137 C65.7233022,615.062908 63.749412,617.03668 61.3144949,617.03668 C58.8795779,617.03668 56.9056876,615.062908 56.9056876,612.628137 C56.9056876,610.193366 58.8795779,608.219595 61.3144949,608.219595 C63.749412,608.219595 65.7233022,610.193366 65.7233022,612.628137 Z M83.3585314,700.798994 C83.3585314,703.233765 81.3846412,705.207537 78.9497241,705.207537 C76.5148071,705.207537 74.5409168,703.233765 74.5409168,700.798994 C74.5409168,698.364223 76.5148071,696.390451 78.9497241,696.390451 C81.3846412,696.390451 83.3585314,698.364223 83.3585314,700.798994 Z M83.3585314,683.164823 C83.3585314,685.599593 81.3846412,687.573365 78.9497241,687.573365 C76.5148071,687.573365 74.5409168,685.599593 74.5409168,683.164823 C74.5409168,680.730052 76.5148071,678.75628 78.9497241,678.75628 C81.3846412,678.75628 83.3585314,680.730052 83.3585314,683.164823 Z M83.3585314,665.530651 C83.3585314,667.965422 81.3846412,669.939194 78.9497241,669.939194 C76.5148071,669.939194 74.5409168,667.965422 74.5409168,665.530651 C74.5409168,663.09588 76.5148071,661.122108 78.9497241,661.122108 C81.3846412,661.122108 83.3585314,663.09588 83.3585314,665.530651 Z M83.3585314,647.89648 C83.3585314,650.331251 81.3846412,652.305023 78.9497241,652.305023 C76.5148071,652.305023 74.5409168,650.331251 74.5409168,647.89648 C74.5409168,645.461709 76.5148071,643.487937 78.9497241,643.487937 C81.3846412,643.487937 83.3585314,645.461709 83.3585314,647.89648 Z M83.3585314,630.262309 C83.3585314,632.69708 81.3846412,634.670852 78.9497241,634.670852 C76.5148071,634.670852 74.5409168,632.69708 74.5409168,630.262309 C74.5409168,627.827538 76.5148071,625.853766 78.9497241,625.853766 C81.3846412,625.853766 83.3585314,627.827538 83.3585314,630.262309 Z M83.3585314,612.628137 C83.3585314,615.062908 81.3846412,617.03668 78.9497241,617.03668 C76.5148071,617.03668 74.5409168,615.062908 74.5409168,612.628137 C74.5409168,610.193366 76.5148071,608.219595 78.9497241,608.219595 C81.3846412,608.219595 83.3585314,610.193366 83.3585314,612.628137 Z M100.993761,700.798994 C100.993761,703.233765 99.0198704,705.207537 96.5849534,705.207537 C94.1500363,705.207537 92.1761461,703.233765 92.1761461,700.798994 C92.1761461,698.364223 94.1500363,696.390451 96.5849534,696.390451 C99.0198704,696.390451 100.993761,698.364223 100.993761,700.798994 Z M100.993761,683.164823 C100.993761,685.599593 99.0198704,687.573365 96.5849534,687.573365 C94.1500363,687.573365 92.1761461,685.599593 92.1761461,683.164823 C92.1761461,680.730052 94.1500363,678.75628 96.5849534,678.75628 C99.0198704,678.75628 100.993761,680.730052 100.993761,683.164823 Z M100.993761,665.530651 C100.993761,667.965422 99.0198704,669.939194 96.5849534,669.939194 C94.1500363,669.939194 92.1761461,667.965422 92.1761461,665.530651 C92.1761461,663.09588 94.1500363,661.122108 96.5849534,661.122108 C99.0198704,661.122108 100.993761,663.09588 100.993761,665.530651 Z M100.993761,647.89648 C100.993761,650.331251 99.0198704,652.305023 96.5849534,652.305023 C94.1500363,652.305023 92.1761461,650.331251 92.1761461,647.89648 C92.1761461,645.461709 94.1500363,643.487937 96.5849534,643.487937 C99.0198704,643.487937 100.993761,645.461709 100.993761,647.89648 Z M100.993761,630.262309 C100.993761,632.69708 99.0198704,634.670852 96.5849534,634.670852 C94.1500363,634.670852 92.1761461,632.69708 92.1761461,630.262309 C92.1761461,627.827538 94.1500363,625.853766 96.5849534,625.853766 C99.0198704,625.853766 100.993761,627.827538 100.993761,630.262309 Z M100.993761,612.628137 C100.993761,615.062908 99.0198704,617.03668 96.5849534,617.03668 C94.1500363,617.03668 92.1761461,615.062908 92.1761461,612.628137 C92.1761461,610.193366 94.1500363,608.219595 96.5849534,608.219595 C99.0198704,608.219595 100.993761,610.193366 100.993761,612.628137 Z" id="Shape" fill="#CDCBDF"></path>
            <path d="M168.153791,806.373385 C168.153791,729.500679 168.153791,632.312969 168.153791,582.109872 C106.273561,582.109872 56.1097229,632.312969 56.1097229,694.241628 C56.1097229,756.170288 106.273561,806.373385 168.153791,806.373385 Z" id="Shape" fill="url(#linearGradient-6)" transform="translate(112.131757, 694.241628) rotate(-270.000000) translate(-112.131757, -694.241628) "></path>
            <path d="M1094.21959,124.439189 C1094.21959,67.7301955 1094.21959,-3.96517601 1094.21959,-41 C1048.37996,-41 1011.21959,-3.96517601 1011.21959,41.7195946 C1011.21959,87.4043652 1048.37996,124.439189 1094.21959,124.439189 Z" id="Shape" fill="url(#linearGradient-7)" transform="translate(1052.719595, 41.719595) rotate(-270.000000) translate(-1052.719595, -41.719595) "></path>
            <path d="M1180.59661,195.816205 C1180.59661,156.739458 1180.59661,107.335974 1180.59661,81.8162048 C1149.00967,81.8162048 1123.40339,107.335974 1123.40339,138.816205 C1123.40339,170.296436 1149.00967,195.816205 1180.59661,195.816205 Z" id="Shape" fill="#FFFFFF" transform="translate(1152.000000, 138.816205) rotate(-270.000000) translate(-1152.000000, -138.816205) "></path>
        </g>
        <g id="Monitor" transform="translate(460.000000, 319.000000)">
            <path d="M373.75,533 L414,533 C419.522847,533 424,537.477153 424,543 L424,573 C424,578.522847 419.522847,583 414,583 L186,583 C180.477153,583 176,578.522847 176,573 L176,543 C176,537.477153 180.477153,533 186,533 L226.25,533 L245,443 L355,443 L373.75,533 L373.75,533 Z" id="Shape" fill="url(#linearGradient-8)"></path>
            <path d="M10,70 L590,70 C595.522847,70 600,74.4771525 600,80 L600,460 C600,465.522847 595.522847,470 590,470 L10,470 C4.4771525,470 6.76353751e-16,465.522847 0,460 L0,80 C-6.76353751e-16,74.4771525 4.4771525,70 10,70 Z" id="Shape" fill="url(#linearGradient-9)"></path>
            <path d="M10,5.68434189e-14 L590,5.68434189e-14 C595.522847,5.58288882e-14 600,4.4771525 600,10 L600,410 L0,410 L0,10 C-6.76353751e-16,4.4771525 4.4771525,5.78579495e-14 10,5.68434189e-14 Z" id="Shape" fill="url(#linearGradient-10)"></path>
            <polygon id="Shape" fill="#FFFFFF" points="30 30 570 30 570 380 30 380"></polygon>
            <path d="M70,226 L530,226 L530,341 L70,341 L70,226 Z M70,71 L530,71 L530,186 L70,186 L70,71 Z" id="Combined-Shape" fill="url(#linearGradient-11)"></path>
        </g>
        <g id="Tab" transform="translate(239.000000, 120.000000)">
            <path d="M10,-1.13686838e-13 L511,-1.15463195e-13 C516.522847,-1.16477725e-13 521,4.4771525 521,10 L521,480 C521,485.522847 516.522847,490 511,490 L10,490 C4.4771525,490 2.45271059e-15,485.522847 1.77635684e-15,480 L1.77635684e-15,10 C1.10000309e-15,4.4771525 4.4771525,-1.14448664e-13 10,-1.13686838e-13 Z" id="Shape" fill="url(#linearGradient-12)"></path>
            <path d="M130,93 L300,93 L300,106 L130,106 L130,93 Z M230,366 L360,366 L360,379 L230,379 L230,366 Z" id="Shape" fill="url(#linearGradient-13)"></path>
            <path d="M320,93 L480,93 L480,106 L320,106 L320,93 Z M130,133 L210,133 L210,146 L130,146 L130,133 Z M300,328 L479,328 L479,341 L300,341 L300,328 Z M380,366 L479,366 L479,379 L380,379 L380,366 Z M380,407 L479,407 L479,419 L380,419 L380,407 Z M230,133 L380,133 L380,146 L230,146 L230,133 Z M230,328 L280,328 L280,341 L230,341 L230,328 Z M210,407 L360,407 L360,419 L210,419 L210,407 Z M130,173 L260,173 L260,186 L130,186 L130,173 Z M280,173 L430,173 L430,186 L280,186 L280,173 Z M479,173 L479,186 L449.575488,186 L449.575488,173 L479,173 Z M130,213 L190,213 L190,225 L130,225 L130,213 Z M360,213 L478,213 L478,225 L360,225 L360,213 Z M130,252 L240,252 L240,264 L130,264 L130,252 Z M260,252 L478,252 L478,264 L260,264 L260,252 Z M350,290 L477,290 L477,302 L350,302 L350,290 Z M130,329 L210,329 L210,341 L130,341 L130,329 Z M130,368 L210,368 L210,380 L130,380 L130,368 Z M130,407 L190,407 L190,419 L130,419 L130,407 Z M230,446 L480,446 L480,458 L230,458 L230,446 Z" id="Shape" fill="#BDDEFF"></path>
            <path d="M40,133 L90,133 L90,146 L40,146 L40,133 Z M40,213 L90,213 L90,225 L40,225 L40,213 Z M40,252 L90,252 L90,264 L40,264 L40,252 Z M40,290 L90,290 L90,302 L40,302 L40,290 Z M40,368 L90,368 L90,380 L40,380 L40,368 Z M40,407 L90,407 L90,419 L40,419 L40,407 Z M40,446 L90,446 L90,458 L40,458 L40,446 Z M40,93 L90,93 L90,106 L40,106 L40,93 Z" id="Shape" fill="#3B97FC"></path>
            <path d="M400,133 L479,133 L479,146 L400,146 L400,133 Z M130,290 L330,290 L330,302 L130,302 L130,290 Z" id="Shape" fill="#52D7FD"></path>
            <path d="M40,173 L90,173 L90,186 L40,186 L40,173 Z M40,329 L90,329 L90,341 L40,341 L40,329 Z" id="Shape" fill="#0B3B85"></path>
            <path d="M210,213 L340,213 L340,225 L210,225 L210,213 Z M130,446 L210,446 L210,458 L130,458 L130,446 Z" id="Shape" fill="#FDA0A2"></path>
            <path d="M10,1.27897692e-13 L511,1.29674049e-13 C516.522847,1.28659519e-13 521,4.4771525 521,10 L521,60 L2.27373675e-13,60 L2.27373675e-13,10 C2.26697322e-13,4.4771525 4.4771525,1.3068858e-13 10,1.27897692e-13 Z" id="Shape" fill="url(#linearGradient-14)"></path>
            <path d="M49,40 C43.4771525,40 39,35.5228475 39,30 C39,24.4771525 43.4771525,20 49,20 C54.5228475,20 59,24.4771525 59,30 C59,35.5228475 54.5228475,40 49,40 Z M89,40 C83.4771525,40 79,35.5228475 79,30 C79,24.4771525 83.4771525,20 89,20 C94.5228475,20 99,24.4771525 99,30 C99,35.5228475 94.5228475,40 89,40 Z M129,40 C123.477153,40 119,35.5228475 119,30 C119,24.4771525 123.477153,20 129,20 C134.522847,20 139,24.4771525 139,30 C139,35.5228475 134.522847,40 129,40 Z" id="Shape" fill="#FFFFFF"></path>
        </g>
        <g id="Women" transform="translate(817.000000, 242.000000)">
            <path d="M29.2272994,56.5920611 L18.6287183,40.3409034 C17.5954261,38.756522 17.8132066,36.6649321 19.1507336,35.3274051 L35.3274051,19.1507336 C36.6649321,17.8132066 38.756522,17.5954261 40.3409034,18.6287183 L56.5920611,29.2272994 C61.898651,26.1912231 67.6205707,23.7984125 73.6515481,22.1551397 L77.6471667,3.17595808 C78.0368456,1.32498335 79.669817,-1.98951966e-13 81.5613659,-1.98951966e-13 L104.438634,-1.98951966e-13 C106.330183,-1.98951966e-13 107.963154,1.32498335 108.352833,3.17595808 L112.348448,22.1551267 C118.379429,23.7984125 124.101349,26.1912231 129.407939,29.2272994 L145.659097,18.6287183 C147.243478,17.5954261 149.335068,17.8132066 150.672595,19.1507336 L166.849266,35.3274051 C168.186793,36.6649321 168.404574,38.756522 167.371282,40.3409034 L156.772701,56.5920611 C159.808777,61.8986511 162.201588,67.6205711 163.84486,73.6515488 L182.824042,77.6471667 C184.675017,78.0368456 186,79.669817 186,81.5613659 L186,104.438634 C186,106.330183 184.675017,107.963154 182.824042,108.352833 L163.844864,112.34845 C162.201588,118.379429 159.808777,124.101349 156.772701,129.407939 L169.144235,148.377626 L150.672595,166.849266 C149.335068,168.186793 147.243478,168.404574 145.659097,167.371282 L129.407939,156.772701 C124.101349,159.808777 118.379429,162.201587 112.348452,163.84486 L108.352833,182.824042 C107.963154,184.675017 106.330183,186 104.438634,186 L81.5613659,186 C79.669817,186 78.0368456,184.675017 77.6471667,182.824042 L73.6515523,163.844873 C67.6205707,162.201587 61.898651,159.808777 56.5920611,156.772701 L40.3409034,167.371282 C38.756522,168.404574 36.6649321,168.186793 35.3274051,166.849266 L19.1507336,150.672595 C17.8132066,149.335068 17.5954261,147.243478 18.6287183,145.659097 L29.2272994,129.407939 C26.191223,124.101349 23.7984124,118.379429 22.1551396,112.348451 L3.17595808,108.352833 C1.32498335,107.963154 1.13686838e-13,106.330183 1.13686838e-13,104.438634 L1.13686838e-13,81.5613659 C1.13686838e-13,79.669817 1.32498335,78.0368456 3.17595808,77.6471667 L22.1551359,73.6515503 C23.7984124,67.6205711 26.191223,61.8986511 29.2272994,56.5920611 Z M93,127.263158 C111.92302,127.263158 127.263158,111.92302 127.263158,93 C127.263158,74.0769804 111.92302,58.7368421 93,58.7368421 C74.0769804,58.7368421 58.7368421,74.0769804 58.7368421,93 C58.7368421,111.92302 74.0769804,127.263158 93,127.263158 Z" id="Shape" fill="url(#linearGradient-15)"></path>
            <path d="M376.356769,639.360352 C378.619068,635.345842 380.928562,631.935463 383.285249,629.129214 C386.82021,624.919723 388.072676,626.425223 389.180949,628.344357 C390.289222,630.263491 392.776749,634.572465 394.786145,638.052841 C396.795635,641.533242 395.93816,642.540278 389.562003,645.663589 C383.185846,648.7869 382.1083,648.652978 376.242527,653.353592 C370.376755,658.054205 357.279431,665.364465 351.838359,662.480707 C346.397526,659.596811 354.462536,652.46574 361.823973,646.772769 C366.731472,642.977421 371.575738,640.506615 376.356769,639.360352 Z" id="Shape" fill="#221E41"></path>
            <path d="M379.167296,611 L389.923812,629.630833 L386.792334,633.545834 C381.101453,640.660624 372.748674,645.138833 363.673253,645.940762 L372.332482,638.100623 L362.306272,620.734717 L379.167296,611 Z" id="Shape" fill="#F4B696"></path>
            <polygon id="Shape" fill="#221E41" points="362.736305 631.206751 290.91113 518.531823 310.270458 382 336.600537 516.10222 389.122126 618.170175"></polygon>
            <path d="M280.385837,648.155522 C284.3523,645.810004 288.05757,644.011276 291.501645,642.759337 C296.667757,640.881291 296.999674,642.811325 296.9999,645.027481 C297.000125,647.243636 296.9999,652.21908 296.9999,656.237872 C296.999968,660.256733 295.753856,660.700114 288.670286,660.216902 C281.586716,659.73369 280.720495,659.078938 273.290281,660.216902 C265.860066,661.354867 250.86232,661.137076 247.592093,655.919131 C244.322141,650.701188 254.87218,648.558004 264.093858,647.308465 C270.241551,646.475347 275.672211,646.757699 280.385837,648.155522 Z" id="Shape" fill="#221E41"></path>
            <path d="M297,625 L297,646.513033 L292.33056,648.337784 C283.844717,651.653932 274.371895,651.355786 266.111384,647.512566 L277.530567,645.052421 L277.530567,625 L297,625 Z" id="Shape" fill="#F4B696"></path>
            <path d="M143.692116,134.030191 L134.986688,124.316851 C136.454832,117.13789 134.822323,111.844159 130.089163,108.435657 L127.540917,113.54841 C122.903787,110.139908 118.970438,106.322909 115.740871,102.097414 C110.896521,95.7591714 101.188422,109.864085 104,120.166839 C106.811578,130.469593 117.4161,133 123.423621,138.8212 C124.384197,139.751984 127.806271,142.777844 133.689843,147.898779 L143.692116,134.030191 Z" id="Shape" fill="#F4B696"></path>
            <path d="M278.684751,179.344077 L275,157 C263.924762,158.670338 257.835904,155.362 256.733427,147.074987 C255.63095,138.787974 255.022267,133.815102 254.907378,132.156369 L248.778747,130.175622 L256.733427,119.923765 L260.981802,100.146916 C271.123642,96.40837 282.227185,100.245765 294.292431,111.659102 C312.390299,128.779107 303.348242,167.530997 300.946142,176.81585 C299.344742,183.005751 291.924278,183.848494 278.684751,179.344077 Z" id="Shape" fill="#F4B696"></path>
            <path d="M303,637.640591 L269.146682,637.640591 L226.007821,345.224863 L313.873707,344.795951 C315.940287,360.842179 315.601204,377.106945 312.867656,393.053101 L292.635229,511.078969 L303,637.640591 Z" id="Shape" fill="#312C74"></path>
            <path d="M226.007821,345.224863 L240.089163,235.5 C233.660312,223.748953 232.053099,210.782123 235.267525,196.599512 C237.818351,188.416993 243.221661,184.325733 251.477453,184.325733 C263.861141,184.325733 298.741537,165.173869 306.305533,165.173869 C316.273527,168.813061 320.382516,182.375551 318.632501,205.861339 C316.882485,229.347127 315.343473,275.893347 314.015465,345.5 L226.007821,345.224863 Z" id="Shape" fill="url(#linearGradient-16)"></path>
            <path d="M279.161158,212.941649 L235.50311,223.95597 C234.062235,219.334697 233.341798,213.682707 233.341798,207 C233.341798,200.317293 248.614918,202.297843 279.161158,212.941649 Z" id="Shape" fill="#211D41"></path>
            <path d="M290.960849,213.901084 L195.930943,208.830683 C191.403711,208.589129 187.134366,206.648086 183.976107,203.39546 L124.318105,141.954903 L141.592366,129.147837 L194.60508,173.576275 C266.790016,168.104817 303.533752,165.369088 304.836286,165.369088 C306.13882,165.369088 306.13882,168.104817 304.836286,173.576275 L290.960849,213.901084 Z" id="Shape" fill="url(#linearGradient-17)"></path>
            <path d="M252.341023,97.7124896 C247.392604,106.156435 254.008776,113.73511 272.189538,120.448513 C299.460683,130.518618 275.002437,136.613219 286.914784,153.315606 C298.827131,170.017993 271.252843,195.920328 292.635229,219.714236 C306.890154,235.576842 313.896667,245.075211 313.654769,248.209343 C324.895823,243.281271 331.430292,232.878157 333.258175,217 C336,193.182765 312.482502,168.943509 315.785287,147.520595 C319.088073,126.097682 320.671159,105.671404 295,92.6665509 C277.885894,83.9966487 263.666235,85.6786282 252.341023,97.7124896 Z" id="Shape" fill="url(#linearGradient-18)"></path>
            <path d="M284.362079,626.4726 L283.367995,626.581219 L282.60766,619.622636 L283.601744,619.514016 L284.362079,626.4726 Z M282.51555,609.573182 L281.521467,609.681801 L280.761132,602.723217 L281.755215,602.614598 L282.51555,609.573182 Z M280.669022,592.673764 L279.674938,592.782383 L278.914603,585.823799 L279.908687,585.71518 L280.669022,592.673764 Z M278.822493,575.774346 L277.82841,575.882965 L277.068075,568.924381 L278.062158,568.815762 L278.822493,575.774346 Z M276.975965,558.874928 L275.981881,558.983547 L275.221546,552.024963 L276.21563,551.916344 L276.975965,558.874928 Z M275.129436,541.97551 L274.135353,542.084129 L273.375018,535.125545 L274.369101,535.016926 L275.129436,541.97551 Z M273.282908,525.076092 L272.288824,525.184711 L271.528489,518.226127 L272.522573,518.117508 L273.282908,525.076092 Z M271.436379,508.176673 L270.442296,508.285293 L269.681961,501.326709 L270.676044,501.218089 L271.436379,508.176673 Z M270.593806,491.288294 L269.593869,491.277059 L269.672517,484.277501 L270.672454,484.288736 L270.593806,491.288294 Z M270.784807,474.289367 L269.78487,474.278132 L269.863518,467.278574 L270.863455,467.289809 L270.784807,474.289367 Z M270.975808,457.29044 L269.975871,457.279205 L270.054519,450.279647 L271.054456,450.290882 L270.975808,457.29044 Z M271.166809,440.291513 L270.166872,440.280278 L270.24552,433.28072 L271.245457,433.291955 L271.166809,440.291513 Z M271.35781,423.292586 L270.357873,423.281351 L270.436521,416.281793 L271.436458,416.293028 L271.35781,423.292586 Z M271.548811,406.293659 L270.548874,406.282424 L270.627522,399.282866 L271.627459,399.294101 L271.548811,406.293659 Z M271.739812,389.294732 L270.739875,389.283497 L270.818523,382.283939 L271.81846,382.295174 L271.739812,389.294732 Z M271.930813,372.295805 L270.930876,372.28457 L271.009524,365.285012 L272.009461,365.296247 L271.930813,372.295805 Z" id="Shape" fill="#FFFFFF" fill-rule="nonzero"></path>
        </g>
        <g id="Men" transform="translate(183.027611, 496.359400)">
            <polygon id="Shape" fill="#F4B696" points="191.554096 367.688726 212.342823 362.505514 217.517848 383.261406 196.729121 388.444617"></polygon>
            <path d="M194.999189,386.426363 L216.834363,380.982243 L231.816128,382.146018 C239.400842,382.874463 245.522083,382.417392 247.448238,390.142778 C247.943037,392.12731 247.027949,394.064257 245.404332,394.46907 L204.447967,404.680639 C201.901468,405.315552 199.322423,403.765906 198.687509,401.219406 L194.999189,386.426363 Z" id="Shape" fill="#211D41"></path>
            <polygon id="Shape" fill="#F4B696" points="131.988266 370.6406 152.798575 368.65497 149.595815 388.031904 128.170669 388.031904"></polygon>
            <path d="M127.980384,385.655092 L150.484011,385.655092 L164.739211,390.408716 C171.9224,392.950431 177.972389,393.987799 177.972389,401.949687 C177.972389,403.994972 176.615893,405.653004 174.942571,405.653004 L132.732384,405.653004 C130.107926,405.653004 127.980384,403.525461 127.980384,400.901004 L127.980384,385.655092 Z" id="Shape" fill="#211D41"></path>
            <path d="M154.119857,206.049938 C151.979199,207.124889 151.402006,209.119773 154.119857,211.007693 C156.837707,212.895613 156.894213,212.590169 161.725075,213.445926 C171.725676,215.21747 157.45875,219.556932 151.742781,217.093292 C146.026812,214.629652 147.155956,214.111988 133.554773,214.111988 C119.95359,214.111988 111.21914,217.598658 90.5274141,219.152565 C76.73293,220.188503 57.6449314,219.502079 33.2634183,217.093292 L22.9220164,159.76509 L55.4901947,157.225036 L58.8716408,190.24569 C95.9950955,197.724486 107.304214,200.484855 123.080726,200.484855 C138.857239,200.484855 151.075328,197.724486 157.990398,197.724486 C167.542226,197.809311 174.492545,199.666059 178.841354,203.294731 C176.869808,204.764241 175.48754,206.049938 169.80553,204.624347 C164.123521,203.198755 156.260514,204.974987 154.119857,206.049938 Z" id="Shape" fill="#211D41"></path>
            <path d="M189.093395,378.16751 L160.787043,284.177285 L56.5657795,293.762971 C32.4752467,295.978683 10.5007621,279.920187 5.29432424,256.294858 L0.340645793,233.816479 C0.73916686,233.88791 60.6405931,233.925545 180.044925,233.929385 C192.037178,233.929771 202.188587,242.782168 203.820814,254.662824 L219.972389,372.22695 L189.093395,378.16751 Z" id="Shape" fill="#121958"></path>
            <path d="M125.201637,377.363032 L145.553083,288.177285 L52.7719422,296.779452 C51.2987918,296.916035 49.8201143,296.984436 48.3406458,296.984436 C21.8309778,296.984436 0.340645793,275.494104 0.340645793,248.984436 L0.340645793,233.816479 C0.725594287,233.885477 61.0850286,233.922943 181.418949,233.928876 C184.494222,233.929027 187.540808,234.520209 190.392947,235.670256 C202.686043,240.627112 208.633242,254.610962 203.676386,266.904058 L159.136818,377.363032 L125.201637,377.363032 Z" id="Shape" fill="url(#linearGradient-19)"></path>
            <path d="M33.0868794,83.9297127 C44.2869033,79.2784982 57.3611195,84.3645074 72.309528,99.1877404 C87.2579364,114.010973 88.9099837,159.180623 77.2656697,234.696689 L-8.52651283e-14,234.696689 L9.9475983e-14,165.182024 C-3.26849658e-13,125.126653 2.43639593,107.27454 12.3980327,94.1405997 C19.0391238,85.3846394 25.9354061,81.9810104 33.0868794,83.9297127 Z" id="Shape" fill="url(#linearGradient-20)"></path>
            <path d="M175.989029,206.023805 C176.635868,206.023805 184.332311,205.829309 187.237755,206.53444 C190.143198,207.23957 188.739606,210.122918 181.613392,209.609944 C174.487179,209.09697 175.342191,206.023805 175.989029,206.023805 Z" id="Shape" fill="#FF7272"></path>
            <path d="M228.309464,163.003782 L252.745743,146.287806 L253.464288,146.300065 C254.153867,146.311829 254.703347,146.880691 254.691586,147.570655 C254.688503,147.751533 254.646201,147.929585 254.567603,148.092504 L215.382884,229.315551 C215.075491,229.952723 214.512558,230.429657 213.833785,230.627995 L212.926758,230.893029 L193.721633,231.591744 L228.309464,163.003782 Z" id="Shape" fill="url(#linearGradient-21)"></path>
            <polygon id="Shape" fill="url(#linearGradient-22)" points="227.063957 162.938471 252.798207 146.243641 212.060005 228.413122 192.476126 231.526432"></polygon>
            <path d="M110.098856,229.865402 L213.216734,226.654461 C214.022464,226.465285 214.828907,226.965463 215.017974,227.771641 C215.050304,227.909495 215.062954,228.051237 215.055547,228.192642 L214.983067,229.576332 C214.948181,230.242329 214.477841,230.805221 213.828927,230.957579 L110.711049,234.16852 C109.905319,234.357696 109.098877,233.857518 108.90981,233.05134 C108.87748,232.913486 108.86483,232.771744 108.872237,232.630339 L108.944716,231.246649 C108.979602,230.580652 109.449942,230.01776 110.098856,229.865402 Z" id="Shape" fill="url(#linearGradient-23)"></path>
            <path d="M55.3525753,140.865298 L70.5481681,205.35242 C53.6831365,208.031751 45.2506207,208.954515 45.2506207,208.120712 C45.2506207,207.286909 42.7958886,198.14298 37.8864242,180.688924 L55.3525753,140.865298 Z" id="Shape" fill="#221E41"></path>
            <path d="M173.271068,220.662927 C173.271068,221.495981 174.760832,222.386651 177.676256,223.991153 C183.789158,227.355386 177.957169,227.69636 172.2412,225.23272 C166.525231,222.76908 165.624208,221.014922 151.567019,221.495981 C137.50983,221.97704 109.798626,225.738086 89.1069001,227.291993 C75.312416,228.327931 56.2244174,227.641507 31.8429043,225.23272 L21.5015024,167.904518 L54.0696806,165.364464 L57.4511267,198.385118 C98.3955358,203.370981 126.755997,205.863913 142.53251,205.863913 C158.309022,205.863913 169.654814,205.863913 176.569884,205.863913 C181.780539,207.458371 186.872747,210.996259 191.846507,216.477578 C193.150671,218.226569 192.742659,218.958093 190.622471,218.672149 C187.442188,218.243233 182.831059,212.250683 177.222494,211.306922 C183.70226,214.843169 188.011004,218.576954 190.080581,221.495981 C193.184946,225.874521 185.569433,221.049684 182.909337,219.220843 C176.483824,215.956517 174.370673,215.176888 176.569884,216.881958 C179.8687,219.439562 182.905344,221.450567 185.338437,223.341643 C187.771531,225.23272 184.405534,225.272199 181.266996,223.991153 C178.128457,222.710107 173.271068,219.829874 173.271068,220.662927 Z" id="Shape" fill="#F4B696"></path>
            <path d="M32.2794679,75.6052844 C37.0800254,66.6022597 40.496753,59.7897824 42.5296505,55.1678525 C44.562548,50.5459226 46.5776815,45.3670366 48.575051,39.6311946 C47.3578635,29.5879211 50.8012002,23.1565914 58.9050611,20.3372055 C71.0608524,16.1081265 90.9985859,22.7452405 96.1926131,28.2442837 C101.38664,33.7433269 103.184414,47.8535244 96.1926131,56.2815202 L97.8530552,66.3028362 C95.6530345,67.9175186 93.5209777,68.2375505 91.4568848,67.2629318 C88.1701916,72.194771 85.7783996,75.2910689 84.2815087,76.5518256 C82.0361723,78.4429606 76.7892869,84.1731541 65.108854,78.5692597 C62.4424261,83.6021442 60.4327224,87.3047288 59.0797428,89.6770136 C57.4899291,92.4645579 67.9684788,96.3563007 59.0797428,104.175665 C53.1539187,109.388575 42.5751548,102.715488 27.3434509,84.1564042 L32.2794679,75.6052844 Z" id="Shape" fill="#F4B696"></path>
            <path d="M39.7331701,67.9950354 C37.518346,65.9523307 36.6774073,63.7071719 37.2103542,61.2595588 C38.0097744,57.5881392 40.6479302,56.8007067 36.7643326,47.0182049 C32.880735,37.2357031 31.247204,25.7204449 42.1111225,11.2174156 C52.975041,-3.28561373 63.2377167,-0.677935755 73.2739874,2.41396323 C83.3102581,5.50586222 86.7893447,8.23021998 101.889897,9.25111615 C116.99045,10.2720123 120.180091,21.6732288 111.893253,33.7602843 C103.606415,45.8473398 83.7696077,37.2446831 80.4496797,35.3279218 C77.1297518,33.4111605 76.722034,39.4124059 74.8658049,44.9994767 C73.0095759,50.5865475 69.0560583,50.3546955 68.0982963,49.0695608 C67.1405343,47.784426 64.8064421,45.7909561 61.131573,47.7927129 C57.4567039,49.7944698 57.9131407,55.5424294 59.7368993,56.595377 C61.5606579,57.6483245 64.3609292,58.1319927 63.5536478,60.3730155 C62.7463663,62.6140384 58.8176473,68.9233553 55.0978868,71.5869306 C52.6180464,73.3626474 47.4964742,72.165349 39.7331701,67.9950354 Z" id="Shape" fill="url(#linearGradient-24)"></path>
            <polygon id="Shape" fill="url(#linearGradient-25)" points="55.1514788 136.528686 57.525176 172.22983 18.3307786 178.566261 16.5953258 141.39206"></polygon>
            <path d="M142.357098,368.516017 L144.302446,361.79176 L145.263054,362.069667 L143.317706,368.793924 L142.357098,368.516017 Z M147.081513,352.18568 L149.026861,345.461424 L149.987469,345.73933 L148.042121,352.463587 L147.081513,352.18568 Z M151.805928,335.855343 L153.751276,329.131087 L154.711884,329.408993 L152.766536,336.13325 L151.805928,335.855343 Z M156.530343,319.525006 L158.475691,312.80075 L159.436299,313.078657 L157.490951,319.802913 L156.530343,319.525006 Z M161.254758,303.194669 L163.200106,296.470413 L164.160714,296.74832 L162.215366,303.472576 L161.254758,303.194669 Z M165.979173,286.864332 L167.924521,280.140076 L168.885129,280.417983 L166.939781,287.142239 L165.979173,286.864332 Z M167.868016,270.784308 C166.823175,268.79991 165.114486,267.240369 163.010217,266.396138 L163.382567,265.468046 C165.709088,266.401444 167.598412,268.125851 168.752857,270.318415 L167.868016,270.784308 Z M153.29225,266.037793 L146.30306,266.426665 L146.247507,265.428209 L153.236697,265.039337 L153.29225,266.037793 Z M136.318503,266.982196 L129.329313,267.371068 L129.273759,266.372612 L136.26295,265.98374 L136.318503,266.982196 Z M119.344755,267.926599 L112.355565,268.315471 L112.300012,267.317015 L119.289202,266.928143 L119.344755,267.926599 Z M102.371008,268.871002 L95.3818176,269.259874 L95.3262645,268.261418 L102.315455,267.872546 L102.371008,268.871002 Z M85.3972603,269.815405 L78.4080702,270.204277 L78.3525171,269.205821 L85.3417072,268.816949 L85.3972603,269.815405 Z M68.4235128,270.759808 L61.4343227,271.14868 L61.3787696,270.150224 L68.3679597,269.761352 L68.4235128,270.759808 Z M51.3187826,270.276735 C49.0314709,269.516337 46.8954518,268.357297 45.0109801,266.857387 L45.6337322,266.074968 C47.426491,267.501881 49.4585256,268.604497 51.634249,269.327799 L51.3187826,270.276735 Z M38.8786415,258.756209 C38.6738749,258.267855 38.4875831,257.770614 38.3202256,257.265267 L36.6067025,252.075029 L37.5562906,251.761529 L39.269668,256.951326 C39.428781,257.431778 39.6060369,257.9049 39.800854,258.369525 L38.8786415,258.756209 Z" id="Shape" fill="#FFFFFF" fill-rule="nonzero"></path>
        </g>
    </g>
</svg>