<?xml version="1.0" encoding="UTF-8"?>
<svg width="1440px" height="1024px" viewBox="0 0 1440 1024" version="1.1" xmlns="http://www.w3.org/2000/svg" xmlns:xlink="http://www.w3.org/1999/xlink">
    <!-- Generator: Sketch 53.2 (72643) - https://sketchapp.com -->
    <title>Team Work</title>
    <desc>Created with Sketch.</desc>
    <defs>
        <linearGradient x1="50%" y1="7.26438915%" x2="50%" y2="151.05781%" id="linearGradient-1">
            <stop stop-color="#D0F6FF" offset="0%"></stop>
            <stop stop-color="#8BE2F7" offset="100%"></stop>
        </linearGradient>
        <linearGradient x1="50%" y1="7.26438915%" x2="50%" y2="151.05781%" id="linearGradient-2">
            <stop stop-color="#D0F6FF" offset="0%"></stop>
            <stop stop-color="#8BE2F7" offset="100%"></stop>
        </linearGradient>
        <linearGradient x1="50%" y1="0%" x2="50%" y2="100%" id="linearGradient-3">
            <stop stop-color="#FF9485" offset="0%"></stop>
            <stop stop-color="#FF676E" offset="100%"></stop>
        </linearGradient>
        <linearGradient x1="4.76643799%" y1="37.0482836%" x2="100%" y2="65.4882422%" id="linearGradient-4">
            <stop stop-color="#6EAE7C" offset="0%"></stop>
            <stop stop-color="#0F575D" offset="100%"></stop>
        </linearGradient>
        <linearGradient x1="36.1309735%" y1="13.1381206%" x2="52.1894951%" y2="50%" id="linearGradient-5">
            <stop stop-color="#CFE49F" offset="0%"></stop>
            <stop stop-color="#A9D386" offset="100%"></stop>
        </linearGradient>
        <linearGradient x1="34.1151714%" y1="33.7956635%" x2="64.8333502%" y2="52.4329662%" id="linearGradient-6">
            <stop stop-color="#77D791" offset="0%"></stop>
            <stop stop-color="#4FA67E" offset="100%"></stop>
        </linearGradient>
        <linearGradient x1="50%" y1="83.9547257%" x2="50.9350565%" y2="37.2179755%" id="linearGradient-7">
            <stop stop-color="#2B3389" offset="0%"></stop>
            <stop stop-color="#444FB7" offset="100%"></stop>
        </linearGradient>
        <linearGradient x1="50%" y1="0%" x2="52.2761686%" y2="89.3678428%" id="linearGradient-8">
            <stop stop-color="#0F1752" offset="0%"></stop>
            <stop stop-color="#272884" offset="100%"></stop>
        </linearGradient>
        <linearGradient x1="50%" y1="0%" x2="50%" y2="100%" id="linearGradient-9">
            <stop stop-color="#FF9485" offset="0%"></stop>
            <stop stop-color="#FF676E" offset="100%"></stop>
        </linearGradient>
        <linearGradient x1="50%" y1="49.5632246%" x2="100%" y2="50.3438981%" id="linearGradient-10">
            <stop stop-color="#0F1752" offset="0%"></stop>
            <stop stop-color="#272884" offset="100%"></stop>
        </linearGradient>
        <linearGradient x1="50%" y1="-2.48949813e-15%" x2="50%" y2="100%" id="linearGradient-11">
            <stop stop-color="#4DBCFA" offset="0%"></stop>
            <stop stop-color="#1486DB" offset="100%"></stop>
        </linearGradient>
        <linearGradient x1="50%" y1="0%" x2="50%" y2="69.6197333%" id="linearGradient-12">
            <stop stop-color="#4DBCFA" offset="0%"></stop>
            <stop stop-color="#1486DB" offset="100%"></stop>
        </linearGradient>
        <linearGradient x1="50%" y1="0%" x2="50%" y2="100%" id="linearGradient-13">
            <stop stop-color="#1D2A78" offset="0%"></stop>
            <stop stop-color="#12033B" offset="100%"></stop>
        </linearGradient>
        <linearGradient x1="50%" y1="0%" x2="50%" y2="100%" id="linearGradient-14">
            <stop stop-color="#1D2A78" offset="0%"></stop>
            <stop stop-color="#12033B" offset="100%"></stop>
        </linearGradient>
        <linearGradient x1="50%" y1="0%" x2="50%" y2="100%" id="linearGradient-15">
            <stop stop-color="#1D2A78" offset="0%"></stop>
            <stop stop-color="#12033B" offset="100%"></stop>
        </linearGradient>
        <linearGradient x1="82.5767258%" y1="-52.951376%" x2="82.5767258%" y2="186.664812%" id="linearGradient-16">
            <stop stop-color="#1533B6" offset="0%"></stop>
            <stop stop-color="#356BE9" offset="100%"></stop>
        </linearGradient>
        <linearGradient x1="50%" y1="7.26438915%" x2="50%" y2="151.05781%" id="linearGradient-17">
            <stop stop-color="#D0F6FF" offset="0%"></stop>
            <stop stop-color="#8BE2F7" offset="100%"></stop>
        </linearGradient>
        <linearGradient x1="50%" y1="0%" x2="50%" y2="100%" id="linearGradient-18">
            <stop stop-color="#FF9485" offset="0%"></stop>
            <stop stop-color="#FF676E" offset="100%"></stop>
        </linearGradient>
        <linearGradient x1="50%" y1="0%" x2="50%" y2="100%" id="linearGradient-19">
            <stop stop-color="#1D2A78" offset="0%"></stop>
            <stop stop-color="#12033B" offset="100%"></stop>
        </linearGradient>
        <linearGradient x1="50%" y1="0%" x2="50%" y2="100%" id="linearGradient-20">
            <stop stop-color="#1D2A78" offset="0%"></stop>
            <stop stop-color="#12033B" offset="100%"></stop>
        </linearGradient>
        <linearGradient x1="82.5767258%" y1="-52.951376%" x2="82.5767258%" y2="186.664812%" id="linearGradient-21">
            <stop stop-color="#1533B6" offset="0%"></stop>
            <stop stop-color="#356BE9" offset="100%"></stop>
        </linearGradient>
        <linearGradient x1="50%" y1="0%" x2="50%" y2="100%" id="linearGradient-22">
            <stop stop-color="#FF9485" offset="0%"></stop>
            <stop stop-color="#FF676E" offset="100%"></stop>
        </linearGradient>
        <linearGradient x1="50%" y1="0%" x2="50%" y2="100%" id="linearGradient-23">
            <stop stop-color="#FF9485" offset="0%"></stop>
            <stop stop-color="#FF676E" offset="100%"></stop>
        </linearGradient>
        <linearGradient x1="50%" y1="0%" x2="50%" y2="100%" id="linearGradient-24">
            <stop stop-color="#1D2A78" offset="0%"></stop>
            <stop stop-color="#12033B" offset="100%"></stop>
        </linearGradient>
    </defs>
    <g id="Team-Work" stroke="none" stroke-width="1" fill="none" fill-rule="evenodd">
        <rect fill="#FFFFFF" x="0" y="0" width="1440" height="1024"></rect>
        <g id="Ornament" transform="translate(145.000000, 148.000000)">
            <path d="M419,51 C474.228475,51 519,95.771525 519,151 L519,198 L285,198 C229.771525,198 185,153.228475 185,98 L185,51 L419,51 Z" id="Shape" fill="url(#linearGradient-1)"></path>
            <path d="M0,685 L1171,685 C1207.45079,685 1237,714.549207 1237,751 L66,751 C29.5492065,751 0,721.450793 0,685 Z" id="Shape" fill="url(#linearGradient-2)"></path>
            <path d="M575.817615,92.5793992 C575.817615,95.0141701 573.843724,96.987942 571.408807,96.987942 C568.97389,96.987942 567,95.0141701 567,92.5793992 C567,90.1446282 568.97389,88.1708564 571.408807,88.1708564 C573.843724,88.1708564 575.817615,90.1446282 575.817615,92.5793992 Z M575.817615,74.9452279 C575.817615,77.3799989 573.843724,79.3537707 571.408807,79.3537707 C568.97389,79.3537707 567,77.3799989 567,74.9452279 C567,72.5104569 568.97389,70.5366851 571.408807,70.5366851 C573.843724,70.5366851 575.817615,72.5104569 575.817615,74.9452279 Z M575.817615,57.3110566 C575.817615,59.7458276 573.843724,61.7195995 571.408807,61.7195995 C568.97389,61.7195995 567,59.7458276 567,57.3110566 C567,54.8762857 568.97389,52.9025138 571.408807,52.9025138 C573.843724,52.9025138 575.817615,54.8762857 575.817615,57.3110566 Z M575.817615,39.6768854 C575.817615,42.1116563 573.843724,44.0854282 571.408807,44.0854282 C568.97389,44.0854282 567,42.1116563 567,39.6768854 C567,37.2421144 568.97389,35.2683425 571.408807,35.2683425 C573.843724,35.2683425 575.817615,37.2421144 575.817615,39.6768854 Z M575.817615,22.0427141 C575.817615,24.4774851 573.843724,26.4512569 571.408807,26.4512569 C568.97389,26.4512569 567,24.4774851 567,22.0427141 C567,19.6079431 568.97389,17.6341713 571.408807,17.6341713 C573.843724,17.6341713 575.817615,19.6079431 575.817615,22.0427141 Z M575.817615,4.40854282 C575.817615,6.84331379 573.843724,8.81708564 571.408807,8.81708564 C568.97389,8.81708564 567,6.84331379 567,4.40854282 C567,1.97377185 568.97389,4.93827201e-13 571.408807,4.93827201e-13 C573.843724,4.93827201e-13 575.817615,1.97377185 575.817615,4.40854282 Z M593.452844,92.5793992 C593.452844,95.0141701 591.478954,96.987942 589.044037,96.987942 C586.609119,96.987942 584.635229,95.0141701 584.635229,92.5793992 C584.635229,90.1446282 586.609119,88.1708564 589.044037,88.1708564 C591.478954,88.1708564 593.452844,90.1446282 593.452844,92.5793992 Z M593.452844,74.9452279 C593.452844,77.3799989 591.478954,79.3537707 589.044037,79.3537707 C586.609119,79.3537707 584.635229,77.3799989 584.635229,74.9452279 C584.635229,72.5104569 586.609119,70.5366851 589.044037,70.5366851 C591.478954,70.5366851 593.452844,72.5104569 593.452844,74.9452279 Z M593.452844,57.3110566 C593.452844,59.7458276 591.478954,61.7195995 589.044037,61.7195995 C586.609119,61.7195995 584.635229,59.7458276 584.635229,57.3110566 C584.635229,54.8762857 586.609119,52.9025138 589.044037,52.9025138 C591.478954,52.9025138 593.452844,54.8762857 593.452844,57.3110566 Z M593.452844,39.6768854 C593.452844,42.1116563 591.478954,44.0854282 589.044037,44.0854282 C586.609119,44.0854282 584.635229,42.1116563 584.635229,39.6768854 C584.635229,37.2421144 586.609119,35.2683425 589.044037,35.2683425 C591.478954,35.2683425 593.452844,37.2421144 593.452844,39.6768854 Z M593.452844,22.0427141 C593.452844,24.4774851 591.478954,26.4512569 589.044037,26.4512569 C586.609119,26.4512569 584.635229,24.4774851 584.635229,22.0427141 C584.635229,19.6079431 586.609119,17.6341713 589.044037,17.6341713 C591.478954,17.6341713 593.452844,19.6079431 593.452844,22.0427141 Z M593.452844,4.40854282 C593.452844,6.84331379 591.478954,8.81708564 589.044037,8.81708564 C586.609119,8.81708564 584.635229,6.84331379 584.635229,4.40854282 C584.635229,1.97377185 586.609119,4.93827201e-13 589.044037,4.93827201e-13 C591.478954,4.93827201e-13 593.452844,1.97377185 593.452844,4.40854282 Z M611.088073,92.5793992 C611.088073,95.0141701 609.114183,96.987942 606.679266,96.987942 C604.244349,96.987942 602.270458,95.0141701 602.270458,92.5793992 C602.270458,90.1446282 604.244349,88.1708564 606.679266,88.1708564 C609.114183,88.1708564 611.088073,90.1446282 611.088073,92.5793992 Z M611.088073,74.9452279 C611.088073,77.3799989 609.114183,79.3537707 606.679266,79.3537707 C604.244349,79.3537707 602.270458,77.3799989 602.270458,74.9452279 C602.270458,72.5104569 604.244349,70.5366851 606.679266,70.5366851 C609.114183,70.5366851 611.088073,72.5104569 611.088073,74.9452279 Z M611.088073,57.3110566 C611.088073,59.7458276 609.114183,61.7195995 606.679266,61.7195995 C604.244349,61.7195995 602.270458,59.7458276 602.270458,57.3110566 C602.270458,54.8762857 604.244349,52.9025138 606.679266,52.9025138 C609.114183,52.9025138 611.088073,54.8762857 611.088073,57.3110566 Z M611.088073,39.6768854 C611.088073,42.1116563 609.114183,44.0854282 606.679266,44.0854282 C604.244349,44.0854282 602.270458,42.1116563 602.270458,39.6768854 C602.270458,37.2421144 604.244349,35.2683425 606.679266,35.2683425 C609.114183,35.2683425 611.088073,37.2421144 611.088073,39.6768854 Z M611.088073,22.0427141 C611.088073,24.4774851 609.114183,26.4512569 606.679266,26.4512569 C604.244349,26.4512569 602.270458,24.4774851 602.270458,22.0427141 C602.270458,19.6079431 604.244349,17.6341713 606.679266,17.6341713 C609.114183,17.6341713 611.088073,19.6079431 611.088073,22.0427141 Z M611.088073,4.40854282 C611.088073,6.84331379 609.114183,8.81708564 606.679266,8.81708564 C604.244349,8.81708564 602.270458,6.84331379 602.270458,4.40854282 C602.270458,1.97377185 604.244349,4.93827201e-13 606.679266,4.93827201e-13 C609.114183,4.93827201e-13 611.088073,1.97377185 611.088073,4.40854282 Z M628.723302,92.5793992 C628.723302,95.0141701 626.749412,96.987942 624.314495,96.987942 C621.879578,96.987942 619.905688,95.0141701 619.905688,92.5793992 C619.905688,90.1446282 621.879578,88.1708564 624.314495,88.1708564 C626.749412,88.1708564 628.723302,90.1446282 628.723302,92.5793992 Z M628.723302,74.9452279 C628.723302,77.3799989 626.749412,79.3537707 624.314495,79.3537707 C621.879578,79.3537707 619.905688,77.3799989 619.905688,74.9452279 C619.905688,72.5104569 621.879578,70.5366851 624.314495,70.5366851 C626.749412,70.5366851 628.723302,72.5104569 628.723302,74.9452279 Z M628.723302,57.3110566 C628.723302,59.7458276 626.749412,61.7195995 624.314495,61.7195995 C621.879578,61.7195995 619.905688,59.7458276 619.905688,57.3110566 C619.905688,54.8762857 621.879578,52.9025138 624.314495,52.9025138 C626.749412,52.9025138 628.723302,54.8762857 628.723302,57.3110566 Z M628.723302,39.6768854 C628.723302,42.1116563 626.749412,44.0854282 624.314495,44.0854282 C621.879578,44.0854282 619.905688,42.1116563 619.905688,39.6768854 C619.905688,37.2421144 621.879578,35.2683425 624.314495,35.2683425 C626.749412,35.2683425 628.723302,37.2421144 628.723302,39.6768854 Z M628.723302,22.0427141 C628.723302,24.4774851 626.749412,26.4512569 624.314495,26.4512569 C621.879578,26.4512569 619.905688,24.4774851 619.905688,22.0427141 C619.905688,19.6079431 621.879578,17.6341713 624.314495,17.6341713 C626.749412,17.6341713 628.723302,19.6079431 628.723302,22.0427141 Z M628.723302,4.40854282 C628.723302,6.84331379 626.749412,8.81708564 624.314495,8.81708564 C621.879578,8.81708564 619.905688,6.84331379 619.905688,4.40854282 C619.905688,1.97377185 621.879578,5.40012479e-13 624.314495,5.40012479e-13 C626.749412,5.40012479e-13 628.723302,1.97377185 628.723302,4.40854282 Z M646.358531,92.5793992 C646.358531,95.0141701 644.384641,96.987942 641.949724,96.987942 C639.514807,96.987942 637.540917,95.0141701 637.540917,92.5793992 C637.540917,90.1446282 639.514807,88.1708564 641.949724,88.1708564 C644.384641,88.1708564 646.358531,90.1446282 646.358531,92.5793992 Z M646.358531,74.9452279 C646.358531,77.3799989 644.384641,79.3537707 641.949724,79.3537707 C639.514807,79.3537707 637.540917,77.3799989 637.540917,74.9452279 C637.540917,72.5104569 639.514807,70.5366851 641.949724,70.5366851 C644.384641,70.5366851 646.358531,72.5104569 646.358531,74.9452279 Z M646.358531,57.3110566 C646.358531,59.7458276 644.384641,61.7195995 641.949724,61.7195995 C639.514807,61.7195995 637.540917,59.7458276 637.540917,57.3110566 C637.540917,54.8762857 639.514807,52.9025138 641.949724,52.9025138 C644.384641,52.9025138 646.358531,54.8762857 646.358531,57.3110566 Z M646.358531,39.6768854 C646.358531,42.1116563 644.384641,44.0854282 641.949724,44.0854282 C639.514807,44.0854282 637.540917,42.1116563 637.540917,39.6768854 C637.540917,37.2421144 639.514807,35.2683425 641.949724,35.2683425 C644.384641,35.2683425 646.358531,37.2421144 646.358531,39.6768854 Z M646.358531,22.0427141 C646.358531,24.4774851 644.384641,26.4512569 641.949724,26.4512569 C639.514807,26.4512569 637.540917,24.4774851 637.540917,22.0427141 C637.540917,19.6079431 639.514807,17.6341713 641.949724,17.6341713 C644.384641,17.6341713 646.358531,19.6079431 646.358531,22.0427141 Z M646.358531,4.40854282 C646.358531,6.84331379 644.384641,8.81708564 641.949724,8.81708564 C639.514807,8.81708564 637.540917,6.84331379 637.540917,4.40854282 C637.540917,1.97377185 639.514807,4.93827201e-13 641.949724,4.93827201e-13 C644.384641,4.93827201e-13 646.358531,1.97377185 646.358531,4.40854282 Z M663.993761,92.5793992 C663.993761,95.0141701 662.01987,96.987942 659.584953,96.987942 C657.150036,96.987942 655.176146,95.0141701 655.176146,92.5793992 C655.176146,90.1446282 657.150036,88.1708564 659.584953,88.1708564 C662.01987,88.1708564 663.993761,90.1446282 663.993761,92.5793992 Z M663.993761,74.9452279 C663.993761,77.3799989 662.01987,79.3537707 659.584953,79.3537707 C657.150036,79.3537707 655.176146,77.3799989 655.176146,74.9452279 C655.176146,72.5104569 657.150036,70.5366851 659.584953,70.5366851 C662.01987,70.5366851 663.993761,72.5104569 663.993761,74.9452279 Z M663.993761,57.3110566 C663.993761,59.7458276 662.01987,61.7195995 659.584953,61.7195995 C657.150036,61.7195995 655.176146,59.7458276 655.176146,57.3110566 C655.176146,54.8762857 657.150036,52.9025138 659.584953,52.9025138 C662.01987,52.9025138 663.993761,54.8762857 663.993761,57.3110566 Z M663.993761,39.6768854 C663.993761,42.1116563 662.01987,44.0854282 659.584953,44.0854282 C657.150036,44.0854282 655.176146,42.1116563 655.176146,39.6768854 C655.176146,37.2421144 657.150036,35.2683425 659.584953,35.2683425 C662.01987,35.2683425 663.993761,37.2421144 663.993761,39.6768854 Z M663.993761,22.0427141 C663.993761,24.4774851 662.01987,26.4512569 659.584953,26.4512569 C657.150036,26.4512569 655.176146,24.4774851 655.176146,22.0427141 C655.176146,19.6079431 657.150036,17.6341713 659.584953,17.6341713 C662.01987,17.6341713 663.993761,19.6079431 663.993761,22.0427141 Z M663.993761,4.40854282 C663.993761,6.84331379 662.01987,8.81708564 659.584953,8.81708564 C657.150036,8.81708564 655.176146,6.84331379 655.176146,4.40854282 C655.176146,1.97377185 657.150036,3.19744231e-14 659.584953,3.19744231e-14 C662.01987,3.19744231e-14 663.993761,1.97377185 663.993761,4.40854282 Z" id="Shape" fill="url(#linearGradient-3)"></path>
        </g>
        <g id="Plant" transform="translate(160.000000, 107.000000)">
            <path d="M199,188.174269 C142.719017,213.593114 97.7234642,213.271218 64.0133428,187.20858 C30.3032215,161.145943 8.96544052,124.033496 0,75.8712405 C105.372053,44.2283274 171.705387,81.6626704 199,188.174269 Z" id="Shape" fill="url(#linearGradient-4)"></path>
            <path d="M115.89853,142.470656 C103.751316,135.579494 90.2443015,127.943142 75.3776565,119.561698 L40.892016,127.819418 C40.2802333,127.965912 39.665953,127.586943 39.5199824,126.972968 C39.3740118,126.358992 39.7516271,125.742511 40.3634098,125.596017 L72.451652,117.912363 C53.8970542,107.455192 33.2742461,95.8646208 10.5835455,83.1408384 C10.0344845,82.8329531 9.83808165,82.1366657 10.1448674,81.5856369 C10.4516531,81.0346081 11.145454,80.8375013 11.694515,81.1453866 C53.1251551,104.377567 87.6617264,123.831731 115.306161,139.509018 L111.739126,104.426202 C111.584986,102.910198 113.850871,102.678161 114.00501,104.194164 L117.735765,140.887202 C154.592735,161.79948 178.829942,175.796159 190.452172,182.880068 C190.989749,183.207729 191.160869,183.910705 190.834378,184.450209 C190.507888,184.989712 189.807422,185.161445 189.269845,184.833785 C182.315586,180.595068 170.826387,173.871062 154.803279,164.662373 C154.761111,164.684157 154.717118,164.703541 154.671409,164.720293 L123.156017,176.270705 C122.565224,176.487231 121.91139,176.182112 121.695637,175.589201 C121.479885,174.996291 121.783915,174.340113 122.374708,174.123587 L152.226934,163.182727 C141.98523,157.304619 129.997135,150.469451 116.262897,142.67737 C116.130357,142.632944 116.00606,142.56433 115.89853,142.470656 Z" id="Shape" fill="#FFFFFF" fill-rule="nonzero"></path>
            <path d="M186.397111,220 C128.543838,198.081935 96.8676044,166.008613 91.3684105,123.780034 C85.8692165,81.5514554 96.9446186,40.291444 124.594617,0 C221.65003,52.2763031 242.250861,125.609636 186.397111,220 Z" id="Shape" fill="url(#linearGradient-5)"></path>
            <path d="M162.563708,129.304978 C173.864256,170.239804 181.123492,197.331633 184.342806,210.585861 C184.491713,211.198925 184.118297,211.817323 183.508757,211.967091 C182.899218,212.116859 182.284375,211.741283 182.135469,211.128219 C180.209165,203.19744 176.830716,190.29204 172.000421,172.413182 C171.955362,172.398663 171.910703,172.381154 171.866683,172.360566 L141.515869,158.165964 C140.946908,157.899869 140.700146,157.220256 140.96471,156.648004 C141.229275,156.075753 141.904981,155.827563 142.473943,156.093658 L171.223049,169.539167 C168.130029,158.116906 164.47778,144.778947 160.266374,129.525569 C160.204104,129.400123 160.16465,129.263425 160.154641,129.120906 C156.429503,115.630464 152.268924,100.648399 147.672953,84.1749033 L117.541306,65.5450292 C117.006764,65.2145312 116.839813,64.5107721 117.168411,63.9731392 C117.497009,63.4355063 118.196722,63.2675903 118.731264,63.5980883 L146.768197,80.932837 C141.029686,60.375216 134.628875,37.5488955 127.565857,12.4542334 C127.394949,11.8470023 127.745829,11.2153946 128.349569,11.0434981 C128.953309,10.8716016 129.581285,11.22451 129.752193,11.8317411 C142.64846,57.6517416 153.337053,95.9093719 161.818533,126.60681 L183.96233,99.2732765 C184.919211,98.0921359 186.680736,99.5357572 185.723855,100.716898 L162.563708,129.304978 Z" id="Shape" fill="#FFFFFF" fill-rule="nonzero"></path>
            <path d="M244,259.562526 C196.223838,298.760152 152.710901,310.14864 113.461189,293.727992 C74.2114767,277.307343 44.0577471,246.99163 23,202.780852 C116.556202,144.804099 190.222869,163.731324 244,259.562526 Z" id="Shape" fill="url(#linearGradient-6)" fill-rule="nonzero"></path>
            <path d="M153.169327,234.117219 C194.134683,244.712951 221.136641,251.916434 234.18055,255.729153 C234.783886,255.905508 235.130224,256.538261 234.954118,257.142447 C234.778012,257.746634 234.146149,258.09346 233.542813,257.917105 C225.737881,255.635733 212.91513,252.1352 195.075714,247.415825 C195.040625,247.447727 195.003156,247.477791 194.963353,247.505765 L167.519981,266.793099 C167.005523,267.154663 166.29578,267.030129 165.934725,266.514946 C165.57367,265.999763 165.698028,265.289019 166.212486,264.927456 L192.207586,246.657974 C180.806972,243.649068 167.474018,240.170685 152.208998,236.222899 C152.069616,236.214438 151.931956,236.180546 151.804023,236.118173 C138.303048,232.627071 123.297489,228.770425 106.787534,224.548288 L75.6285754,241.433553 C75.0758088,241.733101 74.3852129,241.527196 74.0860862,240.97365 C73.7869596,240.420104 73.9925754,239.728535 74.545342,239.428987 L103.538169,223.717564 C82.9334951,218.451367 60.0404012,212.629201 34.8592418,206.251166 C34.2499177,206.096833 33.8808986,205.47707 34.0350147,204.866887 C34.1891308,204.256704 34.8080214,203.887165 35.4173455,204.041498 C81.3952802,215.687066 119.745108,225.479396 150.468989,233.419087 L137.984634,200.55283 C137.445158,199.132608 139.572492,198.322254 140.111968,199.742476 L153.169327,234.117219 Z" id="Shape" fill="#FFFFFF" fill-rule="nonzero"></path>
        </g>
        <g id="Tab" transform="translate(330.000000, 254.000000)">
            <path d="M20,2.27373675e-12 L867,2.27373675e-12 C878.045695,2.27373675e-12 887,8.954305 887,20 L887,626 C887,637.045695 878.045695,646 867,646 L20,646 C8.954305,646 0,637.045695 0,626 L0,20 C0,8.954305 8.954305,2.27373675e-12 20,2.27373675e-12 Z" id="Shape" fill="url(#linearGradient-7)"></path>
            <path d="M48,122 L139,122 C141.209139,122 143,123.790861 143,126 L143,204 C143,206.209139 141.209139,208 139,208 L48,208 C45.790861,208 44,206.209139 44,204 L44,126 C44,123.790861 45.790861,122 48,122 Z M48,248 L139,248 C141.209139,248 143,249.790861 143,252 L143,330 C143,332.209139 141.209139,334 139,334 L48,334 C45.790861,334 44,332.209139 44,330 L44,252 C44,249.790861 45.790861,248 48,248 Z M48,374 L139,374 C141.209139,374 143,375.790861 143,378 L143,456 C143,458.209139 141.209139,460 139,460 L48,460 C45.790861,460 44,458.209139 44,456 L44,378 C44,375.790861 45.790861,374 48,374 Z M48,500 L139,500 C141.209139,500 143,501.790861 143,504 L143,582 C143,584.209139 141.209139,586 139,586 L48,586 C45.790861,586 44,584.209139 44,582 L44,504 C44,501.790861 45.790861,500 48,500 Z" id="Shape" fill="url(#linearGradient-8)"></path>
            <path d="M187,122 L845.863535,122 C848.072674,122 849.863535,123.790861 849.863535,126 L849.863535,582.719599 C849.863535,584.928738 848.072674,586.719599 845.863535,586.719599 L187,586.719599 C184.790861,586.719599 183,584.928738 183,582.719599 L183,126 C183,123.790861 184.790861,122 187,122 Z" id="Shape" fill="#FFFFFF"></path>
            <path d="M213,152 L385,152 L385,182 L213,182 L213,152 Z M213,212 L855,212 L855,242 L213,242 L213,212 Z M213,272 L745,272 L745,302 L213,302 L213,272 Z M213,332 L855,332 L855,362 L213,362 L213,332 Z M213,392 L805,392 L805,422 L213,422 L213,392 Z M213,452 L855,452 L855,482 L213,482 L213,452 Z M213,512 L513.435654,512 L513.435654,542 L213,542 L213,512 Z" id="Shape" fill="#D0F6FF"></path>
            <path d="M611.383957,467.194407 L596.062908,443.702132 C595.029616,442.117751 595.247396,440.026161 596.584923,438.688634 L620.688634,414.584923 C622.026161,413.247396 624.117751,413.029616 625.702132,414.062908 L649.194407,429.383957 C656.526631,425.188948 664.432724,421.882753 672.765849,419.612209 L678.541904,392.175958 C678.931582,390.324983 680.564554,389 682.456103,389 L716.543897,389 C718.435446,389 720.068418,390.324983 720.458096,392.175958 L726.234146,419.612191 C734.567276,421.882753 742.473369,425.188948 749.805593,429.383957 L773.297868,414.062908 C774.882249,413.029616 776.973839,413.247396 778.311366,414.584923 L802.415077,438.688634 C803.752604,440.026161 803.970384,442.117751 802.937092,443.702132 L787.616043,467.194407 C791.811052,474.526631 795.117247,482.432725 797.387791,490.76585 L824.824042,496.541904 C826.675017,496.931582 828,498.564554 828,500.456103 L828,534.543897 C828,536.435446 826.675017,538.068418 824.824042,538.458096 L797.387796,544.234148 C795.117247,552.567275 791.811052,560.473369 787.616043,567.805593 L804.710046,594.016397 L778.311366,620.415077 C776.973839,621.752604 774.882249,621.970384 773.297868,620.937092 L749.805593,605.616043 C742.473369,609.811052 734.567276,613.117247 726.234151,615.387791 L720.458096,642.824042 C720.068418,644.675017 718.435446,646 716.543897,646 L682.456103,646 C680.564554,646 678.931582,644.675017 678.541904,642.824042 L672.765854,615.387809 C664.432724,613.117247 656.526631,609.811052 649.194407,605.616043 L625.702132,620.937092 C624.117751,621.970384 622.026161,621.752604 620.688634,620.415077 L596.584923,596.311366 C595.247396,594.973839 595.029616,592.882249 596.062908,591.297868 L611.383957,567.805593 C607.188948,560.473369 603.882753,552.567275 601.612209,544.23415 L574.175958,538.458096 C572.324983,538.068418 571,536.435446 571,534.543897 L571,500.456103 C571,498.564554 572.324983,496.931582 574.175958,496.541904 L601.612204,490.765852 C603.882753,482.432725 607.188948,474.526631 611.383957,467.194407 Z M699.5,565 C725.733526,565 747,543.733526 747,517.5 C747,491.266474 725.733526,470 699.5,470 C673.266474,470 652,491.266474 652,517.5 C652,543.733526 673.266474,565 699.5,565 Z" id="Shape" fill="url(#linearGradient-9)"></path>
            <path d="M20,-1.13686838e-13 L867,-1.13686838e-13 C878.045695,-1.13686838e-13 887,8.954305 887,20 L887,82.9025138 L-5.68434189e-14,82.9025138 L-1.13686838e-13,20 C-1.13686838e-13,8.954305 8.954305,-1.13686838e-13 20,-1.13686838e-13 Z" id="Shape" fill="url(#linearGradient-10)"></path>
        </g>
        <g id="Envelope" transform="translate(300.000265, 550.253872)">
            <path d="M13.52,0 L324.48,0 C331.94689,6.43563894e-14 338,6.08267502 338,13.5860349 L338,212.84788 C338,220.35124 331.94689,226.433915 324.48,226.433915 L13.52,226.433915 C6.05311018,226.433915 0,220.35124 0,212.84788 L0,13.5860349 C0,6.08267502 6.05311018,0 13.52,0 Z" id="Shape" fill="url(#linearGradient-11)"></path>
            <polygon id="Shape" fill="url(#linearGradient-12)" points="169 104.159601 324.48 226.433915 13.52 226.433915"></polygon>
            <polygon id="Shape" fill="#52D7FD" points="13.52 1.06988954e-13 324.48 4.26325641e-14 169 137.091827"></polygon>
        </g>
        <g id="Men" transform="translate(59.585827, 411.981738)">
            <polygon id="Shape" fill="#221E41" points="240.414438 177.93006 240.414438 200.139048 190.364332 174.298788 163.414173 105.468327 205.247729 94.25906 222.858191 164.280663"></polygon>
            <path d="M199.038852,93.2055995 L174.039354,73.6725973 L181.513195,64.1059025 C182.634982,50.8478631 190.500301,37.3642852 205.109154,23.6551686 C219.718007,9.94605209 235.303891,15.4139174 251.866809,40.0587644 C245.439986,49.5357077 243.357895,57.0649783 245.620533,62.6465764 C249.01449,71.0189736 244.688175,72.9793636 241.719244,72.3250455 C238.750314,71.6707274 235.973813,72.3324108 232.542928,78.0588209 C229.112044,83.785231 225.120241,82.3307226 218.548047,80.5170712 C214.166584,79.3079703 207.663519,83.5374797 199.038852,93.2055995 Z" id="Shape" fill="#F4B696"></path>
            <polygon id="Shape" fill="#F4B696" points="172.741467 443.34781 194.31669 444.856497 192.80891 466.418751 171.233687 464.910064"></polygon>
            <path d="M170.511168,463.24069 L193.172427,464.82532 L207.192419,470.620735 C214.246769,473.688578 220.266017,475.160256 219.704819,483.185772 C219.560655,485.247403 218.07779,486.823165 216.392746,486.705335 L173.88991,483.733247 C171.2454,483.548325 169.251511,481.254618 169.436433,478.610109 L170.511168,463.24069 Z" id="Shape" fill="url(#linearGradient-13)"></path>
            <polygon id="Shape" fill="#F4B696" points="23.1906847 437.510362 40.688029 450.222926 27.9831055 467.709753 10.4857612 454.997189"></polygon>
            <path d="M10.7576631,453.198602 L29.1357751,466.551082 L37.9543002,478.895337 C42.3110193,485.235252 46.635761,489.673021 41.9069618,496.181654 C40.6922068,497.853621 38.5996392,498.404144 37.2330813,497.411282 L2.7635981,472.367736 C0.618920906,470.809537 0.143486547,467.807763 1.70168574,465.663086 L10.7576631,453.198602 Z" id="Shape" fill="url(#linearGradient-14)"></path>
            <path d="M181.333157,63.6408853 C179.447874,61.3406868 178.932354,59.032719 179.786597,56.716982 C181.06796,53.2433764 183.752537,52.8392646 181.291905,42.7527602 C178.831274,32.6662559 178.804932,21.1991697 191.394753,8.54251453 C203.984573,-4.11414062 213.654917,-0.15020689 223.038085,4.25514041 C232.421253,8.66048772 235.448706,11.8008435 250.061515,14.8843292 C264.674323,17.9678148 266.236395,29.5386243 256.493448,40.1929253 C246.750502,50.8472263 228.544138,39.7077907 225.562097,37.3778158 C222.580057,35.047841 221.363808,40.8499834 218.788938,46.0476215 C216.214067,51.2452596 212.383418,50.4725524 211.622924,49.085627 C210.862431,47.6987016 208.853923,45.4300839 204.991059,46.8763616 C201.128194,48.3226393 200.790673,53.9969461 202.428817,55.276887 C204.066962,56.5568279 206.736666,57.4159841 205.642579,59.4921326 C204.548493,61.5682812 199.850537,67.1845695 195.853615,69.2707185 C193.189,70.6614844 188.348847,68.7848734 181.333157,63.6408853 Z" id="Shape" fill="url(#linearGradient-15)"></path>
            <path d="M138.830797,293.154838 L115.874162,369.897887 C114.975781,372.901136 113.422565,375.667783 111.326375,377.998573 L36.4215247,461.286605 L14.9007323,446.888474 L72.5935305,347.904284 L72.5935305,240.502385 L134.830797,250.755675 L138.830797,293.154838 Z" id="Shape" fill="#241F4A"></path>
            <path d="M72.1423086,240.502385 L155.731206,247.902231 L216.82532,311.166167 C221.63945,316.151275 223.713114,323.174651 222.378698,329.975128 L197.414173,457.199901 L168.957313,455.399581 L174.241786,338.644412 L101.876247,308.769503 C83.881556,301.340694 72.1423086,283.794063 72.1423086,264.326241 L72.1423086,240.502385 Z" id="Shape" fill="url(#linearGradient-16)"></path>
            <path d="M72.1423086,240.502385 C102.949669,163.721576 120.818018,118.184142 125.747354,103.890083 C133.141359,82.448995 158.857029,62.1500622 188.328585,75.5236486 C217.800141,88.8972351 212.173269,130.527057 200.937809,162.323235 C193.447502,183.520687 179.000169,213.032076 157.595809,250.857403 L72.1423086,240.502385 Z" id="Shape" fill="#00ADFF"></path>
            <polygon id="Shape" fill="#221E41" points="168.957313 230.441601 144.768886 135.368748 171.414173 126.672066 184.064495 201.571268"></polygon>
            <path d="M193.126336,128.86732 L204.450096,190.923328 L275.097401,248.927145 L287.718613,254.372779 L278.215067,256.91941 L283.785419,277.709581 C272.449222,278.595855 264.650922,276.433869 260.39052,271.223624 C256.130118,266.013379 252.62338,257.567966 249.870307,245.887385 L171.956237,200.941452 L151.292781,140.076587 L193.126336,128.86732 Z" id="Shape" fill="#F4B696"></path>
            <polyline id="Shape" fill="#00ADFF" points="195.249684 114.316187 203.225826 164.696465 160.8469 178.68814 140.102484 126.65689"></polyline>
            <path d="M104.73974,258.223281 L105.651809,257.813244 L108.522072,264.197724 L107.610004,264.607761 L104.73974,258.223281 Z M111.71038,273.728448 L112.622449,273.31841 L114.300231,277.050392 C114.688795,277.914696 115.139253,278.748316 115.647801,279.545165 L114.804841,280.083141 C114.27021,279.245421 113.796648,278.369046 113.388163,277.46043 L111.71038,273.728448 Z M122.248751,287.041626 L122.737522,286.169214 L128.844405,289.590615 L128.355634,290.463027 L122.248751,287.041626 Z M137.079752,295.350741 L137.568524,294.47833 L143.675406,297.89973 L143.186635,298.772142 L137.079752,295.350741 Z M151.910753,303.659857 L152.399525,302.787445 L158.506408,306.208845 L158.017636,307.081257 L151.910753,303.659857 Z M166.741755,311.968972 L167.230526,311.09656 L173.337409,314.517961 L172.848638,315.390373 L166.741755,311.968972 Z M181.572756,320.278088 L182.061528,319.405676 L188.168411,322.827076 L187.679639,323.699488 L181.572756,320.278088 Z M194.825675,330.231305 L195.662316,329.683552 C196.981595,331.698626 197.937485,333.93262 198.482881,336.280284 L197.50882,336.506572 C196.990026,334.273413 196.08069,332.148221 194.825675,330.231305 Z M197.503855,346.29255 L198.496582,346.412935 L197.653892,353.362026 L196.661165,353.241642 L197.503855,346.29255 Z M195.457322,363.168916 L196.450049,363.2893 L195.607359,370.238391 L194.614632,370.118007 L195.457322,363.168916 Z M193.410789,380.045281 L194.403517,380.165665 L193.560827,387.114757 L192.568099,386.994372 L193.410789,380.045281 Z M191.364257,396.921646 L192.356984,397.04203 L191.514294,403.991122 L190.521567,403.870738 L191.364257,396.921646 Z M189.317724,413.798011 L190.310451,413.918396 L189.467761,420.867487 L188.475034,420.747103 L189.317724,413.798011 Z M187.271191,430.674376 L188.263918,430.794761 L187.421228,437.743852 L186.428501,437.623468 L187.271191,430.674376 Z" id="Shape" fill="#A587FF" fill-rule="nonzero"></path>
        </g>
        <g id="Calendar" transform="translate(829.000000, 148.264375)">
            <path d="M8,7.10542736e-13 L382,7.10542736e-13 C386.418278,7.09731111e-13 390,3.581722 390,8 L390,326 C390,330.418278 386.418278,334 382,334 L8,334 C3.581722,334 1.14227921e-13,330.418278 1.13686838e-13,326 L1.12798659e-13,8 C1.12257576e-13,3.581722 3.581722,7.1135436e-13 8,7.10542736e-13 Z" id="Shape" fill="url(#linearGradient-17)"></path>
            <path d="M30,92 L80,92 L80,142 L30,142 L30,92 Z M30,172 L80,172 L80,222 L30,222 L30,172 Z M123,92 L173,92 L173,142 L123,142 L123,92 Z M123,172 L173,172 L173,222 L123,222 L123,172 Z M217,92 L267,92 L267,142 L217,142 L217,92 Z M310,92 L360,92 L360,142 L310,142 L310,92 Z M310,172 L360,172 L360,222 L310,222 L310,172 Z M30,252 L80,252 L80,302 L30,302 L30,252 Z M123,252 L173,252 L173,302 L123,302 L123,252 Z M217,252 L267,252 L267,302 L217,302 L217,252 Z M310,252 L360,252 L360,302 L310,302 L310,252 Z" id="Shape" fill="#77D0E6"></path>
            <polygon id="Shape" fill="url(#linearGradient-9)" points="217 172 267 172 267 222 217 222"></polygon>
            <path d="M8,-1.27897692e-13 L382,-1.27897692e-13 C386.418278,-1.28709317e-13 390,3.581722 390,8 L390,62.3253589 L0,62.3253589 L0,8 C-5.41083001e-16,3.581722 3.581722,-1.27086068e-13 8,-1.27897692e-13 Z" id="Shape" fill="url(#linearGradient-18)"></path>
        </g>
        <g id="Women" transform="translate(1038.498408, 332.220642)">
            <path d="M272.858361,552.13971 C275.12066,548.1252 277.430154,544.714821 279.786841,541.908572 C283.321802,537.699081 284.574268,539.204581 285.682541,541.123715 C286.790814,543.042849 289.27834,547.351823 291.287737,550.832199 C293.297226,554.3126 292.439752,555.319636 286.063595,558.442947 C279.687438,561.566258 278.609892,561.432336 272.744119,566.13295 C266.878347,570.833563 253.781023,578.143823 248.339951,575.260065 C242.899118,572.376169 250.964128,565.245098 258.325565,559.552126 C263.233064,555.756778 268.07733,553.285973 272.858361,552.13971 Z" id="Shape" fill="url(#linearGradient-19)"></path>
            <path d="M275.668887,523.779358 L286.425404,542.410191 L283.293926,546.325192 C277.603044,553.439982 269.250266,557.918191 260.174845,558.72012 L268.834074,550.87998 L258.807864,533.514074 L275.668887,523.779358 Z" id="Shape" fill="#F4B696"></path>
            <polygon id="Shape" fill="#241F4A" points="259.237897 543.986109 187.412722 431.311181 206.77205 294.779358 233.102129 428.881578 285.623718 530.949533"></polygon>
            <path d="M176.887429,560.93488 C180.853892,558.589362 184.559162,556.790634 188.003237,555.538694 C193.169349,553.660649 193.501266,555.590683 193.501492,557.806839 C193.501717,560.022994 193.501491,564.998438 193.501492,569.01723 C193.50156,573.036091 192.255448,573.479472 185.171878,572.99626 C178.088308,572.513048 177.222087,571.858295 169.791873,572.99626 C162.361658,574.134225 147.363912,573.916433 144.093685,568.698489 C140.823733,563.480546 151.373772,561.337362 160.595449,560.087823 C166.743143,559.254705 172.173802,559.537057 176.887429,560.93488 Z" id="Shape" fill="url(#linearGradient-20)"></path>
            <path d="M193.501592,537.779358 L193.501592,559.292391 L188.832152,561.117142 C180.346309,564.43329 170.873486,564.135144 162.612976,560.291924 L174.032159,557.831779 L174.032159,537.779358 L193.501592,537.779358 Z" id="Shape" fill="#F4B696"></path>
            <path d="M40.1937077,46.8095484 L31.4882799,37.0962092 C32.9564235,29.9172483 31.3239151,24.6235168 26.5907548,21.2150147 L24.0425087,26.3277678 C19.4053783,22.9192657 15.4720299,19.1022671 12.2424632,14.876772 C7.39811332,8.5385293 -2.30998584,22.6434433 0.50159184,32.9461972 C3.31316952,43.2489512 13.9176918,45.7793579 19.9252126,51.6005575 C20.8857891,52.5313421 24.3078631,55.5572019 30.1914344,60.6781366 L40.1937077,46.8095484 Z" id="Shape" fill="#F4B696"></path>
            <path d="M175.186343,92.123435 L171.501592,69.7793579 C160.426354,71.4496958 154.337496,68.1413583 153.235019,59.8543453 C152.132542,51.5673323 151.523859,46.5944595 151.40897,44.9357269 L145.280339,42.9549798 L153.235019,32.7031228 L157.483394,12.9262738 C167.625234,9.18772786 178.728777,13.0251231 190.794022,24.4384597 C208.891891,41.5584645 199.849834,80.3103548 197.447734,89.5952075 C195.846334,95.7851092 188.42587,96.6278518 175.186343,92.123435 Z" id="Shape" fill="#F4B696"></path>
            <path d="M199.501592,550.419949 L165.648273,550.419949 L122.509413,258.004221 L210.375299,257.575309 C212.441879,273.621536 212.102796,289.886303 209.369248,305.832459 L189.136821,423.858327 L199.501592,550.419949 Z" id="Shape" fill="url(#linearGradient-21)"></path>
            <path d="M122.509413,258.004221 L136.590755,148.279358 C130.161904,136.52831 128.554691,123.561481 131.769116,109.37887 C134.319943,101.196351 139.723253,97.1050907 147.979044,97.1050907 C160.362732,97.1050907 195.243128,77.9532273 202.807125,77.9532273 C212.775119,81.5924192 216.884108,95.154909 215.134092,118.640697 C213.384077,142.126485 211.845065,188.672705 210.517056,258.279358 L122.509413,258.004221 Z" id="Shape" fill="url(#linearGradient-22)"></path>
            <path d="M175.66275,125.721007 L132.004702,136.735328 C130.563827,132.114055 129.84339,126.462065 129.84339,119.779358 C129.84339,113.096651 145.11651,115.077201 175.66275,125.721007 Z" id="Shape" fill="#211D41"></path>
            <path d="M187.462441,126.680442 L92.4325346,121.610041 C87.9053032,121.368487 83.6359579,119.427444 80.4776993,116.174818 L20.8196967,54.7342613 L38.0939576,41.9271949 L91.1066715,86.3556332 C163.291608,80.8841747 200.035344,78.1484454 201.337878,78.1484454 C202.640412,78.1484454 202.640412,80.8841747 201.337878,86.3556332 L187.462441,126.680442 Z" id="Shape" fill="url(#linearGradient-23)"></path>
            <path d="M148.842615,10.4918475 C143.894196,18.9357933 150.510367,26.5144679 168.69113,33.227871 C195.962275,43.2979757 171.504029,49.3925767 183.416376,66.0949638 C195.328722,82.797351 167.754434,108.699686 189.136821,132.493594 C203.391745,148.3562 210.398259,157.854569 210.156361,160.988701 C221.397415,156.060629 227.931884,145.657514 229.759767,129.779358 C232.501592,105.962123 208.984093,81.7228667 212.286879,60.2999533 C215.589665,38.8770399 217.172751,18.450762 191.501592,5.44590871 C174.387486,-3.2239935 160.167827,-1.54201391 148.842615,10.4918475 Z" id="Shape" fill="url(#linearGradient-24)"></path>
            <path d="M180.863671,539.251958 L179.869587,539.360577 L179.109252,532.401993 L180.103335,532.293374 L180.863671,539.251958 Z M179.017142,522.35254 L178.023059,522.461159 L177.262724,515.502575 L178.256807,515.393956 L179.017142,522.35254 Z M177.170614,505.453122 L176.17653,505.561741 L175.416195,498.603157 L176.410278,498.494538 L177.170614,505.453122 Z M175.324085,488.553704 L174.330002,488.662323 L173.569666,481.703739 L174.56375,481.59512 L175.324085,488.553704 Z M173.477557,471.654286 L172.483473,471.762905 L171.723138,464.804321 L172.717221,464.695702 L173.477557,471.654286 Z M171.631028,454.754867 L170.636945,454.863487 L169.876609,447.904903 L170.870693,447.796284 L171.631028,454.754867 Z M169.7845,437.855449 L168.790416,437.964069 L168.030081,431.005485 L169.024164,430.896865 L169.7845,437.855449 Z M167.937971,420.956031 L166.943888,421.064651 L166.183552,414.106067 L167.177636,413.997447 L167.937971,420.956031 Z M167.095398,404.067652 L166.095461,404.056417 L166.174109,397.056859 L167.174046,397.068094 L167.095398,404.067652 Z M167.286399,387.068725 L166.286462,387.05749 L166.36511,380.057932 L167.365047,380.069167 L167.286399,387.068725 Z M167.4774,370.069798 L166.477463,370.058563 L166.556111,363.059005 L167.556048,363.07024 L167.4774,370.069798 Z M167.668401,353.070871 L166.668464,353.059636 L166.747112,346.060078 L167.747049,346.071313 L167.668401,353.070871 Z M167.859402,336.071944 L166.859465,336.060709 L166.938113,329.061151 L167.93805,329.072386 L167.859402,336.071944 Z M168.050403,319.073017 L167.050466,319.061782 L167.129114,312.062224 L168.129051,312.073459 L168.050403,319.073017 Z M168.241404,302.07409 L167.241467,302.062855 L167.320115,295.063297 L168.320052,295.074532 L168.241404,302.07409 Z M168.432405,285.075163 L167.432468,285.063928 L167.511116,278.06437 L168.511053,278.075605 L168.432405,285.075163 Z" id="Shape" fill="#A587FF" fill-rule="nonzero"></path>
        </g>
    </g>
</svg>